<svg xmlns="http://www.w3.org/2000/svg" height="1024" preserveAspectRatio="none" style="display: block;" version="1.1" viewBox="0 0 2048 2048" width="1024">
<path d="M 0 0 L 2048 0 L 2048 2048 L 0 2048 L 0 0 z" fill="rgb(130,104,83)" transform="translate(0,0)"></path>
<path d="M 592.769 821.111 C 633.601 819.219 619.151 873.724 622.253 901.005 L 622.44 902.572 C 659.242 907.754 713.226 898.365 751.422 897.393 C 768.637 896.955 783.855 889.597 803.424 892.338 C 823.199 895.109 834.555 901.797 852.325 910.861 C 856.242 912.689 863.975 925.628 869.95 925.949 C 870.737 924.101 870.747 924.985 870.226 923.384 C 868.361 917.656 864.971 908.157 868.597 902.476 C 872.933 895.683 900.849 892.027 909.681 890.449 C 937.716 885.442 973.869 885.492 1000.19 897.214 C 1006.04 899.823 1011.23 903.626 1016.47 907.286 C 1028.72 907.88 1039 907.519 1047.43 918.651 C 1064.07 941.102 1060.66 968.491 1059.85 994.539 C 1058.97 1022.66 1066.39 1027.13 1042.31 1045.29 C 1035.28 1043.04 1017.84 1037.38 1019.13 1027.63 C 1021.7 1008.23 1023.04 991.185 1023.11 971.556 C 1000.84 993.797 992.41 999.644 962.64 1014.87 C 951.4 1020.63 925.944 1023.8 921.069 1028.85 C 919.602 1042.56 923.625 1060.83 924.493 1074.74 C 925.688 1093.92 929.927 1113.39 931.558 1132.38 C 928.044 1136.65 925.817 1140.31 920.152 1141.32 C 901.377 1144.69 889.454 1138.54 884.87 1120.72 C 886.203 1117.67 888.46 1112.76 888.401 1109.63 C 888.087 1093.09 883.176 1032.37 877.207 1019.57 C 868.19 1027.3 846.335 1038.81 834.787 1044.58 C 798.148 1062.87 741.846 1062.1 723.828 1018.36 C 712.393 990.604 721.646 962.929 732.089 936.53 C 697.943 941.995 659.606 940.194 625.279 944.268 C 616.201 945.346 620.216 993.604 621.11 1002.03 C 634.23 1063.5 708.566 989.31 716.003 1037.97 C 713.017 1059.69 661.03 1060.47 649.279 1059.58 C 625.116 1057.76 600.173 1043.23 589.389 1022.3 C 580.117 1004.31 581.332 964.547 583.145 944.422 C 568.045 941.048 558.22 942.123 540.809 937.047 C 544.901 977.879 546.633 1021.97 512.37 1051.52 C 473.479 1085.06 367.127 1078.57 349.251 1023.07 C 341.454 998.859 339.234 953.731 337.041 927.301 C 335.717 911.332 343.172 880.732 341.3 862.881 C 340.321 850.239 348.433 839.697 358.094 831.942 C 363.019 832.555 370.325 833.12 373.277 837.73 C 385.117 859.297 375.516 893.308 374.265 916.625 C 372.809 944.297 379.287 976.85 385.037 1004.09 C 392.906 1041.37 456.107 1046.84 479.62 1022.38 C 506.833 994.066 502.045 959.812 502.259 924.529 L 505.471 920.147 L 505.248 918.804 C 500.434 916.49 498.605 911.657 499.267 906.293 C 501.109 891.372 490.787 870.383 489.15 858.715 C 487.504 846.99 506.455 841.383 517.364 851.083 C 535.042 866.802 526.097 881.159 537.992 898.44 C 542.879 904.594 575.96 904.997 582.717 902.645 C 591.474 892.709 575.559 833.808 592.769 821.111 z" fill="rgb(2,1,2)" transform="translate(0,0)"></path>
<path d="M 797.027 928.129 C 817.659 928.152 829.484 933.647 842.942 949.163 C 843.766 957.75 844.815 962.881 843.075 971.555 C 838.201 995.856 823.062 1010.26 800.078 1016.93 C 792.599 1018.85 781.711 1020.15 773.95 1020.09 C 746.426 1019.87 756.906 988.814 758.176 971.826 C 766.543 960.444 782.664 932.616 797.027 928.129 z" fill="rgb(130,104,83)" transform="translate(0,0)"></path>
<path d="M 947.183 924.511 C 954.755 924.325 985.259 926.923 986.837 932.585 C 991.969 951.006 953.366 975.646 943.262 980.543 C 935.7 983.997 925.558 987.265 917.56 990.085 C 916.325 978.9 912.639 967.234 913.979 955.814 C 914.663 949.99 912.961 932.869 915.988 928.622 C 923.886 924.021 937.625 924.769 947.183 924.511 z" fill="rgb(130,104,83)" transform="translate(0,0)"></path>
<path d="M 1662.42 855.481 C 1664.09 856.204 1664.73 856.401 1666.57 856.364 C 1706.94 855.565 1696.9 870.904 1697.83 899.043 C 1698.87 930.527 1700.48 953.632 1680.47 980.117 C 1661.65 1005.03 1637.68 988.779 1619.69 973.27 C 1610.76 983.99 1605.54 991.726 1592.9 997.835 C 1580.13 997.262 1577.06 995.045 1566.22 988.653 C 1541.49 1000.19 1525.6 987.847 1506.02 974.145 C 1498.42 979.678 1492.73 989.517 1485.26 993.697 C 1465.44 1004.8 1441.38 984.334 1432.8 967.649 C 1420.52 943.762 1430.36 923.104 1438.18 899.949 C 1425.92 899.819 1401.45 902.521 1391.45 911.022 C 1390.82 911.105 1388.73 914.531 1388.85 915.093 C 1392.56 932.533 1396.18 949.76 1397.97 967.53 C 1398.85 976.236 1400.05 984.125 1399.93 992.989 L 1399.9 994.634 C 1385.67 1021.26 1377.19 999.947 1366.49 1001 L 1364.96 1000.76 C 1361.37 997.779 1360.23 994.583 1358.1 990.384 C 1358.92 977.84 1358.23 957.908 1357.54 944.317 C 1356.47 923.193 1347.92 894.448 1358.44 874.076 C 1363.96 865.244 1378.56 870.355 1385.98 868.987 C 1404.08 865.651 1426.49 859.347 1444.56 862.836 C 1447.23 863.353 1460.78 872.425 1464.59 874.634 C 1488.3 869.213 1496.7 880.645 1516.59 891.851 C 1527.42 897.957 1524.15 912.711 1525.73 923.693 C 1527.57 936.469 1536.04 959.352 1552.81 955.918 C 1562.44 947.375 1533.91 911.64 1541.15 889.884 C 1542.17 886.812 1543.94 884.957 1546.87 883.637 C 1551.92 881.351 1559.2 883.253 1563.93 885.472 C 1581.71 893.812 1582.21 920.562 1588.26 937.142 C 1588.41 937.552 1588.57 937.96 1588.72 938.368 C 1593.02 930.55 1595.45 920.392 1605.05 916.763 C 1612.97 913.769 1625.58 919.094 1632.84 922.683 C 1635.98 927.532 1644.17 943.717 1646.74 945.861 C 1655.21 940.447 1658.08 912.021 1658.76 902.366 C 1659.81 887.32 1654.24 868.573 1662.42 855.481 z" fill="rgb(2,1,2)" transform="translate(0,0)"></path>
<path d="M 1477.1 916.743 L 1478.24 917.421 C 1479.82 924.872 1474.96 949.305 1466.06 952.535 C 1457.21 940.658 1466.48 924.204 1477.1 916.743 z" fill="rgb(130,104,83)" transform="translate(0,0)"></path>
<path d="M 1128.05 894.165 C 1146.35 892.666 1152.77 899.475 1170.84 900.026 C 1182.3 907.454 1181.78 912.765 1185.12 925.338 C 1189.32 941.138 1193.33 959.205 1204.59 971.777 C 1212.92 981.073 1226.56 991.542 1238.28 996.254 C 1240.74 997.037 1261.68 998.365 1265.01 998.613 C 1266.29 1005.76 1268.28 1015 1264.08 1021.4 C 1251.71 1040.27 1222.6 1026.96 1208.55 1018.6 C 1196.17 1010.62 1186.35 1001.76 1175.32 992.129 C 1167.02 997.89 1159.9 1006.09 1151.73 1011.7 C 1112.4 1038.71 1072.63 991.443 1083.86 951.823 C 1091.75 923.949 1104.38 908.772 1128.05 894.165 z" fill="rgb(2,1,2)" transform="translate(0,0)"></path>
<path d="M 1134.57 934.307 C 1136.81 934.653 1138.95 935.101 1139.44 937.724 C 1141.5 948.775 1139.89 962.464 1135.31 972.753 C 1132.77 978.476 1128.75 979.746 1123.25 981.484 C 1120.17 978.657 1118.88 975.014 1117.04 971.169 C 1119.77 951.515 1123.66 950.62 1134.57 934.307 z" fill="rgb(130,104,83)" transform="translate(0,0)"></path>
<path d="M 1029.96 820.22 C 1042.99 820.711 1049.16 826.002 1054.3 837.873 C 1060.08 851.212 1057.11 859.06 1044.42 864.265 C 1025.62 863.675 1002.7 829.128 1029.96 820.22 z" fill="rgb(2,1,2)" transform="translate(0,0)"></path>
<metadata><recraft-signature>{"signed_by": "recraft", "signature_b64": "j2PQRvZF4q1RC69TmQ0evx3UzWcifpNQJyeuaRjpedknXLtI5/cOk4iMqJbpLWX+FE/OkiBIbR7i6p4LeqM/Bg==", "signing_algo": "Ed25519", "generation_timestamp": 1776302741, "identifier": "4fd2f5d0-1806-4da8-b4d4-e10ef598ba74"}</recraft-signature></metadata></svg>