<svg xmlns="http://www.w3.org/2000/svg" height="1024" preserveAspectRatio="none" style="display: block;" version="1.1" viewBox="0 0 2048 2048" width="1024">
<defs>
	<linearGradient gradientUnits="userSpaceOnUse" id="Gradient1" x1="1088.62" x2="958.377" y1="-54.7042" y2="2101.7">
		<stop class="stop0" offset="0" stop-color="rgb(77,64,52)" stop-opacity="1"></stop>
		<stop class="stop1" offset="1" stop-color="rgb(151,124,102)" stop-opacity="1"></stop>
	</linearGradient>
</defs>
<path d="M 0 0 L 2048 0 L 2048 2048 L 0 2048 L 0 0 z" fill="url(#Gradient1)" transform="translate(0,0)"></path>
<path d="M 1255.87 775.258 C 1269.73 777.139 1281.56 777.041 1295.19 781.43 C 1323.85 790.651 1341.64 798.055 1360.06 822.9 C 1382.52 853.189 1391.1 893.324 1390.35 930.538 C 1389.97 949.597 1358.06 978.341 1343.66 989.792 C 1323.69 1005.52 1287.15 1010.18 1262.28 1010.59 C 1253.54 1010.87 1235.66 1007.52 1226.09 1005.85 C 1223.63 1007.57 1221.18 1009.72 1218.85 1011.65 C 1219.1 1012.75 1219.31 1013.84 1219.54 1014.95 C 1220.19 1018.06 1222.62 1065.2 1222.43 1065.78 C 1220.27 1072.55 1223.81 1088.79 1223.84 1097.16 C 1223.87 1102.57 1221.7 1107.2 1221.29 1112.4 C 1221.06 1115.26 1230 1181.08 1230.98 1185.98 C 1231.53 1188.75 1231.9 1191.52 1234.01 1193.57 C 1242.86 1202.2 1248.55 1190.7 1257.13 1190.52 C 1263.49 1193.28 1274.2 1212.36 1282.87 1221.24 C 1281.13 1227.34 1278.06 1238.14 1270.52 1238.65 C 1256.16 1239.61 1238.75 1236.3 1224.39 1234.78 L 1129.75 1224.66 C 1117.19 1223.39 1102.87 1223.63 1089.9 1222.61 C 1077.49 1221.99 1064.27 1220.88 1051.98 1220.06 C 1042.37 1219.42 1041.61 1221.93 1032.85 1217.83 C 1027.46 1215.31 1004.53 1214.5 998.88 1216.37 C 989.227 1219.57 980.26 1214.5 970.313 1214.24 C 961.192 1214.17 950.814 1216.54 941.788 1216.05 C 933.715 1215.61 924.119 1212.86 915.986 1211.97 C 910.759 1211.4 902.731 1213.35 897.895 1213.15 C 880.029 1212.39 863.737 1210.29 845.847 1212.79 C 821.081 1221.41 792.655 1210.83 768.052 1211.12 C 754.804 1211.28 740.81 1210.42 727.9 1211.68 C 719.962 1201.74 720.35 1196.44 715.633 1184.94 C 714.59 1182.4 707.295 1173.77 705.153 1171.19 C 704.376 1167.69 704.166 1167.7 705.193 1164.12 C 709.728 1157.93 715.39 1160.32 721.008 1162.91 C 737.069 1158.07 737.132 1161.25 753.618 1164.7 C 759.856 1166 758.469 1165.24 765.163 1168.43 C 766.515 1168.28 770.385 1167.67 771.5 1167.75 C 802.291 1169.97 833.176 1175.18 864.463 1175.39 C 876.445 1174.99 886.039 1173.06 898.311 1173.21 C 909.45 1173.35 921.221 1176.02 932.406 1174.29 C 945.494 1172.25 964.247 1180.18 977.845 1180.19 C 987.479 1180.19 995.2 1177.53 1003.46 1181.11 C 1017.8 1185.09 1035.92 1180.3 1051.81 1182.93 C 1067.42 1185.51 1085.72 1184.58 1101.44 1187.07 C 1108.61 1188.21 1126.49 1186.68 1131.88 1188.51 C 1139.33 1191.04 1175.27 1194.35 1180.52 1192.05 C 1180.9 1189.38 1172.24 1151.25 1171.18 1144.66 C 1169.8 1136.01 1168.11 1124.44 1166.89 1114.61 C 1165.44 1102.93 1170.77 1094.54 1168.66 1085.09 C 1167.94 1081.87 1167.33 1084.78 1167.78 1079.05 C 1169.04 1063.07 1169.83 1038.87 1168.44 1023 C 1166.64 1002.4 1163.12 985.875 1162.78 964.485 C 1162.18 925.588 1170.07 885.763 1164.66 847.822 C 1162.26 830.981 1153.96 823.399 1146.99 809.552 L 1146.39 808.341 C 1151.14 803.135 1153.5 800.688 1158.89 796.152 C 1159.48 796.187 1164.61 796.629 1164.51 796.633 C 1172.26 796.32 1183.86 804.293 1189.93 804.637 C 1197.22 805.051 1207.01 791 1213.87 787.673 C 1227.01 781.292 1241.77 778.467 1255.87 775.258 z" fill="rgb(2,1,2)" transform="translate(0,0)"></path>
<path d="M 1272.73 822.369 C 1298.74 819.033 1328.61 840.372 1335.19 865.413 C 1337.6 874.575 1338.91 882.45 1338.29 891.995 C 1338.06 895.592 1339.62 899.32 1339.7 902.885 C 1338.71 928.464 1325.61 942.172 1303.42 952.817 C 1291.84 958.373 1281.88 960.321 1269.76 964.047 C 1256.91 966.912 1253.1 966.358 1240.37 965.17 C 1203.02 961.683 1227.39 937.258 1225.72 913.793 C 1225.23 906.844 1218.24 902.319 1221.55 895.77 C 1220.41 890.873 1215.54 889.451 1215 886.502 C 1213.97 878.333 1218.81 858.641 1225.04 853.02 C 1240.3 839.243 1251.42 824.507 1272.73 822.369 z" fill="rgb(119,94,72)" transform="translate(0,0)"></path>
<path d="M 1654.06 766.248 C 1667.54 764.499 1706.94 777.502 1717.98 788.036 C 1723.82 793.612 1735.83 806.748 1741.87 810.429 C 1776.85 831.745 1776.91 830.279 1774.9 868.209 C 1758.43 878.428 1764.47 877.007 1761.84 892.056 C 1761.01 896.771 1753.7 911.997 1751.52 918.35 C 1753.79 927.625 1757.3 935.974 1757.28 945.653 C 1757.27 950.333 1757.81 955.148 1758.25 959.826 L 1765.27 965.409 C 1757.86 991.146 1774.47 989.096 1792.58 983.469 C 1793.29 979.032 1793.53 975.292 1797.72 972.8 C 1801.71 974.912 1821.78 996.875 1823.66 1001.09 C 1827.77 1010.28 1811.28 1029.08 1801.98 1031.77 C 1773.4 1040.03 1760.42 1029.27 1736.26 1017.8 C 1728.27 1004.71 1705.56 1017.16 1695.89 1018.46 C 1663.71 1022.65 1631.03 1021.17 1599.36 1014.08 C 1563.55 1006.16 1538.93 992.176 1527.17 955.33 C 1524.61 947.322 1522.05 934.865 1517.74 928.574 C 1522.39 909.821 1514.21 892.681 1521.24 868.492 C 1532.57 829.491 1558.45 822.249 1585.8 795.805 C 1595.71 786.22 1594.72 789.024 1602.04 776.963 C 1627.4 762.716 1632.08 772.461 1654.06 766.248 z" fill="rgb(2,1,2)" transform="translate(0,0)"></path>
<path d="M 1633.92 838.163 C 1641.23 837.562 1645.37 838.876 1652.28 840.736 C 1658.56 861.053 1669.53 863.886 1687.41 855.795 C 1691.02 856.25 1694.79 856.552 1697.6 858.732 C 1695.71 865.969 1689.33 890.652 1689.67 897.263 C 1690.49 913.125 1693.07 932.623 1694.74 948.642 C 1694.93 950.501 1694.9 952.806 1693.55 954.048 C 1687.4 959.701 1664.76 959.968 1656.75 959.599 C 1646.98 958.534 1643.3 960.577 1633.78 961.709 C 1630.22 962.134 1626.06 959.862 1622.95 959.509 C 1615.4 958.652 1604.65 959.439 1598.34 954.764 C 1591.25 949.515 1591.92 938.691 1590.5 930.897 C 1590.5 930.897 1587.56 928.012 1587.56 928.012 C 1585.87 919.17 1586.19 908.13 1585.12 899.773 C 1596.5 886.311 1593.85 874.55 1603.95 860.567 C 1612.39 848.887 1624.87 848.946 1633.92 838.163 z" fill="rgb(119,94,72)" transform="translate(0,0)"></path>
<path d="M 957.786 808.534 C 959.239 809.747 960.964 811.311 962.885 811.541 C 994.937 815.583 1028.72 818.277 1057.13 835.294 C 1089.16 854.476 1104.6 884.562 1106.44 921.036 C 1107.93 950.46 1106.17 960.377 1090.32 986.385 C 1074.66 1012.09 1062.81 1027.27 1034.55 1039.16 C 1019.27 1046.21 1016.84 1048.43 998.869 1052.8 C 974.675 1059.59 951.155 1055.92 927.929 1048.09 C 897.545 1037.84 875.931 1009 864.111 980.718 C 850.659 948.53 853.277 915.66 863.673 883.153 C 869.291 865.586 888.385 851.481 901.154 839.45 C 916.354 824.973 922.184 817.622 941.155 808.862 C 947.918 810.232 951.336 810.947 957.786 808.534 z" fill="rgb(2,1,2)" transform="translate(0,0)"></path>
<path d="M 977.342 860.826 C 1053.06 857.655 1077.3 910.751 1031.27 970.55 C 1023.37 980.801 992.348 1004.92 979.925 1005.88 C 965.542 1008.63 960.395 1007.93 946.314 1008.78 C 928.619 991.729 919.772 982.436 912.689 957.477 C 906.777 936.643 909.268 916.948 920.272 897.963 L 928.469 894.238 C 929.68 891.957 930.947 889.705 932.267 887.485 C 938.33 877.507 946.583 885.714 956.144 882.251 C 957.006 881.918 966.04 879.888 965.946 880.008 C 971.251 873.229 970.804 867.733 977.342 860.826 z" fill="rgb(119,94,72)" transform="translate(0,0)"></path>
<path d="M 487.497 804 C 515.496 802.268 523.666 820.699 528.883 844.41 C 533.911 867.263 531.906 884.534 531.381 907.692 C 531.106 919.822 535.066 933.913 535.148 945.742 C 535.36 976.392 532.625 1010.26 548.745 1037.81 C 562.022 1061.17 580.88 1060.26 605.303 1066.79 C 607.758 1069.96 610.121 1073.42 612.455 1076.7 C 605.843 1090.5 597.25 1096.66 583.155 1102.03 C 562.92 1109.74 551.063 1106.31 532.577 1098.02 C 527.998 1088.31 519.952 1082.05 513.163 1073.9 C 507.502 1067.11 502.817 1058.41 495.742 1053.07 C 492.379 1055.35 491.253 1059.57 488.755 1062.91 C 471.241 1086.31 449.089 1107.54 419.457 1113.08 C 399.817 1116.74 392.344 1113.7 373.187 1112.04 C 365.217 1111.67 357.307 1112.9 349.498 1110.87 C 314.553 1101.8 287.16 1074.07 274.752 1040.67 C 270.063 1028.05 266.064 1022.1 263.376 1008.52 C 259.788 1002.95 258.233 1000.53 255.49 994.435 C 259.843 978.501 258.542 974.538 251.164 960.557 C 260.962 944.366 252.479 949.827 249.41 940.254 C 247.111 933.083 251.051 932.793 245.063 922.495 C 258.043 910.732 251.928 899.44 251.469 884.97 C 251.408 883.041 255.608 873.659 255.234 871.031 C 253.488 858.758 248.448 846.999 254.372 834.932 C 258.263 827.007 269.504 819.732 277.802 816.848 C 282.191 815.323 283.716 814.671 288.094 812.669 C 300.309 816.341 301.517 821.078 313.138 828.151 C 317.946 850.533 317.987 852.461 314.043 875.218 C 309.504 901.409 310.146 932.117 311.55 958.619 C 312.049 968.054 316.787 981.199 318.025 991.101 C 320.706 1017.79 332.854 1039.13 358.017 1050.29 C 370.628 1047.4 376.182 1048.64 388.316 1047.97 C 416.376 1046.42 436.209 1019.76 452.884 1000.35 C 453.715 999.379 452.393 998.13 452.861 997.139 C 456.675 989.039 465.767 982.562 468.76 973.31 C 472.551 956.851 469.744 936.851 470.879 920.028 C 472.181 900.751 474.195 881.788 474.265 862.577 C 474.291 855.16 469.922 843.615 467.121 836.708 C 471.797 823.625 468.47 826.9 479.592 817.888 C 482.569 815.476 480.905 809.726 487.497 804 z" fill="rgb(2,1,2)" transform="translate(0,0)"></path>
<path d="M 681.688 666.867 C 687.147 667.146 689.125 671.54 692.961 675.291 C 716.344 698.155 710.517 731.475 712.754 761.124 C 713.615 765.27 711.492 807.443 718.599 806.749 C 739.246 804.731 774.805 798.555 796.899 794.689 C 798.799 794.357 799.127 790.643 806.401 790.714 C 816.057 790.808 830.15 784.839 840.565 782.238 C 845.808 786.398 877.056 809.639 873.605 816.665 C 867.809 828.468 847.017 830.849 835.103 834.612 C 815.813 840.705 795.5 847.271 775.314 850.176 C 774.637 850.278 771.511 859.415 767.06 858.741 C 763.554 858.726 759.084 863.121 756.563 865.675 C 752.583 864.165 748.606 862.038 744.777 860.13 C 734.758 864.609 731.451 863.079 720.677 863.921 C 718.649 869.443 719.208 883.121 719.864 889.581 C 722.634 911.852 721.736 936.624 723.67 958.559 C 724.913 972.643 729.772 971.813 725.47 986.625 C 724.683 989.335 735.192 1022.48 736.956 1026.06 C 751.332 1035.93 766.377 1041.62 783.381 1036.58 C 796.646 1032.65 808.771 1031.11 821.413 1025.06 C 830.432 1033.28 837.954 1037.97 848.139 1044.51 C 851.066 1046.39 851.073 1050.63 851.157 1053.87 C 843.87 1058.52 842.392 1063.48 836.783 1066.81 C 809.519 1082.99 794.435 1083.5 765.11 1087.61 C 753.909 1082.54 752.468 1088.33 747.633 1086.62 C 738.65 1083.43 733.3 1080.82 722.209 1079.32 C 686.475 1048.83 678.513 1040.64 675.832 990.888 C 674.584 984.435 675.529 971.901 673.522 966.085 C 671.092 959.044 664.681 958.663 669.212 948.65 C 670.592 945.6 670.055 937.294 669.568 933.482 C 666.752 911.397 670.059 888.867 666.853 866.921 C 653.148 851.179 592.342 883.255 572.361 869.266 C 556.713 858.311 555.124 845.931 545.702 830.894 C 544.83 829.501 546.364 824.868 547.442 823.613 C 554.586 815.414 560.984 816.435 570.395 816.812 C 600.558 818.019 635.079 814.44 664.373 808.414 C 663.3 790.229 663.693 768.198 662.216 751.596 C 650.96 738.978 672.301 743.012 657.461 725.519 C 659.471 722.217 661.441 718.791 663.41 715.454 C 661.855 710.87 659.805 707.307 657.573 703.032 C 660.02 684.334 663.777 675.573 681.688 666.867 z" fill="rgb(2,1,2)" transform="translate(0,0)"></path>
<path d="M 1440.14 794.826 C 1453.3 794.819 1459.56 811.44 1474.17 818.815 L 1478.44 834.769 C 1466.15 869.405 1475.86 887.289 1478.07 921.815 C 1478.55 929.397 1474.38 944.502 1472.37 952.471 C 1475.91 957.175 1475.92 956.995 1477.8 962.372 C 1481.37 970.072 1479.69 989.322 1482.41 995.765 C 1489.4 1012.34 1507.05 1064.49 1469.53 1056.15 C 1455.95 1052.45 1439.2 1044.51 1434.84 1030.35 C 1430.81 1017.23 1425.42 989.21 1425.68 975.477 C 1425.97 960.402 1432.89 943.932 1426.67 927.121 C 1423.09 917.219 1423.16 913.701 1426.77 904.164 C 1423.23 892.333 1425.24 860.517 1419.66 850.019 C 1418.31 847.528 1416.93 845.051 1415.52 842.591 C 1417.92 831.574 1418.22 830.869 1415.85 819.971 C 1424.22 813.956 1424.19 809.715 1430.73 802.331 C 1432.2 800.667 1438.06 796.362 1440.14 794.826 z" fill="rgb(2,1,2)" transform="translate(0,0)"></path>
<path d="M 1459.1 651.129 C 1460.6 650.914 1461.12 650.897 1462.56 651.504 C 1490.25 663.146 1507 692.65 1512.65 720.997 C 1514.77 731.678 1508.98 742.797 1504.78 752.54 C 1491.67 759.235 1480.58 764.801 1465.53 763.856 C 1440.65 756.509 1409.79 745.337 1410.17 710.622 C 1410.24 703.804 1413.32 699.465 1413.03 690.467 C 1419.62 681.128 1423.27 670.369 1432.68 662.571 C 1437.39 658.671 1444.64 652.148 1451.28 652.666 C 1454.83 652.944 1455.91 652.355 1459.1 651.129 z" fill="rgb(2,1,2)" transform="translate(0,0)"></path>
<metadata><recraft-signature>{"signed_by": "recraft", "signature_b64": "qdj93NYO8LN3DNiFneRs1sexjdWYU7sv+GfkdBDvRj6gYwJbBI/p2SzJRDi7qRTmkewxEGEBtbJ1uyPUL88NAw==", "signing_algo": "Ed25519", "generation_timestamp": 1776310246, "identifier": "b40aab0d-6424-4f8f-b25c-62d4abec5042"}</recraft-signature></metadata></svg>