<svg xmlns="http://www.w3.org/2000/svg" height="1024" preserveAspectRatio="none" style="display: block;" version="1.1" viewBox="0 0 2048 2048" width="1024">
<defs>
	<linearGradient gradientUnits="userSpaceOnUse" id="Gradient1" x1="1265.6" x2="771.526" y1="-114.13" y2="2207.55">
		<stop class="stop0" offset="0" stop-color="rgb(76,62,46)" stop-opacity="1"></stop>
		<stop class="stop1" offset="1" stop-color="rgb(141,120,105)" stop-opacity="1"></stop>
	</linearGradient>
</defs>
<path d="M 0 0 L 1520.82 0 L 2048 0 L 2048 210.172 L 2048 2048 L 0 2048 L 0 0 z" fill="url(#Gradient1)" transform="translate(0,0)"></path>
<path d="M 1520.82 0 L 2048 0 L 2048 210.172 L 2045.57 210.519 C 2043.49 204.496 2045.24 117.01 2044.81 104.047 L 2043.49 103.443 C 2043.42 106.008 2043.56 106.527 2042.99 108.955 C 2028.85 114.074 2031.49 114.268 2016.6 113.252 C 2004.92 112.455 2008.78 111.43 2001.64 102.908 C 1997.77 98.2896 1995.98 98.69 1998.5 92.0873 C 1997.07 86.2933 1990.1 87.2458 1990.71 81.0006 C 1994.8 78.1466 1999.46 80.6557 2003.1 76.0151 L 2002.74 75.0007 C 2000.43 75.1174 1998.12 75.1909 1995.8 75.2211 L 1994.77 73.8123 C 1996.55 64.2089 2006.33 72.875 2014.04 70.9581 L 2014.34 69.7277 C 2008.94 64.6897 2011.15 69.8818 2008.12 65.9965 C 2010.01 61.9018 2012.13 59.4529 2009.57 55.495 C 2005.12 55.745 1991.31 67.4213 1985.98 55.4757 C 1987.57 48.6947 1989.41 53.5853 1991.69 48.676 C 1986.23 44.5012 1981.33 51.1386 1973.53 50.3532 C 1971.58 48.416 1970.48 46.857 1967.85 46.2349 L 1967.15 47.5692 L 1969.43 50.4537 L 1968.94 51.9643 C 1965.36 54.1032 1965.46 54.2157 1961.46 55.0042 L 1960.43 54.0327 C 1962.12 51.9496 1962.19 52.0464 1964.44 50.6194 L 1963.58 49.5845 C 1960.22 51.7785 1956.51 53.2717 1954.29 55.9819 C 1954.52 58.4958 1954.96 59.7429 1953.89 61.9661 L 1951.85 62.4653 C 1949.51 60.2988 1946.62 57.2647 1943.54 56.8344 C 1936.88 55.9009 1919.52 48.7006 1913.77 50.1735 C 1902.84 53.0198 1895.69 65.2341 1883.11 61.6122 C 1867.01 56.4805 1869.8 43.5142 1850.26 41.5478 C 1842.66 40.7829 1827.51 12.2541 1824.22 5.75477 L 1823.83 8.71656 L 1822.86 9.10699 C 1820.33 6.74594 1819.73 6.59188 1816.56 5.40005 L 1816.19 3.35478 C 1806.83 2.42084 1752.86 2.88168 1739.16 3.80552 C 1737.89 3.89105 1736.94 10.4968 1733.18 12.2695 C 1729.62 9.84942 1734.02 12.0742 1732.62 7.30273 C 1725.05 6.82822 1713.57 2.75449 1709.11 4.36115 C 1706.72 6.68313 1706.27 7.17406 1703.42 9.11051 C 1697.36 9.09204 1695.84 6.03999 1691.5 3.60929 C 1691.32 3.50968 1678.78 3.25905 1677.46 3.1601 C 1660.75 1.90878 1526.52 4.54865 1520.46 2.19646 L 1520.82 0 z" fill="rgb(61,49,39)" transform="translate(0,0)"></path>
<path d="M 1135.22 893.591 C 1136.84 894.095 1135.92 893.986 1137.47 893.904 C 1174.47 891.936 1222.98 907.192 1239.44 943.427 C 1242.55 950.287 1243.69 953.195 1241.17 959.719 C 1243.5 970.029 1240.88 980.755 1234.21 989.009 C 1229.72 994.567 1220.49 1006.64 1213.37 1007.76 C 1207.42 1008.7 1206.56 1012.47 1201.53 1015.32 C 1193.06 1020.79 1183.08 1025.44 1173.66 1028.9 C 1154.98 1035.74 1122.73 1032.57 1106.01 1038.28 C 1104.7 1041.84 1107.46 1065.97 1107.23 1072.25 C 1106.99 1078.88 1109.8 1089.94 1109.51 1097.05 C 1109.37 1100.31 1106.34 1100.15 1106.86 1102.04 C 1110.61 1115.43 1104.43 1117.72 1104.81 1130.64 C 1101.8 1136.29 1092.54 1145.37 1085.9 1146.03 L 1085.56 1144.48 L 1084.56 1143.91 C 1083.27 1146.26 1083.85 1145.44 1081.69 1147.2 C 1070.66 1148.75 1054.25 1135.91 1055.36 1127.86 C 1056.75 1117.75 1054.37 1095.72 1055.93 1087.59 C 1059.35 1069.78 1052.96 1054.5 1058.33 1038.31 C 1050.37 1028.77 1046.39 1025.02 1041.58 1013.69 C 1043.47 1008.54 1044.39 1003.86 1045.61 998.536 L 1054.15 992.272 L 1053.15 980.219 C 1052.71 979.697 1052.27 979.175 1051.82 978.653 C 1048.41 972.475 1041.54 973.71 1036.54 969.81 C 1033.98 967.816 1030.23 962.851 1027.98 960.085 C 1027.28 956.375 1026.95 951.681 1026.57 947.851 C 1028.33 945.166 1032.65 937.576 1034.39 935.625 C 1057.83 909.387 1092.72 900.362 1126.19 895.205 C 1129.82 894.645 1130.44 894.762 1134.24 893.839 L 1135.22 893.591 z" fill="rgb(2,1,2)" transform="translate(0,0)"></path>
<path d="M 1143.5 931.615 C 1154.59 929.448 1183.48 934.244 1191.58 942.467 C 1217.08 968.351 1151.6 987.687 1134.89 989.198 C 1132.82 989.386 1132.18 989.186 1129.63 989.811 C 1119.23 995.374 1113.02 994.185 1101.12 992.178 C 1099.76 991.787 1096.34 989.947 1096.1 988.409 C 1093.73 973.708 1087.89 962.605 1081.83 949.051 C 1086.31 945.785 1091.25 943.449 1095.88 940.465 C 1103.93 935.282 1132.7 932.574 1143.5 931.615 z" fill="rgb(130,104,83)" transform="translate(0,0)"></path>
<path d="M 913.739 921.315 C 940.449 917.783 988.836 942.161 1007.2 961.389 C 1038.59 994.254 1018.43 1030.9 989.11 1055.27 C 960.197 1079.3 942.881 1078.74 909.247 1086.05 C 906.907 1085.79 904.211 1085.52 901.882 1085.78 C 837.143 1092.9 775.523 1035.4 814.357 971.363 C 827.491 949.706 846.625 929.644 873.313 926.358 C 882.663 925.206 894.395 925.392 903.397 923.476 L 913.739 921.315 z" fill="rgb(2,1,2)" transform="translate(0,0)"></path>
<path d="M 908.043 967.551 C 909.901 967.096 920.804 967.574 923.276 967.962 C 948.775 971.964 960.512 976.517 976.394 996.25 C 974.052 1005.05 968.939 1013.7 964.138 1021.36 C 961.042 1022.56 956.143 1026.26 953.293 1028.24 C 940.677 1037 934.129 1040.83 918.758 1043.1 C 890.053 1049.04 869.581 1043.37 851.875 1019.86 C 852.652 1012.09 852.915 1011.59 850.652 1003.93 C 857.516 993.308 858.034 988.576 870.876 981.647 C 873.801 979.582 879.583 977.069 881.867 974.389 C 887.873 967.341 899.022 970.384 908.043 967.551 z" fill="rgb(130,104,83)" transform="translate(0,0)"></path>
<path d="M 762.505 1174.51 C 776.536 1174.89 794.853 1175.82 807.713 1181.75 C 829.807 1191.95 851.727 1213.71 837.141 1239.43 C 836.023 1241.41 836.685 1241.55 837.133 1243.89 C 819.386 1270.94 796.044 1275.48 770.053 1287.81 C 785.88 1305.22 826.963 1311.7 850.167 1322.95 C 871.864 1333.48 878.991 1358.71 851.75 1369.43 C 841.04 1373.65 825.728 1355.3 815.338 1356.84 C 812.622 1357.25 808.58 1350.35 805.264 1348.2 C 799.521 1348.42 798.832 1348.16 793.553 1345.82 L 792.743 1346.34 C 774.173 1339.45 755.022 1330.16 735.851 1324.11 C 712.461 1316.73 737.501 1371.4 717.606 1378.87 C 699.903 1382.72 696.23 1381.05 686.485 1368.62 C 672.294 1350.52 685.856 1323.37 681.071 1314.74 C 681.071 1310.91 681.898 1311.17 684.648 1307.27 C 685.415 1300.21 683.453 1307.49 682.166 1300.97 C 683.225 1299.65 685.845 1296.45 685.725 1294.97 C 684.285 1277.26 673.837 1267.39 687.765 1252.7 C 688.763 1251.65 689.182 1228.1 689.187 1223.28 L 683.952 1218.57 C 683.456 1216.63 682.97 1214.69 682.494 1212.75 C 678.153 1195.75 689.377 1189.25 704.098 1183.82 C 722.242 1177.13 743.2 1174.91 762.505 1174.51 z" fill="rgb(2,1,2)" transform="translate(0,0)"></path>
<path d="M 757.159 1213.4 C 760.825 1214.71 761.752 1212.78 766.83 1213.46 C 780.084 1215.23 785.941 1218.9 796.897 1225.6 C 788.214 1232.54 771.991 1245.25 760.622 1246.56 C 746.085 1254.75 724.091 1263.49 729.19 1236.68 C 730.028 1232.27 730.537 1227.14 731.195 1222.63 C 739.742 1213.65 745.424 1215.92 757.159 1213.4 z" fill="rgb(130,104,83)" transform="translate(0,0)"></path>
<path d="M 1438.09 894.927 C 1445.95 894.323 1454.58 903.891 1459.45 904.22 C 1517.31 908.129 1549.45 915.464 1557.59 980.809 C 1563.53 988.329 1568.79 988.443 1572.36 995.298 C 1575.53 1001.08 1571.35 1009.75 1572.39 1015.04 C 1577.85 1043.03 1601.47 1067.81 1561.3 1083.3 C 1527.03 1077.5 1524.83 1046.58 1520.63 1017.38 C 1512.52 1016.48 1504.4 1015.69 1496.27 1015.03 C 1481.94 1017.28 1472.64 1014.54 1461.14 1020.79 C 1460.98 1021.26 1460.82 1021.73 1460.65 1022.2 C 1450.75 1042.85 1434.4 1066.68 1412.51 1075.7 C 1405.13 1078.75 1391.98 1082.04 1384.66 1078.6 C 1380.67 1076.72 1378.96 1076.48 1374.8 1075.56 L 1373.43 1075.27 C 1364.35 1064.52 1355.24 1065.66 1355.69 1046.04 C 1355.93 1035.55 1366.02 1013.88 1376.49 1010.57 C 1401.47 1002.66 1423.03 969.396 1413.26 943.731 C 1409.07 933.21 1404.85 928.998 1405.47 917.136 L 1413.86 904.832 C 1421.21 902.193 1430.69 897.962 1438.09 894.927 z" fill="rgb(2,1,2)" transform="translate(0,0)"></path>
<path d="M 1474.66 946.156 C 1491.06 944.24 1502.06 958.658 1507.09 972.644 C 1506.66 976.238 1507.38 974.746 1504.95 977.319 C 1497.69 976.868 1480.28 977.499 1475.84 975.296 C 1471.49 970.835 1471.85 950.61 1474.66 946.156 z" fill="rgb(130,104,83)" transform="translate(0,0)"></path>
<path d="M 542.324 906.947 C 547.703 906.314 556.085 908.883 561.001 911.72 C 582.007 923.843 584.892 950.328 590.8 971.547 C 591.837 975.273 592.286 982.949 593.389 986.327 C 594.679 990.274 595.78 990.632 597.179 995.517 C 593.519 1000.88 596.202 1009.37 595.087 1017.57 C 592.819 1033.18 588.256 1046.81 583.259 1062.08 C 579.25 1074.33 567.157 1087.09 561.901 1099.19 C 558.889 1106.12 549.966 1106.13 549.651 1106.63 C 540.187 1121.54 526.703 1127.22 509.786 1130.18 C 466.024 1138.84 430.168 1127.69 405.98 1088.93 C 398.25 1076.54 395.935 1067.25 390.528 1053.45 C 386.225 1042.47 384.743 1027.51 383.174 1015.93 C 382.114 1008.1 384.203 1001.03 381.378 992.867 C 384.387 984.19 380.526 959.696 379.31 950.369 C 375.426 920.581 400.605 912.797 423.817 923.96 C 436.386 930.005 438.78 934.251 443.656 946.65 C 441.75 959.642 436.859 979.651 437.604 992.43 C 440.189 999.534 435.833 1014.49 437.407 1020.87 C 442.162 1041.54 445.962 1083.45 473.547 1087.34 C 539.178 1096.6 558.49 1000.57 535.947 955.252 C 523.268 929.765 515.571 924.069 542.324 906.947 z" fill="rgb(2,1,2)" transform="translate(0,0)"></path>
<path d="M 778.281 847.22 C 779.259 847.09 780.24 846.975 781.222 846.877 C 796.168 845.419 804.232 851.429 814.824 860.288 C 816.696 869.458 818.439 871.949 822.817 880.236 C 816.862 890.227 816.7 902.593 806.8 901.72 C 801.655 903.643 801.998 907.851 795.071 909.45 C 773.98 914.318 748.718 912.73 728.755 920.034 C 723.51 929.618 720.18 992.942 721.377 1005.55 C 722.628 1018.72 726.211 1038.46 729.291 1052.43 C 731.679 1063.27 746.96 1076.32 743.203 1089.94 C 736.446 1104.47 722.407 1114.58 706.393 1107.64 C 694.08 1102.3 687.376 1095.53 682.594 1083.42 C 680.387 1077.83 676.676 1064.06 678.758 1059.46 C 678.646 1059.3 675.586 1055.01 675.586 1055.01 C 673.994 1027.57 670.191 1000.35 671.026 972.8 C 671.293 963.982 671.817 955.236 672.571 946.446 C 673.279 938.204 673.054 930.194 672.817 921.929 C 671.218 920.488 669.281 919.437 667.11 919.465 C 646.458 919.732 626.652 920.289 606.158 916.868 C 588.446 913.912 579.301 904.094 569.45 890.445 C 569.191 885.277 568.906 880.109 568.595 874.943 C 570.553 871.371 572.799 867.801 574.915 864.304 C 588.529 855.446 599.426 858.808 615.319 860.104 C 648.183 862.783 689.475 865.914 721.949 861.857 C 737.396 859.927 762.297 850.695 778.281 847.22 z" fill="rgb(2,1,2)" transform="translate(0,0)"></path>
<path d="M 1277.51 1158.24 C 1288.42 1156.78 1304.73 1162.32 1313.83 1168.88 C 1329.93 1180.1 1334.18 1199.17 1338 1217.13 C 1340.5 1228.89 1335.01 1228.37 1332.6 1236.53 C 1337.31 1245.58 1326.72 1264.62 1322.53 1273.19 C 1323.51 1276.11 1326.6 1284.39 1324.38 1287.72 C 1315.66 1300.82 1308.26 1316.56 1298.9 1329.15 C 1296.94 1329.84 1295.36 1330.39 1294.14 1330.82 C 1291.76 1333.97 1292.46 1334.09 1291.84 1338.64 C 1271.86 1358.71 1241.5 1370.73 1215.05 1355.39 C 1202.95 1348.38 1197.51 1345.62 1190.62 1332.67 C 1178.61 1338.04 1178.4 1342.97 1168.98 1348.54 C 1162.73 1352.24 1156.12 1350.98 1146.81 1356.04 C 1142.84 1355.8 1121.43 1348.66 1120.98 1346.65 C 1118.36 1336.4 1114.3 1341.27 1109.31 1336.28 C 1095.47 1322.42 1086.33 1290.27 1088.37 1271.63 C 1091.92 1254.28 1083.59 1247.57 1091.9 1229.12 C 1102.52 1222.83 1115.16 1219.58 1126.93 1226.55 C 1152.86 1241.89 1130.32 1271.41 1139.31 1293.25 C 1141.12 1297.65 1141.14 1300.26 1145.75 1302.61 C 1156.67 1299.29 1157.89 1272.25 1169.77 1263.91 C 1201.86 1241.37 1218.19 1271.31 1225.69 1298.71 C 1226.88 1303.07 1230.37 1307.12 1233.21 1310.59 C 1246.88 1316.51 1255.12 1312.72 1264.93 1301.21 C 1275.23 1284.64 1285.61 1272.63 1285.3 1252.1 C 1285.28 1251.09 1290.81 1238.83 1290.74 1238.45 C 1289.38 1230.76 1285.38 1212.29 1284.47 1204.86 C 1282.46 1203.84 1280.45 1202.81 1278.46 1201.75 C 1269.71 1197.08 1258.78 1191.18 1256.16 1181.19 C 1255.04 1176.93 1255.79 1172.39 1258.21 1168.7 C 1262.95 1161.37 1269.41 1159.74 1277.51 1158.24 z" fill="rgb(2,1,2)" transform="translate(0,0)"></path>
<path d="M 1249.75 1472.38 C 1250.89 1472.12 1253.06 1472.9 1254.84 1472.71 C 1263.27 1471.79 1270.34 1473.59 1278.36 1475.91 C 1283.63 1481.24 1286.88 1485.91 1290.79 1492.2 L 1290.89 1507.25 C 1271.37 1538.91 1233.94 1524.27 1203.62 1526.27 C 1189.27 1527.22 1174.52 1531.82 1159.89 1532.04 C 1142.85 1519.89 1136.66 1543.38 1120.57 1529.27 C 1114.01 1528.36 1112.72 1538.25 1098.75 1534.46 C 1085.9 1530.97 1064.08 1535.17 1049.96 1534.76 C 1041.94 1534.53 1045.25 1533.09 1038.16 1531.89 C 1011.57 1536.49 983.852 1535.48 956.961 1536.85 C 949.322 1537.24 936.652 1534.12 930.132 1534.88 C 896.108 1538.85 865.675 1534.34 831.979 1531.54 C 822.751 1536.67 812.525 1530.87 801.504 1532.6 C 790.739 1534.3 780 1534.55 769.03 1536.27 C 758.571 1537.18 751.575 1536.95 741.277 1534.19 C 730.633 1531.34 731.25 1524.08 726.053 1515.18 L 725.45 1514.16 C 726.174 1506.62 725.859 1503.6 731.482 1497.94 C 736.61 1492.48 744.532 1490.61 751.743 1489.82 C 757.258 1489.21 762.268 1490.91 767.476 1492.17 C 770.416 1492.88 779.006 1495.76 781.603 1495.51 C 819.602 1491.93 858.516 1495.42 896.194 1500.98 C 899.34 1501.45 904.413 1499.54 907.803 1499.77 C 922.264 1498.95 936.753 1498.2 951.229 1497.7 C 963.332 1499 973.932 1501.27 986.258 1501.7 C 998.748 1502.87 1010.49 1497.51 1022.73 1496.64 C 1029.97 1496.13 1038.6 1497.46 1045.85 1498.21 C 1050.99 1498.74 1056.06 1499.83 1061.23 1499.7 C 1061.59 1499.25 1063.23 1497.2 1063.75 1497.21 C 1079.41 1497.57 1096.88 1494.81 1111.06 1502 C 1127.38 1492.92 1134.22 1497.84 1151.36 1495.07 C 1150.89 1495.14 1154.73 1493.15 1153.83 1493.57 C 1157.45 1491.88 1163.88 1494.98 1168.02 1494.1 C 1171.26 1493.41 1174.38 1491.35 1177.38 1489.97 C 1185.55 1485.7 1198.08 1486.95 1206.56 1483.19 C 1222.65 1476.06 1233.61 1475.67 1249.75 1472.38 z" fill="rgb(2,1,2)" transform="translate(0,0)"></path>
<path d="M 951.962 1173.32 C 984.699 1172.44 991.442 1213.51 1004.28 1235.63 C 1007.43 1241.07 1010.26 1249.39 1013.49 1254.36 C 1017.6 1260.69 1020 1261.1 1023.23 1268.89 C 1046.77 1270.85 1084.21 1259.81 1078.54 1300.71 C 1074.27 1303.22 1069.04 1306.48 1064.52 1308.28 C 1059.29 1310.36 1053.47 1311.18 1048.61 1314.06 C 1048.3 1317.01 1058.66 1328.09 1060.98 1333.46 C 1068.44 1350.64 1065.3 1364.21 1049.59 1374.52 C 1046.96 1376.24 1039.95 1372.41 1036.13 1372.44 C 1026.53 1372.52 1010.24 1353.4 1011.57 1344.63 L 1010.8 1343.25 C 1004.37 1338.57 1005.49 1328.55 1000.17 1321.17 C 988.66 1319.7 973.772 1328.15 962.956 1324.33 C 958.634 1325.23 955.852 1327.44 952.081 1329.82 C 951.86 1349.75 945.897 1361.47 928.372 1371.01 C 928.608 1371.01 925.113 1371.06 925.434 1371 C 920.439 1372.01 905.292 1363.9 902.51 1360.25 C 894.538 1349.8 904.227 1333.15 905.344 1321.54 C 906.024 1314.46 901.228 1308.66 897.265 1302.62 C 901.521 1286.98 899.506 1283.94 916.066 1276.86 C 920.849 1262.91 930.916 1234.5 932.698 1219.93 C 935.402 1197.82 914.858 1178.49 951.962 1173.32 z" fill="rgb(2,1,2)" transform="translate(0,0)"></path>
<path d="M 1273.47 929.182 C 1300.5 932.86 1301.31 929.673 1318.66 953.739 C 1320.72 975.851 1314.61 996.674 1313.97 1019.53 C 1313.44 1038.14 1325.06 1066.52 1309.63 1082.14 C 1306.95 1084.86 1301.01 1088.92 1297.07 1088.51 C 1287.79 1085.31 1283.38 1091.22 1271.29 1078.21 C 1257.95 1063.29 1263.35 1041.74 1264.75 1024.02 C 1265.9 1009.63 1268.33 993.41 1269.02 979.236 C 1269.5 969.335 1259.64 956.23 1260.91 945.131 C 1261.91 936.443 1267.11 934.574 1273.47 929.182 z" fill="rgb(2,1,2)" transform="translate(0,0)"></path>
<path d="M 1273.3 832.413 C 1306.75 829.918 1326.83 838.349 1321.85 876.291 C 1315.83 884.663 1311.88 888.573 1302.71 893.349 C 1294.63 895.05 1283.28 895.872 1275.71 892.44 C 1259.44 885.062 1249.27 862.915 1257.94 846.369 C 1261.07 840.41 1266.91 834.405 1273.3 832.413 z" fill="rgb(2,1,2)" transform="translate(0,0)"></path>
<metadata><recraft-signature>{"signed_by": "recraft", "signature_b64": "Fq5bsUxbPQBT/kQPQ+O19/5jgAFe65u/+yPBI1COh4rsWXnVOStO+/VgB++F60vH6zvCklCzZvx+ZNsAQpquCg==", "signing_algo": "Ed25519", "generation_timestamp": 1776310291, "identifier": "16019f04-c545-4dcd-9342-7b89ffc1f037"}</recraft-signature></metadata></svg>