<svg xmlns="http://www.w3.org/2000/svg" height="1024" preserveAspectRatio="none" style="display: block;" version="1.1" viewBox="0 0 2048 2048" width="1024">
<path d="M 0 0 L 2048 0 L 2048 2048 L 0 2048 L 0 0 z" fill="rgb(254,254,254)" transform="translate(0,0)"></path>
<path d="M 487.751 796.068 C 492.836 797.334 496.638 797.855 500.993 800.733 C 503.121 805.855 502.959 805.87 507.268 809.047 L 509.478 807.159 C 510.337 809.359 504.477 821.492 509.033 827.574 C 510.613 826.199 509.72 826.867 511.754 825.628 C 511.327 830.432 509 827.283 508.666 832.282 L 510.716 832.315 L 511.689 833.329 C 511.737 840.345 511.766 846.638 511.378 853.641 C 510.297 854.594 509.667 855.104 508.482 855.983 L 507.388 856.783 L 507.825 858.318 C 510.571 857.532 509.521 857.531 512.266 858.073 C 513.247 865.645 508.086 863.177 508.067 869.007 L 511.396 868.323 C 513.008 871.139 513.096 874.633 513.568 878.03 C 523.278 877.67 539.49 879.995 545.892 878.983 C 545.661 876.983 545.281 877.168 545.995 875.985 C 550.737 879.461 555.831 877.351 561.162 875.352 C 570.998 871.663 580.959 876.034 590.695 875.261 C 599.16 874.589 597.34 871.104 606.319 875.652 C 607.032 874.639 607.746 873.625 608.459 872.612 C 622.523 881.596 624.453 887.379 615.732 902.807 C 610.849 911.446 603.205 912.575 594.281 914.726 C 593.801 917.067 594.192 915.945 593.103 918.092 C 587.01 918.784 586.046 914.232 580.46 914.586 L 580.71 917.054 L 579.562 918.188 C 577.547 917.786 575.541 917.342 573.545 916.856 C 568.176 921.785 567.233 916.059 559.537 915.416 C 552.365 924.115 550.611 918.614 541.55 916.572 C 542.358 918.3 542.039 917.344 542.411 919.47 L 541.069 920.069 C 539.124 917.93 539.11 917.871 536.707 916.291 C 531.402 918.365 528.742 920.025 523.529 918.309 L 522.188 917.858 C 517.471 916.321 512.257 920.96 506.524 922.374 C 502.346 930.722 512.037 936.167 506.37 946.314 C 504.507 949.651 508.478 949.199 509.626 950.985 C 508.061 952.335 506.481 953.667 504.886 954.982 L 505.107 956.396 L 508.494 958.008 L 508.604 959.485 L 503.937 962.477 C 502.416 965.737 502.534 964.147 503.1 967.344 L 502.503 965.938 L 502.52 967.174 L 505.005 967.184 L 505.823 968.379 L 503.424 971.27 C 502.495 976.528 507.2 973.49 510.889 980.048 C 511.004 983.917 511.186 985.409 512.91 988.976 C 514.495 992.256 511.627 989.15 512.217 994.688 L 516.403 996.147 C 519.22 1002.39 515.11 996.3 514.734 1002.26 C 516.609 1003.23 517.468 1003.71 519.207 1004.9 L 519.153 1007.92 C 523.151 1014.84 542.951 1025.74 550.928 1028.18 C 553.717 1027.57 553.686 1027.48 556.49 1027.74 C 563.607 1035.5 561.408 1030 565.496 1029.63 C 570.639 1029.18 579.364 1034.94 587.214 1029.26 C 589.316 1025.9 589.132 1025.98 589.218 1022.22 C 587.485 1020.11 587.166 1020 586.204 1017.5 L 588.334 1015 L 587.062 1013.52 C 584.852 1013.66 584.008 1013.67 581.799 1013.52 L 580.932 1011.58 C 580.956 1008.27 581.577 1007.76 583.321 1005.11 L 584.122 1003.86 L 584.659 1003.05 L 581.941 1001.17 C 581.183 994.217 584.15 1000.52 583.98 994.008 L 580.424 992.11 C 578.286 984.796 581.908 988.627 583.509 982.941 C 581.286 982.337 581.782 982.525 579.813 981.545 C 579.081 978.184 578.781 979.681 579.874 976.834 L 583.576 977.536 L 584.062 975.999 C 581.348 974.113 582.072 975.07 580.497 972.406 C 583.608 971.278 584.229 971.719 585.465 969.531 C 583.608 967.644 584.059 968.515 583.313 966.072 C 600.887 925.005 635.513 888.046 684.079 897.379 L 685.668 897.69 C 687.608 896.226 688.306 895.244 689.704 893.25 L 690.216 893.841 C 690.402 904.208 700.886 895.807 707.335 900.979 L 705.498 902.465 C 707.151 905.122 714.555 905.287 715.111 906.148 C 719.89 913.557 735.327 923.597 739.347 929.765 L 740.461 931.406 C 740.73 931.821 741 932.235 741.269 932.65 C 746.871 928.446 742.048 922.06 740.606 917.273 C 741.641 913.805 742.488 910.968 743.147 908.76 C 741.003 905.244 738.395 901.582 738.656 897.55 C 745.325 886.789 751.256 881.615 763.552 878.593 C 774.781 875.833 781.737 876.107 793.051 877.47 C 795.18 877.726 798.648 876.108 801.543 877.297 C 809.857 880.71 817.585 885.801 825.077 890.571 L 827.032 888.885 C 831.991 889.539 826.782 889.244 829.983 892.795 L 832.353 891.295 C 837.291 892.179 832.206 894.17 837.122 896.237 C 839.595 897.277 842.801 897.123 845.837 898.476 C 849.458 900.089 846.735 902.913 849.482 904.028 C 853.36 905.602 856.057 904.964 859.633 908.374 L 858.663 910.215 L 859.155 911.374 C 862.947 911.014 864.681 910.441 866.767 914.1 L 864.014 913.628 C 864.229 916.573 865.542 917.749 867.278 920.513 C 871.224 922.042 877.986 925.643 881.458 923.481 C 891.692 917.108 899.606 913.607 909.737 922.599 C 914.087 926.46 910 924.616 910.516 929.117 C 923.908 935.567 912.068 937.77 913.271 944.764 L 916.737 946.598 L 916.702 948.231 L 913.702 949.694 C 913.432 956.339 917.747 954.537 919.041 957.446 L 914.39 963.186 L 914.797 964.235 C 917.286 963.719 916.098 963.522 918.44 964.447 L 918.654 966.013 C 912.502 972.298 916.874 997.566 909.925 1005.49 C 906.984 1008.84 901.999 1010.72 898.786 1014.05 C 898.364 1014.49 897.958 1014.94 897.544 1015.39 C 892.183 1012.03 888.253 1010.72 882.793 1006.73 C 880.61 992.324 883.376 1001.04 876.146 997.532 C 876.258 991.353 880.761 990.924 880.159 986.864 C 876.835 984.886 872.155 983.364 873.181 979.236 C 875.683 980.393 874.887 980.555 877.108 980.386 C 875.634 977.988 876.34 978.817 873.873 977.219 C 870.32 978.446 866.794 985.426 863.082 988.144 C 856.024 993.313 852.791 991.671 844.501 991.063 C 843.995 991.791 843.482 992.515 842.964 993.234 C 843.094 993.056 841.309 995.441 841.286 995.446 C 830.664 997.445 812.504 1000.17 802.705 1001.67 C 801.023 1003.67 800.764 1003.98 798.745 1005.62 L 797.105 1004.01 C 794.401 1004.72 795.648 1004.08 793.704 1006.69 L 795.023 1009.98 C 791.213 1015.25 794.673 1008.47 789.444 1012.08 C 789.134 1018.91 792.523 1016.01 792.556 1021.53 L 789.365 1023.26 L 790.093 1024.46 L 795.102 1025.65 L 795.643 1026.8 C 793.818 1028.54 793.518 1028.82 792.064 1030.85 L 792.422 1032.93 L 795.235 1031.26 C 799.045 1037.85 791.316 1055.73 789.041 1062.13 C 793.618 1067.19 790.493 1069.27 790.169 1075.54 C 790.183 1075.27 796.888 1085.24 797.431 1086.06 C 796.577 1088.96 795.86 1091.4 795.214 1094.38 C 797.637 1095.73 798.273 1095.73 799.776 1097.95 C 798.948 1099.58 797.996 1101.03 796.914 1102.5 C 812.414 1121.51 763.407 1146 750.02 1107.88 C 741.883 1084.72 751.851 1092.55 751.459 1077.66 C 743.115 1063.01 754.231 1059.67 746.903 1051.05 C 747.142 1044.09 748.228 1051.91 749.983 1045.56 C 747.975 1044.09 748.899 1044.93 747.222 1043.02 C 749.426 1036.02 751.686 1029.19 753.353 1022.03 C 752.518 1016.91 748.673 1017.95 748.35 1014.07 C 750.722 1014.08 749.938 1014.18 752.337 1013.5 C 752.099 1010.56 751.832 1007.62 751.533 1004.69 C 751.054 1000.08 751.217 998.051 747.85 995.31 L 747.004 995.816 C 743.9 1009.57 736.778 1016.83 728.363 1028.21 C 717.63 1039.22 713.297 1040.53 699.807 1047.95 C 700.354 1047.65 699.286 1051.42 698.339 1052.68 C 695.942 1053.07 683.122 1054.99 681.679 1055.59 C 675.806 1058.05 669.768 1063.7 662.044 1060.99 C 659.975 1060.26 658.688 1059.96 656.481 1060.42 L 655.474 1063.8 L 654.018 1064.01 C 652.973 1062.85 652.028 1061.66 651.128 1060.38 L 648.598 1060.25 L 646.586 1063.45 L 640.625 1059.39 C 641.64 1057.17 641.309 1058.23 641.742 1056.24 C 638.62 1056.47 638.17 1056.23 635.528 1057.95 L 635.186 1060.71 C 628.907 1064.3 619.266 1057.52 618.431 1069.05 L 616.977 1069.31 C 616.605 1068.8 614.945 1066.41 614.478 1066.42 C 606.304 1066.64 593.542 1072.76 586.18 1069.95 C 583.909 1069.08 585.197 1068.92 581.594 1068.84 L 579.889 1071.83 L 578.471 1071.95 C 573.956 1072.29 567.042 1074.74 564.342 1074.37 C 563.963 1072.18 565.217 1071.06 566.572 1068.54 C 560.404 1069.84 550.388 1072.23 544.043 1072.56 C 542.734 1072.63 540.885 1069.8 539.717 1068.43 C 533.947 1066.34 525.62 1071.97 521.106 1067.22 C 515.917 1061.94 508.506 1062.44 501.548 1060.63 C 495.302 1059.01 478.38 1049.84 475.205 1044.55 L 476.957 1041.9 C 474.916 1038.9 470.535 1033.14 468.225 1030.04 C 466.539 1027.78 468.149 1032.04 464.816 1028.63 C 469.3 1021.35 460.459 1015.88 460.378 1006.02 C 462.937 1003.59 464.01 1003.04 462.994 999.694 L 459.659 999.587 C 458.642 995.869 463.166 991.658 465.488 985.969 C 461.98 985.253 461.717 985.348 458.446 983.615 L 458.784 982.589 L 463.636 981.616 C 461.946 977.675 459.398 976.755 457.646 972.976 C 458.269 971.845 458.892 970.714 459.514 969.583 C 456.699 965.432 456.503 967.345 456.28 963.233 C 458.809 961.695 458.203 962.547 459.534 960.255 L 456.395 957.602 L 457.143 956.265 C 459.705 955.644 460.021 955.883 461.732 954.011 L 461.565 951.822 C 459.498 951.489 459.068 951.558 457.014 951.771 L 456.421 949.901 C 457.086 946.905 456.733 946.014 458.535 944.165 L 461.35 947.99 C 463.101 945.513 462.675 944.204 462.504 941.135 C 459.768 940.739 459.915 940.766 457.46 939.478 L 456.853 936.902 C 458.627 933.499 457.975 934.594 461.527 932.259 L 461.269 930.826 C 457.876 927.846 453.694 926.473 449.477 924.669 L 450.304 923.608 L 455.881 923.468 L 455.982 922.671 C 453.373 920.559 446.368 920.846 443.926 922.848 C 438.615 927.199 433.192 922.81 427.705 927.003 C 428.14 928.389 428.614 929.683 429.18 931.015 C 427.314 933.172 425.362 934.755 425.185 937.441 L 426.161 938.442 C 427.186 936.662 426.899 936.987 428.284 935.464 C 431.246 944.592 431.223 947.296 430.475 956.735 C 430.222 959.925 430.744 963.432 433.07 965.862 L 435.861 964.126 L 437.121 964.643 C 437.209 968.031 437.163 967.796 435.649 970.868 C 433.704 972.04 432.861 972.489 431.148 973.953 L 431.574 975.693 L 434.829 976.446 L 435.705 978.001 L 435.03 979.078 L 432.102 978.323 C 431.108 983.927 434.643 977.587 434.877 983.838 L 431.495 985.899 C 431.276 991.411 432.301 984.975 435.571 990.512 L 434.748 992.844 C 432.273 994.457 431.643 994.395 430.31 996.765 C 432.735 998.021 432.774 997.865 435.492 998.28 L 435.99 1000.26 C 434.448 1002.23 433.038 1002.29 430.558 1003 L 429.543 1003.28 C 430.909 1008.55 437.339 1008.76 434.053 1014.26 C 432.366 1013.88 431.263 1013.67 429.551 1013.44 L 429.305 1015.03 L 431.794 1017.6 C 430.784 1022.7 429.225 1018.15 426.704 1023 C 428.469 1025.44 428.143 1024.37 428.553 1027.15 C 426.241 1028.46 425.67 1028.51 424.048 1030.54 L 425.544 1032.95 C 424.276 1035.93 421.839 1035.54 418.106 1039.03 C 420.416 1040.39 419.358 1039.6 421.289 1041.38 C 419.165 1046.53 397.927 1063.59 392.282 1068.87 C 391.243 1068.32 388.473 1067.1 387.553 1067.51 C 378.577 1071.54 361.391 1084.74 352.529 1086.27 C 350.215 1083.42 350.473 1083.47 347.02 1082.33 C 344.359 1083.52 344.344 1083.65 341.499 1084 L 338.711 1081.38 L 337.931 1082.03 L 338.838 1085.85 L 337.984 1086.71 C 331.721 1086.06 327.629 1085.27 322.637 1081.32 L 321.553 1082.18 C 321.398 1085.34 321.788 1084.36 320.551 1087.05 C 315.027 1086.05 313.208 1079.22 305.373 1078.01 C 301.511 1078.98 302.696 1078.7 299.497 1082.04 L 297.704 1080.68 L 297.127 1076.04 C 293.501 1072.34 284.782 1076.95 280.014 1069.22 L 283.591 1068.75 L 284.335 1067.68 C 282.552 1064.68 279.64 1063.74 276.391 1062.25 C 273.373 1060.87 274.012 1053.77 273.434 1049.2 L 269.215 1048.75 C 267.294 1047.48 264.151 1044.45 264.636 1042 C 267.571 1041.88 268.667 1041.97 271.512 1042.21 C 270.275 1039.54 262.664 1034.52 259.278 1031.17 C 258.909 1024.13 260.665 1031.76 263.275 1026.01 C 262.155 1024.93 261.186 1024.04 260.037 1023.01 C 259.339 1018.27 260.033 1017.96 260.956 1013.91 C 261.847 1010.01 257.181 1008.73 257.811 1001.94 C 259.273 1001.3 260.723 1000.9 262.278 1000.55 L 262.169 998.623 C 257.696 995.567 255.934 995.324 255.971 989.775 C 258.681 987.921 258.52 990.56 264.164 990.069 C 264.064 984.348 257.449 979.927 257.554 974.484 C 259.679 972.816 261.559 971.311 263.61 969.527 C 260.885 968.57 259.94 968.801 257.005 968.673 L 256.073 967.502 C 258.412 964.759 261.762 963.603 265.182 961.86 L 265.132 960.31 C 263.512 960.628 262.075 961.066 260.527 961.623 L 260.046 960.079 C 261.07 955.666 261.114 954.682 263.301 950.838 L 263.756 952.421 L 261.977 954.337 L 262.074 955.556 L 264.309 955.424 C 265.833 952.785 264.094 947.716 263.369 944.091 C 264.514 940.65 263.48 942.014 266.826 940.058 C 264.092 938.68 263.787 938.803 261.878 936.507 L 262.788 934.58 C 265.054 934.759 264.898 934.738 267.036 933.923 C 267.226 921.69 268.447 904.036 279.339 896.393 C 281.926 896.384 283.012 896.6 285.505 897.312 C 286.064 895.049 285.842 895.672 286.881 893.661 L 289.654 893.161 C 293.253 894.845 292.485 895.137 294.964 899.341 L 296.276 899.32 L 296.009 897.594 L 295.542 899.518 L 296.296 898.288 C 295.508 896.302 295.74 897.418 295.833 894.902 C 298.645 893.716 298.522 893.91 301.594 894.387 L 302.491 897.762 C 321.255 916.108 302.538 939.31 307.589 953.181 C 307.698 953.48 307.821 953.773 307.938 954.069 L 306.007 956.596 C 308.515 967.444 304.148 970.793 304.745 980.704 C 304.877 982.896 307.539 984.838 305.917 988.623 L 302.303 982.793 L 301.461 983.036 L 302.381 982.933 L 301.257 984.025 C 301.018 988.246 301.426 989.026 304.167 992.12 C 305.678 993.826 305.725 1000.94 305.693 1003.42 C 303.415 1001.09 304.233 1001.52 301.496 1000.07 C 300.275 1006.21 304.832 1003.3 306.78 1007.9 C 305.546 1010.41 304.298 1012.03 304.865 1014.65 L 306.359 1012.26 L 307.62 1012.28 C 314.269 1030.76 317.937 1032.81 338.01 1037.07 C 342.389 1037.99 361.999 1028.15 364.851 1024.51 L 362.894 1022.43 C 362.442 1018.81 364.29 1016.41 367.322 1014.79 C 368.935 1015.09 370.111 1015.28 371.741 1015.46 L 370.131 1013 L 372.413 1010.92 L 371.195 1008.63 C 374.543 1002.45 372.605 1001.37 375.151 995.62 C 375.539 994.744 381.329 992.076 381.775 989.992 C 382.971 984.412 379.38 980.341 382.342 975.045 C 384.811 975.295 383.937 975.445 386.236 974.436 C 388.661 966.783 384.598 974.05 384.916 968.333 C 385.122 964.633 389.248 956.873 389.925 953.498 C 390.684 949.715 385.575 948.971 385.277 944.311 C 387.332 944.006 386.584 944.066 388.509 943.962 L 389.783 943.903 C 389.872 940.781 388.338 940.541 385.297 937.17 C 385.183 934.418 384.703 935.584 386.44 933.488 L 389.307 935.753 C 387.837 912.032 376.773 917.988 393.535 892.617 C 394.551 894.634 393.978 893.628 395.269 895.627 L 396.01 895.077 L 395.348 892.906 L 396.065 891.622 C 408.986 890.182 419.655 887.767 432.261 885.465 C 433.103 885.312 440.304 887.272 443.06 887.452 L 447.253 883.385 C 453.149 882.412 447.387 883.696 451.423 885.902 C 454.435 878.468 456.382 884.367 462.775 881.945 L 462.604 880.372 L 457.559 877.727 L 457.116 876.256 L 460.205 875.419 L 457.91 868.984 C 458.755 864.661 459.879 864.77 462.663 861.646 C 459.522 853.538 462.972 849.728 463.993 840.782 C 465.248 829.777 461.199 822.412 463.161 811.518 C 471.585 804.755 477.361 799.278 487.751 796.068 z" fill="rgb(0,0,0)" transform="translate(0,0)"></path>
<path d="M 671.206 934.875 C 674.891 937.158 678.225 938.469 682.52 938.408 C 684.576 936.852 683.767 937.24 686.2 936.413 C 691.789 941.489 701.741 950.271 705.709 956.348 L 702.635 958.219 C 704.378 961.234 705.45 958.09 709.801 962.515 C 709.167 964.211 708.295 965.714 707.365 967.265 C 708.644 968.606 709.401 969.362 710.817 970.601 L 711.98 971.6 C 711.94 977.707 708.794 974.24 708.446 979.019 L 711.519 981.462 C 708.799 985.577 705.322 990.938 704.197 995.741 C 700.274 1012.48 674.327 1019.98 659.068 1022.75 C 657.148 1021.47 656.363 1021.11 654.123 1020.54 C 648.558 1021.68 637.183 1019.14 632.276 1016.69 C 631.208 1014.22 631.12 1013.2 628.929 1011.74 L 624.84 1012.94 L 624.151 1011.57 C 626.187 1009.88 625.612 1010.66 626.792 1008.32 C 623.45 1004.28 620.936 1001.55 618.368 996.933 C 618.426 994.256 618.594 986.66 618.654 983.692 C 618.646 984.076 620.892 983.016 622.154 981.573 C 620.58 975.245 620.624 982.549 618.28 977.296 C 620.671 975.679 621.004 975.616 622.837 973.451 L 621.24 970.523 L 622.626 969.179 L 625.497 970.718 L 626.669 969.859 C 626.14 966.208 625.983 964.938 626.032 961.276 C 629.313 958.157 625.764 961.992 630.585 961.908 L 631.583 960.452 C 629.834 958.775 630.35 959.738 629.816 957.692 C 633.032 954.454 644.257 942.661 647.392 940.875 C 648.238 943.181 647.723 942.133 648.882 944.045 C 652.606 943.086 657.064 939.188 660.315 936.736 L 661.456 936.954 L 663.138 937.257 C 666.584 937.912 667.005 938.44 670.361 937.042 L 671.206 934.875 z" fill="rgb(254,254,254)" transform="translate(0,0)"></path>
<path d="M 789.618 915.254 C 795.977 917.96 798.014 917.232 798.212 923.962 C 801.291 924.686 801.586 921.496 806.303 921.135 C 808.588 922.923 810.363 924.839 813.12 925.062 L 814.687 923.135 L 816.148 923.033 C 819.693 929.304 834.459 937.101 839.633 947.023 C 838.81 952.895 839.041 946.013 834.373 950.694 L 834.549 952.014 C 836.992 951.623 837.496 951.493 839.941 951.585 C 835.672 960.548 828.98 952.958 822.786 961.722 L 820.799 961.184 C 816.779 964.305 801.701 967.337 796.174 967.179 C 796.968 967.202 794.534 964.369 793.042 963.764 L 790.598 966.418 C 788.335 962.153 791.887 963.183 789.542 957.795 L 784.819 956.227 L 784.569 954.95 C 787.17 954.243 787.87 954.459 789.432 952.437 L 789.088 950.921 C 786.03 949.563 786.87 950.415 784.965 948.047 C 788.352 942.418 787.484 939.144 784.684 933.639 L 785.333 932.289 C 788.756 932.609 788.321 932.92 791.458 932.031 L 791.831 929.656 C 788.092 924.323 791.183 930.497 787.135 927.114 C 786.058 923.193 788.288 919.162 789.618 915.254 z" fill="rgb(254,254,254)" transform="translate(0,0)"></path>
<path d="M 1223.11 813.443 C 1226.75 814.189 1231.06 813.659 1235.8 814.323 L 1237.76 817.296 L 1239.35 817.601 C 1240.94 815.208 1240.74 815.207 1243.26 813.933 C 1253.72 814.166 1246.12 822.599 1260.72 815.773 L 1262.42 816.41 L 1262.41 818.629 C 1266.48 820.63 1274.7 821.821 1279.46 822.74 C 1291.19 834.388 1290.03 826.451 1299.96 833.753 C 1306.9 838.859 1318.04 848.73 1322.15 856.463 C 1328.75 868.866 1331.69 866.164 1328.98 878.041 L 1330.06 879.684 L 1332.1 878.46 C 1336.7 883.887 1333.53 894.125 1332.07 899.542 C 1332.14 899.289 1334.88 903.645 1335.5 905.894 C 1331.28 911.841 1325.64 924.888 1322.67 926.979 C 1320.27 926.938 1319.71 926.942 1317.34 927.299 L 1316.52 928.713 L 1320.32 929.08 L 1320.82 930.036 C 1318.52 932.686 1309.79 933.922 1306.73 935.572 C 1303.41 937.36 1304.14 943.996 1300.89 946.995 L 1297.88 946.24 L 1296.94 946.939 C 1297.08 949.311 1297.16 949.263 1296.54 951.529 C 1291 952.87 1294.12 949.543 1288.24 950.474 L 1287.73 953.505 C 1281.9 955.574 1275.55 957.419 1270.43 960.734 C 1271.49 965.74 1274.2 964.452 1276.22 969.564 C 1274.96 972.141 1275.1 971.088 1275.16 973.787 C 1277.27 974.125 1276.53 974.053 1278.46 974.204 L 1279.71 974.293 C 1278.21 977.249 1278.13 975.987 1278.59 978.487 C 1282.59 978.986 1278.34 977.807 1282.04 975.993 C 1287.1 980.796 1289.53 987.215 1293.69 992.392 C 1295.25 994.337 1305.82 998.029 1307.96 999.974 C 1312.79 1004.37 1314.78 1009.25 1320.23 1013.4 L 1322.65 1012.12 L 1324.03 1012.84 C 1324.95 1017.91 1323.01 1013.13 1322.43 1018.58 L 1329.13 1018.04 C 1333.41 1020.4 1329.33 1021.99 1332.27 1023.45 C 1335.92 1025.26 1344.36 1026.99 1346.26 1030.96 C 1344.72 1032.52 1345.34 1031.69 1344.35 1033.42 L 1346.17 1034.65 L 1349.77 1033.41 L 1350.83 1034.6 L 1349.1 1037.46 L 1350.33 1038.44 C 1359.87 1038.52 1358.93 1042.7 1365.48 1047.39 C 1381.79 1059.06 1394.55 1058.52 1400.56 1080.32 C 1397.05 1092.04 1392.64 1093.72 1383.38 1102.08 C 1378.18 1102.18 1359.34 1101.31 1357.19 1095.61 L 1359.43 1093.96 C 1357.49 1090.7 1346.02 1087.37 1341.37 1083.93 C 1335 1079.22 1331.38 1074.71 1325.7 1069.39 L 1322.79 1070.56 L 1320.68 1069.02 C 1319.17 1064.05 1318.6 1060.79 1314.03 1058.12 C 1312.16 1060.12 1312.98 1059.63 1310.62 1060.77 L 1308.39 1058.85 L 1308.29 1057.12 L 1311.4 1054.72 L 1310.58 1053.56 C 1305.39 1052.82 1301.07 1054.78 1297.62 1050.33 L 1300.59 1048.95 L 1300.75 1047.34 C 1295.16 1041.84 1297.48 1046.66 1289.48 1043.5 L 1289.29 1042.21 L 1294.2 1041.4 C 1290.46 1036.44 1277.89 1033.83 1275.35 1029.09 L 1274.4 1026.14 C 1273.47 1025.29 1271.29 1023.31 1270.61 1022.38 C 1266.09 1016.3 1258.77 1011.5 1252.61 1006.25 C 1252.87 1004.5 1253.02 1003.27 1253.13 1001.5 C 1248.97 997.587 1246.1 998.485 1241.23 995.744 C 1241.22 994.666 1241.21 993.589 1241.19 992.511 C 1237.72 990.522 1239.67 990.999 1234.92 992.085 L 1233.34 990.889 C 1234.79 989.286 1234.98 989.354 1236.91 988.34 C 1228.6 979.423 1214.97 983.939 1206.69 990.47 L 1205.45 991.462 L 1202.59 990.639 L 1201.29 991.801 C 1201.88 1001.01 1201.58 1011.99 1202.43 1020.46 L 1202.53 1021.35 L 1200.33 1023.04 L 1200.64 1024.32 C 1205.63 1025.63 1205.98 1025.4 1207.27 1030.42 C 1203.16 1039.31 1204.86 1038.18 1207.32 1046.82 C 1205.83 1049.47 1205.56 1049.53 1205.12 1052.47 C 1207.22 1052.52 1207.24 1052.17 1209.15 1051.28 L 1209.5 1053.27 C 1203.5 1061.05 1207.29 1060.5 1212.19 1068.51 C 1213.54 1070.7 1211.07 1077.6 1210.8 1081.07 L 1213.57 1082.8 C 1214.93 1086.77 1211.4 1096.05 1209.87 1100.11 C 1206.1 1102.75 1200.19 1107.21 1195.92 1108.14 L 1187.77 1109.92 C 1182.61 1108.31 1179.43 1106.76 1174.6 1104.5 C 1171.28 1099.05 1167.83 1093.68 1164.27 1088.38 C 1162.29 1088.75 1163.2 1088.83 1161.53 1088.32 C 1160.32 1077.31 1170.81 1072.49 1168.99 1065.61 C 1166.2 1066.09 1167.08 1066.14 1164.35 1065.81 L 1163.88 1064.2 L 1167.25 1061.89 C 1166.77 1056.4 1162 1055.77 1162.34 1048.78 L 1168.23 1045.63 L 1168.34 1044.79 C 1164.71 1045.59 1163.81 1046.43 1160.73 1045.5 L 1160.25 1043.67 C 1162.25 1040.86 1163.03 1043.34 1167.7 1040.89 L 1167.13 1039.87 C 1164.47 1039.99 1162.64 1040.35 1160.24 1039.26 C 1159.98 1030.46 1166.55 1015.54 1165.48 1004.76 C 1164.22 1002.77 1163.38 1002.27 1161.45 1000.91 C 1161.45 997.16 1161.72 991.607 1159.7 988.738 L 1157.03 990.849 L 1156.3 989.193 C 1164.22 978.026 1161.78 981.045 1161.61 968.101 C 1161.51 961.288 1158.67 940.882 1160.65 935.789 C 1168.8 930.774 1164.83 928.215 1163.54 918.94 C 1165.63 918.021 1165.08 918.396 1166.87 916.979 C 1160.84 909.982 1172.41 909.209 1168.25 900.689 C 1165.07 894.159 1168.81 891.439 1168.95 887.55 C 1166.45 887.534 1167.59 887.831 1165.52 886.773 L 1165.67 884.541 C 1167.92 884.858 1167.24 885.05 1169.24 884.486 C 1167.92 882.005 1166.61 879.517 1165.3 877.022 C 1172.4 870.407 1161.6 861.432 1166.47 852.201 C 1167.59 850.086 1167.59 851.03 1166.95 849.083 C 1165.11 848.898 1165.2 848.93 1163.36 848.458 C 1158.01 837.175 1153.93 835.056 1161.53 824.483 C 1167.53 822.503 1172.58 820.509 1178.44 818.164 C 1182.16 816.673 1181.99 817.496 1185.71 819.443 C 1189.04 819.17 1192.33 816.904 1195.52 815.229 C 1197.15 817.143 1196.36 816.663 1198.53 817.599 C 1200.89 809.205 1211.75 819.699 1223.11 813.443 z" fill="rgb(0,0,0)" transform="translate(0,0)"></path>
<path d="M 1222.92 850.661 C 1224.77 851.456 1224.67 852.149 1226.24 854.318 C 1232.59 853.116 1254.93 853.168 1260.23 856.046 C 1259.46 856.667 1258.68 857.288 1257.91 857.909 C 1263.42 860.236 1264.65 858.978 1268.94 859.73 C 1270.19 859.949 1275.03 865.866 1278.71 867.822 C 1280.66 866.449 1279.7 867.224 1281.6 865.48 C 1283.85 867.94 1283.48 870.914 1283.96 874.841 C 1286.7 876.876 1288.84 875.017 1293.29 878.298 C 1295.1 881.612 1294.91 879.983 1294.65 883.198 L 1290.99 884.5 L 1290.64 886.17 C 1292.83 887.26 1292.81 887.133 1294.44 888.915 L 1294.31 891.21 L 1291.21 891.202 L 1290.51 892.674 C 1292.52 894.809 1292.16 893.889 1293.01 896.428 C 1290.37 899.37 1287.74 902.325 1285.13 905.295 C 1288.16 906.069 1287.29 905.388 1289.3 907.307 C 1283.24 917.453 1267.85 923.967 1256.96 927.19 L 1256.82 928.03 L 1255.22 929.149 L 1252.24 927.749 C 1247.67 932.508 1231.1 938.528 1224.03 938.743 C 1223.2 938.052 1222.37 937.361 1221.54 936.67 C 1216.94 937.686 1205.07 943.525 1201.67 938.251 C 1204.96 935.098 1206.51 933.826 1205.51 929.138 C 1201.06 925.801 1200.44 926.083 1199.32 921.559 L 1200.2 920.357 C 1203.5 921.195 1202.35 921.254 1205.54 920.871 L 1205.55 919.055 C 1198.03 911.561 1206.41 916.018 1206.87 908.956 L 1204.62 907.309 L 1204.46 905.766 L 1207.42 904.882 L 1207.74 903.07 C 1204.85 900.903 1205.55 902.014 1204.15 899.032 C 1205.49 896.69 1205.88 896.085 1206.77 893.571 C 1202.4 888.499 1205.59 895.419 1200.42 891.541 C 1200.25 885.915 1202.7 884.32 1206.71 881.014 C 1206.34 878.638 1205.23 871.259 1205.31 868.894 C 1205.42 865.949 1206.98 869.673 1206.88 863.588 C 1202.39 860.135 1205.99 865.619 1201.62 863.656 C 1208.45 849.888 1214.02 858.191 1222.92 850.661 z" fill="rgb(254,254,254)" transform="translate(0,0)"></path>
<path d="M 1709.93 811.23 C 1712.23 811.145 1714.03 811.31 1716.27 811.297 C 1740.64 811.158 1738.4 845.788 1736.94 862.564 C 1733.65 866.518 1731.33 867.633 1730.63 872.896 C 1730.31 875.305 1728.32 876.574 1726.39 877.553 L 1727.96 881.518 L 1727.08 883.52 C 1723.7 885.347 1720.76 886.13 1721.32 890.376 C 1723.61 889.371 1723.16 889.481 1725.62 888.933 C 1724.98 892.487 1722.71 893.021 1721.17 895.516 C 1719.09 898.886 1723.92 894.556 1722.55 900.039 C 1719.72 900.498 1719.06 900.209 1717.1 902.103 L 1717.16 904.393 C 1721.45 903.488 1719.64 903.093 1722.94 904.571 C 1721.97 905.584 1720.97 906.52 1719.89 907.418 L 1722.41 908.316 L 1722.7 909.667 L 1719.23 911.185 L 1719.05 912.851 L 1721.2 912.483 L 1721.89 913.436 C 1715.84 918.869 1719.65 922.808 1717.46 930.591 C 1716.97 932.339 1711.58 937.648 1709.89 939.522 C 1710.03 943.585 1710.77 946.5 1711.59 950.464 C 1710.13 952.118 1710.22 951.792 1708.13 952.523 C 1707.33 956.516 1711.56 961.252 1711.49 962.339 C 1711.15 967.185 1705.23 974.273 1704.72 979.711 L 1708.01 978.604 L 1708.51 980.124 C 1703.45 987.395 1706.07 992.831 1705.51 1002.2 C 1703.25 1003.41 1703.34 1003.15 1700.75 1003.4 C 1701.53 1006.54 1703.72 1006.86 1707.3 1009.48 L 1707.26 1011.64 C 1705.58 1013.87 1704.54 1015.41 1703.06 1017.73 C 1702.91 1025.63 1709.45 1035.52 1705.93 1041.16 L 1702.59 1041.74 C 1701.41 1047.62 1705.89 1053.1 1703.59 1057.56 C 1701.69 1055.33 1702.4 1055.36 1700.24 1054.59 C 1699.41 1058.07 1699.43 1057.92 1699.69 1061.48 C 1701.84 1061 1702.39 1060.92 1704.59 1060.79 C 1708.87 1065.99 1701.72 1066.74 1702.39 1069.33 C 1704.55 1077.73 1707.51 1082.88 1707.18 1092.02 C 1699.83 1101.7 1703.87 1097.2 1705.71 1102.44 C 1697.72 1120.4 1674 1127.74 1661.88 1114.15 C 1645.02 1095.26 1634.23 1063.72 1619.37 1043.42 C 1621.06 1036.93 1615.7 1037.19 1612.21 1031.43 L 1613.74 1029.69 L 1612.78 1028.32 L 1610.56 1029.82 L 1609.3 1028.99 C 1609.01 1019.96 1607.23 1025.63 1603.87 1021.62 C 1604.17 1018.54 1604.44 1019.65 1603.24 1017 C 1600.37 1015.45 1600.26 1015.08 1596.97 1015.34 C 1593.52 1018.51 1590.86 1020.31 1589.23 1024.64 L 1590.99 1026.24 C 1590.66 1028.49 1591.11 1027.47 1589.09 1029.11 C 1587.59 1026.83 1588.57 1027.35 1586.53 1026.72 L 1584.98 1028.66 C 1585.03 1030.84 1585 1032.23 1584.86 1034.4 L 1581.16 1037.09 L 1581.03 1038.96 C 1583.25 1039.28 1583.27 1039.22 1585.29 1040.15 L 1585.56 1042.77 C 1579.23 1046.42 1579.75 1046.31 1579.34 1053.72 C 1574.16 1056.02 1574.98 1049.94 1570.49 1054.28 C 1572.69 1055.26 1572.42 1054.68 1573.59 1056.22 C 1566.95 1058.68 1562.06 1060.23 1554.97 1059.68 C 1552.63 1057.76 1552.25 1057.28 1549.47 1055.95 C 1546.19 1056.49 1545.45 1056.68 1542.05 1056.62 L 1540.65 1055.15 L 1541.51 1052.29 C 1537.98 1049.58 1537.6 1049.51 1536.32 1045.46 C 1527.58 1032.06 1530.01 1025.99 1523.45 1012.35 C 1522.36 1010.08 1524.36 995.829 1524.33 992.064 C 1522.71 991.314 1521.81 990.818 1520.27 989.908 C 1519.41 985.436 1520.2 984.569 1521.33 980.204 C 1522.21 976.783 1519.05 975.8 1518.6 972.192 L 1522.62 968.659 C 1520.66 965.293 1519.22 968.211 1516.08 965.268 L 1520.07 963.59 C 1519.01 954.885 1517.26 941.034 1515.55 932.013 C 1515.37 931.034 1518.2 930.061 1518.1 925.666 C 1515.75 923.816 1516.36 924.743 1515.21 922.168 C 1517.84 911.21 1525.54 904.648 1533.99 898.081 L 1548.3 899.002 C 1553.84 904.283 1555.44 905.721 1559.67 912.044 C 1558.53 915.786 1557.33 930.256 1556.98 934.715 C 1556.04 946.922 1560.53 955.741 1556.55 968.322 L 1559.65 968.648 C 1561.95 974.224 1559.56 981.825 1562.06 986.969 C 1581.48 988.011 1579.66 959.267 1602.53 957.738 C 1604.81 959.507 1604.73 959.667 1607.44 960.479 C 1609.01 959.523 1610.29 958.776 1611.91 957.917 C 1642.52 968.122 1645.68 1019.96 1658.15 1021.89 C 1662.81 1013.98 1654.7 997.708 1664.48 983.685 L 1665.46 983.836 L 1664.46 988.971 L 1665.98 988.406 L 1666.86 985.215 C 1663.4 972.561 1666.44 977.409 1667.99 967.179 C 1665.65 963.535 1665.63 964.348 1667.53 960.592 L 1670.48 960.309 C 1671.24 957.051 1667.96 950.724 1668.39 949.994 C 1676.94 935.625 1678.73 915.655 1682.27 899.323 C 1683.14 895.293 1682.69 890.488 1686.17 886.52 C 1691.38 880.578 1681.65 868.374 1689.87 865.84 C 1690.59 865.558 1694.96 848.377 1695.1 846.636 C 1695.8 838.171 1695.02 828.996 1697.66 820.806 C 1702.9 815.564 1704.31 815.3 1709.93 811.23 z" fill="rgb(0,0,0)" transform="translate(0,0)"></path>
<path d="M 1430.51 879.882 C 1432.72 879.946 1434.9 880.448 1436.91 881.36 C 1455.75 889.906 1455.57 906.723 1457.06 923.686 C 1457.36 927.118 1462.74 941.609 1464.19 945.442 L 1462.12 947.078 C 1462.29 950.48 1465.68 947.895 1465.17 950.424 C 1463.02 961.156 1467.01 961.784 1472.65 970.057 L 1470.73 973.075 C 1473.09 976.498 1476.8 975.49 1477.08 977.601 C 1478.64 989.667 1480.01 993.866 1490.59 1000.57 C 1490.63 1000.6 1493.49 1012.25 1494.86 1013.29 C 1500.42 1017.51 1507.68 1021.29 1511.98 1026.99 C 1511.79 1041.19 1521.47 1043.73 1508.74 1054.55 C 1482.09 1077.2 1459.47 1039.1 1444.96 1020.41 C 1439.59 1011.87 1433.21 999.846 1420.65 1001.83 C 1416.67 1002.46 1409.41 1002.13 1407.1 1004.97 L 1408.54 1007.7 L 1408.19 1008.8 L 1405.21 1008.41 L 1404.28 1010.53 C 1404.93 1013.64 1405.49 1014.99 1404.75 1018.1 C 1401.4 1022.9 1388.85 1034.42 1382.63 1032.68 L 1381.55 1029.67 C 1377.95 1030.19 1369.09 1031.46 1366.31 1029.61 L 1366.66 1026.68 L 1358.91 1021.7 L 1358.63 1019.95 C 1367.5 1012.12 1363.09 1004.34 1374.12 992.417 C 1372.77 990.448 1373.13 991.104 1372.25 988.714 C 1373.8 987.118 1374.65 986.703 1376.65 985.731 C 1376.35 983.34 1376.19 981.286 1376.01 978.893 C 1378.79 975.162 1377.62 979.645 1382.94 977.518 C 1382.2 975.717 1382.08 975.649 1380.82 974.236 C 1387.63 962.611 1394.09 950.418 1401.25 938.95 C 1402.93 936.244 1403.48 929.116 1405.5 926.813 C 1410.36 921.255 1405.6 914.395 1410.09 908.925 C 1412.29 906.298 1412.13 904.321 1413.42 901.155 C 1417.98 889.928 1420.59 885.84 1430.51 879.882 z" fill="rgb(0,0,0)" transform="translate(0,0)"></path>
<path d="M 995.101 875.64 L 996.308 876.899 C 1006.21 878.742 1019.42 887.912 1019.53 899.403 C 1019.56 901.687 1016.09 904.963 1017.28 908.129 C 1019.93 907.41 1019 907.238 1021.34 907.844 C 1019.64 917.15 1017.17 919.807 1021.19 929.338 C 1022.74 933.004 1021.82 934.86 1019.97 938.116 L 1020.43 939.639 L 1024.83 939.243 L 1026.04 940.565 C 1025.18 942.006 1024.67 942.921 1023.91 944.375 C 1026.59 950.606 1027.71 945.159 1030.69 951.976 C 1033.8 959.077 1035.73 978.528 1039.47 983.364 C 1044.85 990.311 1057.41 998.379 1061.65 1007.4 C 1063.05 1010.38 1066.79 1018.16 1065.09 1021.07 C 1062.45 1025.58 1053.6 1041.08 1049.65 1042.27 L 1048.19 1040.37 L 1046.6 1043.53 C 1040.56 1044.51 1046.77 1040.74 1042.83 1040.72 C 1039.56 1040.71 1035.96 1042.64 1032.96 1041.14 L 1033.53 1037.68 C 1022.35 1030.95 1021.7 1025.47 1013.93 1014.17 C 1012 1012.59 1010.59 1011.56 1009.32 1009.37 C 1002.59 997.76 996.238 995.586 984.404 991 C 968.244 997.923 969.081 999.478 956.977 1011.83 C 956.747 1012.07 949.315 1015.51 947.852 1016.31 L 947.631 1018.75 L 946.443 1019.64 C 940.402 1018.97 931.537 1016.45 928.511 1010.06 C 926.44 1005.69 929.026 1007.78 930.08 1004.21 C 927.202 1000.83 926.245 999.749 924.03 995.971 C 924.227 985.016 930.2 982.662 937.124 976.036 C 939.528 973.736 937.724 969.266 938.003 968.843 C 943.069 961.188 949.576 950.549 954.744 943.305 C 952.677 938.635 970.907 900.976 973.623 893.461 C 979.21 877.996 987.504 880.145 995.101 875.64 z" fill="rgb(0,0,0)" transform="translate(0,0)"></path>
<path d="M 899.613 816.336 C 908.5 815.255 912.11 817.53 917.742 824.078 L 918.642 825.141 C 921.213 824.584 921.076 824.505 923.634 824.972 C 926.437 827.466 926.312 827.561 927.975 830.742 L 926.723 833.032 C 930.797 837.366 932.046 840.732 929.027 846.271 C 926.863 850.24 917.313 860.601 913.451 861.868 L 912.818 860.495 C 914.107 858.89 914.582 858.198 915.657 856.44 L 914.579 856.009 L 909.973 860.287 C 906.164 865.509 897.393 863.494 893.773 859.434 C 891.449 856.826 891.873 860.718 887.876 859.086 C 886.269 849.269 886.073 855.717 880.817 850.953 C 880.901 848.361 880.968 849.094 880.458 846.468 C 877.798 847.361 878.824 847.326 876.115 846.848 L 875.713 844.901 C 877.963 844.039 877.381 844.453 879.234 843.02 C 876.911 840.499 877.381 841.934 877.012 838.938 C 878.97 837.572 878.239 838.396 879.328 836.58 L 877.74 835.031 C 880.347 826.069 890.677 817.457 899.613 816.336 z" fill="rgb(0,0,0)" transform="translate(0,0)"></path>
<metadata><recraft-signature>{"signed_by": "recraft", "signature_b64": "sgzkX+ovD+RGucGVwgTMaEJEkGINFGwiOTufSQXu9vYkcXJIJTnadjclC7rKmNPfOaG4dRbW3lE1xZZXs10dBQ==", "signing_algo": "Ed25519", "generation_timestamp": 1776302755, "identifier": "24c00562-fc88-49e8-bd05-f031899ada8a"}</recraft-signature></metadata></svg>