<svg xmlns="http://www.w3.org/2000/svg" height="1024" preserveAspectRatio="none" style="display: block;" version="1.1" viewBox="0 0 2048 2048" width="1024">
<path d="M 0 0 L 2048 0 L 2048 2048 L 0 2048 L 0 0 z" fill="rgb(130,104,83)" transform="translate(0,0)"></path>
<path d="M 461.104 804.538 C 462.39 805.137 462.142 804.992 463.59 805.83 C 479.408 814.981 493.545 876.043 498.508 895.254 C 508.978 898.189 520.719 895.338 531.503 895.295 C 554.901 895.202 577.548 892.984 600.934 891.997 C 612.831 891.495 627.555 888.13 640.3 887.698 C 654.809 887.206 674.437 887.9 688.306 886.061 C 713.553 882.144 732.935 870.79 758.417 867.195 C 786.68 863.208 817.082 875.224 843.98 883.961 C 873.496 893.549 900.024 916.549 924.644 934.431 C 952.043 954.33 942.108 972.729 946.067 1001.03 C 945.115 1002.34 942.308 1005.96 942.222 1007.47 C 940.269 1041.88 940.232 1100.05 970.495 1122.55 C 971.144 1117.48 974.654 1102.58 974.575 1099.59 C 974.267 1087.77 970.161 1085.68 973.092 1072.12 C 976.19 1057.8 983.801 1052.92 988.194 1041.02 C 1002.56 1002.32 1011.27 961.75 1014.04 920.565 C 1014.73 910.684 1016.03 910.663 1015.4 899.476 C 1034.17 889.429 1039.02 893.158 1057.93 900.722 C 1061.19 905.97 1070.67 914.929 1072.27 919.475 C 1084.81 954.3 1081.11 993.7 1092.92 1029.1 C 1095.69 1037.38 1095 1038.57 1103.5 1042.07 C 1113.74 1046.29 1123.68 1049.49 1126.95 1061.05 C 1123.7 1066.84 1106.38 1074.5 1107.34 1082.15 C 1109.43 1098.7 1121.19 1112.17 1125.18 1128.8 C 1144.78 1143.77 1114.21 1147.14 1104.4 1147.67 C 1079.81 1136.16 1082.26 1126.03 1072.37 1102.54 C 1070.45 1097.98 1070.22 1095.26 1066.53 1091.77 C 1063.16 1090.41 1026.56 1093.24 1025.94 1093.78 C 1009.81 1107.96 1024.47 1140.29 1015.67 1158.97 C 1004.92 1181.76 983.807 1160.59 970.784 1154.97 L 959.447 1157.53 C 956.644 1156.46 946.878 1153.89 945.115 1153.61 C 927.112 1144.75 907.452 1106.22 901.101 1088.91 C 896.882 1077.41 901.4 1020.32 890.992 1017.11 C 880.251 1019.07 868.558 1023.83 856.096 1028.33 C 839.489 1034.34 811.212 1038.77 797.573 1050.35 C 795.848 1051.82 798.592 1059.27 799.394 1061.75 C 802.876 1072.48 802.298 1083.8 803.068 1094.91 C 804.829 1110.42 811.801 1130.69 803.412 1145.7 C 797.382 1156.49 785.761 1159.69 774.761 1162.6 C 767.059 1159.5 762.689 1155.52 756.192 1150.4 C 755.67 1147.3 755.235 1140.15 753.961 1137.05 C 753.699 1136.42 751.439 1136.47 749.662 1134.07 C 752.064 1131.9 753.547 1130.88 755.04 1127.98 C 754.189 1126.7 753.567 1125.73 752.783 1124.45 C 755.037 1116.57 757.183 1111.8 760.808 1104.68 L 760.391 1103.11 C 760.354 1102.97 759.822 1100.75 759.746 1100.6 C 755.133 1091.48 761.936 1060.52 755.463 1053.01 L 753.573 1053.56 C 750.191 1058.71 748.52 1067.7 747.618 1073.76 C 738.282 1082.69 739.932 1086.75 733.449 1096.12 C 723.478 1110.54 702.045 1117.6 686.347 1125.71 C 681.335 1125.15 675.902 1124.98 670.837 1124.7 C 664.711 1132.99 662.953 1131.58 653.316 1133.28 C 645.549 1134.65 638.325 1135.07 630.456 1135.32 C 621.938 1141.69 624.445 1138.67 615.321 1138.28 C 607.672 1138.27 600.258 1138.34 592.697 1136.9 C 564.494 1131.56 541.061 1104.22 534.01 1077.43 C 527.584 1055.13 532.391 1042.42 538.241 1020.86 L 545.454 1016.38 C 547.364 1011.73 554.412 994.96 557.853 991.052 C 574.457 972.2 610.548 942.996 634.578 937.467 C 649.914 933.939 686.676 946.612 697.381 954.52 C 705.71 960.619 713.691 967.179 721.288 974.168 C 725.393 978.018 738.195 992.182 742.694 992.718 C 746.464 985.931 744.153 947.818 740.696 939.99 C 737.974 933.828 719.662 944.96 706.499 925.372 C 644.809 934.437 572.115 930.643 509.586 940.239 C 487.11 943.689 490.548 957.311 490.256 975.571 C 489.88 999.032 492.894 1021.35 491.214 1044.7 C 491.345 1042.5 497.392 1085.12 496.161 1082.11 C 501.498 1095.14 521.827 1120.55 531.599 1130.57 L 533.011 1144.04 C 515.383 1169.3 496.653 1165.33 480.83 1143.9 C 474.506 1136.73 468.074 1130.91 463.628 1122.2 C 449.581 1094.67 449.871 1060.07 446.879 1029.72 C 444.178 1002.32 450.514 970.854 446.169 943.693 C 445.987 942.552 443.542 942.465 442.702 942.139 C 436.534 940.692 400.722 942.336 397.347 944.523 C 395.206 951.043 399.608 954.844 401.417 960.687 C 411.819 994.891 418.743 1030.92 415.977 1066.78 C 412.658 1109.79 386.088 1161.52 335.465 1153.64 C 327.978 1152.48 299.347 1148.31 292.516 1145.12 C 282.969 1140.65 276.76 1132.95 263.933 1132.17 C 249.736 1126.72 236.746 1102.86 230.514 1089.34 C 222.294 1071.52 216.119 1061.77 219.091 1040.53 C 216.001 1035.28 211.571 1027.85 211.746 1021.37 C 211.821 1018.58 216.981 1013.72 217.091 1009.58 C 217.445 996.303 220.184 981.686 221.067 968.867 C 222.522 947.758 220.887 932.517 225.9 911.466 L 236.743 902.89 C 260.97 903.049 268.458 915.956 275.364 936.659 C 270.16 948.857 271.45 957.873 269.412 970.739 C 264.069 1004.08 262.114 1039.19 270.108 1072.26 C 271.488 1077.97 280.629 1083.61 284.383 1091.77 C 298.293 1096.49 314.822 1100.15 330.174 1105.29 C 340.572 1094.75 349.739 1093.49 358.963 1084.36 C 364.638 1078.75 361.587 1073.39 369.008 1063.67 L 369.984 1062.41 C 370.009 1051.72 373.189 1025.04 372.857 1021.2 C 371.362 1003.91 361.628 965.239 352.627 951.459 C 340.682 949.176 338.272 948.037 327.976 941.524 C 327.01 934.99 323.9 925.622 321.928 919.031 C 341.353 887.035 370.505 900.002 401.558 897.978 C 418.488 896.874 433.66 896.691 450.652 897.046 C 456.61 870.048 457.421 848.584 457.467 821.161 C 457.475 816.5 459.761 809.146 461.104 804.538 z" fill="rgb(2,1,2)" transform="translate(0,0)"></path>
<path d="M 651.454 984.882 C 664.854 984.241 695.357 1011.44 706.602 1019.67 C 710.249 1043.32 704.76 1051.65 686.891 1066.98 C 668.954 1082.37 651.827 1087.35 629.21 1092.16 C 626.192 1093.73 602.573 1093.5 598.361 1092.48 C 589.864 1090.43 582.563 1085.02 578.128 1077.49 C 556.665 1041.23 627.023 998.514 651.454 984.882 z" fill="rgb(130,104,83)" transform="translate(0,0)"></path>
<path d="M 787.465 917.182 C 796.144 916.92 805.312 916.696 813.818 918.737 C 842.453 925.606 916.433 945.41 858.05 977.408 C 845.776 983.554 807.608 1003.51 795.9 994.055 C 793.8 989.316 792.129 970.107 791.017 961.625 C 789.366 949.031 784.048 932.849 783.197 920.539 C 783.128 919.531 786.209 917.979 787.465 917.182 z" fill="rgb(130,104,83)" transform="translate(0,0)"></path>
<path d="M 1044.15 1015.65 C 1046.86 1018.42 1047.92 1022.61 1048.71 1026.34 L 1049.04 1027.98 C 1050.45 1034.69 1050.3 1036.45 1050.07 1043.16 C 1048.16 1046.46 1048.65 1045.43 1044.07 1047.15 C 1041.69 1046.37 1037.9 1044.76 1037.84 1041.81 C 1037.7 1033.89 1039.26 1021.9 1044.15 1015.65 z" fill="rgb(130,104,83)" transform="translate(0,0)"></path>
<path d="M 1292.52 819.376 C 1300.07 820.814 1311.42 819.948 1315.41 820.892 C 1359.47 831.289 1431.61 858.863 1454.16 900.182 L 1455.11 901.947 C 1459.71 910.308 1465.66 930.461 1465.72 939.945 L 1467.88 941.899 C 1456.4 952.472 1458.96 955.653 1451.42 966.013 C 1438.18 984.206 1402.95 995.851 1382.54 1004.16 C 1373.58 1007.81 1340.13 1007.5 1335.25 1014.81 C 1335.17 1023.5 1382.58 1063.02 1391.68 1071.07 C 1406.16 1083.89 1424.81 1105.07 1440.97 1114.42 C 1442.18 1108.1 1443.78 1098.31 1445.49 1092.4 C 1433.3 1074.81 1436.06 1067.26 1451.75 1053.98 C 1452.67 1040.33 1461.85 1030.74 1462.57 1021.44 C 1462.79 1018.64 1460.87 1017.38 1461.97 1014.14 C 1463.64 1009.22 1466.38 1006.48 1467.04 1001.02 C 1468.28 990.672 1470.56 957.745 1473.59 951.793 C 1474.75 949.524 1475.36 948.101 1474.39 945.591 C 1473.76 943.932 1472.31 942.493 1470.97 941.38 C 1477.45 936.698 1476.1 915.657 1473.68 907.826 C 1476.73 902.725 1479.8 896.686 1482.62 891.386 C 1487.23 891.081 1490.49 890.377 1494.99 889.514 C 1518.28 898.822 1536.25 909.604 1541.83 936.331 C 1547.27 962.387 1550.51 985.161 1548.4 1011.64 C 1548.08 1015.7 1553.49 1024.39 1552.46 1029.71 C 1550.87 1037.91 1556.38 1040.08 1563.4 1039.72 C 1580.96 1039.06 1584.55 1042.74 1596.3 1055.05 C 1598.09 1037.15 1593.74 1028.17 1594.49 1010.7 C 1593.42 1000.9 1598.35 980.039 1597.92 972.36 C 1596.1 939.974 1641.28 945.997 1641.87 963.763 C 1642.45 980.955 1637.41 1007.82 1640.61 1027.51 C 1642.29 1037.9 1644.81 1052.19 1645.91 1063.05 C 1659.98 1048.34 1665.32 1030.64 1672 1011.57 C 1673.02 1006 1670.81 1003.44 1673.49 997.966 C 1681.25 982.134 1696.42 987.847 1708.47 993.959 C 1709.23 1005.98 1714.59 1012.69 1716.24 1022.49 C 1721.9 1055.99 1720.51 1079.36 1748.91 1102.1 C 1754.36 1097.91 1755.91 1096.26 1760.51 1091.27 C 1761.27 1087.02 1767.85 1065.14 1767.58 1064.44 C 1763.58 1054.35 1769.28 1042.99 1768.59 1034.7 C 1766.92 1014.77 1764.66 995.513 1765.58 975.361 C 1766.1 963.886 1775.33 949.831 1770.54 939.058 C 1768.98 936.092 1767.4 931.461 1768.06 928.149 C 1771.39 917.239 1770.96 901.519 1773.99 891.115 C 1778.53 875.544 1784.06 860.131 1785.79 843.633 C 1786.12 840.474 1790.05 838.086 1792.55 836.378 L 1792.09 836.802 C 1799.02 836.882 1804.68 836.609 1811.61 836.179 C 1820.31 840.642 1824.5 845.908 1831.08 853.009 C 1831.37 892.743 1809.29 938.707 1806.64 979.505 C 1805.32 999.826 1805.93 1019.82 1806.92 1040.15 C 1807.34 1048.83 1811.17 1058.55 1810.57 1067.67 C 1810.26 1092.57 1802 1116.3 1799.67 1141.02 C 1799.02 1146.09 1795.83 1157.04 1791.2 1160.03 C 1753.35 1184.36 1706.46 1113.77 1693.34 1093.52 C 1686.94 1103.69 1676.68 1118.65 1665.24 1122.87 C 1662.82 1123.76 1658.54 1124.75 1656.28 1123.27 C 1649.49 1118.83 1640.28 1121.74 1632.91 1117.88 C 1624.49 1113.24 1620.17 1104.22 1611.98 1098.75 L 1610.72 1087.27 C 1593.9 1068.68 1605.29 1067.08 1596.65 1057.43 C 1595.64 1058.92 1594.71 1060.31 1593.92 1061.93 C 1588.32 1073.53 1572.6 1075.65 1568.45 1081.33 C 1566.34 1084.22 1590.38 1129.32 1585.44 1139.89 C 1584.31 1142.32 1583.26 1143.3 1580.69 1144.09 C 1573.15 1146.39 1557.87 1137.86 1551.12 1134.33 C 1543.89 1121.81 1538.43 1111.91 1533.48 1098.22 C 1526.69 1079.43 1498.62 1095.99 1487.48 1101.7 C 1487.64 1102.6 1487.79 1103.5 1487.93 1104.4 C 1489.52 1114.45 1487.56 1148.75 1480.82 1156.78 C 1467.69 1172.41 1449.89 1158.43 1438.24 1148.65 L 1421.39 1153.75 C 1397.41 1144.81 1393.53 1129.62 1377.68 1112.2 C 1366.04 1099.4 1351.74 1087.06 1338.32 1076.18 C 1330.52 1069.86 1313.95 1050.44 1303.35 1055.59 C 1291.9 1071.5 1316.3 1141.2 1283.98 1163.2 L 1282.81 1163.98 C 1274.75 1163.81 1268.67 1162.4 1261.01 1160.27 C 1255.58 1154.89 1249.16 1150.71 1250.41 1142.7 C 1254.19 1118.48 1257.61 1095.81 1257.61 1071.14 C 1257.62 1056.45 1254.53 1041.77 1255.32 1027.46 C 1259.58 1004.94 1255.51 981.944 1256.43 959.46 C 1257.11 942.971 1260.5 925.587 1257.08 908.394 C 1255.62 901.041 1246.1 891.413 1243.26 884.867 C 1240.31 878.038 1240.91 878.913 1234.45 874.243 C 1234.26 862.447 1236.69 855.49 1244.11 846.083 C 1247.69 841.548 1255.93 833.942 1261.75 834.217 C 1264.52 834.348 1265.98 833.818 1268.48 832.649 C 1268.82 831.751 1269.96 828.657 1270.63 828.369 C 1277.45 825.453 1285.81 822.418 1292.52 819.376 z" fill="rgb(2,1,2)" transform="translate(0,0)"></path>
<path d="M 1317.01 874.208 C 1350.09 879.777 1396.15 889.64 1415.34 920.943 C 1425.51 937.531 1395.03 950.651 1383.71 955.866 C 1376.72 955.677 1376.01 957.388 1370.33 961.882 C 1352.41 964.823 1356.69 957.508 1339.19 964.817 C 1335 963.236 1330.73 962.052 1326.44 960.774 C 1300.13 968.971 1303.31 952.856 1303.88 934.398 C 1304.47 915.7 1304.32 895.929 1300.43 877.619 C 1305.64 876.963 1311.81 875.377 1317.01 874.208 z" fill="rgb(130,104,83)" transform="translate(0,0)"></path>
<path d="M 1509.55 1019.34 L 1511.47 1020.44 C 1513.52 1026.49 1516.11 1032.53 1514.5 1039.36 C 1513.85 1042.08 1511.51 1042.25 1508.86 1043.19 C 1506.24 1043.02 1506.41 1043.09 1504.06 1041.93 C 1502.06 1036.54 1507.31 1025.93 1509.55 1019.34 z" fill="rgb(130,104,83)" transform="translate(0,0)"></path>
<path d="M 919.484 834.585 C 931.221 838.594 938.481 835.718 947.645 848.905 C 956.531 861.692 954.656 876.969 952.248 891.352 C 947.943 893.841 943.807 895.455 939.244 897.395 C 932.118 900.217 926.825 897.8 919.098 895.966 C 917.674 894.507 916.277 893.024 914.905 891.516 C 904.54 880.193 906.881 867.045 907.505 852.373 C 916.601 842.381 907.4 843.225 919.484 834.585 z" fill="rgb(2,1,2)" transform="translate(0,0)"></path>
<path d="M 1892.3 960.631 C 1894.95 962.843 1893.88 965.302 1893.46 968.63 C 1888.69 1005.78 1884.35 1055.13 1903.52 1088.59 C 1885.54 1078.88 1886.85 1015.32 1888.22 997.342 C 1889.08 986.041 1891.41 973.294 1892.23 961.835 L 1892.3 960.631 z" fill="rgb(81,69,55)" transform="translate(0,0)"></path>
<metadata><recraft-signature>{"signed_by": "recraft", "signature_b64": "QFmcnbtPU2I1lvmpMJgPPaysnVRtA/zFGyQMpmaO4d51hK6+Rm1gIwasVVhF2TQWVlgv82YdmTjUaDGfNgmUDg==", "signing_algo": "Ed25519", "generation_timestamp": 1776309864, "identifier": "5a0a7046-b572-49bf-bab4-0cbdf5003856"}</recraft-signature></metadata></svg>