<svg xmlns="http://www.w3.org/2000/svg" height="1024" preserveAspectRatio="none" style="display: block;" version="1.1" viewBox="0 0 2048 2048" width="1024">
<defs>
	<linearGradient gradientUnits="userSpaceOnUse" id="Gradient1" x1="989.265" x2="1057.73" y1="-29.078" y2="2076.08">
		<stop class="stop0" offset="0" stop-color="rgb(85,65,44)" stop-opacity="1"></stop>
		<stop class="stop1" offset="1" stop-color="rgb(137,117,104)" stop-opacity="1"></stop>
	</linearGradient>
</defs>
<path d="M 0 0 L 2048 0 L 2048 2048 L 0 2048 L 0 0 z" fill="url(#Gradient1)" transform="translate(0,0)"></path>
<path d="M 928.481 816.089 C 943.116 820.31 950.007 814.236 963.212 813.147 C 1003.76 809.884 1049.83 813.727 1072.83 852.454 C 1080.53 865.974 1083.47 881.86 1078.72 896.909 C 1064.06 943.405 1026.3 962.087 979.927 965.065 C 968.804 965.779 949.708 963.077 954.629 978.024 C 956.97 985.134 952.706 993.961 953.391 1001.39 C 952.835 1016.98 955.44 1032.02 956.038 1047.39 C 956.589 1061.54 949.765 1079.53 959.365 1092.62 C 973.309 1092.07 990.542 1088.87 1003.34 1088.97 C 1016.57 1089.09 1033.78 1091.6 1047.3 1092.3 C 1053.56 1092.62 1061.63 1094.37 1067.81 1094.3 C 1073.85 1094.24 1081.28 1092.7 1087.48 1092.04 C 1101.31 1090.57 1114.21 1089.52 1128.17 1089.43 C 1150.53 1089.29 1172.55 1092.09 1194.63 1092.9 C 1207.82 1093.38 1229.4 1087.31 1243.04 1087.43 C 1262.15 1087.61 1281.48 1087.88 1300.57 1088.96 C 1307.26 1089.34 1319.12 1093.17 1323.96 1092.86 C 1332.97 1092.28 1344.22 1090.44 1353.36 1089.19 C 1368.29 1087.01 1383.31 1085.56 1398.38 1084.82 C 1420.52 1083.74 1435.15 1084.71 1456.37 1089.81 C 1463.72 1091.57 1489.37 1085.2 1498.05 1085.61 C 1513.34 1084.68 1530.52 1083.95 1545.85 1083.77 C 1554.27 1083.61 1562.7 1084.14 1571.04 1085.36 C 1577.66 1086.36 1588.28 1088.74 1594.62 1088.49 C 1617.67 1087.58 1644.15 1080.23 1667.24 1081.35 C 1687.71 1082.35 1709.21 1085.98 1730.03 1085.75 C 1742.54 1085.62 1760.08 1079.74 1771.87 1081.38 C 1777.33 1081.53 1783.86 1079.05 1789.32 1079.36 C 1810.13 1080.53 1832.05 1077.99 1852.62 1079.83 C 1856.48 1078.89 1895.05 1076.9 1899.94 1077.26 C 1901.49 1077.72 1902.1 1077.69 1903.29 1078.58 C 1909.32 1081.43 1917.66 1079.54 1925.31 1080.26 C 1925.73 1084.72 1926.64 1089.43 1925.34 1093.56 C 1919 1098.6 1900.26 1102.23 1892.08 1101.22 L 1890.52 1102.26 C 1882.72 1107.49 1878.97 1112.92 1873.63 1116.9 C 1871.58 1118.43 1865.28 1114.45 1857.99 1119.76 C 1826.03 1121.2 1789.44 1116.79 1757.25 1115.89 C 1736.78 1115.32 1722.82 1120.28 1704.62 1120.88 C 1672.11 1121.96 1637.68 1117.75 1605.07 1117.46 C 1593.85 1117.05 1580.48 1122.45 1570.76 1122.53 C 1534.84 1122.8 1498.98 1119.7 1463.1 1118.87 C 1452 1118.62 1441.2 1122.9 1430.07 1123.6 C 1388.2 1126.21 1345.66 1117.03 1304.26 1122.98 C 1294.25 1124.41 1283.17 1124.22 1273.05 1124.63 C 1248.2 1124.59 1219.87 1121.88 1195.37 1121.47 C 1177 1123.03 1159.34 1125.22 1140.84 1125.71 C 1118.49 1126.71 1096.33 1125.42 1074.01 1124.57 C 1069.3 1124.39 1062.94 1125.23 1058.07 1125.54 C 1034.96 1127.02 1011.68 1128.01 988.536 1128.72 C 980.675 1128.96 970.819 1127.71 963.322 1128.79 C 961.761 1143 965.758 1155.62 963.687 1171.87 C 958.758 1177.87 949.39 1188.94 940.944 1180.41 C 929.346 1168.69 924.167 1145.89 918.747 1130.59 C 904.622 1132.1 876.966 1132.23 862.577 1130.41 C 837.783 1127.28 827.656 1128.53 802.991 1130.45 C 769.908 1133.03 735.302 1132.03 702.212 1130.15 C 697.669 1129.85 691.579 1131.31 686.954 1131.47 C 649.502 1135.38 611.283 1135.07 573.645 1135.05 C 566.639 1135.05 561.32 1133.16 554.965 1130.73 C 523.157 1140.03 489.086 1137.44 456.194 1138.74 C 441.724 1139.31 422.799 1139.28 409.066 1135.46 C 369.954 1147.59 328.243 1147.3 287.854 1150.53 C 284.059 1150.83 279.19 1148.86 274.929 1149.41 C 253.609 1152.15 232.604 1155.77 211.032 1152.66 C 202.892 1151.49 188.949 1143.67 181.177 1139.65 C 172.095 1134.96 135.606 1116.84 141.016 1104.27 C 148.191 1101.81 159.973 1103.12 167.798 1102.58 C 201.403 1100.38 234.552 1104.88 268.147 1104.87 C 283.275 1104.99 301.181 1100.47 316.056 1100.85 C 348.771 1101.68 381.578 1107.06 414.266 1102 C 425.226 1100.31 437.865 1097.61 448.901 1098.65 C 484.09 1101.97 519.065 1101.12 554.367 1101.64 C 567.877 1101.84 584.348 1095.89 598.113 1095.31 C 637.493 1093.93 676.693 1103.23 715.841 1096.11 C 748.194 1090.23 781.899 1096.88 814.325 1097.43 C 841.779 1097.89 870.565 1090.15 898.169 1092.42 C 903.661 1092.86 910.399 1094.55 915.12 1091.25 C 916.932 1075.88 913.467 1038.18 912.415 1021.48 C 911.175 1001.82 911.814 981.265 911.124 962.16 C 891.742 956.405 880.524 947.772 869.166 931.49 L 869.77 930.373 C 872.778 924.698 874.09 914.838 879.122 913.764 C 884.808 912.552 897.569 913.168 903.589 913.28 C 907.783 905.926 906.127 890.063 901.342 883.134 C 896.919 880.14 892.447 884.571 886.391 878.019 C 879.911 871.009 877.777 865.337 875.086 856.517 L 873.654 851.91 C 880.863 838.176 884.993 831.921 901.396 827.059 C 913.09 823.593 917.93 821.493 928.481 816.089 z" fill="rgb(2,1,2)" transform="translate(0,0)"></path>
<path d="M 989.594 857.486 C 992.394 857.507 995.195 857.579 997.993 857.701 C 1009.2 858.232 1029.95 860.796 1037.79 869.393 C 1040.08 877.164 1031.05 885.996 1026.84 892.038 C 1016.09 907.434 1004.99 911.049 987.648 916.624 C 979.509 917.667 963.934 923.512 957.089 920.187 C 948.075 910.263 951.549 888.948 944.095 876.556 C 941.815 872.765 941.184 870.771 942.567 867.636 C 951.809 859.832 977.175 858.372 989.594 857.486 z" fill="rgb(130,104,83)" transform="translate(0,0)"></path>
<path d="M 545.443 766.699 C 560.72 768.738 571.614 777.374 582.138 787.695 C 584.714 795.571 584.831 799.225 584.636 807.161 C 591.899 806.416 599.883 807.258 607.449 807.394 C 634.335 807.874 663.239 808.394 689.682 813.571 C 696.017 814.811 707.417 820.923 714.133 822.309 C 726.936 824.951 740.588 826.32 753.211 829.43 C 787.464 837.87 818.698 858.967 836.774 889.632 C 848.094 909.185 851.18 932.434 845.354 954.263 C 826.181 1026.96 672.201 1054.97 635.496 984.202 C 627.212 968.233 625.122 964.409 622.717 945.994 C 618.528 913.925 630.851 907.732 643.867 882.15 L 644.67 880.601 C 658.302 867.554 653.107 867.532 672.399 855.138 C 657.6 854.73 581.123 849.963 573.85 860.997 C 575.09 869.466 573.399 870.898 568.969 878.23 C 572.642 900.606 565.749 901.294 562.749 922.069 C 561.836 928.392 567.216 940.366 567.243 944.686 C 567.32 956.92 562.667 949.606 569.106 963.585 C 568.665 965.78 566.327 980.365 566.478 981.785 C 566.894 985.715 571.833 990.826 572.343 997.58 C 572.2 997.894 571.017 1000.44 570.923 1000.84 C 568.839 1011.63 576.488 1023.52 577.678 1034.78 C 578.439 1041.99 573.011 1053.4 564.656 1052.01 C 523.81 1045.22 517.318 1004.01 519.611 969.687 C 519.981 964.16 516.827 954.472 517.132 948.359 C 518.672 923.843 519.116 899.349 522.419 874.979 C 522.973 870.875 523.089 868.328 520.729 865.517 C 509.329 861.25 486.543 870.778 474.403 871.583 C 471.102 871.802 447.163 859.561 443.814 857.083 L 441.57 851.055 C 437.978 841.674 440.455 840.756 444.228 831.001 C 462.287 823.054 493.287 817.196 513.457 816.505 C 531.537 815.886 531.878 794.415 536.129 781.782 C 537.763 776.926 542.54 770.552 545.443 766.699 z" fill="rgb(2,1,2)" transform="translate(0,0)"></path>
<path d="M 737.08 881.357 C 765.256 876.678 783.111 886.945 802.397 905.818 C 805.851 921.096 804.875 928.981 796.788 942.827 C 782.451 967.373 760.232 970.782 734.602 976.769 C 718.188 980.234 692.853 985.521 679.067 972.454 C 669.223 963.123 670.929 949.668 671.035 937.25 C 676.416 930.095 677.797 923.354 684.154 915.895 C 699.057 898.409 713.387 884.2 737.08 881.357 z" fill="rgb(130,104,83)" transform="translate(0,0)"></path>
<path d="M 1809.14 782.933 C 1838.15 781.417 1833.11 841.956 1837.6 859.258 C 1847.42 897.037 1839.11 936.091 1807.03 961.17 C 1787.08 976.761 1769.65 966.817 1747.15 963.379 C 1721.13 983.769 1695.1 965.407 1687.95 937.336 C 1685.65 928.316 1685.11 924.788 1685.27 915.299 C 1679.14 914.637 1663.29 912.365 1658.96 917.016 C 1662.68 949.93 1662.4 949.784 1681.14 978.722 L 1681.3 986.643 C 1676.73 990.276 1675.26 991.385 1672.37 996.422 C 1634.31 982.521 1639.48 960.798 1627.36 931.184 C 1615.99 919.129 1591.35 949.082 1578.34 944.587 C 1551.15 935.196 1556.2 912.585 1578.95 899.11 C 1583.16 891.06 1583.84 887.016 1586.25 878.097 C 1593.85 851.006 1603.3 823.432 1610.56 796.54 C 1618.18 792.014 1628.55 788.395 1637.04 792.409 C 1645.12 796.225 1643.85 807.869 1644.94 815.22 C 1646.44 825.373 1647.59 835.625 1648.75 845.794 C 1650.07 857.385 1649.65 870.822 1652.56 882.007 C 1660.25 887.745 1671.63 883.456 1680.74 886.233 C 1682.08 886.892 1685.39 883.962 1685.47 882.929 C 1687.34 856.207 1689.39 828.49 1723.63 851.318 C 1737.14 860.333 1720.19 882.01 1718.9 894.72 C 1717.48 908.776 1718.77 921.755 1719.44 935.634 C 1742.52 911.004 1733.41 896.643 1746.5 865.802 C 1755.29 866.286 1761.32 866.909 1769.92 868.438 C 1774.56 872.154 1776.65 874.498 1780.59 878.798 C 1779.17 889.156 1774.95 921.508 1780.18 929.455 C 1783.37 930.959 1785.2 929.644 1789.36 928.591 C 1809.66 900.225 1815.75 882.768 1807.65 848.111 C 1803.52 830.424 1795.54 798.279 1809.14 782.933 z" fill="rgb(2,1,2)" transform="translate(0,0)"></path>
<path d="M 1260.02 765.246 C 1271.63 763.737 1282.25 776.384 1288.76 784.736 C 1291.14 798.482 1288.38 809.726 1289.72 822.645 C 1293.04 854.733 1299.6 886.077 1304.88 917.736 C 1322.41 923.518 1329.41 926.313 1335.61 944.172 C 1329.26 953.524 1326.11 954.672 1316.01 958.793 C 1320.06 979.127 1332.71 1006.94 1342.5 1025.07 C 1346.67 1029.87 1347.76 1046.65 1344.12 1050.74 C 1314.34 1084.23 1294.01 1005.75 1285.81 984.751 C 1283.01 975.788 1281.05 968.069 1278.83 958.993 C 1267.27 958.981 1252.67 960.822 1240.84 961.438 C 1233.01 961.845 1223.09 962.032 1215.69 963.216 C 1215.06 964.741 1214.42 966.257 1213.75 967.763 C 1209.35 977.655 1196.16 995.929 1185.8 999.533 C 1170.54 1004.84 1157 988.031 1153.61 974.894 C 1149.15 957.621 1162.52 954.618 1169.29 941.956 C 1146.92 902.913 1190.61 919.404 1195.99 910.404 C 1209.4 887.947 1219.82 855.207 1229.35 829.987 C 1236.8 810.288 1236.77 785.357 1249.74 767.757 C 1252.53 766.869 1257.05 765.952 1260.02 765.246 z" fill="rgb(2,1,2)" transform="translate(0,0)"></path>
<path d="M 1256.94 887.507 L 1258.33 888.239 C 1259.64 895.471 1265.97 902.322 1262.44 914.232 C 1259.62 916.942 1261.3 915.923 1256.84 916.65 C 1252.52 916.594 1252.34 917.307 1249.33 915.353 C 1246.98 908.261 1253.88 895.608 1256.94 887.507 z" fill="rgb(119,94,72)" transform="translate(0,0)"></path>
<path d="M 257.313 820.702 C 264.547 820.328 270.642 822.864 276.726 826.629 C 290.35 835.06 299.201 849.107 299.524 865.3 C 299.635 870.905 296.226 876.029 295.263 881.52 C 291.299 904.134 287.687 932.245 292.608 954.855 C 294.72 964.557 298.84 973.602 307.668 978.901 C 316.942 984.468 329.042 983.834 339.237 981.433 C 363.995 975.602 393.491 956.511 404.242 932.729 C 407.414 925.711 406.673 917.381 410.689 911.113 C 412.69 907.991 402.129 869.377 403.233 860.27 C 404.174 852.502 407.229 849.017 413.249 844.471 L 414.436 843.587 C 442.145 849.122 440.958 861.302 456.036 882.107 C 455.833 889.115 455.975 893.629 456.462 900.635 C 458.878 905.591 460.277 929.355 455.657 933.937 C 450.644 937.078 455.235 947.112 454.179 950.275 C 424.23 1038.54 269.908 1066.34 243.707 960.569 C 235.036 925.569 235.786 924.755 241.439 888.767 C 244.868 866.936 234.839 839.223 257.313 820.702 z" fill="rgb(2,1,2)" transform="translate(0,0)"></path>
<path d="M 1464.57 807.383 C 1499.55 803.933 1576.33 832.835 1556 880.954 C 1552.53 889.172 1535.34 906.046 1526.9 908.958 C 1524.24 909.862 1521.61 910.829 1519 911.859 C 1515.19 913.357 1513.97 913.941 1512.45 917.388 C 1516.34 930.399 1561.21 956.202 1575.18 962.534 C 1587.41 968.08 1586.14 973.691 1590.27 985.109 L 1578.5 995.515 C 1558.1 989.17 1555.36 988.451 1537.59 976.475 C 1519.17 964.025 1498.63 945.456 1482.73 929.736 C 1479.82 932.794 1476.96 935.901 1474.15 939.058 C 1474.92 948.954 1478.07 978.408 1472.71 986.908 C 1466.62 994.705 1445.11 982.687 1444.31 975.048 C 1442.1 954.118 1441.62 929.833 1441.14 908.93 C 1435.3 905.31 1422.09 893.99 1425.89 884.427 C 1427.41 880.607 1438.19 878.057 1442.95 875.829 C 1442.86 868.212 1442.66 860.597 1442.36 852.985 C 1440.12 851.784 1437.4 850.472 1435.42 849.034 C 1414.72 833.982 1429.19 816.687 1448.03 810.228 C 1454.07 808.158 1458.6 807.994 1464.57 807.383 z" fill="rgb(2,1,2)" transform="translate(0,0)"></path>
<path d="M 1477.18 841.142 C 1489.09 840.982 1523.88 844.872 1521.6 862.555 C 1520.67 869.818 1511.65 875.086 1506.04 878.846 C 1498.98 883.166 1482.81 892.988 1475.17 888.08 C 1473.59 877.19 1474.72 866.092 1474.71 855.071 C 1474.71 851.053 1473.94 847.035 1474.06 843.614 L 1477.18 841.142 z" fill="rgb(119,94,72)" transform="translate(0,0)"></path>
<path d="M 1105.78 802.182 C 1115.06 803.364 1134.83 821.032 1136.26 830.387 C 1138.32 843.88 1137.08 859.689 1137.09 873.488 L 1137.73 937.622 C 1138.03 953.884 1139.47 969.386 1140.61 985.562 C 1140.86 989.125 1139.03 992.607 1137.2 995.579 C 1132.58 998.942 1132.29 997.318 1127.42 998.958 L 1125.83 999.506 L 1125.89 1001.22 L 1124 1001.48 C 1095.73 990.128 1098.03 975.032 1096.02 947.943 C 1094.16 922.963 1096.59 899.249 1091.13 875.165 C 1089.05 865.991 1095.18 846.806 1087.55 833.961 C 1087.14 833.221 1091.87 813.069 1092.18 809.075 L 1092.3 807.448 C 1097.93 804.478 1099.33 803.643 1105.78 802.182 z" fill="rgb(2,1,2)" transform="translate(0,0)"></path>
<metadata><recraft-signature>{"signed_by": "recraft", "signature_b64": "Yvyd/X3lqCAxSEMOc5JpbY1/3iVNyk40F/inJO0HIhnPyZehwNyMIqwBVppGKwzYp3QMUmImalQu8bxkSClnBA==", "signing_algo": "Ed25519", "generation_timestamp": 1776309882, "identifier": "8f9e8a70-7ae3-4120-b330-cb102440d9d1"}</recraft-signature></metadata></svg>