<svg xmlns="http://www.w3.org/2000/svg" height="1024" preserveAspectRatio="none" style="display: block;" version="1.1" viewBox="0 0 2048 2048" width="1024">
<path d="M 0 0 L 2048 0 L 2048 2048 L 0 2048 L 0 0 z" fill="rgb(254,254,254)" transform="translate(0,0)"></path>
<path d="M 653.548 989.99 C 686.517 978.843 681.766 991.813 710.244 991.503 C 723.407 988.566 729.181 1002.78 738.373 1007.9 C 753.908 1016.57 768.69 1016.07 775.949 1034.7 C 778.113 1040.26 781.782 1046.57 783.827 1053.32 C 789.972 1065.39 779.105 1068.51 776.807 1074.77 C 766.832 1101.99 748.836 1110.55 721.78 1114.97 C 720.255 1115.22 708.345 1118.72 707.525 1118.59 C 691.247 1116.06 683.715 1127.12 668.657 1131.7 C 660.266 1129.15 652.417 1127.82 643.782 1129.91 C 634.808 1132.32 628.902 1133.27 619.645 1134.65 C 610.978 1129.49 604.763 1132.1 593.154 1130.63 L 583.098 1135.11 C 569.071 1125.01 557.1 1127.16 545.213 1121.03 C 526.559 1111.41 497.599 1093.34 497.351 1070.03 C 497.231 1058.82 498.457 1049.79 506.146 1041.54 C 520.08 1026.58 540.795 1017.95 559.014 1009.46 C 561.761 1008.2 572.815 999.335 574.278 999.053 C 584.099 997.162 595.02 998.684 605.669 997.839 C 620.636 986.191 621.639 987.509 640.521 985.369 C 645.982 984.518 648.642 987.063 653.548 989.99 z" fill="rgb(0,0,0)" transform="translate(0,0)"></path>
<path d="M 647.007 1013.37 L 647.812 1013.35 C 664.657 1012.97 672.471 1024.41 683.767 1026.39 C 718.185 1032.41 716.585 1027.13 737.091 1056.11 C 732.817 1065.77 732.521 1068.54 724.214 1075.01 L 708.153 1076.7 C 702.929 1080.28 696.863 1086.97 692.291 1091.67 C 675.37 1093 656.146 1100.43 638.548 1102.97 C 623.954 1103.8 608.264 1100.98 594.327 1096.68 C 582.111 1092.91 581.243 1090.97 568.04 1090.26 C 561.851 1084.45 558.686 1081.44 553.478 1074.85 C 553.417 1073.09 553.124 1067.22 553.81 1065.86 C 561.259 1051.1 595.523 1040.65 603.036 1030.73 C 618.607 1025.47 630.159 1016.51 647.007 1013.37 z" fill="rgb(254,254,254)" transform="translate(0,0)"></path>
<path d="M 386.82 890.902 C 399.908 892.481 419.63 892.812 429.988 900.306 C 442.024 909.013 430.396 916.924 431.466 924.906 C 438.79 935.129 465.675 927.44 475.909 926.457 C 480.973 925.342 495.436 930.773 499.565 930.009 C 520.59 926.114 540.315 927.955 561.462 928.336 C 568.243 928.459 577.543 943.003 580.717 948.323 C 579.227 949.575 570.906 956.579 569.793 956.946 C 559.76 960.72 540.034 955.417 530.502 958.719 C 514.193 964.368 516.408 963.373 500.626 960.886 C 495.214 960.033 476.729 964.112 469.886 964.188 C 458.303 965.045 445.799 963.496 434.49 966.871 C 428.016 968.803 428.909 975.602 431.139 980.153 C 435.073 988.184 426.447 1002.86 422.885 1010.78 C 430.765 1023.78 420.904 1035.9 431.786 1048.12 L 433.192 1068.53 L 427.373 1076.3 C 436.112 1086.85 456.796 1126.69 462.529 1140.53 C 463.864 1143.75 460.566 1143.19 460.369 1147.88 C 463.467 1153.51 463.192 1152.22 461.51 1157.88 C 460.622 1159.57 459.694 1161.25 458.726 1162.9 C 454.856 1169.63 448.353 1174.44 440.785 1176.17 C 419.277 1181.2 408.374 1167.88 393.266 1158.28 C 396.503 1147.91 396.821 1142.26 397.621 1131.52 C 390.787 1121.37 387.378 1119.06 380.368 1111.86 C 373.977 1105.29 378.777 1078.75 378.949 1070.31 C 377.504 1064.38 372.917 1061.2 372.685 1054.7 C 372.202 1041.13 369.525 1033.47 375.875 1020.59 C 376.644 1019.04 372.691 1016.69 372.876 1012.9 C 373.308 1004.06 374.771 995.658 375.236 986.818 C 373.2 984.004 370.809 980.132 367.414 978.424 C 359.259 974.322 354.945 979.457 350.752 980.072 C 330.278 983.077 306.324 985.905 285.897 983.509 C 282.493 982.734 278.596 979.258 275.545 978.097 C 255.285 970.387 252.029 972.586 247.59 950.785 L 255.713 944.916 C 266.161 944.008 268.109 944.275 277.85 947.843 C 289.826 943.467 308.63 943.602 321.233 942.38 C 336.289 940.919 350.23 939.331 365.417 938.838 L 373.528 930.838 C 373.976 925.91 375.31 920.603 376.366 915.724 L 373.879 907.147 C 376.294 896.845 377.04 895.029 386.82 890.902 z" fill="rgb(0,0,0)" transform="translate(0,0)"></path>
<path d="M 917.423 979.499 C 921.813 978.055 928.945 981.156 933.615 982.68 L 946.962 979.123 C 948.092 980.078 952.352 983.743 953.466 983.777 C 969.95 984.28 991.362 977.998 1006.01 988.392 C 1015.2 994.912 1028.18 1014.63 1030.55 1026.1 C 1031.72 1031.72 1026.85 1041.37 1022.89 1045.23 C 994.606 1077.12 973.029 1073.05 934.296 1077.9 C 927.587 1078.74 914.602 1083.01 910.872 1082.87 C 895.144 1082.27 884.139 1081.82 868.07 1083.13 C 866.185 1087.8 863.61 1091.55 860.951 1095.82 C 861.097 1103.52 866.828 1102.97 871.626 1110.65 C 868.459 1121.52 868.589 1130.29 877.003 1138.34 C 905.904 1168.48 885.13 1177.96 855.392 1173.69 C 845.294 1172.24 826.564 1172.09 821.128 1159.83 C 818.676 1154.31 817.457 1143.16 816.502 1137.23 C 816.465 1136.92 819.944 1130.02 820.391 1129.14 C 817.699 1121.41 817.493 1119.67 816.722 1111.45 C 800.865 1094.88 799.958 1068.4 806.102 1047.48 C 809.022 1037.53 809.725 1029.6 814.558 1020.49 C 808.057 1011.08 805.008 1007.97 802.566 996.815 C 804.915 994.446 811.562 988.257 814.58 987.684 C 828.299 985.083 844.646 987.018 858.707 985.706 C 872.344 984.435 884.92 982.847 898.416 981.368 C 905.751 980.563 910.556 982.482 917.423 979.499 z" fill="rgb(0,0,0)" transform="translate(0,0)"></path>
<path d="M 952.803 1007.49 C 955.365 1005.64 981.497 1008.74 981.062 1017.61 C 974.529 1023.11 957.663 1032.38 948.311 1039.27 C 932.739 1041.29 910.424 1043.08 894.979 1042.92 C 884.383 1039.14 870.963 1042.94 864.748 1032.42 C 864.311 1023.31 887.794 1015.27 895.18 1014.82 C 915.18 1013.61 932.918 1008.51 952.803 1007.49 z" fill="rgb(254,254,254)" transform="translate(0,0)"></path>
<path d="M 1955.23 927.447 C 1963.05 927.176 1966.91 935.687 1976.68 940.665 C 1977.98 944.313 1980.08 950.216 1981.36 953.715 C 1981.62 954.434 1978.53 961.876 1978.75 964.358 C 1979.29 970.488 1984.33 980.026 1982.82 985.991 C 1981.39 991.646 1975.88 1000.1 1974.98 1005.99 C 1974.22 1010.97 1974.89 1022.19 1974.81 1027.62 C 1976.05 1029.32 1977.09 1030.76 1977.95 1031.95 C 1977.41 1037.48 1972.14 1035.01 1970.7 1040.98 C 1978.82 1054.72 1964.21 1057.75 1977.51 1067.34 C 1973.07 1074.26 1966.98 1080.39 1965.94 1088.89 C 1965.31 1093.96 1963.5 1097.6 1967.71 1101.59 C 1969.71 1103.48 1966.81 1107.34 1966.6 1109.57 C 1964.3 1115.25 1964.84 1118.25 1965.16 1124.39 C 1960.3 1130.4 1958.15 1133.51 1950.94 1137.11 C 1941.4 1143.78 1909.52 1133.73 1902.46 1126.24 C 1877.83 1100.12 1877.04 1114.3 1854.04 1132.45 C 1851.68 1134.31 1847.81 1136.34 1844.53 1137.85 L 1843.27 1138.43 C 1809.63 1130.41 1819.5 1118.48 1799.65 1100.42 L 1798.23 1099.14 C 1797.06 1093.65 1796.18 1086.9 1795.31 1081.24 C 1783.21 1070.29 1781.72 1046.64 1779.5 1032 C 1779.16 1029.77 1776.05 1022.91 1774.97 1020.52 C 1776.18 1015.8 1777.97 1011.52 1779.73 1006.98 C 1784.86 1005.21 1794.18 1003.39 1799.79 1002.13 C 1810.9 1005.33 1822.81 1010.63 1833.59 1015.08 C 1836.45 1024.99 1838.34 1036.84 1840.25 1047.1 C 1859.19 1045.1 1852.89 1044.52 1866.09 1031.78 C 1877.85 1020.44 1887.88 1031.17 1894.32 1041.28 C 1895.57 1043.25 1900.73 1046.35 1903.49 1050.36 C 1903.19 1052.33 1903.17 1052.31 1902.19 1053.92 C 1904.74 1060.13 1907.45 1066.28 1910.32 1072.35 L 1921.58 1072.08 L 1926.6 1065.7 C 1926.63 1063.55 1927.35 1059.36 1927.24 1058 C 1926.85 1053.46 1923.91 1036.33 1926.05 1032.88 C 1933.75 1020.42 1934.42 1019.58 1927.52 1006 C 1927.04 1005.06 1928.92 995.985 1929.23 993.445 C 1931.65 973.351 1926.98 958.105 1918.31 940.244 C 1928.99 931.798 1941.97 928.713 1955.23 927.447 z" fill="rgb(0,0,0)" transform="translate(0,0)"></path>
<path d="M 1234.29 946.796 C 1245.05 947.339 1263.03 957.274 1270.19 965.918 C 1284.37 983.039 1272.18 982.599 1271.9 993.65 C 1273.04 1013.12 1283.24 1043.41 1294.39 1058.91 C 1296.21 1061.43 1311.63 1067.26 1317.42 1073.29 C 1321.61 1090.41 1326.2 1084.62 1320.49 1099.25 C 1325.25 1112.06 1333.93 1123.62 1340.48 1135.44 C 1366.31 1181.96 1327.01 1169.79 1302.35 1169.82 L 1290.26 1160.4 C 1293.02 1135.02 1305.5 1144.22 1284.34 1118.15 C 1282.06 1114.49 1280.92 1111.88 1277.39 1109.53 C 1258.57 1107.54 1214.82 1120.19 1194.32 1121.61 C 1188.51 1122.02 1178.4 1130.22 1171.78 1133.24 L 1170.47 1133.83 C 1155.34 1128.51 1139.81 1116.67 1127.67 1106.5 C 1125.93 1101.41 1125 1098.03 1122.29 1093.34 L 1125.91 1082.09 L 1126.87 1081.76 L 1128.47 1081.24 C 1139.57 1077.5 1152.34 1076.39 1161.27 1073.1 L 1170.03 1069.95 C 1173.73 1059.84 1179.34 1048.48 1185.17 1039.37 C 1188.65 1033.94 1192.84 1028.21 1196.09 1022.68 C 1197.27 1020.68 1196.15 1018.2 1197.82 1014.69 C 1211.58 985.654 1209.99 969.303 1234.29 946.796 z" fill="rgb(0,0,0)" transform="translate(0,0)"></path>
<path d="M 1229.96 1041.81 C 1240.43 1041.73 1248.69 1053.21 1254.08 1060.92 C 1249.51 1063.06 1244.99 1064.63 1240.26 1066.37 C 1233.67 1066.18 1229.71 1069.53 1222.14 1064.63 C 1212.5 1058.39 1224.84 1046.35 1229.96 1041.81 z" fill="rgb(254,254,254)" transform="translate(0,0)"></path>
<path d="M 1669.91 953.933 C 1683.24 953.122 1704.03 959.312 1713.43 969.135 C 1720.05 976.038 1712.76 984.606 1713.13 989.451 C 1714.92 1012.92 1721.33 1036.56 1733.38 1056.85 C 1735.13 1059.75 1749.36 1067.08 1752.54 1069.48 C 1755.62 1071.81 1758.63 1075.29 1761.02 1077.85 C 1760.48 1085.7 1762.78 1087.06 1764.18 1094.01 C 1766.63 1106.24 1764.48 1107.75 1773 1116.97 L 1773.19 1125.67 C 1777.29 1131.62 1781.69 1137.5 1785.85 1143.51 C 1786.1 1147.38 1787.18 1156.52 1784.42 1158.8 C 1773.27 1168.03 1747.84 1164.72 1737.06 1156.52 C 1731.52 1152.31 1736.6 1138.89 1735.15 1134.72 C 1731.8 1125.08 1722.29 1111.84 1714.53 1105.65 C 1711.87 1105.05 1709.59 1105.98 1706.87 1106.68 C 1696.14 1107.59 1694.92 1110.38 1685.47 1112.91 C 1679.03 1114.64 1670.18 1114.44 1663.32 1116.38 C 1645.11 1121.55 1628.21 1129.7 1610.7 1136.1 C 1585.93 1125.74 1576.27 1120.2 1560.5 1099.19 C 1562.6 1092.03 1559.4 1082.83 1565.58 1079.36 C 1574.38 1074.42 1589.42 1078.57 1598.96 1080.41 C 1621.19 1069.18 1615.03 1071.24 1621.93 1049.19 C 1625.65 1037.31 1643.12 1019.8 1642.25 1007.76 C 1641.59 998.713 1656.05 981.444 1653.1 974.277 C 1653.5 972.136 1667.08 957.275 1669.91 953.933 z" fill="rgb(0,0,0)" transform="translate(0,0)"></path>
<path d="M 1680.06 1042.71 C 1685.9 1045.38 1688.99 1054.71 1691.5 1060.57 C 1685.62 1065.97 1682.82 1067.18 1675.55 1069.68 C 1670.76 1068.94 1667.86 1068.62 1664.63 1064.92 C 1662.13 1056.14 1673 1046.31 1680.06 1042.71 z" fill="rgb(254,254,254)" transform="translate(0,0)"></path>
<path d="M 1530.66 971.174 C 1550.69 972.281 1568.54 969.111 1587.36 975.891 C 1598.61 979.943 1608.03 980.682 1615.02 991.599 C 1611.37 996.635 1612.34 1001.6 1612.09 1008.48 C 1607.7 1009.97 1603.08 1011.06 1598.58 1012.22 C 1564.75 999.694 1545.87 1003.79 1514.11 1017.03 C 1500.2 1022.82 1495.58 1020.61 1484.84 1033.81 C 1486.86 1043.25 1491.85 1056.06 1497.61 1063.82 C 1482.87 1082.41 1495.15 1085.45 1505.57 1102.52 L 1506.28 1103.7 C 1495.51 1115.88 1497.87 1121.99 1508.17 1134.13 C 1509.35 1135.73 1509.26 1138.6 1509.89 1140.64 C 1512.73 1149.91 1509.11 1153.65 1502.95 1159.35 C 1473.22 1161.53 1454.14 1160.49 1433.8 1135.83 C 1434.64 1120.08 1430.54 1111.09 1425.2 1096.68 C 1424.73 1095.4 1426.82 1091.51 1427.12 1090.16 C 1428.85 1082.09 1420.45 1074.48 1422.12 1065.72 C 1424.45 1053.48 1432.03 1047.87 1435.3 1035.11 C 1431.1 1027.4 1426.51 1015.8 1425.14 1007.16 C 1421.5 984.227 1437.04 983.384 1454.49 981.642 C 1455.16 981.976 1459.2 983.939 1459.84 983.92 C 1473.61 983.503 1491.27 976.22 1505.25 974.467 C 1515.62 973.166 1523.1 976.722 1530.66 971.174 z" fill="rgb(0,0,0)" transform="translate(0,0)"></path>
<path d="M 254.389 1002.25 C 275.412 1004.29 287.359 1032.79 296.631 1049.25 L 295.91 1069.82 C 287.457 1084.11 276.731 1106.85 263.658 1116.48 C 251.777 1125.13 235.933 1133.89 221.113 1134.17 C 208.479 1134.41 200.348 1133.25 189.471 1138.54 C 188.857 1138.84 165.58 1135.86 162.697 1135.48 L 153.362 1140.47 C 149.085 1137.51 144.345 1133.65 139.921 1131.69 C 121.912 1123.71 101.762 1122.3 90.8273 1103.21 C 84.5563 1092.26 79.5372 1079.8 73.4327 1068.24 C 77.3878 1058.35 79.6117 1052.54 78.4901 1041.54 C 76.3909 1020.95 78.6462 1017.85 94.7885 1006.65 C 111.625 1017.4 121.065 1012.74 137.737 1030.43 C 136.66 1038.73 133.677 1046.73 133.344 1055 C 138.828 1062.31 129.177 1065.7 131.265 1076.17 C 135.615 1099.71 167.174 1097.61 184.974 1098.89 C 205.515 1100.37 227.894 1102.11 240.304 1081.82 C 244.051 1076.35 250.792 1061.2 246.672 1055.34 C 233.896 1037.18 222.927 1007.1 254.389 1002.25 z" fill="rgb(0,0,0)" transform="translate(0,0)"></path>
<path d="M 1059.5 1002.13 C 1075.2 1001.81 1094.86 1014.28 1102.11 1028.36 C 1105.94 1035.83 1102.47 1044.67 1099.3 1051.61 C 1093.1 1065.19 1099.59 1079.33 1102.95 1092.67 C 1106.15 1108.2 1107.02 1112.06 1113.05 1126.63 C 1111.82 1130.78 1110.32 1134.31 1108.7 1138.31 C 1103.91 1139.39 1099.88 1140.53 1095.2 1141.9 C 1087.19 1146.25 1060.12 1130.25 1055.24 1122.46 C 1054.9 1118.99 1057.15 1114.6 1058.5 1111.19 C 1047.64 1093.81 1050.05 1075.97 1049.21 1056.51 C 1049.21 1056.34 1051.9 1052.54 1051.9 1052.57 C 1054.05 1041.49 1042.83 1026.73 1045.66 1014.9 C 1047.13 1010.92 1055.87 1004.14 1059.5 1002.13 z" fill="rgb(0,0,0)" transform="translate(0,0)"></path>
<metadata><recraft-signature>{"signed_by": "recraft", "signature_b64": "J3jZXG2ogdAhmcRijbDVz22Z/eizN9lewHO8J5cCeM7dm0cd0FteYTLVYtrALhRePqeZ8zSbAxXZ8HGVnzKpDA==", "signing_algo": "Ed25519", "generation_timestamp": 1776310274, "identifier": "2d6be188-4ce4-4895-908d-993659cc4f55"}</recraft-signature></metadata></svg>