<svg xmlns="http://www.w3.org/2000/svg" height="1024" preserveAspectRatio="none" style="display: block;" version="1.1" viewBox="0 0 2048 2048" width="1024">
<path d="M 0 0 L 2048 0 L 2048 2048 L 0 2048 L 0 0 z" fill="rgb(254,254,254)" transform="translate(0,0)"></path>
<path d="M 167.52 871.938 C 164.506 865.355 169.194 843.586 172.453 836.345 L 173.664 835.355 L 174.569 836.33 C 173.726 838.794 173.673 839.267 172.48 841.547 L 173.496 840.887 C 178.233 837.847 181.797 839.94 187.01 841.809 C 190.786 840.348 193.003 838.634 196.438 838.971 C 200.234 847.613 201.7 843.373 207.927 849.253 C 211.848 852.956 221.289 869.774 222.849 874.726 C 220.774 875.577 221.502 875.349 219.221 875.517 L 219.789 877.256 L 223.181 878.879 L 223.143 880.145 L 217.004 881.322 L 216.025 882.996 C 216.965 885.168 217.584 886.445 218.723 888.518 C 217.886 891.48 214.379 900.761 214.944 902.918 C 215.811 906.234 216.998 907.811 215.564 911.31 L 209.637 916.965 C 210.527 922.581 216.346 922.188 215.407 927.449 L 212.223 929.989 C 213.244 933.734 214.517 935.917 213.594 939.221 C 211.418 940.088 210.778 940.316 208.503 940.84 L 207.735 942.575 L 208.656 943.554 C 211.315 942.546 211.546 942.291 214.289 941.811 C 213.371 944.959 213.653 943.957 211.549 946.776 C 212.44 951.099 212.102 951.497 210.965 955.669 L 209.281 962.029 C 210.624 963.974 209.776 963.1 211.912 964.565 L 211.394 966.147 L 207.516 967.664 C 205.597 973.163 211.341 978.924 207.094 984.599 L 203.074 985.723 C 203.977 989.029 205.833 988.962 206.28 990.303 C 208.048 995.603 205.84 1016.05 208.833 1019.19 C 214.252 1024.86 209.161 1023.19 208.433 1030.87 C 218.2 1041.58 211.898 1043.05 215.704 1049.04 C 227.596 1067.76 241.374 1054.2 254.554 1046.72 L 253.694 1043.97 C 255.327 1041.97 256.105 1042.08 258.643 1041.19 C 263.208 1033.13 270.094 1034.21 266.738 1026.77 C 270.064 1022.87 270.438 1026.04 271.389 1024.16 C 275.314 1016.42 279.187 1003.09 283.912 996.612 C 284.598 995.672 287.439 995.951 289.837 991.72 C 290.336 987.825 290.641 984.754 291.629 980.962 C 293.934 980.476 292.785 980.418 295.073 981.182 C 297.661 975.193 289.538 978.877 298.688 973.397 C 298.417 970.76 296.308 969.062 294.425 966.957 L 294.436 965.099 L 298.35 964.284 C 304.142 948.132 313.012 907.901 307.104 890.502 C 305.37 885.394 288.554 874.763 285.776 866.436 C 282.631 857.006 288.121 852.419 285.149 844.535 L 286.814 843.166 L 292.027 843.712 C 293.735 840.844 289.903 838.929 297.663 838.537 C 299.803 840.31 299.833 840.298 301.437 842.552 C 305.242 843.082 306.265 843.23 309.745 844.912 C 310.401 842.143 310.11 841.393 309.793 838.576 C 314.671 837.036 316.448 842.602 322.624 843.525 L 323.58 840.328 C 326.943 839.359 327.664 842.347 329.062 845.08 L 331.089 845.629 C 333.37 844.28 333.249 844.37 334.934 842.319 C 344.676 840.701 354.077 840.883 362.568 845.57 L 362.625 842.767 L 364.129 842.666 L 367.605 845.739 C 371.985 840.654 382.872 844.631 389.322 845.922 C 390.967 844.396 390.264 845.326 391.304 843.041 L 392.694 843.398 C 392.889 845.485 393.055 847.218 393.39 849.286 L 394.674 849.382 C 399.145 839.601 422.163 844.405 430.452 846.188 C 432.322 846.591 430.947 843.187 435.918 842.218 C 438.639 843.984 439.373 844.675 441.747 846.774 L 444.441 846.877 C 444.056 844.381 444.244 845.303 442.64 843.009 L 444.025 842.28 L 445.707 843.298 L 446.474 847.045 L 448.016 847.755 L 448.79 846.952 L 448.173 843.671 C 449.875 841.466 448.783 842.404 452.561 841.825 L 453.651 842.829 L 452.297 846.78 L 453.72 847.615 C 457.7 845.747 461.3 843.631 465.598 843.189 C 466.901 844.004 468.102 844.762 469.543 845.303 L 470.5 843.525 L 472.007 843.995 L 472.631 846.734 C 475.797 846.309 477.683 843.964 480.187 841.724 C 487.347 840.76 494.528 839.959 501.724 839.321 L 503.499 835.217 L 504.525 839.287 L 513.249 839.942 L 514.243 839.038 C 518.587 835.144 519.653 834.822 525.948 835.279 C 537.002 836.08 543.319 825.613 553.485 830.001 C 556.583 829.606 556.782 828.991 559.132 826.904 C 573.956 829.611 580.82 837.268 591.613 847.175 C 592.23 854.144 593.158 861.634 592.619 868.542 C 589.291 871.715 570.237 878.689 565.349 880.3 C 565.323 884.167 565.983 883.71 564.013 886.024 C 563.016 885.346 562.019 884.667 561.022 883.989 C 557.736 885.672 556.931 886.871 554.453 889.535 L 548.385 888.103 L 549.229 888.631 C 545.974 887.971 542.553 886.915 539.438 887.383 C 539.861 890.044 539.792 889.603 540.708 892.131 L 534.018 890.04 C 532.384 892.862 535.955 893.392 533.51 896.151 C 528.956 892.395 533.681 892.477 528.978 890.584 L 527.04 891.048 C 526.56 893.363 527.26 893.341 528.916 896.08 L 527.533 896.937 C 524.219 895.296 524.038 894.842 521.45 892.304 L 520.316 893.029 L 519.892 896.445 L 518.115 896.758 C 516.372 894.446 517.084 895.709 517.065 892.018 L 515.588 891.955 C 515.167 894.406 515.471 894.972 515.891 897.468 L 514.404 898.7 L 512.763 898.359 L 510.782 895.316 C 507.093 895.296 508.602 894.717 505.91 896.462 C 505.064 898.216 504.821 899.763 502.702 900.234 C 498.962 901.066 487.403 902.154 484.068 901.491 L 484.543 898.732 C 475.835 898.361 475.084 905.892 467.36 904.851 C 460.699 903.953 457.016 899.101 451.943 907.459 C 450.482 923.535 452.682 939.272 452.084 955.38 C 452.015 957.235 447.178 961.414 445.741 962.673 L 445.803 964.107 C 448.414 963.521 447.159 963.901 449.572 962.986 L 450.625 964.162 C 449.13 968.395 447.217 970.287 450.803 973.759 L 450.038 974.799 C 445.461 974.941 445.146 974.128 442.42 976.402 C 443.543 980.389 450.109 988.102 451.417 991.071 C 452.852 994.329 443.243 999.606 449.159 1003.08 C 447.665 1004 447.275 1003.83 446.89 1004.93 L 449.655 1007.03 L 448.619 1008.99 C 445.399 1009.51 446.098 1009.13 442.49 1007.31 L 442.273 1008.48 C 444.697 1010.82 448.938 1014.01 449.661 1016.67 L 447.708 1016.88 C 445.665 1017.12 445.291 1017.1 443.489 1018.18 L 443.494 1019.86 L 446.765 1022.71 C 442.363 1024.83 433.863 1027.36 431.27 1030.08 L 431.368 1031.81 L 432.52 1032.44 L 436.52 1029.77 C 438.505 1031.09 438.489 1031.25 440.011 1033.14 L 441.642 1032.72 L 443.542 1028.56 C 446.301 1027.58 447.523 1027.98 450.405 1028.33 L 450.946 1029.39 C 448.554 1029.99 447.729 1030.04 445.254 1030.26 C 444.965 1034.36 448.286 1033.84 447.719 1036.24 L 443.398 1035.59 L 442.746 1036.48 L 443.616 1037.83 L 446.619 1038.46 L 447.035 1040.04 L 444.048 1042.09 C 444.837 1047.45 447.118 1044.36 447.896 1051.03 L 447.034 1051.95 C 444.902 1050.47 443.23 1049.36 440.989 1048 L 439.569 1048.85 C 439.141 1051.87 438.732 1052.66 439.726 1055.53 C 442.554 1056.84 442.511 1056.02 446.53 1054.69 C 447.083 1057.65 446.983 1056.16 445.49 1059.57 C 439.086 1062.09 435.02 1053.56 431.268 1053.77 C 431.587 1054.7 442.858 1069.53 445.285 1074.58 L 444.642 1076.82 C 442.034 1078.22 441.12 1078.13 438.197 1078.56 C 438.376 1082.43 441.771 1081.56 442.629 1085.89 C 438.296 1085.93 440.232 1083.18 434.842 1083.37 L 439.102 1086.46 L 439.298 1088.46 C 433.39 1088.82 433.966 1085.53 430.379 1087.91 C 429.444 1092.13 429.399 1090.06 430.701 1094.33 C 434.07 1097.33 434.262 1096.35 438.436 1094.38 C 446.147 1096.01 440.175 1112.35 440.612 1117.41 C 441.127 1123.39 444.949 1130.32 444.399 1136.26 C 442.521 1136.86 440.633 1137.44 438.736 1137.98 C 436.846 1142.33 440.075 1144.45 442.952 1147.67 L 444.055 1148.92 L 444.725 1149.67 C 442.334 1149.46 443.471 1149.73 441.307 1148.91 C 434.58 1158.18 444.344 1161.65 427.034 1171.69 C 425.582 1175.36 426.198 1175.79 423.547 1177.12 L 421.5 1176.03 C 419.899 1170.09 423.536 1168.49 421.906 1163.44 C 418.638 1163.07 415.614 1163.75 412.341 1164.23 L 411.916 1167.36 L 410.217 1167.26 C 408.83 1165.44 408.317 1164.62 407.167 1162.64 C 401.248 1163.29 403.609 1166.68 399.867 1165.07 C 398.046 1161.19 398.054 1157.86 395.907 1156.35 L 394.693 1157.58 C 392.993 1159.28 393.702 1158.62 391.923 1160.11 C 387.231 1156.06 395.37 1142.3 392.616 1138.15 C 390.803 1135.42 390.002 1137.03 388.831 1132.3 C 390.809 1126.17 395.45 1129.33 395.177 1125.3 C 394.95 1121.97 390.968 1118.54 393.046 1114.77 L 395.943 1113.45 L 394.93 1112.42 C 392.547 1109.98 390.884 1108.9 390.307 1105.65 C 393.067 1101.73 395.546 1103.85 398.19 1099.35 C 397.743 1091.17 389.904 1092.6 398.96 1087.39 L 397.828 1087.13 C 395.196 1086.5 393.567 1086.48 391.822 1084.54 L 392.173 1083.16 C 395.122 1083.79 394.315 1083.62 397.086 1085.1 L 398.772 1084.31 L 398.784 1082.85 L 395.513 1080.96 C 394.644 1077.42 395.394 1075.03 396.01 1071.43 C 398.45 1069.96 398.974 1069.86 401.707 1068.93 C 402.641 1065.03 400.043 1064.06 397.004 1061.9 C 399.102 1055.85 402.496 1062.23 399.282 1051.94 L 399.991 1051.22 L 401.702 1051.43 C 402.516 1045.03 395.842 1046.68 401.551 1040.4 C 398.031 1038.23 398.363 1039.18 397.075 1036.05 C 400.444 1032.62 401.128 1033.35 401.214 1030.01 L 398.495 1026.45 C 399.072 1024.2 402.873 1016.08 402.753 1015.37 C 401.716 1009.25 395.399 1007.29 402.827 1001.4 C 402.157 997.765 401.393 997.115 402.502 994.188 L 405.527 993.383 C 402.894 991.069 401.944 990.568 400.956 987.012 C 402.936 981.801 409.061 983.478 408.662 980.34 C 404.469 981.268 406.055 981.786 403.286 980.088 C 400.382 963.077 409.132 936.559 408.153 932.517 L 404.932 930.482 C 405.705 920.82 408.465 915.869 404.849 906.402 C 399.579 901.343 378.343 909.753 364.586 899.186 C 361.945 901.797 357.91 906.461 355.491 908.529 C 364.945 921.708 346.534 926.948 354.929 933.872 C 355.069 941.096 346.204 943.961 347.499 952.942 L 348.511 953.545 C 349.668 954.245 350.517 954.809 351.617 955.572 C 351.611 963.264 347.714 964.981 346.796 970.528 C 344.91 981.927 346.477 988.224 342.397 999.531 L 338.164 1002.23 L 338.491 1003.64 L 341.382 1004.7 L 341.279 1005.78 L 339.162 1006.95 C 338.89 1009.83 339.169 1010.1 339.897 1012.97 C 338.003 1015.58 330.466 1024.79 330.681 1026.82 L 334.718 1028.68 L 334.678 1030.83 C 332.139 1031.99 333.164 1031.77 330.304 1031.48 L 329.839 1032.87 L 331.827 1036.35 C 330.839 1039.84 329.193 1041.32 326.878 1044.1 C 324.932 1043.54 325.844 1043.88 324.132 1043.1 C 322.658 1046.83 326.365 1048.32 324.433 1052.13 C 322.855 1055.24 322.498 1055.13 321.768 1058.64 L 320.305 1059.53 C 317.301 1058.36 317.084 1057.62 314.773 1058.43 C 315.456 1061.48 315.404 1061.27 317.405 1063.69 C 315.766 1070.57 311.176 1070.68 311.085 1077.65 L 309.544 1078.85 C 306.159 1076.61 304.479 1073.5 301.911 1073.08 C 301.727 1075.67 301.774 1076.33 302.01 1078.93 L 290.528 1083.2 L 289.912 1084.65 C 288.602 1087.67 288.521 1088.91 286.144 1090.47 C 284.571 1089.49 283.014 1088.48 281.474 1087.45 L 280.217 1088.41 C 283.413 1092.86 293.354 1091.27 294.056 1097.41 C 291.094 1100.66 292.777 1099.91 289.288 1100.87 C 287.729 1098.59 287.507 1098.03 286.373 1095.49 L 285.542 1095.42 L 285.347 1096.66 C 284.69 1100.66 284.814 1101.52 282.63 1104.71 C 278.899 1106.15 278.151 1104.71 274.553 1102.48 C 273.075 1104.23 273.791 1103.29 272.422 1105.31 L 271.423 1102.59 C 268.059 1105.21 266.244 1106.91 262.39 1108.63 C 261.388 1106.21 261.688 1107.04 261.543 1104.3 C 253.699 1104.89 251.291 1108.66 243.519 1105.22 C 237.363 1102.5 236.384 1102.59 230.977 1105.9 L 228.543 1105.45 L 228.541 1104.36 L 232.445 1102.41 L 232.421 1101.09 C 229.857 1101.27 229.438 1101.57 226.979 1102.45 C 225.131 1100.7 225.088 1100 224.011 1097.63 L 222.834 1097.43 C 219.655 1100.36 220.501 1100.55 217.121 1100.81 L 215.066 1099.08 C 216.101 1097.61 217.085 1096.2 218.071 1094.69 L 216.831 1093.34 C 213.123 1093.51 208.839 1095.08 205.209 1096.18 C 201.079 1090.7 207.495 1088.68 198.208 1085.53 L 196.66 1085.91 L 196.166 1088.11 C 192.799 1087.24 190.758 1081.8 189.207 1078.69 L 188.053 1078.86 L 186.36 1081.28 L 184.944 1081.18 L 184.476 1080.01 L 185.843 1077.1 C 183.516 1071.69 178.313 1071.85 175.377 1067.87 C 172.173 1063.53 178.776 1067.38 174.034 1062.04 C 172.521 1062.54 171.648 1062.74 170.015 1062.93 C 167.667 1057.51 173.079 1061.39 168.541 1057.04 C 161.568 1055.72 163.033 1051.66 158.832 1045.95 C 158.61 1043.33 158.308 1041.36 158.667 1038.74 C 161.346 1038.14 160.123 1038.37 163.407 1039.63 L 163.798 1038.03 C 161.483 1036.29 160.257 1035.38 158.125 1033.36 C 162.524 1031.89 161.136 1033.22 163.254 1030.13 L 162.772 1027.98 C 160.557 1027.65 159.542 1027.46 157.546 1026.45 C 156.267 1022.76 157.343 1017.71 157.814 1013.66 L 158.376 1012.96 L 161.807 1014.94 C 159.307 1009.78 154.694 1013.13 156.482 1006.39 L 161.732 1010.08 C 162.226 1004.52 153.263 995.347 156.522 988.978 C 164.568 989.686 158.378 995.028 166.269 989.151 L 166.491 987.731 C 162.619 985.839 162.033 986.425 160.668 983.438 L 161.051 982.412 C 165.115 982.816 164.603 983.383 167.77 981.907 L 168.716 979.391 C 165.747 974.684 160.973 973.693 157.827 969.001 L 158.553 967.254 L 161.293 966.811 C 161.103 964.443 161.23 965.174 160.286 962.987 C 157.93 957.526 161.994 950.525 159.41 945.007 C 159.344 944.402 159.279 943.797 159.214 943.192 L 160.388 943.136 L 162.991 946.833 C 165.806 945.476 167.16 945.319 168.88 943.04 C 167.49 940.592 166.749 938.713 164.461 937.108 L 160.825 939.423 L 160.656 938.348 C 166.24 932.597 169.647 930.396 170.453 922.535 L 169.585 921.102 L 165.726 922.405 C 163.142 920.786 164.18 921.881 162.926 918.668 L 166.176 910.526 L 164.213 908.455 L 164.644 906.44 C 167.027 905.783 168.083 906.336 170.531 906.928 C 174.972 901.452 159.793 897.38 168.76 884.619 C 172.161 881.411 171.696 881.83 172.359 877.946 C 170.447 873.455 171.489 875.04 167.52 871.938 z" fill="rgb(0,0,0)" transform="translate(0,0)"></path>
<path d="M 1315.39 829.903 L 1318.98 830.104 C 1321.53 832.141 1333.03 839.665 1335.69 840.694 C 1338.43 839.128 1335.17 838.092 1336.97 833.325 L 1338.24 833.616 C 1339.23 837.411 1339.39 838.067 1341.17 841.512 C 1344.8 843.583 1344.78 842.807 1349.69 842.744 L 1350.25 840.634 L 1351.18 840.471 C 1351.6 843.198 1351.17 842.593 1352.46 844.773 C 1353.81 843.127 1354.85 841.983 1356.32 840.442 C 1358.57 842.27 1360.19 844.476 1362.04 846.725 C 1365.99 848.072 1365.62 847.346 1370.46 846.24 C 1375.79 850.414 1372.47 852.443 1378.34 857.665 C 1380.15 857.537 1379.53 857.626 1381.15 857.36 L 1382.2 857.178 C 1386.08 861.147 1382.33 860.55 1384.59 866.031 C 1385.9 864.884 1386.75 863.89 1387.84 862.55 L 1390.46 862.458 C 1393.26 864.437 1394.94 864.862 1396.04 867.498 C 1392.52 869.032 1393.29 867.884 1391.93 870.387 C 1394.89 873.589 1400.01 872.658 1400.32 873.664 C 1401.64 877.868 1402.68 887.664 1406.26 890.553 L 1409.36 889.192 L 1410.35 890.465 C 1407.63 897.298 1412.54 894.555 1417.95 900.128 C 1419.59 901.816 1414.86 910.725 1414.6 911.388 C 1414.72 911.079 1418.16 917.431 1418.81 919.645 L 1414.08 922.667 L 1414.42 923.982 L 1418.46 924.112 C 1421.24 926.958 1416.26 930.18 1416.75 934.356 C 1417.22 938.43 1418.59 932.182 1420.71 938.342 C 1415.75 950.601 1418.61 939.302 1414.36 946.312 C 1416.81 948.522 1417.17 948.635 1418.93 951.531 L 1418.3 953.361 C 1415.72 954.031 1414.24 954.282 1411.65 954.697 C 1411.25 958.806 1415 954.846 1417.26 960.019 L 1416.45 961.536 C 1414.25 959.522 1415.09 959.843 1412.5 958.836 L 1411.83 960.59 L 1413.58 963.725 C 1410.62 965.957 1409.82 966.591 1407.25 969.206 C 1406.26 975.469 1408.19 969.436 1409.28 974.171 C 1401.44 980.991 1392.35 988.795 1384.23 995.189 C 1385.68 997.007 1385.24 996.04 1385.73 998.005 C 1382.59 1000.14 1383.96 1000.08 1381.08 999.994 L 1380.96 997.263 C 1378.71 998.425 1379.6 997.608 1378.55 1000.08 L 1380.47 1002.33 C 1379.11 1007.35 1369.23 1006.66 1364.08 1010.61 L 1364.52 1013.83 L 1363.06 1014.66 C 1359.36 1009.86 1353.35 1007.5 1349.42 1012.98 L 1351.26 1015.87 C 1349.83 1017.39 1348.06 1024.09 1349.02 1024.98 C 1369.65 1044.04 1388.35 1065.73 1406.66 1086.95 C 1421.24 1103.84 1440.11 1115.41 1449.39 1136.5 C 1450.52 1139.08 1447.91 1148.13 1447.24 1150.88 C 1444.6 1161.83 1437.38 1160.68 1429.19 1164.67 C 1425.34 1166.55 1428.36 1167.68 1424.6 1169.52 C 1418.78 1167.81 1413.22 1157.9 1407.57 1152.39 C 1402.7 1152.21 1400.38 1152.53 1396.7 1149.4 C 1398.59 1148.56 1399.06 1148.31 1400.79 1147.18 C 1399.7 1144.55 1394.72 1140.83 1392.3 1139.23 L 1391.55 1139.97 L 1393.32 1146.7 C 1388.46 1142.68 1390.35 1141.45 1389.55 1137.2 C 1388.4 1131.09 1375.65 1127.48 1372.74 1121.8 C 1373.68 1121.41 1374.62 1121.03 1375.56 1120.64 C 1373.76 1117.07 1372.64 1114.58 1369.21 1113.1 L 1367.4 1114.62 C 1363.82 1113.04 1364.24 1104.64 1361.89 1103.23 C 1356.29 1099.88 1349.3 1087.27 1342.99 1088.34 C 1340.07 1075.37 1319.38 1060.57 1310.77 1049.9 C 1309.23 1047.36 1305.2 1043.84 1302.93 1041.66 C 1300.45 1044.34 1297.98 1046.31 1297.25 1049.75 C 1301.89 1057.12 1298.36 1054.53 1296.05 1058.72 C 1300.39 1071.67 1298.63 1088.87 1298.74 1102.56 C 1298.77 1105.96 1295.03 1107.16 1295.3 1110.97 L 1298.26 1110.17 L 1299.23 1110.83 C 1299.04 1115.15 1298.06 1115.36 1295.36 1119.54 C 1295.73 1120.36 1296.1 1121.18 1296.45 1122 C 1297.94 1125.45 1300.42 1130.34 1299.16 1133.51 C 1296.4 1134.65 1295.62 1134.8 1293.21 1136.62 L 1293.05 1138.5 C 1295.82 1138.24 1294.96 1137.75 1296.52 1138.93 C 1292.76 1149.17 1290.2 1162.05 1287.24 1172.87 L 1285.79 1173.31 L 1282.61 1170.58 C 1279.64 1172.21 1275.97 1174.45 1272.86 1175.52 L 1269.47 1171.74 L 1267.92 1171.74 L 1266.37 1175.41 L 1264.82 1175.98 C 1258.05 1171.77 1258.22 1165.58 1255.08 1161.56 C 1254.54 1160.86 1247.76 1161.48 1244.39 1157.06 L 1246.58 1154.95 C 1247.08 1153.47 1247.37 1152.44 1246.64 1150.95 C 1243.34 1144.3 1246.5 1138.64 1249.21 1131.45 C 1243.09 1125.84 1254.68 1122.96 1253.71 1116.43 C 1252.1 1116.53 1250.58 1116.54 1248.98 1116.35 L 1248.74 1116.71 L 1250.4 1116.72 L 1249 1116.89 C 1249.64 1115.18 1251.07 1114.24 1252.54 1112.87 L 1251.83 1111.63 C 1249.14 1112.9 1249.98 1112.87 1247.22 1113.08 L 1247.73 1111.52 C 1251.21 1109.5 1251.57 1109.43 1255.56 1108.4 L 1256.58 1108.14 L 1256.2 1107.04 C 1254.11 1106.44 1252.61 1106.01 1250.55 1105.3 C 1248.95 1101.44 1249.55 1097.59 1249.7 1093.3 C 1252.19 1090.5 1255.89 1087.09 1256.67 1083.64 C 1255.16 1082.24 1254.82 1081.82 1253.56 1080.18 L 1253.94 1078.04 L 1257.66 1077.85 L 1257.95 1076.24 C 1255.06 1069 1246.98 1072.13 1247.49 1062.37 C 1250.01 1062.11 1250.85 1061.98 1253.31 1061.37 L 1253.97 1059.56 C 1252.75 1056.48 1252.4 1055.82 1251.78 1052.49 L 1253.84 1050 L 1253.56 1048.37 L 1249.82 1047.8 L 1249.02 1046.48 C 1250.26 1045.73 1251.03 1045.3 1252.35 1044.66 L 1253.46 1044.13 C 1254.97 1040.71 1255.77 1038.65 1256.94 1035.1 L 1255.88 1034.19 C 1253.47 1033.93 1254.65 1034.28 1252.36 1033.03 C 1251.36 1025.37 1253.87 1033.16 1255.26 1027 L 1251.78 1025.58 L 1251.87 1023.57 C 1253.8 1021.46 1254.36 1020.94 1255.92 1018.47 C 1253.82 1014.1 1248.77 1015.43 1248.05 1009.89 C 1250.61 1009.26 1249.63 1009.96 1251.36 1008.26 C 1250.54 1004.35 1251.41 1005.96 1248.96 1003.12 C 1236.97 1000.94 1244.67 995.533 1233.26 988.348 L 1233.25 986.206 C 1235.41 984.706 1236.6 984.333 1239.11 983.523 C 1237.91 981.502 1237.21 980.198 1236.19 978.078 C 1239.33 967.153 1250.82 973.46 1255.76 969.525 C 1257.77 964.771 1256.25 961.419 1258.26 957.624 C 1261.3 957.545 1260.23 957.875 1262.86 956.539 C 1263.03 952.527 1262.34 953.151 1259.18 948.963 C 1259.24 943.186 1256.02 940.902 1256.88 936.467 C 1258.85 938.698 1257.92 938.546 1259.94 938.798 C 1261.25 930.337 1255.88 927.366 1261.18 920.642 C 1261.35 917.346 1255.58 907.739 1253.88 901.938 C 1255.46 900.523 1254.68 901.309 1256.18 899.556 C 1254.65 894.537 1253.49 888.862 1252.3 883.712 C 1248.04 882.743 1246.16 883.187 1244.78 879.005 L 1245.63 877.403 L 1250.06 877.511 L 1250.9 876.567 C 1246.66 868.602 1248.98 877.486 1245.03 871.632 C 1246.92 870.434 1246.05 871.127 1247.65 869.551 C 1245.38 867.111 1244.19 865.872 1242.26 863.076 L 1242.95 862.016 C 1248.32 863.599 1253.6 864.662 1258.32 861.062 C 1259.31 855.429 1253.84 858.75 1252.03 853.466 L 1254.32 853.389 L 1256.14 851.365 C 1257.77 843.759 1253.44 847.121 1251.38 842.882 L 1253.58 842.253 C 1257.79 843.37 1260.53 846.921 1262.49 846.893 L 1263.7 843.24 C 1269.06 843.223 1271.37 843.618 1275.73 840.733 C 1277.29 834.498 1273.94 840.884 1273.56 835.571 C 1277.88 834.534 1278.68 840.24 1280.3 840.318 C 1286.69 840.629 1288.25 834.949 1298.09 837.237 C 1300.53 837.804 1298.62 837.635 1301.38 837.614 C 1299.42 833.58 1299.52 835.468 1299.86 831.756 C 1305.85 829.431 1314.56 836.449 1320.43 836.173 C 1320.25 833.41 1318.11 832.479 1315.39 829.903 z" fill="rgb(0,0,0)" transform="translate(0,0)"></path>
<path d="M 1308.38 883.192 L 1309.23 883.37 L 1308.45 886.219 C 1311.5 888.276 1317.49 883.735 1324.72 886.05 C 1326.15 888.293 1325.35 887.726 1327.5 888.829 C 1329.59 887.074 1330.16 886.479 1332.59 885.134 C 1338.67 885.999 1341.01 889.577 1347.37 892.074 L 1349.02 890.092 L 1350.41 890.814 C 1349.74 894.54 1354.77 897.667 1357.77 898.713 L 1358.19 895.357 L 1360.2 897.387 C 1361.8 903.88 1361.39 902.607 1367.1 905.384 C 1379.94 926.264 1369.57 928.553 1372.89 936.732 C 1372.01 939.472 1371.4 938.664 1367.78 941.024 L 1369.47 942.854 C 1367.84 945.727 1367.74 945.992 1365.55 948.42 L 1362.46 947.868 C 1358.36 950.284 1362.61 949.538 1359.59 953.654 L 1357.43 951.548 C 1354.35 952.603 1353.78 952.65 1351.01 954.475 C 1350.45 957.35 1350.9 956.393 1349.38 958.802 C 1349.09 958.078 1348.8 957.354 1348.51 956.629 C 1342.89 957.252 1333.17 960.511 1327.32 962.097 C 1320.87 963.846 1319.74 962.557 1313.26 963.075 C 1310.39 963.304 1309.2 965.225 1304.47 965.538 C 1295.18 957.372 1302.13 920.967 1301.24 908.173 C 1301.02 904.996 1299.19 905.757 1298.83 900.517 C 1299.52 899.477 1300.86 897.52 1301.65 897.091 C 1304.94 895.305 1299.43 893.255 1300.09 886.576 L 1308.38 883.192 z" fill="rgb(254,254,254)" transform="translate(0,0)"></path>
<path d="M 567.428 919.19 C 572.485 920.565 584.834 923.384 589.453 923.347 C 593.682 919.625 588.35 922.909 590.624 918.72 L 592.347 922.115 C 596.855 925.222 609.425 919.151 611.398 920.05 C 626.555 926.956 617.203 926.574 632.669 924.816 C 636.366 926.157 637.285 929.973 638.081 930.284 C 666.059 941.218 683.047 956.059 693.42 985.243 C 694.928 989.486 688.821 991.315 695.292 1000.95 L 694.951 1002.37 L 693.381 1001.81 C 690.497 1008.24 689.478 1022.11 687.152 1029.12 C 684.541 1036.98 679.699 1046.08 676.169 1053.9 L 677.245 1056.59 C 672.111 1061.03 666.918 1065.41 661.667 1069.71 L 660.41 1068.33 L 659.318 1068.49 C 655.491 1078 644.905 1084.47 635.763 1089.11 C 612.004 1101.17 589.086 1096.38 565.214 1088.56 C 549.316 1081.41 533.699 1074.65 519.968 1063.61 C 515.792 1060.25 517.064 1059.3 516.769 1053.88 L 514.895 1052.36 L 513.858 1052.62 C 513.597 1055.04 513.606 1055.56 512.862 1057.85 C 509.963 1056.28 506.803 1051.83 505.864 1048.76 C 508.048 1046.64 507.515 1047.62 508.553 1044.95 L 507.163 1042.34 C 494.173 1035.81 503.761 1035.09 504.311 1025.42 C 502.182 1024.01 501.765 1023.93 500.194 1021.97 C 503.153 1019.18 504.458 1022.46 506.821 1020.14 L 502.365 1015.34 L 502.723 1013.9 L 504.231 1013.11 C 505.527 1014.15 506.807 1015.22 508.07 1016.3 C 512.516 1010.31 505.027 1010.38 504.595 1005.29 C 506.995 1005.59 506.848 1005.76 509.168 1005.46 L 506.749 1001.63 C 509.413 1000.03 508.727 1001.13 509.686 998.776 C 507.88 997.613 508.463 998.281 507.647 997.069 C 511.215 998.103 516.252 1000.55 518.699 997.271 C 519.078 993.995 518.687 993.332 517.931 990.144 C 512.609 985.752 516.946 990.89 511.131 988.725 C 511.419 982.125 512.294 989.067 514.599 983.481 C 510.677 981.732 511.856 983.039 509.838 980.162 L 510.335 978.47 C 513.536 978.435 514.668 978.089 517.186 980.023 L 517.452 982.565 L 518.564 982.74 C 520.641 976.345 518.076 974.03 512.834 971.211 C 515.917 969.68 517.65 969.12 519.942 966.516 L 517.714 963.892 C 518.167 960.521 520.854 951.57 523.536 949.559 L 526.518 950.984 L 528.794 949.114 C 530.199 946.29 530.019 945.874 529.653 942.743 L 531.16 942.048 L 534.123 943.885 L 535.749 942.835 C 535.189 938.638 534.696 938.754 537.352 935.826 C 551.526 933.006 544.545 932.548 547.588 926.474 C 551.049 929.319 550.011 929.338 553.756 929.745 C 557.765 925.659 552.872 929.343 554.905 923.769 L 556.679 923.059 C 557.981 924.5 557.5 923.885 558.634 925.473 L 559.423 926.596 C 559.531 925.599 559.69 924.714 559.532 923.718 L 560.691 923.306 C 562.442 925.341 563.023 926.619 565.557 927.108 C 567.727 925.268 567.078 923.1 567.428 919.19 z" fill="rgb(0,0,0)" transform="translate(0,0)"></path>
<path d="M 601.769 967.065 C 607.997 966.807 610.565 968.48 616.498 969.655 C 619.054 968.244 619.554 967.746 622.452 967.236 C 623.496 969.562 622.877 968.428 624.328 970.628 L 625.413 969.901 L 625.648 967.434 C 628.88 967.227 638.693 973.585 642.115 975.672 C 648 979.205 652.113 985.066 653.434 991.802 C 658.082 1015.82 626.849 1047.28 604.055 1050.86 C 600.298 1051.45 597.955 1053.09 594.552 1052.52 L 591.489 1053.58 C 587.186 1049.92 572.585 1047.94 566.798 1047.39 C 562.105 1046.94 552.286 1037.54 548.345 1034.36 L 550.51 1033.79 L 550.036 1032.58 C 542.337 1026.54 539.37 1023.93 544.097 1013.77 C 551.363 997.941 559.264 988.274 573.069 978.151 C 585.112 969.32 588.868 972.268 601.769 967.065 z" fill="rgb(254,254,254)" transform="translate(0,0)"></path>
<path d="M 1819.99 913.707 C 1827.9 916.448 1828.87 915.444 1835.73 922.188 C 1837.25 923.681 1838.54 920.456 1841.87 921.796 C 1840.06 928.314 1848.82 931.026 1851.19 937.639 C 1850.12 940.515 1851.07 942.196 1851.97 945.272 L 1852.36 946.588 L 1849.47 950.196 C 1849.28 954.295 1852.6 950.791 1854.83 954.895 C 1851.59 958.56 1854.52 953.443 1849.33 954.228 C 1848.06 959.727 1853.15 966.112 1852.02 970.823 L 1849.73 970.503 L 1848.8 971.739 C 1848.03 978.618 1848.64 978.628 1851.06 985.385 C 1849.47 993.099 1849.76 984.182 1846.02 990.411 C 1846.16 994.425 1846.18 993.253 1848.68 997.131 C 1848.49 1001.71 1844.75 1004.87 1843.68 1009.21 C 1842.82 1012.73 1844.87 1010.4 1846.48 1013.37 C 1833.95 1026.07 1843.89 1025.14 1843.31 1032.17 C 1838.7 1033.44 1833.21 1035.66 1834.01 1041.65 C 1836.21 1041.53 1835.08 1041.51 1837.39 1041.73 C 1837.5 1045.12 1838.26 1050.71 1836.95 1053.24 C 1835.35 1052.21 1834.51 1051.63 1832.98 1050.43 L 1831.66 1049.38 C 1829.42 1052.05 1832.18 1058.71 1831.43 1059.43 C 1828.97 1061.79 1824.44 1066.84 1822.17 1069.73 L 1822.64 1071.15 L 1827.08 1071.14 L 1827.11 1072.42 C 1824.46 1073.65 1825.18 1073.01 1823.2 1074.97 C 1824.15 1077.62 1824.04 1076.6 1823.84 1079.41 C 1822.54 1081.8 1822.55 1082.04 1820.34 1083.67 C 1806.12 1094.18 1803.84 1110.64 1784.59 1116.67 C 1773.78 1120.05 1762.49 1118.01 1757.35 1119.21 L 1758.98 1122.21 L 1758.16 1122.86 C 1755.52 1120.79 1752.87 1118.32 1749.72 1117.38 C 1749.59 1119.18 1749.55 1119.5 1749.26 1121.2 C 1741.78 1122.55 1735.5 1113.02 1732.87 1113.18 C 1719.13 1114.04 1724.69 1109.66 1716.91 1104.86 C 1715.39 1106.45 1716.21 1105.71 1714.45 1107.08 C 1707.85 1102.99 1701.92 1087.01 1693.89 1089.26 C 1693.25 1093.38 1684.14 1102.59 1680.8 1106.35 C 1668.06 1109.08 1654.88 1115.67 1643.42 1108.78 C 1627.66 1099.32 1616.08 1067.61 1611.42 1051.21 C 1606.93 1040.29 1587.92 995.952 1596.21 986.066 C 1598.82 985.549 1597.97 986.013 1599.92 984.286 C 1600.39 980.519 1600.27 979.104 1602.4 975.924 L 1604.06 975.632 L 1605.9 979.33 L 1607 979.562 C 1612.17 971.114 1610.2 977.031 1615.62 976.669 L 1616.28 972.541 L 1617.2 972.592 C 1621.03 982.212 1629.8 978.29 1631.91 984.975 L 1629.35 987.251 C 1631.48 989.183 1631.24 988.544 1634.85 988.77 C 1637.58 990.859 1636.82 989.562 1637.65 992.488 L 1634.9 994.482 C 1635.71 997.863 1635.65 996.925 1638.86 999.721 C 1639.18 1001.2 1639.4 1001.29 1638.99 1002.54 C 1635.52 1012.97 1644.52 1011.95 1647.16 1019.84 C 1644.98 1021.31 1645.7 1020.6 1644.4 1023 C 1644.57 1028.99 1648.36 1034.11 1652.09 1038.54 C 1652.32 1044.5 1651.65 1047.76 1655.79 1051.6 L 1657.16 1050.73 C 1656.52 1043.74 1654.93 1048.95 1654.88 1043.92 L 1659.76 1043.17 C 1663.25 1036.2 1667.64 1029.36 1670.81 1022.2 C 1671.9 1019.76 1670.92 1020.95 1673.63 1019.45 C 1676.81 1019.65 1677.03 1020.09 1679.67 1018.84 L 1678.8 1015.48 L 1679.77 1014.29 L 1683.01 1016.08 L 1684.52 1015.3 C 1684.83 1013.23 1685.09 1011.15 1685.31 1009.07 L 1686.42 1009.09 C 1687.17 1011.23 1687.87 1013.4 1688.52 1015.57 C 1690.9 1014.72 1692.17 1013.93 1694.6 1014.39 C 1694.25 1016.72 1694.29 1016.01 1694.52 1018.55 C 1697.18 1016.41 1696.01 1016.48 1698.43 1016.55 L 1699.1 1019.45 L 1700.02 1019.84 C 1701.75 1017.88 1700.81 1018.7 1702.8 1017.33 C 1706.91 1023.01 1701.22 1018.41 1704.17 1024.18 C 1711.21 1025.08 1710.27 1026.44 1713.31 1032.74 C 1722.15 1051.06 1726.62 1060.1 1745.83 1068.77 C 1759.69 1066.74 1761.78 1066.52 1772.95 1058.51 L 1775.75 1059.77 C 1776.38 1058.43 1776.85 1057.93 1776.56 1056.64 C 1774.5 1047.58 1784.08 1041.99 1785.85 1037.11 C 1791.49 1021.57 1800.5 1004.01 1800.8 987.6 L 1800.82 986.167 C 1813.09 977.672 1798.97 934.425 1806.4 921.897 C 1810.31 915.301 1815.29 916.7 1819.99 913.707 z" fill="rgb(0,0,0)" transform="translate(0,0)"></path>
<path d="M 774.814 925.239 C 778.84 928.835 791.733 930.178 797.34 930.539 L 799.166 930.649 C 801.453 934.048 801.473 935.128 805.314 935.666 L 808.18 932.763 C 824.841 941.678 855.085 955.847 869.059 968.346 C 867.669 970.1 868.028 969.396 867.276 971.517 C 870.965 973.489 870.23 972.193 871.639 975.052 L 870.114 977.403 C 878.488 988.468 878.158 986.438 877.457 1000.57 C 877.498 999.734 880.229 1001.55 880.88 1002.44 L 879.936 1003.9 L 876.404 1004.3 L 876.035 1005.4 C 878.199 1006.2 877.475 1005.48 878.36 1007.39 C 875.883 1011.74 865.599 1029.89 863.084 1032.65 L 860.037 1031.91 L 859.18 1032.99 L 861.651 1035.39 C 859.9 1038.56 857.643 1035.45 855.189 1037.33 C 850.361 1040.87 845.792 1048.19 840.634 1051.08 C 837.838 1052.65 828.578 1050.2 827.028 1055.63 L 831.303 1056.82 L 831.222 1058.03 L 831.898 1057.29 L 830.689 1056.72 L 830.393 1058.51 C 826.138 1060.34 824.614 1058.41 818.607 1058.32 C 815.532 1061.51 812.869 1064.66 808.473 1065.47 C 801.416 1062.62 799.936 1065.38 793.279 1067.41 C 793.334 1067.39 787.383 1064.95 786.849 1064.73 L 785.558 1065.38 C 785.812 1067.82 785.929 1067.14 785.485 1069.48 C 782.974 1068.03 781.487 1066.7 778.721 1067.13 C 773.035 1075.04 779.558 1085.56 780.794 1093.87 C 780.94 1094.85 777.213 1099.57 777.937 1103.39 C 780.163 1104.24 779.449 1103.81 781.299 1105.49 L 780.933 1107.04 L 777.768 1108.53 L 777.539 1110.13 C 782.725 1113.99 779.72 1108.34 784.059 1112.02 C 782.394 1113.77 781.325 1114.57 779.458 1116.08 L 779.92 1117.62 L 783.848 1117.34 L 784.809 1118.47 C 783.844 1119.46 782.906 1120.21 781.784 1121.01 C 782.523 1122.34 783.24 1123.68 783.934 1125.03 L 782.968 1125.87 L 779.512 1124.72 L 778.877 1125.99 L 781.131 1129.02 C 779.992 1131.18 779.404 1132.51 778.757 1134.87 C 785.207 1144.9 781.836 1143.31 779.049 1153.46 C 780.648 1155.45 780.982 1155.75 782.098 1158.01 C 781.422 1159.73 780.643 1161.7 779.539 1163.19 C 777.509 1165.92 774.453 1167.7 771.078 1168.13 C 762.274 1169.31 752.412 1163.61 745.822 1158.48 C 729.819 1146.01 737.587 1142.11 735.955 1128.26 L 734.751 1126.69 C 732.531 1123.75 731.985 1122.82 732.46 1119.56 L 735.1 1119.73 C 737.063 1115.55 736.249 1115.78 735.815 1110.41 C 734.172 1108.63 734.028 1108.61 732.949 1106.48 C 733.718 1104.87 734.661 1103.43 735.67 1101.96 C 733.633 1098.02 732.72 1096.85 732.134 1092.57 L 732.763 1092.59 L 735.336 1096.64 L 736.03 1095.1 C 735.807 1090.91 735.787 1090.24 733.394 1086.81 L 734.582 1084.43 C 732.64 1084 733.344 1084.11 731.524 1083.86 L 730.326 1083.7 C 731.176 1078.75 731.386 1084.63 735.521 1080.53 C 732.578 1078.12 732.906 1079.36 732.395 1076.7 C 739.177 1071 734.741 1069.69 733.543 1061.23 C 736.208 1060.47 735.238 1061.24 736.932 1059.43 C 735.03 1055.19 729.265 1053.15 728.696 1052.14 C 725.865 1047.16 723.027 1037.82 721.737 1032.35 C 727.435 1022.22 736.748 1014.31 736.371 1004.87 C 736.215 1000.98 732.919 996.359 733.081 991.959 C 735.914 990.63 735.144 991.453 736.842 989.183 C 730.137 983.16 734.973 986.851 736.046 981.952 C 734.366 981.217 734.162 981.196 732.414 981.066 C 733.012 976.479 738.313 972.131 738.516 970.771 C 739.277 965.675 736.645 958.304 736.439 952.042 C 737.585 951.094 738.414 950.439 739.638 949.562 L 740.704 948.81 L 740.819 946.911 C 738.931 945.751 739.222 946.322 738.239 944.65 C 740.435 944.364 739.328 944.3 741.523 945.42 L 742.148 943.964 C 741.05 941.669 741.689 942.73 739.131 941.081 C 741.861 933.996 764.678 922.426 769.86 927.346 L 767.501 929.247 L 767.526 930.145 C 773.205 930.474 772.127 929.958 774.814 925.239 z" fill="rgb(0,0,0)" transform="translate(0,0)"></path>
<path d="M 779.607 974.229 C 782.588 976.32 808.473 985.406 812.096 985.188 L 813.06 982.309 L 814.185 981.957 C 816.926 983.783 818.385 984.595 820.693 987.026 C 818.853 989.689 816.3 986.626 812.403 989.241 C 814.424 991.355 818.316 988.839 823.473 990.7 L 821.036 993.209 C 824.817 995.181 827.288 992.227 830.302 995.442 C 829.305 999.727 819.767 1004.98 815.826 1007.47 C 809.186 1010.9 783.509 1018.74 777.52 1014.54 L 777.245 1012.8 C 779.786 1012.45 779.869 1012.58 782.119 1011.44 L 781.609 1009.67 L 777.481 1007.89 L 777.418 1006.42 L 781.262 1005.28 L 781.402 1003.78 L 778.305 1002.22 L 777.869 1000.55 C 780.11 998.633 779.575 999.452 780.96 997.007 C 779.601 995.836 778.366 994.985 776.856 994.039 L 776.736 991.91 C 777.824 990.73 778.871 989.776 780.123 988.791 C 778.624 982.018 778.808 980.882 779.607 974.229 z" fill="rgb(254,254,254)" transform="translate(0,0)"></path>
<path d="M 1498.96 960.136 C 1502.07 961.907 1505.61 960.65 1509.14 959.935 C 1526.15 969.228 1538.38 979.35 1538.41 1000 C 1538.41 1003.17 1538.97 1015.41 1539.81 1017.91 C 1545.87 1036.03 1551.76 1055.37 1561.83 1071.72 C 1566.24 1078.9 1572.76 1089.63 1578.52 1095.61 C 1584.46 1101.78 1594.97 1106.55 1599.66 1114.44 C 1598.12 1114.88 1599.02 1114.56 1597.04 1115.53 C 1598.6 1122.96 1596.17 1131.7 1590.39 1137.07 C 1589.4 1138 1582.49 1135.49 1580.76 1134.99 C 1570.29 1141.07 1573.43 1143.09 1560.55 1140.43 C 1557.99 1141.71 1556.73 1142.24 1554.04 1143.22 C 1538.88 1141.73 1544.82 1124.69 1528.29 1115.48 L 1527.98 1113.61 L 1529.57 1112.69 C 1532.03 1113.5 1532.74 1114.55 1534.57 1116.39 L 1535.28 1117.11 C 1534.75 1114.02 1534.48 1108.3 1531.17 1107.36 L 1527.3 1111.31 L 1526.09 1110.96 C 1522.68 1106.12 1523.53 1103.53 1521.24 1098.43 C 1517.63 1097.15 1518.7 1097.56 1514.42 1098.38 C 1511.92 1096.15 1509.66 1093.07 1507.51 1090.44 L 1505.44 1090.91 C 1503.98 1093.8 1505.73 1093.98 1507.22 1098.89 L 1505.51 1099 C 1502.36 1097.2 1503.09 1096.93 1501.24 1092.76 C 1498.76 1091.36 1497.99 1090.35 1495.57 1090.38 C 1495.57 1093.02 1495.77 1092.13 1494.94 1094.59 C 1491.59 1094.09 1488.91 1091.44 1485.42 1089.86 L 1483.38 1090.83 C 1482.07 1093.77 1481.78 1094.62 1479.94 1097.32 L 1476.68 1097.36 L 1476.09 1096.14 L 1478.5 1091.01 L 1477.47 1090.07 L 1474.92 1090.62 C 1470.35 1095.18 1472.19 1094.31 1465.94 1094.08 L 1465.01 1095.03 C 1468.34 1097.01 1467.45 1095.71 1469.11 1098.59 C 1468.12 1102.75 1469.17 1101.26 1466.68 1103.85 L 1465.15 1103.19 L 1464.53 1099.64 C 1437.35 1101.08 1446.95 1074.06 1438.2 1062.6 C 1439.69 1043.1 1446.72 1031.63 1454.34 1014.12 C 1462.85 994.555 1472.06 974.789 1492.3 964.819 C 1495.66 963.166 1496.22 962.757 1498.96 960.136 z" fill="rgb(0,0,0)" transform="translate(0,0)"></path>
<path d="M 1035.48 929.082 C 1051.97 926.239 1066.24 939.624 1069.51 954.86 C 1071.86 965.809 1074.32 976.811 1077.42 987.562 C 1077.42 987.562 1075.62 990.863 1075.45 991.174 C 1081.61 1006.96 1094.76 1036.41 1104.04 1051.1 C 1108.93 1058.83 1142.96 1075.17 1128.75 1090.38 C 1112 1108.3 1103.64 1108.81 1081.37 1102.03 L 1081.02 1101.25 L 1084.78 1099.95 L 1084.63 1097.84 L 1079.32 1093.54 C 1075.27 1093.16 1074.52 1093.28 1070.92 1091.63 C 1067.28 1086.1 1074.47 1088.57 1072.24 1082.18 C 1069.23 1073.53 1066.99 1080.44 1061.9 1077.64 C 1060.14 1074.91 1059.52 1074.54 1059.43 1071.32 L 1060.79 1071.12 C 1062.81 1072.92 1064.41 1074.26 1066.54 1075.93 L 1068.05 1075.71 C 1069.11 1073.27 1068.79 1074.26 1068.64 1071.35 C 1065.46 1068.84 1064.32 1068.91 1060.13 1069.53 L 1060.11 1068.19 C 1061.34 1066.18 1060.91 1067.28 1061.35 1064.85 L 1058.42 1063.28 C 1055.26 1065.11 1059.33 1067.09 1056.52 1070.39 L 1054.83 1069.42 C 1055 1065.28 1055.2 1064.58 1054.05 1060.71 C 1051.38 1057.87 1050.89 1057.78 1047.49 1056.17 C 1045.91 1057.66 1046.22 1057.5 1044.38 1058.62 L 1041.14 1053.24 L 1039.8 1053.04 C 1038.78 1054.98 1038.09 1056.13 1036.9 1057.97 C 1033.58 1057.47 1032.52 1056.27 1029.59 1054.41 L 1028.78 1055.19 L 1028.76 1057.65 L 1026.95 1058.02 C 1025.37 1055.96 1024.34 1054.75 1022.58 1052.84 C 1017.64 1053.33 1015.82 1053.42 1010.85 1053.04 L 1009.66 1052.95 C 1002.91 1056.84 1010.69 1066.62 1004.63 1073.46 C 1000.39 1074.49 1001.13 1075.03 997.859 1073.7 C 991.342 1064.22 992.248 1053.69 982.817 1050.71 C 980.583 1050.01 979.965 1046.84 979.371 1044.94 C 983.683 1039.73 982.449 1031.33 978.092 1026.75 C 975.132 1026.44 975.76 1026.9 973.424 1025.56 C 974.96 1010.97 982.374 1011.15 982.577 1004.51 L 980.607 1003.66 L 976.35 1005.95 L 975.605 1004.72 C 977.676 997.264 986.247 997.782 988.715 995.555 C 991.361 993.167 991.098 977.498 994.38 974.184 L 997.229 975.472 C 999.66 973.222 997.993 965.117 1001.1 960.067 L 1003.48 960.389 L 1004.15 958.516 L 1002.51 956.609 L 1003.05 955.222 C 1003.82 955.371 1004.6 955.519 1005.38 955.668 C 1009.47 949.917 1015.65 940.469 1020.85 936.155 C 1024.69 932.966 1031.28 930.639 1035.48 929.082 z" fill="rgb(0,0,0)" transform="translate(0,0)"></path>
<path d="M 922.039 921.197 C 926.723 921.211 928.515 921.441 932.997 922.51 C 951.947 941.673 948.252 997.712 947.174 1023.01 C 946.911 1029.19 948.565 1033.54 948.775 1039.54 C 946.938 1041.75 947.164 1041.36 944.526 1042.5 C 944.667 1047.79 944.668 1048.79 941.543 1052.76 C 941.694 1054.32 941.889 1055.89 942.126 1057.44 C 938.699 1060.3 925.891 1062.1 921.282 1060.24 L 918.441 1061.49 C 909.788 1057.12 899.131 1040.26 898.494 1030.89 C 900.33 1029.98 900.759 1029.94 902.756 1029.57 C 904.602 1024.64 900.972 1018.69 903.168 1014.14 L 905.564 1015.68 C 906.614 1007.59 898.025 1002.35 906.503 990.557 C 911.44 983.69 904.632 977.442 910.63 969.079 C 909.155 963.582 903.197 957.503 900.716 950.699 C 905.408 933.765 908.429 932.684 922.039 921.197 z" fill="rgb(0,0,0)" transform="translate(0,0)"></path>
<path d="M 893.37 838.674 C 899.631 841.881 902.702 838.669 906.362 840.161 C 936.795 852.57 942.83 882.648 909.289 897.418 C 905.804 898.176 907.043 898.414 903.982 897.512 L 903.235 893.858 C 882.49 886.766 860.666 858.924 881.634 841.913 L 881.762 844.848 C 885.412 843.193 889.784 840.637 893.37 838.674 z" fill="rgb(0,0,0)" transform="translate(0,0)"></path>
<path d="M 734.369 1154.67 L 735.499 1155.85 C 735.828 1162.68 729.687 1165.29 724.275 1167.44 C 723.804 1165.15 723.749 1166.26 724.361 1164.11 L 726.589 1163.94 C 731.649 1160.97 731.941 1160.09 734.369 1154.67 z" fill="rgb(0,0,0)" transform="translate(0,0)"></path>
<metadata><recraft-signature>{"signed_by": "recraft", "signature_b64": "M1NALdBsdeYLLrh37NTXNdgaltnRivA8v7nWo+Ta87821t1CNuRa11h5of0gTwGTUIip2go37/35H5+/v4KPAA==", "signing_algo": "Ed25519", "generation_timestamp": 1776302798, "identifier": "12af0b0a-76de-4411-b3a1-42ef6b15c48d"}</recraft-signature></metadata></svg>