<svg xmlns="http://www.w3.org/2000/svg" height="1024" preserveAspectRatio="none" style="display: block;" version="1.1" viewBox="0 0 2048 2048" width="1024">
<path d="M 0 0 L 2048 0 L 2048 2048 L 0 2048 L 0 0 z" fill="rgb(255,255,255)" transform="translate(0,0)"></path>
<path d="M 1072.72 434.165 C 1083.18 432.942 1092.16 442.812 1098.08 450.53 C 1121.6 481.197 1145.87 513.516 1165.62 546.729 C 1192.6 592.087 1199.2 649.039 1206.42 700.492 C 1220.89 712.68 1230.55 720.357 1211.49 734.166 C 1208.45 747.309 1206.36 779.565 1204.77 794.635 C 1202.21 818.794 1199.36 842.922 1196.23 867.014 C 1192.74 895.407 1189.92 924.729 1182.37 952.868 C 1179.07 965.141 1167.97 1012.4 1155.43 1016.87 C 1140.81 1022.08 1139.18 1004.69 1138.44 993.895 C 1130.24 1006.95 1097.7 1063.2 1086.23 1068.03 C 1076.81 1072 1065.18 1066.32 1056.44 1062.97 C 1023.53 1050.49 1006.72 1050.29 973.758 1046.21 C 955.6 1029 929.95 937.774 919.131 909.076 C 915.942 916.45 909.487 924.456 901.092 921.172 C 892.296 917.732 892.494 889.617 891.947 881.85 C 890.633 863.222 889.491 844.583 888.523 825.934 C 885.1 760.85 880.968 699.074 900.341 635.482 C 917.963 577.636 940.845 502.567 983.546 457.272 C 987.414 453.17 1061.52 436.782 1072.72 434.165 z" fill="rgb(0,0,0)" transform="translate(0,0)"></path>
<path d="M 1065.11 462.327 C 1083.4 464.934 1131.1 535.725 1141.98 553.662 C 1173.41 605.516 1182.34 677.372 1187.31 737.26 C 1189.72 766.267 1176 814.303 1174.77 845.016 C 1172.33 878.779 1165.99 919.689 1157.81 952.251 C 1155.36 940.108 1153.69 933.055 1149.5 921.392 C 1140.46 933.551 1134.49 951.755 1126.89 965.732 C 1112.71 991.798 1095.55 1020.39 1077.68 1043.91 C 1069.35 1042.06 1063.4 1040.21 1055.24 1037.57 C 1028.87 1029.24 1014.62 1026.57 987.513 1023.69 C 969.156 994.689 953.432 935.581 943.703 901.545 C 940.335 889.762 937.894 875.027 934.134 863.125 C 933.118 859.907 929.793 857.803 926.728 856.613 C 918.871 856.526 916.857 862.532 914.577 868.731 C 912.869 835.08 911.745 801.401 911.207 767.711 C 910.915 753.852 909.512 724.709 910.393 711.781 C 914.777 647.401 942.673 574.126 971.951 516.832 C 977.512 505.949 988.47 485.277 996.48 477.821 C 1012.56 473.269 1049.97 464.152 1065.11 462.327 z" fill="rgb(255,255,255)" transform="translate(0,0)"></path>
<path d="M 1034.81 521.871 C 1042.86 523.543 1078.38 544.049 1085.36 550.54 C 1127.86 590.098 1141.25 657.483 1145.98 712.365 C 1155.53 823.031 1124.55 911.739 1052.79 995.232 C 1046.76 1002.83 1038.58 1011.1 1029.81 1015.38 C 999.609 1010.15 1002.86 1012.85 993.421 981.898 C 963.458 883.649 956.656 779.406 962.82 677.298 C 963.876 659.801 965.391 639.995 970.407 623.128 C 980.06 596.274 1001.48 569.414 1018.71 546.684 C 1024.72 538.724 1023.77 527.637 1034.81 521.871 z" fill="rgb(0,0,0)" transform="translate(0,0)"></path>
<path d="M 1045.25 563.049 C 1091.39 556.117 1114.4 657.188 1119.19 690.261 C 1129.97 764.642 1121.47 838.561 1086.31 905.648 C 1074.8 927.62 1058.91 948.696 1043.96 968.359 C 1038.96 974.979 1032.41 986.735 1023.47 985.887 C 1016.08 982.443 1008.81 949.834 1006.75 940.986 C 986.828 855.368 980.535 766.533 986.753 678.894 C 988.805 649.974 986.231 630.199 1005.75 605.97 C 1018.37 589.071 1025.31 573.397 1045.25 563.049 z" fill="rgb(255,255,255)" transform="translate(0,0)"></path>
<path d="M 114.401 300.836 C 126.18 301.184 128.084 314.62 130.043 324.463 C 134.316 345.931 136.086 368.367 138.377 390.155 C 142.243 423.834 145.49 457.581 148.117 491.379 C 157.837 616.109 165.518 740.99 171.155 865.971 C 173.396 908.361 175.361 951.031 176.355 993.469 C 176.95 1018.9 187.396 1136.84 217.879 1138.68 C 224.139 1136.76 226.617 1130.85 229.866 1125.37 C 307.692 994.302 295.746 841.693 294.933 695.494 C 294.691 651.992 299.055 608.114 301.325 565.693 C 302.074 553.622 302.543 541.535 302.733 529.442 C 303.071 490.216 303.035 462.194 326.074 428.095 C 332.614 418.415 334.383 397.502 345.131 390.97 C 364.114 379.435 363.126 408.446 363.942 418.901 C 370.11 467.73 366.269 517.235 377.274 565.412 C 379.344 574.476 382.607 587.753 380.332 596.576 C 379.396 600.207 372.446 603.136 369.355 604.528 C 367.219 620.346 367.652 647.779 367.442 664.5 C 366.533 704.733 366.693 744.983 367.921 785.208 C 368.541 805.314 368.681 827.685 371.824 847.35 C 375.309 851.534 378.696 855.798 381.982 860.139 C 379.368 867.29 374.941 872.282 374.151 879.141 C 372.465 893.774 373.196 908.765 372.797 923.481 C 372.009 945.188 372.344 968.326 370.582 989.877 C 364.576 1063.32 352.877 1135.83 363.472 1209.52 C 364.148 1214.22 366.727 1238.2 366.064 1241 C 358.45 1273.19 328.274 1230.02 320.632 1220.89 C 316.124 1229.77 303.525 1255.33 296.012 1260.67 C 268.285 1280.13 233.314 1288.01 205.377 1307.44 C 182.478 1323.36 179.107 1315.76 166.852 1294.27 C 164.666 1300.95 160.443 1316.02 155.113 1319.63 C 133.262 1334.44 124.756 1270.76 120.977 1255.6 C 117.601 1241.55 113.898 1227.58 109.872 1213.71 C 107.22 1204.42 100.737 1183.66 99.9849 1175.12 C 98.5284 1158.59 97.9919 1138.83 97.2413 1121.97 C 95.5863 1086.79 94.4246 1051.59 93.7564 1016.38 C 93.2063 994.734 92.7257 973.369 91.6179 951.712 C 90.6097 932.004 81.2657 925.144 78.0142 908.414 C 77.3658 905.078 83.5414 883.553 84.5066 877.498 C 86.2484 866.217 87.9981 853.8 87.9914 842.329 C 87.9077 697.867 84.4236 553.296 94.311 409.027 C 96.5039 377.031 97.4053 343.419 104.19 312.108 C 105.598 305.612 108.982 303.681 114.401 300.836 z" fill="rgb(0,0,0)" transform="translate(0,0)"></path>
<path d="M 117.49 406.788 C 121.072 410.319 123.467 457.908 124.101 466.474 C 126.836 500.46 129.228 534.473 131.277 568.508 C 136.524 653.252 142.82 738.802 146.967 823.515 C 148.381 854.901 149.624 886.294 150.695 917.693 C 152.329 981.25 152.791 1049.47 170.685 1111.01 C 176.913 1132.42 195.25 1170.64 222.859 1164.05 C 243.714 1159.07 256.053 1128.26 264.866 1110.89 C 283.937 1073.24 299.301 1034.08 306.385 992.326 C 316.973 929.915 317.863 867.792 320.162 804.793 C 322.13 750.867 326.174 697.517 325.878 643.43 L 325.278 552.285 C 324.98 508.307 320.89 487.406 343.575 447.95 C 346.218 464.39 346.084 485.31 346.824 502.137 C 348.519 540.708 347.121 577.647 345.157 616.139 C 344.086 673.359 343.893 730.592 344.58 787.818 C 345.636 845.723 347.998 901.421 346.963 959.62 C 345.625 1034.89 326.894 1133.88 338.398 1207.09 C 333.06 1201.95 324.627 1189.5 317.632 1189.09 C 303.082 1188.23 294.98 1229.74 282.414 1240.18 C 256.435 1261.75 217.466 1267.99 190.828 1287.85 C 185.035 1278.24 179.313 1257.92 168.216 1253.74 C 157.405 1249.66 152.271 1266.96 149.88 1274.41 C 145.701 1246.72 133.518 1215.29 127.821 1187.41 C 126.439 1180.65 124.319 1174.05 123.691 1167.08 C 117.132 1094.35 116.781 1021.47 114.461 948.572 C 112.427 894.44 110.94 840.288 110.001 786.126 C 109.526 738.896 110.163 691.518 110.786 644.294 C 111.811 566.601 111.684 484.066 117.49 406.788 z" fill="rgb(255,255,255)" transform="translate(0,0)"></path>
<path d="M 437.221 329.891 C 440.298 330.585 442.327 331.093 444.77 333.28 C 462.749 349.377 475.452 516.761 476.835 550.798 C 477.93 577.727 476.61 604.713 477.21 631.658 C 477.52 630.455 477.843 629.256 478.18 628.061 C 483.114 610.452 489.619 593.548 495.553 576.367 C 503.482 553.411 521.433 551.397 542.345 544.453 C 556.125 540.026 569.767 535.178 583.25 529.915 C 616.888 516.866 649.167 499.607 683.594 488.883 C 716.087 478.761 906.68 433.865 932.242 442.807 C 934.834 443.714 936.794 445.815 937.89 448.284 C 939.026 450.845 939.59 454.447 938.193 457.019 C 934.507 463.805 922.705 470.608 916.558 475.195 C 870.373 509.664 822.03 533.593 768.005 553.216 C 773.063 555.837 778.341 557.593 779.896 563.542 C 775.132 575.606 743.478 568.687 731.109 571.742 C 718.974 574.74 713.881 576.994 702.241 582.078 C 701.004 605.96 703.201 629.821 702.691 653.685 C 702.003 685.954 699.027 718.028 699.01 750.368 C 698.988 792.541 706.474 1138.93 695.723 1152.79 C 694.5 1154.37 691.912 1155.27 689.984 1155.54 C 685.833 1156.11 682.17 1155.44 679.538 1151.98 C 674.131 1144.86 671.929 1134.27 669.62 1125.73 C 661.761 1096.65 654.753 1048.96 635.523 1026.37 C 632.166 1022.42 625.016 1020.42 620.752 1017.02 C 618.312 1011.24 616.556 1001.67 617.145 995.421 C 625.792 903.825 621.137 812.642 615.726 720.978 C 613.802 688.377 616.112 651.85 611.492 619.535 C 605.726 621.827 569.829 641.309 563.718 644.891 C 541.94 657.656 494.6 677.988 477.212 693.646 C 476.796 738.62 475.205 783.644 475.764 828.628 C 476.511 886.541 480.262 944.514 480.923 1002.41 C 481.717 1071.98 486.208 1141.91 479.556 1211.3 C 479.023 1216.86 477.842 1223.31 472.956 1226.6 C 468.248 1229.94 459.75 1228.85 457.635 1222.87 C 441.88 1178.37 441.615 1118.06 420.591 1076.21 C 415.521 1075.74 406.67 1073.79 405.089 1069.16 C 402.13 1060.48 403.819 1039.56 403.621 1030.96 C 401.835 953.169 404.714 875.733 401.044 797.976 C 394.232 653.666 402.865 510.031 422.667 367.053 C 424.725 352.189 424.532 339.685 437.221 329.891 z" fill="rgb(0,0,0)" transform="translate(0,0)"></path>
<path d="M 886.376 468.316 L 886.972 468.332 L 887.229 469.007 C 875.723 476.551 856.807 488.552 844.811 494.396 C 806.674 512.977 765.47 526.306 726.847 544.143 C 711.053 551.437 693.39 557.807 678.336 566.501 C 676.535 577.657 677.62 588.657 677.634 599.949 C 677.658 619.888 678.819 640.639 678.301 660.501 C 674.643 793.733 674.114 927.032 676.715 1060.29 C 671.227 1044.12 665.269 1025.89 658.101 1010.44 C 654.216 1002.08 650.055 999.244 641.713 996.714 C 641.915 991.462 642.33 985.66 642.886 980.417 C 647.296 938.826 646.4 897.66 645.761 855.911 C 644.714 809.58 642.325 765.017 639.327 717.895 C 636.779 679.008 642.778 637.088 631.996 599.394 C 630.289 593.43 622.412 587.99 616.102 590.316 C 600.195 596.178 585.035 604.633 570.012 612.516 C 545.121 625.88 520.027 638.86 494.737 651.453 C 505.521 629.128 513.104 599.407 521.316 575.518 C 576.982 558.627 629.051 536.481 683.893 517.638 C 717.08 506.236 753.265 498.737 787.373 490.52 C 820.483 482.544 852.899 474.857 886.376 468.316 z" fill="rgb(255,255,255)" transform="translate(0,0)"></path>
<path d="M 439.13 420.659 L 440.503 422.131 C 451.675 468.591 452.313 539.09 453.077 587.27 C 454.14 642.819 454.43 698.381 453.945 753.938 C 453.547 794.251 451.912 836.188 452.404 876.325 C 453.161 938.137 457.197 1000.26 457.281 1062.21 C 457.309 1082.9 459.662 1100.44 458.709 1122.04 C 457.611 1118.84 456.692 1114.15 455.917 1110.76 C 451.758 1092.71 445.665 1058.65 428.79 1049.19 C 426.904 1027.86 427.075 995.739 426.981 973.963 L 426.246 864.25 C 425.442 804.447 422.175 744.67 421.987 684.695 C 422.175 628.586 424.268 572.499 428.263 516.532 C 429.567 495.866 433.346 439.596 439.13 420.659 z" fill="rgb(255,255,255)" transform="translate(0,0)"></path>
<path d="M 1921.84 397.722 C 1922.29 397.701 1922.73 397.663 1923.17 397.661 C 1926.46 397.644 1929.9 398.043 1932.21 400.662 C 1941.69 411.446 1955.67 621.559 1957.75 653.508 C 1958.77 669.158 1958.34 685.519 1960.12 701.033 C 1961.45 712.609 1971.76 726.307 1968.77 737.917 C 1967.53 742.717 1960.58 745.813 1956.64 748.171 C 1955.73 755.794 1955.98 771.206 1955.81 779.387 C 1955.59 804.077 1954.99 827.347 1954.46 852.149 C 1952.92 928.112 1942.56 1005.95 1950.54 1081.71 C 1952.62 1101.47 1973 1111.52 1946.32 1128.1 C 1945.01 1184.33 1951.05 1244.04 1948.06 1300.45 C 1947.74 1306.37 1938.76 1313.21 1931.94 1311.18 C 1929.24 1310.36 1926.95 1308.56 1925.51 1306.14 C 1922.81 1301.54 1916.31 1276.96 1914.16 1270.17 C 1908.58 1252.52 1902.31 1235.08 1895.36 1217.92 C 1873.32 1163.54 1845.28 1110.78 1821.72 1055.95 C 1818.48 1064.54 1815.95 1074.83 1813.5 1083.81 C 1803.57 1120.09 1791.61 1155.77 1780.21 1191.61 C 1777.2 1201.08 1771.23 1218.4 1759.94 1219.8 C 1748.59 1221.21 1746.19 1210.32 1744.66 1201.61 C 1740.13 1170.96 1736.8 1139.66 1732.7 1108.94 C 1722.63 1033.64 1713.29 958.241 1704.68 882.759 C 1700.42 843.647 1697.29 804.447 1692.77 765.398 C 1690.85 748.715 1681.23 730.024 1683.47 712.341 C 1684.52 704.072 1686.93 696.725 1686.51 688.214 C 1683.69 640.191 1681.21 592.15 1679.06 544.092 C 1677.97 522.124 1676.69 500.068 1675.89 478.087 C 1675.79 475.244 1675.8 473.224 1677.39 470.866 C 1681.97 464.079 1688.57 470.145 1694.6 468.093 C 1700.94 464.704 1703.52 459.285 1711.34 458.54 C 1732.26 456.546 1739.34 477.443 1741.6 494.4 C 1745.09 520.612 1746.41 547.306 1748.26 573.74 C 1750.83 614.81 1754.23 655.824 1758.44 696.757 C 1763.12 743.781 1770.54 790.894 1774.98 838.065 C 1776.92 858.726 1782.09 878.728 1783.52 900.029 C 1793.96 862.719 1802.77 824.49 1812.97 787.088 C 1814.57 781.22 1819.75 768.401 1825.67 766.025 C 1848.23 757.078 1838.88 795.09 1840.88 807.067 C 1848.59 853.158 1852.94 903.695 1868.16 948.066 C 1875.57 867.141 1879.63 786.714 1884.37 705.613 C 1887.83 646.422 1894.16 586.152 1898.02 526.865 C 1901.29 498.948 1904.36 470.907 1908.08 443.048 C 1910.08 428.043 1910.45 408.382 1921.84 397.722 z" fill="rgb(0,0,0)" transform="translate(0,0)"></path>
<path d="M 1710.98 483.864 C 1720.36 484.68 1719.97 490.688 1721.06 501.592 C 1726.41 555.225 1730.1 609.196 1734.48 662.936 C 1740.59 734.689 1748.01 806.325 1756.72 877.809 C 1760.51 907.39 1762.53 937.258 1767.31 966.633 C 1768.13 971.648 1773.67 987.281 1781.17 983.449 C 1788.87 979.509 1790.98 966.676 1793.21 959.207 C 1803.74 924.793 1809.58 887.13 1822.65 853.712 C 1829.86 884.999 1856.98 1036.42 1875.98 1054 C 1884.28 1056.32 1888.18 1051.13 1888.8 1043.42 C 1889.84 1030.29 1890.31 1017.2 1890.86 1004.05 C 1891.76 980.132 1892.85 956.218 1894.13 932.313 C 1899.9 831.209 1904.39 732.732 1912.23 631.619 L 1917.16 564.271 C 1918.18 550.198 1919.02 532.317 1921.76 518.775 L 1922.14 516.947 C 1926.94 553.211 1929.36 586.672 1931.91 623.116 C 1934.82 664.714 1937.63 700.025 1935 741.75 C 1933.16 825.273 1929.96 906.369 1925.72 989.792 C 1921.75 1067.88 1918.3 1143.16 1923.27 1221.27 C 1913.76 1202.59 1905.95 1181.48 1896.87 1162.44 C 1882.66 1132.66 1868.59 1100.77 1855 1070.97 C 1848.17 1056 1827.76 999.36 1818.47 991.74 C 1815.22 990.676 1812.84 990.484 1809.8 992.356 C 1801.1 997.702 1799.05 1043.18 1796.46 1055.46 C 1788.6 1092.84 1775.06 1130.24 1762.93 1166.44 L 1737.03 961.954 C 1734.08 939.195 1730.4 915.922 1727.81 893.192 C 1718.94 810.386 1712.14 727.372 1707.4 644.228 C 1705.37 612.499 1703.58 580.755 1702.04 548.998 C 1701.17 531.903 1699.63 512.585 1700.02 495.655 C 1704.45 489.686 1705.49 488.615 1710.98 483.864 z" fill="rgb(255,255,255)" transform="translate(0,0)"></path>
<path d="M 1296.09 1167.05 C 1310.07 1165.57 1314.85 1171.62 1318.5 1184.6 C 1327 1214.82 1331.57 1245.8 1339.93 1276.13 C 1358.24 1342.62 1379.6 1408.16 1399.47 1474.19 C 1419.92 1473.06 1440.31 1470.9 1460.55 1467.71 C 1488.74 1463.02 1647.72 1427.73 1665.47 1438.37 C 1668.53 1440.21 1670.42 1443.04 1671.22 1446.5 C 1672.2 1450.67 1671.93 1457.66 1669.23 1461.22 C 1661.1 1471.93 1630.79 1469.8 1618.29 1471.36 C 1577.88 1476.4 1538.22 1489.17 1498.67 1498.67 C 1470.06 1505.55 1440.84 1510.03 1412.06 1516.26 C 1414.45 1531.85 1419.44 1547.2 1422.63 1562.38 C 1432.92 1611.12 1453.28 1655.88 1471.01 1702.12 C 1482.38 1731.78 1447.73 1750.73 1433.86 1726.89 C 1427.9 1716.64 1420.81 1695.47 1416.42 1683.69 C 1404.13 1651.47 1392.75 1618.9 1382.3 1586.03 C 1376.62 1568.02 1367.68 1532.81 1358.86 1517.83 C 1339.68 1515.48 1314.67 1520.35 1295.9 1525.52 C 1291.39 1565.83 1281.46 1703.58 1260.64 1726.92 C 1256.67 1731.38 1250.84 1734.88 1244.74 1734.96 C 1240.01 1735.03 1234.15 1732.75 1230.89 1729.28 C 1225.48 1723.55 1225.12 1714.06 1225.22 1706.58 C 1225.47 1687.29 1230.25 1667.9 1232.8 1648.78 C 1238.25 1610.92 1241.9 1572.81 1243.77 1534.6 C 1222.77 1537.67 1201.4 1541.53 1180.4 1544.12 C 1165.63 1545.93 1147.99 1546.4 1133.03 1547.07 C 1139.95 1576.92 1149.3 1607.48 1156.5 1638.64 C 1160.6 1654.73 1177.33 1700.21 1173.41 1712.65 C 1171.8 1717.74 1168.19 1721.97 1163.26 1724.13 C 1159.83 1725.64 1156.31 1725.63 1152.93 1724 C 1147.31 1721.28 1143.42 1715.41 1140.66 1710.04 C 1130.5 1690.29 1124.5 1666.74 1117.9 1645.56 C 1108.59 1614.66 1098.54 1583.98 1087.76 1553.56 L 976.972 1567.78 C 969.367 1591.92 967.959 1626.01 963.698 1651.49 C 962.786 1664.98 960.571 1675.2 958.097 1688.53 C 955.051 1704.93 938.729 1717.73 924.865 1704.16 C 911.655 1691.22 917.548 1658.48 919.417 1640.95 C 921.756 1619.01 925.779 1595.71 927.761 1572.74 C 901.496 1573.71 849.502 1575.49 826.358 1565.4 C 822.933 1563.9 818.737 1561.31 817.814 1557.38 C 817.082 1554.26 818.571 1549.76 820.689 1547.5 C 829.922 1537.66 914.248 1535.7 931.33 1533.94 C 937.4 1505.22 940.716 1471.94 947.17 1444.04 C 955.151 1409.54 963.899 1380.66 969.867 1344.95 C 973.282 1324.26 976.3 1303.52 978.92 1282.72 C 981.131 1264.4 986.544 1190.77 1003.27 1184.09 C 1007.18 1182.54 1011.57 1182.72 1015.35 1184.59 C 1029.52 1191.47 1033.41 1231.22 1037.97 1246.32 C 1049.41 1284.24 1058.64 1322.22 1073.66 1359.03 C 1093.74 1408.22 1106.31 1460.63 1122.68 1511.35 C 1137.85 1510.67 1167.13 1504.09 1183.04 1501.14 C 1202.94 1497.45 1228.73 1494.07 1247.82 1489.25 C 1251.76 1428.62 1258.06 1368.43 1265.19 1308 C 1269.88 1268.26 1269.76 1225.9 1281.4 1187.4 C 1284.14 1178.35 1288.11 1172.2 1296.09 1167.05 z" fill="rgb(0,0,0)" transform="translate(0,0)"></path>
<path d="M 1300.33 1201.6 C 1302.26 1206.99 1303.14 1212.53 1304.19 1218.16 C 1310.03 1249.43 1319.19 1279.92 1327.84 1310.54 L 1406.77 1580.07 C 1412.51 1599.65 1418.76 1619.08 1425.53 1638.33 C 1432.17 1656.76 1452.29 1702.23 1452.85 1718.5 C 1448.84 1709.06 1445.52 1698.95 1441.31 1689.74 C 1404.8 1609.95 1385.07 1523.08 1358.8 1439.58 C 1349.04 1408.53 1337.39 1377.11 1326.56 1346.25 C 1317.73 1321.25 1311.64 1294.78 1302.71 1270.71 C 1298.4 1293.6 1298.93 1313.3 1296.64 1332.96 C 1291.4 1377.85 1284.44 1431.07 1278.99 1474.5 C 1274.48 1510.51 1261.04 1689.14 1245.62 1710.37 C 1250.74 1665.02 1258.28 1620.2 1261.67 1574.56 C 1264.68 1533.92 1266.12 1493.09 1269.6 1452.48 C 1274.08 1400.16 1279.67 1348.3 1286.94 1296.31 C 1291.38 1264.53 1288.38 1232.52 1300.33 1201.6 z" fill="rgb(255,255,255)" transform="translate(0,0)"></path>
<path d="M 1019.33 1345.71 C 1023.81 1352.41 1039.33 1406.46 1042.92 1416.97 C 1054.33 1450.28 1065.59 1484.55 1075.92 1518.23 L 1034.24 1522.83 C 1018.3 1524.16 1000.39 1526.57 984.325 1528.35 C 984.655 1499.45 1000.17 1442.4 1007.01 1413.31 C 1012.88 1388.38 1015.03 1370.37 1019.33 1345.71 z" fill="rgb(255,255,255)" transform="translate(0,0)"></path>
<path d="M 1011.62 1252.02 C 1006.96 1293.12 1003.12 1336.9 995.349 1377.4 C 986.959 1421.09 972.558 1462.55 966.758 1507.18 C 962.22 1542.1 954.717 1577.35 950.016 1612.29 C 947.524 1627.19 943.474 1672.4 938.769 1683.22 L 937.597 1683.46 C 930.475 1658.99 958.776 1502.56 963.072 1467.73 C 966.593 1439.18 983.389 1382.23 987.907 1350.32 C 990.371 1332.92 1006.91 1212.6 1009.12 1209.29 C 1010.22 1209.66 1010.99 1209.58 1011.17 1210.97 C 1019.8 1275.26 1042.92 1337.31 1064.14 1398.44 C 1074.9 1429.44 1085.43 1461.37 1095.47 1492.75 C 1107.62 1531.35 1119.26 1570.1 1130.39 1609.01 C 1135.47 1627.06 1140.2 1647.54 1145.5 1664.99 L 1142.85 1664.29 L 1048.08 1365.98 C 1036.69 1329.27 1020.97 1288.94 1011.62 1252.02 z" fill="rgb(255,255,255)" transform="translate(0,0)"></path>
<path d="M 1312.01 1377.65 C 1321.27 1392.48 1344.4 1457.74 1347.67 1474.8 L 1333.76 1476.35 C 1322.73 1477.43 1311.71 1478.66 1300.71 1480.04 C 1305.32 1446.08 1307.95 1411.64 1312.01 1377.65 z" fill="rgb(255,255,255)" transform="translate(0,0)"></path>
<path d="M 1506.43 1475.26 L 1508.98 1475.49 L 1507.96 1477.08 C 1493.22 1484.29 1427.91 1494.24 1408.77 1496.46 C 1406.14 1495.53 1407.25 1496.23 1405.58 1494.08 C 1407.04 1492.35 1407.83 1492.3 1410.25 1492.02 C 1442.47 1488.26 1474.53 1481.44 1506.43 1475.26 z" fill="rgb(255,255,255)" transform="translate(0,0)"></path>
<path d="M 1191.21 1519.39 C 1205.47 1516.57 1229.91 1511.03 1243.61 1509.87 L 1244.85 1510.83 L 1244.79 1513.56 C 1241.55 1516.01 1201.67 1520.53 1194.93 1521.39 L 1191.21 1519.39 z" fill="rgb(255,255,255)" transform="translate(0,0)"></path>
<path d="M 1074.53 1535.39 L 1078.49 1534.97 L 1079.07 1535.79 C 1066.7 1540.32 1019.81 1544.16 1005.75 1543.79 L 1001.79 1543.62 C 1023.94 1540.42 1051.68 1538.11 1074.53 1535.39 z" fill="rgb(151,152,153)" transform="translate(0,0)"></path>
<path d="M 1329.83 1499.02 C 1320.91 1499.96 1303.71 1505.19 1298.17 1505.16 L 1297.6 1503.63 L 1299.04 1501.63 C 1306.69 1498.1 1321.9 1497.42 1330.83 1496.61 L 1329.83 1499.02 z" fill="rgb(255,255,255)" transform="translate(0,0)"></path>
<path d="M 1142.85 1664.29 L 1145.5 1664.99 C 1147.37 1674.04 1155.21 1695.63 1156 1700.42 L 1154.83 1700.74 C 1151.49 1697.63 1144.52 1670.27 1142.85 1664.29 z" fill="rgb(214,216,219)" transform="translate(0,0)"></path>
<path d="M 908.273 1553.58 C 915.66 1552.95 918.155 1552.81 925.54 1553.45 C 921.81 1555.89 904.064 1556.04 899.216 1556.13 C 893.593 1556.2 888.689 1555.9 883.108 1555.57 C 891.211 1554.47 900.061 1554.09 908.273 1553.58 z" fill="rgb(214,216,219)" transform="translate(0,0)"></path>
<path d="M 1330.83 1496.61 C 1338.85 1495.5 1344.3 1494.93 1352.51 1495.48 C 1348.71 1497.49 1334.51 1498.57 1329.83 1499.02 L 1330.83 1496.61 z" fill="rgb(151,152,153)" transform="translate(0,0)"></path>
<path d="M 1172.33 1523.18 C 1180.03 1521 1183.25 1520.39 1191.21 1519.39 L 1194.93 1521.39 C 1186.5 1522.47 1180.83 1522.9 1172.33 1523.18 z" fill="rgb(214,216,219)" transform="translate(0,0)"></path>
<path d="M 1283.54 405.104 C 1289.93 404.79 1304.52 405.843 1312.89 406.244 C 1337.7 409.036 1378.35 403.898 1401.64 411.342 C 1416.01 415.934 1454 447.986 1469.32 456.157 C 1476.06 459.756 1474.6 456.794 1481.18 455.866 C 1494.66 453.963 1497.22 476.963 1502.93 485.429 C 1518.67 519.198 1535.92 555.134 1543.88 591.663 C 1545.01 596.872 1538.77 602.841 1535.6 606.04 C 1520.32 624.618 1506.71 650.479 1492.61 670.581 C 1474.76 696.036 1455.46 719.733 1436.27 743.966 C 1407.75 779.979 1378.83 830.975 1344.02 859.498 C 1343.84 868.918 1344.18 878.723 1344.62 888.143 C 1347.55 950.613 1351.4 1013.66 1350.95 1076.21 L 1351.25 1113.76 C 1351.25 1124.31 1348.33 1150.16 1328.76 1132.43 C 1325.02 1125.85 1323.16 1112.3 1321.2 1105.6 C 1311.34 1071.94 1307.78 1031.72 1287.3 1002.69 C 1282.79 1008.71 1278.36 1015.32 1270.35 1016.61 C 1265.95 1017.09 1260.87 1013.46 1260.54 1008.81 C 1259.32 991.743 1259.61 974.122 1258.93 957.01 L 1253.75 820.124 C 1236.44 810.165 1243.11 800.922 1244.46 783.631 C 1246.13 762.092 1251.07 740.378 1252.31 718.811 C 1253.53 697.442 1253.66 675.711 1253.67 654.297 C 1253.72 621.028 1252.51 587.823 1249.84 554.663 C 1248.66 540.042 1248.61 525.258 1247.06 510.661 C 1231.49 512.626 1181.96 517.389 1168.97 502.619 C 1164.73 497.799 1171.19 488.799 1175.59 485.232 C 1201.82 463.967 1228.56 442.685 1256.37 423.472 C 1265.38 417.239 1273.89 410.36 1283.54 405.104 z" fill="rgb(0,0,0)" transform="translate(0,0)"></path>
<path d="M 1316.57 433.427 C 1349.09 431.916 1382.62 429.061 1411.49 445.584 C 1472.5 480.508 1501.43 520.323 1517.74 588.261 C 1505.2 605.898 1495.59 625.707 1482.06 644.937 C 1454.43 684.365 1423.84 720.748 1395.59 759.865 C 1376.33 784.735 1360.9 815.033 1336.49 835.226 C 1332.98 838.428 1319.29 847.343 1319.56 852.283 C 1321.36 885.327 1324.02 918.035 1324.03 951.199 C 1325.53 981.603 1327.29 1006.4 1327.03 1037 C 1319.07 1012.8 1313.09 980.944 1283.21 977.651 C 1281.88 918.297 1276.72 858.714 1277.99 799.142 C 1278.93 754.823 1279.48 710.56 1278.79 666.224 C 1278.08 630.204 1276.94 594.195 1275.37 558.202 C 1274.84 545.88 1275.02 496.56 1266.65 488.976 C 1258.98 482.032 1222.63 488.353 1209.18 488.913 C 1223.79 474.762 1265.13 446.96 1283.22 434.929 L 1316.57 433.427 z" fill="rgb(255,255,255)" transform="translate(0,0)"></path>
<path d="M 1319.57 505.026 C 1329.48 504.801 1340.63 509.794 1350.1 512.541 C 1362.05 516.009 1374.33 518.288 1386.18 522.124 C 1403.2 527.634 1443.55 546.379 1458.04 557.493 C 1462.13 560.628 1464.43 563.91 1464.92 569.139 C 1465.51 575.321 1465.77 606.301 1464.33 611.526 C 1459.92 627.459 1414.66 687.603 1401.65 704.381 C 1389.4 720.794 1376.87 735.84 1363.11 751.044 C 1355.42 762.486 1329.67 764.977 1328.99 747.27 C 1326.17 673.703 1326.48 599.791 1320.73 526.256 C 1311.67 519.735 1310.62 512.413 1319.57 505.026 z" fill="rgb(0,0,0)" transform="translate(0,0)"></path>
<path d="M 1349.81 540.39 C 1364.48 543.153 1390.22 549.893 1403.52 555.629 C 1415.04 560.593 1421.95 566.496 1435.46 570.724 C 1440.07 609.772 1438.59 617.606 1413.39 647.804 C 1408.53 653.632 1396.2 672.608 1391.16 679.945 C 1379.32 694.854 1366.03 711.48 1352.77 725.075 C 1351.18 663.776 1348.3 601.72 1349.81 540.39 z" fill="rgb(255,255,255)" transform="translate(0,0)"></path>
<path d="M 638.044 1153.02 C 668.485 1148.87 668.42 1186.22 667.272 1206.71 C 675.952 1205.06 684.663 1203.58 693.401 1202.27 C 705.285 1200.6 717.307 1199.08 729.568 1199.46 C 808.889 1201.9 939.316 1267.46 863.991 1360.57 C 834.004 1397.64 793.798 1417.65 754.774 1443.62 C 735.014 1456.76 723.559 1462.84 699.595 1465.69 C 728.229 1487.37 920.474 1697.47 901.52 1723.79 C 900.198 1725.67 898.065 1726.8 895.775 1726.84 C 869.521 1727.3 738.374 1565.83 715.631 1539.61 C 707.389 1530.02 698.698 1520.82 689.588 1512.05 C 683.489 1506.36 676.37 1501.29 669.328 1496.85 C 669.024 1521 668.067 1545.17 668.081 1569.31 C 668.097 1597.51 675.178 1693.19 658.837 1710.96 C 655.521 1714.57 651.175 1716.39 646.309 1716.57 C 639.216 1716.82 635.659 1713.71 630.677 1709.09 C 625.853 1695.57 627.533 1645.33 626.871 1628.18 C 625.057 1581.2 623.64 1533.86 624.245 1486.86 C 587.023 1488.06 535.886 1508.63 500.946 1521.03 C 488.591 1525.42 469.323 1544.55 457.15 1540.88 C 424.4 1510.57 608.648 1453.31 623.556 1449.65 C 624.105 1431.08 623.335 1409.54 623.064 1390.8 C 621.929 1343.54 621.249 1296.26 621.023 1248.98 C 581.922 1255.67 551.584 1264.21 515.675 1281.3 C 497.588 1289.9 482.617 1268.01 514.783 1253.04 C 549.864 1236.71 581.426 1222.81 620.107 1216.23 C 620.576 1194.83 618.229 1166.34 638.044 1153.02 z" fill="rgb(0,0,0)" transform="translate(0,0)"></path>
<path d="M 694.73 1246.58 C 712.898 1245.16 730.629 1245.05 749.551 1248.92 C 775.94 1253.67 819.494 1273.59 835.056 1296.14 C 858.189 1329.66 781.47 1375.89 759.41 1389.57 C 740.799 1401.16 689.55 1428.83 668.371 1437.44 C 667.643 1422.96 667.251 1408.19 667.229 1393.69 C 667.154 1344.78 664.894 1296.4 666.01 1247.48 C 675.588 1247.34 685.163 1247.05 694.73 1246.58 z" fill="rgb(255,255,255)" transform="translate(0,0)"></path>
<path d="M 646.13 1645.65 C 644.78 1611.56 643.777 1577.45 643.122 1543.33 C 642.695 1499.39 643.419 1455.14 642.735 1411.24 C 641.626 1365.79 641.002 1320.33 640.864 1274.86 C 640.664 1244.77 637.89 1198.16 645.73 1170.52 C 647.98 1184.01 647.788 1195.08 647.687 1208.68 C 647.415 1245 646.702 1281.24 647.084 1317.57 L 649.15 1560.44 C 649.422 1597.45 653.779 1645.63 647.753 1681.54 C 648.127 1686.06 648.148 1685.9 647.088 1690.3 C 644.935 1686.98 645.884 1652 646.13 1645.65 z" fill="rgb(255,255,255)" transform="translate(0,0)"></path>
<path d="M 646.13 1645.65 C 647.754 1657.84 645.94 1669.75 647.753 1681.54 C 648.127 1686.06 648.148 1685.9 647.088 1690.3 C 644.935 1686.98 645.884 1652 646.13 1645.65 z" fill="rgb(100,101,104)" transform="translate(0,0)"></path>
<path d="M 712.822 1220.38 C 757.218 1213.89 853.526 1245.96 866.606 1295.89 C 872.868 1319.79 844.883 1354.69 827.911 1368.89 C 796.346 1395.31 737.557 1437.49 698.142 1446.6 C 705.368 1441.54 710.494 1438.89 718.388 1434.76 C 756.211 1415.13 861.091 1359.76 859.14 1309.37 C 857.11 1256.96 765.724 1227.45 723.077 1226.81 C 707.412 1226.57 688.78 1227.25 672.045 1227.9 C 682.518 1223.9 701.266 1221.9 712.822 1220.38 z" fill="rgb(255,255,255)" transform="translate(0,0)"></path>
<path d="M 683.356 1477.78 C 701.373 1484.44 843.183 1647.37 855.212 1670.11 C 836.346 1654.77 815.802 1626.55 799.575 1608.32 C 760.532 1564.46 725.496 1518.94 683.356 1477.78 z" fill="rgb(255,255,255)" transform="translate(0,0)"></path>
<path d="M 1604.34 296.948 C 1612.48 297.524 1614.58 300.263 1620.09 305.863 C 1623.87 321.459 1627.85 367.886 1629.52 386.036 C 1638.31 481.205 1642.61 578.066 1647.57 673.605 C 1654.61 790.96 1659.59 908.429 1662.53 1025.96 C 1663.92 1060.31 1664.86 1094.67 1665.36 1129.05 C 1665.8 1150.6 1666.19 1171.92 1665.33 1193.54 C 1664.98 1202.52 1659.98 1215.68 1648.41 1208.06 C 1640.93 1203.14 1640.59 1194.4 1639.41 1186.25 C 1635.33 1159.86 1628.83 1133.66 1623.53 1107.46 C 1617.9 1079.44 1613.97 1050.44 1601.12 1024.59 C 1598.43 1019.2 1575.56 1030.68 1571.46 1019.52 C 1568.05 1010.25 1572.12 1005.63 1573.58 996.592 C 1578.09 968.767 1577.1 940.5 1578.08 912.424 C 1578.18 837.447 1575.68 761.855 1571.26 686.994 C 1566.76 610.653 1562.41 534.923 1569.7 458.493 C 1573.57 417.995 1577.75 376.429 1588.45 337.08 C 1592.29 322.98 1590.87 304.89 1604.34 296.948 z" fill="rgb(0,0,0)" transform="translate(0,0)"></path>
<path d="M 1605.75 367.517 C 1612.97 384.292 1619.29 553.918 1620.74 583.804 C 1627.74 705.646 1633.61 827.55 1638.36 949.501 C 1638.86 964.353 1636.1 982.625 1637.19 995.959 C 1639.31 1021.87 1640.22 1045.97 1640.55 1071.95 L 1635.88 1054.46 C 1629.1 1026.81 1625.35 1006.39 1596.76 994.362 C 1607.12 930.94 1600.23 862.299 1597.12 798.319 C 1594.73 749.257 1593.36 700.118 1591.12 651.017 C 1588.17 586.602 1584.91 522.576 1590.51 458.166 C 1593.19 427.304 1599.53 397.792 1605.75 367.517 z" fill="rgb(255,255,255)" transform="translate(0,0)"></path>
<metadata><recraft-signature>{"signed_by": "recraft", "signature_b64": "91R2m0ITEQvZ1759Ogznb2vlNlcC7BtCgKf/Y4rHD6XjCZzoUNxdfo1Q7PvmlxSVPWXqu+8UhaIpxkpg8J1CAg==", "signing_algo": "Ed25519", "generation_timestamp": 1776301968, "identifier": "69545b40-7b71-434e-a32e-12f81551c3c8"}</recraft-signature></metadata></svg>