<svg xmlns="http://www.w3.org/2000/svg" height="1024" preserveAspectRatio="none" style="display: block;" version="1.1" viewBox="0 0 2048 2048" width="1024">
<path d="M 0 0 L 2048 0 L 2048 2048 L 0 2048 L 0 0 z" fill="rgb(254,254,254)" transform="translate(0,0)"></path>
<path d="M 1484.82 617.074 C 1497.96 608.159 1516.45 599.604 1530.66 591.51 C 1592.75 556.144 1657.47 526.422 1717.3 487.084 C 1732.19 475.211 1750.75 481.7 1742.53 502.896 C 1720.72 559.134 1700.19 617.594 1676.56 672.984 C 1701.29 677.715 1725.87 685.82 1750.22 692.252 C 1758.82 694.522 1772.02 698.176 1777.16 705.754 C 1782.06 712.977 1775.39 722.275 1768.87 725.881 C 1753.56 734.356 1737.59 740.938 1722.44 749.743 L 1552.52 848.511 C 1541.11 890.915 1528.78 928.136 1515.97 969.832 L 1475.97 1101.68 C 1464.6 1138.35 1454.46 1175.48 1442.83 1212.07 C 1441.83 1218.29 1445.57 1224.58 1443.98 1230.74 C 1439.48 1248.1 1434.07 1265.43 1429.26 1282.73 C 1421 1313.07 1412.25 1343.28 1403.01 1373.33 C 1393.66 1403.68 1382.76 1436.48 1374.36 1467.03 C 1380.42 1480.12 1386.85 1493.05 1393.62 1505.79 C 1377.11 1526.85 1352.76 1546.43 1335.81 1567.63 C 1332.33 1571.99 1328.03 1575.98 1322.95 1578.38 C 1316.78 1578.03 1275.14 1550.48 1262.85 1544.52 L 1261.33 1543.78 C 1258.52 1555.62 1255.84 1567.92 1252.15 1579.48 C 1248.22 1582.6 1243.98 1584.8 1239.76 1587.48 C 1214.62 1603.44 1187.86 1618.53 1164.21 1636.6 C 1158.22 1662.42 1154.73 1719.54 1126.71 1663.5 C 1110.79 1665.67 1094.23 1671.36 1078.2 1674.19 C 1056.12 1678.08 1034.37 1678.8 1012.07 1681.35 C 1008.91 1729.27 1002.27 1771.14 985.056 1816.04 C 981.204 1824.79 979.15 1837.65 974.627 1845.9 C 956.838 1878.33 940.432 1856.49 930.806 1834.24 C 923.105 1816.45 917.929 1804.94 913.14 1786.94 C 901.931 1746.7 900.187 1678.43 898.44 1636.24 C 886.416 1626.68 866.445 1615.92 852.685 1608.39 C 823.414 1592.24 793.572 1577.15 763.218 1563.14 C 722.961 1574.35 723.712 1573.41 731.574 1533.61 C 696.012 1514.44 665.507 1490.17 626.765 1476.98 C 617.259 1473.32 616.468 1462.84 614.068 1454.75 C 604.128 1421.23 598.75 1384.81 588.838 1351.57 C 575.729 1354.5 529.511 1366.75 520.427 1361.66 C 515.506 1352.95 527.565 1343.12 533.397 1337.47 C 550.426 1320.98 568.351 1305.23 585.049 1288.4 C 575.656 1279.29 561.004 1269.17 550.216 1261.54 C 505.764 1230.11 463.198 1196.14 418.651 1164.87 C 414.839 1162.19 409.274 1157.55 411.203 1152.54 C 423.972 1144.11 439.735 1147.25 453.859 1148.28 C 489.766 1150.91 532.419 1150.19 568.012 1144.85 C 567.397 1136.96 567.105 1128.59 566.695 1120.65 C 560.385 1114.44 551.539 1107.92 546.048 1101.28 C 495.218 1039.79 461.506 960.639 486.441 881.21 C 507.958 812.669 541.139 758.835 602.834 723.191 C 607.683 707.253 611.737 685.743 615.756 668.91 C 636.866 652.193 656.93 641.836 668.695 614.942 C 671.974 607.445 674.607 600.5 677.544 592.851 C 679.038 588.959 678.736 589.148 681.471 588.08 C 685.145 589.141 688.923 595.446 691.491 598.559 C 696.312 604.465 701.855 609.743 707.99 614.27 C 744.524 641.057 801.991 640.083 845.071 633.403 C 850.065 618.359 854.564 602.651 859.241 587.459 C 867.686 557.579 888.962 484.41 933.129 519.43 C 953.596 535.658 954.068 604.88 953.983 629.269 C 1020.54 628.029 985.027 608.588 992.545 598.222 C 996.177 596.754 1028.76 594.759 1036.82 593.655 C 1041.93 584.605 1047.54 577.432 1053.23 569.035 C 1069.34 545.027 1087.82 518.854 1117.35 510.457 C 1169.6 495.599 1229.82 486.927 1283.77 481.41 C 1301.09 478.855 1318.11 486.734 1329.66 499.367 C 1351.92 523.717 1368.49 552.493 1382.15 582.337 C 1413.6 594.444 1455.04 604.072 1484.82 617.074 z" fill="rgb(35,31,32)" transform="translate(0,0)"></path>
<path d="M 1692.33 539.86 L 1693.63 540.531 C 1692.75 545.55 1685.96 560.63 1683.57 566.598 L 1653.4 643.016 C 1648.33 655.797 1642.87 668.632 1638.54 681.656 C 1636.91 686.565 1640.73 693.529 1645.37 695.424 C 1665.67 703.72 1686.48 706.427 1707.24 714.571 C 1662.22 735.972 1615.52 761.323 1570.77 783.853 C 1395.44 871.867 1222.89 965.32 1053.38 1064.08 C 1018.05 1084.84 985.413 1106.69 950.866 1128.4 C 885.749 1169.32 820.608 1209.56 758.218 1254.65 C 737.371 1269.71 716.373 1281.24 692.009 1289.44 C 673.835 1295.88 656.614 1304.06 637.838 1309.71 C 666.414 1291.75 696.695 1275.32 723.815 1254.69 C 726.649 1252.53 727.545 1251.43 727.887 1248.36 L 725.844 1247.45 C 703.746 1248.71 639.653 1289.15 617.097 1301.88 C 605.281 1308.49 592.65 1316.79 581.098 1324.08 C 592.725 1307.44 620.909 1282.4 633.95 1265.29 C 637.425 1260.72 638.311 1261.44 637.822 1255.97 L 635.906 1254.56 C 627.585 1253.59 614.006 1258.99 605.587 1261.78 C 594.386 1255.76 575.583 1242.06 564.774 1234.5 C 534.98 1213.65 509.923 1195.44 477.976 1178.09 C 522.5 1179.51 587.453 1175.61 630.083 1161.07 C 652.913 1151.4 674.714 1134.81 696.155 1123.33 C 747.832 1095.66 797.438 1066.23 847.642 1036.17 L 1223.6 812.433 C 1270.32 784.493 1318.87 756.318 1366.22 729.348 C 1403.61 707.92 1444.22 689.412 1481.1 667.257 C 1551.42 625.011 1624.22 585.404 1692.33 539.86 z" fill="rgb(254,254,254)" transform="translate(0,0)"></path>
<path d="M 1578.81 695.111 C 1588.56 694.632 1595.8 695.356 1603.8 702.036 C 1612.16 709.512 1625.27 718.749 1626.87 730.451 C 1628.64 743.38 1613.93 750.443 1602.82 750.888 C 1590.69 748.306 1581.13 740.562 1581.32 727.1 C 1581.49 714.405 1602.78 719.125 1601.89 710.062 C 1592.41 696.796 1579.27 702.313 1573.63 698.912 C 1574.94 696.274 1575.48 696.753 1578.81 695.111 z" fill="rgb(35,31,32)" transform="translate(0,0)"></path>
<path d="M 1604.9 739.369 C 1592.6 746.877 1580.37 735.314 1589.06 724.996 C 1592.18 723.677 1593.18 722.995 1596.62 723.044 C 1596.18 726.013 1593.62 726.912 1592.71 731.531 L 1593.73 732.071 C 1602.94 728.01 1605.19 720.756 1614.61 721.093 C 1616.26 721.992 1618.17 722.866 1618.41 725.08 C 1619.61 736.249 1615.16 740.289 1605.96 743.364 L 1606.49 742.456 L 1607.34 740.932 C 1609.55 737.098 1611.72 733.52 1610.39 728.941 C 1607.88 730.06 1606.22 736.136 1604.9 739.369 z" fill="rgb(254,254,254)" transform="translate(0,0)"></path>
<path d="M 1608.57 616.127 C 1641.51 617.578 1619.83 656.838 1594.72 661.785 C 1588.66 661.186 1578.22 657.428 1576.98 650.601 C 1573.88 633.595 1594.63 620.625 1608.57 616.127 z" fill="rgb(35,31,32)" transform="translate(0,0)"></path>
<path d="M 588.08 1198.23 C 617.476 1197.48 625.235 1226.37 596.637 1234.04 C 566.287 1236.11 558.1 1206.49 588.08 1198.23 z" fill="rgb(35,31,32)" transform="translate(0,0)"></path>
<path d="M 689.983 1155.24 C 701.406 1154.3 725.51 1156.1 726.824 1173.21 C 727.227 1178.46 716.527 1184.58 711.627 1185.92 C 704.65 1185.34 699.394 1185.11 692.701 1182.67 C 674.374 1176 661.274 1159.81 689.983 1155.24 z" fill="rgb(35,31,32)" transform="translate(0,0)"></path>
<path d="M 703.18 1162.88 C 712.176 1162.4 723.709 1166.3 715.548 1176.93 C 709.033 1177.25 702.431 1176.44 699.8 1169.56 C 700.177 1165.35 699.986 1166.73 703.18 1162.88 z" fill="rgb(254,254,254)" transform="translate(0,0)"></path>
<path d="M 898.289 1075.77 C 898.98 1076.25 900.359 1077.47 901.05 1078.06 C 899.046 1088.28 828.612 1156.95 816.789 1166.13 C 815.447 1164.54 813.44 1161.98 814.865 1159.96 C 830.639 1137.66 875.558 1087.51 898.289 1075.77 z" fill="rgb(35,31,32)" transform="translate(0,0)"></path>
<path d="M 1087.58 962.829 C 1089.12 962.57 1089.3 962.88 1091 963.316 L 1091.52 965.464 C 1088.03 972.429 1029.83 1020.38 1019.99 1027.17 L 1017.66 1027.4 C 1014.91 1023.37 1021.45 1017.72 1024.24 1014.4 C 1041.71 993.592 1064.28 976.589 1087.58 962.829 z" fill="rgb(35,31,32)" transform="translate(0,0)"></path>
<path d="M 1529.73 716.829 C 1531.84 719.969 1529.62 723.861 1527.69 726.694 C 1513.78 747.215 1499.11 768.274 1482.33 786.557 C 1480.91 788.104 1477.24 789.068 1475.23 789.586 C 1473.37 786.597 1472.95 786.478 1472.92 782.911 C 1476.71 773.966 1521.24 724.793 1529.73 716.829 z" fill="rgb(35,31,32)" transform="translate(0,0)"></path>
<path d="M 1318.44 808.652 C 1331.25 809.178 1336.52 823.447 1323.8 832.148 C 1309.22 831.756 1307.21 817.85 1318.44 808.652 z" fill="rgb(35,31,32)" transform="translate(0,0)"></path>
<path d="M 1525.44 862.93 L 1526.8 863.558 C 1526.66 871.024 1514.35 907.239 1511.66 915.892 L 1483.55 1007 L 1421.99 1211.5 C 1416.98 1203.12 1412.15 1194.69 1406.66 1186.85 C 1379.33 1147.86 1334.84 1153.72 1301.17 1180.69 C 1298.17 1183.09 1295.98 1184.62 1295.55 1188.53 C 1304.32 1191.45 1335.69 1165.49 1360.16 1170.89 C 1389.97 1177.46 1401.71 1206.43 1419.59 1230.01 C 1417.1 1245.7 1407.73 1276.25 1403.2 1292.2 L 1368.73 1411.53 C 1365.28 1423.44 1355.49 1452 1355.34 1463.99 C 1355.28 1468.34 1369.59 1491.62 1372.63 1498.59 L 1373.36 1500.26 C 1357.52 1515.44 1334.25 1539.84 1321.25 1556.71 C 1321.17 1535.84 1326.56 1518.5 1327.3 1498.31 C 1319.88 1491.02 1309.24 1486.52 1302.23 1480.03 C 1252.33 1433.87 1287.13 1347.86 1310.9 1296.73 C 1315.38 1285.82 1326.65 1268.7 1324.92 1256.79 C 1322.05 1237.09 1295.53 1232.07 1279.31 1234.59 C 1268.04 1236.35 1266.96 1241.96 1265.04 1251.32 C 1262.47 1263.86 1260.4 1275.68 1256.13 1287.72 C 1248.55 1309.37 1237.9 1330.04 1227.9 1350.53 C 1212.93 1381.23 1200.19 1405.28 1180.93 1433.36 C 1151.91 1472.33 1133.83 1450.53 1140.13 1410.51 C 1147.63 1362.81 1170.39 1328.11 1190.46 1285.63 C 1194.87 1276.28 1199.51 1261.74 1186.58 1256.99 C 1182.5 1255.5 1175.22 1254.82 1170.88 1256.45 C 1141.03 1271.06 1121.87 1303.79 1092.13 1318.82 L 1115.71 1284.1 C 1132.16 1259.53 1139.81 1241.52 1149.51 1213.46 C 1159.3 1185.15 1155.78 1142.71 1114.55 1151.77 C 1073.03 1160.9 1049.12 1204.18 1028.57 1238.26 C 1029.54 1213.19 1032.17 1188.32 1031.3 1163.08 C 1031.1 1157.12 1031.1 1150.8 1031.53 1144.85 C 1079.34 1116.38 1129.96 1093.59 1177.81 1065.12 C 1201.59 1050.97 1226.08 1037.69 1248.72 1021.61 C 1265.68 1009.57 1282.11 998.192 1300.14 987.808 C 1299.09 998.358 1296.63 1035.36 1308.24 1039.99 L 1310.12 1038.78 C 1316.54 1026.11 1317.63 992.891 1317.84 978.248 L 1327.8 972.801 C 1327.9 982.161 1326.9 1017.84 1334.56 1023.25 L 1336.14 1022.46 C 1340.45 1015.28 1343.88 975.414 1345.72 963.838 C 1348.95 960.937 1352.49 958.53 1356.01 955.984 C 1355.85 965.54 1353.87 995.853 1363.94 1000.64 L 1365.42 999.805 C 1370.48 987.672 1372.05 960.658 1373.13 946.741 C 1424.37 919.684 1475.15 891.743 1525.44 862.93 z" fill="rgb(254,254,254)" transform="translate(0,0)"></path>
<path d="M 1244.94 1034.45 C 1246.51 1034.89 1246.77 1034.79 1248.03 1035.76 C 1255.94 1041.8 1261.44 1096.8 1264.21 1109.92 C 1279.46 1125.69 1295.65 1120.15 1311.67 1131.02 C 1313.61 1132.33 1313.34 1134.09 1313.16 1135.86 C 1309.27 1140.47 1304.93 1141.9 1298.98 1142.44 C 1283.65 1143.82 1268.3 1144.82 1252.99 1146.34 C 1251.49 1153.53 1231.03 1218.1 1228.7 1220.62 C 1224.14 1218.56 1220.94 1209.29 1218.69 1204.34 C 1208.97 1183.67 1203.02 1163.28 1191.98 1141.18 C 1181.89 1139.66 1138.83 1139.66 1134.22 1133.86 C 1138.26 1127.31 1187.4 1118.22 1197.76 1116.6 C 1215.63 1088.45 1218.63 1060.46 1244.94 1034.45 z" fill="rgb(35,31,32)" transform="translate(0,0)"></path>
<path d="M 1245.21 1056.52 C 1249.11 1063.57 1250.99 1104.31 1249.68 1113.56 C 1247.69 1127.56 1239.32 1146.62 1234.94 1160.58 C 1232.03 1169.85 1231.54 1182.04 1228.62 1190.59 L 1226.75 1186.73 C 1223.13 1176.73 1212.08 1142.2 1214.29 1134.13 C 1220.04 1113.21 1236.62 1076.8 1245.21 1056.52 z" fill="rgb(254,254,254)" transform="translate(0,0)"></path>
<path d="M 1352.97 1045.07 C 1361.04 1046.51 1361.49 1047.37 1366.91 1053.79 C 1370.33 1067.16 1370.04 1080.43 1354.77 1085.1 C 1332.5 1082.51 1334.06 1051.68 1352.97 1045.07 z" fill="rgb(35,31,32)" transform="translate(0,0)"></path>
<path d="M 1392.4 1008.71 C 1399.8 1013.06 1399.29 1030.46 1398.81 1038.06 C 1395.85 1042.72 1394.99 1044.2 1390.3 1047.03 C 1376.48 1038.55 1382.49 1017.72 1392.4 1008.71 z" fill="rgb(35,31,32)" transform="translate(0,0)"></path>
<path d="M 1452.9 968.761 C 1456.24 968.666 1458.39 968.578 1461.37 970.315 C 1463.41 971.492 1464.76 973.58 1464.99 975.925 C 1465.26 978.86 1463.27 980.917 1461.5 982.987 C 1457.85 983.887 1457.84 984.061 1453.95 983.594 C 1447.99 979.435 1450.44 974.476 1452.9 968.761 z" fill="rgb(35,31,32)" transform="translate(0,0)"></path>
<path d="M 1399.9 954.447 C 1404.58 955.132 1406.67 954.821 1408.58 959.43 C 1408.18 962.917 1406.92 963.951 1404.74 966.717 C 1402.45 966.805 1402.01 966.669 1399.7 966.393 C 1396.3 963.848 1397.38 965.446 1396.16 961.567 C 1396.67 957.639 1397.07 957.498 1399.9 954.447 z" fill="rgb(35,31,32)" transform="translate(0,0)"></path>
<path d="M 1278.39 501.4 C 1290.36 499.5 1300.3 500.306 1310.67 508.405 C 1336.38 530.302 1363.08 578.737 1371.75 610.913 C 1379.19 638.532 1321.05 664.351 1305.63 684.816 C 1318.86 680.467 1364.43 654.014 1374.87 643.182 C 1385.85 631.783 1389.17 621.016 1388.94 605.685 C 1412.21 614.183 1436.19 623.296 1459.68 630.983 C 1417.1 656.309 1373.28 680.795 1330.35 705.646 L 1173.82 796.717 C 1106.56 835.27 1035.7 875.007 970.577 916.513 C 970.875 905.727 974.647 883.861 976.301 872.675 C 980.322 844.308 984.82 816.01 989.793 787.794 C 991.26 781.408 992.604 774.039 993.663 767.565 C 1001.86 717.479 1016 666.352 1017.06 615.487 C 1024.78 614.805 1034.63 613.13 1042.47 612.028 C 1069.24 637.766 1110 639.233 1143.38 627.032 C 1161.46 620.422 1181.45 604.252 1201.54 608.617 C 1230.08 614.818 1250.44 654.674 1292.67 661.266 C 1309.68 663.923 1333.71 655.142 1347.45 645.02 C 1352.79 641.088 1358.46 635.799 1359.36 628.854 C 1360.22 622.205 1356.33 616.194 1352.29 611.302 C 1330.78 585.221 1296.45 585.582 1269.88 568.675 C 1252.56 557.652 1236.31 532.293 1214.91 530.737 C 1187.59 528.751 1103.37 570.55 1083.39 588.774 C 1074.26 597.096 1073.3 605.5 1072.69 617.223 C 1062.8 611.919 1059.55 610.619 1052.64 601.754 C 1058.04 590.127 1076.94 563.08 1085.01 551.744 C 1088.63 546.648 1102.69 533.101 1108.43 531.099 C 1141.74 519.481 1182.5 516.057 1217.44 510.473 C 1237.84 507.214 1258.68 503.588 1278.39 501.4 z" fill="rgb(254,254,254)" transform="translate(0,0)"></path>
<path d="M 1131.9 710.7 C 1135.32 711.569 1135.62 711.925 1136.32 714.915 C 1134.48 721.454 1033.67 812.991 1018.64 827.325 C 1015.99 827.911 1017.08 828.222 1015.16 827.005 C 1016.66 812.139 1112.4 720.942 1131.9 710.7 z" fill="rgb(35,31,32)" transform="translate(0,0)"></path>
<path d="M 1234.05 665.675 C 1236.61 665.905 1235.64 665.315 1237.23 667.044 C 1235.84 671.757 1226.86 679.128 1222.88 682.318 C 1195.64 704.132 1170.7 732.796 1142.62 753.357 C 1140.63 752.916 1141.34 753.09 1139.56 751.726 C 1139.88 748.857 1148.65 740.127 1151.15 737.548 C 1176.27 711.616 1202.49 683.552 1234.05 665.675 z" fill="rgb(35,31,32)" transform="translate(0,0)"></path>
<path d="M 1069.76 658.714 C 1073.02 659.121 1073.3 659.475 1074.49 661.979 C 1073.8 665.227 1033.91 707.691 1028.75 711.297 C 1026.32 711.15 1027.06 711.421 1025.13 710.159 C 1026.31 698.524 1058.19 665.817 1069.76 658.714 z" fill="rgb(35,31,32)" transform="translate(0,0)"></path>
<path d="M 684.274 619.542 C 714.413 646.926 740.648 653.597 780.873 658.829 C 776.244 676.343 770.746 693.037 766.377 710.942 C 748.425 785.892 735.331 861.923 727.175 938.561 C 724.497 964.347 722.914 989.631 721.64 1015.46 C 720.994 1028.56 722.987 1057.6 720.037 1068.68 C 709.359 1076.48 695.232 1085.13 683.963 1092.15 C 663.741 1104.65 643.118 1116.49 622.125 1127.65 C 622.579 1085.73 619.284 1044.61 622.702 1002.31 C 633.117 873.433 660.16 746.335 684.274 619.542 z" fill="rgb(254,254,254)" transform="translate(0,0)"></path>
<path d="M 674.921 1054.1 C 689.495 1052.88 698.943 1063.44 684.947 1073.05 C 671.609 1073.61 661.545 1064.65 674.921 1054.1 z" fill="rgb(35,31,32)" transform="translate(0,0)"></path>
<path d="M 901.558 1214.94 L 904.391 1215.08 C 907.512 1221.78 896.841 1235.34 894.285 1242.67 C 888.019 1260.63 889.627 1277.92 888.877 1296.61 C 888.14 1314.98 888.016 1333.43 887.974 1351.91 C 887.889 1403 888.191 1454.09 888.879 1505.18 C 858.277 1493.62 830.667 1487.57 797.827 1495.97 C 791.807 1497.51 777.451 1502.73 774.442 1508.02 C 774.888 1512.05 773.945 1510.71 776.338 1512.84 C 781.639 1512.69 788.621 1510.31 793.881 1508.68 C 824.855 1499.11 859.975 1502.34 888.153 1518.31 C 890.02 1519.37 889.807 1520.79 889.891 1522.53 C 887.288 1524.41 881.252 1521.22 877.757 1520.31 C 833.447 1508.75 790.071 1526.57 748.91 1541.21 C 749.73 1535.25 750.288 1529.27 750.582 1523.26 C 752.075 1495.28 749.653 1448.23 728.947 1427.13 C 709.98 1407.81 681.338 1394.01 654.376 1392.78 C 649.009 1375.51 644.438 1358.01 640.677 1340.32 C 661.705 1335.3 682.317 1328.9 702.912 1322.35 C 709.183 1320.36 715.421 1318.41 721.893 1317.17 C 724.725 1325.11 730.34 1346.97 737.102 1350.4 L 738.058 1348.54 C 738.011 1337.76 732.781 1325.44 729.129 1315.11 C 755.907 1302.13 782.92 1288.38 808.709 1273.55 C 838.513 1256.41 870.645 1228.77 901.558 1214.94 z" fill="rgb(254,254,254)" transform="translate(0,0)"></path>
<path d="M 653.581 1343.4 C 659.656 1345.65 668.672 1363.22 676.008 1368.94 C 694.785 1383.7 719.636 1387.13 735.844 1405.78 C 743.74 1414.86 759.972 1433.83 756.157 1446.35 C 751.306 1443.02 736.669 1415.51 726.276 1407.92 C 709.632 1395.75 691.944 1390.26 675.766 1378.04 C 666.956 1371.39 649.322 1355.1 653.581 1343.4 z" fill="rgb(35,31,32)" transform="translate(0,0)"></path>
<path d="M 884.772 1244.68 C 885.234 1245.05 885.998 1246.08 886.412 1246.59 C 881.293 1253.12 871.906 1262.06 865.812 1268.38 C 843.571 1291.43 823.993 1312.04 795.553 1327.45 L 794.618 1327.47 L 794.746 1325.97 C 813.795 1302.85 831.543 1287.73 854.435 1268.64 C 863.479 1261.1 874.814 1250.53 884.772 1244.68 z" fill="rgb(35,31,32)" transform="translate(0,0)"></path>
<path d="M 765.108 1381.62 C 781.787 1382.25 790.937 1413.54 789.467 1427.77 C 784.16 1425.63 771.547 1390.49 765.717 1385.18 C 765.224 1384.73 765.146 1382.37 765.108 1381.62 z" fill="rgb(35,31,32)" transform="translate(0,0)"></path>
<path d="M 910.415 555.234 C 915.067 555.83 923.47 557.482 926.075 561.338 C 931.532 571.659 931.972 592.651 931.682 603.872 C 928.67 720.196 915.016 836.686 910.001 952.801 C 881.884 968.765 853.569 987.861 824.678 1004.39 C 819.406 1007.33 814.173 1009.95 808.786 1012.66 C 808.898 1004.62 810.183 994.028 810.833 985.747 C 812.834 959.579 815.617 933.476 819.18 907.473 C 832.441 805.444 852.352 696.69 884.266 598.692 C 887.977 587.296 892.776 572.471 898.377 561.97 C 900.986 557.077 905.301 556.49 910.415 555.234 z" fill="rgb(254,254,254)" transform="translate(0,0)"></path>
<path d="M 1004.34 1158.74 L 1006.16 1159.81 C 1008.45 1167.35 1005.11 1241.7 1003.96 1253.16 C 995.316 1265.74 975.586 1288.49 970.196 1301.13 C 959.635 1325.9 977.357 1356.27 986.365 1378.58 C 981.448 1393.62 971.968 1442.84 976.831 1458.41 C 980.308 1469.55 987.218 1474.04 996.742 1478.99 C 995.078 1521.11 990.588 1564.98 987.902 1607.28 C 986.295 1632.6 986.207 1668.44 982.722 1692.58 C 977.455 1729.08 968.884 1770.15 960.343 1806.02 C 959.568 1810.77 957.505 1817.61 956.209 1822.43 C 951.061 1804.57 948.221 1787.21 945.094 1768.95 C 921.607 1631.79 936.241 1491.11 941.096 1353 C 941.904 1330.02 943.92 1307.13 945.47 1284.21 C 946.65 1267.23 947.717 1250.24 948.671 1233.25 C 949.007 1226.36 949.724 1196.85 951.347 1192.59 C 954.449 1184.44 995.091 1163.86 1004.34 1158.74 z" fill="rgb(254,254,254)" transform="translate(0,0)"></path>
<path d="M 970.925 1519.44 C 975.255 1526.39 975.136 1562.79 973.658 1571.9 C 967.858 1562.83 967.592 1529.57 970.925 1519.44 z" fill="rgb(35,31,32)" transform="translate(0,0)"></path>
<path d="M 1135.89 1327.95 C 1138.04 1330.57 1128.65 1343.68 1126.99 1347.65 C 1112.85 1381.47 1090.19 1423.51 1098.92 1461.08 C 1104.24 1484.02 1131.52 1510.83 1156.5 1501.97 C 1179.03 1493.99 1190.83 1475.14 1201.02 1454.72 C 1211.77 1434.99 1221.29 1415.54 1231.31 1395.57 C 1222.67 1449.96 1224.67 1458.36 1244.17 1506.86 C 1233.04 1518.19 1234.24 1532.9 1230.96 1549.75 C 1223.29 1539.5 1194.54 1500.26 1185.23 1496.67 C 1181.08 1499.6 1176.5 1518.92 1174.69 1524.75 L 1156.91 1590.3 C 1151.07 1611.87 1145.98 1628.37 1143.38 1650.71 C 1136.23 1635.78 1122.69 1612.2 1110.75 1600.39 C 1098.34 1587.99 1081.45 1581.15 1063.92 1581.42 C 1041.41 1581.73 1026.43 1588.66 1010.98 1604.35 C 1010.68 1593.12 1012.52 1575.28 1013.07 1563.27 C 1014.19 1534.25 1015.71 1505.25 1017.65 1476.27 C 1055.43 1458.81 1033.26 1399.83 1046.29 1391.3 C 1065.99 1378.41 1114.07 1348.77 1135.89 1327.95 z" fill="rgb(254,254,254)" transform="translate(0,0)"></path>
<path d="M 1059.66 1561.41 C 1086.01 1558.91 1129.2 1571.27 1139.3 1599.22 C 1140.11 1601.47 1139.49 1601.81 1138.41 1603.45 C 1128.88 1605.5 1120.02 1590.48 1108.35 1583.42 C 1087.08 1572.3 1061.81 1568.44 1038.47 1574.82 C 1033.12 1576.28 1018.68 1583.49 1015.17 1578.22 C 1019.92 1567.75 1049.14 1562.39 1059.66 1561.41 z" fill="rgb(35,31,32)" transform="translate(0,0)"></path>
<path d="M 1217.94 1481.3 C 1218.79 1481.63 1220.19 1482.49 1221.05 1482.97 C 1229.24 1494.45 1227.66 1511.8 1226.57 1525.15 C 1217.46 1522.34 1215.84 1489.54 1217.94 1481.3 z" fill="rgb(35,31,32)" transform="translate(0,0)"></path>
<path d="M 758.411 850.445 C 760.217 851.662 785.597 898.769 793.382 907.274 C 792.794 926.943 789.583 946.185 788.042 965.687 C 786.397 986.504 785.718 1007.96 784.883 1028.87 C 771.671 1040.14 756.067 1048.13 740.938 1056.78 C 738.79 1035.65 740.801 995.209 743.225 973.992 L 755.514 992.488 C 759.16 998.071 764.938 1008.11 771.13 1010.41 L 772.356 1009.48 C 773.641 998.065 753.92 966.375 743.99 960.216 C 745.791 943.572 745.688 930.683 748.574 913.249 C 757.782 926.94 766.268 940.256 773.489 955.086 C 774.363 956.882 777.676 960.486 779.551 961.424 C 782.256 962.777 782.652 962.86 785.406 962.043 L 785.615 960.225 C 773.897 939.509 765.299 921.89 749.997 903.436 L 758.411 850.445 z" fill="rgb(254,254,254)" transform="translate(0,0)"></path>
<path d="M 508.104 888.412 C 518.063 894.298 563.439 948.549 569.231 960.895 C 566.834 980.065 566.552 1000.34 564.132 1018.54 L 562.974 1019.27 C 544.389 992.29 515.737 962.419 500.023 938.045 C 501.587 915.992 502.706 909.921 508.104 888.412 z" fill="rgb(254,254,254)" transform="translate(0,0)"></path>
<path d="M 528.001 833.682 C 541.034 844.887 565.117 886.166 575.348 902.82 C 575.083 912.132 572.261 936.662 569.37 944.738 L 568.116 944.522 L 563.971 938.615 C 547.79 918.754 530.357 891.339 511.738 874.42 C 515.264 861.695 522.623 846.013 528.001 833.682 z" fill="rgb(254,254,254)" transform="translate(0,0)"></path>
<path d="M 501.99 958.937 C 504.998 961.21 513.449 970.962 516.452 974.342 C 533.149 993.023 548.989 1012.45 563.924 1032.57 C 563.186 1053 562.877 1067.9 564.02 1088.23 L 562.337 1087.84 C 542.741 1064.71 528.936 1038.17 514.927 1011.34 C 508.48 998.984 502.668 972.728 501.99 958.937 z" fill="rgb(254,254,254)" transform="translate(0,0)"></path>
<path d="M 1100.45 1196.69 C 1119.16 1203.18 1075.04 1268.95 1067.83 1279.97 C 1059.97 1291.98 1053.22 1304.23 1044.87 1316.06 C 1043.66 1316.92 1044.4 1316.66 1042.53 1316.38 C 1040.14 1309.63 1043.81 1283.95 1045.99 1277.52 C 1056.9 1245.37 1070.42 1214.36 1100.45 1196.69 z" fill="rgb(254,254,254)" transform="translate(0,0)"></path>
<path d="M 553.128 794.621 C 561.215 802.049 577.033 827.187 584.552 837.446 C 581.696 850.247 579.908 879.008 577.188 888.512 L 576.036 888.608 L 572.565 883.5 C 559.385 863.952 549.152 845.023 534.537 823.873 C 538.938 815.541 547.816 802.292 553.128 794.621 z" fill="rgb(254,254,254)" transform="translate(0,0)"></path>
<path d="M 790.133 696.499 C 801.02 703.444 809.512 718.147 823.151 729.548 C 818.459 745.41 815.315 767.554 812.095 784.328 C 807.536 780.627 786.257 749.802 779.133 741.688 C 781.776 727.727 786.588 710.524 790.133 696.499 z" fill="rgb(254,254,254)" transform="translate(0,0)"></path>
<path d="M 835.553 655.455 C 838.178 655.231 836.92 655.055 839.333 655.944 C 840.013 658.009 826.63 718.481 824.09 723.177 L 822.481 723.329 C 818.015 719.957 815.605 716.294 812.184 711.872 C 805.161 701.709 801.585 698.679 792.016 690.561 C 794.489 681.686 800.529 666.366 803.805 657.072 C 813.944 656.947 825.338 656.042 835.553 655.455 z" fill="rgb(254,254,254)" transform="translate(0,0)"></path>
<path d="M 1191.13 1524.59 C 1203.57 1537.37 1218.36 1558.95 1230.2 1573.74 C 1220.82 1580.54 1211.02 1586.75 1200.87 1592.33 C 1200.84 1585.25 1202.48 1561.46 1194.37 1559.43 L 1192.24 1561.26 C 1189.71 1573.42 1189.46 1587.32 1190.24 1599.67 C 1182.9 1603.89 1176.13 1608.72 1169.18 1613.53 C 1175 1584.37 1183.97 1553.79 1191.13 1524.59 z" fill="rgb(254,254,254)" transform="translate(0,0)"></path>
<path d="M 778.035 747.953 C 787.375 759.071 800.99 782.519 810.95 791.794 C 807.662 806.404 804.524 825.391 802.01 840.273 C 791.834 822.6 781.593 805.084 768.875 789.142 C 772.26 773.614 772.838 764.289 778.035 747.953 z" fill="rgb(254,254,254)" transform="translate(0,0)"></path>
<path d="M 767.378 799.665 C 774.791 806.82 793.309 839.171 801.354 850.51 C 797.77 865.565 797.124 881.18 794.041 895.657 C 785.894 879.588 771.053 854.764 759.313 841.22 C 761.924 825.94 763.877 814.757 767.378 799.665 z" fill="rgb(254,254,254)" transform="translate(0,0)"></path>
<path d="M 597.963 752.952 C 598.342 758.934 587.454 815.409 585.51 823.991 C 582.282 819.223 578.906 813.517 575.831 808.563 C 570.43 799.261 567.096 793.829 559.539 786.213 C 573.708 770.34 580.773 764.621 597.963 752.952 z" fill="rgb(254,254,254)" transform="translate(0,0)"></path>
<path d="M 955.642 649.017 C 960.98 648.966 966.817 649.168 972.195 649.255 L 962.637 675.287 C 961.818 678.653 961.846 679.159 960.159 682.276 L 958.364 682.565 C 956.535 679.665 956.271 655.198 955.642 649.017 z" fill="rgb(254,254,254)" transform="translate(0,0)"></path>
<path d="M 273.281 268.399 C 282.288 272.414 441.298 508.297 471.47 540.711 C 464.435 525.077 459.561 508.775 452.96 492.03 C 445.374 472.523 436.227 453.13 429.589 433.356 C 427.875 428.248 433.452 424.697 438.433 424.687 C 444.294 427.321 459.097 452.741 463.91 460.167 C 478.094 481.727 491.946 503.503 505.461 525.487 C 526.01 558.541 548.54 592.421 569.601 625.584 C 579.674 642.215 589.825 657.956 601.866 673.142 C 602.661 674.145 601.696 675.104 601.134 676.134 L 598.531 676.821 C 585.151 670.68 539.763 607.669 529.125 593.236 C 516.337 575.885 504.162 552.685 488.311 535.424 C 492.954 545.276 505.297 573.177 504.501 584.819 C 504.275 588.129 498.122 591.81 495.273 593.681 C 493.185 592.262 491.148 590.768 489.168 589.202 C 478.275 580.501 442.366 535.093 433.226 521.913 C 396.616 468.851 361.557 413.42 327.736 358.61 C 319.319 344.968 274.362 278.399 273.281 268.399 z" fill="rgb(35,31,32)" transform="translate(0,0)"></path>
<path d="M 1036.18 380.33 L 1038.76 381.399 C 1041.56 385.215 1043.25 406.676 1043.62 412.608 C 1046.1 452.098 1069.51 484.802 1065.28 525.544 C 1062.88 548.566 1052.19 582.332 1023.27 579.624 C 1022.23 579.284 1021.19 578.932 1020.16 578.569 C 1009.56 574.808 1004.38 568.792 999.632 558.703 C 991.79 542.056 989.475 523.391 995.577 505.809 C 1001.48 488.81 1010.41 472.672 1015.51 455.431 C 1020.69 437.887 1025.4 420.172 1030.32 402.554 C 1032.38 395.179 1033.53 387.533 1036.18 380.33 z" fill="rgb(35,31,32)" transform="translate(0,0)"></path>
<path d="M 1034.48 417.783 C 1037.24 421.178 1036.64 437.311 1038 442.51 C 1046.81 476.417 1057.2 520.192 1031.49 550.628 C 1026.76 549.291 1024.82 546.344 1021.87 542.458 C 1019.52 539.358 1017.92 535.476 1017.84 531.531 C 1017.48 512.331 1024.21 493.399 1027.08 474.512 C 1029.96 455.627 1031.44 436.642 1034.48 417.783 z" fill="rgb(254,254,254)" transform="translate(0,0)"></path>
<path d="M 535.594 222.466 C 537.366 222.799 538.859 222.838 540.005 224.54 C 547.315 235.403 554.524 246.16 562.356 256.668 C 583.687 284.823 604.414 313.43 624.524 342.47 C 639.047 363.467 655.209 389.128 670.449 409.224 C 668.31 398.868 659.101 377.889 667.804 370.547 C 673.642 369.124 676.536 371.637 679.879 376.729 C 703.078 412.068 728.768 446.134 749.187 483.16 C 755.54 494.68 762.53 505.949 769.106 517.154 C 771.628 521.179 774.084 524.244 771.175 528.418 L 768.939 528.137 C 753.511 518.315 712.112 453.932 697.818 433.856 C 698.289 440.807 700.191 451.752 696.558 457.873 C 695.379 459.859 694.081 461.292 691.74 461.758 C 689.593 462.186 688.751 462.248 686.988 460.92 C 673.23 450.557 538.285 239.513 535.594 222.466 z" fill="rgb(35,31,32)" transform="translate(0,0)"></path>
<path d="M 1211.06 1677.9 C 1229.66 1682.73 1246.52 1715.57 1257.15 1731.83 C 1255.42 1722.42 1249.12 1698.52 1250.84 1690.45 L 1252.26 1689.81 C 1257.46 1692.51 1267.76 1711.87 1271.42 1718.05 C 1291.21 1751.45 1310.61 1784.85 1332.7 1816.83 C 1338.69 1825.51 1347.78 1836.69 1352.04 1845.8 L 1350.02 1846.79 C 1337.78 1839.29 1286.51 1766.47 1276.66 1751.64 C 1280.69 1765.21 1282.71 1777.38 1285.22 1791.27 C 1267.41 1776.72 1209.6 1698.82 1211.06 1677.9 z" fill="rgb(35,31,32)" transform="translate(0,0)"></path>
<path d="M 865.441 189.354 C 867.344 189.839 869.901 190.477 871.166 192.114 C 887.302 212.998 902.022 235.768 915.91 258.175 C 922.957 269.544 929.251 281.672 936.339 292.415 C 935.506 285.584 933.284 277.357 939.534 272.81 C 952.37 272.474 982.773 334.659 986.488 346.795 C 973.666 351.518 962.21 327.071 956.833 318.018 C 957.129 325.142 959.193 334.596 953.026 338.981 C 950.752 339.091 949.749 339.287 947.719 338.065 C 938.103 332.276 869.734 205.622 865.441 189.354 z" fill="rgb(35,31,32)" transform="translate(0,0)"></path>
<path d="M 1684.29 915.205 C 1725.1 912.61 1738.01 963.676 1699.28 978.233 C 1683.55 979.96 1671.21 974.725 1664.54 959.612 C 1660.89 951.558 1660.68 942.368 1663.94 934.153 C 1668.16 923.667 1674.65 919.395 1684.29 915.205 z" fill="rgb(35,31,32)" transform="translate(0,0)"></path>
<path d="M 395.333 765.787 C 411.318 763.624 426.096 774.645 428.583 790.582 C 431.07 806.52 420.352 821.519 404.468 824.329 C 393.902 826.199 383.151 822.21 376.361 813.902 C 369.572 805.594 367.804 794.264 371.739 784.282 C 375.675 774.3 384.7 767.226 395.333 765.787 z" fill="rgb(35,31,32)" transform="translate(0,0)"></path>
<path d="M 1124.43 309.41 C 1138.93 305.019 1154.23 313.216 1158.61 327.713 C 1162.99 342.211 1154.78 357.51 1140.28 361.875 C 1125.79 366.235 1110.52 358.036 1106.15 343.557 C 1101.77 329.078 1109.96 313.795 1124.43 309.41 z" fill="rgb(35,31,32)" transform="translate(0,0)"></path>
<path d="M 827.781 385.334 C 837.251 383.493 846.974 386.939 853.171 394.333 C 859.368 401.727 861.062 411.903 857.594 420.906 C 854.126 429.908 846.044 436.318 836.488 437.644 C 822.255 439.619 809.037 429.901 806.677 415.727 C 804.318 401.552 813.675 388.076 827.781 385.334 z" fill="rgb(35,31,32)" transform="translate(0,0)"></path>
<path d="M 392.248 1248.12 C 423.267 1247.2 425.794 1283.42 400.665 1292.98 C 371.593 1293.22 367.131 1256.2 392.248 1248.12 z" fill="rgb(35,31,32)" transform="translate(0,0)"></path>
<path d="M 1563.21 1087.51 C 1573.26 1084.72 1583.67 1090.56 1586.53 1100.58 C 1589.39 1110.6 1583.63 1121.05 1573.63 1123.99 C 1563.53 1126.96 1552.94 1121.13 1550.04 1111 C 1547.15 1100.87 1553.06 1090.32 1563.21 1087.51 z" fill="rgb(35,31,32)" transform="translate(0,0)"></path>
<path d="M 526.397 1470.87 C 535.517 1470.79 543.162 1475.15 546.697 1483.75 C 548.741 1488.72 548.654 1494.32 546.456 1499.22 C 543.777 1505.2 539.757 1507.78 533.951 1510.05 C 508.104 1510.28 502.902 1482.36 526.397 1470.87 z" fill="rgb(35,31,32)" transform="translate(0,0)"></path>
<path d="M 1327.45 285.051 C 1347.97 283.527 1354.72 302.574 1338.04 315.745 C 1318.27 318.717 1308.62 297.043 1327.45 285.051 z" fill="rgb(35,31,32)" transform="translate(0,0)"></path>
<path d="M 1508.05 1460.5 C 1512.9 1461.08 1523.71 1475.85 1526.9 1480.24 C 1524.31 1485.91 1521.33 1491.73 1517.17 1496.37 C 1512.9 1494.54 1506.55 1489.31 1503.32 1485.86 C 1492.6 1474.39 1499.59 1467.75 1508.05 1460.5 z" fill="rgb(35,31,32)" transform="translate(0,0)"></path>
<path d="M 281.47 989.639 C 295.746 993.55 298.19 1011.54 282.881 1018.48 C 282.131 1018.32 281.384 1018.14 280.642 1017.95 C 266.941 1014.32 268.65 996.396 281.47 989.639 z" fill="rgb(35,31,32)" transform="translate(0,0)"></path>
<path d="M 1223.4 400.383 C 1229.43 399.028 1235.46 402.654 1237.08 408.612 C 1238.71 414.571 1235.36 420.755 1229.48 422.651 C 1225.44 423.957 1221 422.933 1217.93 419.986 C 1214.87 417.038 1213.67 412.645 1214.81 408.549 C 1215.95 404.452 1219.26 401.315 1223.4 400.383 z" fill="rgb(35,31,32)" transform="translate(0,0)"></path>
<metadata><recraft-signature>{"signed_by": "recraft", "signature_b64": "eCwcw97sSy1GrOVOnXmNY410lM8cDhD3iBFuARHHOfnrvFYF4P+oFLvUCPuc45LDrUo3fpzLIVebMYxUV2MGDg==", "signing_algo": "Ed25519", "generation_timestamp": 1776302024, "identifier": "33ac281a-6f55-4509-9693-16fcfa5bafdc"}</recraft-signature></metadata></svg>