<svg xmlns="http://www.w3.org/2000/svg" height="1024" preserveAspectRatio="none" style="display: block;" version="1.1" viewBox="0 0 2048 2048" width="1024">
<path d="M 0 0 L 2048 0 L 2048 2048 L 0 2048 L 0 0 z" fill="rgb(254,254,254)" transform="translate(0,0)"></path>
<path d="M 868.672 820.347 C 883.232 823.254 889.086 820.416 902.707 821.176 C 937.571 823.122 985.463 819.975 1016.89 834.222 C 1028.36 839.421 1044.84 856.569 1047.39 868.513 C 1047.87 870.761 1048.18 871.433 1049.34 873.5 C 1050.71 871.584 1049.95 872.317 1051.48 871.163 L 1051.87 873.481 C 1049.97 875.329 1050.51 874.624 1049.16 876.992 L 1050.08 878.782 C 1052.49 876.602 1051.42 876.956 1054.23 876.267 C 1054.34 876.431 1058.5 894.252 1058.54 894.54 C 1060.77 911.906 1058.46 931.235 1047.51 945.57 C 1046.83 946.46 1043.26 951.394 1042.89 951.601 C 1040.02 953.212 1037.74 952.462 1036.02 955.41 L 1037.3 957.863 C 1030.88 958.777 1030.21 958.817 1027.36 964.764 C 1025.21 969.273 1023.4 964.98 1019.91 966.786 L 1020.34 970.18 C 1015.93 972.554 1004.51 972.682 999.39 973.763 C 999.244 973.794 992.818 980.004 992.097 980.704 C 988.414 980.958 988.04 980.507 984.965 978.808 C 981.629 979.246 982.539 979.279 979.52 982.062 C 969.491 982.009 972.857 984.915 965.548 986.045 C 963.533 986.356 957.548 983.809 953.068 985.086 C 948.288 993.159 936.264 987.187 927.387 988.16 C 901.51 990.995 874.675 992.995 849.612 984.691 C 848.439 984.786 847.148 980.019 846.843 979.936 C 824.418 973.802 808.321 952.754 802.884 930.06 C 798.714 912.653 799.687 885.76 800.699 866.908 C 801.153 858.441 795.226 842.79 801.441 834.383 C 802.092 833.409 805.599 829.679 806.637 829.35 C 826.656 822.991 848.004 823.336 868.672 820.347 z" fill="rgb(0,0,0)" transform="translate(0,0)"></path>
<path d="M 956.911 860.576 C 959.905 862.45 961.81 863.45 964.061 866.179 C 962.103 867.955 961.796 868.067 959.208 868.613 C 967.451 872.409 963.418 863.618 975.095 868.412 C 986.439 873.07 993.514 873.388 1005.28 872.457 C 1009.45 873.858 1010.43 875.533 1013.02 879.099 C 1027.37 898.57 1003.82 921.906 988.353 931.343 C 965.435 945.328 934.775 941.473 909.601 946.317 C 892.558 949.596 890.51 947.168 874.758 945.628 C 859.185 943.609 853.654 942.812 840.468 934.341 C 842.707 922.033 841.57 891.836 842.34 877.082 L 843.217 876.388 L 844.555 879.433 C 852.128 878.729 870.974 878.04 876.514 872.915 L 879.381 874.754 L 881.111 872.608 C 885.114 871.195 889.552 873.316 890.407 873.049 C 895.068 871.591 901.408 867.632 906.486 868.731 L 905.327 871.405 C 908.483 872.264 913.525 871.284 916.164 869.363 L 913.926 867.595 C 916.013 866.401 916.903 866.142 919.254 866.959 C 917.852 868.62 918.362 867.74 917.632 869.543 C 924.079 870.858 923.516 867.687 929.416 866.672 C 931.655 866.286 937.73 868.915 941.675 869.551 C 944.525 867.935 946.313 866.411 949.468 866.746 C 951.913 868.251 952.535 868.878 955.346 869.492 C 956.43 865.516 956.603 864.663 956.911 860.576 z" fill="rgb(254,254,254)" transform="translate(0,0)"></path>
<path d="M 1630.78 815.966 C 1630.87 816.073 1630.96 816.181 1631.05 816.289 C 1632.76 822.056 1642.82 822.63 1646.99 826.349 C 1654.08 832.664 1653.63 840.811 1660.66 846.813 L 1660.54 848.287 L 1657.66 847.211 L 1656.45 847.973 C 1654.33 863.296 1652.51 862.787 1660.75 875.481 C 1659.82 878.377 1658.87 880.248 1659.41 883.211 C 1661.67 883.459 1661.42 883.374 1663.52 882.603 L 1663.53 884.153 C 1661.27 884.79 1662.41 884.371 1660.13 885.452 C 1660.09 891.198 1662.59 892.355 1664.53 897.285 C 1666.18 901.462 1661.34 904.001 1661.65 908.857 L 1664.13 906.945 C 1668.2 908.328 1669.78 925.332 1673.35 928.854 L 1676.25 926.568 C 1679.53 929.732 1675.59 928.464 1677.42 932.716 C 1682.48 944.466 1692.66 951.612 1701.44 960.313 C 1701.38 961.294 1701.32 962.275 1701.27 963.256 C 1707.26 966.104 1723.41 975.645 1718.47 985.058 C 1714.79 987.425 1709.15 987.546 1704.53 988.128 L 1704.05 989.285 C 1707.3 990.08 1711.31 988.391 1714.92 987.422 C 1716.9 989.168 1712.47 989.924 1713.14 993.771 C 1715.89 992.996 1715.97 991.348 1717.99 988.063 L 1720.18 987.614 L 1720.58 988.372 C 1719.74 992.837 1719.38 991.958 1715.65 995.926 C 1710.82 995.755 1703.87 995.383 1699.38 996.883 C 1701.07 997.398 1703.01 997.932 1704.67 998.498 L 1703.41 999.801 C 1693.31 1001.84 1697.75 1000.69 1687.99 997.218 C 1684.51 995.982 1686.22 998.512 1684.04 1000.28 L 1681.38 999.989 C 1679.15 998.207 1678.57 997.684 1676.02 996.258 L 1673.42 997.772 C 1669.89 996.907 1669.08 993.943 1665 990.488 C 1649.33 990.183 1646.45 975.726 1633.98 967.794 C 1634.69 966.063 1635.03 965.104 1635.56 963.308 C 1627.58 963.276 1633.3 967.626 1629.51 971.343 C 1627.14 969.59 1626.31 969.248 1623.72 967.946 C 1619.67 968.127 1621.42 967.461 1618.28 969.984 L 1618.91 971.479 L 1623.83 972.677 L 1624.17 973.646 L 1619.62 977.915 C 1613.23 979.099 1615.78 979.033 1608.73 976.729 L 1609.87 979.67 C 1608.39 983.825 1599.14 985.274 1595.72 984.224 C 1594.49 981.248 1595.3 982.12 1592.99 980.261 L 1591.87 980.932 L 1592.6 983.264 L 1591.42 984.724 C 1587.5 986.079 1587.22 986.281 1583.17 986.213 L 1586.33 983.577 L 1586.67 982.235 L 1586.5 983.428 L 1585.52 981.636 C 1582.83 980.973 1575.89 980.056 1574.41 982.852 C 1576.84 983.515 1579.25 984.234 1581.65 985.008 C 1579.95 989.271 1558.5 986.718 1554.5 986.657 C 1553.98 986.649 1549.49 989.668 1548.93 990.052 C 1546.18 988.995 1544.59 987.895 1542.12 986.375 L 1541.15 986.842 L 1542.82 990.172 C 1536.89 992.478 1525.51 982.341 1521.05 983.281 C 1509.51 985.712 1515.46 982.511 1508.88 978.271 C 1507.57 979.604 1507.25 979.869 1505.74 980.962 C 1503.64 979.452 1504.28 977.231 1500.45 973.874 C 1486.23 961.393 1448.08 926.221 1452.11 906.549 C 1458.31 876.273 1502.46 847.75 1529.43 837.659 C 1534.53 835.748 1546.09 835.267 1552.02 833.979 C 1566.82 830.425 1577.57 832.901 1592.15 835.557 C 1592.97 836.042 1601.51 835.465 1601.62 835.213 C 1610.19 816.857 1608.49 816.563 1627.74 818.845 L 1630.78 815.966 z" fill="rgb(0,0,0)" transform="translate(0,0)"></path>
<path d="M 1557.47 872.319 C 1567.85 877.996 1571.69 879.208 1584.21 879.332 L 1585.65 879.337 C 1586.87 880.448 1586.68 879.999 1588.09 882.033 C 1591.32 886.689 1596.72 881.189 1604.4 883.361 C 1602.99 884.274 1601.77 885.306 1600.44 886.347 L 1601.44 887.09 C 1604.68 886.587 1605.03 886.421 1608.41 886.713 C 1613.34 890.219 1610.97 896.896 1611.69 902.49 C 1611.66 902.281 1615.29 908.836 1615.58 909.362 C 1613.3 910.485 1614.02 909.957 1612.22 911.92 C 1612.8 914.924 1612.93 915.432 1612.92 918.461 L 1610.3 920.979 C 1611.76 922.537 1611.12 921.704 1612.22 923.467 C 1606.31 928.556 1597.5 923.242 1593.82 926.716 C 1595 928.487 1594.57 927.537 1595.12 929.562 L 1593.68 929.85 C 1591.47 928.021 1591.05 927.547 1588.53 926.265 C 1587.85 927.641 1587.92 927.948 1587.82 929.452 C 1579.92 931.399 1552.5 939.963 1546.63 939.584 C 1544.48 938.824 1541.24 937.906 1538.03 939.703 C 1526.63 946.096 1515.3 935.552 1504.2 936.224 C 1500.95 936.421 1495.43 926.074 1498.64 919.54 L 1502.15 921.196 L 1503.35 920.004 L 1503.07 917.917 C 1500.72 917.434 1501.86 917.739 1499.65 917.016 C 1498.94 907.895 1503.29 911.527 1509.13 904.071 C 1505.83 903.253 1507 904.194 1505.12 901.791 C 1515.86 898.508 1507.62 898.64 1514.55 894.361 C 1515.58 896.805 1514.76 896.244 1516.51 896.974 L 1517.61 894.898 C 1516.88 893.077 1516.41 891.855 1515.84 889.979 L 1517.05 889.16 C 1518.79 890.965 1517.79 890.344 1519.99 891.124 C 1523.79 888.675 1531.53 884.443 1532.84 880.211 C 1534.22 882.059 1533.73 881.542 1535.48 882.919 C 1540.04 881.772 1541.59 881.564 1545.66 879.403 L 1545.71 876.632 L 1548.55 874.822 L 1550.52 875.473 L 1550.87 878.371 L 1552.04 878.489 C 1556.86 875.75 1555.43 877.405 1557.47 872.319 z" fill="rgb(254,254,254)" transform="translate(0,0)"></path>
<path d="M 1104.55 808.87 C 1113.42 809.641 1116.33 811.026 1126.5 811.212 C 1167.44 811.963 1231.29 805.91 1264.16 834.09 C 1272.66 841.379 1285.09 858.512 1285.56 869.914 C 1285.67 872.759 1286.6 879.886 1285.28 882.007 L 1281.08 882.403 L 1280.82 883.395 L 1281.93 884.421 L 1285.47 883.846 L 1286.21 885.529 L 1284.31 888.475 C 1292.77 901.29 1275.04 915.464 1275.53 922.473 C 1269.05 925.354 1257.72 933.169 1251.38 937.275 C 1250.11 936.801 1249.24 936.453 1248 935.882 L 1246.93 935.383 C 1243.33 937.882 1227.09 945.924 1223.23 946.865 L 1222.77 944.234 L 1221.51 943.792 L 1220.03 944.868 L 1221.92 947.771 L 1220.49 948.897 C 1217.72 949.171 1214.06 948.754 1211.58 947.572 C 1208.7 946.198 1201.41 951.678 1200.39 951.672 C 1195.67 951.645 1187.6 950.875 1182.77 950.466 C 1181.92 951.631 1181.26 952.623 1180.46 953.824 C 1179.08 953.402 1178.01 953.062 1176.65 952.546 L 1175.58 952.131 C 1166.41 957.862 1168.49 953.47 1158.66 953.716 C 1155.09 953.805 1157.05 963.915 1153.1 968.627 C 1153.23 973.82 1156.34 969.791 1156.92 976.051 C 1150.44 982.823 1160.14 982.272 1159.75 992.402 C 1157.69 992.777 1156.74 993.06 1154.73 993.689 L 1154.02 995.474 L 1155.94 999.556 L 1157.38 999.724 L 1158.35 996.964 L 1159.52 997.14 C 1162.53 1000.65 1161.53 1001.17 1157.6 1003.17 L 1156.94 1005.32 L 1158.03 1006.37 L 1159.77 1006.71 L 1155.66 1012.12 L 1155.85 1013.49 L 1157.9 1014.33 L 1160.32 1011.44 L 1161.44 1012.02 C 1163.52 1023.66 1157.03 1033.81 1157.74 1041.47 L 1160.38 1042.88 C 1163.77 1049.72 1153.39 1051.31 1155.88 1064.91 L 1156.1 1066.06 C 1154.81 1069.57 1150.25 1073.71 1146.79 1073.73 C 1138.24 1073.8 1117.62 1075.43 1113.59 1066.74 C 1116.36 1065.4 1117.01 1068.95 1122.25 1069.83 C 1119.02 1065.93 1114.96 1064.27 1110.43 1061.82 C 1107.44 1052.11 1110.78 1054.15 1110.01 1048.25 C 1107.52 1047.74 1107.21 1047.73 1104.92 1046.7 L 1105.17 1044.61 L 1107.64 1043.67 C 1109.47 1041.34 1106.52 1038.36 1106.17 1033.08 C 1108.52 1032.27 1107.39 1032.73 1109.55 1031.73 C 1109.87 1027.08 1109.72 1024.03 1109.47 1019.35 C 1108.01 1019.34 1106.73 1019.32 1105.28 1019.27 C 1100.03 1012.27 1109.33 1002.95 1112.46 997.465 C 1113.45 995.72 1113.61 987.393 1114.23 984.209 C 1116.21 983.142 1116.36 983.105 1118.48 982.696 C 1106.6 972.148 1117.99 960.201 1114.73 946.12 C 1113.12 939.177 1107.81 928.711 1103.87 922.512 C 1107.93 920.524 1108.79 920.256 1112.11 917.332 C 1115.65 909.788 1114.04 867.371 1113.95 855.574 C 1111.38 854.318 1108.83 853.02 1106.3 851.68 C 1099.18 838.535 1084.67 818.491 1104.55 808.87 z" fill="rgb(0,0,0)" transform="translate(0,0)"></path>
<path d="M 1180.96 847.02 C 1181.88 848.268 1181.56 847.488 1181.5 849.493 C 1179.47 850.117 1178.08 850.584 1176.12 851.368 L 1176.88 853.191 C 1179.18 854.415 1193.91 852.061 1197.52 851.667 C 1198.53 853.302 1199.51 854.955 1200.46 856.626 C 1205.04 856.958 1206.76 853.803 1208.17 853.815 C 1215.57 853.874 1230.16 858.022 1237.12 859.799 C 1242.34 865.491 1243.56 867.685 1246.76 874.372 C 1237.53 889.768 1223.24 894.617 1206.75 899.334 C 1199.94 900.934 1161.19 909.167 1157.24 905.717 C 1157.38 904.241 1157.48 902.763 1157.55 901.283 C 1155.57 899.232 1154.11 898.118 1153.24 895.406 C 1155.19 893.965 1154.7 894.422 1156.35 892.528 C 1151.02 882.938 1148.88 880.465 1153.2 869.597 C 1156.52 861.228 1143.37 858.807 1151.34 851.271 C 1155.29 855.607 1166.25 854.772 1171.28 852.529 C 1175.63 850.591 1174.67 848.778 1180.96 847.02 z" fill="rgb(254,254,254)" transform="translate(0,0)"></path>
<path d="M 1203.6 831.984 L 1204.74 831.969 C 1207.19 835.158 1208.09 837.17 1209.6 840.768 L 1208.82 841.634 L 1202.57 837.642 L 1202.33 836.612 L 1201.2 835.912 L 1199.82 838.565 L 1199.08 839.904 L 1196.88 837.881 C 1194.66 838.396 1193.42 838.608 1191.16 838.894 C 1195.66 833.703 1196.75 833.512 1203.6 831.984 z" fill="rgb(254,254,254)" transform="translate(0,0)"></path>
<path d="M 1060.35 1136.33 L 1064.06 1137.93 C 1065.5 1140.26 1066.07 1141.84 1068.58 1142.81 L 1070.47 1140.44 L 1071.77 1140.43 C 1075.16 1143.7 1088.58 1156.36 1089.75 1159.54 C 1092.06 1168.96 1083.74 1183.55 1089.28 1191.44 C 1090.72 1193.49 1091.98 1194.48 1090.73 1197.18 C 1086.96 1205.34 1090.19 1215.52 1092.69 1223.72 L 1095.59 1223.26 L 1096.27 1225.5 L 1094.58 1228.5 C 1095.67 1233.31 1103.88 1250.08 1106.81 1253.97 C 1119.03 1270.22 1142.99 1291.73 1109.82 1301.51 C 1088.12 1297.4 1083.49 1290.66 1066.99 1277.92 C 1060.84 1281.43 1061.75 1282.26 1055.48 1282.38 L 1054.84 1285.63 C 1049.85 1290.61 1046.7 1294.11 1039.72 1292.21 L 1038.63 1291.9 L 1037.27 1291.55 L 1036.46 1291.32 C 1035.73 1293.89 1035.64 1294.14 1034.41 1296.51 C 1029.24 1297.21 1033.5 1293.81 1026.98 1291.01 C 1021.18 1292.2 1018.6 1293.4 1013.25 1295.64 L 1013.87 1295.76 C 1009.79 1298.41 1007.16 1297.62 1002.2 1297.25 L 999.335 1299.17 L 997.635 1297.19 C 994.976 1298.11 992.717 1298.68 990.014 1299.38 C 987.769 1297.34 984.768 1295.75 981.689 1295.64 C 963.977 1314.02 901.666 1243.69 901.435 1222.84 C 900.952 1179.27 986.889 1134.57 1024.51 1155.61 C 1031.61 1159.58 1047.06 1143.81 1052.48 1141.33 C 1051.64 1141.7 1060.17 1141.68 1060.79 1141.61 C 1059.07 1140.6 1059.87 1141.27 1058.48 1139.48 L 1060.35 1136.33 z" fill="rgb(0,0,0)" transform="translate(0,0)"></path>
<path d="M 1006.36 1190.55 C 1007.22 1190.37 1008.07 1190.18 1008.93 1189.99 C 1020.04 1198.47 1046.15 1197.05 1049.41 1212.59 C 1051.12 1220.69 1048 1226.03 1043.84 1232.08 C 1033.85 1236.78 990.093 1249.76 979.221 1251.88 C 971.505 1252.92 966.515 1253.41 958.75 1253.68 C 949.922 1247.1 946.419 1243.53 939.872 1234.73 C 941.782 1225.71 938.604 1221.17 946.763 1213.75 C 961.994 1199.91 986.154 1191.19 1006.36 1190.55 z" fill="rgb(254,254,254)" transform="translate(0,0)"></path>
<path d="M 624.986 749.271 C 629.674 750.839 640.126 759.371 644.505 762.809 C 647.235 767.788 651.702 776.887 650.186 782.115 C 649.595 784.151 649.161 788.954 649.472 790.885 C 652.318 790.673 651.292 790.453 653.853 791.562 C 654.554 796.925 651.139 808.592 650.739 815.924 L 652.294 817.548 C 656.176 818.765 715.868 812.139 725.498 811.573 C 734.66 804.025 731.882 809.009 737.814 808.779 C 741.119 808.65 751.888 805.369 757.035 804.568 C 766.848 811.348 775.882 815.727 774.37 829.063 C 776.089 830.948 776.06 830.799 776.964 833.163 C 775.286 836.769 776.516 835.449 773.4 837.486 C 771.361 836.603 771.891 836.644 769.759 836.373 L 770.937 838.923 C 767.681 841.905 728.091 846.685 721.884 846.935 L 720.712 849.042 C 718.32 848.192 718.451 848.145 716.54 846.521 C 710.57 855.533 689.695 847.786 686.837 848.61 C 689.158 850.283 688.839 849.338 689.181 851.265 C 677.258 852.143 672.673 852.218 661.027 854.881 C 657.94 853.386 656.429 852.193 653.109 852.814 C 646.535 857.852 651.074 864.624 648.669 872.459 C 647.979 874.709 645.282 878.478 643.844 880.596 L 644.21 882.057 C 647.152 881.692 645.935 881.3 648.205 882.429 C 649.485 889.358 648.192 893.203 645.445 899.506 C 647.809 900.544 646.7 899.904 648.773 901.423 C 649.363 912.1 650.223 918.951 651.807 929.398 L 649.067 930.841 L 649.021 932.304 C 651.565 932.449 650.399 932.144 652.544 933.115 C 653.467 940.269 654.365 940.862 656.714 947.358 C 673.742 954.813 695.009 954.196 713.093 950.978 C 719.316 953.434 723.597 948.659 728.465 950.854 C 728.813 953.435 728.707 953.466 729.823 955.776 L 733.423 954.374 C 735.309 957.382 734.702 965.004 735.81 967.101 C 736.567 968.534 740.618 970.125 741.688 973.657 L 737.98 975.113 L 738.022 976.44 L 740.962 975.705 L 741.827 976.414 C 740.959 978.72 741.096 978.098 740.763 980.343 C 742.86 981.286 742.329 980.693 743.593 982.323 C 741.347 984.276 741.466 984.096 738.497 984.611 L 737.262 983.185 C 734.141 984.963 733.963 985.223 730.165 984.81 C 728.078 987.258 727.417 987.489 726.391 990.413 L 728.933 992.494 L 728.4 993.597 C 720.35 994.769 702.954 997.939 695.7 996.68 C 693.427 998.002 694.322 997.712 691.64 998.01 C 688.483 996.225 687.244 995.145 683.609 995.077 L 683.606 997.258 L 682.581 997.967 C 678.838 997.28 678.828 997.201 675.355 995.52 L 675.172 992.916 L 674.425 992.274 C 672.074 994.329 671.771 994.592 669.081 996.144 L 666.959 995.375 L 667.701 992.709 L 666.243 992.183 C 664.489 994.14 664.356 994.601 662.08 995.807 C 655.448 991.903 641.734 984.372 636.238 979.468 C 605.577 952.114 607.834 911.583 608.035 874.055 C 608.057 870.028 608.381 860.113 606.617 856.868 C 605.092 854.061 598.837 855.633 596.466 855.638 C 582.877 855.672 566.588 850.246 553.738 846.26 C 520.166 810.354 597.337 821.353 609.442 817.488 C 613.797 810.462 608.674 762.193 613.364 752.565 C 616.832 750.252 620.773 750.014 624.986 749.271 z" fill="rgb(0,0,0)" transform="translate(0,0)"></path>
<path d="M 1168.99 1142.01 L 1169.61 1142.01 C 1171.08 1143.93 1172.71 1144.96 1174.84 1146.14 C 1182.61 1150.45 1188.39 1156.52 1194.41 1162.99 C 1195.38 1166.97 1195.63 1171.69 1197.52 1174.6 L 1198.41 1167.21 C 1201.33 1168.31 1200.33 1204.94 1203.07 1208.65 L 1204.41 1208.01 C 1207.18 1203.42 1207.78 1201.44 1209.56 1196.32 C 1215.4 1193.78 1224.82 1190.03 1231.23 1190.27 C 1237.04 1190.49 1234.98 1190.82 1241.4 1188.1 C 1264.77 1196.96 1265.7 1219.71 1287.74 1227.63 C 1289.52 1228.27 1292.34 1226.1 1293.71 1224.99 C 1296.62 1219.84 1289.8 1206.94 1299.65 1201.95 L 1299.73 1200.48 L 1296.71 1199.79 C 1295.55 1197.04 1300.19 1197.13 1300.11 1189.78 C 1299.98 1177.74 1293.28 1149.18 1305.93 1142.69 C 1312.48 1144.56 1314.62 1142.28 1320.43 1142.79 C 1329.79 1143.62 1335.6 1156.66 1341.68 1163.88 C 1341.19 1170.88 1338.91 1166 1338.87 1172.94 C 1338.82 1181.44 1340.52 1190.38 1339.81 1198.76 C 1339.55 1201.78 1339.61 1200.86 1337.01 1202.9 C 1337.12 1206.57 1336.49 1205.1 1338.27 1207.7 L 1341.1 1206.34 C 1341.45 1207.87 1334.18 1227.35 1333.35 1231.26 C 1330.9 1264.8 1330.94 1276.77 1299.3 1295.15 C 1284.87 1278.96 1250.27 1261.97 1243.11 1237.14 C 1235.72 1255.11 1224.31 1280.94 1208.33 1292.72 C 1201.92 1297.45 1182.74 1299.15 1178.35 1291.79 C 1180.5 1290.61 1179.85 1291.46 1180.93 1289.62 C 1159.05 1288.96 1160.65 1284.55 1157.89 1264.11 C 1156.03 1250.32 1156.72 1237.09 1156.03 1223.36 C 1154.93 1203.17 1153.39 1183 1151.4 1162.87 C 1148.11 1158.25 1143.19 1148.8 1150.26 1145.25 C 1159.42 1147.1 1156.75 1145.21 1164.66 1142.74 C 1164.09 1142.92 1168.53 1142.14 1168.99 1142.01 z" fill="rgb(0,0,0)" transform="translate(0,0)"></path>
<path d="M 481.249 817.601 C 490.046 820.194 495.925 822.998 502.943 829.027 C 506.04 835.097 510.148 867.977 509.836 876.376 C 508.063 873.652 512.882 881.374 511.769 878.456 C 515.015 886.968 509.279 900.941 519.005 907.112 L 518.883 908.418 C 515.909 907.972 516.929 907.87 514.075 908.407 L 514.267 910.837 C 516.164 911.721 515.094 911.314 517.522 912.023 C 517.95 915.937 518.003 917.428 517.879 921.368 L 515.267 923.516 C 516.631 937.553 522.486 945.025 512.404 956.972 C 513.98 959.086 513.905 958.923 514.506 961.49 C 513.774 964.983 512.618 965.817 510.253 968.492 L 509.397 969.444 C 511.246 972.499 511.068 971.224 511.107 974.41 L 510.052 974.845 L 506.729 971.451 L 506.254 971.995 L 506.825 974.73 C 508.638 976.676 509.503 977.331 510.649 979.729 L 509.458 979.752 L 510.681 979.522 C 507.667 979.524 508.496 978.48 506.332 979.337 C 507.099 985.274 497.745 998.431 492.09 999.778 C 488.462 998.875 487.795 997.743 485.35 995.157 C 481.167 998.626 480.581 999.759 475.056 998.253 C 475.697 997.367 479.364 995.759 480.622 995.126 C 477.086 993.492 460.091 995.29 455.61 994.477 C 452.402 993.894 452.322 990.813 446.253 990.231 L 447.329 991.71 L 447.08 991.646 L 451.257 994.121 L 451.304 995.365 C 448.371 995.448 436.472 994.836 435.49 995.002 C 422.667 997.172 412.81 996.868 399.925 996.641 L 397.664 998.922 C 392.455 995.704 395.567 995.502 389.92 994.127 C 391.712 995.36 391.196 994.561 391.728 996.336 C 389.109 998.714 384.898 999.978 381.445 1000.89 C 377.304 1002.64 377.307 999.068 376.07 998.974 C 343.494 996.483 323.257 964.071 317.64 935.244 C 316.243 926.052 316.399 911.945 315.857 902.446 C 315.483 891.325 317.701 879.531 317.006 868.476 C 316.258 856.591 310.478 826.724 324.896 821.766 L 325.647 825.221 L 326.799 825.451 L 328.315 823.204 L 329.749 823.01 C 337.426 827.575 351.445 855.732 346.983 863.493 C 344.438 864.053 345.173 863.577 343.219 864.988 L 344.409 866.863 C 345.809 866.708 346.994 866.509 348.332 866.137 C 350.068 868.799 349.535 867.34 349.659 870.77 C 344.153 878.874 348.95 875.893 349.177 878.265 C 351.122 898.601 351.401 920.768 357.888 940.209 C 359.932 946.335 367.318 950.432 372.953 952.716 C 380.765 946.668 381.898 952.826 391.34 952.013 C 410.8 950.244 430.455 949.911 449.926 948.368 C 454.021 948.044 459.389 944.624 465.982 943.872 C 478.616 921.672 473.249 911.359 471.806 886.915 C 471.632 883.98 473.579 877.717 473.365 876.019 C 472.587 869.841 469.166 864.941 469.534 858.16 C 470.079 848.113 474.211 839.661 473.738 829.251 C 473.501 824.052 477.594 820.729 481.249 817.601 z" fill="rgb(0,0,0)" transform="translate(0,0)"></path>
<path d="M 761.408 1142.51 C 780.099 1143.25 783.168 1144.59 798.886 1154.46 C 800.241 1155.31 813.217 1148.59 816.866 1148.11 C 828.848 1146.53 841.339 1146.87 853.43 1147.48 C 870.238 1148.65 870.618 1164.52 878.927 1175.2 L 882.364 1175.47 L 883.083 1176.74 L 878.761 1179.15 L 878.532 1180.39 C 882.666 1182.72 883.11 1182.56 883.817 1186.95 L 882.631 1187.57 C 881.381 1183.66 882.482 1185 879.956 1182.64 L 878.771 1183 L 879.557 1187.18 C 871.026 1188.5 867.273 1185.05 863.724 1185.72 C 862.369 1187.43 861.955 1188 860.969 1189.88 L 860.172 1191.42 L 858.691 1191.33 C 858.01 1188.88 858.488 1189.63 857.016 1187.71 C 853.874 1189.98 855.504 1189.63 852.152 1189.46 C 854.789 1186.91 854.502 1188.21 854.571 1185.64 L 852.577 1185.17 L 851.285 1186.55 L 849.576 1184.69 C 846.558 1184.94 847.893 1184.41 845.513 1186.52 C 847.816 1189.07 847.579 1187.79 847.523 1190.31 C 843.341 1189.63 842.507 1189.41 838.545 1187.94 L 839.579 1185.39 L 838.878 1184.44 C 836.087 1185.56 830.142 1191.18 827.553 1193.43 C 823.123 1192.38 812.724 1189.68 808.797 1191.73 L 808.267 1193.97 L 808.989 1194.78 C 812.19 1192.25 810.493 1192.73 813.967 1192.53 C 807.154 1201.81 805.229 1230.14 805.081 1241.96 C 804.936 1253.57 811.153 1291.92 794.421 1294.58 C 793.876 1293.1 793.363 1291.76 792.758 1290.3 L 792.281 1290.99 C 792.657 1294.06 792.953 1292.97 791.876 1295.56 C 785.99 1297.56 782.911 1296.19 776.279 1296.55 C 773.521 1298.6 774.676 1298.23 771.562 1298.93 C 768.083 1297.46 766.289 1297.51 764.856 1294.93 L 767.194 1293.65 C 766.723 1290.95 760.812 1284.47 758.704 1281.83 C 758.641 1271.77 753.462 1262.27 756.9 1253.97 C 759.128 1248.59 755.819 1245.38 755.58 1241.1 C 755.238 1234.98 756.843 1226.45 757.014 1219.79 C 757.414 1204.2 753.231 1153.29 761.408 1142.51 z" fill="rgb(0,0,0)" transform="translate(0,0)"></path>
<path d="M 1374.69 815.059 L 1375.26 815.117 C 1376.02 816.512 1375.9 816.742 1377.03 817.457 C 1391.95 826.936 1397.45 846.813 1402.75 862.677 C 1403.6 865.215 1399.79 868.651 1398.21 870.085 C 1398.19 873.492 1397.51 874.294 1399.21 876.156 L 1401.7 874.327 L 1401.99 876.305 C 1400.71 877.909 1399.93 878.914 1398.82 880.633 C 1400.97 888.015 1402.67 895.35 1404.46 902.819 C 1396.22 923.475 1402.3 919.361 1405.51 940.264 C 1406.03 943.656 1404.25 955.533 1403.69 959.384 C 1405.11 961.845 1406.1 962.93 1405.95 965.753 L 1400.96 969.763 C 1398.35 974.81 1403.74 980.045 1397.11 986.319 C 1397.74 988.591 1397.6 988.036 1397.68 990.409 C 1396.07 990.143 1395.81 990.143 1394.2 990.079 C 1393.81 992.734 1394.41 991.658 1392.92 993.638 C 1341.3 1003 1358.96 943.389 1359.87 913.545 C 1360.04 907.873 1357.28 900.871 1357.28 895.304 C 1357.27 883.762 1358.54 872.184 1358.24 860.621 C 1358.28 849.177 1352.58 827.139 1358.26 817.412 C 1364.11 813.342 1368.52 816.589 1374.69 815.059 z" fill="rgb(0,0,0)" transform="translate(0,0)"></path>
<path d="M 1366.82 757.178 L 1368.87 759.022 C 1373.49 757.466 1378.02 760.202 1382.48 762.256 C 1385.6 766.948 1395.88 777.243 1389.3 782.55 C 1387.82 783.746 1387.25 784.549 1386.12 786.009 L 1387.4 786.59 C 1389.51 785.012 1389.48 784.855 1391.95 784.09 L 1394.24 785.512 L 1394.51 787.171 L 1392.47 787.814 C 1379.59 794.926 1365.76 786.436 1355.08 778.9 C 1356.46 773.441 1357.7 767.493 1358.95 761.966 C 1361.6 760.662 1364.31 758.787 1366.82 757.178 z" fill="rgb(0,0,0)" transform="translate(0,0)"></path>
<metadata><recraft-signature>{"signed_by": "recraft", "signature_b64": "hmAP1asDnFNAVGBv3vDrzn5sEosarIMP2hCsFhCybS/QIARadpry/PYZPqGp1iYlzY2WXRoc6bbJcMWBO32UCA==", "signing_algo": "Ed25519", "generation_timestamp": 1776302770, "identifier": "0a6cf016-3813-4a5d-8917-6477edb85f66"}</recraft-signature></metadata></svg>