<svg xmlns="http://www.w3.org/2000/svg" height="1024" preserveAspectRatio="none" style="display: block;" version="1.1" viewBox="0 0 2048 2048" width="1024">
<path d="M 0 0 L 2048 0 L 2048 2048 L 0 2048 L 0 0 z" fill="rgb(254,254,254)" transform="translate(0,0)"></path>
<path d="M 1177.56 532.427 C 1235.39 429.404 1341.41 350.62 1442.21 293.22 C 1447.73 290.074 1452.46 290.972 1454.41 297.428 C 1452.65 301.251 1421.89 326.1 1416.41 330.867 C 1344.24 393.629 1266.99 449.091 1217.4 533.151 C 1203.72 556.348 1191.94 580.715 1177.98 603.647 L 1190.82 627.462 C 1223.56 614.025 1258.21 605.552 1291.63 594.098 C 1294.71 593.04 1295.13 591.416 1296.81 588.884 C 1305.29 568.029 1345.05 490.047 1360.42 478.824 L 1361.09 478.759 C 1342.83 504.829 1326.49 532.19 1312.19 560.627 C 1307.19 570.459 1302.83 581.368 1298.06 590.653 L 1299.1 591.572 C 1302.37 591.756 1309.18 589.324 1312.65 588.277 C 1345.46 522.558 1391.32 454.025 1442.76 401.167 C 1483.35 359.455 1537.23 327.175 1584.36 293.647 C 1586.58 292.068 1589.69 291.522 1592.25 292.466 C 1592.45 294.147 1592.61 295.859 1591.33 297.221 C 1581.03 308.127 1564.34 322.995 1553.25 332.755 C 1488.97 389.372 1429.53 453.313 1386.99 528.102 C 1380.55 539.429 1372.39 554.363 1367.63 566.393 C 1374.17 574.149 1383.33 582.444 1390.8 589.598 L 1433.97 630.967 C 1444.15 640.752 1456.42 652.074 1465.16 662.933 C 1455.6 686.964 1441.73 710.612 1429.79 733.634 C 1411.37 769.132 1393.85 805.762 1371.91 839.242 C 1344.75 880.68 1267.02 977.128 1226.2 999.676 C 1206.11 1010.77 1189.18 1008.5 1168.13 1002.55 C 1164.37 1013.72 1161.59 1026.12 1157.9 1037.56 C 1123.06 1145.52 1096.38 1255.78 1053.37 1361.09 C 1041.2 1390.87 1028.1 1417.81 1014.18 1446.67 C 1017.15 1460.29 1022.06 1474.9 1026.49 1488.01 C 1056.42 1576.58 1099.17 1659.06 1147.97 1738.57 C 1154.06 1748.48 1184.58 1792.69 1183.1 1800.81 L 1181.17 1801.3 C 1174.5 1798.49 1145.38 1764.29 1139.45 1757.16 C 1078.15 1684.81 1030.38 1602 998.429 1512.72 C 992.205 1494.87 987.164 1480.78 982.879 1462.31 C 970.014 1470.91 958.29 1469.96 948.35 1457.42 C 934.87 1440.41 925.038 1420.63 914.929 1401.53 C 904.476 1381.72 893.758 1362.04 882.779 1342.51 C 862.017 1330.82 841.106 1321.34 819.541 1311.32 C 828.484 1324.28 836.217 1339.56 843.957 1353.47 C 827.472 1337.2 823.948 1329.33 813.823 1309.17 C 797.672 1302.63 769.89 1292.46 752.791 1303.21 C 737.857 1312.6 764.133 1342.18 770.752 1352.58 C 805.623 1407.39 843.739 1460.38 878.685 1515.21 C 917.815 1571.78 951.21 1628.1 986.71 1686.79 C 991.529 1694.75 1022.98 1740.52 1022.25 1745.28 L 1020.57 1745.84 C 1010.97 1741.41 948.449 1672.06 939.397 1660.06 C 853.506 1546.27 769.082 1426.12 697.548 1302.65 C 691.073 1310.61 684.471 1318.46 677.747 1326.2 C 685.114 1343.88 700.88 1362.76 711.138 1378.98 C 727.897 1405.6 747.023 1430.49 765.036 1456.15 C 773.418 1468.09 757.289 1484.05 744.675 1470.31 C 738.108 1463.15 733.582 1455.21 727.602 1447.92 C 702.239 1416.98 682.323 1383.68 661.456 1349.78 C 638.421 1374.97 618.554 1428.23 606.656 1460.37 C 604.042 1467.43 599.116 1492.88 592.603 1493.85 L 590.83 1492.53 C 584.513 1477.51 610.071 1368.26 615.879 1347.48 C 620.299 1331.4 625.608 1315.58 631.782 1300.09 C 620.495 1279.04 610.396 1259.2 600.445 1237.48 C 593.934 1223.26 587.196 1211.07 581.619 1196.25 C 570.788 1206.53 558.762 1215.02 547.166 1224.94 C 529.857 1239.75 515.681 1255.4 499.455 1271.57 C 485.114 1285.87 475.55 1302.53 461.783 1316.46 C 460.181 1318.08 458.067 1317.87 456.193 1317.51 C 450.969 1310.61 456.181 1304.36 459.852 1298.08 C 490.849 1244.99 527.086 1197.88 565.485 1150.02 C 541.245 1125.01 518.733 1082.14 488.472 1061.03 C 478.05 1053.75 457.534 1054.92 442.552 1051.34 C 399.262 1040.62 342.598 1024.33 309.792 993.477 C 287.157 972.189 330.256 938.93 346.055 928.894 C 355.453 922.925 396.124 889.765 404.844 904.616 C 404.197 918.8 368.944 935.179 369.751 945.966 C 377.791 950.248 458.126 924.068 469.058 918.673 L 470.326 918.039 C 469.028 897.001 453.305 870.731 453.022 851.101 C 452.853 839.4 476.365 800.334 483.235 788.022 C 496.718 763.859 512.855 737.996 527.112 714.061 C 554.156 667.739 581.777 621.758 609.97 576.127 C 655.522 501.488 699.211 424.944 747.014 351.709 C 748.07 350.091 748.39 350.473 750.052 350.498 C 751.883 357.5 743.099 377.355 740.069 385.071 C 700.52 485.776 643.754 582.104 589.518 675.613 C 555.686 734.429 522.469 793.596 489.87 853.105 C 493.582 866.809 504.466 890.382 510.514 904.21 C 532.699 894.715 571.71 878.883 593.716 871.087 C 601.329 853.895 613.913 825.723 623.425 810.646 C 621.26 826.868 617.366 844.735 614.954 861.598 C 619.893 859.31 621.093 858.738 626.389 857.694 C 635.434 828.039 655.163 787.936 674.382 763.439 C 672.128 789.935 668.518 815.923 665.136 842.283 C 700.941 825.411 744.002 809.191 781.054 793.795 L 1010.09 698.256 C 1030.16 689.789 1050.31 681.534 1070.55 673.494 C 1079.69 669.912 1090.72 665.748 1099.88 661.988 C 1101.48 661.333 1103.43 656.041 1104.6 654.74 C 1106.64 652.458 1107.3 652.627 1109.93 652.237 C 1111.59 653.122 1113.26 654.008 1114.92 654.893 C 1137.12 647.128 1159.18 639.021 1181.42 631.286 C 1176.79 621.706 1161.92 584.506 1154.89 580.32 C 1150.75 582.354 1098.91 589.202 1089.84 590.326 C 1109.06 580.448 1132.44 575.96 1153.95 576.038 C 1150.69 566.094 1137.11 541.217 1131.99 531.509 C 1042.25 548.613 954.891 574.444 864.782 589.73 C 845.405 593.017 824.753 597.527 805.636 601.947 L 740.635 709.937 C 733.511 721.89 713.098 758.028 705.126 767.415 C 699.825 730.917 699.428 701.607 703.936 665.27 C 697.217 673.177 676.355 695.688 668.31 701.826 C 665.158 704.809 661.362 706.59 657.537 708.718 C 665.569 699.581 674.089 691.493 682.847 683.095 C 686.517 677.096 701.316 664.661 704.753 657.493 C 708.988 648.073 709.574 637.283 712.042 627.27 C 714.261 618.266 717.616 609.362 719.989 600.446 C 740.206 524.474 781.291 460.688 818.033 392.066 L 847.931 336.53 C 850.793 331.241 860.239 310.83 864.995 309.253 L 866.281 310.19 C 870.096 331.636 755.372 582.462 747.536 624.381 C 747.079 626.828 744.796 634.657 744.05 637.545 C 752.607 623.262 773.34 584.039 782.898 572.771 L 784.152 571.311 C 789.4 565.084 791.81 565.406 799.265 563.639 C 810.917 560.877 822.696 558.754 834.447 556.473 C 859.018 551.875 883.525 546.942 907.961 541.675 C 973.807 527.263 1039.06 509.946 1105.33 497.215 C 1115.85 495.194 1143.3 491.429 1152.96 493.684 C 1159.88 495.3 1173.2 524.102 1177.56 532.427 z" fill="rgb(35,31,32)" transform="translate(0,0)"></path>
<path d="M 947.936 874.914 L 948.691 875.535 C 950.522 880.29 952.035 918.21 952.615 925.983 C 957.278 990.419 961.198 1054.91 964.376 1119.43 C 968.288 1188.08 971.133 1256.78 972.908 1325.52 C 913.729 1286.13 813.231 1246.61 742.435 1238.2 C 750.375 1227.99 763.348 1214.93 772.401 1204.72 C 791.196 1183.53 810.239 1162.4 827.968 1140.27 C 849.088 1112.19 897.406 1048.86 866.454 1016 C 819.803 966.485 755.107 999.388 708.665 1030.56 C 696.643 1038.63 685.485 1045.08 674.3 1054.7 C 663.908 1036.61 659.003 1030.4 643.812 1016.12 C 708.886 988.958 772.36 953.289 837.515 925.205 C 874.062 909.452 912.375 892.386 947.936 874.914 z" fill="rgb(254,254,254)" transform="translate(0,0)"></path>
<path d="M 928.72 921.029 L 929.436 921.727 C 931.086 927.632 931.822 946.726 932.337 954.182 L 936.972 1022.89 C 941.482 1084.88 945.123 1146.93 947.893 1209.03 C 949.023 1232.96 950.809 1258.37 951.079 1282.21 C 923.349 1269.41 896.435 1255.52 868.33 1242.72 C 851.601 1235.45 835.032 1227.18 818.612 1219.2 C 838.578 1203.31 869.395 1183.31 887.233 1166.45 C 888.221 1143.79 889.013 1121.12 889.608 1098.45 C 891.571 1038.96 893.063 999.836 879.963 940.793 C 896.258 933.58 910.824 929.54 928.72 921.029 z" fill="rgb(35,31,32)" transform="translate(0,0)"></path>
<path d="M 916.297 1105.72 C 918.411 1117.15 920.141 1152.1 920.795 1164.94 C 921.725 1183.17 925.733 1219.22 924.606 1235.75 C 921.78 1234.6 921.796 1234.81 919.869 1232.51 C 916.12 1218.17 913.202 1117.93 916.297 1105.72 z" fill="rgb(254,254,254)" transform="translate(0,0)"></path>
<path d="M 1198.92 776.121 C 1203.4 776.9 1208.17 778.784 1210.26 783.032 C 1209.45 791.134 1196.48 823.095 1192.85 832.94 L 1155.6 935.116 C 1129.34 1009.56 1102.17 1083.67 1074.09 1157.45 C 1062.46 1188.79 1051.74 1221.74 1038.22 1252.46 C 1033.73 1262.66 1026.79 1256.86 1018.78 1259.7 L 1017.14 1258.5 C 1014.33 1226.97 1014.74 1187.62 1012.81 1154.98 C 1010.97 1127.46 1009.29 1099.94 1007.76 1072.4 C 1007.07 1060.33 1005.78 1045.14 1006.48 1033.27 C 1006.6 1031.1 1010.76 1016.92 1011.66 1013.67 C 1015.16 1001.13 1018.36 988.512 1021.27 975.822 C 1032.06 928.684 1041.45 881.237 1049.43 833.544 C 1065.81 826.034 1092.82 816.887 1110.53 809.831 C 1129.01 802.469 1147.53 795.216 1166.1 788.071 C 1175.84 784.294 1189.34 778.575 1198.92 776.121 z" fill="rgb(254,254,254)" transform="translate(0,0)"></path>
<path d="M 1038.36 1066.33 C 1039.68 1061.1 1042.85 1045.65 1046.78 1043.27 C 1048.19 1050.52 1043.97 1064.64 1042.01 1072.2 C 1038.66 1083.87 1023.9 1146.56 1019.75 1152.59 L 1018.71 1151.45 C 1017.04 1136.18 1033.64 1084.86 1038.36 1066.33 z" fill="rgb(35,31,32)" transform="translate(0,0)"></path>
<path d="M 1066.02 1132.32 C 1068.59 1133.43 1069.43 1133.47 1071.06 1135.71 C 1070.59 1142.14 1048.74 1202.1 1045.12 1207.66 L 1042.62 1207.91 L 1041.55 1206.32 C 1041.34 1193.94 1061.07 1147.94 1066.02 1132.32 z" fill="rgb(35,31,32)" transform="translate(0,0)"></path>
<path d="M 1089.46 1062.32 C 1091.75 1063.4 1091.59 1063.31 1093.02 1065.4 C 1092.56 1073.22 1082.59 1091.06 1078.01 1097.4 C 1074.3 1096.47 1075.51 1097.5 1073.75 1094.88 C 1074.29 1087.21 1084.44 1068.48 1089.46 1062.32 z" fill="rgb(35,31,32)" transform="translate(0,0)"></path>
<path d="M 1144.41 841.816 C 1145.36 853.903 1121.15 905.724 1113.35 917.22 C 1112.89 911.024 1134.13 870.597 1136.15 861.328 C 1136.89 857.907 1142.35 844.849 1144.41 841.816 z" fill="rgb(35,31,32)" transform="translate(0,0)"></path>
<path d="M 1406.29 699.072 C 1407.03 699.321 1406.56 699.098 1407.47 700.107 C 1404.14 707.38 1399.77 713.576 1396.2 720.563 C 1360.95 789.527 1315.47 853.201 1263.28 910.334 C 1247.91 927.514 1232.34 945.528 1213.23 958.689 C 1202.19 966.294 1188.93 970.316 1175.94 973.086 L 1183.46 952.245 C 1201.68 897.786 1222.61 844.645 1242.82 790.926 C 1246.6 780.893 1237.83 768.034 1232.24 760.192 C 1241.69 756.431 1255.97 752.508 1264.26 747.997 C 1266.2 752.088 1266.66 753.683 1269.67 756.924 C 1273.39 758.336 1271.64 758.387 1275.1 757.157 C 1279.31 752.227 1278.92 748.627 1278.94 742.137 C 1292.72 736.718 1290.93 736.268 1303.25 743.114 C 1306.76 743.116 1306.5 743.123 1309.45 741.182 C 1311.6 738.249 1311.48 736.394 1311.96 732.75 L 1312.14 731.304 C 1321.66 724.766 1390.37 704.306 1406.29 699.072 z" fill="rgb(254,254,254)" transform="translate(0,0)"></path>
<path d="M 1362.16 753.958 L 1362.39 754.873 C 1358.6 770.946 1300.83 842.22 1286.88 853.341 C 1286.45 849.665 1295.26 841.4 1298.52 837.726 C 1322.08 811.67 1343.38 783.645 1362.16 753.958 z" fill="rgb(35,31,32)" transform="translate(0,0)"></path>
<path d="M 1267.82 814.794 C 1271.01 819.657 1265.79 825.225 1261.81 827.872 C 1257.72 821.779 1263.14 818.532 1267.82 814.794 z" fill="rgb(35,31,32)" transform="translate(0,0)"></path>
<path d="M 749.861 1096.94 L 750.591 1097.56 C 750.547 1097.83 698.206 1177.88 694.085 1184.28 C 685.32 1171.32 676.335 1163.02 661.795 1156.67 C 669.282 1168.48 679.405 1181.32 687.617 1193.94 C 675.932 1217.03 662.428 1238.9 650.701 1262.18 C 644.033 1249.12 637.538 1235.74 631.012 1222.58 C 623.779 1207.92 615.816 1192.47 609.497 1177.5 C 612.728 1175.39 613.997 1174.04 617.235 1174.38 C 631.987 1185.48 648.053 1207 659.336 1221.64 C 649.958 1199.49 642.152 1185.39 629.743 1165.16 C 634.84 1161.98 640.14 1158.85 645.163 1155.59 C 678.819 1133.71 714.939 1116.66 749.861 1096.94 z" fill="rgb(254,254,254)" transform="translate(0,0)"></path>
<path d="M 940.617 792.996 C 943.748 796.913 943.251 810.958 943.35 816.746 C 910.137 832.989 873.205 846.732 839.323 862.335 C 798.487 881.14 757.436 899.518 715.584 915.919 C 709.565 918.278 684.488 929.03 679.481 929.94 L 677.767 928.564 L 670.715 912.04 C 696.233 899.676 727.125 886.872 753.47 875.218 L 940.617 792.996 z" fill="rgb(254,254,254)" transform="translate(0,0)"></path>
<path d="M 1269.25 666.196 C 1273.94 667.578 1278.73 669.094 1279.92 674.123 C 1277.99 676.673 1273.56 678.487 1270.52 679.625 C 1199.58 706.204 1129.14 733.201 1059.58 763.287 C 1046.22 769.068 1033.06 774.36 1019.92 780.711 C 1016.57 782.278 1018.01 782.382 1015.18 781.799 C 1012.33 777.255 1011.33 769.575 1010.12 763.982 C 1031.02 753.785 1048.07 747.585 1069.05 738.767 C 1107.88 722.451 1145.84 707.24 1185.81 693.806 C 1213.35 684.551 1241.15 673.479 1269.25 666.196 z" fill="rgb(254,254,254)" transform="translate(0,0)"></path>
<path d="M 609.55 1032.96 C 624.905 1035.29 639.874 1060.18 646.184 1073.04 C 638.053 1078.21 629.426 1085.96 621.945 1092.27 C 617.073 1083.9 613.202 1079.2 606.975 1071.84 C 610.098 1079.99 613.493 1087.69 616.981 1095.67 C 612.143 1100.49 588.794 1124.3 584.836 1126.72 L 583.598 1125.57 C 579.597 1119.52 575.642 1113.44 571.732 1107.32 C 575.453 1105.76 580.159 1104.49 584.088 1103.31 C 579.576 1095.89 576.498 1092.12 570.443 1086.15 C 569.973 1090.82 568.203 1098.59 567.222 1103.48 C 562.672 1097.08 549.102 1079.18 548.591 1072.14 C 551.301 1070.72 551.137 1071.05 554.303 1070.55 L 555.184 1068.55 C 554.178 1066.5 553.136 1064.45 552.06 1062.43 C 555.81 1057.62 601.063 1037.03 609.55 1032.96 z" fill="rgb(254,254,254)" transform="translate(0,0)"></path>
<path d="M 654.841 918.907 C 657.751 919.814 663.981 933.377 665.772 936.817 C 589.959 965.303 530.23 993.618 449.127 1003.72 L 433.4 1005.2 C 509.137 981.64 583.131 952.805 654.841 918.907 z" fill="rgb(254,254,254)" transform="translate(0,0)"></path>
<path d="M 962.396 1359.51 C 966.514 1360.68 966.9 1360.86 970.621 1363.03 C 973.128 1366.92 970.84 1375.66 969.902 1380.01 C 968.707 1385.56 962.124 1417.24 959.295 1419.28 L 955.087 1415.5 C 948.655 1409.38 944.042 1405.03 939.014 1397.71 C 949.53 1383.93 954.098 1374.8 962.396 1359.51 z" fill="rgb(254,254,254)" transform="translate(0,0)"></path>
<path d="M 1377.29 629.999 C 1380.79 631.101 1385.51 637.648 1387.84 640.691 C 1368.58 647.743 1345.9 654.512 1326.23 660.399 L 1325.52 660.732 C 1322.52 659.875 1318.77 653.925 1316.34 650.87 C 1334.89 645.49 1358.71 636.512 1377.29 629.999 z" fill="rgb(254,254,254)" transform="translate(0,0)"></path>
<path d="M 1297.48 656.903 C 1301.09 658.107 1311.02 660.92 1313.24 663.374 L 1311.77 664.264 C 1306.67 665.204 1302.75 667.074 1298.63 666.01 C 1296.74 663.396 1297.38 660.342 1297.48 656.903 z" fill="rgb(254,254,254)" transform="translate(0,0)"></path>
<path d="M 1746.83 781.925 C 1749.6 782.061 1748.34 781.737 1750.58 783.207 C 1750.78 786.357 1750.11 788.529 1747.67 790.813 C 1664.73 868.48 1598.19 960.824 1534.28 1054.5 C 1474.16 1142.62 1420.05 1235.21 1375.32 1332.53 C 1360.48 1364.38 1346.73 1396.73 1334.08 1429.52 C 1327.64 1446.56 1317.33 1478.84 1310.46 1493.52 L 1309.96 1494.56 C 1309.19 1450.88 1335.74 1355.05 1351.76 1314.28 C 1322.8 1300.74 1331.56 1277.68 1337.24 1252.49 C 1342.01 1231.3 1349.1 1210.99 1355.36 1190.25 C 1362.57 1166.38 1368.87 1142.57 1377.87 1119.24 C 1364.67 1133.88 1351.23 1156.1 1339.78 1172.63 C 1294.84 1237.67 1251.28 1304.93 1224.42 1379.74 C 1222.6 1384.81 1220.45 1397.38 1214.65 1398.26 C 1213.67 1396.99 1212.09 1395.31 1212.53 1393.57 C 1229.91 1323.54 1265.62 1243.06 1295.01 1178.25 C 1300.03 1166.97 1305.31 1155.8 1310.86 1144.77 C 1321.46 1123.92 1333.77 1104.62 1335.93 1081.34 C 1310.12 1119.32 1290.29 1163.74 1265.72 1202.79 C 1255.78 1218.59 1247.32 1236.48 1239.13 1253.23 C 1234.73 1262.23 1232.42 1272.99 1227.05 1281.7 L 1225.81 1281.99 C 1206.27 1257.93 1236.21 1211.87 1242.07 1187.75 C 1246.57 1169.2 1248.13 1150.34 1250.47 1131.45 C 1221.88 1168.25 1188.23 1191.45 1159.48 1225.59 C 1129.77 1261.58 1106.58 1321.66 1092.38 1366.36 C 1090.46 1372.41 1082.24 1402.59 1080.91 1404.76 L 1079.31 1404.36 C 1073.76 1394.62 1080.89 1369.22 1083.39 1357.67 C 1101.44 1274.07 1134.77 1199.76 1173.38 1124.14 C 1157.62 1127.94 1151.32 1128.44 1135.18 1127.65 C 1140.05 1115.76 1151.76 1104.01 1160.28 1094.28 C 1196.5 1052.54 1238.93 1016.3 1277.77 977.175 C 1329.09 924.931 1377.16 869.487 1427.38 816.181 C 1433.71 809.464 1453.12 781.958 1462.53 789.923 C 1464.19 794.249 1464.58 793.692 1461.79 798.984 C 1452.37 816.86 1442.43 834.048 1433.15 852.068 C 1414.95 887.444 1397.43 923.163 1380.59 959.205 C 1369.08 983.521 1355.26 1012.21 1345.7 1037.12 C 1349.22 1033.24 1356.72 1020.81 1359.92 1015.74 C 1366.76 1004.71 1374.03 993.949 1381.72 983.493 C 1420.24 931.68 1461.94 881.594 1504.07 832.639 C 1508.15 827.903 1514.73 820.811 1521.01 819.888 C 1527.39 823.637 1525.95 829.779 1523.75 836.068 C 1520.16 846.302 1515.95 856.202 1512.32 866.469 C 1503.1 892.74 1494.14 919.098 1485.42 945.54 C 1465.45 1006.37 1449.65 1069.15 1423.25 1127.6 C 1441.55 1105.51 1436.62 1101.06 1445.58 1082.15 C 1460.1 1055.85 1479.01 1032.3 1497.57 1008.83 C 1556.34 934.558 1623.17 865.496 1700.1 809.903 C 1713.99 799.871 1730.81 787.909 1746.83 781.925 z" fill="rgb(35,31,32)" transform="translate(0,0)"></path>
<path d="M 1289.44 1036.78 C 1312.19 1039.34 1289.68 1079.61 1282.36 1089.24 C 1280.84 1087.65 1281.5 1088.33 1280.93 1085.61 C 1282.09 1082.56 1282.47 1082.18 1282.43 1078.88 C 1279.92 1075.4 1279.74 1076.19 1275.08 1074.2 C 1274.32 1057.71 1274.45 1046.71 1289.44 1036.78 z" fill="rgb(254,254,254)" transform="translate(0,0)"></path>
<path d="M 1418.77 993.732 L 1420.09 995.46 C 1418.63 999.585 1402.04 1024.49 1398.68 1029.9 C 1392.12 1040.46 1383.95 1055.7 1377.2 1065.36 C 1376.12 1064.36 1376.67 1065.05 1375.93 1063.05 C 1379.09 1048.61 1407.02 1003.19 1418.77 993.732 z" fill="rgb(254,254,254)" transform="translate(0,0)"></path>
<path d="M 1454.84 1113.86 C 1454.84 1119.84 1407.45 1213.94 1400.48 1225.14 C 1399.65 1215.76 1446.06 1128.46 1454.84 1113.86 z" fill="rgb(254,254,254)" transform="translate(0,0)"></path>
<path d="M 1244.31 1083.86 C 1245.26 1084.2 1244.77 1083.89 1245.47 1085.15 C 1239.57 1091.87 1211.6 1114.49 1203.61 1121.25 L 1202.11 1121.03 C 1207 1112.08 1235.68 1089.8 1244.31 1083.86 z" fill="rgb(254,254,254)" transform="translate(0,0)"></path>
<path d="M 1250.35 1044.96 L 1250.58 1046.02 C 1248.67 1051.51 1222.03 1072.24 1215.83 1077.1 L 1215.52 1076.07 C 1217.6 1071.4 1244.71 1049.41 1250.35 1044.96 z" fill="rgb(254,254,254)" transform="translate(0,0)"></path>
<path d="M 1240.7 1067.16 C 1240.02 1070.13 1210.7 1094.87 1205.87 1099.33 L 1205.55 1097.94 C 1209.22 1090.56 1231.96 1071.6 1240.7 1067.16 z" fill="rgb(254,254,254)" transform="translate(0,0)"></path>
<path d="M 1398.1 1154.49 C 1400.4 1156.57 1403.11 1160.76 1405.04 1163.43 L 1398.83 1171 L 1397.32 1170.59 C 1390.93 1164.36 1393.46 1161.62 1398.1 1154.49 z" fill="rgb(254,254,254)" transform="translate(0,0)"></path>
<path d="M 983.392 1563.11 C 986.562 1562.91 990.838 1562.62 993.727 1563.83 C 1011.57 1571.29 1042.75 1623.57 1050.76 1639.88 C 1044.04 1632.4 1037.22 1624.9 1031 1616.99 C 1022.89 1606.67 1012.96 1588.88 1003.01 1581.31 C 1000.06 1579.06 995.052 1578.02 991.441 1578.92 C 988.442 1579.67 984.325 1582.76 983.351 1585.73 C 980.167 1595.44 1015.44 1644.36 1022.12 1655.12 C 1032.53 1671.7 1056.02 1708.04 1063.07 1724.88 C 1054.54 1717.67 1050.46 1710.74 1043.35 1702.38 C 1016.14 1670.43 992.093 1635.81 970.322 1599.96 C 959.55 1582.22 966.383 1571.58 983.392 1563.11 z" fill="rgb(35,31,32)" transform="translate(0,0)"></path>
<path d="M 1462.99 326.819 C 1466.62 326.78 1466.73 326.52 1469.87 328.532 C 1470.34 329.752 1471.01 330.554 1470.55 331.873 C 1469.93 333.632 1385.94 420.098 1379.09 426.157 C 1373.12 431.449 1366.49 435.471 1359.32 438.93 C 1356.43 437.594 1349.03 433.898 1350.65 430.278 C 1362.21 404.474 1403.31 376.119 1424.06 359.17 L 1462.99 326.819 z" fill="rgb(35,31,32)" transform="translate(0,0)"></path>
<path d="M 480.448 684.682 L 484.049 685.145 C 495.151 693.936 477.589 733.328 473.275 744.444 C 468.338 757.161 463.522 774.295 448.521 776.538 C 421.798 763.37 462.89 696.201 480.448 684.682 z" fill="rgb(35,31,32)" transform="translate(0,0)"></path>
<path d="M 766.452 422.023 C 765.544 432.692 725.018 496.348 718.752 513.527 C 713.408 526.08 705.845 543.096 704.838 556.634 C 703.982 568.131 713.46 596.751 689.086 587.295 L 688.813 586.954 C 662.373 554.472 746.72 448.295 766.452 422.023 z" fill="rgb(35,31,32)" transform="translate(0,0)"></path>
<path d="M 1131.13 1431.11 C 1157.45 1429.23 1155.37 1454.04 1157.77 1472.7 C 1158.68 1479.77 1163.5 1495.57 1160.71 1501.3 C 1157.43 1502.04 1158.2 1501.64 1154.36 1499.93 C 1139.53 1485.84 1102.8 1448.5 1131.13 1431.11 z" fill="rgb(35,31,32)" transform="translate(0,0)"></path>
<path d="M 976.786 690.296 C 980.405 691.02 980.691 690.813 982.105 693.624 L 980.704 695.724 C 972.493 700.177 956.873 703.626 947.298 707.093 C 916.33 718.309 889.628 728.164 857.022 733.763 C 853.643 734.168 852.96 734.316 849.47 734.091 C 853.195 731.559 877.115 724.503 882.812 722.743 C 913.53 713.254 945.027 695.31 976.786 690.296 z" fill="rgb(35,31,32)" transform="translate(0,0)"></path>
<path d="M 376.794 599.949 C 397.027 601.008 407.868 626.035 382.411 635.193 C 360.319 635.019 357.342 610.754 376.794 599.949 z" fill="rgb(35,31,32)" transform="translate(0,0)"></path>
<path d="M 1516.04 524.09 C 1534.58 524.839 1538.02 547.311 1518.66 554.195 C 1499.33 551.883 1497.41 531.669 1516.04 524.09 z" fill="rgb(35,31,32)" transform="translate(0,0)"></path>
<path d="M 1328.83 419.128 C 1329.88 419.048 1330.94 418.975 1331.99 418.91 C 1354.14 417.59 1342.11 442.004 1332.7 450.638 C 1313.8 456.328 1315.47 429.839 1328.83 419.128 z" fill="rgb(35,31,32)" transform="translate(0,0)"></path>
<path d="M 1596.79 1162.02 C 1615.77 1162.31 1620.82 1182.41 1604.17 1191.57 C 1597.56 1191.37 1592.83 1190.84 1589.01 1184.65 C 1586.98 1181.36 1586.38 1177.38 1587.35 1173.64 C 1588.86 1167.69 1591.92 1165.16 1596.79 1162.02 z" fill="rgb(35,31,32)" transform="translate(0,0)"></path>
<path d="M 1372.06 436.835 C 1387.29 438.133 1398.03 451.327 1383.13 463.732 C 1364.1 470.234 1357.36 445.16 1372.06 436.835 z" fill="rgb(35,31,32)" transform="translate(0,0)"></path>
<path d="M 985.453 404.632 C 992.259 402.582 999.455 406.346 1001.65 413.106 C 1003.85 419.865 1000.24 427.141 993.532 429.484 C 989.06 431.046 984.093 430.066 980.55 426.922 C 977.007 423.779 975.442 418.964 976.459 414.338 C 977.477 409.712 980.918 405.998 985.453 404.632 z" fill="rgb(35,31,32)" transform="translate(0,0)"></path>
<path d="M 862.1 651.397 L 865.135 651.194 L 865.008 651.796 C 851.34 655.874 837.736 660.162 824.2 664.657 C 810.122 669.479 782.334 680.233 768.626 681.434 C 765.43 680.681 766.236 681.547 764.918 679.626 C 772.648 670.895 846.183 653.992 862.1 651.397 z" fill="rgb(35,31,32)" transform="translate(0,0)"></path>
<path d="M 905.532 1531.86 C 912.378 1536.01 953.144 1597.48 955.325 1605.7 C 944.951 1599.5 906.785 1543.67 905.532 1531.86 z" fill="rgb(35,31,32)" transform="translate(0,0)"></path>
<path d="M 814.842 1388.74 C 823.581 1395.34 851.959 1447.25 859.07 1459.46 C 854.097 1456.51 840.134 1435.48 836.425 1429.52 C 829.885 1419 815.009 1400.72 814.842 1388.74 z" fill="rgb(35,31,32)" transform="translate(0,0)"></path>
<path d="M 551.761 789.926 L 552.542 791.067 C 538.498 819.713 526.23 846.961 512.664 875.383 C 511.772 874.476 510.779 873.36 511.114 872.059 C 515.467 855.131 542.854 801.207 551.761 789.926 z" fill="rgb(35,31,32)" transform="translate(0,0)"></path>
<path d="M 1131.66 554.423 C 1135.44 554.047 1138.37 553.224 1141.09 556.29 C 1135.61 559.506 1089.16 564.513 1079.23 565.843 L 1066.37 567.064 C 1083.33 560.797 1113.91 555.935 1131.66 554.423 z" fill="rgb(35,31,32)" transform="translate(0,0)"></path>
<path d="M 587.331 797.516 C 592.988 802.446 579.95 835.705 575.034 840.829 C 570.365 834.239 583.207 804.696 587.331 797.516 z" fill="rgb(35,31,32)" transform="translate(0,0)"></path>
<path d="M 1546.86 476.843 C 1558.59 476.676 1562.65 485.435 1554.48 493.885 C 1550.27 494.813 1548.68 494.844 1545.02 492.744 C 1540.41 487.163 1543.2 481.947 1546.86 476.843 z" fill="rgb(35,31,32)" transform="translate(0,0)"></path>
<path d="M 1057.51 623.347 C 1062.32 622.832 1069.51 621.045 1071.76 626.24 L 1070.17 628.434 C 1066.32 630.793 1062.87 630.403 1058.25 630.597 C 1053.71 630.928 1046.72 631.85 1043.7 628.144 L 1044.7 626.353 C 1048.98 623.789 1052.49 623.892 1057.51 623.347 z" fill="rgb(35,31,32)" transform="translate(0,0)"></path>
<path d="M 866.563 1358.61 C 875.871 1363.76 893.324 1399.69 896.794 1410.45 C 891.799 1406.55 869.383 1365.73 866.563 1358.61 z" fill="rgb(35,31,32)" transform="translate(0,0)"></path>
<path d="M 922.175 1520.6 C 929.233 1523.36 945.139 1549.44 946.159 1557.38 C 945.61 1556.86 945.072 1556.33 944.545 1555.78 C 937.951 1549.03 922.064 1529.81 922.175 1520.6 z" fill="rgb(35,31,32)" transform="translate(0,0)"></path>
<path d="M 1238.9 569.407 C 1240.49 569.566 1241.86 569.909 1243.42 570.23 C 1246.13 572.828 1245.39 571.298 1245.84 574.919 C 1244.28 579.713 1243.35 580.322 1239.93 584.27 C 1238.42 584.163 1237.46 583.809 1235.98 583.426 C 1231.63 578.39 1235.2 573.644 1238.9 569.407 z" fill="rgb(35,31,32)" transform="translate(0,0)"></path>
<metadata><recraft-signature>{"signed_by": "recraft", "signature_b64": "8wYH19GRTvyEuuVZ7D+orGcec/H69MU1HyOYBu7Q8gMG5gKpSLkmNmcZDX9Ivme3N2EGNSrO4GGpPqvQLlOPBg==", "signing_algo": "Ed25519", "generation_timestamp": 1776302001, "identifier": "8afdbed6-0194-4d92-a55a-238bdea5ccc1"}</recraft-signature></metadata></svg>