<svg xmlns="http://www.w3.org/2000/svg" height="1024" preserveAspectRatio="none" style="display: block;" version="1.1" viewBox="0 0 2048 2048" width="1024">
<path d="M 0 0 L 2048 0 L 2048 2048 L 0 2048 L 0 0 z" fill="rgb(255,255,255)" transform="translate(0,0)"></path>
<path d="M 481.175 190.658 C 485.734 190.479 489.675 190.982 493.062 194.336 C 510.974 212.07 503.249 407.837 503.259 441.973 C 523.619 422.611 562.222 396.448 591.515 395.562 C 621.405 394.659 652.651 423.935 673.021 443.378 C 695.491 423.167 764.799 401.706 795.415 392.432 C 811.329 357.944 832.831 323.102 853.429 291.216 C 860.935 279.597 878.104 255.508 893.117 270.532 C 899.373 276.794 888.801 302.346 888.024 310.851 C 884.852 331.775 879.98 354.287 878.934 375.354 L 878.868 376.813 C 917.304 375.612 966.435 371.064 1005.27 375.255 C 1010.1 376.105 1015.67 379.441 1017.85 383.895 C 1034.01 416.865 1001.39 431.389 978.287 441.517 C 962.928 448.342 947.365 454.7 931.622 460.583 C 915.013 466.779 895.316 473.14 880.18 481.682 C 878.646 491.448 878.615 508.966 878.455 519.126 C 877.854 557.196 880.299 595.631 880.759 633.668 C 881.018 655.091 879.38 677.814 879.301 699.414 C 879.022 775.605 877.055 852.305 881.047 928.413 C 881.352 948.061 883.971 963.893 885.316 983.666 C 886.172 996.259 903.576 1049.47 880.165 1048.27 C 874.658 1047.99 871.091 1042.09 868.244 1037.63 C 870.288 1050.24 874.257 1068.51 872.476 1080.87 C 871.914 1084.77 869.385 1086.27 866.299 1088.17 C 868.064 1104.57 873.538 1114.93 853.437 1118.56 C 853.696 1127.94 855.309 1152.79 848.277 1160.94 C 840.801 1169.52 828.124 1163.87 826.13 1153.42 C 816.377 1102.32 806.894 1048.85 803.899 996.913 C 801.696 958.693 803.976 919.091 804.103 880.759 L 805.231 683.771 C 805.896 619.816 805.075 555.854 802.771 491.937 C 765.711 495.995 743.994 504.503 706.414 495.545 C 709.613 505.007 712.883 514.444 716.225 523.856 C 722.508 542.068 731.846 570.839 735.297 589.844 C 746.39 650.945 747.155 715.314 745.166 777.211 C 744.226 806.502 746.235 836.611 740.448 865.598 C 735.096 892.407 726.665 914.704 714.631 939.163 C 702.621 964.95 686.592 988.311 658.177 997.663 C 609.407 1013.71 563.422 975.517 538.018 937.474 C 522.089 913.622 513.799 887.755 505.283 861.188 L 511.975 1068.33 C 512.262 1077.41 517.027 1104.18 513.826 1111.95 C 512.479 1115.21 503.754 1115.03 499.66 1115.15 C 500.044 1124.13 502.103 1137.68 495.306 1144.27 C 491.951 1145.75 490.305 1144.84 486.649 1143.89 L 485.229 1143.51 C 478.036 1148.62 492.394 1181.53 468.192 1167.68 C 467.531 1178.86 465.895 1208.51 448.632 1208.82 C 436.668 1207.74 436.041 1190.53 435.562 1182.53 C 431.168 1109.15 431.762 1036.86 431.68 963.5 C 431.435 897.222 430.465 830.949 428.77 764.692 C 424.017 648.561 421.471 532.351 421.133 416.123 C 420.852 379.735 417.734 339.149 419.231 302.928 C 419.974 284.961 441.514 253.169 450.274 237.224 C 457.264 224.501 470.258 199.549 481.175 190.658 z" fill="rgb(0,0,0)" transform="translate(0,0)"></path>
<path d="M 587.219 423.26 C 592.775 423.331 598.283 424.304 603.528 426.142 C 626.911 434.287 673.535 473.806 682.987 497.15 C 716.107 578.951 725.61 672.428 720.6 760.014 C 718.203 801.925 719.285 836.436 704.26 875.856 C 691.658 908.921 677.126 933.836 644.982 949.094 C 630.17 954.46 611.673 956.678 596.605 951.052 C 535.963 928.388 526.663 845.84 519.796 790.564 C 506.615 684.473 515.193 577.577 515.006 470.898 C 529.047 449.496 561.945 427.837 587.219 423.26 z" fill="rgb(255,255,255)" transform="translate(0,0)"></path>
<path d="M 591.812 477.21 C 597.673 476.784 600.72 477.163 606.459 478.872 C 628.951 485.569 650.855 516.626 661.28 536.383 C 698.998 607.861 703.795 693.885 700.161 773.09 C 699 798.411 697.083 823.243 690.316 847.848 C 683.937 871.039 663.979 887.118 643.142 897.969 C 596.247 919.506 558.14 870.552 549.689 829.4 C 539.938 781.92 543.434 729.358 542.041 680.971 C 541.235 652.965 541.581 624.473 541.222 596.431 C 541.189 568.572 545.154 547.999 537.999 520.377 C 550.009 501.939 570.002 483.118 591.812 477.21 z" fill="rgb(0,0,0)" transform="translate(0,0)"></path>
<path d="M 607.111 523.195 C 624.562 523.963 639.123 545.579 646.326 559.832 C 678.453 623.403 679.749 698.552 678.235 768.239 C 677.738 791.152 676.614 815.219 669.932 837.183 C 663.921 856.591 651.055 863.492 634.553 872.074 C 612.836 880.834 597.089 875.306 582.998 855.585 C 576.935 847.099 572.721 834.283 571.275 823.947 C 565.646 783.723 566.575 742.576 565.644 702.035 C 565.022 666.791 564.765 631.28 566.038 596.16 C 566.649 579.318 567.393 561.121 570.914 544.761 C 582.149 532.753 590.549 526.34 607.111 523.195 z" fill="rgb(255,255,255)" transform="translate(0,0)"></path>
<path d="M 477.596 238.682 C 479.759 248.52 479.069 274.637 479.047 286.103 L 477.787 393.37 C 477.459 459.017 479.324 524.309 479.938 589.902 C 480.212 608.094 478.41 626.927 478.916 645.052 C 480.427 699.186 476.342 753.385 476.078 807.346 C 475.713 881.747 484.007 956.389 482.028 1030.9 C 481.398 1054.61 482.178 1079.08 479.424 1102.64 C 478.271 1097.38 474.263 1075.98 468.678 1074.86 C 464.199 1079.53 463.267 1105.79 462.61 1113.84 C 462.176 1119.8 461.248 1124.7 460.208 1130.56 C 453.843 1089.48 455.166 1048.18 454.89 1006.58 L 453.096 870.228 C 452.223 832.975 451.016 795.73 449.474 758.499 C 446.982 678.056 445.135 597.595 443.931 517.122 L 442.846 395.386 C 442.572 370.754 442.914 332.782 438.869 309.668 C 442.17 302.082 449.27 289.659 453.312 282.011 C 460.361 268.672 468.877 250.699 477.596 238.682 z" fill="rgb(255,255,255)" transform="translate(0,0)"></path>
<path d="M 861.803 318.774 C 869.701 327.693 847.043 393.112 860.479 397.756 C 881.223 404.927 980.088 389.699 994.698 396.396 L 995.056 398.668 C 990.557 406.587 929.371 421.112 917.426 425.62 C 894.922 434.185 853.684 436.065 852.58 467.104 C 850.268 532.088 854.697 597.325 852.892 662.221 C 850.104 762.448 850.769 860.487 858.013 960.558 C 853.265 943.372 848.966 926.066 845.122 908.656 C 837.127 943.367 837.182 948.575 840.317 984.09 C 840.968 989.275 841.155 996.911 841.428 1002.34 C 840.367 999.884 839.983 998.328 837.903 996.649 L 836.279 997.932 C 834.163 1003.79 833.464 1019.35 832.903 1026.56 C 825.689 976.187 827.146 912.143 827.076 860.465 L 826.784 646.996 C 826.877 616.718 829.517 487.108 820.425 465.653 C 818.119 460.213 814.368 456.196 808.499 454.804 C 800.041 452.798 790.228 455.402 781.918 457.208 C 756.572 462.716 727.019 470.948 701.944 459.444 C 698.963 458.076 696.718 456.692 695.481 453.541 C 695.628 452.819 695.491 451.972 695.923 451.374 C 701.925 443.052 791.381 421.544 808.427 412.476 C 811.715 410.727 814.643 406.293 816.463 403.139 C 820.351 396.398 823.003 388.693 826.155 381.561 C 835.268 360.946 846.393 335.247 861.803 318.774 z" fill="rgb(255,255,255)" transform="translate(0,0)"></path>
<path d="M 1048.93 1065.21 C 1050.29 1065.1 1051.64 1065.02 1053 1064.98 C 1061.44 1064.85 1067.11 1070.1 1069.09 1078.17 C 1076.75 1109.45 1084.53 1140.73 1092.67 1171.89 C 1101.11 1204.22 1113.81 1236.37 1121.98 1268.65 C 1143.47 1353.58 1161.61 1439.31 1184.49 1523.91 C 1187.2 1533.94 1188.92 1544.27 1190.97 1554.45 C 1202.27 1608.06 1217.29 1661.76 1235.5 1713.45 C 1238.9 1723.1 1241.88 1734.92 1233.16 1743.18 C 1222.98 1752.05 1213.98 1735.05 1209.79 1728.33 C 1209.75 1748.63 1212.6 1774.8 1217.36 1795.12 C 1221.3 1811.96 1212.12 1827.06 1195.88 1812.53 C 1193.5 1810.4 1187.17 1794.3 1184.49 1789.29 C 1184.23 1789.65 1183.97 1790.01 1183.7 1790.36 L 1182.51 1791.93 C 1180.11 1795.11 1179.92 1796 1176.15 1797.53 C 1168.26 1797.1 1165.61 1788.41 1163.65 1781.53 C 1155.47 1752.93 1134.39 1731.13 1123.06 1704.46 C 1108.46 1670.1 1109.46 1631.19 1106.1 1594.66 C 1104.47 1577.47 1101.2 1559.53 1098.35 1542.42 C 1077.45 1545.96 1027.9 1554.79 1008.74 1560.8 C 1002.23 1592.42 990.815 1623.9 983.496 1655.58 C 979.733 1671.87 979.896 1698.56 974.413 1712.46 C 971.979 1718.63 951.879 1735.11 945.618 1743.85 C 936.503 1756.58 909.349 1812.25 895.933 1815.8 C 892.43 1816.76 888.686 1816.19 885.63 1814.22 C 876.515 1808.27 880.328 1792.17 880.489 1783.02 C 881.006 1753.58 882.67 1725.18 891.436 1696.87 C 893.189 1691.21 896.467 1673.13 903.383 1672.45 C 908.825 1679.19 900.588 1744.86 899.715 1757.66 C 918.376 1732.24 909.499 1730.07 914.184 1703.88 C 916.806 1689.22 927.212 1623.81 932.62 1615.53 C 935.505 1614.58 934.018 1614.8 937.208 1615.55 C 945.945 1623.96 932.317 1673.54 932.561 1687.72 C 932.694 1695.45 932.572 1696.09 933.836 1704.35 C 937.782 1700.63 939.235 1698.85 942.568 1694.54 C 945.525 1678.11 945.046 1660.95 948.312 1644.01 C 954.495 1611.95 965.756 1581.85 973.389 1550.11 C 975.133 1542.86 979.87 1523.59 984.639 1519.04 C 986.364 1517.41 988.396 1516.13 990.615 1515.29 C 1010.32 1508.02 1074.7 1494.14 1097.88 1491.96 C 1101.3 1491.8 1104.55 1494.83 1105.72 1497.8 C 1132.56 1565.4 1125.36 1671.23 1173.59 1727.36 C 1171.62 1716.37 1169.59 1704.57 1167.49 1693.6 C 1165.41 1682.74 1150.89 1633.39 1159.64 1626.93 C 1171.48 1630.23 1175.08 1669.91 1182.58 1677.74 L 1183.73 1676.43 C 1187.14 1655.79 1166.44 1580.23 1160.08 1556.04 C 1144.24 1497.69 1128.69 1439.26 1113.45 1380.75 C 1098.15 1319.56 1085.73 1259.12 1071.59 1197.74 C 1065.84 1172.81 1057.59 1148.27 1052.11 1123.48 C 1044.59 1148.06 1039.5 1172.76 1032.33 1196.81 C 1026.4 1216.74 1017.94 1238.6 1011.43 1258.77 C 997.975 1301.4 985.232 1344.25 973.206 1387.3 C 964.984 1414.91 956.152 1442.33 948.116 1470 C 939.828 1498.54 932.298 1527.38 923.342 1555.71 C 903.228 1619.34 878.101 1686.02 868.781 1752.08 C 865.658 1774.22 866.163 1832.67 856.972 1846.85 C 854.648 1850.43 851.095 1853.68 846.647 1854.05 C 843.85 1854.29 841.277 1853.42 839.185 1851.6 C 831.923 1845.27 826.877 1834.22 821.133 1826.4 C 814.018 1816.72 805.761 1808.22 797.054 1799.97 C 783.58 1807.14 782.952 1805.28 774.276 1793.8 C 725.67 1729.25 671.841 1668.8 613.335 1613.07 C 611.922 1646.66 616.473 1684.35 617.132 1718.24 C 617.29 1731.55 619.198 1744.99 617.9 1758.27 C 616.432 1773.28 609.05 1774.01 596.464 1770.78 C 595.679 1780.16 595.779 1792.58 589.493 1799.61 C 581.848 1802.83 579.338 1797.67 575.118 1792.19 C 574.798 1798.66 574.807 1816.87 568.075 1819.8 C 554.665 1825.64 553.707 1799.41 550.39 1790.05 C 547.422 1801.93 545.54 1839.97 531.725 1842.18 C 513.783 1845.05 511.48 1818.78 509.409 1806.23 C 500.151 1804.58 493.468 1799.32 494.063 1789.12 C 501.497 1661.75 497.684 1534.91 493.847 1407.53 C 492.935 1377.25 497.263 1345.19 494.2 1314.84 C 475.409 1296.98 439.847 1281.55 419.249 1264.32 C 415.519 1261.21 409.599 1253.82 410.089 1248.76 C 413.094 1217.66 461.046 1224.23 482.833 1219.55 C 488.482 1218.77 494.532 1218.38 500.106 1217.24 C 538.795 1209.27 579.623 1205.94 618.038 1197.41 L 702.766 1178.34 C 726.182 1173.23 766.186 1160.16 783.899 1180.45 C 824.003 1226.38 808.459 1302.74 811.476 1358.97 C 813.089 1389.04 818.047 1418.74 817.963 1447.91 C 803.111 1473.47 776.174 1479.06 750.803 1490.26 C 724.848 1501.71 698.112 1512.06 673.383 1526.07 C 711.108 1559.6 748.568 1595.35 785.485 1629.89 C 806.514 1649.57 827.316 1674.43 848.67 1693.04 C 859.686 1655.37 875.51 1618.29 885.044 1579.76 C 888.471 1565.9 895.657 1550.17 899.833 1535.97 C 912.011 1489.8 926.596 1444.71 940.029 1398.99 C 956.42 1343.21 973.618 1288.05 992.621 1233.07 C 1000.49 1210.31 1002.44 1189.48 1008.69 1167.12 C 1017.18 1136.75 1029.38 1106.72 1037.25 1075.95 C 1038.6 1070.92 1044.45 1067.25 1048.93 1065.21 z" fill="rgb(0,0,0)" transform="translate(0,0)"></path>
<path d="M 751.196 1192.23 C 752.007 1192.12 752.82 1192.02 753.634 1191.94 C 765.282 1190.86 771.092 1206.79 773.925 1215.86 C 779.095 1234.94 778.656 1260.51 776.537 1280.35 C 771.592 1326.64 779.039 1368.06 781.316 1413.57 C 777.278 1420.12 772.423 1425.82 765.547 1429.39 C 719.333 1453.48 667.528 1466.82 622.78 1494.2 C 582.267 1518.99 626.668 1530.13 644.584 1544.76 C 686.406 1578.93 727.096 1615.29 765.571 1653.19 C 783.713 1671.06 798.895 1691.97 818.633 1708.22 C 823.442 1712.18 829.538 1715.99 833.328 1720.76 C 834.883 1722.72 835.794 1725.22 835.217 1727.65 C 830.05 1730.3 825.951 1726.66 821.781 1731.19 C 821.142 1740.47 833.095 1741.82 835.601 1752.61 C 834.831 1755.61 835.692 1754.51 833.506 1756.32 C 815.676 1756.16 787.62 1716.68 775.722 1717.96 C 773.118 1723.82 784.457 1737.81 786.403 1746.92 L 785.445 1747.89 C 780.08 1745.61 740.158 1704.99 734.642 1697.49 C 698.882 1648.88 663.362 1611.22 618.353 1570.64 C 607.859 1561.1 555.47 1513.16 546.225 1511.3 C 543.717 1510.8 541.533 1511.6 539.473 1513 C 536.45 1515.06 534.502 1519.18 534.134 1522.72 C 532.814 1535.45 564.072 1558.98 572.153 1569.7 C 572.405 1570.03 572.646 1570.37 572.893 1570.71 C 573.712 1597.51 573.274 1625.68 572.998 1652.6 C 572.608 1690.7 576.979 1730.57 558.115 1764.91 C 555.696 1757.19 552.523 1734.86 547.759 1731.6 L 546.084 1732.15 C 540.517 1738.92 537.192 1771 531.887 1786.15 C 525.781 1764.64 524.619 1724.79 524.867 1702.03 C 526.02 1596.48 523.345 1491.04 518.589 1385.61 C 517.351 1358.17 523.112 1305.75 515.214 1281.87 C 506.678 1273.55 466.116 1254.64 452.086 1247.38 C 463.865 1245.52 479.455 1244.65 491.844 1243.15 C 523.431 1239.59 554.927 1235.25 586.304 1230.16 C 599.014 1228.11 612.264 1224.66 624.816 1221.51 C 666.64 1211.01 709.555 1203.31 751.196 1192.23 z" fill="rgb(255,255,255)" transform="translate(0,0)"></path>
<path d="M 712.469 1227.26 C 725.824 1228.06 734.658 1232.74 735.994 1247.38 C 740.156 1293 742.953 1338.4 747.255 1384.06 C 749.476 1397.48 743.542 1403.38 731.036 1408.82 C 683.505 1429.53 636.221 1449.77 589.937 1473.11 C 583.393 1475.67 576.763 1478.17 569.612 1476.68 C 565.65 1475.86 561.116 1473.24 559.034 1469.64 C 554.601 1461.99 554.054 1311.92 555.081 1290.41 C 555.327 1285.26 555.839 1280.22 557.417 1275.29 C 561.084 1272.67 566.032 1270.7 570.363 1269.42 C 606.036 1258.87 641.898 1249.01 677.213 1237.28 C 688.273 1233.6 701.024 1228.92 712.469 1227.26 z" fill="rgb(0,0,0)" transform="translate(0,0)"></path>
<path d="M 715.767 1271.08 C 717.536 1275.28 721.964 1368.88 722.872 1382.28 C 705.881 1394.42 671.631 1405.08 651.18 1413.4 C 630.1 1421.98 617.424 1428.42 597.384 1439.41 L 594.939 1440.22 C 592.61 1436.49 594.042 1403.92 593.946 1396.85 C 593.29 1368.5 592.482 1340.15 591.521 1311.8 C 633.653 1300.52 675.131 1286.93 715.767 1271.08 z" fill="rgb(255,255,255)" transform="translate(0,0)"></path>
<path d="M 1449.4 250.927 C 1450.75 251.294 1452.12 251.634 1453.4 252.207 C 1473.43 261.13 1520.78 389.331 1530.68 416.643 C 1551.39 407.71 1570.69 399.691 1592.32 392.92 C 1611.83 386.811 1625.14 401.612 1604.64 411.6 C 1587.43 419.98 1569.28 427.737 1551.72 435.417 C 1540.45 440.344 1524.16 451.094 1512.49 452.499 C 1508.09 450.634 1506.67 447.007 1505.88 442.447 C 1497.57 394.187 1477.06 347.852 1458.64 302.428 C 1459.74 331.255 1476.9 425.643 1472.44 442.838 C 1469.04 455.92 1456.47 470.913 1448.57 481.965 C 1455.96 495.166 1459.47 503.628 1461.06 518.682 C 1463.71 543.745 1463.09 568.568 1463.03 593.733 C 1463.01 628.994 1462.72 664.254 1462.18 699.511 C 1461.83 747.627 1462.18 795.746 1463.2 843.853 C 1464.67 900.836 1467.15 955.613 1465.3 1012.89 C 1464.22 1046.17 1469.62 1086.81 1474.08 1119.9 C 1477.22 1096.2 1477.42 1069.5 1482.63 1046.63 C 1485.75 1054.72 1488.12 1063.61 1491.14 1072.01 C 1487.66 1018.52 1500.18 959.83 1497.23 906.267 C 1492.25 816.024 1490.36 726.959 1493.06 636.596 C 1494.15 600.315 1492.05 557.1 1497.48 521.377 C 1510.48 502.628 1546.77 492.385 1568.7 496.971 C 1590.91 518.385 1594.27 583.778 1595.46 613.461 C 1596.82 641.255 1597.34 669.085 1597 696.91 C 1596.06 768.872 1594.58 840.825 1592.57 912.765 C 1592.08 938.408 1591.26 969.408 1592.74 994.51 C 1594.25 1020.26 1624.56 1071.29 1640.61 1090.49 C 1638.02 1071.32 1635.37 1052.07 1633.95 1032.76 C 1631.98 1006.04 1631.8 979.005 1630.58 952.217 C 1628.68 910.413 1626.42 868.446 1625.51 826.615 C 1624.6 784.695 1623.98 742.434 1624.08 700.506 C 1624.17 658.147 1630.28 514.679 1615.02 482.967 C 1606.41 465.091 1541.31 497.933 1525.65 489.643 C 1524.32 488.94 1523.41 487.975 1523.14 486.507 C 1522.46 482.824 1524.43 479.101 1526.69 476.316 C 1537.14 463.453 1600.35 436.571 1617.08 434.971 C 1627.91 433.935 1636.81 436.71 1645.02 443.879 C 1657.62 454.881 1661.38 469.879 1662.68 485.858 C 1665 514.538 1659.84 542.414 1658.3 570.903 C 1657.02 594.394 1657 617.983 1655.96 641.499 C 1654.58 672.775 1652.26 704.034 1651.13 735.314 C 1648.63 804.333 1656.14 873.379 1660.09 942.247 C 1663.13 991.697 1664.78 1041.22 1665.04 1090.76 C 1665.18 1101.19 1672.62 1157.45 1651.32 1149.82 C 1640.52 1145.95 1625.89 1118.87 1618.8 1107.03 C 1604.64 1083.39 1585.27 1057.96 1575.31 1032.06 C 1564.06 967.475 1570.79 888.305 1572.06 823.574 C 1572 788.846 1575.01 750.722 1574.74 716.389 C 1574.39 671.885 1581.14 580.238 1561.6 541.682 C 1543.82 545.022 1542.37 545.574 1524.98 553.622 C 1520.5 586.901 1524.66 631.833 1524.49 666.156 C 1525.17 689.371 1518.2 714.215 1518.61 737.13 C 1520.89 863.428 1527.14 989.606 1520.72 1115.9 C 1519.91 1131.77 1511.23 1129.92 1500.17 1126.41 C 1500.11 1136.32 1500 1146.22 1499.82 1156.13 C 1499.51 1167.1 1498 1184.49 1482.53 1180.9 C 1476.3 1179.45 1473.17 1171.4 1470.48 1166.23 C 1470.15 1179.3 1471.25 1201.74 1450.54 1190.25 C 1443.87 1186.55 1444.01 1124.27 1443.76 1115.25 C 1442.32 1066.27 1442.12 1017.26 1443.18 968.266 C 1443.78 919.177 1442.97 869.243 1442.2 820.132 C 1441.5 775.566 1442.36 727.446 1439.79 683.062 C 1429.57 687.439 1419.58 696.209 1410.08 702.13 C 1376.87 722.835 1340.33 737.16 1305.25 754.203 C 1302.22 755.68 1292.55 761.746 1292.04 764.913 C 1290.39 775.24 1291 786.173 1291.61 796.57 C 1295.09 842.931 1295.37 889.692 1298.42 936.026 L 1303.29 1009.97 C 1304.45 1027.57 1313.09 1061.27 1283.34 1050 C 1285.16 1060.38 1291.1 1083.92 1275.28 1086.73 C 1270.52 1087.58 1269.48 1086.57 1265.67 1083.88 L 1264.67 1083.16 C 1264.62 1083.32 1264.59 1083.47 1264.53 1083.62 C 1260.41 1095.5 1263.68 1113.85 1255.37 1123.65 C 1252.91 1126.55 1249.41 1127.87 1245.66 1127.91 C 1241.71 1127.95 1238.2 1126.78 1235.38 1123.94 C 1227.25 1115.71 1228.2 1066.02 1227.47 1051.46 C 1226.19 1025.96 1223.83 1000.51 1223.07 974.974 C 1221.52 909.248 1221.27 843.499 1222.31 777.763 L 1225.8 474.663 C 1222.65 470.206 1219.15 466.723 1215.15 463.039 C 1191.98 441.661 1169.63 419.144 1145.82 398.495 C 1132.63 387.058 1118.03 372.638 1138.21 359.13 C 1183.47 356.285 1248.88 376.058 1294.28 383.358 C 1321.23 387.354 1348.74 388.426 1375.85 391.064 C 1403.07 393.714 1397.66 400.598 1408.83 421.816 C 1415.91 435.265 1425.7 451.713 1435.21 463.507 C 1441.33 452.878 1443.43 446.79 1451.04 435.772 C 1447.72 409.701 1430.6 275.719 1438.52 259.026 C 1440.72 254.396 1444.86 252.631 1449.4 250.927 z" fill="rgb(0,0,0)" transform="translate(0,0)"></path>
<path d="M 1172.41 384.013 C 1217.95 393.418 1267.39 400.752 1313.58 407.714 C 1334.27 410.833 1357.51 409.511 1378.81 412.271 C 1386.03 426.713 1395.93 445.138 1404.24 458.512 C 1420.2 484.185 1437.33 500.322 1437.09 532.602 C 1436.93 554.723 1439.1 604.807 1432.77 624.177 C 1419.37 657.073 1382.15 671.925 1352.49 686.135 C 1334.16 694.969 1315.23 704.056 1296.78 712.511 C 1283.91 718.409 1269.55 723.249 1268.19 739.134 C 1266.47 759.281 1267.14 780.053 1267.2 800.276 C 1267.31 841.392 1267.08 882.842 1269.87 923.838 C 1270.68 956.026 1272.75 986.526 1267.21 1018.47 C 1264.41 998.475 1263.72 992.337 1256.71 973.354 C 1252.62 996.055 1249.82 1021.31 1246.78 1044.37 C 1244.83 1028.75 1244.84 1007.22 1244.6 991.186 L 1243.86 892.193 C 1242.38 794.534 1242.83 696.856 1245.18 599.215 C 1245.92 564.309 1243.48 482.849 1252.96 452.418 C 1226.94 432.883 1198.11 405.068 1172.41 384.013 z" fill="rgb(255,255,255)" transform="translate(0,0)"></path>
<path d="M 1276.32 460.804 C 1285.81 461.285 1311 466.827 1320.98 468.23 C 1331.37 469.691 1389.11 475.374 1391.68 480.343 C 1405.79 507.582 1406.61 572.495 1406.66 601.931 C 1397.4 617.501 1369.41 633.739 1353.73 643.815 C 1328.87 660.259 1302.85 674.265 1277.1 689.227 C 1272.45 679.939 1269.3 669.925 1268.93 659.498 C 1266.96 603.272 1263.3 546.42 1271.1 490.485 C 1272.32 481.707 1270.74 467.199 1276.32 460.804 z" fill="rgb(0,0,0)" transform="translate(0,0)"></path>
<path d="M 1295.31 506.059 C 1316.92 509.543 1355.17 511.884 1374.11 519.892 C 1382.78 536.599 1383.05 575.311 1383.25 594.642 C 1375.79 601.858 1354.32 615.58 1344.57 622.277 C 1325.44 636.623 1315.22 645.259 1293.2 655.291 C 1289.46 616.555 1289.77 544.22 1295.31 506.059 z" fill="rgb(255,255,255)" transform="translate(0,0)"></path>
<path d="M 1209.9 1153.07 C 1212.71 1152.84 1219.23 1152.29 1221.47 1154.38 C 1230.15 1162.47 1238.8 1170.69 1247.42 1178.87 C 1259.45 1190.31 1273.38 1200.14 1285.17 1211.67 C 1288.21 1222.01 1293.06 1253.56 1294.84 1265.43 C 1301.25 1308.17 1306.97 1334.66 1321.93 1375.14 C 1333.57 1340.08 1344.41 1304.76 1354.43 1269.2 C 1360.68 1247.11 1366.62 1224.82 1373.57 1202.99 C 1376.45 1194.56 1381.11 1179.31 1393.22 1185.07 C 1402.99 1189.71 1403.09 1202.43 1405.69 1211.56 C 1408.74 1222.25 1411.64 1232.83 1414.75 1243.44 C 1425.36 1279.32 1435.36 1315.38 1444.74 1351.6 C 1452.96 1382.16 1461.67 1415.43 1472.12 1445.2 C 1473.77 1430.17 1477.43 1410.35 1479.8 1395.05 C 1485.03 1359.37 1490.97 1323.79 1497.61 1288.34 C 1501.59 1266.47 1505.36 1244.59 1509.2 1222.7 C 1510.73 1212.62 1521.74 1205.31 1531.11 1211.09 C 1546.55 1220.61 1560.97 1232.16 1576.16 1242.15 C 1581.36 1245.58 1587.4 1249.61 1592.13 1253.59 L 1592.97 1254.31 C 1601.22 1261.47 1602.19 1264.12 1601.29 1275.26 C 1600.24 1288.16 1596.42 1302.15 1594.9 1314.99 C 1590.37 1353.24 1582.51 1392.54 1577.86 1430.53 C 1572.92 1470.83 1572.01 1515.95 1570.53 1556.63 C 1568.22 1620.04 1567.75 1683.22 1572.8 1746.53 C 1573.16 1754.69 1574.64 1769.4 1573.12 1776.84 C 1568.23 1800.78 1555.02 1791.03 1546.55 1777.44 C 1547.15 1786.75 1552 1808.22 1541.11 1811.87 C 1534.81 1810.51 1533.31 1807.17 1529.77 1802.05 C 1530.29 1810.2 1532.39 1828.1 1520.03 1828.98 C 1504.01 1830.13 1511.9 1808.94 1501.24 1800.15 C 1498.84 1801.35 1498.25 1806.44 1495.53 1811.03 C 1479.61 1820.75 1482.25 1778.86 1473.19 1766.39 C 1470.5 1769.05 1468.95 1770.59 1465.98 1772.89 C 1457.2 1773.91 1455.15 1767.78 1453.19 1760.72 C 1442.77 1723.12 1434.33 1684.76 1425.35 1646.81 C 1415.47 1606.68 1405.22 1566.63 1394.6 1526.68 C 1391.01 1570.38 1382.24 1642.05 1374.3 1687.62 C 1373.93 1689.73 1371.42 1690.34 1369.61 1691.01 C 1365 1690.82 1361.98 1688.62 1357.83 1686.38 C 1356.45 1696.82 1360.89 1739.79 1345.92 1738.29 C 1338.73 1733.46 1337.69 1727.41 1334.53 1719.07 C 1333.34 1724.97 1332.71 1732.57 1332.18 1738.55 C 1330.92 1752.82 1328.26 1803.04 1305.76 1769.53 C 1303.08 1780.41 1304.25 1814.1 1291.36 1816.08 C 1276.36 1818.38 1273.5 1788.81 1271.86 1778.59 C 1266.52 1745.32 1271.2 1711.45 1267.09 1678.12 C 1266.01 1669.3 1265.06 1660.57 1263.85 1651.79 C 1251.61 1567.76 1238.47 1483.87 1224.43 1400.13 C 1214.24 1338.16 1203.85 1276.77 1196.78 1214.3 C 1194.74 1196.21 1198.31 1167.6 1209.9 1153.07 z" fill="rgb(0,0,0)" transform="translate(0,0)"></path>
<path d="M 1222.91 1198.96 C 1234 1208.21 1246.31 1219.85 1256.53 1230.04 C 1258.12 1236.59 1259.07 1243.89 1259.96 1250.58 C 1265.29 1290.85 1273.04 1330.55 1279.86 1370.56 L 1292.81 1450.02 C 1295.68 1466.63 1303.08 1526.64 1311.22 1536.24 C 1314.78 1537.5 1312.95 1537.35 1316.92 1536.21 C 1320.26 1533.1 1322.63 1527.25 1323.31 1522.85 C 1332.54 1462.76 1344.35 1404.81 1361.37 1346.31 C 1369.67 1317.81 1375.97 1289.95 1386.74 1261.95 C 1402.32 1292.79 1408.66 1333.4 1416.46 1366.85 C 1424.06 1397.07 1432.27 1431.31 1440.07 1460.99 C 1445.03 1479.84 1463.64 1572.41 1475.2 1581.44 C 1477.82 1581.53 1479.03 1581.81 1481.02 1579.72 C 1486.62 1573.81 1490.37 1522.17 1491.74 1510.63 C 1496.72 1468.96 1498.45 1427.31 1505.62 1385.86 C 1513.69 1339.21 1527.3 1293.17 1532.34 1246.08 C 1542.23 1252.56 1559.33 1265.49 1568.38 1273.14 C 1567.41 1289.46 1561.76 1313.66 1558.4 1330.25 C 1554.49 1349.05 1551.35 1368.01 1549 1387.06 C 1543.93 1424.99 1538.54 1463.09 1537.67 1501.37 C 1537.15 1524.6 1536.91 1547.78 1535.57 1570.99 C 1533.64 1603.5 1531.54 1635.69 1532.25 1668.34 C 1532.74 1690.66 1535.43 1713.29 1535.37 1735.5 C 1535.36 1739.47 1534.81 1742.12 1532.1 1744.43 C 1524.84 1738.62 1522.16 1717.54 1514.29 1715.02 C 1509.11 1718.47 1509.57 1730.45 1509.13 1736.38 C 1500.85 1718.24 1499.48 1706.14 1493.76 1687.32 C 1492.48 1683.09 1491.54 1681.64 1487.91 1679.89 C 1479.4 1683.29 1491.65 1720.31 1486.13 1730.54 L 1484.38 1730.74 C 1472.81 1719.16 1438.43 1561.32 1429.68 1533.75 C 1422.55 1511.29 1413.3 1470.86 1407.08 1446.11 C 1401.69 1424.66 1406.39 1389.17 1396.96 1368 C 1396.1 1366.13 1393.1 1365.43 1391.18 1365.08 C 1380.23 1367.36 1381.1 1389.01 1380.47 1397.87 C 1379.72 1408.35 1378.57 1418.8 1377 1429.2 C 1365.49 1504.74 1348.2 1579.08 1336.28 1654.45 C 1335.43 1659.84 1335.44 1667.31 1331.65 1671.22 L 1330.05 1670.95 C 1323.47 1659.28 1331.51 1632.82 1321.62 1627.58 C 1319.64 1628.26 1317.45 1628.91 1316.51 1631.22 C 1310.52 1645.94 1313.98 1704.7 1304.83 1716.13 L 1303.62 1714.94 C 1301.37 1708.68 1300 1697.61 1298.73 1690.52 L 1290.73 1646.45 C 1285.17 1616.1 1278.81 1585.36 1273.72 1554.98 C 1262.22 1483.02 1251.31 1410.96 1240.98 1338.82 C 1235.75 1304.4 1228.38 1271.39 1225.65 1236.48 C 1224.68 1224.11 1222.2 1211.49 1222.91 1198.96 z" fill="rgb(255,255,255)" transform="translate(0,0)"></path>
<path d="M 182.159 258.068 C 204.472 260.443 193.949 281.444 191.729 296.172 C 186.165 333.081 179.093 369.911 174.942 407.008 C 169.558 455.141 171.817 503.606 170.509 551.911 C 169.091 569.349 170.437 589.294 168.379 606.494 C 161.371 665.089 164.183 720.924 167.016 779.557 C 168.789 816.231 166.787 854.028 172.3 890.797 C 175.113 909.556 178.889 924.815 184.849 942.714 C 219.163 923.843 281.243 873.849 299.157 840.973 C 304.545 831.086 298.242 713.261 297.739 695.883 L 291.94 453.506 C 291.455 432.395 287.551 398.735 289.417 378.679 C 292.222 348.52 335.513 305.479 355.909 283.923 C 362.449 277.011 371.705 267.146 381.535 266.418 C 391.033 265.715 395.616 274.899 394.909 283.501 C 385.653 323.046 388.36 363.313 387.996 403.62 C 387.104 460.909 387.045 518.209 387.819 575.5 C 388.524 632.434 389.696 689.362 391.337 746.277 C 393.642 816.071 397.27 885.247 394.975 955.112 C 394.088 982.115 399.115 1023.45 395.284 1048.81 C 392.511 1067.16 347.743 1127.58 324.019 1127.56 C 313.34 1127.78 306.925 1119.69 306.453 1109.98 C 305.411 1088.55 307.149 1066.76 307.477 1045.24 C 298.503 1053.89 289.661 1061.12 279.633 1068.69 C 247.407 1093.04 201.156 1123.66 160.394 1100.42 C 136.125 1086.58 113.038 1057.17 105.051 1030.47 C 96.932 1003.32 95.1509 973.86 91.9925 945.789 C 85.7777 893.691 84.3746 842.927 83.9608 790.611 C 84.4741 763.612 81.7234 734.499 83.4998 707.709 C 88.4069 633.704 91.8221 559.575 88.396 485.402 C 87.499 462.375 82.0854 432.467 85.9195 409.878 C 89.5881 388.264 112.628 358.332 123.496 339.156 C 134.257 320.169 161.564 264.249 182.159 258.068 z" fill="rgb(0,0,0)" transform="translate(0,0)"></path>
<path d="M 365.623 309.76 C 367.293 317.273 362.927 368.381 362.65 379.726 C 360.907 459.241 359.712 538.768 359.067 618.299 C 358.504 718.955 363.217 818.964 363.176 919.549 C 363.162 954.293 370.211 992.003 366.975 1026.4 C 365.854 1038.33 340.019 1067.22 331.505 1076.1 C 329.683 1055.3 337.718 986.646 325.186 973.521 C 322.453 970.659 318.855 971.169 315.534 972.585 C 305.644 976.803 296.533 987.55 288.461 994.598 C 268.213 1012.28 218.65 1054.99 192.575 1055.13 C 175.478 1055.22 158.934 1045.73 147.277 1033.74 C 133.571 1019.66 121.752 1001.17 117.139 981.893 C 114.229 969.729 114.975 957.028 114.457 944.61 C 113.898 931.218 112.954 917.83 112.204 904.446 C 110.443 870.9 109.076 837.334 108.102 803.756 C 106.594 762.614 103.195 720.357 109.106 679.349 C 109.928 673.642 110.79 667.187 110.86 661.454 C 111.493 609.093 111.504 556.743 112.427 504.385 C 112.299 475.993 108.325 449.521 107.372 421.386 C 106.842 405.745 133.747 373.498 141.797 359.455 C 147.452 349.59 153.587 339.519 159.006 329.235 C 153.377 372.81 147.062 416.593 144.818 460.493 C 142.674 502.418 144.202 544.219 142.721 586.093 C 141.856 610.57 139.758 635.018 139.103 659.499 C 137.233 729.445 138.264 803.039 143.675 872.742 C 145.615 897.728 147.199 939.565 168.275 956.686 C 174.007 961.342 180.808 963.28 188.136 962.396 C 215.909 959.047 295.939 889.355 315.208 865.517 C 322.112 856.977 325.332 849.862 326.392 838.877 C 328.728 814.687 326.555 789.283 325.501 765.027 C 324.02 733.238 322.81 701.436 321.872 669.626 L 316.89 505.871 C 315.571 463.488 314.887 423.357 310.645 381.065 C 319.591 358.821 349.02 328.639 365.623 309.76 z" fill="rgb(255,255,255)" transform="translate(0,0)"></path>
<path d="M 1847.17 238.991 C 1877.65 235.194 1884.18 314.597 1888.49 337.545 C 1902.06 412.581 1913.37 488.005 1922.43 563.717 C 1926.48 598.958 1929.3 634.839 1933.13 670.189 C 1936.19 698.416 1940.31 727.237 1942.9 755.377 C 1951.06 851.828 1957.29 948.432 1961.6 1045.13 C 1964.35 1100.1 1967.4 1154.55 1968.69 1209.68 C 1969.07 1225.94 1964.95 1224.74 1962.4 1237.75 C 1960.56 1249.33 1964.48 1274.83 1955.16 1283.23 C 1938.29 1298.42 1932.62 1255.9 1929.27 1250.15 L 1924.88 1254.18 C 1905.59 1257.11 1911.91 1215.9 1910.66 1204.52 C 1907.3 1200.96 1906.05 1205.27 1900.05 1201.86 C 1894.91 1189.6 1900.87 1175.04 1897.15 1159.19 C 1890.81 1157.19 1883 1152.29 1882.92 1145.03 C 1882.77 1120.31 1886.18 1099.83 1883.44 1074.94 C 1875.37 1001.53 1878.71 926.464 1872.61 853.031 C 1855.28 855.124 1837.94 857.055 1820.58 858.824 C 1815.24 859.115 1809.14 859.851 1803.75 860.385 C 1785.15 939.877 1776.04 1024.48 1758.35 1104.25 C 1756.23 1113.8 1747.13 1107.65 1744.05 1109 C 1743.54 1119.66 1748.53 1133.75 1746.51 1142.51 C 1743.82 1145.16 1745.4 1144.26 1741.47 1145.05 C 1735.54 1143.52 1733.25 1139.71 1729.62 1135 C 1729.82 1146.04 1737.47 1171.95 1727.95 1177.71 C 1722.65 1177.48 1721.71 1173.26 1717.8 1173.88 C 1714.98 1182.26 1721.02 1197.05 1714.94 1208.36 C 1707.41 1222.36 1691.34 1224.15 1688.97 1205.76 C 1687.26 1192.56 1687.82 1178.64 1687.23 1165.21 C 1684.68 1107.21 1687.48 1048.65 1694.49 991.049 C 1697.14 972.428 1700.91 961.185 1704.28 941.818 C 1709.58 911.343 1717.44 866.324 1715.41 835.568 C 1714.52 822.081 1669.72 806.336 1669.56 785.604 C 1669.5 777.871 1667.19 772.294 1672.68 764.869 C 1685.42 747.787 1712.65 752.927 1731.24 748.447 C 1740.71 734.86 1743.94 705.364 1749.05 688.278 C 1762.11 643.923 1774.46 598.909 1783.25 553.509 C 1799.23 471.016 1801.82 387.093 1825.63 306.006 C 1831.38 286.438 1830.26 252.56 1847.17 238.991 z" fill="rgb(0,0,0)" transform="translate(0,0)"></path>
<path d="M 1852.61 289.777 C 1855.78 293.6 1862.93 343.973 1864.32 352.159 C 1889.47 498.665 1908.39 646.173 1921.02 794.283 C 1923.89 830.026 1923.79 866.642 1925.86 902.533 C 1928.86 954.324 1932.37 1005.33 1934.1 1057.21 C 1934.86 1081.4 1935.81 1105.58 1936.96 1129.75 C 1937.6 1143.93 1939.34 1173.18 1937.19 1186.7 C 1935.65 1184.11 1933.96 1159.52 1932.91 1153.63 C 1928.61 1129.49 1921.86 1093.27 1913.46 1070.88 L 1912.96 1069.57 C 1909.89 1082.53 1906.54 1095.42 1902.92 1108.24 C 1903.69 1067.9 1901.26 1026.4 1899.95 985.857 C 1898.84 950.98 1897.16 916.124 1894.89 881.303 C 1893.36 856.693 1891.6 827.609 1888.05 803.44 C 1872.13 799.873 1838.9 804.167 1820.75 805.15 C 1806.37 806.194 1788.6 804.415 1784.1 820.89 C 1780.22 835.127 1777.68 849.361 1774.98 863.847 C 1766.54 909.191 1760.89 954.919 1751.03 1000.04 C 1747.35 1016.81 1744.51 1037.92 1738.56 1053.68 C 1737.97 1037.62 1736.83 1021.58 1735.15 1005.6 C 1721.68 1042.34 1715.89 1072.44 1710.83 1110.77 C 1706.96 1074.52 1708.05 1026.4 1713.4 990.2 C 1718.03 958.979 1727.1 926.319 1730.86 894.383 C 1733.66 870.565 1743.63 844.61 1741.35 820.235 C 1739.6 801.67 1689.15 791.945 1692.59 775.378 C 1700.44 769.634 1730.82 778.21 1745.44 769.96 C 1749.46 767.663 1752.63 764.123 1754.47 759.873 C 1756.03 756.312 1759.34 739.301 1760.41 734.578 C 1763.21 722.783 1766.11 711.014 1769.12 699.273 C 1775.35 674.801 1782.89 651.706 1789.48 627.519 C 1798.26 594.313 1805.68 560.762 1811.72 526.949 C 1821.38 471.175 1825.93 414.673 1837.38 359.179 C 1842.14 336.13 1845.9 312.334 1852.61 289.777 z" fill="rgb(255,255,255)" transform="translate(0,0)"></path>
<path d="M 1844.65 443.973 L 1859.87 444.94 C 1879.91 537.222 1872.96 633.588 1890.25 726.201 C 1891.62 733.536 1896.24 755.417 1893.39 761.214 C 1885.31 769.382 1857.39 769.538 1844.2 770.734 C 1834.67 771.694 1802.2 776.493 1796.06 770.683 C 1793.11 760.969 1803.66 710.68 1806.03 697.055 L 1824.31 588.255 C 1831.64 541.894 1836.49 488.866 1844.65 443.973 z" fill="rgb(0,0,0)" transform="translate(0,0)"></path>
<path d="M 1852.1 585.623 C 1855.54 596.131 1856.59 647.785 1857.73 664.053 C 1859.81 691.42 1863.86 718.602 1869.84 745.391 C 1862.55 745.439 1855.05 745.728 1847.75 745.924 L 1832.03 746.648 C 1837.53 716.769 1841.69 686.66 1844.51 656.41 C 1845.89 641.656 1848.79 598.081 1852.1 585.623 z" fill="rgb(255,255,255)" transform="translate(0,0)"></path>
<path d="M 1063.09 417.126 C 1086.94 414.313 1102.8 428.943 1121.51 441.242 C 1131.61 447.881 1141.64 456.522 1149.97 465.305 C 1162.51 478.614 1172.67 493.986 1179.99 510.745 C 1208.32 575.281 1214.77 695.107 1212.52 765.854 C 1210.67 811.19 1205.28 856.311 1196.39 900.806 C 1192.73 920.075 1188.48 943.171 1180.73 960.999 C 1174.34 975.479 1165.06 988.505 1153.47 999.282 C 1133.45 1017.88 1113.93 1021.84 1087.75 1020.94 C 1066.97 1018.37 1049.5 1014 1031.43 1003.89 C 975.095 972.367 958.11 911.971 948.019 852.879 C 936.786 800.866 938.613 749.232 938.761 696.752 C 938.972 621.531 940.748 544.435 977.169 476.352 C 993.421 445.97 1030.31 425.886 1063.09 417.126 z" fill="rgb(0,0,0)" transform="translate(0,0)"></path>
<path d="M 1068.42 445.09 C 1081.29 443.622 1085.14 448.871 1095.12 454.263 C 1180.74 500.535 1174.87 611.164 1181.47 695.567 C 1186.34 757.843 1175.85 824.792 1165.7 886.863 C 1161.14 914.8 1154.89 940.633 1128.95 956.9 C 1111.87 968.008 1100.75 971.553 1079.97 967.552 C 996.102 939.669 981.676 909.191 968.756 822.807 C 961.473 774.112 962.285 737.542 961.902 688.657 C 961.367 620.354 964.166 555.12 995.481 492.552 C 1006.9 469.898 1044.52 451.386 1068.42 445.09 z" fill="rgb(255,255,255)" transform="translate(0,0)"></path>
<path d="M 1062.48 481.23 C 1120.02 474.603 1136.23 558.022 1147.62 600.475 C 1156.44 633.377 1152.74 674.728 1151.32 708.593 C 1148.75 770.099 1148.14 842.181 1118.84 897.868 C 1110.54 912.846 1092.63 919.775 1076.64 922.763 C 1063.9 923.654 1051.02 923.309 1039.07 917.044 C 999.797 897.861 984.929 825.95 986.133 785.02 C 988.146 716.565 985.555 641.541 1008.25 575.573 C 1018.85 544.788 1028.87 492.629 1062.48 481.23 z" fill="rgb(0,0,0)" transform="translate(0,0)"></path>
<path d="M 1075.43 511.881 C 1103.25 511.268 1127.47 604.729 1128.34 629.409 C 1129.73 669.036 1125 707.185 1126.43 747.225 C 1125.26 771.989 1123.83 797.716 1119.76 822.147 C 1113.89 857.377 1109.82 899.436 1066.4 902.958 C 1064.3 902.706 1062.22 902.383 1060.14 901.99 C 1004.17 891.241 1010.7 769.218 1013.64 727.281 C 1015.45 701.42 1014.22 665.875 1020.67 640.842 C 1030.48 602.753 1044.44 560.714 1061.61 525.244 C 1064.52 519.454 1070.3 515.24 1075.43 511.881 z" fill="rgb(255,255,255)" transform="translate(0,0)"></path>
<path d="M 1051.27 1254.38 C 1054 1255.05 1055.52 1255.51 1057.12 1257.95 C 1062.44 1266.04 1090.75 1418.18 1092.62 1436.92 C 1093.13 1442 1093.24 1446.84 1091.89 1451.81 C 1086.49 1458.89 1052.35 1460.68 1040.76 1462.45 C 1034.85 1463.25 1011.26 1468.51 1004.73 1467.51 C 1003.76 1467.36 1001.3 1463.04 1001.43 1461.36 C 1002.49 1447.78 1009.52 1427.22 1012.38 1413.89 C 1019.97 1378.45 1031.17 1282.16 1051.27 1254.38 z" fill="rgb(0,0,0)" transform="translate(0,0)"></path>
<path d="M 1053.6 1354.83 C 1057.27 1359.01 1064.14 1426.86 1065.02 1437.81 L 1053.77 1438.88 L 1039.99 1439.24 C 1042.86 1411.85 1048.98 1382.28 1053.6 1354.83 z" fill="rgb(255,255,255)" transform="translate(0,0)"></path>
<metadata><recraft-signature>{"signed_by": "recraft", "signature_b64": "M5MFIpQib8YExy6RdetI+VaA9/7apVwaTJsEmXvi5/4h4GupII8/sxg7GIVv2XDFYYaGHtgYALfJBnuu5SuBBA==", "signing_algo": "Ed25519", "generation_timestamp": 1776301981, "identifier": "91795bb8-2745-429e-9f96-79bb7a7cf80b"}</recraft-signature></metadata></svg>