<svg xmlns="http://www.w3.org/2000/svg" height="1024" preserveAspectRatio="none" style="display: block;" version="1.1" viewBox="0 0 2048 2048" width="1024">
<path d="M 0 0 L 2048 0 L 2048 2048 L 0 2048 L 0 0 z" fill="rgb(255,255,255)" transform="translate(0,0)"></path>
<path d="M 551.264 403.578 C 552.226 403.867 553.014 404.465 553.925 405.016 C 560.032 415.871 553.726 452.085 553.561 466.32 C 552.926 521.272 543.593 576.814 540.514 631.247 C 570.573 626.559 804.945 577.147 811.882 581.382 C 812.871 585.261 809.203 591.419 807.318 595.282 C 843.178 595.355 880.034 588.329 916.066 589.734 C 920.874 589.922 929.144 590.829 931.929 595.068 C 935.471 600.359 931.194 606.762 925.925 608.728 C 871.243 629.137 816.902 649.587 763.126 672.397 C 846.368 690.874 950.319 745.533 1003.5 812.901 C 1005.74 806.137 1007.33 798.812 1009.06 791.859 C 1021.2 743.07 1034.66 694.64 1047.51 646.026 C 1056.65 611.445 1065.11 573.015 1077.24 539.537 C 1077.01 552.96 1076.91 558.899 1079.67 571.855 C 1086.31 550.042 1089.54 524.283 1102.48 506.782 C 1105.57 516.87 1107.83 538.573 1109.8 549.895 C 1118.76 601.315 1121.12 651.75 1125.38 703.458 C 1129.83 756.655 1136.06 809.688 1144.06 862.468 C 1147.45 885.893 1150.68 913.118 1156.58 936.089 C 1158.32 942.853 1174.01 945.936 1176.39 951.869 C 1178.21 956.385 1163.75 965.357 1163.02 971.51 C 1161.47 984.466 1165.79 1003.35 1167.86 1016.14 C 1173.7 1052.25 1182.17 1087.72 1189.65 1123.38 C 1195.92 1153.26 1201.88 1181.22 1209.23 1210.89 L 1227.59 1284.9 C 1231.85 1302.35 1236.55 1320.32 1238.64 1338.15 C 1239.47 1345.23 1236.33 1353.57 1234.13 1360.35 C 1231.01 1356.48 1227.82 1351.49 1223.62 1349.47 L 1222.09 1350.13 C 1219.76 1357.85 1226.29 1393.07 1216.34 1399.67 C 1214.35 1397.98 1207.98 1377.56 1206.58 1373.46 C 1200.67 1356.06 1193.7 1343.56 1183.1 1328.67 C 1185.39 1338.82 1191.2 1365.36 1181.66 1371.83 C 1180.01 1371.77 1179.41 1371.95 1177.93 1371.06 C 1159.88 1360.24 1129.34 1237.67 1123.8 1213.4 C 1112.04 1161.86 1103.52 1109.65 1091.77 1058.11 C 1082.65 1061.68 1044.52 1083.62 1038.52 1090.85 C 1029.64 1105.56 1025.11 1127.79 1019.62 1143.77 C 1005.72 1184.26 992.4 1224.36 977.308 1264.34 C 976.049 1267.67 974.364 1270 971.343 1271.79 C 961.858 1272.25 960.947 1259.87 960.866 1252.7 C 960.686 1236.82 960.919 1221.89 958.397 1206.12 C 956.434 1212.02 953.243 1221.98 949.355 1226.61 L 947.773 1226.48 C 939.211 1212.66 949.708 1086.44 951.505 1064.05 C 938.022 1044.72 898.003 1020.11 939.927 1012.02 C 945.551 1010.93 955.779 1006.25 960.834 1003.31 L 962.073 1002.58 C 966.897 977.484 972.663 952.774 976.941 927.53 C 967.756 936.277 958.761 947.019 949.094 955.113 C 901.819 994.7 848.495 1043.59 794.285 1073.48 C 790.593 1100.89 788.713 1128.74 786.307 1156.3 C 783.062 1193.47 779.642 1230.83 778.675 1268.14 C 778.279 1283.42 780.44 1340.92 775.704 1350.51 C 773.236 1355.51 768.761 1357.56 763.718 1359.21 C 761.606 1387.06 760.225 1414.41 755.83 1442.01 C 754.121 1452.74 756.453 1482.07 744.449 1487.18 C 741.186 1487.24 738.04 1485.76 735.947 1483.18 C 729.341 1475.04 730.826 1399.94 728.729 1382.32 C 726.528 1363.82 719.008 1346.37 717.634 1327.88 C 716.014 1306.06 717.976 1283.63 716.912 1261.64 C 715.625 1235.03 711.319 1208.58 711.253 1181.87 C 711.158 1143.46 718.272 1104.83 719.406 1066.38 L 697.469 1054.22 C 688.478 1093.85 680.966 1146.12 665.026 1182.8 C 657.292 1198.34 640.203 1226.1 629.353 1238.81 C 615.237 1255.36 601.907 1269.03 588.276 1286.58 C 584.244 1281.03 577.91 1268.91 573.691 1262.22 C 572.427 1265.18 571.147 1268.14 569.852 1271.1 C 567.602 1276.21 564.493 1284.87 559.502 1286.81 C 554.093 1283.69 522.221 1233 515.378 1223.6 C 507.234 1212.42 494.912 1186.83 488.811 1174.13 C 484.873 1190.66 482.574 1216.82 480.724 1234.42 C 476.73 1272.42 473.518 1309.87 467.922 1347.75 C 465.115 1366.75 460.61 1379.17 456.221 1397.21 C 451.215 1417.78 445.046 1444.05 442.419 1464.84 C 440.225 1482.18 440.666 1499.96 438.177 1518.03 C 435.991 1533.9 431.478 1546.14 429.106 1560.65 C 427.478 1570.61 430.569 1587.05 426.163 1598.76 C 423.764 1605.14 422.857 1610.43 416.434 1613.99 C 407.51 1614.15 406.894 1602.22 406.074 1595.32 C 404.632 1583.19 404.053 1570.75 403.496 1558.56 C 400.454 1496.34 400.687 1434 404.194 1371.81 C 408.83 1297.87 417.167 1224.22 422.941 1150.39 C 426.362 1106.65 426.265 1061.99 428.621 1018.15 C 430.079 991.007 431.611 963.61 430.723 936.442 C 417.382 995.327 416.377 1062.84 408.416 1122.82 C 400.838 1179.92 391.289 1235.83 377.504 1291.8 C 375.384 1300.4 370.473 1330.32 365.953 1335.36 C 351.457 1338.15 355.261 1300.68 351.998 1291.21 C 348.871 1282.15 345.705 1274.08 342.179 1265.16 C 337.508 1253.46 333.443 1241.53 330.001 1229.41 C 315.567 1178.54 319.812 1144.48 318.699 1093.88 C 308.129 1128.25 298.15 1164.74 285.562 1198.23 C 273.124 1231.33 258.513 1264.29 245.139 1297.13 C 237.414 1316.1 234.408 1339.02 227.698 1354.64 C 223.708 1346.43 217.249 1330.27 210.282 1325.45 C 200.154 1324.02 197.114 1342.09 194.934 1349.57 C 189.257 1346.94 184.989 1343.17 180.095 1339.28 C 174.794 1346.58 172.647 1349.97 166.209 1356.3 C 161.839 1348.12 153.882 1316.12 142.646 1318.17 C 140.202 1320.8 137.49 1328.1 135.931 1331.74 C 133.318 1322.14 132.668 1312.02 129.084 1302.09 C 121.368 1280.71 110.684 1258.86 106.221 1236.44 C 100.119 1205.79 96.8704 1172.78 93.2324 1141.63 C 90.5916 1118.44 88.1254 1095.24 85.8339 1072.02 C 82.1493 1036.55 80.4662 1012.78 84.9032 976.887 C 87.2287 958.075 83.9569 936.153 86.9807 915.861 C 93.0257 875.295 99.9508 835.705 103.681 794.809 C 106.18 783.696 110.447 772.009 113.12 761.035 C 117.511 743.014 126.015 658.356 140.102 650.884 C 141.792 651.528 143.475 652.191 145.15 652.871 C 153.457 631.929 153.795 611.652 166.04 587.886 C 167.786 596.751 174.95 613.754 178.576 623.243 C 191.55 633.624 203.473 640.821 205.362 659.578 C 206.878 674.615 203.714 695.536 202.363 711.087 L 196.975 779.655 C 194.134 818.734 191.719 857.843 189.732 896.975 C 185.308 979.06 182.573 1050.68 195.769 1131.99 C 212.303 1094.88 229.044 1053.2 240.258 1014.07 C 245.158 996.964 247.687 973.883 250.532 955.9 C 265.425 861.625 275.788 767.284 296.876 673.999 C 300.306 658.83 311.362 589.995 325.522 585.192 C 330.551 588.448 334.892 598.075 337.668 603.618 C 350.347 628.934 362.309 639.134 360.99 668.594 C 393.455 664.106 433.166 652.219 464.141 642.142 C 466.271 634.971 467.95 627.499 469.303 620.164 C 480.76 558.072 498.646 497.969 516.131 437.424 C 517.742 431.845 518.544 425.484 521.894 420.618 L 523.301 420.822 C 525.728 425.972 526.67 433.379 527.741 439.154 C 533.288 424.507 538.079 413.045 551.264 403.578 z" fill="rgb(0,0,0)" transform="translate(0,0)"></path>
<path d="M 749.616 694.51 C 768.925 697.633 805.862 709.627 823.207 717.422 C 878.655 742.343 939.747 774.494 975.834 824.999 C 983.501 835.728 989.954 844.811 994.842 857.055 C 970.449 884.837 893.003 967.835 863.062 980.374 C 869.127 973.464 880.375 964.752 887.741 958.643 C 904.813 944.485 918.276 932.581 932.471 915.331 C 917.016 925.679 900.608 940.795 884.348 951.623 C 845.456 977.522 807.702 1004.07 769.61 1031.08 C 769.063 1033.78 768.585 1038.85 768.21 1041.76 C 764.996 1084.91 762.031 1128.07 759.314 1171.25 C 757.638 1198.39 756.765 1227.01 753.618 1253.94 C 750.796 1278.08 745.726 1304.03 741.667 1328.1 C 738.07 1297.96 740.317 1268.17 739.908 1238.08 C 739.049 1174.95 744.681 1111.88 745.468 1048.96 C 740.203 1045.06 726.192 1037.52 719.9 1033.83 C 728.324 1027.08 740.111 1019.75 747.43 1012.35 C 748.125 999.313 747.482 982.174 747.355 968.862 L 746.881 887.775 C 746.977 848.009 749.855 803.252 750.911 762.752 C 740.662 757.227 731.67 752.983 721.12 748.117 C 739.932 725.557 743.423 723.111 749.616 694.51 z" fill="rgb(255,255,255)" transform="translate(0,0)"></path>
<path d="M 813.546 760.87 C 833.676 763.636 931.953 827.781 945.545 845.009 C 894.715 895.884 840.522 943.283 783.332 986.886 L 769.995 996.98 C 778.993 921.911 785.716 845.423 793.968 770.043 C 810.398 777.391 827.943 783.603 844.244 791.207 C 858.714 797.958 872.356 806.747 887.106 813.179 C 862.337 792.661 841.596 777.548 813.546 760.87 z" fill="rgb(0,0,0)" transform="translate(0,0)"></path>
<path d="M 814.319 818.486 C 840.779 825.762 875.366 844.42 898.603 858.52 C 883.603 872.091 867.719 884.886 852.076 897.726 C 836.559 911.195 820.622 924.173 804.29 936.641 C 806.582 900.155 808.996 854.362 814.319 818.486 z" fill="rgb(255,255,255)" transform="translate(0,0)"></path>
<path d="M 755.123 718.004 C 764.739 718.728 770.132 720.105 779.211 722.982 L 760.611 727.687 C 752.822 730.001 746.871 731.263 738.868 732.864 C 744.289 725.564 747.896 722.918 755.123 718.004 z" fill="rgb(0,0,0)" transform="translate(0,0)"></path>
<path d="M 594.925 807.291 C 597.546 807.417 600.385 807.567 602.991 807.911 C 620.006 809.982 635.455 818.861 645.81 832.521 C 677.474 874.197 678.292 980.995 671.625 1032.98 C 664.337 1077.19 649.793 1120.23 632.487 1161.34 C 619.066 1193.22 611.043 1216.93 582.592 1238.22 C 578.705 1237.29 572.8 1234.48 569.841 1232.05 C 536.373 1204.56 516.971 1154.84 510.194 1114.19 C 495.437 1031.86 500.693 947.864 539.531 872.572 C 552.659 847.121 562.814 812.399 594.925 807.291 z" fill="rgb(255,255,255)" transform="translate(0,0)"></path>
<path d="M 589.813 831.042 C 600.972 831.685 619.867 841.573 627.097 848.87 C 641.411 863.315 642.338 922.591 642.1 943.236 C 641.882 967.987 640.18 992.702 637.004 1017.25 C 632.339 1051.16 609.577 1156.56 586.244 1179.3 C 579.617 1177.43 577.175 1176.3 571.683 1172.18 C 553.424 1150.93 547.954 1130.45 541.711 1103.18 C 525.718 1033.35 551.714 958.103 584.828 896.921 C 592.988 881.843 606.526 868.712 615.673 854.308 L 616.304 853.294 C 606.735 841.197 597.899 839.596 589.813 831.042 z" fill="rgb(0,0,0)" transform="translate(0,0)"></path>
<path d="M 619.462 911.605 C 619.674 912.175 619.92 912.734 620.098 913.316 C 627.317 936.846 590.378 1108.14 578.178 1130.93 L 576.779 1130.83 L 574.907 1126.4 C 571.853 1116.94 569.859 1107.29 568.651 1097.51 C 558.707 1017.03 571.402 974.692 619.462 911.605 z" fill="rgb(255,255,255)" transform="translate(0,0)"></path>
<path d="M 174.6 658.41 C 177.125 660.891 180.853 663.358 183.79 665.461 C 181.523 707.186 175.917 753.27 172.26 795.186 C 167.146 852.865 163.921 910.695 162.591 968.585 C 161.144 1029.39 161.348 1090.5 175.673 1149.99 C 177.447 1157.36 184.133 1197.17 194.199 1193.38 C 200.312 1186.69 204.206 1179.41 207.992 1171.2 C 231.181 1120.88 255.755 1070.67 265.396 1015.6 C 268.714 996.638 271.153 977.338 274.002 958.386 L 296.138 804.976 C 299.634 781.232 306.757 722.239 314.911 702.066 C 314.979 722.177 314.11 741.895 318.452 761.524 C 321.184 750.107 322.233 734.16 324.563 721.531 C 327.348 730.489 329.572 739.063 331.922 748.123 C 337.236 749.102 339.348 749.909 344.452 751.821 C 342.971 777.75 340.104 803.22 337.412 829.063 C 334.97 852.505 335.816 878.522 332.013 901.656 C 321.883 963.268 308.106 1022.63 291.555 1082.75 C 279.762 1123.4 236.81 1267.15 204.159 1289.42 C 198.536 1293.25 191.566 1294.89 184.895 1293.23 C 170.59 1289.68 159.934 1274.99 153.016 1262.85 C 140.477 1240.84 129.639 1213.6 123.731 1188.94 C 118.699 1167.94 117.066 1145.84 115.174 1124.36 C 111.661 1083.7 110.67 1042.86 112.206 1002.08 C 114.607 950.01 122.55 893.877 128.588 841.944 C 134.907 787.594 138.018 745.766 152.364 692.726 C 151.759 701.041 151.121 709.74 150.025 717.993 C 140.635 788.742 131.142 859.511 130.642 931.004 C 130.49 952.812 129.138 975.833 132.489 997.447 C 137.056 966.086 139.476 924.535 142.04 892.328 C 145.01 855.023 149.006 823.527 153.686 786.451 C 158.992 744.41 163.598 699.577 174.6 658.41 z" fill="rgb(255,255,255)" transform="translate(0,0)"></path>
<path d="M 1089.4 603.651 C 1101.65 633.597 1097.12 675.134 1099.75 709.208 C 1104.37 766.738 1110.93 824.094 1119.45 881.177 C 1122.27 900.198 1126.63 933.794 1131.55 951.038 C 1136.54 953.455 1142.16 955.659 1147.31 957.811 C 1142.69 961.552 1138.18 965.419 1133.78 969.408 C 1142.93 1030.16 1157.63 1089.18 1170.2 1149.15 C 1180.96 1200.48 1190.45 1251.89 1201 1303.37 C 1194.72 1290.89 1191.29 1277.28 1186.6 1264.07 C 1183.3 1254.77 1177 1243.41 1174.2 1234.46 C 1168.19 1215.26 1162.6 1195.33 1156.94 1175.99 C 1156.35 1208.26 1164.46 1229.21 1169.36 1260.25 C 1144.22 1195.77 1135.06 1144.53 1120.91 1078.22 C 1115.38 1050.6 1110.43 1020.94 1104.64 993.791 C 1082.13 1007.04 1059.19 1028.63 1036.94 1043.08 C 1028.73 1048.42 1017.48 1056.68 1010.37 1063.02 C 1002.24 1093 995.452 1133.43 983.271 1162.21 C 987.192 1143.58 992.682 1086.92 991.532 1068.55 C 988.655 1075.94 985.68 1093.86 984.081 1102.4 C 979.937 1123.92 976.159 1145.5 972.747 1167.15 C 969.72 1144.24 970.942 1106.95 973.512 1084.06 C 977.783 1046.03 986.861 1059.73 958.388 1031.4 C 967.15 1026.42 977.529 1022.05 986.796 1017.88 C 992.873 984.007 998.534 947.081 1005.27 913.75 C 1021.08 838.072 1039.26 762.909 1059.79 688.375 C 1065.9 666.337 1071.36 643.173 1078.44 621.5 C 1080.79 614.284 1084.74 609.456 1089.4 603.651 z" fill="rgb(255,255,255)" transform="translate(0,0)"></path>
<path d="M 1071.32 754.77 C 1072.34 755.855 1095.46 936.949 1098.28 954.704 C 1091.88 960.679 1056.44 981.037 1046 987.852 C 1041.85 990.689 1034.56 996.148 1030.1 997.537 C 1029.23 996.843 1027.5 995.312 1027.45 994.319 C 1028.47 972.199 1034 942.836 1039.14 920.924 C 1049.63 876.279 1053.67 795.177 1071.32 754.77 z" fill="rgb(0,0,0)" transform="translate(0,0)"></path>
<path d="M 530.786 462.405 C 531.551 475.897 526.162 527.302 524.338 542.607 C 519.889 579.936 518.648 621.583 514.163 658.173 C 553.155 651.215 787.565 611.735 807.039 622.585 C 797.934 632.34 586.89 683.403 558.875 691.034 L 559.115 692.217 C 563.394 694.151 563.738 694.311 567.287 697.302 L 566.369 699.933 C 546.341 704.892 526.267 709.668 506.151 714.259 C 503.93 726.912 502.244 749.566 500.822 763.262 L 490.497 866.379 C 487.917 892.307 485.249 918.246 482.802 944.186 C 476.067 1015.6 472.99 1087.3 465.759 1158.68 C 458.876 1220.56 450.378 1282.25 440.273 1343.68 C 437.347 1361.07 434.632 1378.5 432.129 1395.96 C 430.474 1407.34 426.8 1435.39 422.791 1445.41 C 426.673 1384.03 431.641 1322.73 437.691 1261.53 C 441.165 1222.84 444.975 1184.84 446.861 1146 L 458.317 917.688 C 460.923 858.607 462.711 778.573 472.683 720.776 C 448.003 721.028 441.15 728.964 417.484 733.857 C 416.884 729.865 416.255 725.877 415.596 721.894 C 422.663 719.19 430.839 717.654 438.483 714.943 C 423.292 713.185 405.973 714.393 390.924 716.82 C 390.857 722.806 391.168 729.575 391.31 735.624 C 383.217 732.019 378.743 730.067 370.331 727.668 C 355.713 723.499 340.092 723.421 327.353 715.374 C 345.703 709.153 367.869 703.702 384.752 697.489 C 417.888 685.296 445.586 673.621 479.642 663.442 C 486.443 624.528 500.252 574.39 510.876 536.015 L 530.786 462.405 z" fill="rgb(255,255,255)" transform="translate(0,0)"></path>
<path d="M 741.751 678.076 C 743.504 678.116 742.697 677.86 744.164 678.866 C 742.107 683.111 730.502 690.724 726.624 694.828 C 723.184 698.47 721.874 700.45 719.068 704.584 C 719.743 701.313 722.069 693.379 720.947 691.147 C 712.536 694.072 712.143 714.874 710.982 723.028 C 706.914 728.134 698.998 740.337 691.307 739.565 C 689.44 739.377 687.617 739.085 686.708 741.107 C 680.461 755.004 693.99 766.737 705.56 771.738 C 714.06 775.4 720.837 778.804 728.151 783.009 C 726.355 815.515 724.155 850.369 723.759 882.669 C 723.292 920.78 726.331 964.788 720.732 1002.41 C 712.618 1006.11 707.995 1009.09 700.383 1013.92 C 698.136 950.555 701.166 890.524 673.003 830.409 C 663.241 811.618 652.614 796.073 633.236 786.131 C 574.419 755.952 535.477 820.143 513.675 864.678 C 515.66 833.003 517.174 787.531 525.598 757.775 C 560.977 741.087 584.018 734.204 619.902 721.352 L 741.751 678.076 z" fill="rgb(255,255,255)" transform="translate(0,0)"></path>
<path d="M 407.437 764.742 C 415.339 774.421 417.829 808.679 416.987 820.913 C 412.434 875.835 404.78 931.385 397.888 986.203 C 388.139 1063.75 385.819 1150.71 365.58 1226 L 364.292 1226.36 C 359.341 1208.46 354.33 1189.62 353.288 1170.97 C 349.492 1102.96 359.144 1033.14 364.241 965.068 C 367.226 925.204 369.158 882.038 377.203 843.421 C 382.826 816.437 395.894 789.819 407.437 764.742 z" fill="rgb(255,255,255)" transform="translate(0,0)"></path>
<path d="M 329.142 628.861 C 341.869 641.594 344.022 657.019 344.106 673.835 C 336.205 676.442 333.009 678.193 326.182 682.553 C 322.801 684.953 319.263 688.325 316.13 691.136 C 319.914 672.086 324.109 647.241 329.142 628.861 z" fill="rgb(255,255,255)" transform="translate(0,0)"></path>
<path d="M 447.951 753.162 L 448.885 754.096 C 449.108 760.113 445.177 804.504 443.505 809.206 L 442.572 803.983 C 440.894 787.94 437.676 773.323 434.282 757.616 C 438.614 756.008 443.508 754.574 447.951 753.162 z" fill="rgb(255,255,255)" transform="translate(0,0)"></path>
<path d="M 361.941 756.793 L 379.131 759.283 L 369.95 780.355 C 368.356 784.344 366.918 788.725 365.494 792.804 C 364.956 781.954 363.111 767.804 361.941 756.793 z" fill="rgb(255,255,255)" transform="translate(0,0)"></path>
<path d="M 653.724 676.453 L 655.044 677.957 C 626.62 685.386 594.953 694.175 566.369 699.933 L 567.287 697.302 C 574.265 696.509 589.907 692.33 597.242 690.532 C 616.095 685.944 634.923 681.25 653.724 676.453 z" fill="rgb(200,200,204)" transform="translate(0,0)"></path>
<path d="M 672.612 671.661 C 665.989 674.996 662.17 675.927 655.044 677.957 L 653.724 676.453 C 660.93 674.233 665.228 673.079 672.612 671.661 z" fill="rgb(120,121,124)" transform="translate(0,0)"></path>
<path d="M 1257.52 469.12 C 1260.78 468.918 1267.55 468.443 1270.42 469.254 C 1296.05 476.502 1324.95 499.66 1346.5 514.626 C 1421.24 566.521 1494.25 622.847 1556.16 689.78 C 1569.85 704.584 1582.9 715.825 1594.75 732.766 C 1602.05 721.877 1605.47 710.752 1610.76 699.238 C 1615.32 689.301 1621.52 647.797 1636.45 651.57 C 1637.63 653.45 1638.07 657.166 1637.76 659.149 C 1629.65 711.23 1637.83 761.804 1649.57 812.713 C 1653.45 829.577 1657.32 849.944 1662.76 867.236 L 1663.11 868.309 C 1662.79 858.394 1660.24 845.458 1659.27 834.824 C 1655.84 796.999 1648.73 755.069 1654.08 717.37 C 1655.9 708.243 1661.36 690.008 1669.4 685.137 C 1678.9 680.642 1685.57 701.083 1687.76 706.613 C 1709.38 761.273 1724.42 816.451 1737.48 873.692 C 1741.86 892.874 1748.42 912.897 1753.27 932.323 C 1763.05 971.461 1769.69 1014.83 1783.19 1052.69 C 1787.98 1039.32 1791.53 1025.54 1793.77 1011.51 C 1796.24 996.861 1801.33 925.162 1805.88 919.455 C 1807.02 918.024 1807.24 918.326 1808.91 918.047 C 1815.04 921.366 1815.63 949.018 1816.61 956.661 C 1818.62 982.524 1836.65 1003.78 1844.69 1026.75 C 1854.1 1053.61 1861.52 1077.41 1873.01 1103.68 L 1895.11 985.812 C 1902.53 945.53 1936.71 741.621 1952.3 722.117 C 1956.26 722.316 1953.43 725.133 1958.1 727.244 C 1967.3 718.06 1975.38 672.275 1986.27 669.342 L 1988.31 670.609 C 1992.97 680.825 1987.06 734.804 1984.65 747.934 L 1991.47 757.693 C 1994.13 820.199 1977.23 909.619 1969.2 972.821 C 1962.11 1028.56 1956.95 1082.45 1950.86 1138.06 C 1944.96 1190.25 1938.7 1242.4 1932.08 1294.51 C 1929.32 1316.43 1917.7 1421.62 1905.98 1431.03 C 1899.25 1429.39 1891.49 1384.88 1883.67 1379.35 C 1881.33 1381.91 1880.93 1389.62 1878.8 1394.78 L 1877.43 1394.54 C 1869.34 1378.96 1865.97 1360 1859.85 1343.62 C 1847.3 1309.99 1837.88 1276.05 1827.75 1241.63 C 1816.44 1266.04 1804.53 1296.41 1794.01 1321.52 C 1789.33 1331.81 1763.37 1389.47 1755.39 1391.27 C 1751.78 1388.01 1748.95 1374.31 1746.75 1368.53 C 1734.06 1335.16 1725.78 1304.12 1718.81 1268.94 C 1720.33 1291.58 1721.7 1314.24 1722.94 1336.9 C 1723.2 1342.06 1724.1 1354.81 1720.72 1358.55 C 1711.79 1356.6 1702.51 1324 1691.26 1332.27 C 1686.47 1345.04 1697.38 1380.37 1690.54 1387.48 C 1679.71 1385.86 1679.14 1368.8 1672.54 1361.14 C 1668.78 1356.78 1667.25 1361.46 1665.69 1359.27 C 1656.75 1347.07 1657.47 1328.46 1653.43 1315.23 C 1640.07 1271.48 1636.35 1228.69 1630.59 1183.51 C 1627.16 1156.92 1623.11 1130.41 1618.45 1104 C 1612.16 1108.68 1602.63 1115.58 1596.62 1119.95 C 1584.22 1128.94 1581.43 1163.19 1580.42 1178.22 C 1579.14 1197.41 1571.9 1266.56 1574.68 1282.3 C 1584.97 1318.12 1601.22 1353.76 1615.69 1388.05 C 1621.46 1401.71 1636.49 1425.73 1635.46 1438.99 C 1630.05 1448.31 1620.24 1439.92 1614.51 1435.56 C 1619.09 1448.59 1644.01 1509.36 1626.19 1515.62 C 1621.38 1514.06 1620.16 1511.5 1618.08 1506.73 C 1596.2 1456.64 1574.43 1407.4 1545.09 1361.08 C 1537.87 1349.66 1532.14 1334.54 1523.99 1323.86 C 1526.32 1332.78 1535.55 1367.86 1531.68 1374.56 L 1529.73 1374.83 C 1523.77 1370.75 1518.66 1356.41 1514.91 1349.55 C 1484.31 1293.65 1462.15 1234.48 1436.01 1176.5 C 1421 1142.43 1405.11 1108.76 1388.37 1075.52 C 1385.39 1093.11 1384.44 1121.51 1383.24 1140 C 1381.22 1171.03 1379.28 1203.51 1379.1 1234.53 C 1378.89 1272.68 1382.08 1314.6 1374.66 1352.07 C 1371.98 1346.24 1365.37 1324.84 1360.49 1322.82 C 1346.55 1334.9 1345.64 1397.52 1344.24 1417.57 C 1342.83 1430.95 1345.61 1444.83 1339.55 1457.24 C 1334.88 1466.81 1321.49 1461.83 1319.82 1454.17 C 1317.63 1444.18 1317.99 1431.73 1317.59 1421.28 C 1316.25 1398.34 1316.75 1375.16 1314.75 1352.24 C 1312.55 1326.89 1301.87 1298.99 1295.56 1274.16 C 1292.5 1262.13 1287.28 1253.42 1287.17 1240.38 C 1287 1218.78 1287.03 1197.31 1287.08 1175.76 C 1287.05 1123.09 1288.21 1070.42 1290.57 1017.81 C 1291.33 998.231 1292.31 978.664 1293.49 959.109 C 1294.42 942.91 1296.22 925.952 1294.84 909.774 C 1293.06 888.985 1271.73 875.085 1267.67 855.271 C 1263.44 834.638 1292.25 841.622 1299.47 829.368 C 1308.02 814.871 1307.66 675.329 1303.57 654.107 C 1301.24 642.031 1293.72 631.669 1291.69 619.822 C 1290.74 614.257 1294.13 606.075 1292.24 601.185 C 1289.73 594.673 1282.99 590.901 1281.1 583.528 C 1281.37 580.338 1283.08 579.129 1285.32 576.721 C 1280.2 567.698 1274.02 559.013 1269.26 550.021 C 1264.88 541.757 1264.87 538.338 1267.59 530.114 C 1263.04 513.676 1255.48 505.562 1246.97 491.236 C 1239.4 478.508 1245.39 472.853 1257.52 469.12 z" fill="rgb(0,0,0)" transform="translate(0,0)"></path>
<path d="M 1279.23 499.603 C 1287.71 502.542 1320.57 530.52 1330.19 537.83 C 1394.34 586.537 1461 634.701 1517.03 692.791 C 1531.12 707.403 1545.03 723.246 1557.3 739.456 C 1565.35 750.095 1571.47 762.05 1580.74 771.573 C 1582.23 773.106 1581.86 772.485 1582.78 774.464 C 1578.43 783.342 1566.64 792.324 1558.85 798.837 C 1514.77 835.688 1469.59 871.919 1423.58 906.34 C 1415.25 912.577 1405.89 918.595 1398.4 925.771 C 1404.9 937.123 1417.87 946.908 1423.13 958.706 C 1448.71 1016.1 1468.49 1076.81 1491.22 1135.39 L 1540.03 1258.39 C 1554.41 1294.03 1570.61 1331.88 1579.8 1369.23 C 1537.36 1299.4 1507.52 1224.96 1472.7 1151.36 C 1467.06 1139.46 1461.55 1128.37 1455.15 1116.85 C 1466.42 1157.91 1485.55 1198.52 1501.58 1238.03 L 1500.03 1237.4 L 1502.09 1240.31 L 1501.89 1239.33 C 1492.05 1229.94 1449.8 1129.74 1440.43 1110.43 C 1413.24 1058.09 1387.54 1004.99 1363.35 951.19 C 1360.44 968.653 1359.35 1001.24 1358.21 1020.51 C 1355.25 1071.16 1352.92 1121.84 1351.23 1172.55 C 1349.9 1208.48 1349.69 1258.06 1338 1292.01 C 1336.45 1287.84 1334.07 1280.91 1333.67 1276.39 C 1327.35 1205.74 1334.15 1134.88 1336.58 1064.2 C 1337.07 1049.88 1338.12 1035.21 1336.88 1021.05 C 1334.44 1033.39 1333.35 1055.82 1331.79 1069.45 C 1326.11 1119.16 1324.36 1169.61 1320.37 1219.36 C 1319.94 1217.02 1319.55 1214.68 1319.2 1212.34 C 1316.11 1191.32 1316.88 1161.44 1316.86 1139.64 C 1316.7 1091.31 1317.73 1042.99 1319.95 994.707 C 1320.59 978.057 1320.39 958.373 1322.44 942.077 C 1323.19 936.092 1334.13 922.254 1338.26 916.658 C 1325.01 901.171 1307.03 881.481 1297.36 863.986 C 1309.36 863.581 1319.82 864.542 1331.76 865.433 C 1333.37 804.197 1339.89 739.501 1339.89 677.622 C 1336.51 682.324 1333.96 687.382 1331.23 692.475 C 1330.91 678.94 1330.43 665.409 1329.78 651.886 L 1338.53 670.911 C 1337.17 663.116 1336.04 655.808 1333.9 648.181 C 1331.38 639.154 1326.24 640.804 1321.45 634.085 C 1318.8 630.366 1314.67 621.19 1315.36 616.52 C 1318.22 614.215 1319.5 615.605 1324.48 614.584 L 1324.7 613.16 C 1318.3 605.966 1317.75 600.19 1315.1 590.723 C 1322.11 595.263 1327.95 599.393 1334.69 604.348 C 1328.87 595.032 1324.45 588.158 1316.27 580.82 C 1312.06 563.724 1304.49 558.392 1293.26 544.94 C 1313.07 556.446 1329.57 570.024 1348.59 581.419 C 1342.32 573.329 1337.32 567.565 1329.52 560.892 C 1324.72 555.562 1309.05 546.187 1305.64 540.613 C 1297.53 527.338 1287.74 512.488 1279.23 499.603 z" fill="rgb(255,255,255)" transform="translate(0,0)"></path>
<path d="M 1372.3 641.718 C 1378.22 644.087 1391.35 655.3 1397.17 659.867 C 1439.69 693.255 1485.61 730.099 1522.08 770.056 C 1501.29 783.114 1475.9 801.808 1456.4 816.539 C 1432.31 836.315 1396.62 860.848 1368.76 873.962 C 1372.34 850.107 1372.91 817.893 1374.55 793.194 C 1376.27 767.332 1377.97 739.306 1378.19 713.491 C 1378.34 695.169 1369.85 658.817 1372.3 641.718 z" fill="rgb(0,0,0)" transform="translate(0,0)"></path>
<path d="M 1394.62 719.245 C 1398.5 721.231 1402.61 724.032 1406.03 726.74 C 1423.88 740.852 1446.19 751.858 1457.13 772.552 C 1450.49 778.656 1443.23 783.571 1435.9 788.819 C 1425.55 796.077 1411.9 805.544 1401.01 811.486 C 1395.17 789.148 1393.67 743.763 1394.62 719.245 z" fill="rgb(255,255,255)" transform="translate(0,0)"></path>
<path d="M 1383 625.541 C 1391.33 629.219 1455.51 686.917 1465.86 696.67 C 1470.31 700.866 1481.26 713.027 1485.65 718.297 C 1475.99 714.156 1410.07 652.566 1396.82 641.534 C 1392.79 638.175 1386.19 630.218 1383 625.541 z" fill="rgb(0,0,0)" transform="translate(0,0)"></path>
<path d="M 1673.85 747.694 C 1678.5 752.797 1688.16 782.906 1691.05 790.923 C 1708.74 837.623 1716.59 886.79 1728.33 934.866 C 1742.06 991.053 1750.64 1045.23 1757.56 1102.54 C 1760.83 1129.59 1763.91 1158 1768.26 1184.83 C 1774.73 1172.65 1779.99 1158.94 1785.74 1146.44 C 1803.43 1107.98 1813.49 1079.57 1820.71 1037.87 C 1830.45 1056.32 1837.19 1083.99 1843.06 1104.62 C 1851.04 1132.68 1859.78 1159.79 1868.73 1187.54 C 1874.12 1204.23 1877.58 1221.94 1884.38 1238.28 C 1885.08 1219.38 1889.9 1190.25 1892.61 1170.99 C 1898.19 1130.79 1904.09 1090.63 1910.32 1050.52 L 1928.69 925.955 C 1937.32 867.845 1941.79 829.064 1962.76 773.86 C 1963.16 811.59 1951.84 853.099 1946.3 891.021 C 1941.39 926.173 1942.58 965.342 1938.77 1001.15 C 1930.27 1080.91 1920.61 1160.98 1912.22 1240.71 C 1910.1 1261.95 1908.16 1283.22 1906.4 1304.5 C 1905.19 1318.21 1904.29 1333.02 1901.45 1346.43 C 1883.78 1327.59 1864.15 1264.7 1856.02 1238.53 C 1846.12 1206.63 1840.49 1169.59 1827.06 1138.44 C 1804.54 1171.69 1772.11 1295.31 1755.74 1308.58 L 1754.32 1307.75 C 1749.87 1296.7 1741.17 1247.64 1738.88 1234.27 C 1730.49 1183.52 1723.35 1132.58 1717.48 1081.48 C 1709.58 1009.18 1704.09 936.65 1692.28 864.781 C 1688.88 844.081 1684.14 823.477 1680.65 802.773 C 1677.73 784.501 1675.46 766.129 1673.85 747.694 z" fill="rgb(255,255,255)" transform="translate(0,0)"></path>
<path d="M 1616.27 730.714 C 1620.12 749.124 1622.64 770.976 1625.41 789.81 L 1639.58 882.221 C 1645.35 919.166 1653.81 955.249 1659.87 991.936 C 1670.08 988.952 1681.2 984.919 1691.35 981.476 C 1685.18 993.838 1671.49 1013.12 1668.09 1026.95 C 1667.38 1029.83 1671.74 1033.12 1673.9 1034.95 C 1671.71 1061.82 1678.23 1093.54 1680.89 1120.94 C 1686.7 1180.85 1697.57 1242.75 1703.61 1302.44 C 1696.49 1297.58 1692.98 1292.4 1690.03 1284.32 C 1678.44 1252.6 1674 1219.46 1662.48 1187.57 C 1663.26 1211.46 1670.04 1227.51 1673.45 1248.95 C 1662.77 1235.85 1648.18 1131.38 1645.08 1108.79 C 1641.73 1087.95 1638.53 1065.19 1634.44 1044.62 C 1611.25 1061.87 1596.68 1070.73 1571.5 1084.74 C 1567.34 1105.83 1562.81 1126.08 1559.83 1147.51 C 1556.64 1170.53 1555 1193.24 1553.24 1216.39 C 1543.62 1196.61 1539.38 1183.19 1536.54 1161.4 C 1533.49 1160.34 1529.31 1158.82 1527.96 1155.74 C 1523.08 1144.6 1527.99 1110.17 1530.46 1098.56 C 1521.2 1099.2 1506.5 1101.72 1496.87 1103.11 C 1506.13 1088.2 1515.87 1073.14 1531.37 1064.73 C 1534.46 1047.51 1540.6 1032.05 1544.57 1015.35 C 1559.94 950.809 1571.38 885.474 1588.09 821.199 C 1593.3 801.167 1596.86 777.807 1603.63 758.494 C 1602.96 779.281 1599.36 797.462 1594.78 817.5 C 1607.39 795.112 1608.97 778.026 1612.59 752.76 C 1613.52 746.321 1614.57 736.75 1616.27 730.714 z" fill="rgb(255,255,255)" transform="translate(0,0)"></path>
<path d="M 1609.2 853.583 C 1610.68 856.751 1613.91 884.783 1614.66 890.359 L 1624 955.147 C 1626.11 970.823 1627.91 989.983 1631.09 1005.15 C 1617.8 1014.44 1603.32 1023.27 1589.55 1031.95 C 1585.38 1034.5 1580.16 1037.1 1575.78 1039.43 C 1585.96 985.634 1593.22 930.135 1604.46 876.326 C 1606.09 868.536 1606.82 861.321 1609.2 853.583 z" fill="rgb(0,0,0)" transform="translate(0,0)"></path>
<path d="M 1546.06 864.654 C 1546.54 864.815 1547.53 865.611 1548 865.95 C 1548.27 872.567 1542.55 899.52 1541.01 906.453 C 1531.42 949.404 1514.28 1034.26 1493.26 1070.47 L 1485.06 1042.62 C 1478.25 1019.88 1462.25 980.848 1457.49 959.765 C 1454.94 948.442 1535.56 872.743 1546.06 864.654 z" fill="rgb(255,255,255)" transform="translate(0,0)"></path>
<path d="M 1604.5 1453.61 C 1608.86 1457.02 1614.56 1473.01 1616.59 1478.43 C 1611.55 1474.48 1606.7 1459.92 1604.5 1453.61 z" fill="rgb(63,64,67)" transform="translate(0,0)"></path>
<metadata><recraft-signature>{"signed_by": "recraft", "signature_b64": "VAd5Eq/jNhyZtqs6CFfDiMMf2eQg8rqQAO0torL1jKMrDaY4ZvgZCDLdVK/Q6QGm9xPEZajCMRqV6Kd4q+baCw==", "signing_algo": "Ed25519", "generation_timestamp": 1776301930, "identifier": "a1cce00b-0f6b-41fe-8610-e9158191fe9d"}</recraft-signature></metadata></svg>