<svg xmlns="http://www.w3.org/2000/svg" height="1024" preserveAspectRatio="none" style="display: block;" version="1.1" viewBox="0 0 2048 2048" width="1024">
<defs>
	<linearGradient gradientUnits="userSpaceOnUse" id="Gradient1" x1="1265.15" x2="781.651" y1="-155.619" y2="2203.58">
		<stop class="stop0" offset="0" stop-color="rgb(88,71,51)" stop-opacity="1"></stop>
		<stop class="stop1" offset="1" stop-color="rgb(142,121,105)" stop-opacity="1"></stop>
	</linearGradient>
</defs>
<path d="M 0 0 L 2048 0 L 2048 2048 L 0 2048 L 0 0 z" fill="url(#Gradient1)" transform="translate(0,0)"></path>
<path d="M 1230.45 844.876 C 1241.51 846.476 1256.57 849.071 1267.41 848.807 L 1268.38 848.775 C 1268.65 849.724 1269.48 852.636 1270.05 852.621 C 1294.53 852.008 1325.05 854.86 1346.36 868.118 C 1350.91 870.944 1350.22 870.489 1356.76 870.735 C 1366.76 881.936 1378.76 879.366 1391.13 888.752 C 1397.7 893.732 1408.62 895.729 1416.35 900.357 C 1420.82 909.1 1413.44 952.956 1409.93 963.621 C 1405.83 976.074 1379.92 1001.09 1367.34 1007.12 C 1345.19 1017.74 1322.28 1022.7 1299.49 1031.01 C 1297.38 1031.78 1294.83 1035.37 1293.56 1037.08 L 1292.8 1038.13 C 1303.48 1044.32 1307.08 1051.12 1315.77 1058.2 C 1331.11 1070.5 1345.12 1084.19 1359.81 1097.19 C 1365.27 1102.02 1379.29 1118.59 1385.93 1116.62 C 1389.37 1112.34 1388.49 1095.63 1389.75 1089.1 C 1395.42 1059.87 1413.72 1043.02 1439.35 1029.86 C 1451.68 1023.53 1459.92 1021.95 1470.91 1013.97 C 1481.31 1014.18 1483.98 1019.21 1491.97 1013.61 C 1498.9 1012.57 1504.8 1014.57 1510.8 1014.23 C 1526.29 1013.36 1545.43 1006.64 1560.14 1014.97 C 1563.75 1020.74 1571.01 1026.27 1576.33 1032.77 C 1585.34 1043.79 1574.02 1125.18 1585.2 1126.71 C 1589.72 1115.11 1588 1098.41 1592.73 1085.58 C 1596.76 1074.64 1598.38 1036.86 1602.73 1028.2 C 1607.64 1025.42 1608.18 1025.01 1610.97 1020.13 C 1626.72 1020.98 1628.82 1020.98 1643.08 1027.28 C 1644.14 1044.27 1640.63 1049.62 1637.91 1066.08 C 1636.59 1074 1635.48 1085.77 1634.42 1094.11 L 1637.63 1101.05 C 1636.12 1111.79 1637.57 1119.45 1645.54 1127.83 C 1647.83 1130.25 1652.48 1129.61 1655.74 1129.57 C 1673.62 1113.87 1673.32 1079.58 1687.73 1072.15 C 1699.47 1073.2 1700.72 1068.65 1712.55 1073.43 C 1714.68 1077.49 1717.41 1094.95 1719.39 1101.14 C 1723.21 1114.77 1728.84 1123.88 1741.8 1130.37 C 1751.46 1135.2 1753.37 1124.41 1756.44 1117.3 C 1756.02 1115.87 1755.51 1113.78 1755.77 1111.96 C 1756.35 1107.83 1759.35 1102.46 1759.83 1098.4 C 1761.42 1085.08 1764.34 1071.64 1765.42 1058.2 C 1766.23 1057.46 1767.05 1056.71 1767.86 1055.96 C 1767.45 1050.1 1765.37 1041.55 1766.86 1035.93 C 1774.29 1007.98 1784.73 980.958 1794.15 953.626 C 1803.06 939.236 1809.08 917.991 1818.28 903.078 C 1822.11 896.859 1829.95 896.646 1837.27 894.018 C 1839.32 896.962 1841.39 900.566 1843.28 903.676 C 1841.06 906.713 1840.21 907.555 1838.97 911.191 C 1842.56 924.599 1836.14 932.183 1833.46 945.075 C 1832.8 948.247 1835.19 950.897 1834.2 953.269 C 1833.05 956.03 1831.23 956.382 1829.44 959.984 C 1834.88 971.743 1829.19 978.244 1823.75 989.343 C 1824.4 990.774 1824.99 992.232 1825.52 993.712 C 1828.06 1000.79 1825.77 1003.09 1822.56 1010.13 C 1823.75 1015.39 1824.61 1017.67 1822.99 1023.02 C 1810.7 1063.43 1803.28 1102.75 1802.45 1145.15 C 1796.92 1152.15 1788.25 1174.75 1778.76 1178.37 C 1775.21 1177.88 1774.63 1177.73 1770.93 1177.93 C 1770.16 1178.44 1767.4 1180.42 1767.23 1181.19 C 1766.72 1183.43 1759.79 1182.84 1756.2 1183.14 C 1733.55 1185.07 1716.97 1181.58 1698.75 1167.29 C 1696.83 1165.78 1689.36 1160.98 1687.07 1161.21 C 1673.18 1162.56 1661.1 1167.83 1646.36 1169.84 C 1645.49 1170.58 1642.4 1173.21 1641.56 1173.33 C 1632.31 1174.65 1618.96 1173.46 1609.72 1173.21 C 1604.59 1169.62 1599.4 1164.88 1593.04 1166.81 C 1589.77 1169.08 1589.54 1171.84 1588.35 1175.78 C 1578.52 1177.99 1571.93 1184.71 1560.33 1188.08 C 1550.92 1171.48 1553.89 1160.99 1532.57 1150.21 C 1512.43 1151.02 1496.21 1155.37 1476.8 1158.69 C 1458.6 1161.81 1438.94 1160.9 1420.78 1161.34 C 1421.86 1166.42 1424 1180.4 1422.05 1185.3 C 1419.62 1191.43 1406 1196.77 1399.27 1193.75 C 1396.51 1190.73 1394.22 1182.58 1392.55 1178.19 C 1362.63 1161.47 1333.22 1138.33 1303.66 1120.39 C 1291.23 1112.86 1278.89 1102.04 1265.85 1095.63 L 1264.09 1096.47 C 1263.11 1099.36 1263.57 1101.59 1264.24 1104.6 C 1266.56 1114.88 1263.49 1126.26 1260.12 1135.99 C 1264.11 1142.4 1262.35 1143.44 1261.44 1150.8 C 1259.99 1162.52 1249 1207.05 1239.82 1212.57 C 1230.59 1211.4 1228.8 1180.25 1218.64 1169.66 C 1221.46 1167.44 1223.05 1166.58 1224.68 1163.36 C 1227.06 1128.26 1218.7 1093.55 1220.58 1058.55 C 1220.88 1052.95 1212.73 1050.12 1219.33 1045.76 C 1219.66 1045.54 1219.8 1036.49 1219.58 1035.51 C 1219.48 1025.44 1216.64 1011.38 1214.99 1001.87 C 1213.55 993.63 1208.64 994.888 1209.45 987.302 C 1211.35 986.275 1212.36 986.082 1214.49 985.703 C 1215.02 982.454 1211.17 982.916 1210.41 980.465 C 1208.78 975.153 1214 959.634 1215.89 954.613 C 1213.39 949.821 1210.6 945.696 1211.12 940.477 C 1213.32 936.83 1212.74 937.925 1217.01 935.593 C 1216.68 933.086 1216.06 933.438 1213.35 931.282 C 1210 914.323 1208.56 908.746 1208.58 891.746 C 1206.92 888.956 1204.97 886.357 1202.75 883.996 C 1205.23 873.117 1208.62 851.764 1221.51 850.367 C 1227.37 849.731 1227.14 849.177 1230.45 844.876 z" fill="rgb(2,1,2)" transform="translate(0,0)"></path>
<path d="M 1274.33 891.122 C 1275.39 891.042 1278.97 892.228 1280.44 892.609 C 1312.32 900.868 1337.89 900.801 1358.93 929.919 C 1361.65 959.357 1361.4 973.598 1329.64 982.384 C 1321.67 985.757 1312.11 987.741 1303.58 989.613 C 1301.09 990.16 1301.1 985.787 1297.63 987.262 C 1295.02 988.372 1291.62 991.15 1288.36 990.49 C 1280.07 986.38 1269.38 976.417 1263.84 969.555 C 1264.29 967.003 1264.67 964.223 1265.15 961.735 C 1268 946.993 1259.36 944.883 1267.11 930.98 C 1265.24 923.457 1262.33 904.092 1266.03 897.022 C 1268.56 892.181 1269.36 892.961 1274.33 891.122 z" fill="rgb(130,104,83)" transform="translate(0,0)"></path>
<path d="M 1481.68 1055.39 C 1490.79 1054.76 1496.71 1054.06 1504.53 1060.44 C 1515.63 1069.5 1517.44 1092.78 1519 1106.43 C 1500.82 1117.95 1485.45 1119.27 1463.87 1118.65 C 1446.05 1118.59 1441.42 1120.07 1427.36 1108.27 C 1434.02 1095.67 1434.04 1083.06 1444.35 1071.98 C 1450.08 1065.81 1456.65 1063.13 1461.72 1057.61 L 1481.68 1055.39 z" fill="rgb(130,104,83)" transform="translate(0,0)"></path>
<path d="M 708.658 971.399 C 719.986 969.579 763.475 978.885 776.166 983.038 C 792.259 989.513 808.42 996.464 823.616 1004.95 C 826.712 1006.68 841.707 1018.56 843.763 1022.22 C 845.145 1024.68 844.42 1024.74 847.19 1026.89 C 847.898 1026.87 848.606 1026.84 849.314 1026.82 C 855.13 1013.76 857.541 1000.04 870.844 992.101 C 872.71 990.988 876.118 990.31 878.2 991.308 C 888.755 996.362 884.961 1001.76 885.845 1010.59 C 886.173 1013.88 890.305 1010.75 891.145 1016.06 C 893.519 1031.1 887.774 1038.56 895.833 1052.42 L 896.451 1053.46 C 907.796 1020.98 953.191 1002.57 984.44 997.908 C 1001.71 995.332 1019.38 989.589 1030.49 1006.7 C 1032.42 1004.72 1033.52 1003.87 1035.64 1002.15 C 1039.44 1002 1040.09 1002.15 1043.61 1000.44 C 1045.43 998.128 1045.86 997.463 1048.11 995.46 C 1049.12 995.46 1050.23 995.389 1051.11 995.81 C 1064.09 1002.02 1056.16 1000.22 1059.16 1005.96 C 1063.18 1007.02 1063.94 1006.7 1064.78 1010.52 C 1063.67 1012.89 1063.28 1013.13 1063.29 1015.67 C 1065.59 1016.11 1064.85 1015.88 1067.07 1017 C 1072.79 1033.36 1065.35 1056.48 1067.73 1073.55 C 1068.39 1078.26 1068.61 1076.79 1068.22 1081.89 C 1065.1 1085.15 1066.36 1085.57 1067.2 1090.01 L 1066.09 1091.17 C 1063.23 1091.16 1061.72 1090.8 1059.47 1092.48 L 1059.98 1093.31 L 1061.45 1093.56 L 1061.44 1096.27 C 1066.63 1097.22 1061.82 1095.14 1067.27 1093.12 C 1072.18 1102.23 1066.07 1104.14 1067.74 1109.39 L 1071.08 1110.16 C 1073.29 1113.02 1071.22 1119.13 1072.46 1121.92 C 1076.36 1130.76 1078.42 1134.39 1080.67 1143.9 L 1073.93 1148.32 C 1077.93 1152.85 1082.73 1156.89 1082.73 1162.67 C 1074.75 1171.45 1080.91 1168.7 1081.93 1174.97 C 1076.37 1182.64 1059.27 1194.26 1049.39 1192 C 1043.18 1187.24 1041.96 1168.32 1039.99 1160.71 C 1039.49 1158.77 1033.77 1154.37 1031.86 1149.99 L 1033.39 1147.66 C 1033.23 1142.77 1025.52 1133.22 1021.71 1129.88 C 1018.36 1131.61 997.933 1133.88 991.969 1134.86 C 967.511 1138.89 942.801 1146.08 917.947 1143.71 C 903.827 1142.36 894.11 1130.94 882.484 1127.95 C 879.083 1128.8 880.14 1128.6 877.55 1132.46 C 875.716 1135.46 873.792 1135.09 870.673 1135.67 C 867.517 1138.88 866.817 1140.07 862.758 1141.61 C 850.896 1139.84 851.348 1104 851.785 1094.75 C 851.904 1092.23 848.161 1090.48 846.226 1089.07 C 831.391 1098.29 781.792 1115.55 764.464 1117.39 C 727.957 1121.25 713.375 1112.04 717.954 1160.74 C 718.666 1168.31 717.686 1191.51 712.614 1198.58 C 708.5 1204.41 701.541 1199.22 696.474 1200.38 C 677.731 1214.68 680.459 1180.26 677.86 1170.8 C 676.272 1157.09 674.23 1133.55 674.527 1116.74 C 666.256 1124.26 665.831 1122.13 656.593 1127.68 C 655.617 1128.27 650.434 1136.22 647.755 1137.11 C 607.839 1150.37 550.506 1148.05 508.908 1141.81 C 500.149 1140.49 487.64 1132.51 483.891 1126.41 L 484.931 1124.02 C 482.773 1120.37 477.895 1120.48 475.213 1115.61 L 477.245 1113.34 C 467.863 1091.38 465.913 1077.19 473.612 1053.78 L 472.112 1051.68 C 472.509 1048.63 473.645 1048.13 475.755 1045.26 C 483.232 1035.06 479.89 1013.33 487.667 1004.02 C 489.562 1001.75 490.094 1001.37 491.142 998.465 C 489.551 996.872 490.066 997.735 489.392 996.01 C 504.217 979.833 510.248 993.343 515.489 1006.28 C 526.239 1000.29 542.863 988.542 552.886 984.073 C 576.339 974.442 612.924 984.687 634.355 994.468 C 659.549 1005.97 651.846 1006.1 665.06 985.97 C 669.779 978.781 699.068 972.675 708.658 971.399 z" fill="rgb(2,1,2)" transform="translate(0,0)"></path>
<path d="M 574.698 1025.04 C 593.238 1024.16 597.949 1030.38 612.892 1036.31 C 636.71 1045.75 639.755 1057.1 638.29 1082.3 C 637.687 1092.68 635.109 1098.12 629.798 1107.85 L 630.012 1107.77 C 617.431 1115.24 593.119 1112.34 579.241 1109.98 C 569.107 1108.59 535.113 1104.53 527.806 1096.19 C 518.686 1085.79 521.728 1070.26 524.106 1057.29 C 532.448 1045.53 560.665 1029.87 574.698 1025.04 z" fill="rgb(130,104,83)" transform="translate(0,0)"></path>
<path d="M 972.729 1040.08 C 982.289 1039.31 992.424 1042.31 1000.22 1047.86 C 1011.93 1056.2 1015.27 1083.53 1007.06 1094.5 C 1001.21 1102.31 974.133 1104.19 964.394 1104.91 C 964.001 1104.92 963.608 1104.92 963.215 1104.93 L 961.253 1105.01 C 943.852 1105.52 937.852 1117.38 928.027 1098.01 C 928.771 1089.58 928.096 1075.59 927.209 1067.18 C 945.326 1048.9 949.428 1048.37 972.729 1040.08 z" fill="rgb(130,104,83)" transform="translate(0,0)"></path>
<path d="M 718.372 1016.68 C 729.621 1020.69 739.202 1020.64 748.974 1024.12 C 757.615 1027.2 768.561 1035.93 779.025 1038.59 C 781.821 1036.78 781.634 1036.39 784.686 1036.21 C 784.355 1036.62 781.578 1039.6 782.284 1040.22 C 789.888 1046.89 815.549 1058.11 800.973 1070.34 C 797.437 1073.31 791.126 1076.41 786.788 1077.92 C 777.832 1082.65 730.015 1086.39 720.338 1084.49 C 710.1 1076.22 717.181 1067.3 714.156 1057.47 C 713.52 1055.4 709.774 1048.73 709.811 1046.7 C 709.827 1045.77 712.167 1045.88 712.926 1041.63 L 710.545 1039.53 C 708.571 1032.71 712.458 1038.59 712.115 1034.52 C 711.924 1032.25 711.724 1026.8 711.661 1024.42 C 713.345 1020.48 715.001 1019.58 718.372 1016.68 z" fill="rgb(130,104,83)" transform="translate(0,0)"></path>
<path d="M 411.686 828.578 C 426 830.872 439.49 872.774 441.683 885.744 C 443.16 894.474 442.689 903.522 444.835 912.871 L 445.191 914.381 C 460.363 910.5 493.362 914.938 510.641 915.042 C 527.268 915.142 596.725 910.055 601.252 926.444 C 598.357 936.886 512.254 956.441 496.387 956.924 C 486.787 957.217 453.962 957.85 448.14 961.253 C 447.903 971.396 442.611 968.41 447.938 978.486 C 447.814 982.189 448.334 980.416 445.594 983.718 C 445.023 989.323 446.59 983.176 448.682 988.574 C 447.213 990.99 446.511 991.815 445.738 994.541 C 450.522 1001.34 446.084 998.48 445.209 1004.03 L 447.628 1005.42 L 447.859 1006.99 L 444.406 1008.87 L 444.529 1010.59 L 447.566 1010.43 C 447.339 1013.89 446.042 1012.86 443.65 1016.98 L 446.179 1020.77 C 445.894 1026.6 444.534 1023.37 442.475 1029.04 L 443.537 1029.83 L 447.801 1027.49 L 448.578 1028.57 L 447.778 1032 C 442.569 1036.46 443.437 1032.98 438.707 1035.91 C 442.042 1040.27 446.845 1039.61 447.265 1046.47 C 445.335 1050 442.115 1049.93 438.205 1053.26 C 439.567 1060.52 449.837 1047.1 441.849 1073.03 C 444.8 1075.5 446.065 1076.13 445.753 1079.83 C 443.883 1080.54 444.115 1080.39 442.39 1081.44 C 452.283 1094.4 440.732 1091.14 447.179 1102.04 C 446.777 1107.68 438.337 1115.32 434.261 1119.72 C 438.838 1117.44 442.59 1112.44 447.206 1113.55 C 448.541 1117.19 448.1 1117.33 446.448 1121.06 L 448.934 1122.81 C 445.829 1126.53 443.861 1126.68 443.25 1130.38 C 452.438 1133.44 445.176 1140.47 447.303 1146.11 C 449.086 1150.84 452.701 1157.1 455.011 1161.92 C 445.021 1182.35 446.161 1167.38 430.251 1178.5 C 426.827 1180.9 412.321 1185.93 408.891 1184.47 C 405.077 1177.3 411.45 1172.69 411.623 1167.67 C 411.763 1163.61 406.232 1152.2 407.295 1147.06 C 410.084 1130.17 405.568 1104.26 403.36 1087.32 C 401.338 1071.81 404.696 990.267 401.208 983.124 C 404.473 971.444 403.676 969.941 401.936 957.632 C 382.8 960.675 349.41 956.181 329.533 956.208 C 328.658 956.767 327.782 957.325 326.906 957.883 C 321.053 968.123 331.552 996.962 333.066 1007.23 C 331.967 1008.8 330.84 1010.35 329.686 1011.87 C 330.987 1013.91 332.314 1015.7 333.73 1017.65 C 331.841 1031.76 331.619 1021.91 338.804 1031.73 C 337.51 1032.66 337.043 1032.95 335.602 1033.74 L 334.379 1034.39 L 334.603 1036.53 C 336.919 1038.57 339.378 1040.13 340.127 1042.96 L 337.588 1045.62 C 336.793 1050.03 339.39 1049.63 340.951 1054.01 C 341.879 1056.62 339.038 1053.45 339.788 1059.04 C 346.894 1062.99 346.812 1075.24 348.269 1083.4 C 349.226 1084.35 350.647 1085.76 351.66 1086.18 C 356.45 1088.18 350.592 1100.86 353.066 1105.8 C 362.136 1109.88 357.396 1114.53 359.612 1124.18 C 362.105 1125.75 362.454 1125.82 364.4 1127.96 L 364.082 1130.45 C 362.129 1132.43 360.813 1133.42 359.826 1136.04 L 361.184 1138.96 C 360.418 1141.82 358.032 1144.23 356.111 1146.62 C 341.984 1149.03 329.26 1154.22 314.45 1155.69 C 304.51 1156.69 267.551 1158.03 261.076 1161.04 C 248.253 1164.68 243.215 1162.55 231.962 1164.09 C 204.478 1167.83 177.037 1164.15 149.848 1167.92 C 143.802 1162.57 131.836 1150.63 128.42 1141.96 C 128.025 1140.96 131.744 1139.74 130.927 1135.55 C 127.827 1133.76 128.523 1134.6 126.406 1132.02 L 128.769 1129 C 129.009 1123.62 125.292 1128.63 125.058 1121.68 C 124.746 1112.46 128.653 1102.38 128.484 1093.23 C 128.356 1086.32 124.242 1074.11 124.647 1067.44 C 125.195 1058.4 132.868 1053.99 129.007 1042.58 C 128.921 1042.33 127.938 1039.28 127.887 1038.5 C 127.215 1028.2 127.985 1017.37 128.17 1007.06 C 129.184 1005.64 130.004 1004.49 130.63 1003.62 C 130.786 1000.66 126.835 994.634 125.18 991.661 C 127.54 984.524 127.832 978.12 129.071 970.805 C 131.842 954.451 132.622 938.657 132.601 922.061 C 132.579 905.268 131.551 888.09 133.635 871.353 C 135.547 856.01 140.202 852.576 151.902 843.794 C 155.587 848.207 156.173 848.756 161.064 851.763 C 161.962 860.371 164.47 868.765 166.204 877.231 C 167.183 877.925 168.163 878.62 169.142 879.315 C 171.941 889.338 174.007 893.822 171.212 900.339 C 171.144 900.499 176.791 907.668 175.962 915.989 C 168.245 927.175 178.054 923.772 177.157 933.052 C 175.426 934.964 174.842 935.502 173.519 937.683 C 174.795 942.747 176.127 947.798 177.515 952.833 C 172.146 962.979 178.611 961.559 177.4 967.173 L 174.472 967.922 C 174.005 972.474 178.76 989.978 177.455 997.656 C 175.893 1006.84 179.95 1021.74 175.565 1030.37 L 174.738 1031.96 C 183.278 1038.34 169.875 1046.22 175.56 1054.75 C 176.646 1056.37 177.447 1058.47 177.904 1060.4 C 175.556 1064.08 174.097 1065.86 174.101 1070.54 C 174.111 1082.13 174.378 1098.76 178.093 1109.68 C 179.464 1113.72 188.152 1119.71 192.404 1120.62 C 215.434 1125.59 243.203 1120.24 266.659 1118.75 C 275.004 1118.21 288.094 1119.3 294.161 1116.05 C 298.342 1110.18 294.758 1103.77 293.571 1096.95 C 288.642 1068.66 285.645 1040.73 283.666 1012.1 C 283.284 1006.58 287.248 997.837 286.927 992.016 C 284.056 980.69 285.391 970.287 284.071 958.818 C 282.691 949.653 280.465 941.182 279.307 931.855 C 281.548 929.572 281.905 929.109 283.718 926.464 C 284.779 920.131 282.065 919.105 282.357 916.525 C 284.12 900.913 283.861 853.221 301.61 847.059 C 310.047 844.129 310.971 860.913 312.175 863.843 C 314.135 868.61 327.532 875.001 325.893 884.144 C 325.517 888.846 325.643 887.098 322.371 890.691 L 324.883 893.514 C 325.628 904.767 324.615 903.151 318.165 912.333 C 322.059 914.076 326.438 915.709 330.434 917.299 C 353.463 911.495 377.309 918.413 396.342 912.308 C 402.513 906.538 395.869 863.474 398.803 852.021 C 402.095 839.168 400.199 837.289 411.686 828.578 z" fill="rgb(2,1,2)" transform="translate(0,0)"></path>
<path d="M 878.975 855.141 C 882.886 855.616 886.052 855.896 888.014 859.892 C 892.192 868.396 894.025 877.489 896.526 886.609 C 901.452 904.57 910.306 923.124 905.163 942.095 C 903.691 947.213 889.944 956.857 884.123 959.581 C 865.004 965.382 862.786 938.362 859.793 925.601 C 854.312 902.236 854.053 867.76 878.975 855.141 z" fill="rgb(2,1,2)" transform="translate(0,0)"></path>
<metadata><recraft-signature>{"signed_by": "recraft", "signature_b64": "EV0ub44eD7kGsuR83VjPjTuP18BzZNDGGUdNBmuN0mpK41lzrBN9f9i3J8xfSmGrXNsDwwlgebqj4KaoZ89rBQ==", "signing_algo": "Ed25519", "generation_timestamp": 1776309896, "identifier": "946de489-aed5-4121-b076-2e2b15980006"}</recraft-signature></metadata></svg>