<svg xmlns="http://www.w3.org/2000/svg" height="1024" preserveAspectRatio="none" style="display: block;" version="1.1" viewBox="0 0 2048 2048" width="1024">
<path d="M 0 0 L 2048 0 L 2048 2048 L 0 2048 L 0 0 z" fill="rgb(254,254,254)" transform="translate(0,0)"></path>
<path d="M 422.834 906.82 L 424.961 908.375 C 428.189 907.476 433.063 909.481 436.229 910.416 C 464.97 918.903 443.429 934.433 451.494 949.44 C 451.538 952.608 448.609 956.304 446.767 959.207 C 447.459 962.235 448.908 960.597 452.378 964.519 C 450.839 967.126 449.683 968.552 449.373 971.571 L 450.691 972.923 C 454.573 970.334 457.909 972.699 462.662 972.486 C 470.673 972.4 481.362 971.57 489.108 972.271 C 499.004 973.167 498.976 967.871 502.742 967.276 C 503.3 969.692 502.821 968.905 504.391 970.67 C 505.111 968.471 504.793 969.131 506.029 967.279 C 516.881 965.27 518.23 972.679 528.365 964.398 L 529.468 963.483 L 530.275 967.054 L 531.43 967.456 C 531.836 966.152 532.222 964.842 532.589 963.526 C 540.36 963.745 540.971 973.249 551.156 965.268 L 552.585 964.136 C 555.391 964.659 558.201 965.161 561.014 965.642 C 563.575 964.651 572.807 961.057 574.868 961.028 C 589.171 960.828 598.112 976.182 609.526 975.718 C 611.084 975.654 610.092 975.423 611.848 976.599 C 610.349 977.671 609.033 978.703 607.581 979.834 C 612.292 983.935 623.767 972.274 630.642 976.381 C 637.697 980.597 636.998 975.502 642.269 975.268 C 642.729 976.93 642.718 977.297 642.649 978.966 C 655.261 984.714 658.743 980.694 662.87 982.131 C 703.709 996.355 741.913 1048.58 701.403 1085.25 L 697.305 1084.82 C 695.806 1085.87 694.742 1087.1 694.201 1088.83 C 691.129 1098.61 684.137 1094.24 678.736 1100.43 C 678.811 1103.37 678.961 1102.43 678.223 1105.27 C 670.312 1107.96 663.276 1109.62 655.886 1112.04 C 655.457 1114.73 655.956 1113.9 654.492 1115.89 C 653.413 1113.3 653.548 1112.96 651.52 1111.13 C 647.825 1111.16 641.904 1116.1 638.303 1117.3 C 633.445 1118.92 624.915 1118.3 619.701 1118.77 C 616.69 1119.05 621.433 1120.05 616.647 1121.19 C 609.507 1111.44 604.7 1122.89 594.714 1121.51 C 587.661 1120.52 581.296 1118.17 574.45 1116.23 C 572.362 1117.45 572.898 1117.22 570.533 1118.02 C 568.322 1116.24 563.34 1110.56 562.608 1110.29 C 550.795 1105.83 552.065 1109.71 540.729 1101.9 L 541.352 1099.59 C 538.495 1098.1 538.891 1096.8 537.231 1095.67 C 526.906 1088.59 518.929 1079.99 511.563 1069.93 C 511.572 1068.73 511.165 1058.55 511.072 1058.5 C 501.187 1053.04 517.629 1042.68 512.893 1032.97 C 511.088 1029.28 529.205 1017.77 529.798 1010.76 L 528.369 1009.16 C 524.02 1009.14 509.95 1013.97 509.539 1013.61 C 503.402 1008.34 504.486 1014.66 497.3 1014.7 L 494.889 1011.1 C 490.052 1010.31 486.391 1013.94 482.2 1014.2 C 470.839 1014.87 453.947 1012.48 444.601 1020.17 C 440.413 1023.62 441.471 1030.12 445.821 1033.3 C 446.311 1036.88 442.106 1041.56 439.595 1045.44 L 440.317 1047.29 L 444.22 1048.28 L 444.236 1050.06 C 442.121 1053.04 440.636 1054.38 438.018 1056.99 C 440.177 1059.74 443.257 1062.84 445.691 1065.44 C 443.541 1068.21 440.193 1070.62 437.393 1072.86 L 434.477 1072.38 C 434.56 1074.65 438.107 1076.62 438.257 1077.47 C 439.419 1083.91 440.223 1090.16 441.654 1096.58 C 443.447 1104.38 452.218 1114.07 447.153 1122.28 C 443.38 1128.4 427.36 1133.13 421.55 1127.53 C 420.038 1126.07 419.809 1126.09 417.859 1125.87 C 417.535 1128.53 417.866 1127.62 416.475 1129.96 C 412.908 1129.13 412.161 1124.81 407.558 1121.81 C 405.635 1123.36 406.617 1122.86 404.73 1123.51 C 399.344 1117.74 395.21 1103.86 395.066 1095.83 C 395.036 1094.19 397.22 1092.85 398.434 1091.87 L 399.581 1090.95 L 399.548 1088.61 C 398.469 1088.23 397.39 1087.85 396.31 1087.47 C 397.184 1085.5 397.552 1084.58 398.182 1082.52 C 396.732 1080.5 395.639 1079.46 395.229 1077.06 L 397.53 1074.92 C 397.852 1071.46 393.768 1064.6 392.153 1059.8 C 392.809 1055.11 396.023 1054.38 398.017 1050.32 C 399.495 1047.31 396.783 1050.81 395.04 1044.13 C 396.513 1038.45 399.115 1043.06 399.219 1039 C 399.412 1031.49 395.404 1031.03 398.952 1025.03 L 397.663 1023.13 C 392.692 1020.79 387.442 1022.04 381.861 1022.71 C 379.805 1020.36 380.369 1020.78 379.658 1017.65 C 377.598 1016.61 376.177 1016.67 373.897 1016.53 C 371.544 1013.74 372.056 1009.65 370.997 1004.77 C 368.836 1003 367.727 1002.54 366.856 999.949 C 367.808 998.65 368.864 997.54 370.025 996.426 C 364.426 971.285 387.026 983.226 400.488 975.176 C 403.563 973.338 402.881 973.625 406.644 973.458 C 408.787 970.314 405.806 945.799 407.266 942.603 C 412.615 930.893 410.122 911.03 422.834 906.82 z" fill="rgb(0,0,0)" transform="translate(0,0)"></path>
<path d="M 613.52 1014.53 L 616.326 1016.66 C 620.517 1016.35 623.415 1018.29 627.505 1018.84 C 639.92 1020.51 679.052 1023.49 680.373 1039.41 C 678.723 1040.17 678.694 1040.17 677.096 1041.18 L 677.762 1044.47 L 679.886 1045.3 L 679.809 1045.11 C 677.971 1047.53 676.982 1050.71 675.024 1053.42 C 668.286 1062.75 657.865 1068.03 647.819 1073.08 C 643.825 1075.08 638.306 1075.93 633.74 1077.43 C 609.735 1086.4 583.414 1085.86 562.576 1069.58 C 562.458 1068.02 562.552 1066.6 562.791 1065.06 C 547.708 1051.82 551.852 1046.97 564.4 1033.23 L 564.15 1032.36 C 565.906 1031.46 574.009 1027.28 575.776 1026.82 C 587.131 1023.87 599.084 1021.92 610.348 1018.2 C 611.62 1016.73 612.677 1015.51 613.52 1014.53 z" fill="rgb(254,254,254)" transform="translate(0,0)"></path>
<path d="M 1830.85 935.214 C 1835.2 935.365 1851.95 946.659 1853.48 952.122 C 1855.31 958.685 1854.94 960.564 1852.39 966.643 C 1856.2 974.015 1855.97 975.609 1852.16 983.127 C 1846.14 995.02 1847.79 1002.69 1847.88 1014.94 C 1847.89 1016.68 1843.49 1018.13 1842 1022.07 L 1844.68 1024.36 C 1845.03 1036.04 1835.04 1036.02 1842.78 1047.44 L 1841.58 1048.56 L 1837.17 1047.37 L 1836.13 1048.52 C 1835.86 1055.71 1840.53 1055.72 1838.67 1061.39 C 1836.37 1063.15 1835.23 1063.78 1833.64 1066.26 C 1834.74 1077.67 1840.09 1071.71 1830.97 1085.01 L 1833.07 1088.56 L 1832.51 1089.72 C 1829.9 1088.6 1829.28 1088.36 1826.53 1087.68 L 1826.01 1089.38 L 1828.85 1093.58 C 1828.46 1099.2 1821.67 1102.92 1818.86 1107.5 C 1820.78 1108.94 1820.22 1108.28 1821.38 1110.42 C 1819.8 1113.05 1814.47 1117.01 1811.49 1117.54 L 1811.49 1114.41 L 1810.48 1113.61 C 1807.13 1115.2 1805.41 1118.94 1802.67 1121.63 C 1799.29 1124.94 1801.06 1119.27 1794.58 1119.17 L 1793.06 1121.83 L 1791.11 1121.75 C 1788.97 1118.84 1790 1119.52 1787.12 1117.88 L 1784.67 1119.56 C 1776.48 1118.34 1761.01 1102.62 1755.21 1096.58 C 1754.28 1095.61 1755.04 1098.08 1751.35 1096.62 L 1750.44 1094.41 L 1752.71 1090.43 C 1749.64 1084.87 1751.36 1092.75 1748.96 1090.1 C 1745.46 1086.21 1746.34 1084.71 1741.29 1082.55 C 1742.65 1085.27 1742.93 1085.19 1742.51 1088.11 C 1734.87 1096.72 1740.39 1094.19 1736.97 1101.13 C 1733.49 1103.96 1720.41 1115.15 1716.53 1115.39 L 1715.4 1113.29 C 1711.58 1114.12 1707.27 1119.19 1705.49 1119.22 C 1694.54 1119.39 1685.01 1104.49 1677.96 1098.83 L 1676.2 1098.82 L 1677.86 1096.71 C 1666.96 1094.39 1669.72 1082.98 1667.55 1075.03 C 1662.28 1055.63 1659.74 1031.55 1661.3 1011.72 C 1664.87 991.888 1691.83 994.098 1700.4 1010.84 C 1703.84 1017.59 1707.83 1042.56 1711.53 1043.32 C 1716.62 1038.19 1719.08 1027.58 1723.54 1022.46 C 1744.49 998.422 1767.5 1043.71 1779.24 1053.07 C 1781.48 1053.06 1781.9 1053.12 1784.11 1053.5 C 1784.92 1055.69 1784.47 1054.99 1785.94 1056.77 C 1791.44 1052.76 1792.21 1043.28 1792.19 1037.01 C 1792.16 1027.8 1794.61 1028.24 1799.96 1021.56 C 1800.11 1017.61 1800.01 1018.77 1797.76 1014.79 C 1799.41 1010.42 1803.63 1003.06 1804.2 999.187 C 1805.15 992.742 1801.41 991.523 1805.16 984.031 C 1808.8 976.761 1809.67 975.601 1807 968.436 C 1808.42 961.758 1809.95 952.27 1812.48 946.15 C 1815.18 939.598 1825.87 938.08 1830.85 935.214 z" fill="rgb(0,0,0)" transform="translate(0,0)"></path>
<path d="M 839.744 949.959 C 841.036 951.619 841.009 953.85 842.563 956.361 C 846.627 956.742 861.262 960.82 864.146 963.075 C 865.312 965.996 865.93 968.798 868.409 970.457 C 870.458 969.494 869.367 969.84 871.693 969.456 C 874.074 971.991 881.332 979.038 881.56 982.056 C 881.763 984.745 881.941 984.579 883.219 987.394 C 884.935 987.76 886.005 987.954 887.775 988.186 L 889.343 988.381 L 890.793 990.372 C 891.443 993.703 890.822 995.404 889.73 998.423 C 888.808 1000.97 892.695 1008.59 893.801 1011.7 C 897.401 1021.83 889.293 1021.59 886.069 1028.53 C 887.179 1029.39 888.305 1030.24 889.445 1031.07 L 888.652 1032.59 C 882.603 1033.19 873.853 1044.69 864.051 1049.46 C 849.676 1056.46 840.119 1058.22 824.592 1061.64 C 821.1 1062.41 815.376 1065.64 809.533 1066.98 C 808.55 1066.64 807.564 1066.31 806.573 1066 C 798.973 1063.6 801.545 1066.92 794.081 1070.82 C 789.963 1069.33 786.772 1067.25 783.509 1070.79 C 781.857 1077.08 778.471 1097.7 781.156 1102.31 C 784.179 1102.83 783.28 1102.35 785.739 1103.84 C 785.723 1108.16 785.884 1121.22 783.551 1123.92 L 778.652 1124.19 C 770.983 1130.47 763.528 1131.37 756.016 1123.9 C 754.045 1125.46 753.928 1125.3 751.437 1125.94 C 748.343 1125.29 747.803 1123.85 745.811 1121.8 C 743.379 1119.29 743.787 1122.69 738.288 1119.48 C 731.641 1108.48 737.52 1085.61 740.169 1072.5 C 736.392 1070.11 733.433 1068.31 729.911 1065.5 C 730.923 1063.29 730.562 1064.42 731.022 1062.12 C 715.771 1044.28 741.061 1044.66 747.212 1031.25 C 747 1018.55 746.973 1005.43 746.423 992.725 C 746.045 984.005 732.057 969.691 740.988 960.669 C 749.202 952.371 756.723 960.39 764.115 960.358 L 767.252 956.964 L 768.905 956.936 L 770.771 959.72 C 773.186 960.124 773.139 960.327 775.316 959.33 L 774.124 956.912 L 774.959 956.039 C 778.808 955.162 780.367 956.056 784.24 957.225 L 785.701 957.678 C 790.061 956.538 790.721 954.842 794.245 951.351 C 798.023 950.269 796.431 949.944 799.384 951.171 L 799.731 955.193 L 801.191 956.29 L 803.938 955.779 C 809.238 948.142 813.321 951.595 820.654 951.533 C 831.565 951.441 827.753 953.488 831.667 956.069 C 834.979 954.779 837.084 952.392 839.744 949.959 z" fill="rgb(0,0,0)" transform="translate(0,0)"></path>
<path d="M 829.779 992.566 C 834.728 991.305 836.895 994.071 841.133 996.565 L 843.223 995.531 C 847.613 997.262 851.279 998.115 853.686 1001.76 L 852.997 1003.19 C 848.938 1006.15 834.27 1014.65 829.625 1015.72 C 827.863 1013.83 828.84 1014.65 826.7 1013.24 C 819.694 1017.83 808.62 1025.7 800.31 1024.19 C 799.173 1024.35 798.182 1024.01 797.075 1023.74 C 793.436 1026.14 792.265 1026.81 787.98 1026.82 C 790.807 1016.94 789.582 1013.46 790.137 1004.37 C 791.034 989.674 822.726 997.335 829.779 992.566 z" fill="rgb(254,254,254)" transform="translate(0,0)"></path>
<path d="M 1505.4 966.827 C 1529.87 967.329 1554.51 1017.17 1558.96 1038.27 C 1557.94 1039.69 1557.76 1039.94 1556.88 1041.52 C 1563.49 1043.18 1564.13 1052.09 1571.9 1059.13 C 1587.88 1073.61 1611.43 1075.25 1621.07 1094.53 C 1607.91 1118.34 1605.27 1111.81 1582.2 1112.52 C 1575.83 1112.71 1562.45 1102.37 1555.27 1099.76 C 1553.33 1101.76 1554.26 1101.31 1551.77 1102.01 C 1550.29 1100.79 1549.19 1099.97 1547.62 1098.87 C 1535.48 1098.21 1536.17 1105.14 1530.22 1106.33 C 1521.8 1108.02 1517.86 1107.45 1508.22 1110.32 C 1508.78 1110.09 1494.12 1112.78 1494.14 1112.79 C 1487.03 1112.51 1479.21 1109.79 1471.97 1109.26 C 1472.74 1109.32 1465.66 1112.51 1465.38 1112.61 L 1463.89 1111.7 L 1462.99 1106.6 L 1461.28 1106.13 C 1460.95 1108.54 1461.32 1107.72 1459.92 1109.64 C 1453.83 1108.27 1453.68 1106.93 1451.38 1101.8 C 1447.6 1102.88 1448.01 1103.39 1444.76 1102.57 C 1441.81 1099.74 1435.74 1092.13 1434.8 1088.17 L 1438.2 1087.61 L 1438.11 1086.65 L 1432.13 1082.39 C 1431.57 1078.52 1432.8 1074.69 1433.66 1070.82 L 1432.14 1069.47 C 1432 1065.3 1437.47 1059.52 1440.3 1056.35 L 1443.29 1056.87 C 1450.02 1042.6 1457.16 1048.98 1468.34 1041.48 C 1472.25 1038.86 1471.24 1037.81 1475.57 1040.8 C 1480.09 1039.96 1476.26 1035.68 1481.24 1034.37 C 1487.54 1032.69 1498.28 1033.37 1503.33 1028.68 C 1504.18 1024.69 1504.29 1026.58 1503.1 1022.76 C 1499.12 1018.57 1488.82 1018.19 1484.34 1014.78 L 1484.08 1010.14 C 1483.48 1009.51 1478.52 989.145 1478.51 986.373 C 1482.01 979.499 1486.27 971.213 1493.52 968.242 C 1495.19 968.564 1495.93 968.848 1497.39 969.714 L 1499.97 967.019 C 1502.57 967.686 1502.84 967.634 1505.4 966.827 z" fill="rgb(0,0,0)" transform="translate(0,0)"></path>
<path d="M 1497.27 1065.5 C 1500.58 1066.51 1501.95 1066.83 1502.78 1070.01 C 1500.62 1072.8 1495.16 1074.77 1491.56 1076.64 L 1488.21 1075.44 L 1487.81 1073.87 C 1493.18 1071.2 1494.09 1070.59 1497.27 1065.5 z" fill="rgb(254,254,254)" transform="translate(0,0)"></path>
<path d="M 1039.82 957.454 C 1042.29 957.053 1041.37 957.113 1043.93 957.667 C 1048.92 964.653 1049.41 960.599 1056.6 960.553 C 1066.61 960.49 1070.66 976.743 1074.74 979.953 C 1083.7 986.989 1083.26 988.428 1087.29 999.678 C 1093.69 1016.34 1101.14 1039.01 1114.2 1051.81 C 1118.02 1051.99 1121.06 1051.32 1122.89 1054.87 C 1121.75 1057.7 1121.5 1058.07 1121.03 1061.05 L 1122.4 1062.64 L 1126.31 1061.18 C 1138.39 1063.48 1149.79 1067.19 1156.6 1077.52 C 1158.86 1080.94 1161.66 1082.4 1161.28 1085.75 C 1158.75 1085.62 1159.9 1085.35 1157.8 1086.47 C 1157.29 1089.22 1156.29 1095.01 1154.48 1097.05 C 1150.17 1101.89 1148.84 1099.11 1144.13 1099.97 L 1142.81 1104.02 C 1139.83 1106.54 1137.5 1102.71 1136.61 1103.45 C 1134.74 1105.01 1133.13 1108.72 1129.58 1109.61 C 1126.48 1105.78 1129.81 1106.39 1127.35 1101.32 C 1125.15 1104.33 1125.22 1105.1 1122.14 1106.53 C 1110.24 1103.09 1094.83 1084.45 1086.83 1085.57 L 1084.04 1089.44 C 1079.57 1087.31 1059.45 1092.05 1054.18 1094.2 C 1052.66 1096.88 1052.72 1096.75 1050.43 1098.83 L 1048.83 1098.15 L 1047.64 1094.15 C 1045.13 1093.35 1046.43 1093.44 1043.67 1094.52 C 1041.73 1097.48 1041.94 1097.88 1039.11 1099.71 C 1037.41 1097.97 1036.93 1097.46 1034.98 1096.03 C 1028.07 1097.97 1031.46 1104.91 1022.44 1100.85 C 1019.27 1101.25 1020.79 1100.75 1017.92 1102.94 C 1004.16 1098.77 986.879 1090.04 977.603 1079.08 C 977.537 1075.24 975.956 1068.94 976.372 1065.96 C 979.443 1043.94 1004.55 1024.85 1023.91 1016.94 C 1028.59 1015.03 1036.38 1017.48 1040.72 1013.77 C 1039.2 1002.66 1003.92 991.82 1020.11 969.61 L 1020.83 968.646 L 1019.93 966.076 C 1022.62 961.344 1034.29 957.9 1039.82 957.454 z" fill="rgb(0,0,0)" transform="translate(0,0)"></path>
<path d="M 1037.23 1050.49 C 1040.43 1050.67 1042.77 1050.92 1044.96 1053.09 L 1044.53 1054.96 C 1042.45 1056.27 1040.89 1057.43 1038.92 1058.88 L 1038.09 1059.7 C 1034.48 1059.77 1035.65 1060.23 1032.69 1058.82 C 1032.95 1055.48 1035.15 1053.3 1037.23 1050.49 z" fill="rgb(254,254,254)" transform="translate(0,0)"></path>
<path d="M 1285.35 963.359 C 1287.73 963.302 1294.72 969.718 1296.9 971.546 L 1298.69 970.395 C 1301.14 971.265 1308.67 987.923 1310.32 991.257 C 1313.57 992.262 1319.89 988.248 1323.61 986.902 C 1341.46 980.434 1361.67 971.988 1380.89 972.285 L 1382.37 972.314 C 1390.61 963.291 1388.36 970.824 1399.45 969.809 C 1402.96 969.489 1399.71 968.971 1403.11 970.006 L 1403.5 972.486 C 1406.95 971.453 1409.33 965.829 1413.6 966.567 L 1412.52 970.743 L 1413.61 971.594 C 1422.27 966.643 1418.86 970.484 1423.74 971.754 L 1426.71 967.727 C 1430.34 966.675 1432.22 971.359 1438.68 973.151 C 1448.54 967.063 1451.1 977.344 1458.55 982.017 C 1460.63 983.324 1460.07 980.103 1464.17 983.049 C 1465.61 986.479 1465.54 989.622 1464.6 992.785 C 1464.03 994.711 1454.92 1004.97 1453.76 1004.92 C 1449.08 1004.73 1415.96 1005.15 1413.8 1006.83 C 1403.78 1014.58 1397.62 1010.88 1385.89 1015.83 C 1382.89 1023.29 1364.24 1016.71 1358.35 1023.97 C 1352.71 1024.97 1338.18 1031.58 1334.15 1033.92 C 1325.99 1038.66 1310.27 1041.57 1316.33 1052.44 C 1316.41 1052.59 1314.17 1054.08 1314.02 1055.23 C 1311.56 1073.33 1319.79 1095.1 1312.22 1111.79 C 1308.02 1119.67 1295.91 1119.2 1287.03 1121.17 C 1283.49 1120.06 1273.13 1117 1271.38 1114.81 C 1268.58 1111.04 1258.55 1102.43 1257.71 1098.14 C 1255.33 1085.96 1267.17 1070.44 1260.62 1058.53 C 1259.78 1056.99 1264.26 1048.68 1265.4 1046.35 C 1265.27 1046.06 1262.96 1040.99 1262.96 1040.96 C 1264.03 1031.92 1267.78 1007 1270.63 1000.29 C 1261.41 991.243 1262.54 987.858 1267.16 977.749 C 1267.51 976.989 1268.34 971.024 1268.7 969.439 C 1277.16 960.196 1276.74 967.989 1285.35 963.359 z" fill="rgb(0,0,0)" transform="translate(0,0)"></path>
<path d="M 324.18 994.982 C 329.039 997.12 326.921 1000.07 332.043 1002.83 L 334.989 1001.59 C 339.85 1002.5 338.451 1005.28 344.506 1007.92 C 346.786 1007.01 345.929 1007.18 348.445 1007.12 C 349.185 1008.8 349.489 1008.93 349.129 1010.39 C 347.405 1017.39 352.162 1022.22 351.965 1027.47 C 349.666 1029.86 350.058 1028.76 349.333 1031.6 C 352.047 1031.87 351.217 1031.61 353.726 1032.61 C 353.438 1033 348.556 1039.61 348.602 1039.58 C 345.301 1041.96 347.163 1049.91 345.996 1051.56 C 342.502 1056.51 338.008 1059.74 334.385 1065.47 L 335.65 1069.75 C 333.241 1073.32 330.811 1077.9 327.125 1079.69 L 324.031 1078.36 L 322.923 1078.84 C 322.771 1083.58 324.633 1088.06 320.274 1090.59 L 317.086 1089.46 C 314.342 1091.82 315.78 1093.8 312.943 1097.88 L 308.002 1098.23 L 307.945 1099.36 L 310.678 1101.29 L 310.839 1102.64 C 302.502 1104.02 302.101 1109.63 297.254 1109.9 L 296.714 1105.15 C 293.397 1103.86 293.016 1103.49 289.4 1103.34 C 290.072 1105.9 290.099 1105.79 289.917 1108.41 C 286.148 1112.27 282.113 1114.92 276.798 1116.16 L 273.602 1114.13 C 268.179 1122.68 260.735 1115.87 253.169 1115.45 C 250.34 1115.29 249.344 1117.06 247.32 1118.86 L 245.645 1118.43 L 245.251 1114.73 C 241.105 1114.21 237.149 1119.15 232.763 1118.19 C 226.913 1117.02 220.926 1111.59 215.443 1110.03 C 210.74 1108.69 205.966 1111.73 201.846 1106.45 L 203.236 1102.87 C 201.039 1098.64 198.95 1099.68 195.25 1100.25 C 192.509 1097.95 191.73 1092.25 189.61 1087.32 C 187.995 1086.36 187.092 1085.76 185.58 1084.64 C 183.494 1078.33 183.614 1075.25 183.285 1068.62 C 183.006 1068.32 180.827 1065.87 180.384 1065.38 C 175.433 1059.97 182.04 1039.83 181.897 1032.01 C 182.534 1029.85 180.581 1024.06 181.705 1022.29 C 184.79 1017.42 186.019 1006.55 188.221 1002.58 C 192.04 1000.89 208.375 1004.3 211.558 1005.68 C 237.712 1015.77 212.043 1050.8 222.988 1065.8 C 230.245 1075.75 267.01 1071.91 276.539 1063.68 C 288.845 1053.04 298.207 1038.34 305.092 1023.9 C 306.426 1021.1 295.626 1001.14 311.507 998.743 C 321.672 996.497 312.711 995.304 323.527 999.51 L 324.419 998.574 L 324.18 994.982 z" fill="rgb(0,0,0)" transform="translate(0,0)"></path>
<path d="M 936.068 986.465 C 942.117 991.502 956.498 995.469 960.234 1002.18 L 959.134 1006.03 L 960.929 1009.06 C 960.797 1016.25 953.412 1026.27 949.972 1033.47 C 951.451 1036.05 950.581 1034.88 953.442 1036.6 C 951.509 1041.31 949.608 1046.04 947.74 1050.78 C 949.114 1055.59 948.197 1050.39 952.534 1054.49 C 950.411 1058.56 948.13 1058.98 943.839 1061.98 L 944.056 1062.56 L 948.756 1061.79 C 948.774 1075.83 951.174 1075.46 955.658 1087.94 C 953.409 1090.96 949.167 1096.93 946.485 1099.23 C 939.147 1105.52 933.966 1102.08 927.65 1108.56 C 919.824 1106.31 909.633 1098.66 903.728 1092.27 C 903.363 1091.87 906.159 1088.74 905.269 1085.76 C 902.755 1086.1 903.859 1086.38 901.908 1085.14 C 898.357 1074.86 904.223 1060.87 906.981 1050.44 C 904.807 1050.27 905.963 1050.22 903.52 1050.71 C 903.559 1050.52 903.904 1048.9 903.848 1048.62 C 902.269 1043.32 907.447 1039.06 907.616 1035.02 C 907.926 1026.83 908.626 1018.64 909.498 1010.49 C 910.308 1002.93 910.013 999.548 914.789 993.355 C 921.868 984.176 927.322 991.162 936.068 986.465 z" fill="rgb(0,0,0)" transform="translate(0,0)"></path>
<path d="M 925.81 917.66 C 930.171 919.67 929.493 918.303 932.1 918.958 C 946.299 922.525 967.906 935.49 966.302 952.357 C 965.361 962.245 960.606 964.502 953.796 969.712 C 944.737 971.714 922.776 964.059 917.498 955.925 C 915.947 953.533 916.917 950.281 917.431 947.704 C 911.122 932.045 912.345 926.76 925.81 917.66 z" fill="rgb(0,0,0)" transform="translate(0,0)"></path>
<metadata><recraft-signature>{"signed_by": "recraft", "signature_b64": "OatXCy+EFU/hp40G+8+MveFxVgayVP4lq0CeUdvSUixYJBsVthCNvrSpIMwT5vWetlWk3UwmZktsBuMztW3dCw==", "signing_algo": "Ed25519", "generation_timestamp": 1776310260, "identifier": "2bc0b42d-8c5d-4984-8646-c4e66fdbe68e"}</recraft-signature></metadata></svg>