<svg xmlns="http://www.w3.org/2000/svg" height="1024" preserveAspectRatio="none" style="display: block;" version="1.1" viewBox="0 0 2048 2048" width="1024">
<path d="M 0 0 L 2048 0 L 2048 2048 L 0 2048 L 0 0 z" fill="rgb(254,254,254)" transform="translate(0,0)"></path>
<path d="M 731.023 899.939 C 740.949 903.443 750.755 900.923 760.913 902.344 C 766.663 903.148 774.313 906.639 779.784 908.921 C 787.105 905.571 790.083 907.98 797.909 908.069 C 801.75 908.113 802.326 909.983 804.623 912.803 C 821.785 904.979 817.047 916.597 823.191 916.486 C 839.853 916.185 852.579 923.548 865.734 933.548 C 881.197 945.304 899.629 962.097 907.465 980.094 C 913.987 995.953 896.991 959.334 908.209 982.989 L 910.336 982.888 C 915.489 975.743 894.452 959.502 920.522 942.782 C 941.957 956.134 946.599 952.197 959.441 977.835 C 958.865 983.372 959.612 992.111 959.337 998.665 L 954.551 1002.3 C 953.065 1016.82 953.631 1030.9 951.623 1045.4 C 951.623 1045.4 954.57 1049.06 954.874 1049.44 L 954.643 1051.36 L 950.515 1054.01 C 948.461 1060.82 950.171 1066.36 949.19 1072.67 C 947.019 1086.6 941.928 1090.08 946.406 1104.01 C 944.826 1107.62 942.482 1113.8 939.119 1115.55 C 933.552 1111.37 924.448 1114.38 915.478 1105.91 C 910.514 1101.15 907.289 1094.86 906.316 1088.05 C 904.494 1075.01 908.47 1069.17 910.069 1057.21 C 910.482 1054.13 907.478 1042.75 907.41 1038.42 C 907.31 1032.11 910.686 1029.43 910.996 1023.7 C 911.553 1013.4 910.69 1002.81 910.646 992.347 C 907.173 999.334 903.793 1009.24 895.514 1009.98 C 892.807 1010.23 891.416 1015.12 889.822 1017.66 C 887.083 1022.89 877.149 1017.69 872.659 1021.18 C 858.052 1032.52 842.278 1032.46 825.752 1038.89 C 820.202 1041.06 812.709 1048.02 807.033 1049.14 C 803.422 1049.86 796.901 1049.31 792.536 1049.81 L 790.916 1051.02 C 782.992 1056.83 783.6 1055.78 773.671 1057.2 C 770.202 1057.69 765.694 1065.18 763.62 1068.21 C 761.388 1071.46 765.344 1072.4 765.446 1074.52 C 765.79 1099.34 766.056 1124.99 774.615 1148.58 C 768.611 1179.56 744.134 1171.65 730.487 1150.57 C 729.063 1126.89 728.066 1123 730.944 1099.61 C 727.672 1096.64 727.715 1095.85 727.241 1091.59 L 727.137 1090.57 L 726.013 1089.59 L 727.191 1088.38 L 727.413 1086.71 L 725.656 1084.92 C 724.711 1080.36 725.348 1081.04 727.048 1075.88 C 724.141 1064.25 719.921 1057.71 714.632 1047.16 C 714.103 1046.1 715.947 1039.19 714.996 1035.45 L 713.659 1035.01 C 711.301 1038.49 712.461 1052.65 708.815 1059.53 C 704.634 1067.42 706.695 1065.91 697.921 1069.54 C 695.541 1082.23 687.941 1075.43 674.743 1087.93 C 670.025 1088.75 664.684 1090.16 660.015 1091.36 C 657.798 1093.65 658.459 1092.3 658.15 1095.63 C 651.175 1097.45 645.241 1093.06 639.624 1094.78 L 638.416 1098.45 L 636.461 1099.05 C 629.68 1096.34 637.07 1098.04 632.708 1094.05 C 626.301 1095.01 629.55 1097.68 626.901 1097.81 C 613.383 1098.47 615.707 1095.85 604.45 1103.64 C 599.821 1101.61 601.423 1098.99 596.521 1098.03 C 592.739 1099.03 590.395 1101.69 587.454 1104.33 C 584.081 1104.98 585.03 1104.83 581.065 1102.98 C 575.951 1100.59 575.432 1104.76 569.849 1106.69 C 563.404 1108.92 564.849 1103.34 562.041 1102.85 C 556.208 1101.83 545.078 1104.16 539.688 1100.95 C 513.722 1085.47 491.499 1047.52 482.118 1019.81 C 473.976 995.75 495.334 999.499 502.939 986.238 C 504.484 983.543 504.187 983.429 506.44 980.368 C 508.394 980.617 508.62 980.757 510.362 981.575 C 522.978 974.762 522.934 970.081 531.319 958.681 C 534.492 954.367 539.368 949.738 543.285 945.977 L 542.484 946.134 C 548.984 944.371 551.637 943.941 557.348 940.343 C 565.93 944.194 584.217 950.546 589.792 938.018 C 592.189 932.632 625.347 938.011 632.82 932.611 L 634.863 932.944 C 636.889 935.705 637.399 936.936 640.574 938.238 C 648.062 934.928 673.049 946.891 679.583 951.687 C 691.073 960.122 706.847 1029.67 712.583 1033.3 C 719.339 1027.31 725.821 1024.03 726.078 1012.44 C 726.321 1001.48 729.36 957.649 724.337 950.373 C 719.383 957.732 716.575 952.452 709.743 960.114 C 702.445 956.124 682.972 945.837 681.897 937.027 L 684.767 935.725 C 682.445 930.917 679.84 926.821 681.324 921.666 C 685.766 916.729 695.716 917.586 696.396 916.85 C 705.805 906.677 705.926 912.069 717.369 910.573 C 720.396 906.17 721.254 905.478 726.047 904.468 C 728.042 906.188 727.134 905.866 729.48 906.376 L 731.023 899.939 z" fill="rgb(0,0,0)" transform="translate(0,0)"></path>
<path d="M 613.229 975.734 C 625.643 985.851 634.207 976.114 647.41 977.884 C 655.853 979.016 666.979 986.608 663.455 995.634 C 662.56 997.926 672.079 1007.54 673.678 1011.17 C 679.225 1023.77 670.232 1040.58 658.878 1046.8 L 656.774 1045.16 C 654.437 1046.4 653.11 1049.21 651.439 1051.68 C 644.867 1051 638.853 1050.77 632.974 1054.6 L 632.712 1056.88 C 629.241 1059.3 618.857 1052.59 612.943 1056.78 C 608.312 1060.06 598.632 1062.17 593.226 1060.2 C 584.021 1060.09 582.387 1061.34 573.708 1063.7 C 569.492 1064.43 559.03 1061.36 555.588 1061.88 C 541.268 1064.07 542.062 1065.23 528.741 1060.3 L 524.287 1050.82 C 529.62 1038.16 533.418 1023.87 544.942 1013.39 C 546.373 1012.09 552.484 1012.99 554.156 1011.28 C 558.366 1006.97 562.426 1001.93 566.823 997.818 C 569.313 995.487 568.522 999.539 572.738 999.752 C 576.818 994.362 572.714 995.334 575.89 990.659 L 578.897 991.625 C 583.734 987.849 589.188 984.958 594.766 982.231 C 595.264 981.988 605.585 984.873 607.438 983.986 C 609.563 982.969 612.064 977.688 613.229 975.734 z" fill="rgb(254,254,254)" transform="translate(0,0)"></path>
<path d="M 772.856 946.116 C 780.978 948.379 783.447 947.953 790.963 947.008 C 792.239 946.848 797.806 952.898 801.996 953.069 C 802.955 951.774 803.796 950.458 804.582 949.052 C 811.876 949.35 815.38 954.86 828.062 954.872 C 828.177 953.371 827.817 952.819 827.35 951.403 C 833.438 953.079 836.901 956.468 842.498 959.04 C 849.165 962.104 857.302 961.949 862.721 967.429 C 866.002 977.932 839.948 985.472 832.359 987.615 C 830.599 988.706 829.135 991.008 827.753 992.769 C 822.949 992.584 824.138 990.711 819.595 992.575 C 819.102 993.332 817.428 996.96 816.672 997.062 C 807.363 998.319 780.625 1007.31 772.76 1008.29 C 770.943 1010.08 770.13 1010.69 768.075 1012.21 C 764.774 1012.37 766.187 1012.8 763.601 1011.25 C 763.289 1010.01 767.907 984.506 768.133 979.72 C 768.62 969.449 765.947 953.465 772.856 946.116 z" fill="rgb(254,254,254)" transform="translate(0,0)"></path>
<path d="M 1224.74 871.761 L 1228.49 871.939 C 1230.29 873.251 1231.05 873.807 1232.98 874.95 C 1233.61 874.662 1237.49 872.856 1237.69 872.881 C 1243.61 873.596 1246.99 886.42 1254.59 889.795 L 1258.05 886.988 C 1262.11 887.648 1263.64 890.344 1266.52 893.704 L 1269.79 891.941 C 1278.42 891.497 1282.64 899.76 1290.5 902.892 L 1292.16 899.081 L 1293.93 898.445 C 1299.98 900.302 1300.86 904.937 1304.72 906.469 C 1310.53 908.775 1352.28 918.309 1353.77 920.711 L 1351.49 923.278 L 1351.84 924.327 C 1355.79 924.156 1354.43 924.35 1358.13 921.155 C 1361.82 921.422 1364.21 926.134 1365.45 926.323 C 1387.91 929.733 1407.57 942.331 1423.85 957.635 C 1428.12 961.657 1433.35 969.419 1437.58 974.259 C 1439.14 981.587 1439.23 989.156 1439.56 996.652 C 1436.21 1002.2 1429.87 1013.81 1425.75 1017.85 C 1422.17 1018.06 1423.78 1018.43 1420.69 1016.85 C 1420.4 1014.69 1420.47 1014.34 1420.82 1012.25 L 1421.16 1010.34 L 1420.01 1008.98 C 1415.65 1009.95 1418.44 1015.93 1417.85 1019.7 C 1417.51 1021.87 1415.55 1024.45 1414.31 1026.3 L 1413.46 1027.54 C 1407.06 1030.46 1396.62 1033.19 1390.98 1038.1 C 1390.07 1038.88 1391.51 1040.94 1388.08 1043.78 C 1379.23 1038.61 1378.36 1051.83 1367.91 1047.4 C 1365.22 1048.03 1356.65 1052.65 1354.38 1054.28 C 1346.77 1059.74 1334.43 1058.98 1327.6 1063.53 C 1320.94 1067.97 1317.97 1064.38 1313.45 1068.01 C 1312.35 1071.13 1312.09 1071.24 1312.43 1074.62 C 1320.93 1078.66 1332.04 1081.71 1340.48 1087.23 C 1342.23 1088.38 1350.9 1094.15 1352.17 1094.16 C 1374.25 1094.36 1393.93 1111.44 1415.63 1116.35 C 1417.84 1116.85 1416.55 1114.25 1421.02 1116.11 L 1421.01 1118.91 C 1425.32 1120.86 1442.16 1126.62 1448.67 1129.25 C 1481.41 1142.44 1523.88 1161.72 1557.74 1169.95 L 1567.46 1177.77 C 1549.44 1175.09 1548.29 1176.47 1530.27 1177.88 C 1527.22 1178.12 1513.82 1182.9 1512.74 1182.13 C 1509.95 1180.13 1500.2 1173.05 1496.4 1171.15 C 1496.28 1171.09 1488.05 1174.42 1487.42 1174.51 C 1484.08 1174.99 1478.54 1167.55 1476.29 1167.45 C 1471.24 1167.22 1460.48 1169 1455.79 1168.42 C 1454.27 1168.23 1445.14 1160.39 1441.93 1159.89 C 1438.6 1159.37 1437.66 1160.24 1434.55 1161.72 L 1433.48 1162.24 L 1431.66 1161.54 C 1430.08 1158.94 1429.82 1158.27 1427.65 1156.08 C 1423.61 1157.09 1423.21 1157.35 1419.2 1156.82 C 1417.23 1155.13 1416.56 1154.15 1414.05 1153.74 L 1411.54 1155.82 C 1407.71 1156.28 1409.62 1156.48 1405.72 1154.55 C 1401.89 1148.85 1402.28 1149.07 1395.32 1148.11 C 1389.85 1147.37 1383.76 1146.64 1378.31 1145.51 C 1375.75 1144.99 1366.67 1136.21 1365.06 1136.56 C 1356.2 1138.47 1354.59 1136.3 1346.83 1132.63 C 1338.95 1129.67 1316.9 1118.25 1310.14 1118.14 C 1308.96 1121.25 1311.44 1130.1 1311.54 1134.77 C 1311.69 1141.74 1310.74 1146.46 1309.56 1153.31 C 1306.12 1156.15 1303.01 1159.54 1299.88 1162.75 C 1288.54 1154.98 1273.8 1154.14 1267.63 1142.09 C 1260.7 1128.56 1261.57 1117.92 1265.05 1104.19 C 1243.27 1079.81 1229.19 1106.16 1218.76 1061.24 C 1220.19 1056.62 1223.52 1050.69 1226.04 1046.63 C 1235.57 1042.82 1245.69 1042.25 1255.51 1039.73 C 1255.04 1039.86 1264.06 1030.11 1264.85 1029.28 C 1257.23 1018.69 1261.45 1015.69 1260.25 1002.61 C 1253.36 993.806 1257.65 993.871 1257.04 984.358 C 1256.35 983.414 1253.53 979.558 1253.45 978.773 C 1252.47 968.941 1251.32 955.253 1251.27 945.704 C 1242.69 933.332 1234.53 932.796 1223.99 923.469 C 1222.49 922.142 1224.95 917.723 1216.38 911.573 C 1216.78 909.112 1216.92 909.138 1218.1 906.946 C 1213.14 897.05 1214.39 893.584 1218.96 883.134 C 1221.3 877.784 1220.75 876.42 1224.74 871.761 z" fill="rgb(0,0,0)" transform="translate(0,0)"></path>
<path d="M 1310.15 953.59 C 1311.18 953.346 1312.27 953.395 1313.36 953.357 C 1315.86 958.971 1322.25 957.821 1328.32 957.988 C 1343.95 958.417 1357.41 967.166 1371.58 972.79 C 1377.61 975.185 1382.51 971.812 1386.03 978.515 C 1384.47 987.172 1351.18 1001.84 1342.3 1004.63 C 1335.4 1007.03 1337.87 1007.02 1333.63 1011.48 C 1331.31 1011.23 1328.3 1010.91 1324.61 1010.52 C 1319 1013.06 1309.75 1022.39 1303.62 1021.45 C 1300.33 1019.59 1301.25 1020.9 1300.22 1017.84 C 1306.35 1010.56 1297.02 991.46 1296.85 982.132 C 1296.81 980.12 1298.69 981.66 1298.88 976.626 C 1297.67 976.535 1296.47 976.453 1295.26 976.381 C 1294.32 970.381 1293.82 960.732 1298.03 956.052 C 1304.05 954.01 1304.55 956.837 1310.15 953.59 z" fill="rgb(254,254,254)" transform="translate(0,0)"></path>
<path d="M 497.437 852.39 C 499.662 852.353 501.887 852.474 504.095 852.751 C 518.364 854.609 531.304 875.599 540.506 885.625 C 534.895 893.486 534.868 902.415 527.94 909.077 C 526.017 910.926 519.518 907.727 516.085 908.815 C 500.173 913.853 470.602 912.351 455.664 919.01 C 456.331 920.266 455.845 919.535 457.319 921.24 C 453.348 934.802 456.825 950.489 456.936 964.469 C 456.97 968.783 453.725 975.179 453.86 976.424 C 455.153 988.321 456.255 985.792 452.477 997.617 L 456.043 1007.92 C 452.222 1021.59 452.663 1030.45 453.828 1044.65 C 453.75 1043.71 457.157 1045.79 457.703 1046.38 C 453.038 1048.19 450.373 1048.99 448.313 1053.6 C 448.792 1059.12 451.399 1055.19 454.105 1060.47 C 451.848 1067.11 453.934 1068.38 456.96 1074.51 C 453.81 1080.34 457.542 1085.49 456.937 1092.86 C 456.38 1099.64 454.949 1105.53 453.581 1112.13 C 457.751 1124.54 456.546 1122.21 454.77 1134.87 C 454.545 1136.48 457.062 1137.75 458.517 1138.82 C 458.093 1142.82 452.199 1145.85 453.182 1148.2 C 461.278 1167.55 458.107 1172.63 436.538 1179.46 C 403.251 1164.76 409.123 1151.55 410.093 1120.87 C 410.446 1109.7 409.922 1098.08 410.554 1086.62 C 412.187 1084.65 412.103 1084.7 413.059 1082.3 C 412.473 1080.85 411.815 1079.51 411 1078.17 L 412.528 1077.31 C 413.288 1070.55 413.408 1067.15 411.348 1060.54 C 409.168 1057.37 414.087 1049.69 413.57 1048.14 C 410.218 1038.07 409.576 1034.94 412.591 1024.51 C 413.57 1021.13 412.485 1021.04 410.54 1018.56 C 410.334 1016.03 411.487 1013.31 412.778 1011.08 C 415.359 1006.65 412.32 1002.33 410.212 997.038 C 411.093 995.735 411.631 995.116 412.737 994.067 C 411.312 985.494 410.596 979.236 409.972 970.591 C 409.18 959.607 412.421 947.182 408.171 937.315 C 407.268 935.219 406.887 934.932 407.212 932.7 L 410.815 931.179 L 410.323 929.612 C 407.014 928.607 400.462 926.378 397.303 926.138 C 397.064 928.7 397.314 928.854 395.784 930.825 C 389.609 932.867 387.217 934.007 381.344 931.038 C 375.098 932.474 359.608 935.875 353.842 938.399 C 348.089 940.918 326.443 949.02 321.764 947.321 C 304.519 941.057 297.099 923.326 288.399 909.733 C 290.166 904.771 293.224 894.736 296.53 891.286 C 297.473 892.014 298.641 892.916 300.032 893.991 C 307.194 894.705 318.749 888.37 324.966 891.574 C 327.335 892.795 327.299 892.844 330.458 893.063 C 332.103 891.083 332 891.094 332.864 888.719 C 342.781 885.943 354.497 889.554 359.676 888.288 L 358.451 884.05 L 359.759 883.511 L 362.217 886.256 C 366.105 887.62 384.383 882.158 392.723 882.426 L 394.754 885.378 L 396.182 885.35 C 396.984 882.31 397.142 880.717 399.104 878.23 C 406.564 875.697 407.477 885.692 412.535 876.057 C 426.383 874.592 442.198 872.304 455.312 871.315 C 456.721 869.965 457.772 868.241 457.558 868.227 C 463.509 868.618 481.19 865.011 485.997 863.36 L 487.212 859.905 C 490.623 857.185 490.027 861.425 496.24 859.431 L 497.437 852.39 z" fill="rgb(0,0,0)" transform="translate(0,0)"></path>
<path d="M 1799.11 901.5 C 1801.64 901.237 1804.28 901.926 1806.68 902.636 C 1808.39 905.248 1808.11 906.422 1808.16 909.543 L 1807.01 910.214 L 1802.85 908.324 C 1803.04 910.225 1804.53 911.836 1805.73 913.666 L 1808.45 913.579 L 1809.72 914.985 C 1807.34 918.641 1808.74 914.332 1804.68 917.76 C 1807.99 919.843 1804.91 916.002 1809.63 919.277 C 1811.23 923.586 1811.19 940.674 1811.41 946.701 L 1810.41 947.715 L 1808.56 942.861 C 1806.5 943.86 1803.61 948.28 1802 950.376 L 1802.38 951.746 L 1805.17 951.623 C 1806.07 953.694 1809.66 962.075 1809.03 963.784 C 1804.94 974.981 1801.71 986.295 1798.56 997.746 C 1795.59 1008.58 1799.44 1010.77 1799.65 1020.73 C 1797.92 1023.15 1796.51 1023.21 1793.62 1024.11 L 1792.53 1024.44 C 1796.76 1027.3 1796.39 1027 1795.81 1031.72 C 1791.1 1037.47 1791.88 1035.53 1791.1 1042.65 C 1790.65 1046.69 1790.23 1047.67 1787.41 1049.88 C 1783.62 1050.51 1783.27 1050.37 1779.73 1048.87 L 1778.43 1049.42 L 1780.27 1051.67 C 1783.46 1051.75 1782.52 1051.33 1785.15 1052.57 C 1784.35 1053.99 1783.86 1054.93 1783.18 1056.41 L 1786.94 1059.27 C 1788.1 1062.39 1787.93 1060.77 1787.09 1064.3 C 1784.04 1065.74 1784.52 1065.15 1780.5 1064.56 C 1780.58 1066.65 1785.78 1070.59 1788.3 1073.38 C 1789.29 1079.47 1779.64 1079.44 1776.98 1084.12 C 1778.82 1087.34 1777.52 1086.11 1781.35 1087.55 C 1781.09 1092.06 1778.55 1099.67 1777.82 1104.94 C 1776.98 1110.99 1778.07 1121.59 1775.1 1126.37 L 1772.75 1125.25 C 1770.89 1126.68 1771.17 1129.56 1770.67 1132.73 C 1768.96 1134.71 1768.52 1135.77 1766.04 1136.29 C 1755.87 1132.62 1763.92 1136.81 1754.13 1139.18 C 1729.8 1145.05 1699.55 1084.24 1686.98 1087.18 C 1680.76 1102.05 1677.47 1119.06 1672.7 1134.45 C 1669.43 1145 1659.76 1140.23 1650.28 1145.12 C 1620.94 1128.2 1619.21 1090.85 1598.89 1060.34 C 1594.3 1047.93 1583.33 1012.69 1576.57 1002.85 C 1580.43 995.463 1588.13 977.294 1598.64 979.437 C 1600.54 982.784 1599.46 981.986 1602.37 983.8 C 1603.37 982.597 1604.4 981.418 1605.46 980.263 C 1608.37 980.466 1607.11 979.926 1609.28 982.126 C 1609.43 985.51 1608.92 989.131 1612.22 990.775 C 1612.27 988.62 1612.1 989.208 1612.73 987.196 C 1616.97 992.543 1621.42 999.159 1625.02 1005 C 1626.8 1007.9 1626.24 1007.44 1625.23 1010.42 C 1632.94 1027.26 1639.55 1044.86 1648.38 1061.46 L 1649.92 1061.53 C 1652.56 1059.65 1652.79 1059.86 1653.93 1056.94 L 1652.52 1055 C 1653.62 1050.42 1659.14 1046.25 1660.92 1041.99 C 1661.07 1039.83 1660.18 1029.94 1661.59 1028.65 C 1666.04 1024.57 1668.42 1024.53 1670.96 1018.49 C 1677.35 1019.43 1679.73 1029.17 1686.23 1033.44 C 1683.58 1028.63 1680 1023.15 1677.04 1018.4 C 1692.66 1030.18 1684.11 1033.92 1696.46 1040.28 C 1704.77 1058.99 1713.17 1071.92 1731.4 1080.86 C 1740.53 1071.25 1740.79 1064.88 1743.21 1052 C 1744.89 1050.58 1746.47 1050.19 1748.53 1049.52 C 1749.45 1040.38 1748.79 1034.63 1757.19 1030.59 C 1759.71 1026.76 1755.62 1020.17 1756.21 1018.63 C 1757.06 1016.38 1762.39 1011.33 1762.67 1007.03 L 1760.14 1004.42 L 1760.62 1002.61 C 1769.18 1000.71 1762.56 994.387 1765.48 989.611 C 1774.34 975.107 1781.32 969.082 1778.59 950.618 C 1778.46 949.725 1786.23 937.447 1787.15 935.895 C 1786.53 934.963 1785.91 934.031 1785.28 933.099 C 1787.85 925.592 1790.23 918.022 1792.42 910.397 C 1792.63 913.797 1792.09 913.959 1793.72 916.446 L 1795.32 915.475 C 1797.04 911.247 1796.89 910.172 1796.72 905.571 C 1800.21 906.296 1802.87 905.942 1806.42 905.758 L 1806.06 904.479 C 1803.18 903.972 1802.32 903.793 1799.55 902.869 L 1799.11 901.5 z" fill="rgb(0,0,0)" transform="translate(0,0)"></path>
<path d="M 360.272 958.404 L 363.188 960.816 C 379.083 960.703 382.365 964.535 390.586 975.694 C 393.876 980.16 395.239 976.354 399.151 976.309 C 402.196 981.598 399.947 980.203 400.815 986.502 C 400.815 986.504 404.52 991.277 404.52 991.278 C 402.549 1007.31 394.086 1028.66 393.364 1044.47 L 393.305 1045.95 C 382.795 1057.84 384.41 1072.32 377.928 1086.74 C 374.049 1095.38 377.602 1093.38 368.442 1096.34 C 367.597 1099.46 367.843 1099.05 367.862 1102.35 C 363.544 1108.15 348.609 1115.78 341.883 1120.64 C 341.42 1123.22 341.591 1123.53 340.186 1125.66 C 336.555 1124.9 333.86 1124.09 330.144 1124.33 C 329.386 1127.23 329.984 1126.3 328.025 1128.39 C 325.751 1128.84 313.153 1131.89 311.431 1130.5 C 308.787 1128.37 312.861 1128.43 308.1 1126.84 C 307.203 1128.32 306.626 1129.69 305.985 1131.29 C 302.438 1132.36 293.339 1135.4 290.202 1135.7 C 282.827 1136.41 276.123 1134.72 268.272 1135.5 C 266.32 1137.36 266.005 1137.58 263.729 1139.04 C 258.821 1138.61 258.89 1136.94 254.699 1134.38 C 242.805 1127.13 246.407 1144.83 233.286 1136.34 C 232.954 1129.42 227.716 1129.3 222.425 1124.44 C 215.363 1117.95 208.972 1110.83 203.704 1102.81 C 196.825 1092.33 193.982 1079.1 191.334 1067.1 C 182.317 1058.83 188.698 1058.46 190.994 1050.99 C 186.121 1047.66 186.858 1042.95 186.134 1037.23 C 186.189 1029.26 186.547 1008.37 187.543 999.263 C 188.81 998.162 190.077 997.061 191.344 995.96 C 190.301 987.645 190.342 974.856 194.073 966.872 C 198.672 965.709 200.261 966.199 201.637 961.631 C 213.318 959.72 227.69 972.506 234.484 981.206 C 233.638 990.932 240.798 988.897 241.395 994.205 C 239.886 994.8 238.367 995.371 236.841 995.92 C 235.824 999.606 235.151 1003.51 234.42 1007.28 C 240.161 1011.83 237.047 1011.75 234.816 1017.6 C 233.688 1020.56 232.144 1023 233.816 1026.27 C 236.545 1031.61 229.351 1037.16 230.769 1042.87 C 231.752 1057.87 231.314 1070.62 234.463 1085.57 C 237.67 1088.72 252.165 1095.3 256.129 1094.62 C 276.586 1091.09 297.149 1086.56 317.702 1082.77 C 320.288 1082.29 331.612 1072.78 334.331 1070.47 C 346.769 1059.1 350.895 1037.16 350.756 1020.96 C 350.673 1011.27 355.848 1011.93 353.693 1002.5 C 351.883 992.505 357.33 980.493 359.102 970.909 C 360.192 965.011 357.502 967.738 360.272 958.404 z" fill="rgb(0,0,0)" transform="translate(0,0)"></path>
<path d="M 1510.72 901.917 C 1516.56 902.431 1524.78 915.579 1529.13 919.882 C 1530.44 920.151 1531.75 920.42 1533.06 920.689 C 1541.76 927.143 1536.31 949.74 1538.93 959.533 C 1542.93 974.412 1551.28 989.916 1555.34 1004.58 C 1557.91 1013.85 1553.83 1019.48 1559.01 1031.73 C 1563.71 1033.05 1562.07 1030.87 1567.86 1030.83 C 1570.75 1033.08 1569.95 1036.59 1572.87 1040.97 C 1587.63 1042.6 1573.66 1058.29 1569.75 1065.03 C 1562.45 1076.44 1571.61 1079 1575.09 1090.52 C 1580.23 1107.49 1588.59 1123.63 1593.16 1141.09 C 1596.5 1153.88 1609.16 1157.06 1596.31 1174.05 C 1597.44 1172.55 1594.67 1177.58 1594.75 1177.46 C 1579.13 1181.26 1558.19 1127.14 1553.45 1114.62 C 1547.27 1104.51 1545.7 1097.83 1542.19 1086.91 C 1534.52 1083.16 1536.65 1078.01 1533.94 1069.38 C 1529.23 1066.68 1521.86 1071.12 1515.33 1072.4 C 1509.14 1065.63 1508.04 1072.28 1501.31 1070.04 C 1495.58 1068.13 1483.05 1063.93 1477.6 1068.53 C 1471.55 1073.63 1461.99 1098.17 1454.98 1101.06 L 1451.61 1099.05 C 1449.19 1099.83 1446.74 1100.53 1444.28 1101.13 C 1426.47 1105.43 1421.76 1095.12 1421.12 1080.41 C 1420.9 1075.45 1420.2 1076.47 1421.35 1070.63 C 1429.2 1064.26 1439.15 1053.46 1445.45 1045.54 C 1447.07 1043.51 1447.1 1036.07 1449.45 1032.05 C 1451.62 1032.11 1451.4 1032.13 1453.41 1031.89 C 1465.73 1011.1 1474.92 984.247 1488.63 963.21 C 1494.65 953.971 1494.98 922.383 1496.7 910.716 C 1500.81 906.442 1504.31 906.323 1509.89 902.496 L 1510.72 901.917 z" fill="rgb(0,0,0)" transform="translate(0,0)"></path>
<path d="M 1511.99 1018.08 C 1511.95 1018.61 1511.25 1020.49 1511.04 1021.09 L 1512.7 1022.54 C 1514.82 1021.77 1516.02 1021.29 1518.22 1020.82 C 1517.14 1025.43 1516.95 1024.68 1513.85 1027.95 L 1514.88 1028.96 L 1514.25 1029.86 L 1510.73 1030.01 C 1507.11 1028.14 1504.48 1027.1 1504.81 1022.68 C 1506.56 1019.81 1508.8 1019.38 1511.99 1018.08 z" fill="rgb(254,254,254)" transform="translate(0,0)"></path>
<path d="M 1032.3 903.698 C 1036.01 904.184 1051.75 909.059 1054.91 910.951 C 1056.05 913.686 1056.36 914.648 1057.98 917.178 C 1059.46 917.726 1063.96 919.322 1064.8 920.243 C 1074.1 930.436 1067.16 943.565 1069.14 954.975 C 1070.15 960.81 1078.65 969.623 1080.66 974.761 C 1081.49 976.866 1078.46 981.751 1078.93 984.946 C 1080.19 993.655 1081.6 1003.05 1083.14 1011.77 C 1084.39 1012.63 1085.64 1013.49 1086.9 1014.35 C 1088.16 1019 1086.54 1018.37 1089.6 1021.23 L 1090.78 1020.73 L 1089.04 1015.98 L 1089.69 1015.44 C 1093.07 1018.68 1099.76 1024.28 1102.21 1027.64 C 1111.14 1039.87 1107.23 1050.18 1103.91 1062.99 C 1103.31 1065.31 1110.73 1078.95 1109.73 1082.71 C 1108.92 1085.73 1112.7 1085.24 1114.86 1090.94 C 1112.06 1105.7 1124.01 1108.12 1122.2 1119.18 C 1119.78 1133.96 1132.65 1136.73 1133.67 1154.07 C 1117.73 1197.33 1085.79 1115.71 1081.17 1104.67 C 1074.41 1090.2 1076.36 1081.53 1068.24 1069.86 C 1060.2 1058.49 1047.43 1065.52 1037.17 1064.4 C 1021.61 1062.69 1020.93 1058.26 1007.98 1069.75 L 1010.55 1067.97 C 1004.4 1081.29 994.13 1097.08 981.707 1105.23 C 976.056 1101.41 963.233 1092.63 960.476 1086.81 C 959.041 1083.78 961.704 1075.01 957.494 1070.31 C 954.376 1070.38 953.756 1070.84 951.292 1069.49 C 954.55 1066.81 958.035 1069.2 959.732 1067.77 C 966.788 1061.81 964.44 1056.34 973.127 1054.04 C 974.603 1050.1 971.944 1047.77 972.026 1045.31 C 972.158 1041.35 976.855 1041.77 977.977 1036.36 L 975.033 1034.6 L 975.323 1032.92 L 978.841 1032.51 C 983.245 1027.98 979.457 1024.94 987.947 1020.47 L 993.585 1017.48 L 991.239 1013.65 C 991.76 1011.7 991.391 1012.14 992.502 1010.83 C 996.176 1006.51 1000.09 1002.72 1002.84 997.682 C 1010.61 983.422 1033.12 927.817 1027.7 912.872 C 1027.47 912.239 1027.2 911.622 1026.95 910.997 C 1027.44 907.662 1029.76 906.154 1032.3 903.698 z" fill="rgb(0,0,0)" transform="translate(0,0)"></path>
<path d="M 1042.24 1013.6 C 1045.54 1017.51 1048.08 1019.43 1048.05 1024.37 L 1044.87 1027.49 C 1042.09 1024.95 1040.83 1024.44 1038.46 1021.27 C 1038.62 1017.37 1039.53 1017.47 1042.24 1013.6 z" fill="rgb(254,254,254)" transform="translate(0,0)"></path>
<metadata><recraft-signature>{"signed_by": "recraft", "signature_b64": "8MliIamKg0aOMaK5fMTkYsQISr30uXnis9Eydqbq0VYOlX1VF6eIQE/mS7bquyVdNYaKW9yUhMnEPNgEOBzSAA==", "signing_algo": "Ed25519", "generation_timestamp": 1776309910, "identifier": "d220270f-f8e5-4615-9bff-8ab515563fb5"}</recraft-signature></metadata></svg>