<svg xmlns="http://www.w3.org/2000/svg" height="1024" preserveAspectRatio="none" style="display: block;" version="1.1" viewBox="0 0 2048 2048" width="1024">
<path d="M 0 0 L 2048 0 L 2048 2048 L 0 2048 L 0 0 z" fill="rgb(255,255,255)" transform="translate(0,0)"></path>
<path d="M 175.387 271.761 C 188.286 274.479 190.335 283.618 194.96 294.536 C 207.993 325.304 211.54 359.441 215.177 392.379 C 217.659 414.854 220.076 437.711 220.3 460.348 C 218.494 553.894 194.606 644.851 187.288 737.907 C 186.176 752.007 186.994 766.302 185.756 780.035 C 182.73 813.595 175.511 846.99 176.053 880.772 C 177.045 925.797 173.966 970.526 173.053 1015.5 C 172.878 1024.14 174.284 1034.03 176.312 1042.45 C 185.695 1074.7 180.873 1108.56 185.965 1141.5 C 190.173 1167.57 198.947 1192.33 203.764 1218.67 C 208.872 1203.83 217.335 1186.02 221.596 1171.54 C 227.683 1150.84 232.709 1126.44 237.513 1105.22 C 244.967 1073.45 251.853 1041.54 258.169 1009.52 C 262.692 985.771 266.405 961.538 270.53 937.653 C 277.106 899.583 285.988 860.974 290.53 822.652 C 294.591 788.394 296.647 753.912 300.727 719.496 C 306.097 674.199 312.175 629.168 319.987 584.032 C 328.452 535.414 335.57 486.085 353.203 439.796 C 359.662 422.84 393.471 344.254 417.062 354.937 C 417.715 355.727 419.847 358.218 419.687 359.076 C 415.971 374.972 406.389 390.459 399.723 405.726 C 390.13 427.152 389.272 452.158 385.793 475.423 C 380.367 511.713 383.947 549.856 380.81 586.484 C 378.831 609.603 375.392 632.278 374.877 655.452 C 397.585 655.837 425.033 646.527 445.552 636.999 C 485.017 618.674 525.859 603.317 563.82 581.958 C 576.995 574.545 588.543 563.798 601.995 556.797 C 609.697 552.604 619.922 549.674 627.362 545.429 C 659.06 527.344 693.318 519.748 726.769 506.342 C 740.368 502.197 757.4 484.957 769.946 481.161 C 790.497 474.942 811.209 475.399 832.782 467.897 C 876.348 452.77 918.702 434.111 960.625 414.849 C 999.882 396.811 1045.15 384.298 1074.2 350.579 C 1081.51 342.099 1087.33 328.875 1096.77 323.269 C 1100.85 323.056 1099.12 322.501 1102.26 324.536 C 1108.33 334.015 1099.69 354.443 1096.09 364.781 C 1079.56 413.638 1049.94 457.024 1010.46 490.219 C 989.996 507.442 964.617 522.146 942.6 538.728 C 941.323 537.241 940.028 535.769 938.715 534.312 C 916.585 525.198 916.588 552.02 910.582 558.258 L 909.394 557.582 C 906.786 550.417 913.005 546.227 906.839 540.171 C 890.304 536.129 891.194 600.628 890.602 609.397 C 884.4 598.944 883.031 590.987 881.901 579.207 C 881.36 573.565 881.283 562.679 877.621 558.645 C 872.504 562.784 870.745 572.677 865.528 574.89 L 863.822 573.736 C 861.481 568.941 861.294 564.572 860.577 559.254 C 849.874 563.078 840.169 566.447 830.533 572.667 C 816.906 581.463 808.001 589.994 792.871 596.439 C 790.225 594.307 786.349 590.108 783.848 587.56 C 780.979 614.329 772.243 639.637 769.605 665.851 C 757.856 781.315 745.652 896.027 748.949 1012.34 C 750.135 1054.2 748.165 1095.48 751.699 1137.67 C 753.97 1164.79 751.605 1195.98 753.249 1223.55 C 754.153 1238.71 746.906 1256.7 746.107 1272 C 744.479 1306.55 745.333 1338.09 737.143 1372.26 C 734.787 1382.09 744.67 1443.24 724.56 1440.61 C 719.65 1415.19 718.414 1389.06 715.273 1363.51 C 713.433 1348.55 709.179 1328.99 705.478 1314.41 C 702.231 1329.81 701.714 1344.67 701.283 1360.29 C 701.129 1365.86 701.219 1376.59 695.734 1379.28 C 688.533 1375.19 689.091 1343.14 686.7 1333.33 C 681.105 1310.38 682.007 1278.92 676.592 1256.64 C 668.729 1224.29 664.059 1199.92 667.956 1166.41 C 672.258 1105.68 673.646 1044.51 674.191 983.585 C 674.51 947.933 678.484 912.317 681.239 876.756 C 684.933 844.854 685.942 812.479 688.712 780.669 C 692.517 740.13 695.649 700.064 694.064 659.297 C 693.734 650.795 695.665 623.653 688.344 619.539 C 673.689 619.816 650.162 648.459 638.076 658.589 L 636.888 659.576 C 642.827 647.373 655.441 633.088 664.747 623.139 C 642.521 630.272 626.994 633.812 604.424 638.652 C 591.505 642.292 578.826 646.453 565.733 649.487 C 552.722 652.501 535.721 651.595 523.308 656.083 C 498.711 664.978 474.965 677.394 451.016 688.078 C 458.557 680.74 467.816 672.53 473.678 664.011 C 460.545 667.448 437.946 673.997 425.295 675.499 C 411.083 677.186 390.045 677.516 375.233 678.209 C 372.046 724.533 364.935 768.798 362.785 816.849 C 390.077 783.568 424.553 752.145 463.1 732.203 C 473.189 727.647 484.224 725.102 494.592 721.25 C 512.036 714.769 527.568 704.1 544.383 696.598 C 555.391 691.687 570.352 690.36 581.426 695.99 C 614.215 712.662 628.427 752.715 643.173 784.012 C 670.713 856.009 622.883 960.037 585.278 1023.11 C 573.25 1043.28 555.731 1060.41 543.709 1082.1 C 533.086 1101.26 536.787 1118.15 529.891 1133.77 L 528.707 1133.61 C 526.511 1124.28 526.771 1110.6 524.537 1099.31 C 507.917 1124.7 486.302 1141.81 477.771 1172.55 C 475.171 1181.92 469.575 1192.77 468.784 1202.69 C 466.771 1227.93 466.757 1253.35 464.301 1278.57 C 463.967 1281.98 463.006 1283.57 460.516 1285.33 L 457.761 1284.61 C 447.51 1275.56 451.979 1208.34 449.623 1193.79 C 448.882 1189.22 444.948 1186.59 441.297 1184.19 L 440.187 1183.48 C 439.253 1179.42 438.119 1175.43 437.016 1171.41 C 430.266 1176 428.958 1175.32 421.933 1177.37 C 420.032 1177.93 419.731 1188.84 412.394 1188.17 C 408.415 1184.73 407.714 1181.26 407.661 1175.86 C 407.525 1162.02 408.253 1123.49 413.625 1112.22 C 420.746 1097.27 427.485 1091.31 430.599 1072.62 C 436.077 1039.74 436.92 1006.1 439.841 973.168 C 444.671 918.711 448.653 880.137 443.733 825.366 C 426.742 833.951 403.939 846.956 386.334 854.201 C 379.683 856.938 373.961 841.746 366.895 841.97 C 362.203 845.871 360.635 855.307 360.654 861.393 C 360.876 930.341 355.863 1003.06 363.885 1071.44 C 368.492 1110.72 360.535 1142.45 366.494 1181.13 C 368.56 1194.54 371.296 1207.28 373.35 1220.64 C 383.429 1285.37 414.726 1351.12 450.535 1405.48 C 456.954 1413.52 463.91 1421.45 470.896 1429.01 C 512.424 1473.97 458.932 1461.48 431.326 1448.2 C 357.127 1412.5 316.123 1342.95 289.908 1268.01 C 280.717 1290.99 276.637 1314.65 264.879 1339.03 C 254.529 1359.55 241.617 1373 237.293 1396.05 C 234.57 1410.56 248.913 1493.14 230.612 1493.78 C 216.563 1485.08 221.546 1395.15 206.464 1378.06 C 203.207 1383.12 206.938 1395.13 202.285 1401.88 L 200.169 1402.21 C 188.377 1394.24 188.15 1369.24 180.499 1359.62 C 167.534 1343.31 154.244 1330.66 141.879 1313.21 C 143.611 1322.23 147.856 1342.97 140.734 1350.2 L 138.759 1349.83 C 127.833 1337.4 116.02 1238.83 107.195 1217.6 C 104.186 1210.36 93.3946 1173.56 92.9655 1166 C 89.1033 1097.98 86.2398 1028.73 85.4981 960.58 C 85.3761 932.163 94.3391 897.645 97.1519 869.276 C 108.784 751.956 136.248 637.719 151.792 521.017 C 160.672 455.514 182.246 390.43 177.137 323.512 C 176.112 310.082 165.701 281.251 175.387 271.761 z" fill="rgb(0,0,0)" transform="translate(0,0)"></path>
<path d="M 559.097 717.133 C 561.704 717.015 564.422 716.82 567.026 717.009 C 575.76 717.643 583.171 721.527 588.692 728.309 C 593.88 734.681 596.148 742.63 600.517 749.493 C 604.604 755.915 609.943 761.488 614 768.016 C 628.679 791.641 631.832 817.46 629.09 844.73 C 627.189 863.626 621.049 880.148 614.614 897.821 C 609.618 911.541 605.031 925.715 599.071 939.034 C 584.761 971.011 561.03 1008.82 538.159 1034.99 C 528.575 1045.96 512.927 1051.4 504.362 1062.49 C 500.18 1067.91 498.813 1075.21 494.866 1080.84 C 487.923 1090.75 478.038 1098.76 470.414 1108.19 C 465.221 1114.62 461.047 1124.69 454.878 1129.77 C 454.683 1127.43 454.616 1125.1 454.557 1122.75 C 451.295 1121.66 450.742 1126.24 447.622 1126.41 C 450.123 1118.56 452.55 1110.74 454.598 1102.76 C 457.896 1084.73 455.096 1067.29 457.062 1049.35 C 458.75 1033.95 461.341 1018.62 462.709 1003.18 C 464.076 987.755 464.064 972.081 465.893 956.718 C 468.278 936.689 473.408 917.454 474.033 897.144 C 474.862 870.22 470.493 843.562 470.939 816.781 C 471.178 802.405 474.844 787.166 476.638 772.813 C 454.398 780.657 422.389 800.762 402.271 814.044 C 403.457 811.356 404.637 808.621 406.007 806.02 C 412.533 793.635 461.459 761.545 475.836 754.334 C 487.567 748.45 500.431 744.992 512.178 739.099 C 528.087 731.119 541.686 722.109 559.097 717.133 z" fill="rgb(255,255,255)" transform="translate(0,0)"></path>
<path d="M 560.104 737.27 C 566.606 737.387 573.176 738.428 578.801 741.878 C 593.496 750.889 602.741 777.749 606.388 793.888 C 614.168 828.315 605.555 857.361 594.117 889.555 C 589.491 902.577 586.119 916.441 580.427 929.019 C 574.452 942.224 566.595 954.698 559.268 967.191 C 539.987 1000.07 518.858 1031.55 498.421 1063.7 C 490.454 1074.16 483.185 1082.28 471.654 1088.82 C 474.383 1060.64 472.636 1031.88 474.49 1003.53 C 476.642 970.608 482.246 938.09 484.154 905.039 C 485.872 875.284 482.376 788.442 497.115 766.502 C 517.711 756.826 537.256 740.622 560.104 737.27 z" fill="rgb(0,0,0)" transform="translate(0,0)"></path>
<path d="M 555.898 766.139 C 558.941 766.002 561.762 765.853 564.436 767.542 C 573.6 773.332 578.902 790.502 581.464 800.63 C 585.29 815.757 585.347 830.916 581.971 846.133 C 573.346 885.016 529.597 954.662 507.959 990.549 L 494.846 1011.69 C 497.214 981.301 499.141 950.88 500.628 920.436 C 502.023 885.527 501.33 849.349 509.118 815.117 C 511.564 804.365 516.57 793.927 519.91 783.387 C 532.365 778.13 542.707 770.057 555.898 766.139 z" fill="rgb(255,255,255)" transform="translate(0,0)"></path>
<path d="M 189.612 458.974 C 192.138 490.729 184.542 535.278 180.902 567.746 C 174.314 626.516 169.022 685.502 158.652 743.724 C 155.11 763.612 157.683 783.023 156.434 802.985 C 150.308 855.852 143.857 908.599 141.217 961.809 C 140.274 987.26 144.867 1012.47 145.699 1037.88 C 148.06 1109.99 150.748 1179.51 178.251 1247.38 C 190.877 1279.48 217.226 1279.55 235.544 1251.28 C 258.81 1218.01 262.938 1177.79 274.178 1141.14 C 289.011 1092.76 289.43 1056.48 294.464 1007.77 C 298.749 966.301 316.489 921.918 316.808 878.488 C 316.994 853.258 324.156 825.26 325.779 799.927 C 332.493 732.949 333.925 665.41 341.733 598.605 C 344.647 573.347 351.976 555.796 358.623 532.125 L 360.278 532.387 C 357.619 548.943 358.621 583.352 358.03 601.881 C 356.916 636.776 356.1 672.232 352.941 707.05 L 339.574 842.833 C 334.714 888.021 328.724 934.407 326.882 978.431 C 321.649 1103.53 321.489 1225.67 376.62 1341.06 C 383.437 1355.33 387.784 1372.34 395.545 1388.25 C 348.133 1337.01 329.956 1263.07 318.557 1196.34 C 314.765 1174.15 309.998 1154.04 308.356 1131.41 C 306.116 1100.54 311.11 1062.83 309.309 1033.02 L 309.213 1031.54 C 301.565 1061.5 304.616 1094.01 298.882 1124.79 C 296.823 1139.91 288.055 1154.78 284.526 1169.11 C 274.001 1211.87 264.015 1254.52 240.242 1292.36 C 233.647 1302.86 226.995 1317.22 211.527 1313.34 C 191.935 1308.42 178.756 1289.86 167.992 1273.97 C 149.732 1240.92 140.48 1190.86 133.406 1153.7 C 129.15 1131.34 129.568 1102.47 128.066 1080.15 C 124.766 1031.11 123.058 982.167 126.945 933.278 C 127.953 894.251 140.269 854.663 142.65 816.242 C 147.101 744.439 156.004 673.449 165.849 602.205 C 168.844 580.532 168.424 553.014 172.969 532.338 C 178.333 507.935 184.198 483.504 189.612 458.974 z" fill="rgb(255,255,255)" transform="translate(0,0)"></path>
<path d="M 1048.82 403.038 L 1049.33 403.563 C 1048.61 407.095 1044.44 411.639 1042.14 414.622 C 1020.26 443.033 981.831 459.191 948.752 469.828 C 954.641 472.72 963.977 476.151 970.276 478.685 C 960.777 483.392 945.495 490.297 935.494 492.67 C 923.085 495.615 911.619 496.49 899.014 500.673 C 888.755 504.079 876.147 512.383 866.442 514.643 C 854.476 517.428 840.105 514.449 827.467 518.913 C 814.637 523.264 803.849 533.511 791.952 539.432 C 775.153 547.794 762.703 544.629 758.031 566.336 C 755.098 578.328 755.448 590.898 754.164 603.143 C 749.448 648.118 747.662 692.932 747.628 738.117 C 747.622 745.207 744.885 758.445 743.227 765.778 C 729.314 827.303 729.981 890.456 724.16 952.965 C 722.938 966.072 722.171 979.295 721.191 992.465 C 718.43 1029.55 720.17 1066.43 720.779 1103.55 C 721.07 1146.12 720.127 1189.89 715.582 1232.28 C 709.257 1208.2 709.952 1187.75 708.062 1163.66 C 704.21 1114.57 704.763 1066.7 704.465 1017.51 C 705.238 957.1 702.398 895.907 707.475 835.766 C 709.294 814.216 716.668 789.036 720.083 766.662 C 724.719 736.283 727.141 707.644 729.376 676.863 C 731.596 644.927 736.353 611.786 733.238 579.822 C 731.832 565.387 719.729 561.682 707.244 564.493 C 694.234 567.423 683.553 573.458 671.078 577.827 C 657.99 582.41 643.97 585.312 630.878 590.013 C 602.973 602.267 579.148 611.874 549.162 618.563 C 575.136 605.743 599.488 591.171 625.028 577.884 C 636.199 572.073 656.636 566.448 669.104 562.063 C 687.317 555.701 705.225 548.496 722.769 540.471 C 751.956 527.256 780.175 510.839 809.683 498.332 C 826.334 491.274 845.67 492.234 862.055 486.91 C 873.683 483.132 885.877 472.572 898.516 467.32 C 946.608 447.334 1006.18 432.799 1048.82 403.038 z" fill="rgb(255,255,255)" transform="translate(0,0)"></path>
<path d="M 358.623 532.125 C 359.45 525.437 360.483 515.265 362.509 509.109 C 362.727 513.995 361.571 527.689 360.278 532.387 L 358.623 532.125 z" fill="rgb(83,81,84)" transform="translate(0,0)"></path>
<path d="M 1395.89 420.275 C 1413.37 418.884 1436.04 421.263 1452.11 429.905 C 1488.89 449.689 1520.97 516.558 1533.89 554.697 C 1536.73 563.091 1537.42 571.905 1535.19 580.314 C 1529.38 602.163 1516.07 624.003 1505.28 644.116 C 1496.84 659.839 1488.7 677.265 1480 692.405 C 1458.65 729.568 1433.64 768.216 1407.06 801.9 C 1398.12 813.234 1382.16 827.921 1372.1 838.773 C 1362.06 849.594 1341.08 866.658 1335.16 879.707 C 1328.44 894.512 1328.77 926.77 1327.45 944.172 C 1325.07 975.5 1322.26 1006.43 1321.47 1037.76 C 1320.75 1066.49 1320.8 1095.37 1319.39 1124.06 C 1318.62 1139.69 1310.84 1152.5 1308.22 1167.17 C 1306.83 1174.97 1310.03 1188.1 1307.85 1197.09 C 1305.96 1204.9 1300.97 1215.42 1300.86 1223.03 C 1300.52 1243.1 1303.46 1262.9 1304.24 1282.95 C 1305.49 1314.59 1307.41 1346.62 1310.58 1378.11 C 1311.77 1389.9 1327.49 1401.34 1333.54 1411.16 C 1338.41 1419.06 1341.01 1427.49 1344.08 1436.24 C 1343.07 1416.16 1344.75 1395.49 1344.66 1375.6 C 1344.31 1295.59 1352.14 1223.66 1379.39 1147.78 C 1384.98 1132.21 1393.83 1109.3 1403.88 1096.55 C 1384.6 1178.93 1376.61 1254.11 1377.55 1338.85 C 1378 1379.88 1376.58 1420.31 1380.76 1461.4 C 1383.89 1432.97 1396.73 1388.42 1403.72 1359.56 C 1419.38 1294.98 1443.08 1183.05 1483.01 1129.38 C 1482.21 1139.5 1479.49 1152.64 1477.8 1163.01 L 1469.14 1218.15 C 1458.85 1285.49 1452.43 1376.07 1464.5 1442.64 C 1483.29 1400.38 1555.6 1302.66 1595.99 1280.4 L 1597.33 1281.24 C 1597.69 1286.13 1583.37 1305.97 1579.65 1312.67 C 1549.26 1367.53 1523.5 1422.45 1507.93 1483.48 C 1500.67 1511.95 1488.78 1539.73 1485.24 1569.55 C 1479.19 1613.14 1473.89 1656.71 1471.92 1700.71 C 1471.67 1705.11 1469.62 1710.33 1466.7 1713.75 C 1463.27 1715.08 1464.96 1715.04 1461.47 1713.91 C 1452.17 1703.76 1454.09 1674.8 1447.94 1656.36 C 1446.3 1661.41 1444.62 1671.06 1438.27 1670.06 C 1432.17 1663.23 1418.8 1605.06 1416.69 1593.03 C 1409.72 1553.22 1404.25 1510.31 1400.39 1470.05 C 1388.2 1516.5 1379.01 1566.27 1379.47 1614.37 C 1379.55 1623.14 1383.99 1648 1380.42 1654.37 L 1378.4 1654.79 C 1371.94 1651.44 1371.41 1644.36 1369.78 1638.35 C 1356.5 1589.11 1347.58 1540.75 1343.75 1489.82 C 1342.96 1479.38 1342.23 1468.72 1338.57 1458.78 C 1336.2 1452.36 1321.25 1432.81 1314.19 1436.53 C 1313.08 1440.23 1317.43 1464.99 1317.88 1471.5 C 1321.35 1521.6 1320.67 1573.03 1326.77 1622.88 C 1328.44 1635.99 1330.52 1649.05 1333.02 1662.03 C 1334.57 1669.79 1341.29 1691.11 1336.4 1696.92 C 1322.04 1696.83 1291.17 1603.08 1286.35 1587.75 C 1280.22 1568.28 1276.8 1544.21 1271.91 1523.98 C 1265.73 1498.39 1260.11 1472.45 1256.18 1446.48 C 1244.67 1452.18 1209.21 1475.53 1204.01 1487.07 C 1191.14 1515.6 1186.8 1552.13 1187.89 1583.13 C 1188.23 1592.75 1196.46 1616.01 1188.49 1622.71 C 1178.94 1621.77 1174.4 1600.25 1170.41 1591.94 C 1156.7 1563.33 1138.15 1539.02 1121.76 1512.39 C 1128.11 1530.6 1152 1591.95 1148.94 1607.99 C 1148.46 1610.51 1147.86 1611.33 1145.72 1612.6 C 1141.09 1611.04 1140.17 1608.51 1137.37 1603.61 C 1127.2 1585.86 1118.48 1567.15 1108.71 1549.09 C 1091.71 1517.43 1073.14 1486.63 1053.07 1456.82 C 1044.22 1443.26 1013.11 1402.52 997.945 1398.96 C 992.966 1400.04 993.699 1403.94 993.455 1408.44 C 991.208 1449.82 990.847 1490.64 982.584 1531.47 C 975.118 1568.36 961.94 1603.94 957.284 1641.5 C 954.273 1665.79 958.507 1742.05 946.753 1756.98 C 945.24 1758.91 944.924 1758.98 942.631 1759.22 C 935.305 1753.77 934.538 1729.67 933.285 1719.64 C 925.728 1658.02 922.316 1595.96 923.074 1533.88 C 923.667 1501.64 927.812 1469.74 930.197 1437.64 C 930.413 1434.73 930.216 1431.67 928.908 1429.02 C 915.06 1424.28 881.23 1449.67 870.781 1445.84 C 870.452 1435.86 916.316 1401.33 925.16 1391.84 C 931.341 1385.2 933.601 1383.8 939.654 1375.38 C 939.643 1363.45 945.242 1323.46 940.275 1316.15 C 924.476 1292.9 832.686 1371.72 818.469 1369.34 C 814.424 1361.3 848.545 1330.04 855.525 1322.18 C 890.718 1282.51 926.823 1243.65 963.411 1205.34 C 968.503 1200.01 964.852 1184.41 974.955 1177.83 C 982.044 1176.42 988.883 1182.1 995.976 1185.88 C 1006.07 1183.86 1019.96 1178.08 1029.9 1174.09 C 1072.26 1157.06 1110.65 1134.54 1157.48 1131.1 C 1166.7 1130.53 1176.6 1132.52 1183.41 1139.13 C 1200.51 1155.76 1189.86 1180.6 1182.59 1199.11 C 1159.38 1258.12 1116.08 1311.79 1071.97 1356.57 C 1089.71 1372.01 1098.14 1391.81 1109.24 1412.04 C 1121.42 1434.22 1132.93 1456.58 1143.53 1479.56 C 1149.28 1492.03 1156.63 1503.97 1161.48 1516.83 C 1163.73 1503.13 1166.18 1487.36 1167.52 1473.63 C 1160.35 1468.25 1150.85 1455.79 1159.6 1447.99 L 1162.03 1448.23 C 1167.89 1452.49 1168.5 1458.68 1170.43 1465.8 C 1174.5 1453.8 1177.78 1432.96 1181.97 1418.44 L 1226.53 1267.6 C 1233.64 1243.23 1245.97 1216.7 1252.23 1194.17 C 1249.7 1185.33 1243.76 1173.62 1242.5 1164.4 C 1238.82 1137.29 1239.87 1107.32 1239.71 1079.84 C 1239.49 1043.43 1238.89 1007.38 1239.8 971.045 C 1240.28 951.543 1244.73 929.041 1242.82 910.438 C 1232.82 914.09 1223.05 917.874 1213.26 921.963 C 1206.14 924.937 1183.82 938.551 1177.9 936.831 C 1177.69 936.187 1177.23 935.574 1177.27 934.898 C 1177.79 926.528 1243.98 833.722 1253.42 814.238 C 1262.33 795.848 1266.49 614.49 1264.76 586.654 C 1256.19 594.026 1247.48 601.229 1238.63 608.258 L 1237.02 595.934 C 1217.56 610.073 1204.56 619.011 1186.85 635.586 C 1185.23 628.767 1183.22 624.073 1179.84 618.04 C 1172.3 626.305 1156.51 654.973 1154.13 665.945 C 1151.38 678.66 1149.15 700.548 1147.31 714.472 C 1142.6 751.726 1138.98 789.109 1136.45 826.575 C 1133.73 861.735 1131.24 894.699 1130.56 930.15 C 1129.95 961.848 1131.6 995.53 1130.13 1026.99 C 1129.23 1046.3 1123.79 1069.93 1120.59 1089.05 C 1119.57 1095.2 1109.1 1108.97 1108.58 1116.59 C 1108.41 1118 1107.58 1119.27 1106.53 1120.24 L 1104.43 1119.84 C 1097.99 1114.57 1094.36 1105.11 1090.79 1097.52 C 1086.38 1104.82 1080.09 1120.77 1073.53 1124.19 C 1062.02 1122.74 1060.42 1084.82 1059.11 1075 C 1056.8 1057.64 1055.04 1040.09 1056.44 1022.58 C 1059.46 984.938 1062 947.09 1065.94 909.529 C 1068.72 883.011 1073.29 856.584 1074.76 829.913 C 1076.56 800.906 1075.01 772.254 1075.46 743.286 C 1076.12 712.524 1078.73 681.834 1083.28 651.404 C 1085.93 633.484 1089.06 615.64 1092.68 597.892 C 1096.38 580.208 1123.1 464.527 1130.06 459.354 C 1137.68 459.656 1141.24 473.162 1143.08 479.444 C 1157.21 527.62 1144.93 576.223 1151.78 625.389 C 1159.32 582.392 1186.32 564.79 1216.02 537.025 C 1240.93 513.73 1263.38 487.85 1294.37 472.474 C 1308.03 465.7 1321.6 457.283 1335.25 450.395 C 1355.01 440.428 1374.18 425.361 1395.89 420.275 z" fill="rgb(0,0,0)" transform="translate(0,0)"></path>
<path d="M 1401.27 455.14 C 1454.39 451.662 1462.1 472.973 1487.7 513.132 C 1506.39 542.452 1498.87 541.685 1501.21 574.757 C 1502.04 586.788 1500.14 598.85 1495.64 610.038 C 1481.4 646.222 1440.53 690.156 1415.63 720.848 C 1398.85 741.541 1389.74 736.945 1392.71 769.505 C 1389.44 775.391 1388.7 776.514 1384.21 781.707 C 1382.28 778.829 1380.29 774.997 1378.57 771.916 C 1370.58 781.375 1370.57 777.598 1362.96 783.397 C 1360.36 785.379 1350.75 796.722 1347.52 799.421 C 1339.13 806.436 1312.88 833.181 1308.18 842.139 C 1295.49 866.327 1300.43 918.614 1297 947.021 C 1295.49 959.516 1293.5 971.617 1291.73 983.507 C 1287.43 1012.29 1282.81 1055 1272.65 1081.86 C 1273.05 1071.39 1274.16 1061.13 1274.02 1050.5 C 1273.71 1027.46 1272.33 1004.81 1273.06 981.75 C 1273.61 956.177 1280.29 931.194 1287.43 906.896 C 1290.96 894.876 1292.14 881.15 1293.06 868.675 C 1277.83 872.515 1268.28 873.06 1250.8 878.367 C 1264.43 865.544 1274.12 856.803 1286.86 842.547 C 1285.67 829.442 1285.98 813.631 1285.87 800.119 C 1285.36 752.368 1289.03 704.372 1292.05 656.84 C 1293.3 637.234 1306.16 550.018 1293.42 535.982 C 1288.19 534.646 1283.89 540.706 1278.83 538.465 L 1280.76 534.349 L 1279.78 533.243 C 1269.04 533.812 1237.43 554.073 1227.3 561.264 C 1219.22 567 1207.17 578.751 1198.66 583.743 L 1198.97 582.479 C 1210.41 570.117 1257.57 528.588 1271.1 519.712 C 1298.73 501.585 1370.54 462.733 1401.27 455.14 z" fill="rgb(255,255,255)" transform="translate(0,0)"></path>
<path d="M 1408.64 479.208 C 1413.42 479.01 1418.27 479.351 1423.04 479.641 C 1445.63 481.01 1459.72 495.51 1473.87 511.533 L 1455.31 510.869 C 1465.64 527.035 1477 543.813 1483.28 562.026 C 1472.67 613.33 1415.31 693.411 1381.3 733.419 C 1378.6 736.603 1375.04 744.759 1373.5 746.144 C 1364.79 753.989 1356.16 762.489 1347.25 770.062 C 1341.37 774.482 1337.29 775.954 1330.63 778.438 C 1323.85 798.296 1320.31 807.391 1305.26 822.277 C 1304.81 806.418 1306.01 793.558 1306.31 778.061 C 1307.04 739.397 1309.62 701.369 1312.53 662.811 C 1315.7 620.836 1315.3 573.611 1321.16 532.31 C 1330.73 523.181 1338.26 513.512 1347.54 504.346 C 1360.2 491.839 1375.61 489.848 1391.68 484.793 C 1398.18 482.747 1401.55 480.944 1408.64 479.208 z" fill="rgb(0,0,0)" transform="translate(0,0)"></path>
<path d="M 1416.7 523.109 C 1432.08 536.013 1427.73 550.925 1450.26 561.913 C 1441.82 588.793 1422.55 613.235 1407.26 636.642 C 1395.17 655.139 1383.35 674.548 1369.72 691.945 C 1361.91 701.924 1353.15 710.895 1344.31 719.957 C 1339.56 724.881 1335.01 730.013 1330.42 735.086 C 1332.74 697.455 1333.56 590.416 1351.9 559.681 C 1356.3 552.307 1372.91 538.548 1379.77 530.685 C 1380.48 534.376 1380.94 538.129 1381.47 541.85 C 1393.39 535.923 1405.03 529.489 1416.7 523.109 z" fill="rgb(255,255,255)" transform="translate(0,0)"></path>
<path d="M 1125.98 559.648 C 1127.69 565.678 1127.45 606.894 1128.02 617.235 C 1129.19 638.429 1135.24 660.984 1134.21 682.015 C 1133.47 697.065 1123.44 710.556 1122.1 726.077 C 1120.14 748.752 1120.47 771.697 1118.73 794.439 C 1116.38 825.319 1112.13 855.977 1110.29 886.911 C 1107.33 936.776 1109.41 988.68 1094.28 1036.73 L 1093.27 1038.5 L 1092.23 1037.23 C 1086.34 1008.25 1089.3 976.673 1090.69 947.284 L 1094.71 860.956 C 1095.97 828.515 1094.67 795.937 1095.34 763.466 C 1096.66 714.009 1101.03 664.68 1108.45 615.763 C 1111.61 596.133 1120.51 578.651 1125.98 559.648 z" fill="rgb(255,255,255)" transform="translate(0,0)"></path>
<path d="M 1146.88 1156.25 C 1148.66 1156.11 1150.8 1155.81 1152.56 1156.07 C 1155.3 1156.48 1157.08 1157.99 1158.61 1160.21 C 1161.61 1164.55 1160.48 1172.58 1159.65 1177.44 C 1151.77 1223.47 1107.55 1269.78 1075.48 1301.79 C 1064.37 1312.89 1052.76 1325.06 1039.87 1334.03 C 1053.55 1317.23 1066.31 1299.76 1079.47 1282.55 C 1101.64 1253.56 1126.13 1226.11 1140.41 1192.07 C 1142.77 1186.43 1145.67 1180.63 1145.27 1174.38 C 1143.85 1171.91 1143.58 1171.39 1140.67 1170.52 C 1135.32 1168.93 1126.3 1171.79 1121.04 1173.28 C 1076.99 1185.7 1035.52 1210.91 996.815 1234.68 C 992.462 1246.47 991.132 1259.99 989.091 1272.39 C 982.661 1311.43 978.538 1350.21 975.871 1389.67 C 974.031 1415.89 970.087 1441.61 966.257 1467.58 C 963.839 1483.99 962.404 1502.47 956.694 1518.08 C 957.278 1504.21 958.934 1490.3 959.769 1476.42 C 961.081 1452.11 961.772 1427.77 961.84 1403.42 C 956.015 1404.1 950.201 1404.99 944.39 1405.79 C 949.874 1397.03 960.287 1389.04 963.493 1379.25 C 966.591 1369.79 965.524 1353.45 966.629 1342.89 C 968.812 1321.89 971.754 1300.98 975.448 1280.2 C 976.6 1273.39 981.229 1257.53 978.03 1251.48 C 971.975 1252.02 960.201 1268.78 954.365 1273.48 C 944.107 1281.74 931.723 1287.42 920.111 1293.51 C 936.679 1277.21 964.343 1256.24 975.676 1236.41 C 980.617 1227.77 979.517 1215.83 985.759 1207.61 C 987.697 1207.03 988.527 1206.72 990.341 1208.11 C 995.234 1211.87 996.442 1221.91 997.541 1227.63 C 1010.53 1220.84 1022.21 1211.22 1034.61 1203.37 C 1068.96 1181.17 1106.97 1165.22 1146.88 1156.25 z" fill="rgb(255,255,255)" transform="translate(0,0)"></path>
<path d="M 1102.84 1211.22 L 1103.51 1212.63 C 1096.44 1225.6 1084.14 1238.56 1074.51 1249.82 L 1032.26 1298.78 C 1022.02 1310.53 1011.34 1322.05 1002.11 1334.61 L 1001.71 1334.35 C 998.742 1327.34 1006.69 1270.99 1008.44 1260.26 C 1037.3 1236.89 1067.74 1222.56 1102.84 1211.22 z" fill="rgb(255,255,255)" transform="translate(0,0)"></path>
<path d="M 1255.2 1287.7 C 1260.08 1311 1222.1 1383.59 1229.95 1405.71 C 1230.44 1407.1 1230.95 1408.45 1232.48 1408.81 C 1235.77 1409.58 1239.92 1408.25 1243 1407.12 C 1250.8 1404.27 1258.12 1399.58 1265.6 1395.96 C 1274.99 1391.42 1284.58 1387.49 1293.92 1382.8 C 1298.17 1386.43 1301.25 1389.79 1304.47 1394.35 C 1299.31 1395.36 1292.23 1395.89 1288.44 1399.84 C 1286.47 1401.89 1287.37 1406.24 1287.64 1408.92 C 1288.67 1419.51 1291.14 1430.09 1292.85 1440.59 C 1296.64 1463.87 1299.87 1487.81 1299.7 1511.42 L 1298.71 1516.69 C 1292.24 1507.64 1286.81 1422.31 1277.54 1409.01 C 1275.63 1406.27 1273.22 1404.73 1269.88 1404.19 C 1256.72 1402.07 1227.36 1423.67 1216.38 1431 C 1219.11 1405.2 1227.82 1379.07 1234.35 1354.04 C 1238.73 1337.3 1241.89 1319.81 1247.48 1303.46 C 1249.43 1297.77 1251.7 1292.64 1255.2 1287.7 z" fill="rgb(255,255,255)" transform="translate(0,0)"></path>
<path d="M 1433.47 1319.74 C 1435.47 1335.48 1432.56 1356.95 1432.74 1373.52 C 1433.08 1405.55 1438.97 1527.99 1450.65 1553.97 C 1454.63 1530.11 1459.29 1499.1 1472.78 1478.82 C 1471.44 1489.24 1468.93 1499.55 1466.74 1509.82 C 1462.05 1532.65 1458.15 1565.06 1450.98 1586.27 C 1442.64 1564.37 1437.93 1540.71 1434.87 1517.51 C 1430.38 1483.36 1425.56 1348.11 1433.47 1319.74 z" fill="rgb(255,255,255)" transform="translate(0,0)"></path>
<path d="M 1023.74 1351.61 C 1026.93 1352.05 1029.82 1352.55 1032.6 1354.27 C 1056.55 1369.08 1083.6 1420.63 1096.28 1446.36 C 1099.15 1452.17 1103.55 1459.11 1104.86 1465.44 L 1103.86 1465.27 C 1092.46 1447.25 1079.07 1430.31 1065.61 1413.8 C 1057.09 1403.34 1023.92 1368.3 1020.51 1358.9 C 1020.82 1355.47 1021.85 1354.42 1023.74 1351.61 z" fill="rgb(255,255,255)" transform="translate(0,0)"></path>
<path d="M 1276.71 1201.47 C 1281.84 1204.48 1284.56 1210.91 1287.25 1216.02 C 1287.23 1234.84 1282.34 1253.87 1281.88 1272.97 C 1281.21 1301.35 1285.13 1328.58 1285.87 1356.7 L 1285.89 1357.87 L 1284.73 1357.17 C 1272.99 1319.06 1272.85 1281.84 1273.31 1242.53 C 1273.47 1228.16 1272.23 1215.32 1276.71 1201.47 z" fill="rgb(255,255,255)" transform="translate(0,0)"></path>
<path d="M 1804.11 327.458 C 1836.45 330.481 1853.78 465.606 1859.07 494.202 C 1866.25 531.546 1872.99 568.975 1879.29 606.478 C 1882.43 624.315 1886.21 642.71 1888.96 660.545 C 1892.32 682.344 1893.09 706.151 1897.32 727.782 C 1902.5 754.257 1914.1 778.763 1920.14 805.451 C 1926.09 831.743 1930.49 857.671 1935.31 884.173 C 1945.16 937.785 1953.57 991.652 1960.53 1045.72 C 1963.19 1067.11 1967.42 1090.09 1968.44 1111.58 C 1969.36 1130.76 1965.04 1152.11 1962.66 1171.16 C 1960.54 1181.3 1959.64 1200.69 1955.58 1209.69 C 1938.9 1246.62 1934.53 1278.18 1937.13 1318.35 C 1937.51 1324.18 1935.7 1341.93 1927.26 1341.85 C 1914.58 1332.48 1919.94 1286.76 1915.76 1271.48 C 1913.44 1263 1907.13 1251.1 1902.86 1243.31 C 1903.04 1250.21 1903.5 1263.35 1898.95 1268.66 L 1897.65 1267.72 C 1895.71 1263.01 1891.01 1237.39 1889.78 1230.15 C 1887.05 1214.18 1880.39 1193.55 1879.31 1178.46 C 1879.74 1164.04 1882.53 1148.08 1884.6 1133.8 C 1893.16 1074.7 1884.05 1015.5 1873.62 957.179 C 1868.42 928.135 1861.75 906.688 1860.62 875.559 C 1855.38 878.939 1848.86 882.91 1845.06 887.775 C 1841.88 898.612 1842.63 910.124 1834.51 915.95 C 1830.42 913.049 1834.13 900.928 1832.02 892.944 L 1830.55 892.402 C 1816.98 901.443 1815.18 937.789 1803.3 938.681 C 1800.55 934.541 1802.71 918.665 1803.19 912.84 C 1793.41 919.572 1758.58 958.615 1754.36 959.351 C 1751.66 956.613 1751.38 953.567 1750.39 949.75 C 1735 972.079 1738.32 995.613 1730.4 1021.09 C 1725.91 1038.37 1711.91 1056.28 1709.21 1073.75 C 1702.07 1119.88 1701.18 1167.46 1694.73 1213.54 C 1694.05 1218.45 1687.98 1223.71 1682.47 1223.11 C 1673.05 1215.73 1686.36 1156.96 1686.75 1143.68 C 1687.14 1130.34 1686.9 1123.41 1684.45 1110.04 C 1677.83 1131.53 1679.34 1149.29 1673.92 1170.32 C 1673 1173.9 1671.62 1176.54 1668.39 1178.16 L 1666.12 1177.3 C 1659.75 1169.68 1658.34 1109.54 1655.83 1094.86 C 1650.42 1068.74 1647.08 1050.62 1647.53 1024.02 C 1648.06 993.614 1657.25 977.548 1663.37 949.249 C 1705.1 756.237 1719.93 555.151 1788.88 368.891 C 1793.52 356.37 1796.01 337.706 1804.11 327.458 z" fill="rgb(0,0,0)" transform="translate(0,0)"></path>
<path d="M 1811.08 394.541 C 1812.66 397.661 1813.12 402.37 1814.44 406.059 C 1824.88 435.221 1824.31 465.315 1830.09 495.639 C 1835.15 522.186 1841.89 548.35 1846.78 574.981 L 1866.04 682.482 C 1871.71 715.47 1876 746.173 1886.11 778.313 C 1890.04 790.793 1890.19 810.366 1894.39 821.908 C 1912.4 871.448 1911.74 923.614 1922.03 974.825 C 1926.72 1008.06 1934.73 1045.8 1936.12 1079.2 C 1937.45 1111.4 1931.44 1167.33 1924.37 1198.11 C 1912.37 1164.44 1917.32 1149.86 1919.11 1114.44 C 1920.26 1095.45 1920.01 1076.41 1918.37 1057.46 C 1913.68 1006.27 1903.83 959.065 1896.33 908.5 C 1894.47 894.058 1888.61 840.072 1878.94 831.736 C 1868.57 829.171 1846.99 842.819 1836.93 847.134 C 1802.97 861.703 1770.08 877.416 1741.66 901.465 C 1729.1 911.492 1720.03 916.959 1713.94 932.51 C 1702.27 962.296 1695.43 1008.55 1680.23 1036.04 C 1683.87 1011.54 1688.25 988.357 1693.23 964.142 C 1696.69 947.341 1699.04 929.637 1702.87 912.903 C 1705.2 902.69 1708.87 892.008 1711.58 881.747 C 1715.47 866.442 1718.75 850.986 1721.41 835.417 C 1724.73 816.077 1724.33 797.252 1727.28 778.858 C 1733.97 737.177 1741.35 695.511 1748.12 653.831 C 1751.25 634.54 1757.17 616.291 1762.04 597.406 C 1766.19 581.045 1769.88 564.575 1773.13 548.012 C 1781.18 508.653 1789.24 471.76 1800.73 433.146 C 1804.41 420.79 1806.57 406.476 1811.08 394.541 z" fill="rgb(255,255,255)" transform="translate(0,0)"></path>
<path d="M 1809.99 454.573 C 1810.95 456.844 1816.9 486.099 1817.9 490.926 C 1825.71 528.668 1834.19 568.648 1839.05 606.75 C 1843.76 643.699 1845.03 680.58 1852.1 717.414 C 1854.81 731.544 1856.7 741.856 1860.57 755.946 C 1865.83 775.041 1874.99 799.289 1877.44 818.362 C 1862.2 827.979 1845.45 827.029 1830.82 834.49 C 1808.13 846.061 1785.35 860.062 1762.78 872.488 C 1749.2 880.702 1735.35 890.901 1722.31 900.149 C 1726.89 873.492 1732.4 850.85 1738.59 824.728 C 1743.06 805.878 1742.56 780.892 1746.55 760.804 C 1749.63 732.687 1759.83 702.783 1763.06 675.039 C 1771.89 599.273 1784.51 527.206 1809.99 454.573 z" fill="rgb(0,0,0)" transform="translate(0,0)"></path>
<path d="M 1802.12 576.407 C 1803.33 577.133 1804.27 577.838 1805.09 579.003 C 1808.01 583.129 1808.9 588.211 1809.62 593.111 C 1812.2 610.821 1810.03 629.061 1812.33 646.935 C 1814.46 663.431 1818.59 679.637 1821.44 696.018 C 1824.15 711.619 1825.48 727.447 1827.89 743.1 C 1830.72 761.475 1835.23 780.492 1832.71 799.121 C 1818.49 810.199 1798.76 817.827 1782.53 825.874 L 1759.13 838.036 C 1758.78 822.551 1760.88 806.584 1762.84 791.237 C 1768.09 749.928 1777.32 709.622 1784.31 668.628 C 1788.45 644.358 1789.47 619.008 1794.92 595.07 C 1796.45 588.384 1798.44 582.258 1802.12 576.407 z" fill="rgb(255,255,255)" transform="translate(0,0)"></path>
<path d="M 977.959 549.354 C 985.618 549.579 994.039 552.313 999.55 557.808 C 1012.15 570.37 1009.29 604.818 1012.27 622.784 C 1015.25 640.745 1020.88 658.192 1024.31 676.088 C 1035.09 730.523 1040 785.956 1038.97 841.438 C 1037.48 905.174 1008.28 996.064 978.511 1052.63 C 968.946 1070.81 956.607 1086.98 946.222 1104.57 C 941.377 1112.78 940.737 1125.53 933.933 1132.02 C 926.756 1133.81 926.343 1122.25 918.703 1120.78 C 912.281 1119.53 903.772 1124.04 898.813 1127.71 C 887.45 1136.14 886.607 1146.08 883.949 1158.58 C 883.444 1160.96 883.143 1162.29 881.057 1163.68 C 880.752 1163.56 880.43 1163.47 880.142 1163.32 C 876.206 1161.16 875.374 1154.75 874.358 1150.76 C 870.824 1138.1 867.815 1126.13 861.146 1114.66 C 855.164 1112.85 850.178 1111.31 845.103 1107.49 C 814.063 1084.11 805.839 1034.73 798.342 999.171 C 795.749 986.874 792.271 974.529 790.737 962.059 C 788.352 942.662 789.079 923.008 788.129 903.511 C 787.163 883.705 782.495 861.581 785.719 841.918 C 789.246 820.407 803.452 800.686 811.655 780.698 C 814.592 773.541 815.549 765.715 817.635 758.292 C 819.953 750.041 823.182 741.89 826.306 733.912 C 847.663 679.38 877.72 632.583 913.632 586.639 C 930.886 564.565 949.951 552.754 977.959 549.354 z" fill="rgb(0,0,0)" transform="translate(0,0)"></path>
<path d="M 967.643 633.776 C 968.764 640.199 963.56 658.871 962.428 666.439 C 961.107 675.274 960.07 684.43 960.136 693.373 C 960.258 709.937 964.628 727.379 967.508 743.673 C 978.954 808.435 979.284 837.576 954.403 899.166 C 945.221 921.895 909.448 983.282 886.765 992.817 C 877.408 985.7 875.177 972.922 873.475 961.916 C 862.759 892.601 869.348 813.196 899.329 749.003 C 910.64 724.785 925.33 703.477 939.397 680.919 C 949.164 665.258 956.731 648.819 967.643 633.776 z" fill="rgb(255,255,255)" transform="translate(0,0)"></path>
<path d="M 982.661 576.171 L 984.624 576.092 L 985.468 577.311 C 981.962 583.451 975.001 588.187 970.197 593.483 C 963.868 600.458 958.271 608.176 952.942 615.932 C 946.409 625.442 940.477 635.353 934.032 644.923 C 927.746 654.257 920.753 663.435 915.271 673.251 C 908.139 686.024 902.822 699.973 896.065 712.993 C 876.747 750.215 860.916 780.911 851.802 822.328 C 840.343 874.408 831.25 934.66 848.617 986.308 C 850.875 993.023 854.335 999.249 857.267 1005.68 C 860.711 1013.24 863.8 1021.6 868.428 1028.53 C 873.822 1036.61 881.502 1042.54 891.181 1044.24 C 900.785 1045.92 912.008 1045.26 919.963 1039 C 927.502 1033.06 932.406 1018.43 936.569 1009.85 C 957.069 967.593 974.345 922.893 984.942 877.038 C 988.344 862.316 990.606 847.205 993.275 832.326 C 996.131 816.407 999.752 800.052 1000.26 783.869 C 1000.99 760.925 991.127 729.095 989.379 704.527 C 988.124 686.881 992.229 668.068 994.68 650.576 C 999.764 666.796 1004.51 683.118 1008.92 699.533 C 1012.02 713.589 1015.79 727.576 1017.55 741.88 C 1021.7 775.633 1018.15 813.658 1012.22 847.102 C 999.482 915.512 973.786 980.856 936.514 1039.62 C 927.683 1053.51 918.575 1069.36 904.857 1078.97 C 894.524 1073.61 883.676 1068.65 875.03 1060.69 C 871.358 1057.31 863.46 1049.36 863.234 1044.46 L 866.666 1044.4 C 862.786 1038.02 855.807 1033.09 850.922 1027.38 C 839.164 1013.63 833.285 993.681 829.314 976.405 C 822.162 945.279 817.954 844.548 824.71 813.531 C 828.217 797.427 837.131 782.811 843.487 767.755 C 857.53 734.489 869.307 700.937 888.766 670.162 C 903.157 647.402 931.856 599.33 953.123 586.245 C 962.273 580.616 972.325 578.522 982.661 576.171 z" fill="rgb(255,255,255)" transform="translate(0,0)"></path>
<path d="M 1592.65 354.353 C 1595.56 354.856 1598.4 355.327 1600.36 358.077 C 1617.65 384.578 1631.76 425.274 1636.04 457.013 C 1639.61 483.545 1641.97 526.475 1641.82 553.555 C 1641.67 580.834 1628.81 615.786 1626.29 644.055 C 1624.3 666.268 1620.29 688.626 1619.36 711.11 C 1616.35 739.652 1614.62 768.368 1612.78 796.959 C 1608.62 832.02 1615.11 867.429 1614.83 901.998 C 1614.47 944.25 1613.51 990.985 1608.58 1032.87 C 1602.79 1082.17 1590.22 1129.65 1578.02 1177.43 C 1574.48 1191.28 1575.31 1230.21 1574.89 1245.74 C 1573.92 1251.59 1573.71 1255.54 1569.55 1259.67 C 1561.74 1262.14 1557.17 1250.93 1556.85 1245.11 C 1553.34 1180.8 1541.52 1117.01 1540.57 1052.63 C 1540.26 1032.14 1540.16 1012.44 1540.23 992.305 C 1540 931.077 1541.92 869.86 1545.99 808.767 C 1548.18 778.871 1552.69 748.901 1554.9 719.081 C 1558.12 675.536 1558.97 636.065 1566.53 592.878 C 1573.57 544.455 1582.25 496.002 1587.69 447.378 C 1590.25 424.483 1590.48 401.261 1589.18 378.336 C 1588.71 370.044 1587.16 360.921 1592.65 354.353 z" fill="rgb(0,0,0)" transform="translate(0,0)"></path>
<path d="M 1613.25 444.195 C 1625.91 467.656 1618.58 503.131 1616.37 527.811 C 1615.04 542.797 1616.09 558.795 1614.63 573.656 C 1606.29 658.5 1598.55 743.389 1589.47 828.155 C 1588.09 841.085 1588.83 873.579 1589.06 888.255 C 1589.89 943.364 1588.26 982.477 1574.43 1035.8 L 1573.7 1037.56 C 1573.18 1036.18 1573.82 978.31 1574.51 969.871 C 1576.94 940.444 1572.4 910.167 1573.58 881.249 C 1577.18 793.33 1579.12 705.721 1595.43 618.909 C 1596.59 612.726 1596.44 605.906 1597.24 599.648 C 1603.39 547.89 1608.54 496.129 1613.25 444.195 z" fill="rgb(255,255,255)" transform="translate(0,0)"></path>
<metadata><recraft-signature>{"signed_by": "recraft", "signature_b64": "MkK/znt+Uznodj1dbJrSQVOyBFos91mDkA3d4CZsj2jU2HuX75bcFM2xYKgeWgKwKyskZTJnRvqXHPk0LVmPCQ==", "signing_algo": "Ed25519", "generation_timestamp": 1776301954, "identifier": "543fe1e3-1e1f-45ee-ae96-3ee9ea28dc32"}</recraft-signature></metadata></svg>