<svg xmlns="http://www.w3.org/2000/svg" height="1024" preserveAspectRatio="none" style="display: block;" version="1.1" viewBox="0 0 2048 2048" width="1024">
<path d="M 0 0 L 2048 0 L 2048 2048 L 0 2048 L 0 0 z" fill="rgb(255,255,255)" transform="translate(0,0)"></path>
<path d="M 1176.4 383.132 C 1181.5 383.097 1188.48 381.71 1191.19 386.289 C 1188.92 400.104 1105.33 469.894 1090.55 482.959 C 1084.71 488.119 1072.3 497.092 1066.5 503.345 C 1073.36 507.867 1126 472.326 1140.13 472.425 L 1141.62 474.135 C 1140.18 484.322 1062.33 544.274 1048.73 551.394 C 1027.13 562.709 1005.48 573.465 985.493 588.794 C 985.021 594.984 983.626 602.428 982.613 608.691 C 1000.46 603.39 1029.32 589.587 1047.11 582.306 C 1071.29 571.578 1094.58 563.244 1120.03 556.002 C 1145.46 548.766 1162.44 541.668 1176.93 571.857 C 1167.2 595.676 1171.11 600.214 1173.62 625.001 C 1176.17 656.438 1177.71 688.069 1183.05 719.186 C 1185.24 731.963 1212.33 811.884 1201.44 819.218 C 1190.26 816.857 1178.76 785.135 1173.1 780.254 C 1168.04 785.114 1172.55 810.781 1174.02 817.773 C 1182.79 859.415 1180.84 890.96 1175.84 932.691 C 1173.37 952.176 1171.68 971.751 1170.77 991.371 C 1169.61 1017.36 1171.47 1051.25 1189.88 1071.37 C 1185.91 1076.03 1183.85 1077.8 1179.32 1081.68 C 1132.31 1123.62 1061.62 1143.59 1015.33 1188.25 C 1006.14 1197.11 980.988 1218.12 968.795 1218.48 C 964.986 1217.1 962.908 1214.76 960.141 1212.14 C 906.311 1161.11 891.284 1095.88 886.09 1024.53 C 885.417 1015.27 881.377 1002.79 880.236 992.641 C 876.636 960.616 872.82 928.647 865.846 897.118 C 865.234 886.552 855.691 867.496 855.077 858.188 C 854.081 843.074 829.538 767.768 832.267 756.341 C 838.876 728.661 859.953 692.675 869.923 663.768 C 876.543 644.571 886.212 614.313 897.022 596.43 C 934.426 560.721 972.701 524.902 1014.38 494.187 C 1040.66 474.815 1068.28 456.145 1094.86 437.114 C 1114.47 423.269 1156.04 391.138 1176.4 383.132 z" fill="rgb(0,0,0)" transform="translate(0,0)"></path>
<path d="M 1090.09 614.914 L 1092.09 615.818 C 1094.29 619.996 1097.37 675.834 1098.74 686.185 C 1108.45 759.327 1135.63 831.582 1134.43 905.876 C 1133.89 939.185 1128.22 979.131 1124.49 1012.4 C 1124.13 1015.47 1099.78 1042.1 1097.11 1043.91 C 1081.64 1054.46 998.817 1138.56 990.074 1138.45 C 987.05 1135.58 987.77 1135.08 986.495 1130.26 C 970.12 1083.26 957.148 1009.93 953.923 959.811 C 952.599 939.242 954.31 918.252 952.276 897.824 C 950.772 882.716 946.22 867.586 943.852 852.518 C 941.468 837.351 941.821 821.711 940.356 806.426 C 939.119 793.519 936.395 780.945 935.619 767.926 C 933.734 736.342 938.504 713.507 952.498 685.337 C 957.032 676.21 962.084 666.664 969.1 659.16 C 977.956 649.688 1061.61 619.491 1075.93 618.841 C 1080.86 618.617 1084.06 617.612 1088.51 615.624 L 1090.09 614.914 z" fill="rgb(255,255,255)" transform="translate(0,0)"></path>
<path d="M 924.152 611.314 C 929.566 614.71 933.158 633.362 931.992 639.103 C 927.219 662.619 916.639 686.056 911.757 709.669 C 910.274 721.384 904.073 740.668 904.661 751.965 C 906.769 792.458 910.72 834.63 914.295 875.012 C 916.725 902.462 922.909 928.213 923.093 955.648 C 923.17 967.046 921.222 978.496 919.518 989.514 C 917.167 984.757 915.61 981.084 915.569 975.754 L 915.152 975.538 C 914.415 974.156 914.517 974.659 914.324 973.338 C 908.506 933.562 901.536 893.892 895.625 854.098 C 892.774 834.902 888.538 813.653 888.492 794.238 C 888.459 780.773 895.623 774.581 890.237 757.521 C 889.014 753.646 884.121 751.442 882.849 747.651 C 880.224 739.829 918.92 624.799 924.152 611.314 z" fill="rgb(255,255,255)" transform="translate(0,0)"></path>
<path d="M 1131.83 615.845 C 1143.78 628.841 1152.41 696.437 1152.73 716.027 C 1152.81 726.383 1151.78 736.718 1149.63 746.849 C 1138.82 726.995 1128.16 635.716 1131.83 615.845 z" fill="rgb(255,255,255)" transform="translate(0,0)"></path>
<path d="M 929.001 1057.52 C 930.729 1058.82 930.772 1059.31 931.593 1061.55 L 963.808 1149.68 C 966.211 1156.2 966.177 1154.55 963.528 1160.29 L 961.459 1160.75 C 936.751 1148.33 929.219 1082.67 929.001 1057.52 z" fill="rgb(255,255,255)" transform="translate(0,0)"></path>
<path d="M 1124.62 1067.75 C 1130.06 1069.61 1133.32 1067.05 1138.52 1069.73 L 1138.81 1071.29 C 1134.03 1077.59 1093.64 1104.32 1085.58 1108.87 C 1081.47 1111.34 1076.76 1113.05 1072.1 1111.09 C 1074.14 1102.47 1114.45 1073.13 1124.62 1067.75 z" fill="rgb(255,255,255)" transform="translate(0,0)"></path>
<path d="M 1656.83 343.512 C 1656.92 343.556 1657 343.595 1657.08 343.645 C 1665.65 349.102 1671.17 424.424 1674.13 438.941 C 1683.51 484.905 1699.28 529.767 1711.68 574.966 C 1725.52 625.401 1732.56 674.718 1737.47 726.603 C 1738.64 739.007 1740.85 751.565 1741.23 764.011 C 1741.8 782.804 1741.23 801.756 1741.13 820.568 C 1740.94 857.52 1740.52 894.346 1737.75 931.225 C 1735.24 964.74 1728.91 997.64 1725.15 1030.99 C 1723.71 1043.75 1721.8 1056.92 1722.18 1069.79 C 1722.43 1078.32 1723.94 1086.55 1725.65 1094.89 C 1742.98 1059.65 1750.12 1023.21 1759.75 985.853 C 1780.6 904.947 1792.94 822.481 1809.9 740.709 C 1811.27 734.13 1815.41 711.397 1824.74 714.174 C 1833.02 722.886 1838.36 774.121 1840.58 788.657 C 1844.32 814.929 1838.55 842.331 1842.41 868.706 C 1854.08 948.391 1854.25 1029.34 1868.57 1108.54 C 1872.09 1127.99 1874.77 1148.32 1877.78 1167.84 C 1879.49 1159.14 1879.91 1142.44 1880.78 1133.01 C 1883.16 1104.65 1884.92 1076.5 1885.89 1048.05 C 1887.17 1010.64 1893.83 973.015 1893.03 935.626 C 1892.81 925.363 1893.02 918.927 1894.38 908.735 C 1902.15 850.424 1910.05 792.105 1926.4 735.466 C 1928.86 726.926 1926.09 711.195 1929.84 701.721 C 1940.25 652.857 1960.77 609.84 1958.52 558.522 C 1958.04 547.711 1952.62 491.832 1956.63 485.951 C 1969.47 467.145 1977.53 518.459 1978.56 525.395 C 1979.69 542.589 1992.88 569.419 1992.65 585.189 C 1991.94 632.695 1971.67 681.995 1971.14 729.854 C 1980.63 711.464 2003.25 651.745 2014.87 643.47 L 2016.24 643.968 C 2018 653.349 2011.21 661.874 2010.24 669.367 C 2006.55 697.786 1994.11 722.849 1986.62 749.578 C 1982.47 764.406 1981.6 785.936 1978.84 801.569 C 1974.22 827.69 1969.87 854.072 1965.78 880.259 C 1956.58 926.749 1947.33 973.94 1942.2 1021.09 C 1940.05 1036.44 1941.14 1052.43 1939.95 1067.68 C 1933.34 1152.1 1939.39 1236.86 1929.73 1321.12 C 1927.88 1337.23 1926.46 1353.58 1925.41 1370.01 C 1923.55 1399.1 1929.12 1428.64 1933.91 1457.22 C 1933.51 1458.24 1933.11 1459.26 1932.71 1460.28 C 1926.19 1466.32 1915.39 1464.52 1909.38 1458.88 C 1899.27 1449.38 1900.96 1428.98 1898.78 1416.17 C 1896.88 1404.95 1897.75 1390.74 1895.12 1379.98 C 1883.9 1334.01 1873.91 1287.8 1869.53 1240.57 C 1868.94 1216.91 1849.58 1193.12 1845.61 1170.53 C 1838.2 1128.43 1829.44 1082.67 1823.93 1040.41 C 1819.93 1010.92 1817.87 981.198 1817.75 951.438 C 1817.52 932.807 1818.32 913.682 1817.87 895.243 C 1804.52 920.355 1802.94 994.615 1795.96 1027.45 C 1788.38 1062.68 1775.15 1093.06 1770.24 1128.98 C 1768.03 1145.07 1774.1 1226.99 1770.22 1231.6 C 1762.52 1227.11 1750.06 1163.31 1746.48 1150.39 C 1740.77 1163.46 1735.99 1168.68 1732.39 1185.21 C 1728.81 1198.46 1731 1215.77 1728.38 1228.82 C 1721.41 1263.44 1716.3 1294.26 1720.15 1329.79 C 1722.37 1350.29 1729.6 1374.55 1725.94 1394.64 C 1725.6 1396.52 1722.98 1397.59 1721.36 1398.07 C 1720.02 1397.75 1718.9 1397.39 1717.79 1396.52 C 1688.97 1373.83 1677.41 1208.7 1674.3 1168.95 C 1672.12 1141.16 1668.73 1114.54 1669.52 1086.51 C 1670.24 1060.79 1674.85 1035.29 1677.51 1009.72 C 1684.9 938.449 1692.5 866.168 1686.49 794.525 C 1684.09 765.957 1681.62 736.809 1675.82 708.708 C 1669.72 679.145 1660.2 649.963 1652.46 620.753 C 1647.41 601.681 1644.26 582.63 1640.33 563.331 C 1636.64 545.235 1632.01 527.254 1629.31 508.971 C 1628.05 500.379 1627.15 491.546 1627.27 482.852 C 1627.71 449.65 1638.02 369.071 1656.83 343.512 z" fill="rgb(0,0,0)" transform="translate(0,0)"></path>
<path d="M 1960.43 769.73 C 1960.61 771 1959.89 776.38 1959.82 778.435 C 1958.94 804.73 1953.58 828.872 1948.78 854.535 L 1935.14 929.21 C 1931.89 947.374 1928.34 973.169 1926.54 991.649 C 1920.76 1057.32 1916.69 1123.12 1914.32 1189 C 1913.53 1209.99 1918.64 1228.8 1915.5 1249.78 C 1915.14 1250.58 1915.43 1250.04 1914.34 1251.2 C 1909.31 1235.29 1906.88 1155.97 1907.33 1135.74 C 1910.29 1039.77 1921.08 944.19 1939.58 849.968 C 1944.56 825.356 1951.25 792.538 1960.43 769.73 z" fill="rgb(255,255,255)" transform="translate(0,0)"></path>
<path d="M 1659.8 539.617 C 1663.19 541.817 1673.83 577.624 1676.19 584.305 C 1688.39 618.712 1695.95 654.352 1702.71 690.147 C 1705.98 707.468 1709.53 724.899 1711.17 742.474 C 1712.53 758.004 1709 773.989 1707.82 789.393 C 1706.7 789.52 1707.39 789.564 1705.86 788.689 C 1700.5 736.062 1694.6 690.049 1680.81 638.622 C 1677.09 624.76 1657.15 548.432 1659.8 539.617 z" fill="rgb(255,255,255)" transform="translate(0,0)"></path>
<path d="M 1707.24 913.661 C 1709.61 921.796 1709.05 939.639 1709.21 948.408 C 1709.86 983.849 1708.6 1018.67 1702.55 1053.68 C 1700.86 1063.47 1699.97 1074.19 1696.51 1083.58 L 1695.67 1083.54 L 1695.45 1079.81 C 1695.43 1057.23 1696.65 1031.5 1697.61 1008.89 C 1698.6 985.241 1699.52 936.137 1707.24 913.661 z" fill="rgb(255,255,255)" transform="translate(0,0)"></path>
<path d="M 1684.12 1122.66 C 1684.62 1116.09 1684.85 1109.7 1686.45 1103.31 C 1687.55 1107.89 1686.99 1119.5 1686.87 1124.77 C 1687.32 1132.9 1686.99 1167.88 1683.58 1174 L 1682.38 1173.7 L 1682.39 1171 C 1674.88 1162.5 1683.61 1134.64 1684.12 1122.66 z" fill="rgb(255,255,255)" transform="translate(0,0)"></path>
<path d="M 1717.88 1143.97 C 1720.3 1148.62 1718.99 1187.47 1715.26 1192.32 C 1714.52 1174.95 1712.92 1160.79 1717.88 1143.97 z" fill="rgb(255,255,255)" transform="translate(0,0)"></path>
<path d="M 400.583 550.501 C 403.297 550.564 406.848 550.934 408.779 553.194 C 422.529 569.285 427.255 591.001 442.662 606.056 C 451.71 614.896 460.583 623.457 470.908 630.783 C 481.963 639.339 494.804 647.116 505.095 656.481 C 534.058 682.836 563.312 709.174 588.938 738.868 C 595.61 746.598 602.529 754.152 609.518 761.624 C 614.655 753.902 623.537 731.857 627.057 729.9 C 630.72 733.087 632.054 761.041 635.637 771.118 C 643.295 792.65 651.112 808.922 664.746 827.566 C 669.224 833.689 678.262 847.186 675.745 854.45 C 664.755 885.114 643.286 910.132 630.494 940.409 C 627.501 947.495 612.227 989.5 609.992 990.983 L 607.478 990.206 C 603.49 986.334 601.456 981.517 598.837 976.535 C 574.634 994.455 553.476 1052.53 545.897 1081.45 C 542.312 1095.13 540.398 1113.35 538.384 1127.64 C 528.504 1109.63 522.958 1099.71 517.078 1080.18 C 506.765 1090.56 502.226 1097.01 494.029 1108.95 C 488.908 1116.41 476.079 1149.41 469.041 1148.55 C 466.526 1143.59 465.521 1131.95 464.763 1126.02 C 460.896 1134.37 452.986 1148.13 451.788 1156.92 C 446.271 1197.38 452.657 1239.31 449.149 1280.01 C 448.563 1286.81 447.838 1293.35 447.566 1300.19 C 445.573 1348.05 438.727 1397.09 439.145 1445.1 C 440.597 1483.26 445.325 1521.23 447.848 1559.31 C 449.928 1590.71 424.849 1584.83 420.078 1564.61 C 413.344 1536.08 413.707 1503.23 410.083 1473.68 C 395.364 1353.66 377.621 1233.6 390.36 1112.36 C 393.947 1069.07 392.866 1023.83 397.105 980.696 C 404.153 908.994 400.713 838.447 399.027 766.563 C 397.729 705.282 400.152 644.361 392.073 583.368 C 390.372 570.523 392.075 560.293 400.583 550.501 z" fill="rgb(0,0,0)" transform="translate(0,0)"></path>
<path d="M 462.175 687.71 C 477.125 693.424 492.86 714.039 502.872 726.069 C 542.851 774.11 585.761 796.321 611.45 856.573 C 594.125 893.589 581.068 913.929 557.774 947.315 C 541.926 970.029 533.172 983.909 515.032 1005.65 C 493.113 1032.17 473.49 1050.97 451.753 1079.26 C 444.095 1055.67 461.944 951.848 461.55 920.799 C 462.81 901.675 459.606 879.559 461.032 860.816 C 465.223 805.738 454.532 741.502 462.175 687.71 z" fill="rgb(255,255,255)" transform="translate(0,0)"></path>
<path d="M 428 909.162 C 428.679 911.073 428.465 910.025 428.55 912.007 C 432.735 1009.7 414.01 1106.82 424.174 1204.71 C 424.951 1212.18 427.442 1250.34 423.186 1255.08 L 421.439 1254.67 L 419.704 1251.79 C 406.507 1195.38 407.005 1129.37 412.489 1071.99 C 416.598 1029.01 411.914 946.428 428 909.162 z" fill="rgb(255,255,255)" transform="translate(0,0)"></path>
<path d="M 423.371 652.769 L 424.551 654.107 C 430.381 683.609 439.859 841.916 432.247 863.309 C 430.328 865.409 431.498 864.95 428.863 865.153 C 427.976 864.346 427.359 863.876 426.692 862.795 C 423.556 857.707 420.649 700.864 420.901 683.948 C 421.053 673.687 421.601 662.875 423.371 652.769 z" fill="rgb(255,255,255)" transform="translate(0,0)"></path>
<path d="M 1266.31 291.676 C 1283.47 297.567 1294.15 335.715 1305.35 351.111 C 1328.05 382.335 1351.48 412.569 1373.87 444.056 C 1384.5 458.736 1394.78 473.678 1404.67 488.868 C 1416.65 507.299 1424.25 523.039 1441.92 536.828 C 1443.36 529.389 1443.16 514.201 1451.45 512.341 C 1453.6 513.833 1464.51 551.263 1466.41 557.491 C 1476.63 590.941 1504.06 609.591 1518.85 640.632 C 1523.11 649.59 1530.7 656.848 1534.55 666.587 C 1522.46 680.692 1508.43 688.99 1496.35 705.235 C 1487.12 717.644 1482.17 740.776 1474.28 748.956 C 1469.19 747.449 1472.29 745.551 1466.49 744.79 C 1444.85 753.826 1428.56 816.426 1416.77 818.923 C 1412.52 815.135 1414.99 811.223 1410.72 807.259 C 1405.26 808.094 1392.83 824.671 1388.93 829.293 C 1380.1 839.758 1369.16 878.176 1361.83 885.959 L 1359.88 885.703 C 1354.76 879.667 1356.42 871.114 1350.13 870.219 C 1335.74 876.493 1328.93 901.659 1329.38 916.206 C 1330.74 959.797 1332.75 1003.5 1336.1 1046.99 C 1338.51 1078.29 1338.72 1109.78 1343.37 1140.94 C 1344.65 1152.59 1348.69 1165.05 1349.98 1176.52 C 1353.95 1211.92 1362.63 1243.73 1372.45 1277.85 C 1376.37 1296.51 1384.69 1314.52 1388.36 1333.1 C 1388.99 1336.25 1388.27 1338.05 1386.48 1340.26 C 1385.46 1340.36 1384.64 1340.52 1383.59 1340.26 C 1362.14 1334.99 1316.34 1178.27 1309.7 1151.36 C 1306.77 1139.49 1296.5 1074.5 1291.31 1068.31 L 1289.32 1068.47 C 1272.26 1085.6 1266.18 1193.69 1244.67 1194.06 C 1240.19 1188.78 1246.77 1151.2 1247.47 1141.96 C 1250.23 1115.95 1251.26 1089.45 1254.19 1063.49 C 1259.21 1019.1 1257.71 975.263 1259.44 931.021 C 1263.76 840.377 1265.39 749.624 1264.31 658.884 C 1263.16 592.451 1255.08 525 1255.34 458.407 C 1255.48 422.298 1243.03 317.917 1266.31 291.676 z" fill="rgb(0,0,0)" transform="translate(0,0)"></path>
<path d="M 1318.95 464.747 C 1321.42 465.549 1324.04 466.365 1326.22 467.799 C 1349.06 482.82 1458.84 640.663 1463.11 666.4 C 1463.47 668.543 1463.96 671.096 1462.72 672.929 C 1453.31 686.798 1434.79 701.361 1422.71 713.844 C 1409.93 727.066 1398.37 742.61 1387.59 757.523 C 1377.29 770.725 1366 783.131 1353.83 794.634 C 1341.76 806.189 1335.76 809.926 1325.4 823.721 C 1324.07 806.608 1324.71 783.21 1325.16 765.946 C 1327.75 665.297 1319.2 565.407 1318.95 464.747 z" fill="rgb(255,255,255)" transform="translate(0,0)"></path>
<path d="M 1293.28 679.713 C 1299 712.446 1299.35 760.663 1299.4 793.885 L 1299.49 898.439 C 1299.36 927.299 1300.09 955.409 1298.16 984.357 C 1297.34 996.585 1297.75 1008.74 1295.28 1020.8 C 1294.64 1023.95 1295.46 1022.75 1293.39 1024.81 C 1288.19 1020.18 1284.9 1000.52 1284.84 993.091 C 1284.28 917.479 1287.31 841.976 1287.13 766.367 C 1287.1 754.286 1288.9 740.343 1289.62 728.133 C 1290.5 713.287 1289.44 693.948 1293.28 679.713 z" fill="rgb(255,255,255)" transform="translate(0,0)"></path>
<path d="M 1281.45 408.48 C 1289.95 412.788 1288.67 465.445 1289.3 476.984 L 1292.87 554.549 C 1293.83 576.469 1297.4 611.489 1290.77 631.489 L 1289.54 631.577 C 1289.3 631.351 1289.03 631.148 1288.81 630.898 C 1277.12 617.613 1278.54 508.602 1279.13 485.045 C 1279.76 459.947 1282.27 434.361 1281.48 409.299 L 1281.45 408.48 z" fill="rgb(255,255,255)" transform="translate(0,0)"></path>
<path d="M 302.238 257.529 C 314.124 258.171 315.877 275.529 318.573 285.178 C 329.962 325.939 329.757 368.172 330.111 410.123 C 330.275 429.568 330.23 449.402 327.85 468.724 C 341.647 453.536 360.315 391.509 373.919 388.502 L 375.36 390.511 C 376.032 394.438 375.975 398.201 375.299 402.142 C 372.885 416.221 367.766 430.746 364.152 444.62 C 357.706 469.363 351.927 494.637 347.441 519.808 C 343.993 539.154 342.228 566.576 341.234 586.346 C 340.88 593.376 341.298 600.483 340.795 607.491 C 338.467 639.931 333.292 672.022 331.588 704.524 C 331.05 714.786 332.755 758.674 331.011 763.062 C 324.365 779.78 333.386 857.605 334.493 878.622 C 336.065 908.462 335.358 938.237 336.599 968.04 C 338.494 1009.72 342.247 1051.29 347.846 1092.63 C 348.952 1101.09 353.349 1131.07 348.572 1137.28 L 346.789 1137.02 C 342.369 1132.04 340.252 1123.74 337.708 1117.58 C 325.51 1088.08 320.578 1059.9 315.827 1028.56 C 312.987 1009.82 309.006 986.788 308.214 967.849 C 305.128 984.134 298.957 1002.65 299.188 1019.18 C 299.551 1045.02 304.93 1069.57 307.174 1095.83 C 311.087 1141.62 313.34 1183.32 317.523 1229.66 C 320.513 1262.79 333.544 1308.48 328.826 1342.2 C 328.418 1345.12 325.337 1348.43 322.501 1349.89 C 319.781 1350.18 318.031 1350.16 315.71 1348.5 C 295.022 1333.71 288.957 1186.46 285.48 1153.86 C 275.322 1182.62 259.494 1210.53 248.574 1239.27 C 240.795 1259.74 236.183 1281.35 229.198 1301.95 C 228.372 1304.39 227.658 1304.41 225.646 1305 L 223.966 1303.54 C 217.295 1287.78 216.589 1244.49 218.536 1227 C 202.211 1242.91 160.31 1279.5 137.352 1278.34 C 130.117 1274.02 136.303 1265.99 139.337 1259.97 C 130.399 1249.38 122.087 1248.47 110.146 1241.95 C 96.1982 1234.34 82.9314 1219.12 74.087 1206.43 C 46.4992 1166.82 50.5279 1071.33 59.1402 1025.8 C 70.3249 968.159 64.0928 914.275 65.5904 856.461 C 67.4864 783.263 68.1086 710.11 70.5052 636.894 C 72.0843 588.654 93.3288 545.408 81.3894 496.52 C 76.8894 478.094 60.5282 445.129 85.9902 435.809 C 98.3712 432.306 103.168 446.035 109.386 453.267 C 165.02 518.015 125.151 594.718 121.68 668.239 C 119.052 723.915 116.376 780.658 115.654 836.451 C 115.466 852.906 115.579 869.363 115.994 885.813 C 116.221 893.109 118.144 902.226 115.352 908.574 C 115.422 908.416 116.92 924.25 117.005 925.593 C 117.641 935.638 117.422 945.466 117.364 955.513 C 116.758 1011.35 107.904 1069.06 116.379 1124.4 C 117.527 1131.9 124.524 1156.56 129.913 1160.38 C 134.547 1157.32 132.86 1148.38 137.445 1142.87 L 139.382 1142.74 C 150.554 1151.02 150.606 1184.57 161.857 1196.31 C 170.44 1205.26 192.384 1184.84 197.864 1178.28 C 213.548 1159.52 222.907 1132.81 232.071 1110.27 C 244.12 1080.62 255.227 1050.33 263.317 1019.36 C 273.642 975.399 278.876 922.98 280.676 877.812 C 280.888 872.499 282.071 862.006 281.96 857.912 C 281.482 840.312 280.443 820.787 281.204 803.226 C 282.87 775.401 284.311 747.527 285.893 719.703 C 286.562 707.939 287.966 701.453 287.535 688.993 C 287.088 676.088 288.935 662.165 288.424 648.936 C 287.68 629.641 285.779 610.548 285.497 591.261 C 285.504 585.149 288.069 578.102 288.051 573.771 C 287.895 536.604 290.209 500.205 294.234 463.249 C 296.762 440.033 301.797 413.116 302.368 390.183 C 302.826 363.864 301.606 337.55 299.685 311.325 C 298.087 289.511 284.633 274.941 302.238 257.529 z" fill="rgb(0,0,0)" transform="translate(0,0)"></path>
<path d="M 80.2283 1054.67 C 82.2174 1057.28 83.045 1079.11 83.4438 1083.99 C 85.5491 1110.65 89.8398 1137.09 96.2728 1163.04 C 98.2135 1170.97 104.458 1187.43 105.234 1193.42 L 104.097 1194.03 L 101.379 1191.65 C 98.6904 1188.63 96.1537 1185.48 93.7788 1182.2 C 68.2173 1147.25 73.8601 1095.36 80.2283 1054.67 z" fill="rgb(255,255,255)" transform="translate(0,0)"></path>
<path d="M 267.561 1107.69 C 270.454 1119.94 262.479 1139.73 256.677 1150.45 L 255.349 1148.88 C 255.818 1135.62 262.452 1119.84 267.561 1107.69 z" fill="rgb(255,255,255)" transform="translate(0,0)"></path>
<path d="M 1035.9 401.272 C 1040.33 400.815 1053.28 399.37 1055.72 402.889 C 1051.53 410.121 942.942 462.157 925.569 471.449 C 942.473 470.292 956.816 468.35 973.356 464.441 C 980.72 462.7 1010.91 453.598 1015.97 458.372 C 1011.54 473.742 919.247 499.634 902.367 505.175 C 854.156 520.999 800.306 524.874 752.525 540.362 L 750.938 540.884 C 749.217 602.891 760.196 669.725 763.937 732.135 C 767.523 791.971 770.677 852.042 777.413 911.578 C 779.306 928.316 779.527 945.742 782.048 962.508 C 787.91 1000.09 792.444 1037.88 796.065 1075.74 C 800.399 1114.2 809.277 1152.9 814.294 1191.32 C 815.158 1197.94 822.307 1225.1 817.54 1228.66 C 816.439 1228.3 815.693 1228.12 814.671 1227.46 C 800.737 1218.42 774.814 1091.28 769.732 1066.65 C 767.466 1055.66 766.44 1044.88 763.368 1033.98 C 758.852 1036.72 753.18 1058.98 753.206 1064.16 C 753.405 1092.58 752.841 1121.01 751.515 1149.4 C 750.631 1165.56 748.666 1181.64 748.014 1197.82 C 746.936 1224.56 748.44 1304.7 739.576 1324.87 C 736.822 1331.14 730.045 1342.26 722.786 1344.01 C 720.587 1344.54 719.076 1343.69 717.578 1342.15 C 711.962 1336.36 715.333 1319.6 715.905 1312.25 C 716.461 1295.56 719.251 1279.26 719.352 1261.69 C 720.172 1243.76 718.502 1225.66 718.977 1207.76 C 719.901 1173 718.429 1138.9 716.904 1104.18 C 715.698 1076.71 717.791 1048.38 717.521 1020.88 C 717.25 993.155 715.396 965.357 714.837 937.62 C 715.407 918.894 710.66 896.639 711.379 878.341 C 712.684 845.173 706.14 811.78 705.404 779.495 C 704.017 718.614 704.652 657.493 703.511 596.602 C 703.276 584.072 705.592 568.592 703.431 556.946 C 697.517 558.312 689.826 560.464 684.544 562.787 C 670.943 568.769 577.98 601.694 568.39 594.665 L 570.176 588.848 C 573.854 584.769 634.276 555.954 643.649 551.333 C 625.596 551.792 474.622 586.89 481.124 551.118 C 486.4 548.116 499.049 545.58 505.285 544.422 C 544.37 537.16 582.349 525.924 621.054 517.01 C 636.749 513.396 653.069 507.269 668.592 502.781 C 680.963 499.205 692.874 493.926 705.807 492.467 C 707.936 487.439 709.307 483.608 710.902 478.407 C 713.972 468.395 716.323 430.534 730.459 430.822 C 739.492 436.77 740.282 470.174 742.875 482.275 L 743.19 483.711 C 761.831 476.627 778.314 474.396 797.214 469.413 C 830.463 459.816 864.472 452.478 897.778 443.382 C 928.256 435.059 958.853 421.883 989.728 413.831 C 1005.39 409.745 1019.88 404.606 1035.9 401.272 z" fill="rgb(0,0,0)" transform="translate(0,0)"></path>
<path d="M 730.33 761.346 C 734.254 762.974 735.264 773.546 736.344 777.891 C 744.707 811.957 745.864 846.759 748.578 881.571 C 750.05 900.448 754.862 924.774 749.882 942.758 C 748.703 943.055 749.527 942.908 747.371 942.735 C 731.878 918.833 735.05 828.993 731.231 798.735 C 730.328 791.58 729.957 769.145 730.33 761.346 z" fill="rgb(255,255,255)" transform="translate(0,0)"></path>
<path d="M 1531.27 389.386 C 1531.3 389.404 1532.56 390.334 1532.6 390.405 C 1542.44 406.788 1540.21 437.284 1548.74 453.295 C 1566.34 486.309 1584.85 498.569 1596.16 536.988 C 1618.2 611.847 1612.96 687.719 1603.71 764.224 C 1601.09 785.833 1595.74 806.538 1594.99 828.221 C 1593.5 855.033 1597.13 881.359 1598.86 908.014 C 1603.17 974.492 1598.44 1040.9 1599.11 1107.34 C 1599.85 1144.45 1609.45 1179.29 1617.89 1215.09 C 1620.06 1224.32 1630.49 1258.58 1624.77 1265.1 C 1608.3 1262.03 1582.65 1175.27 1569.72 1166.04 C 1565.32 1181.74 1570.35 1238.52 1574.96 1254.84 C 1570.01 1269.11 1606.15 1362.11 1592.67 1368.97 C 1576.66 1364.8 1565.04 1314.52 1560.92 1299.37 C 1546.79 1248.48 1537.92 1196.27 1534.45 1143.57 C 1531.68 1099.16 1536.92 1057.86 1536.43 1014.8 C 1535.49 934.044 1537.93 855.049 1541.26 774.394 C 1544.02 707.629 1552.24 630.615 1540.54 564.922 C 1528.9 499.564 1499.85 457.356 1531.27 389.386 z" fill="rgb(0,0,0)" transform="translate(0,0)"></path>
<path d="M 1558.11 541.855 C 1561.53 546.004 1564.43 550.563 1566.72 555.428 C 1572.51 567.451 1573.57 576.901 1576.43 589.266 C 1587.02 635.103 1585.41 677.961 1583.63 724.443 C 1582.57 751.942 1587.8 756.526 1578.14 783.729 C 1577.35 788.055 1577.58 787.969 1574.65 791.098 L 1573.35 790.864 C 1571.82 786.243 1572.68 771.255 1572.34 765.261 C 1570.27 728.834 1573.79 691.017 1573.27 655.119 C 1572.75 619.729 1562.87 576.74 1558.11 541.855 z" fill="rgb(255,255,255)" transform="translate(0,0)"></path>
<path d="M 1571.5 881.483 C 1572.53 882.177 1572.64 882.564 1573.45 883.591 C 1576.88 903.331 1580.09 935.978 1580.19 956.193 C 1579.61 979.192 1577.8 1002.16 1576.44 1025.13 C 1575.34 1043.75 1576.35 1064.11 1573.41 1082.4 L 1572.01 1081.81 C 1568.75 1060 1566.91 1033.74 1567.01 1011.78 C 1567.05 1004.56 1569.46 997.366 1569.48 989.432 C 1569.59 957.775 1565.73 912.106 1571.5 881.483 z" fill="rgb(255,255,255)" transform="translate(0,0)"></path>
<path d="M 1075.57 1230.5 C 1081.03 1233.45 1087.26 1259.53 1089.28 1266.68 C 1093.93 1283.15 1103.96 1300.94 1108.11 1316.89 C 1110.26 1325.18 1111.73 1340.08 1113.68 1349.55 C 1118.36 1372.33 1122.86 1396.1 1127.21 1418.89 C 1130.47 1436 1136.86 1472.1 1142.85 1487.39 C 1148.72 1493.05 1173.76 1506.75 1169.83 1515.78 C 1166.42 1518.36 1159.89 1518.94 1155.25 1519.94 C 1152.71 1522.46 1152.35 1525.94 1152.32 1529.38 C 1152.16 1546.26 1157.72 1576.09 1159.86 1594.01 C 1161.89 1611.05 1170.52 1700.23 1164.65 1710.89 C 1163.4 1713.17 1162.37 1713.71 1159.95 1714.28 C 1149.32 1709.1 1146.35 1662.9 1140.34 1651.42 L 1139.18 1651.58 C 1137.15 1656.6 1132.81 1680.51 1131.48 1687.26 C 1126.4 1673.73 1128.03 1663.94 1125.32 1650.78 C 1119.42 1622.05 1117.55 1591.06 1111.75 1562.64 L 1104.7 1569.72 C 1077.88 1592.56 1041.37 1613.04 1017.92 1638.8 C 1009.8 1647.72 998.222 1687.23 985.338 1698.42 C 980.776 1702.38 973.67 1723.17 966.92 1724.43 L 965.394 1722.87 C 960.303 1707.77 979.911 1599.71 984.071 1578.35 C 987.039 1563.12 997.843 1530.03 1002.09 1513.5 L 1039.37 1366.4 C 1044.31 1346.92 1048.97 1327.37 1053.35 1307.76 C 1060.52 1275.05 1060.34 1262.04 1075.57 1230.5 z" fill="rgb(0,0,0)" transform="translate(0,0)"></path>
<path d="M 1076.78 1364.91 L 1077.18 1365.38 C 1086.28 1414.1 1097.35 1453.95 1103.77 1505.11 C 1094.23 1522.97 1062.69 1554.57 1047.33 1572.11 C 1040.97 1579.01 1035.76 1584.44 1030.34 1592.17 C 1039.46 1562.62 1047.53 1537.82 1054.49 1507.85 C 1062.06 1475.26 1062.69 1387.38 1076.78 1364.91 z" fill="rgb(255,255,255)" transform="translate(0,0)"></path>
<path d="M 1268.51 1241 C 1283.62 1240.37 1285.52 1240.64 1288.03 1256.1 C 1293.2 1287.9 1305.8 1319.05 1313.95 1350.55 C 1324.06 1389.61 1331.89 1431.72 1344.01 1469.97 C 1351.41 1474.6 1373.5 1487.2 1371.14 1496.98 C 1367.23 1500.38 1356.45 1504.77 1351.2 1507.15 C 1351.59 1526.97 1360.98 1560.89 1364.63 1581.05 C 1370.8 1615.05 1377.63 1648.94 1382.4 1683.24 C 1383.84 1693.6 1390.98 1716.52 1388.8 1724.48 C 1386.84 1725.67 1386.05 1726.35 1383.66 1725.39 C 1370.1 1719.95 1350.29 1649.65 1340.62 1633.09 C 1340.44 1632.78 1340.24 1632.47 1340.05 1632.15 C 1335.41 1645.08 1335.51 1654.23 1332.47 1667.19 C 1332 1669.19 1329.43 1669.85 1327.69 1670.42 L 1325.83 1669.28 C 1322.84 1657.58 1323.58 1624.89 1323.04 1611.69 C 1322.58 1600.3 1321.64 1589.15 1320.75 1577.76 C 1320.03 1570.64 1315.98 1538.35 1312.11 1534.62 C 1309.47 1536.04 1295.8 1554.03 1292.13 1558.05 C 1262.6 1590.52 1235.44 1619.36 1216.39 1659.42 C 1212.43 1667.75 1184.32 1711.84 1178.86 1716.49 C 1175.55 1716.47 1177.06 1716.87 1174.17 1715.19 C 1177.7 1686.88 1183.94 1655.94 1187.78 1627.08 C 1190.81 1604.36 1194.3 1576.79 1198.13 1554.41 C 1203.79 1521.38 1215.91 1484.64 1222.22 1451.71 L 1248.27 1321.45 C 1252.72 1298.38 1256.72 1274.4 1261.45 1251.32 C 1262.3 1247.22 1265.56 1243.82 1268.51 1241 z" fill="rgb(0,0,0)" transform="translate(0,0)"></path>
<path d="M 1274.26 1367.71 C 1286.59 1406.5 1295.88 1446.19 1302.05 1486.42 C 1289.83 1499.29 1272.05 1523.77 1258.18 1539.43 L 1245.74 1554.09 C 1248.38 1525.02 1254.52 1495.57 1258.63 1466.65 C 1263.43 1432.9 1264.45 1400.61 1274.26 1367.71 z" fill="rgb(255,255,255)" transform="translate(0,0)"></path>
<path d="M 785.235 1269.34 C 790.867 1273.29 801.175 1286.02 808.041 1289.77 C 825.483 1299.29 853.393 1311.75 869.98 1319.94 C 884.202 1326.96 973.659 1389.63 977.23 1396.18 C 975.999 1402.82 968.701 1400.75 963.9 1399.76 C 957.764 1407.04 953.121 1416.75 947.572 1424.58 C 930.447 1448.77 909.761 1469.86 887.695 1489.53 C 881.262 1495.26 872.543 1502.83 867.215 1509.41 C 870.614 1512.77 873.836 1516.31 876.87 1520 C 909.831 1559.44 928.92 1608.85 954.268 1653.32 C 956.542 1657.31 961.4 1668.79 961.02 1673.04 C 958.304 1675.75 956.431 1675.01 951.61 1676.07 C 950.466 1684.21 958.077 1700.51 952.683 1706.99 L 950.459 1706.7 C 925.572 1687.74 889.932 1609.83 873.987 1582.19 C 864.98 1566.87 847.479 1544.3 833.991 1532.83 C 828.181 1536.64 817.665 1542.46 818.149 1550.38 C 820.867 1594.8 821.451 1639.3 819.443 1683.79 C 818.877 1696.3 822.312 1757.39 814.778 1764.01 L 812.976 1763.89 C 803.941 1755.98 804.536 1693.44 794.261 1686.47 C 789.677 1687.18 784.206 1727.77 778.243 1733.96 L 776.881 1733.28 C 770.573 1714.92 785.112 1655.69 787.592 1633.63 C 791.578 1604.2 789.156 1574.68 789.669 1545 C 790.853 1476.49 794.119 1407.58 789.237 1339.12 C 787.487 1314.59 784.293 1294.71 785.235 1269.34 z" fill="rgb(0,0,0)" transform="translate(0,0)"></path>
<path d="M 835.429 1348.78 C 859.102 1359.39 896.662 1384.28 916.843 1401.81 C 900.598 1422.55 884.546 1440.98 864.563 1458.21 C 851.118 1469.94 832.654 1483.07 820.657 1495.01 C 824.749 1473.7 821.935 1458.97 823.018 1437.76 C 824.556 1407.67 830.086 1378.41 835.429 1348.78 z" fill="rgb(255,255,255)" transform="translate(0,0)"></path>
<metadata><recraft-signature>{"signed_by": "recraft", "signature_b64": "qUfIerYGYDNGwcc57gzav8YpQ8Q9lLi9cxLRc5guiB54iQAxlfWCIxMx/rxGp5u4HUAORjiq5NLxalys5/X4Cg==", "signing_algo": "Ed25519", "generation_timestamp": 1776301942, "identifier": "3b7ff587-aea1-4552-8cbb-257482b62146"}</recraft-signature></metadata></svg>