<svg xmlns="http://www.w3.org/2000/svg" height="1024" preserveAspectRatio="none" style="display: block;" version="1.1" viewBox="0 0 2048 2048" width="1024">
<path d="M 0 0 L 2048 0 L 2048 2048 L 0 2048 L 0 0 z" fill="rgb(254,254,254)" transform="translate(0,0)"></path>
<path d="M 541.542 868.334 C 544.552 868.982 544.394 868.826 546.508 871.038 L 545.972 874.433 C 550.919 875.987 545.245 873.346 551.037 870.887 L 554.731 872.778 C 556.686 871.823 555.595 872.217 558.043 871.712 C 561.431 873.841 565.152 883.579 563.083 884.887 C 556.445 889.086 541.735 889.599 533.915 893.153 C 533.407 895.91 533.528 896.365 532.176 898.757 L 530.373 898.888 C 530.188 895.142 530.919 896.558 528.87 894.182 C 521.535 893.356 521.664 902.338 510.532 898.909 C 502.418 896.409 499.341 905.7 493.253 905.537 L 492.709 901.533 C 489.749 900.707 491.147 900.537 488.424 901.436 L 488.909 905.262 L 487.332 906.637 C 482.813 907.546 481.009 906.278 476.477 904.527 L 475.376 901.307 C 470.723 903.175 473.009 904.394 467.967 908.398 C 462.403 908.513 459.638 906.757 454.438 905.34 C 450.979 904.398 447.194 908.967 443.01 911.579 C 431.475 904.921 436.716 912.682 428.434 915.76 C 425.61 914.295 426.391 914.498 424.514 911.207 C 420.293 914.768 418.111 911.535 413.261 914.51 C 413.811 918.066 413.137 918.674 410.232 919.836 L 408.432 918.81 C 409.112 915.528 409.517 914.403 410.598 911.316 C 405.905 912.385 405.342 920.429 399.406 919.507 L 398.576 916.33 L 397.024 916.034 L 394.817 918.571 C 388.485 919.614 386.39 913.959 380.279 917.238 C 378.843 920.303 379.574 919.52 377.318 921.777 C 374.818 921.287 373.699 920.764 371.33 921.553 L 374.374 924.172 L 374.003 925.42 L 365.041 929.356 C 369 929.954 368.176 929.004 369.749 931.103 C 367.497 933.264 367.525 932.92 365.929 935.527 C 367.286 937.044 368.771 938.263 370.394 939.489 L 368.847 941.304 C 369.172 943.666 369.533 944.584 370.534 946.754 L 365.484 946.362 C 364.308 949.538 377.953 960.7 369.923 967.144 L 367.466 966.551 C 368.294 968.713 369.592 969.943 371.084 971.818 L 370.482 972.915 C 367.402 972.039 366.68 971.786 363.406 971.43 L 363.911 972.794 C 367.202 974.478 370.329 975.478 372.036 978.558 L 371.382 980.658 C 368.408 981.949 368.887 981.482 366.462 983.421 C 369.504 986.293 369.295 984.95 369.611 987.85 L 366.322 989.372 L 366.507 990.509 L 370.454 989.907 C 370.812 993.185 367.614 991.19 366.474 995.117 C 368.406 996.175 370.151 997.036 372.135 997.994 C 372.095 1003.69 370.201 997.258 368.22 1002.45 L 371.55 1004.8 C 371.591 1008.28 368.5 1011.41 366.163 1015 L 366.619 1016.86 L 369.061 1017.55 C 375.588 1015.58 380.487 1003.51 384.984 998.536 C 395.612 986.788 406.998 970.814 419.853 961.5 L 421.266 960.49 C 425.54 957.389 432.902 958.299 439.466 957.183 C 439.177 954.768 439.012 955.633 439.997 953.453 C 445.531 951.684 447.269 957.672 452.278 953.408 L 450.369 951.527 C 451.683 950.199 452.043 950.146 453.72 949.321 L 453.165 945.879 L 454.404 944.886 C 456.283 946.288 455.48 945.967 457.713 946.495 C 459.393 945.405 461.08 944.324 462.773 943.253 C 466.502 940.89 472.197 936.66 476.444 937.616 C 477.349 940.129 477.5 941.552 479.533 943.178 L 482.259 942.192 C 484.674 938.366 483.888 938.986 484.191 933.81 L 485.485 933.178 C 489.964 933.735 501.306 937.019 504.08 940.232 L 503.296 942.64 C 508.39 942.059 501.563 940.929 507.493 938.175 C 510.072 939.316 508.898 938.484 510.469 941.608 L 512.519 939.52 C 520.669 937.533 517.778 943.405 520.09 943.391 C 520.813 943.386 532.178 939.861 534.175 940.415 C 537.087 941.224 540.115 944.263 542.627 945.648 C 545.809 947.402 541.804 942.996 546.933 945.536 L 547.275 948.966 L 548.449 949.634 C 549.616 948.561 550.6 947.479 551.606 946.261 L 553.505 947.141 L 554.423 950.526 C 557.448 948.676 555.886 948.901 559.041 948.959 C 565.294 956.857 572.285 954.54 583.119 956.727 C 584.229 958.775 583.768 958.141 585.523 959.871 C 589.549 958.915 593.047 957.206 596.853 955.566 C 618.577 964.675 632.8 978.431 644.2 999.277 C 644.394 999.63 641.953 1001.95 643.015 1005.81 C 645.569 1007.94 646.093 1008.62 649.331 1009.63 L 650.471 1007.92 C 650.72 1004.99 651.283 1002.22 650.63 999.505 L 647.309 999.928 L 646.515 999.066 C 652.161 989.147 644.521 991.476 645.256 981.653 C 645.528 978.013 647.208 983.762 649.128 977.48 C 648.17 976.098 647.17 974.803 646.049 973.548 C 647.779 972.042 647.284 972.709 648.314 970.615 C 645.55 969.725 645.423 969.732 642.978 968.216 L 642.756 966.206 C 644.677 963.417 645.364 963.181 648.159 961.389 L 649.026 960.842 C 645.058 959.042 643.726 958.571 643.357 953.922 C 645.71 952.237 645.051 953.047 646.546 950.699 C 645.16 947.797 644.914 947.633 644.457 944.352 C 646.438 939.512 648.622 941.547 649.702 937.885 C 647.391 936.663 647.994 937.386 646.689 935.419 C 648.447 933.79 648.05 934.488 649.055 932.446 C 641.484 923.343 620.09 917.901 608.433 915.155 C 605.959 912.371 606.043 909.924 605.728 906.184 L 605.573 904.206 C 603.341 904.392 604.45 904.396 602.248 904.201 C 601.021 896.643 608.425 893.723 606.929 885.611 C 610.452 885.025 611.854 885.445 614.069 883.462 L 612.393 880.377 L 613.839 879.433 L 617.279 881.749 C 618.37 879.925 618.3 880.009 619.933 878.648 C 625.438 881.822 635.842 887.296 642.688 887.167 C 645.654 887.111 646.486 884.811 648.134 882.433 L 649.047 882.866 L 648.8 887.795 C 652.915 890.206 661.94 884.102 666.549 886.051 L 665.741 891.704 C 669.431 896.2 683.48 893.225 687.037 895.599 C 686.882 897.035 686.735 898.472 686.596 899.91 C 693.288 903.282 691.976 898.236 696.935 896.451 L 700.806 898.39 C 702.771 903.832 699.195 897.975 698.647 903.08 L 701.579 904.81 C 705.65 902.305 703.871 900.387 709.47 898.625 C 712.765 898.82 712.757 898.545 715.328 900.488 L 715.035 904.443 L 716.187 905.59 L 718.949 904.047 L 720.763 904.604 C 722.171 907.006 721.682 906.68 723.639 908.458 C 725.696 906.093 724.497 906.532 726.973 906.223 C 727.699 907.87 727.594 907.94 727.536 909.693 L 729.505 910.521 L 731.975 909.194 L 730.84 906.481 C 734.566 905.285 750.424 910.291 753.948 912.298 C 757.667 914.417 757.29 916.869 762.464 918.257 C 765.736 916.643 768.33 914.813 771.822 915.14 C 780.697 921.279 777.615 917.479 787.976 918.242 C 792.195 918.553 790.148 920.736 792.073 923.103 L 794.594 921.313 C 799.649 922.371 818.419 925.335 820.796 927.969 L 820.026 931.611 L 820.825 932.287 C 828.608 929.205 829.272 931.057 837.035 934.687 C 843.364 937.646 856.416 950.987 863.221 949.316 C 861.079 944.691 862.645 936.643 862.6 931.655 C 862.586 930.11 861.184 932.519 859.593 928.077 C 863.276 923.753 867.067 919.522 870.963 915.389 C 876.934 918.835 880.365 919.091 886.706 922.887 L 887.759 923.529 C 898.778 922.128 901.15 923.827 905.182 934.463 L 905.58 935.54 L 907.7 934.627 C 910.77 936.207 909.698 935.852 910.838 938.83 C 913.788 946.531 910.421 948.615 909.093 953.904 C 912.333 953.082 912.245 952.524 914.899 953.435 L 914.637 955.538 C 900.07 965.259 913.992 967.861 914.657 974.505 L 913.51 974.844 C 911.719 973.717 909.916 972.608 908.103 971.517 C 907.359 973.769 909.467 983.748 910.671 986.49 C 912.127 989.803 907.482 997.052 907.194 1001.06 C 906.805 1006.46 906.956 1010.51 907.167 1015.5 C 905.334 1016.99 905.85 1016.32 904.825 1018.52 C 907.138 1023.7 908.932 1026.42 906.177 1031.89 C 899.291 1035.39 898.925 1041.18 905.667 1045.38 C 905.81 1048.58 903.152 1052.5 901.474 1055.83 L 904.049 1058.11 C 904.707 1060.13 903.702 1068.07 903.229 1069.52 C 900.148 1078.99 909.297 1083.35 906.325 1090.31 C 902.016 1100.41 903.358 1100.34 907.463 1109.62 C 906.373 1114.13 905.211 1110 902.105 1114.83 L 903.584 1119.09 C 900.089 1125.78 894.494 1122.19 890.09 1119.25 L 889.834 1122.06 L 888.601 1122.96 C 888.305 1122.91 864.179 1109.45 862.411 1108.2 L 862.264 1106.34 C 864.398 1104.5 865.282 1104.12 866.305 1101.53 L 865.601 1100.31 L 862.066 1102.99 L 861.318 1102.46 L 863.628 1097.64 L 861.214 1096.43 C 860.778 1093.74 863.34 1084.73 864.009 1080.98 C 862.513 1077.15 862.089 1076.54 861.911 1072.53 L 864.514 1070.03 L 864.418 1068.67 L 861.48 1067.74 C 861.619 1064.63 863.202 1063.74 865.522 1060.68 C 863.434 1059.45 864.482 1060.13 862.389 1058.63 C 863.379 1057.4 864.407 1056.26 865.559 1055.18 C 860.197 1051.28 865.035 1048.97 865.263 1043.62 C 865.893 1040.81 863.021 1030.71 863.52 1028.64 C 865.471 1020.52 863.498 1020.44 860.614 1013.1 L 861.527 1011.16 C 860.885 1009.2 860.697 1009.29 859.292 1007.76 L 862.601 1000.52 C 859.647 998.071 857.982 997.447 859.278 993.59 C 860.702 993.966 860.808 994.794 862.139 996.481 L 862.932 996.007 C 862.112 993.171 862.127 993.97 862.11 991.119 L 865.794 988.816 L 865.394 987.826 C 855.244 987.35 855.577 999.206 845.527 999.898 C 842.652 1000.1 843.615 999.826 840.605 1000.58 C 839.451 1002.16 835.571 1007.51 834.293 1007.95 C 829.185 1009.68 809.206 1018.57 805.452 1017.66 L 805.583 1014.8 C 799.051 1018.89 791.187 1021.84 783.349 1021.73 C 781.113 1021.69 782.764 1025.66 775.093 1026.87 C 766.261 1028.27 756.156 1033.55 747.436 1035.75 C 742.082 1037.1 732.413 1033.96 727.329 1036.71 C 730.203 1037.56 732.218 1037.58 733.876 1039.45 C 728.052 1043.07 721.681 1041.86 715.459 1045.33 C 715.049 1050 716.569 1050.01 713.803 1053.63 C 709.293 1054.64 707.437 1052.72 701.727 1051.7 C 697.563 1053.06 699.364 1051.97 696.255 1055.32 C 695.655 1060.46 696.687 1054.87 698.696 1059.41 C 697.248 1060.83 696.067 1062.05 694.698 1063.55 C 695.308 1065.59 695.486 1066.29 695.799 1068.39 C 693.686 1070.72 694.111 1069.73 693.144 1072.49 C 695.113 1075.2 695.122 1074.39 695.66 1077.3 C 692.548 1076.41 692.734 1076.38 689.529 1076.63 L 688.889 1078.37 C 689.436 1078.97 692.57 1082.56 692.52 1083.01 C 691.812 1089.43 688.65 1101.68 688.629 1107.65 C 691.842 1107.36 690.771 1107.17 693.767 1107.94 C 694.211 1111.4 692.953 1112.62 691.397 1116.42 L 692.027 1117.89 C 695.251 1117.68 695.522 1117.02 698.078 1115 C 697.775 1112.44 697.66 1111.08 697.632 1108.51 C 700.32 1108.84 699.027 1108.55 701.594 1111.05 C 701.797 1115.37 699.802 1117.34 697.154 1121.07 C 697.997 1123.72 700.925 1125.5 703.246 1127.39 C 702.385 1131.04 701.828 1134.94 699.679 1137.9 C 697.388 1137.59 698.414 1137.49 696.587 1137.94 L 696.986 1139.42 C 710.427 1146.33 696.086 1143.97 696.577 1155.42 L 692.401 1157.37 L 692.802 1158.32 C 694.902 1158.24 696.647 1158.25 698.75 1158.29 L 699.67 1159.61 C 700.016 1165 701.46 1177.72 698.963 1181.98 C 696.285 1182.98 694.339 1183.37 692.529 1185.54 C 693.327 1186.38 694.125 1187.22 694.923 1188.06 L 693.882 1189.55 C 682.994 1194.92 644.421 1175.27 644.141 1164.38 C 645.68 1159.92 647.967 1160.72 650.825 1158.06 C 653.787 1155.47 649.093 1154.13 650.592 1151.23 C 656.837 1139.14 654.546 1138.13 651.252 1126.59 C 652.314 1121.71 653.441 1114.02 654.087 1109.28 C 655.178 1101.28 649.365 1093.99 656.6 1089.27 L 656.837 1087.96 C 654.348 1086.67 655.082 1087.39 653.423 1085.32 C 655.568 1083.18 659.456 1080.38 657.339 1077.4 C 650.673 1083.89 647.072 1079.51 639.815 1076.09 C 637.131 1074.82 637.632 1073.71 636.837 1070.79 L 636.565 1069.31 C 634.196 1070.81 634.243 1070.99 631.545 1071.5 C 627.309 1064.13 620.639 1065.68 614.803 1070.21 L 618.617 1071.08 L 618.828 1072.15 C 614.433 1076.11 609.909 1079.92 605.264 1083.58 C 603.152 1083.71 602.194 1083.5 600.143 1082.98 L 597.87 1084.41 L 598.898 1088.29 L 597.63 1090.25 C 593.572 1092.09 590.696 1089.31 584.534 1090.05 C 578.345 1097.01 583.087 1091.32 578.371 1093.35 C 579.645 1096.22 579.766 1095.03 579.287 1097.43 C 574.946 1098.46 571.206 1096.1 565.43 1096.34 L 564.786 1099.45 L 562.779 1099.47 C 550.691 1091.73 551.063 1096.13 542.992 1101.19 C 540.121 1103 535.104 1095.51 526.666 1098.02 C 526.284 1100.24 526.439 1099.25 527.508 1101.87 C 521.385 1102.73 518.686 1099.22 514.111 1095.61 C 510.601 1097.39 508.071 1097.63 504.821 1099.2 L 504.452 1102.94 C 502.116 1104.46 503.358 1104.15 500.581 1103.56 C 498.601 1101.34 498.653 1100.9 496.08 1099.67 C 496.628 1102.1 496.781 1102.07 496.348 1104.48 C 490.716 1106.92 489.501 1103.42 485.225 1102.11 C 478.42 1100.04 465.951 1107.85 458.532 1107.6 C 450.772 1107.33 446.27 1106.34 440.764 1100.88 C 423.935 1103.32 404.446 1100.01 390.33 1089.98 C 385.204 1086.34 374.17 1075.5 368.28 1076.91 C 369.268 1079.38 369.734 1079.22 372.055 1081.18 C 368.987 1087.47 383.078 1105.84 374.135 1113.87 L 370.162 1112.2 C 354.507 1116.85 348.942 1106.99 342.788 1094.49 C 338.964 1086.71 335.338 1076 333.208 1067.63 C 334.307 1065 335.306 1063.39 335.05 1060.58 L 330.352 1056.69 C 331.727 1054.15 333.271 1055.45 337.443 1053.46 L 333.628 1032.66 C 334.837 1031.31 336.15 1030.19 337.561 1029.06 C 336.345 1024.78 336.466 1030.1 333.183 1024.36 C 333.677 1021.67 334.116 1020.76 333.395 1018.15 L 330.123 1017.79 C 322.82 1010.5 333.725 999.347 330.089 992.129 C 325.045 989.721 324.03 990.003 322.962 984.462 C 324.274 981.27 324.564 981.975 328.355 979.759 C 329.914 975.311 319.989 971.459 320.652 968.807 C 323.744 956.442 321.193 947.516 318.775 935.693 C 320.02 933.067 321.526 930.982 320.891 928.334 C 318.422 926.496 319.487 926.838 316.678 926.278 L 316.745 930.836 L 315.545 931.595 C 311.861 930.239 309.001 928.937 305.426 927.296 L 293.694 932.495 C 292.317 931.866 291.28 931.362 289.949 930.684 L 288.85 931.838 L 290.474 934.29 C 290.555 938.44 287.398 934.872 285.509 939.017 C 288.733 941.579 289.328 941.196 290.554 944.447 C 289.381 946.101 289.165 946.432 288.128 948.265 C 288.994 953.362 292.546 959.677 292.941 961.58 C 293.848 965.937 286.566 983.145 284.29 987.233 C 278.052 989.16 283.281 985.931 277.975 986.344 C 277.755 990.325 277.077 988.842 279.25 991.271 C 282.027 991.574 282.734 991.568 285.357 992.415 C 285.116 995.251 285.662 994.045 283.549 996.096 C 268.114 999.917 276.654 1004.8 273.62 1017.76 C 273.186 1019.61 265.586 1023.89 263.416 1025.36 C 263.606 1026.91 263.769 1028.46 263.905 1030.01 C 253.301 1042.94 249.971 1059.99 233.722 1070.24 C 224.812 1075.86 229.705 1071.64 223.477 1073.9 L 223.39 1075.2 C 226.27 1076.44 226.961 1076.52 229.339 1078.61 L 228.623 1080.61 C 223.546 1081.72 225.563 1077.86 219.443 1078.05 L 218.429 1079.46 C 221.174 1080.92 220.351 1080.12 222.153 1082.5 L 220.82 1084.4 C 204.698 1085.56 213.464 1096.07 201.642 1099.86 C 199.359 1097.62 200.111 1096.87 199.766 1092.65 L 198.875 1092.64 C 198.438 1093.64 195.526 1100.15 195.294 1100.24 C 189.754 1102.33 183.392 1102.6 179.667 1107.74 C 177.416 1110.84 175.534 1112 171.895 1111.96 L 170.915 1109.61 L 169.847 1109.26 L 168.633 1110.99 L 169.77 1113.04 L 169.457 1113.87 C 153.377 1117.1 157.206 1125.67 150.539 1128.83 L 149.613 1126.48 C 145.994 1127.78 143.069 1128.48 139.328 1129.42 C 132.951 1124.46 131.024 1123.47 124.091 1119.76 C 107.992 1111.13 107.509 1131.65 93.0903 1117.82 C 90.1423 1108.86 102.262 1107.51 100.754 1098.69 C 99.091 1088.96 83.2878 1077.88 84.3937 1067.83 C 85.8305 1066.8 87.2733 1065.77 88.7221 1064.74 C 86.7106 1063.27 84.6659 1062.06 82.5495 1060.75 L 82.3277 1059.32 C 85.4759 1059.49 84.4747 1060.02 86.6533 1058.78 C 85.4494 1056.72 84.4123 1056.92 81.5991 1055.77 C 77.4431 1050.48 83.9617 1054.76 82.3078 1048.47 C 81.57 1045.67 77.373 1042.85 77.5683 1038.59 L 80.4521 1036.9 L 80.5029 1035.57 L 76.697 1033.23 L 76.5571 1031.73 C 78.9426 1030.43 79.4482 1030.21 81.5048 1028.48 C 80.756 1022.54 80.4489 1029.2 77.372 1024.39 L 80.412 1021.71 L 80.1808 1020.54 C 78.2879 1020.13 78.1276 1020.08 76.2057 1019.43 L 76.4105 1017.79 C 78.7711 1016.81 80.3687 1016.4 82.1163 1014.53 L 80.79 1012.44 C 76.0182 1010.63 74.967 1010.98 73.8478 1005.96 C 75.4232 1002.8 74.8046 1003.83 79.167 1002.18 C 80.0569 996.795 77.4991 1003.23 76.2844 996.774 L 77.961 994.473 L 81.2463 994.49 C 82.8461 990.583 78.6947 992.032 79.4616 986.642 L 82.7257 985.799 C 83.0164 982.251 80.6923 972.765 79.8486 968.711 C 80.8844 967.871 81.9 967.008 82.8947 966.12 C 91.5703 958.433 89.661 959.614 90.5044 949.396 C 91.0551 942.725 90.8359 936.905 90.7968 930.219 L 93.2436 929.214 C 105.738 931.826 98.9191 928.663 103.663 924.956 L 105.464 925.408 C 109.925 931.53 114.654 931.192 121.25 934.927 C 128.264 938.899 124.728 938.511 126.962 945.768 L 136.594 950.4 C 132.47 952.737 127.965 954.346 128.723 959.653 C 131.336 962.642 131.782 963.008 133.446 966.527 C 133.171 974.226 125.019 975.732 125.556 982.077 C 128.647 982.566 128.819 982.491 131.63 983.75 L 132.202 986.038 C 128.978 989.751 123.122 986.137 119.971 988.998 C 127.745 994.549 119.848 994.15 123.59 1001.67 C 127.074 1002.2 125.971 1001.55 128.513 1003.48 L 128.176 1005.21 L 124.525 1006.17 L 124.736 1007.51 L 128.437 1008.55 L 128.588 1010.28 C 127.186 1010.72 126.358 1010.95 124.898 1011.27 L 123.671 1011.52 C 123.17 1012.61 122.549 1014.54 123.254 1015.28 C 126.208 1018.37 120.526 1034.58 120.974 1034.94 C 126.123 1039.1 125.122 1038.35 126.791 1046.55 L 124.908 1049.33 L 125.703 1050.34 C 126.858 1049.36 128.043 1048.41 129.254 1047.5 L 131.771 1050.37 C 136.277 1055.45 134.345 1054.01 137.041 1059.13 C 143.667 1059.55 149.02 1059.65 155.667 1059.62 C 157.693 1055.16 175.165 1043.54 179.14 1041.62 L 180.413 1043.11 L 181.635 1042.94 L 179.921 1039.75 L 181.019 1038.2 C 197.32 1032.72 195.212 1028.25 201.025 1025.89 C 203.856 1027.04 202.856 1027.09 205.575 1026.86 C 206.932 1025.25 216.442 1013.72 216.361 1013.75 C 232.952 1008.74 227.088 1007.21 233.991 994.877 C 236.034 994.54 237.089 994.724 239.121 995.106 L 239.724 994.092 C 238.104 992.235 238.058 992.264 237.016 990.055 L 238.184 988.542 L 240.473 988.789 L 241.253 988.009 L 239.107 985.031 L 240.018 983.591 C 243.086 982.687 245.004 982.523 246.962 980.053 L 246.167 976.009 C 248.663 973.757 250.478 972.718 251.007 969.478 L 248.543 966.935 C 248.198 964.145 247.96 965.432 249.652 963.085 L 252.901 963.708 C 256.725 958.756 257.266 953.508 260.518 948.097 C 262.014 945.607 262.477 946.26 266.27 945.29 C 267.565 941.81 266.489 939.335 264.326 936.543 L 263.332 937.3 C 263.566 939.677 263.938 938.743 262.704 940.248 C 258.884 940.478 258.689 940.723 255.007 939.337 L 253.943 936.022 L 252.71 936.444 C 252.191 938.349 251.78 940.162 251.647 942.134 L 249.636 943.632 C 245.054 943.34 244.916 939.855 240.893 939.569 C 237.421 944.534 237.049 947.657 231.163 947.507 L 230.82 946.695 C 232.055 944.033 232.027 945.051 231.904 942.419 L 229.253 942.163 C 224.697 945.702 228.066 946.473 224.085 949.769 C 217.557 950.003 215.644 949.88 210.533 945.83 C 207.69 949.395 207.368 951.006 202.736 951.124 L 201.334 949.22 L 203.426 946.17 C 201.209 946.157 192.896 951.176 189.418 952.663 C 182.893 951.058 188.059 950.55 182.601 948.153 L 179.431 951.23 L 178.215 951.082 C 177.904 948.673 178.084 948.729 176.442 946.991 L 167.677 947.692 C 160.682 942.916 149.256 916.331 153.531 909.427 L 156.289 909.506 C 160.194 897.608 166.986 898.487 176.303 903.914 L 177.446 904.593 L 177.707 903.256 C 176.386 899.864 176.166 899.725 175.895 895.968 C 178.01 893.313 176.64 894.399 180.791 893.524 L 181.918 894.445 C 181.48 896.64 180.835 898.691 180.066 900.793 C 187.726 900.575 193.016 900.986 200.688 901.606 C 201.388 897.052 202.078 896.325 206.12 894.904 C 209.984 897.484 212.142 899.414 216.559 898.82 C 218.48 895.585 214.176 896.527 214.57 891.734 C 222.861 889.542 217.325 894.271 222.806 896.662 C 224.501 893.543 224.791 892.438 227.777 890.45 C 231.072 890.67 229.564 890.168 232.373 892.246 L 231.998 893.577 L 228 895.676 C 229.336 895.694 232.253 895.878 233.003 896.822 C 235.468 899.922 237.887 892.492 243.502 892.065 C 243.822 894.666 243.404 893.788 244.868 895.804 C 247.947 895.883 250.612 896.161 253.595 895.426 C 250.671 893.948 250.033 893.767 247.472 891.627 L 248.285 890.219 C 255.297 889.706 262.793 892.237 266.833 891.538 L 268.57 887.928 L 270.167 888.103 C 271.701 891.045 272.646 893.872 275.4 895.439 C 276.769 891.444 276.681 890.326 279.616 888.129 C 285.312 888.645 291.585 892.449 296.869 895.177 C 298.89 893.16 300.903 886.044 303.891 881.614 L 305.313 881.601 C 305.597 884.65 304.94 883.634 306.48 885.605 C 308.448 882.366 307.168 883.195 309.983 881.678 C 310.046 881.7 312.996 882.702 313.06 882.761 C 315.986 885.455 335.457 883.452 339.513 882.54 C 341.058 869.272 358.203 884.528 366.941 879.406 C 371.474 876.75 373.665 880.075 377.061 882.797 L 377.913 881.595 C 376.632 879.104 375.338 877.42 373.725 875.167 L 374.463 873.924 L 377.172 874.166 C 380.656 877.879 381.465 879.445 386.455 879.721 C 387.631 878.607 388.602 877.488 389.6 876.219 L 392.67 876.385 C 394.829 878.175 394.889 878.51 397.501 879.343 C 400.48 878.914 400.786 878.927 403.384 877.142 C 410.041 872.57 406.091 876.946 411.386 877.652 L 410.406 875.117 L 411.021 874.273 C 415.646 875.106 413.943 874.028 416.878 876.684 L 416.81 879.823 L 417.639 880.549 C 418.56 878.554 418.281 879.254 418.983 877.41 L 419.426 876.221 C 426.1 873.12 433.192 878.301 439.578 878.393 C 443.384 877.333 447.257 874.792 450.967 873.472 C 457.972 870.979 458.928 874.031 464.109 875.499 L 464.287 873.169 C 466.344 871.313 465.124 871.925 468.324 871.955 C 468.922 874.534 469.019 874.908 470.089 877.318 C 474.909 878.773 472.939 874.768 479.488 874.177 C 480.521 876.297 479.779 875.64 481.341 876.504 C 482.807 874.098 483.008 873.168 485.463 871.871 C 489.755 872.184 490.877 874.711 495.21 875.401 C 496.725 873.133 496.829 872.563 499.002 871.01 C 501.787 872.646 501.04 872.812 502.427 876.874 C 504.217 876.532 506.32 875.158 508.035 874.231 C 511.141 875.077 510.562 875.112 513.218 877.347 C 516.635 877.305 515.204 877.846 517.764 875.998 L 516.348 872.593 L 517.479 871.654 L 520.059 872.104 C 523.125 874.937 524.35 876.955 528.57 875.636 C 528.299 872.9 528.174 873.886 529.049 871.24 C 534.764 868.099 533.997 872.649 541.542 868.334 z" fill="rgb(0,0,0)" transform="translate(0,0)"></path>
<path d="M 511.083 978.612 C 517.23 981.705 515.933 983.552 523.54 981.254 C 531.493 978.851 540.258 989.316 549.521 984.026 L 550.318 980.166 L 551.649 980.253 C 552.98 982.215 553.329 982.777 554.882 984.571 C 558.47 981.977 557.201 982.085 560.882 982.126 C 566.069 984.825 565.805 988.434 570.05 991.087 C 570.622 990.419 571.194 989.752 571.766 989.085 C 573.585 985.156 580.517 995.41 586.277 995.217 L 588.575 992.133 C 595.308 992.398 611.505 1007.63 613.043 1016.49 L 611.994 1017.56 L 609.214 1015.95 C 604.818 1019.31 610.887 1023.83 600.49 1029.18 L 600 1030.98 C 601.169 1032.4 601.75 1033.15 602.753 1034.69 C 597.953 1034.84 596.227 1035.16 591.503 1036.16 C 592.8 1039.25 592.929 1039.23 593.25 1042.5 C 590.999 1044.29 592.314 1043.61 588.209 1043.15 L 587.407 1044.07 L 589.435 1047.67 C 587.687 1047.9 587.751 1048.2 586.84 1047.32 C 578.021 1038.8 574.819 1052.52 567.17 1055.86 C 562.931 1057.72 553.942 1057.23 548.607 1058.26 L 547.694 1060.91 L 546.37 1061.1 L 545.71 1057.59 C 543.249 1056.49 544.573 1056.69 541.562 1057.75 L 540.289 1061.32 C 536.209 1064 539.239 1059.4 536.703 1060.19 C 524.452 1064.01 513.236 1071.39 502.713 1060.09 L 501.279 1060.36 C 501.261 1061.91 501.217 1062.56 501.078 1064.06 C 499.041 1062.69 498.845 1061.87 497.398 1059.75 C 493.659 1060.1 497.191 1062.1 491.941 1065.96 C 490.643 1065.07 489.323 1064.2 487.982 1063.37 C 481.845 1067.53 477.348 1068.7 469.962 1068.19 C 468.256 1066.69 467.219 1065.33 465.884 1063.49 L 464.313 1063.86 C 464.674 1066.89 465.069 1065.67 464.004 1068.05 C 460.759 1067.18 460.718 1065.91 458.071 1062.68 C 455.191 1062.41 454.059 1064.23 450.946 1066.52 C 447.313 1066.54 441.503 1064.02 437.848 1062.69 C 434.871 1065.04 430.133 1065.73 426.693 1064.12 C 419.375 1060.69 410.832 1059.41 403.899 1054.97 C 400.842 1043.82 405.137 1043.67 410.013 1035.57 C 409.932 1034.58 409.652 1029.6 410.226 1029.17 C 415.943 1024.94 426.166 1023.88 429.029 1017.36 C 428.338 1012.88 427.346 1012.96 431.143 1011.06 C 434.884 1013.19 435.227 1013.84 438.702 1011.82 C 440.163 1008.56 439.82 1010.38 438.454 1005.99 L 439.381 1005.15 C 441.113 1005.92 442.735 1006.59 444.495 1007.29 C 450.304 1001.65 455.753 995.615 461.617 990.193 C 465.163 990.787 468.815 997.972 474.616 990.966 C 473.209 989.292 473.957 990.221 472.367 988.148 C 475.717 986.176 476.11 990.718 480.634 989.837 C 480.757 987.409 480.612 987.324 481.566 985.135 C 491.102 982.803 499.488 985.477 508.139 982.715 C 510.514 981.957 509.9 981.616 511.083 978.612 z" fill="rgb(254,254,254)" transform="translate(0,0)"></path>
<path d="M 691.032 939.069 C 701.506 941.875 711.774 941.34 721.633 944.932 C 725.798 946.45 731.648 950.812 736.003 947.893 C 742.566 943.493 748.931 951.916 755.375 951.57 L 757.941 948.573 L 759.416 948.723 C 758.97 951.908 758.548 950.581 759.895 952.998 L 762.089 953.1 L 763.469 950.694 C 766.059 950.017 771.809 953.344 774.958 954.756 C 778.032 953.763 778.363 953.21 781.312 953.687 L 781.949 956.374 L 783.167 956.771 L 785.155 954.742 C 790.759 955.513 791.182 962.14 801.437 957.867 C 805.567 956.147 807.942 964.477 812.115 967.753 C 813.512 966.387 813.492 965.15 814.158 962.992 L 815.363 962.861 C 817.559 967.111 812.648 965.445 814.191 974.059 C 811.34 977.458 802.902 977.133 800.49 979.866 C 802.235 981.98 802.041 981.155 802.626 983.543 C 799.088 983.409 795.002 980.39 791.568 978.426 C 782.162 989.648 781.847 982.735 775.01 987.5 L 773.794 989.734 C 766.307 990.439 763.926 988.982 757.252 989.26 C 754.575 991.079 755.155 992.073 754.032 996.188 C 750.557 998.105 742.412 990.061 733.615 997.468 C 735.255 998.309 739.479 997.118 741.773 996.717 L 742.081 997.467 C 732.196 1005.94 726.231 995.305 717.362 1003.53 C 711.439 1009.02 708.277 995.936 700.537 1004.6 C 702.217 1007.2 704.145 1007.21 707.679 1008.66 L 707.15 1009.31 C 703.314 1009.37 696.989 1007.16 693.063 1006.01 C 691.86 993.282 695.532 992.766 695.791 983.441 L 693.507 981.741 L 693.414 980.707 C 695.819 979.887 695.79 979.982 697.793 978.463 L 697.866 975.892 C 696.081 974.049 696.579 974.722 695.292 972.383 L 698.624 969.63 L 698.395 968.105 L 695.548 967.729 C 697.908 964.677 696.505 963.836 695.037 960.608 L 692.439 959.993 L 691.928 959.012 L 693.368 957.979 C 695.261 953.5 692.532 958.19 692.178 953.381 L 695.381 952.639 L 695.63 950.972 C 688.141 944.363 694.166 948.776 691.032 939.069 z" fill="rgb(254,254,254)" transform="translate(0,0)"></path>
<path d="M 1262.57 877.165 C 1277.47 878.07 1274.15 882.986 1287.22 883.273 L 1290.58 879.768 C 1293.18 879.869 1292.17 879.315 1293.86 881.121 C 1293.5 884.242 1293.19 884.887 1294.05 887.925 C 1295.49 887.961 1296.2 888.134 1297.44 887.685 C 1304.57 885.113 1308.57 887.197 1315.82 889.309 C 1318.69 886.842 1319.16 886.593 1322.45 886.987 C 1325.24 889.276 1329.26 891.676 1331.1 894.016 L 1329.32 896.327 C 1331.14 899.65 1333.61 896.454 1335.97 897.22 C 1341.99 899.173 1348.86 905.951 1355.46 903.702 C 1368.45 890.517 1370.21 907.601 1374.84 909.945 C 1375.61 910.333 1389.24 906.539 1393.59 908.288 C 1392.65 909.753 1393.1 908.929 1392.29 910.792 C 1407.52 920.394 1414.13 914.178 1425.95 919.162 L 1427.28 922.636 L 1428.51 922.141 C 1428.84 919.584 1428.67 918.05 1430.34 916.215 C 1435.48 916.959 1433.43 919.21 1438.85 921.578 C 1441.43 920.326 1441.36 920.245 1444.16 919.87 C 1448.09 921.155 1448.77 923.148 1451.14 926.783 L 1452.06 928.194 L 1453.88 928.345 L 1452.57 924.874 L 1453.98 923.97 C 1461.53 923.699 1464.92 927.179 1471.64 931.084 C 1472.98 931.863 1472.21 933.219 1471.79 934.98 L 1472.89 935.553 C 1476.25 934.148 1480.1 932.448 1483.59 933.637 C 1484.73 938.169 1484.95 936.169 1483.93 940.027 L 1480.87 940.703 L 1483.78 941.537 C 1485.28 941.105 1489.81 939.814 1490.73 940.907 C 1497.23 948.655 1498.4 950.009 1507.1 954.785 C 1506.61 957.928 1506.61 958.215 1506.77 961.398 C 1512.69 969.518 1513.57 976.302 1508.95 985.518 C 1509.73 983.974 1504.54 987.17 1504.83 986.942 L 1506.72 989.51 C 1504.45 993.696 1506.51 989.273 1502.2 991.091 C 1503.36 992.827 1503.06 991.878 1503.12 993.932 C 1492.82 1001.46 1486.11 1000.49 1476.85 1005.17 L 1477.9 1007.94 L 1476.66 1009.19 C 1471.92 1009.57 1469.95 1006.36 1463.47 1006.33 C 1462.02 1010.51 1464.79 1006.24 1466.39 1011.74 L 1464.46 1012.47 C 1463.25 1011.87 1462.28 1011.37 1461.1 1010.69 L 1460.09 1010.11 C 1460.52 1009.56 1457.17 1013.93 1458.14 1013.14 C 1455.52 1015.27 1444.4 1017.06 1440.8 1018.69 C 1438.46 1018.2 1439.63 1018.37 1437.28 1018.16 C 1436.97 1019.95 1436.91 1020.25 1436.39 1022.07 C 1430.61 1023.29 1425.01 1019.39 1419.87 1016.6 L 1419 1017.75 L 1420.58 1020.31 L 1420.09 1021.23 C 1418.8 1021.07 1417.64 1020.81 1416.39 1020.46 C 1414.51 1022.35 1414.05 1023.16 1411.57 1024.11 L 1409.14 1022.32 C 1395.72 1031.87 1397.85 1024.4 1383.3 1025.49 C 1378.49 1025.84 1368.93 1031.02 1363.98 1032.56 C 1363.98 1032.56 1358.31 1031.13 1357.85 1031.01 L 1356.29 1032.18 L 1356.96 1034.89 L 1356 1036.23 C 1353.07 1035.55 1354.09 1035.39 1351.41 1035.98 C 1351.56 1038.55 1351.16 1037.35 1352.69 1039.54 L 1357.71 1038.84 C 1363.54 1041.16 1358.96 1047.58 1362.68 1050.11 C 1367.31 1053.25 1382.79 1055.06 1386.02 1058.09 C 1386.74 1058.77 1385.39 1062.17 1388.13 1065.69 L 1389.54 1065.53 L 1391.85 1062.39 L 1393.64 1062.15 C 1396.33 1069.27 1421.56 1074.5 1426.15 1079.61 C 1425.5 1082.71 1425.3 1083.35 1425.24 1086.59 L 1426.99 1088.1 L 1428.52 1087.97 C 1428.16 1083.81 1427.39 1083.86 1429.32 1081.5 L 1430.35 1081.95 C 1430.86 1084.45 1430.92 1085.75 1431.1 1088.27 C 1434.6 1092.2 1435.48 1089.64 1441.03 1090.9 C 1446.35 1092.1 1441.56 1091.96 1444.18 1095.73 C 1445.58 1095.19 1446.98 1094.67 1448.39 1094.16 C 1454.17 1096.71 1462.39 1102.51 1467.73 1106.39 C 1476.03 1112.41 1483.39 1110.17 1492.1 1113.97 C 1492.93 1114.33 1492.78 1114.74 1495.35 1115.68 C 1496.77 1110.29 1492.96 1108.75 1494.54 1104.41 C 1497.4 1104.04 1496.51 1104.57 1498.58 1103.03 C 1498.15 1098.99 1497.54 1094.19 1497.93 1090.17 C 1498.2 1087.26 1500.55 1087.95 1499.22 1082.8 C 1498.4 1079.62 1498.21 1078.77 1499.13 1075.57 C 1499.93 1074.68 1502.36 1072.19 1502.45 1071.02 C 1502.98 1064.02 1495.67 1053.75 1492.21 1048.5 C 1494.89 1043.95 1495.28 1041.7 1496.71 1036.69 C 1501.9 1033.84 1496.56 1037.9 1502.41 1037.16 C 1506.4 1029.71 1510.67 1022.41 1515.19 1015.27 C 1514.53 1012.42 1514.18 1012.3 1515.18 1009.67 C 1516.52 1009.32 1517.85 1008.95 1519.17 1008.56 C 1517.67 1004.1 1518.02 1009.53 1516.32 1004.67 C 1517.88 1002.62 1519.15 1001.07 1520.81 999.132 C 1520.25 997.376 1519.71 995.615 1519.18 993.849 L 1520.32 992.213 C 1522.91 992.309 1522.27 992.406 1524.81 991.912 C 1525.62 988.44 1523.15 985.779 1522.21 981.594 C 1525.12 978.331 1527.86 977.462 1531.81 975.608 L 1531.78 974.517 L 1528.5 973.108 L 1528.74 971.796 L 1531.96 970.831 L 1532.31 969.928 C 1529.55 967.769 1530.15 968.84 1528.86 965.972 L 1530.21 964.594 L 1534.95 964.696 C 1535.56 961.575 1533.42 964.062 1531.49 958.627 C 1532.43 957.648 1533.08 957.023 1533.93 955.917 C 1535.54 953.791 1534.84 951.163 1534.52 948.711 L 1534.36 947.508 L 1535.44 947 L 1539.2 949.963 C 1540.22 947.951 1538.54 938.564 1538.32 934.987 C 1540.6 932.983 1540.68 933.126 1543.34 931.583 C 1544.45 927.767 1544.32 929.284 1542.46 924.883 C 1542.93 920.164 1545.77 915.357 1548.72 911.867 C 1554.69 904.801 1549 908.687 1548.9 901.619 C 1551.14 899.538 1553.65 898.91 1556.64 899.214 C 1586.54 902.255 1612.76 934.332 1631.14 955.422 C 1630.9 960.003 1628.38 957.889 1627.95 961.888 C 1630.57 962.083 1629.3 961.835 1631.75 962.61 C 1632.02 965.402 1631.83 966.612 1632.97 969.068 C 1634.95 967.789 1633.94 968.038 1635.94 968.031 C 1639.03 971.758 1641.47 981.127 1642.94 986.072 C 1648.91 988.108 1658.71 990.06 1660.2 996.44 C 1655.21 1007.89 1664.55 1005.58 1669.37 1014.71 C 1671.3 1018.37 1667.68 1017.88 1670.04 1021.78 C 1672.65 1021.23 1672.65 1021.17 1675.29 1021.35 C 1677.28 1025.87 1681.6 1039.71 1685.12 1041.17 L 1684.92 1038.6 C 1689.3 1041.81 1696.25 1049.31 1697.15 1054.85 C 1697.43 1056.63 1695.67 1057.94 1694.22 1059.73 L 1694.55 1060.8 L 1696.01 1061.23 C 1695.16 1063.32 1693.81 1063.28 1691.08 1064.6 L 1691.31 1066.04 L 1695.54 1068.11 L 1695.69 1069.39 L 1692.42 1070.94 L 1692.06 1072.41 L 1695.28 1073.79 L 1695.39 1075.08 L 1692.86 1076.87 L 1692.65 1078.19 C 1695.84 1079.9 1698.88 1080.27 1700.71 1082.93 C 1699.66 1084.53 1698.69 1085.9 1697.57 1087.45 C 1698.17 1087.97 1702.2 1089.78 1703.94 1091.15 C 1704.06 1093.87 1704.24 1092.53 1702.73 1095.1 C 1705.83 1102.05 1712.8 1111.77 1717.75 1117.79 C 1721.21 1122 1720.32 1121.26 1719.04 1126.42 L 1718.12 1126.43 L 1717.13 1127.56 C 1710.11 1134.75 1699.04 1120.51 1694.46 1115.58 C 1694.75 1114.99 1695.05 1114.4 1695.34 1113.81 C 1695.48 1113.23 1695.61 1112.65 1695.75 1112.07 C 1691.34 1107.94 1678.74 1097.76 1676.78 1092.39 C 1678.17 1090.79 1677.87 1091.67 1677.96 1089.88 L 1673.72 1088.35 C 1672 1085.48 1672.54 1087.14 1673.5 1082.72 L 1672 1080.52 L 1669.91 1081.3 C 1667.21 1079.43 1666.14 1073.47 1662.9 1069.96 C 1653.99 1060.31 1645.19 1067.74 1637.16 1063.91 C 1636.96 1062.32 1636.75 1060.74 1636.51 1059.17 C 1629.83 1057.3 1629.58 1061.61 1626.76 1062.64 C 1618.97 1065.49 1604 1056.16 1595.29 1060.62 C 1585.82 1065.48 1580.92 1057.73 1571.29 1058.95 C 1562.05 1060.25 1553.92 1061.92 1544.77 1062.18 L 1543.24 1062.22 L 1541.86 1063.85 C 1539.61 1064.27 1540.77 1064.33 1538.36 1062.86 C 1535.07 1067.45 1538.69 1067.42 1535.19 1072.35 L 1530.65 1072 L 1529.45 1073.04 C 1530.98 1075.45 1530.68 1074.68 1531.55 1077.37 C 1527.43 1078.54 1524.45 1078.67 1523.58 1083.17 C 1525.11 1086 1526.9 1087.76 1524.58 1090.3 L 1521.02 1090.14 L 1520.11 1091.03 C 1520.31 1093.02 1520.41 1094.32 1520.42 1096.33 L 1519.01 1097.1 L 1516.18 1095.18 L 1514.71 1095.68 C 1513.02 1100.66 1514.78 1105.63 1514.71 1110.68 C 1514.72 1110.33 1510.38 1116.01 1509.47 1117.89 C 1510.71 1121.33 1510.65 1122.48 1513.02 1124.99 L 1514.96 1122.98 L 1516.33 1123.01 C 1517.71 1125.36 1517.63 1125.89 1519.95 1127.12 L 1523.01 1125.32 C 1529.33 1127.75 1529.21 1129.36 1531.76 1135.26 C 1533.46 1133.51 1533.69 1133.11 1535.75 1131.86 C 1538.36 1133.39 1537.23 1133.72 1538.46 1135.45 C 1547.62 1148.32 1571.38 1147.31 1563.94 1170.96 C 1562.07 1172.89 1557.32 1173.56 1554.42 1174.24 C 1553.56 1175.44 1552.94 1176.61 1552.4 1177.99 C 1547.5 1178.88 1540.6 1179.15 1535.87 1177.32 L 1536.52 1175.28 C 1533.93 1173.18 1532.46 1176.89 1526.95 1175.74 C 1524.69 1173.36 1525.17 1172.55 1524.31 1168.8 C 1517.94 1168.75 1514.26 1177.16 1508.75 1172.52 C 1510.78 1169.6 1510.48 1170.87 1510.82 1167.64 C 1507.59 1163.56 1505.84 1163.08 1500.71 1162.26 C 1499.06 1162 1495.78 1154.63 1492.9 1151.49 C 1482.62 1148.05 1487.56 1153.09 1480.23 1154.83 C 1480.28 1153.29 1480.27 1152.4 1480.23 1150.89 C 1473.15 1149.39 1467.18 1149.41 1460.05 1147.24 L 1459.25 1143.72 L 1457.75 1143.07 C 1457.15 1145.28 1457.07 1145.75 1456.06 1147.78 C 1453.75 1146.67 1451.62 1142.66 1448.58 1139.82 L 1448.43 1142.69 C 1444.11 1142.41 1446.91 1139.05 1442.74 1137.86 L 1441.36 1140.11 C 1439.23 1139.87 1413.55 1125.26 1409.93 1123.22 C 1407.66 1121.95 1405.6 1124.02 1403.57 1125.13 L 1401.65 1124.48 L 1399.56 1119.45 C 1391.79 1118.15 1380.53 1116.09 1377.4 1107.98 L 1379.19 1106.44 L 1378.47 1105.11 L 1376.75 1104.71 L 1376.17 1106.26 L 1375.59 1107.87 C 1370.35 1106.78 1366.13 1099.46 1365.32 1099.23 C 1363.52 1098.7 1356.36 1100.38 1352.36 1096.73 L 1352.78 1094.01 L 1351.49 1093.02 C 1347.28 1094.23 1345.98 1093.43 1341.37 1095.17 L 1340.37 1095.56 L 1341.54 1091.28 L 1340.39 1090.7 C 1337.87 1093.59 1332.84 1111.12 1334.05 1114.29 C 1335.66 1114.4 1337.27 1114.5 1338.89 1114.58 L 1339.34 1116.39 L 1338.03 1117.63 C 1332.15 1123.2 1337.78 1119.22 1337.59 1128.18 C 1335.17 1131.35 1335.64 1130.39 1330.87 1131.76 C 1329.25 1136.32 1335.32 1141.6 1336.72 1147.42 C 1330.37 1159.36 1337.29 1156.12 1340.81 1159.49 C 1338.96 1162.03 1335.47 1162.34 1331.7 1163.69 L 1331.62 1165.26 C 1333.61 1167.33 1333.73 1167.31 1335.03 1169.82 C 1332.69 1174.75 1328.42 1177.55 1323.32 1179.09 C 1315.58 1175.85 1293.66 1165.84 1289.76 1158.49 L 1291.64 1156.59 C 1290.51 1155.94 1289.64 1155.4 1288.55 1154.7 C 1289.51 1152 1292.44 1150.95 1295.5 1148.55 L 1293 1147.14 C 1291.91 1143.82 1289.99 1143.11 1289.54 1139.97 C 1294.01 1138.78 1297.03 1138.91 1298.88 1134.55 C 1297.61 1131.02 1296.65 1131.2 1293.22 1128.37 C 1293 1117.56 1298.53 1116.32 1298.46 1110.88 L 1295.74 1109.6 C 1293.61 1104.82 1297.63 1096.31 1296.26 1090.59 C 1295.78 1088.62 1295.87 1088.68 1296.02 1086.56 L 1299.58 1085.73 L 1299.81 1084.31 C 1297.94 1082.12 1296.32 1080.71 1295.69 1077.95 L 1296.81 1076.66 C 1299.17 1076.2 1300.29 1076.05 1302.52 1075.21 L 1298.7 1072.94 C 1299.76 1070.5 1299.26 1071.58 1301.93 1069.68 L 1300.16 1069.37 C 1300.9 1066.53 1301.88 1064.31 1301.08 1061.58 C 1293.95 1057.74 1284.69 1064.7 1276.97 1064.96 C 1275 1064.98 1259.78 1061.62 1259 1062.14 C 1248.67 1069.11 1243.92 1067.88 1233.09 1060.67 C 1227.97 1057.26 1218.25 1044.52 1219.68 1036.94 C 1224.14 1035.13 1222.15 1038.32 1227.61 1038.31 C 1229.34 1035.83 1230.74 1033.89 1232.65 1031.54 C 1240.11 1033.04 1239.39 1023.62 1242.39 1024.64 C 1255.38 1029.08 1257.7 1022.87 1268.93 1017.75 C 1273.33 1015.74 1280.81 1018.48 1287 1014.08 L 1286.68 1010.97 C 1289.86 1008.05 1294.26 1010.02 1297.92 1007.44 C 1296.43 1003.51 1294.94 1000.26 1294.43 996.081 C 1295.58 996.489 1296.73 996.897 1297.88 997.305 C 1298.92 993.993 1295.28 994.396 1295.69 990.667 C 1298.04 990.463 1296.84 990.649 1299.27 990.08 L 1298.89 988.073 C 1296.57 986 1295.91 985.394 1293.83 982.924 L 1294.29 981.466 C 1297.23 981.788 1296.15 981.941 1298.92 981.086 L 1299.34 978.992 C 1297.86 976.269 1295 975.931 1291.32 974.013 L 1291.4 972.591 L 1294.53 971.76 L 1294.72 970.571 C 1293.51 970.187 1292.3 969.804 1291.09 969.42 C 1293.73 958.362 1283.91 960.855 1291.44 951.44 C 1294.32 941.272 1283.11 936.696 1288.28 928.694 C 1283.21 924.449 1260.43 918.831 1251.6 908.756 C 1250.23 902.195 1259.65 883.768 1262.57 877.165 z" fill="rgb(0,0,0)" transform="translate(0,0)"></path>
<path d="M 1340.44 942.528 C 1342.29 943.126 1343.36 943.881 1345.02 944.88 C 1350.99 944.727 1356.51 946.593 1363.09 945.185 C 1367.68 944.203 1369.32 945.914 1372.42 948.765 C 1377.36 949.807 1381.99 945.963 1385.17 946.438 C 1389.68 947.114 1391.57 952.568 1397.54 951.797 L 1397.11 949.328 L 1398.14 948.519 L 1401.09 950.948 L 1402.73 950.131 L 1403.79 946.471 L 1405.1 946.032 C 1405.21 948.773 1405.16 948.824 1405.96 951.424 C 1408.72 952.747 1407.32 952.541 1410.29 952.145 L 1411.89 949.168 L 1413.37 949.402 C 1414.08 951.625 1413.65 950.963 1415.02 952.743 L 1417.28 951.365 C 1419.16 953.255 1418.84 952.984 1419.57 955.511 C 1423.33 956.821 1424.74 956.223 1428.9 955.608 L 1430.39 955.378 C 1430.15 957.788 1429.93 956.605 1431.21 958.891 L 1433.84 959.394 C 1441.26 955.508 1437.83 958.468 1441.24 961.343 C 1442.57 962.465 1450.65 963.541 1452.93 964.972 C 1456.34 967.103 1453.47 965.913 1455.15 971.441 L 1454.38 972.665 C 1450.37 973.498 1450.88 972.815 1446.25 970.88 C 1441.26 972.914 1433.73 975.692 1429.29 978.517 C 1426.33 980.393 1429.65 979.476 1424.42 979.888 C 1420.76 981.681 1411.36 987.195 1408.56 986.655 L 1407.24 983.729 L 1405.6 983.17 C 1404.57 984.332 1403.73 985.456 1402.89 986.75 C 1401.02 985.862 1400.93 985.612 1399.47 984.157 C 1396.04 985.201 1392.34 989.745 1389.51 992.618 C 1387.86 990.494 1387.88 990.036 1385.49 989.008 C 1381.18 992.86 1386.63 990.258 1382.53 994.775 C 1381.85 992.856 1381.56 992.226 1380.71 990.404 L 1378.5 989.918 L 1376.94 990.982 L 1377.71 994.863 L 1376.51 995.177 C 1373.4 993.889 1372.3 993.231 1368.88 992.964 L 1367.93 994.422 C 1369.38 996.551 1369.74 997.009 1370.74 999.346 L 1369.08 1000.3 C 1364.74 1000.39 1357.92 996.566 1353.58 994.574 C 1351.87 995.143 1350.39 995.954 1348.84 996.871 L 1348.1 995.683 C 1349.94 992.887 1349.7 994.074 1349.94 991.056 L 1346.51 987.768 C 1346.93 984.284 1349.61 987.145 1350.95 982.876 C 1349.21 980.61 1349.3 981.097 1348.28 978.561 L 1351.31 976.112 C 1350.97 972.008 1348.98 975.285 1347.01 970.578 C 1348.58 968.997 1348.31 969.293 1349.69 967.337 L 1342.94 957.888 C 1344.68 955.921 1344.22 956.757 1345.06 954.242 L 1341.79 953.422 C 1341.9 948.842 1341.08 946.91 1340.44 942.528 z" fill="rgb(254,254,254)" transform="translate(0,0)"></path>
<path d="M 1576.92 971.507 C 1580.93 971.324 1585.85 973.182 1588.01 976.568 L 1586.32 978.535 C 1590.46 985.91 1594.46 979.893 1597.29 993.806 L 1597.66 995.7 C 1602.66 999.249 1601.13 995.251 1605.7 998.061 C 1606.14 1001.11 1606 1002.29 1608.12 1004.51 C 1611.04 1004.75 1610.09 1004.39 1612.61 1005.59 C 1613.2 1009.43 1613.54 1011.65 1614.59 1015.35 L 1615.96 1015.8 L 1618.99 1013.71 L 1620.76 1014.29 L 1620.76 1015.91 C 1618.8 1017.22 1619.39 1016.68 1617.84 1018.56 C 1619.12 1020.75 1620.69 1020.96 1623.37 1022.38 L 1623.92 1024.33 L 1622.03 1026.59 C 1617.6 1027.74 1613.45 1025.13 1607.07 1024.69 C 1605.25 1026.14 1605.89 1025.75 1603.66 1026.73 C 1600.24 1023.34 1599.46 1023.01 1595.01 1021.04 L 1593.84 1020.54 C 1592.02 1022.44 1590.48 1023.75 1588.51 1025.45 L 1585.74 1022.28 C 1581.41 1022.14 1582.85 1025.47 1578.6 1026.09 L 1576.88 1023.32 C 1569.1 1027.62 1569.94 1020.68 1560.01 1020.93 C 1558.33 1023.1 1558.97 1022.57 1556.81 1024.15 L 1555.63 1021.96 L 1556.07 1020.86 L 1559.49 1020.33 C 1561.83 1016.88 1560.6 1017.26 1560.82 1012.29 C 1562.55 1011.76 1564.27 1011.2 1565.98 1010.6 C 1566.31 1008.34 1566.37 1009.5 1565.71 1007.14 C 1575.1 1000.02 1567.25 991.076 1571.82 983.596 C 1574.71 984.092 1573.63 984.238 1576.31 983.384 C 1577.79 979.704 1576.92 975.927 1576.92 971.507 z" fill="rgb(254,254,254)" transform="translate(0,0)"></path>
<path d="M 1961.04 858.687 L 1961.85 859.146 L 1962.13 862.271 C 1964.88 863.372 1969.65 866.267 1971.32 868.789 C 1969.42 872.723 1966.89 875.512 1969.18 879.952 C 1972.19 879.899 1971.22 879.682 1974 880.54 C 1973.33 881.505 1972.65 882.469 1971.98 883.434 C 1974.19 885.501 1975.78 887.117 1977.85 889.325 C 1978.35 893.311 1975.52 897.35 1973.68 902.023 C 1974.88 904.95 1975.67 905.972 1974.83 908.99 C 1973.28 910.167 1972.59 910.682 1971.15 912.009 C 1972.72 913.497 1973.38 913.87 1975.23 914.984 C 1974.36 921.145 1973.47 915.262 1971.27 920.962 L 1973.87 923.056 L 1973.95 924.967 C 1971.57 926.29 1972.27 925.629 1970.55 927.635 C 1973.13 930.797 1973.81 931.002 1973.1 934.796 C 1970.59 935.713 1970.34 935.541 1968.58 937.455 L 1969.28 938.785 C 1971.88 940.088 1971.92 939.905 1973.69 942.146 L 1973.09 945.159 L 1975.93 946.679 C 1969.3 957.286 1957.63 954.519 1955.29 962.049 C 1958.5 964.685 1962.14 967.766 1966.47 967.63 C 1967.29 971.994 1961.97 977.468 1963.13 980.464 L 1963.7 981.881 L 1961.17 983.847 L 1961.2 985.38 L 1964.22 986.157 L 1964.75 987.267 C 1963.61 992.119 1963.18 993.721 1961.13 998.271 L 1960.66 999.302 L 1963.63 1001.98 C 1963.36 1004.21 1963.57 1003.15 1961.31 1005.32 L 1964.62 1006.48 L 1961.63 1008.83 C 1966.43 1016.44 1957.34 1018.7 1951.38 1021.07 C 1953.73 1025.98 1954.25 1026.66 1958.11 1030.57 L 1959.04 1031.5 C 1958.17 1036 1953.12 1037.5 1951.03 1043.7 C 1952.93 1047.7 1954.75 1046.52 1958.91 1050.59 C 1955.38 1055.74 1945.96 1062.92 1944.45 1066.58 L 1947.5 1069.06 L 1947.17 1070.06 C 1944.24 1070.81 1943.31 1070.87 1940.66 1072.37 L 1940.45 1073.74 C 1944.01 1071.62 1948.32 1071.49 1950.98 1075.02 L 1950.32 1076.35 C 1948.14 1076.33 1946.04 1076.11 1943.88 1075.82 L 1943.6 1077.04 C 1945.34 1079.01 1945.7 1078.98 1946.09 1081.48 L 1943.12 1084.14 L 1943.22 1085.45 C 1945.64 1086.42 1944.66 1085.69 1946.25 1087.55 L 1945.6 1089.04 L 1941.36 1090.43 C 1940.86 1092.66 1939.5 1099.32 1938.61 1101.07 C 1936.67 1104.88 1937.48 1108.01 1937.04 1112.98 C 1933.35 1117.97 1931.2 1113.62 1926.89 1116.83 C 1923.42 1119.42 1921.08 1117.04 1917.47 1115.22 C 1917.77 1117.72 1917.72 1116.49 1917.62 1118.91 C 1912.53 1116.74 1902.4 1102.29 1895.57 1101.99 C 1890.55 1101.77 1881.04 1093.76 1877.23 1090.25 C 1875.51 1088.67 1876.2 1088.6 1876.38 1085.41 C 1873 1079.3 1864.51 1084.88 1860.42 1079.77 C 1855.41 1073.52 1843.55 1066.75 1836.38 1062.09 C 1836.71 1059.74 1836.93 1057.89 1837.1 1055.51 C 1833.41 1053.09 1833.6 1057.17 1827.58 1056.7 L 1826.18 1053.47 C 1821.34 1054.56 1826.77 1054.56 1822.11 1058.99 C 1818.16 1058.8 1816.31 1057.92 1814.13 1061.35 C 1816.68 1063.12 1816.75 1062.65 1820.22 1062.99 L 1821.42 1063.1 C 1823.57 1071 1811.68 1069.6 1808.96 1074.38 L 1811.99 1076.1 L 1811.19 1077.7 C 1804.37 1074.6 1802.14 1088.77 1794.27 1090.61 L 1793.91 1088.97 L 1796.59 1087.06 L 1796.44 1086.1 L 1793.83 1085.87 C 1789.16 1089.02 1789.25 1094.83 1786.55 1097.54 C 1780.8 1103.31 1760.58 1116.31 1753.08 1111.5 C 1749.31 1101.8 1748.51 1106.91 1742.42 1103.43 C 1741.15 1102.71 1740.38 1095.48 1737.71 1092.03 L 1734.81 1092.95 C 1732.14 1089.8 1736.98 1087.88 1734.2 1086.33 C 1724.07 1080.7 1722.33 1072.19 1727.8 1061.22 L 1727.23 1060.02 C 1723.3 1057.57 1722.29 1057.43 1717.66 1057.34 C 1716.79 1050.5 1716.26 1037.04 1713.88 1031.55 L 1714.68 1029.39 C 1713.67 1024.14 1714.67 1021.86 1713.94 1016.14 C 1712.77 1007.06 1707.12 995.072 1706.98 986.567 C 1708.88 985.938 1708.01 986.325 1709.62 985.448 C 1709.29 983.539 1707.18 972.673 1707.39 971.362 C 1709.02 960.758 1712.39 948.912 1713.58 937.97 C 1713.48 938.918 1709.57 929.183 1709.29 927.612 C 1710.29 926.316 1711.2 925.146 1712.54 924.178 C 1727.39 913.415 1738.18 936.549 1748.97 937.94 C 1752.07 940.927 1751.53 942.37 1752.64 947.152 C 1756.24 948.678 1756.42 948.696 1759.52 951 C 1759.96 954.102 1752.62 960.726 1749.57 965.327 C 1751.69 967.756 1752.09 968.266 1753.77 971.01 L 1753.18 972.543 L 1749.37 973.407 C 1747.33 980.621 1751.5 982.384 1753.33 988.861 C 1752.48 990.464 1749.56 996.347 1750.21 997.429 C 1754.22 1004.12 1759.18 1011.86 1760.57 1019.76 C 1761.29 1023.83 1759.88 1019.46 1756.94 1023.5 C 1758.11 1030.45 1756.78 1029.32 1760.97 1032.84 C 1760.95 1034.7 1761.13 1034.58 1760.46 1036.2 C 1758.76 1040.25 1761.67 1035.93 1763.33 1041.04 C 1761.56 1042.79 1761.57 1042.62 1760.92 1045 C 1762.59 1046.92 1761.56 1046.31 1764.01 1046.85 C 1767.88 1043.01 1763.42 1044.94 1766.91 1039.84 C 1770.02 1040.51 1769.1 1040.77 1771.83 1040.07 C 1771.48 1034.93 1771.75 1035.05 1776 1033.01 C 1777.17 1033.51 1778.35 1033.98 1779.53 1034.43 L 1780.13 1033.34 L 1778.92 1030.9 C 1779.59 1027.23 1782.64 1028.5 1783.56 1027.19 C 1788.53 1020.08 1795.5 1006.34 1802.25 1001.07 C 1804.29 1001.5 1804.46 1001.54 1806.42 1001.73 L 1808.7 998.168 L 1810.05 998.062 C 1811.18 999.929 1811.23 1000.01 1812.76 1001.56 L 1815.32 998.371 L 1817.74 999.642 C 1819.07 1001.89 1819.2 1002.35 1821.02 1004.17 C 1822.51 1002.64 1821.7 1003.36 1823.47 1002.01 C 1828.75 1007.49 1845.54 1021.18 1847.48 1026.07 C 1848.36 1028.31 1849.22 1030.18 1850.46 1032.24 L 1852.67 1030.87 C 1856.47 1032.24 1854.14 1035.5 1857.43 1036.77 L 1859.02 1034.11 L 1861.05 1034.25 C 1864.25 1036.01 1864.55 1037.53 1866.14 1040.85 L 1866.7 1042.05 C 1872.17 1043.83 1876.34 1045.29 1880.42 1049.36 C 1881.79 1054.19 1883.44 1056.66 1888.08 1058.78 L 1890.97 1057.61 L 1893.55 1059.8 L 1895.65 1059.58 C 1896.09 1056.87 1894.73 1055.98 1892.92 1052.89 C 1894.82 1053.45 1896.52 1054.01 1898.39 1054.64 C 1897.81 1052.54 1896.77 1052.13 1894.97 1050.34 C 1895.71 1045.18 1893.55 1043.62 1895.05 1038.08 C 1896.89 1037.21 1898.47 1036.71 1900.45 1036.22 L 1900.31 1034.63 L 1897.06 1033.68 L 1896.65 1032.48 C 1899.87 1026.25 1904.36 1024.73 1906.08 1021.07 C 1907.88 1017.21 1908.38 1009.71 1910.87 1004.8 C 1913.7 1003.32 1914.64 1003.03 1916.86 1000.64 C 1915.42 998.316 1913.05 995.119 1912.69 992.669 L 1916.55 989.769 C 1917.43 986.46 1914.39 980.628 1914.3 974.448 C 1916.29 970.559 1917.97 973.811 1922.76 970.022 C 1920.83 968.807 1918.88 967.623 1916.91 966.471 L 1917.08 965.163 C 1920.15 963.731 1920.94 963.326 1923.74 961.467 C 1921.36 959.143 1922.06 960.471 1921.23 957.552 C 1923.43 954.684 1922.04 955.645 1925.61 954.653 C 1928.36 955.671 1927.33 955.674 1930.02 955.438 L 1930.32 953.803 C 1928.24 951.807 1925.87 950.169 1925.39 947.515 C 1927.31 946.498 1927.71 946.417 1929.79 945.932 L 1930.1 943.993 L 1927.92 941.417 C 1928.02 938.156 1929.99 933.296 1931.49 930.569 C 1934.77 924.592 1930.17 921.107 1931.88 916.21 C 1934.52 916.302 1933.61 916.632 1935.72 915.478 C 1938.99 907.848 1933.86 902.785 1945.54 894.673 C 1945.46 894.727 1945.64 890.238 1945.62 890.001 C 1945.17 885.549 1950.35 880.355 1952.96 877.05 C 1953.43 870.856 1953.01 870.822 1956.46 865.563 C 1954.6 863.272 1954.97 864.253 1954.23 861.588 C 1956.5 860.426 1958.67 859.62 1961.04 858.687 z" fill="rgb(0,0,0)" transform="translate(0,0)"></path>
<path d="M 984.246 898.591 C 988.806 899.629 1011.77 912.702 1016.67 915.98 C 1017.19 919.162 1017.03 919.242 1018.57 922.002 C 1025.61 925.089 1028.67 926.763 1033.67 932.579 C 1034.59 937.146 1034.88 940.332 1039.44 942.592 C 1038.56 939.521 1038.44 940.184 1038.51 937.162 L 1040.89 937.667 C 1044.32 941.129 1042.73 942.097 1044.62 946.047 C 1054.97 947.907 1060.42 954.211 1059.85 964.654 C 1061.41 967.066 1073.04 985.076 1073.05 985.076 C 1082.3 986.171 1075.08 992.35 1080.63 997.787 C 1080.98 996.098 1081.31 994.736 1081.76 993.07 C 1084.09 994.763 1083.26 993.711 1084 996.497 C 1083.03 999.243 1082.6 1000.06 1082.24 1002.98 C 1084.32 1002.44 1084.7 1002.08 1086.56 1000.97 C 1092.94 1003.35 1087.91 1007.82 1091.72 1012.66 L 1094.46 1011.8 C 1097.74 1015.34 1107.24 1033.33 1111.41 1039.15 C 1115.81 1040.54 1127.34 1043.46 1128.48 1047.76 C 1120.89 1058.07 1125.76 1055.75 1122.61 1064.2 C 1119.73 1066.8 1121.01 1066.67 1118.24 1066.82 L 1115.02 1063.01 L 1114.18 1063.48 C 1114.51 1066.47 1116.26 1066.84 1118.96 1069.95 L 1118.67 1074.05 C 1118.87 1074.3 1119.07 1074.54 1119.27 1074.79 L 1120.24 1076.04 C 1127.44 1085.17 1150.67 1118.2 1142.11 1128.34 C 1138 1129.14 1139.49 1127.37 1135.92 1124.02 C 1135.82 1123.92 1129.1 1122.72 1128.52 1122.62 C 1119.55 1112.04 1110.89 1099 1101.83 1088.21 C 1100.15 1087.31 1101.85 1080.57 1100.05 1080.11 C 1087.45 1076.84 1090.89 1072.68 1084.5 1063.45 C 1082.34 1063.69 1083.41 1063.36 1081.47 1065.53 C 1078.17 1063.91 1074.85 1062.37 1071.49 1060.9 C 1061.6 1064.14 1066.23 1059 1059.11 1059.3 C 1055.64 1060.69 1035.53 1061.42 1030.77 1061.44 C 1027.13 1059.02 1026.32 1058.15 1022.18 1057.28 C 1020.7 1058.18 1020.9 1058.26 1020.08 1059.78 C 1017.54 1059.34 1018.57 1059.96 1016.98 1057.91 L 1018.61 1054.43 C 1014.11 1055.04 1011.13 1060.18 1008.08 1060.32 C 999.099 1060.75 963.318 1059.34 959.225 1067.24 C 960.887 1068.04 961.854 1068.56 963.43 1069.52 C 961.475 1075.4 957.144 1071.67 955.522 1074.13 C 952.569 1078.62 950.877 1094.03 947.191 1096.83 L 944.122 1096.31 C 940.135 1104.22 943.817 1114.74 932.474 1117.13 L 930.843 1115.43 L 931.874 1112.52 L 930.921 1110.95 C 928.67 1111.31 928.782 1111.3 926.62 1111.34 L 925.537 1109.65 C 925.651 1104.14 928.779 1076.21 930.339 1072.64 C 932.644 1071.17 934.538 1070.31 935.902 1067.98 L 935.289 1065.93 C 926.111 1061.18 923.169 1060.82 922.573 1049.3 L 922.521 1048.08 L 920.723 1046.45 L 920.824 1045.09 C 926.442 1040.4 926.544 1041.1 924.727 1034.62 C 926.063 1032.28 925.053 1033.04 927.632 1032.1 C 928.615 1033.72 927.964 1033.23 929.357 1033.84 C 930.05 1027.03 932.673 1032.23 937.599 1029.04 C 930.717 1025.17 939.603 1021.47 941.509 1014.88 C 943.013 1009.67 939.675 1008.06 939.366 1003.15 C 938.912 995.935 943.293 998.094 945.696 994.831 C 942.649 993.644 943.308 994.521 941.647 992.451 L 942.621 991.409 C 944.944 991.175 946.322 991.013 948.603 990.549 C 949.971 985.94 946.178 980.725 947.721 977.631 L 949.982 977.059 L 953.258 979.226 C 954.919 976.71 954.436 977.809 954.654 974.571 L 951.817 973.058 C 951.473 970.497 951.779 970.534 953.051 968.185 C 954.731 967.53 956.223 967.263 958.008 967.028 L 958.692 965.443 L 955.304 963.838 C 956.146 960.772 957.539 960.908 961.18 958.625 C 961.815 954.824 955.787 949.367 958.575 945.709 C 960.614 945.357 962.659 945.042 964.709 944.765 C 964.983 944.734 965.256 944.702 965.529 944.671 L 963.783 941.507 L 964.47 939.583 L 966.912 939.048 C 969.156 935.249 964.276 935.396 965.198 929.719 L 968.226 928.703 L 968.608 923.643 C 976.226 917.195 970.291 917.348 971.266 910.829 C 973.708 907.897 972.166 908.95 976.375 908.097 C 981.178 904.149 975.401 904.204 984.246 898.591 z" fill="rgb(0,0,0)" transform="translate(0,0)"></path>
<path d="M 1008.41 971.401 C 1009.92 971.718 1009.84 972.055 1011.26 973.279 L 1011.35 978.964 C 1012.44 978.25 1011.78 978.577 1013.42 978.165 C 1012.61 988.74 1014.68 981.854 1020.78 985.558 C 1020.89 988.102 1020.76 988.203 1021.65 990.542 C 1023.96 990.422 1025.05 990.242 1027.34 989.924 L 1028.33 991.124 C 1027.27 993.134 1026.88 993.82 1026.16 995.958 L 1027.84 998.039 C 1031.97 999.533 1033.42 998.324 1037.58 999.026 C 1041.1 1001.91 1042.49 1004.71 1044.93 1008.56 L 1048.07 1009.02 L 1048.85 1010.25 C 1046.54 1011.77 1047.18 1010.97 1045.98 1013.34 L 1047.43 1015.35 C 1049.81 1016.2 1053.51 1017.24 1055.24 1018.97 C 1057.63 1021.36 1055 1026.93 1052.47 1028.41 L 1051.07 1027.94 C 1049.77 1025.14 1049.48 1023.97 1047.13 1021.9 C 1044.87 1022.07 1043.96 1022.18 1041.72 1021.98 L 1041.32 1017.86 L 1037.81 1020.67 C 1030.13 1021.11 1026.52 1025.51 1021.24 1023.93 C 1022.51 1022.12 1022.66 1021.92 1023.52 1019.9 C 1018.26 1017.07 1013.1 1021.43 1007.53 1021.6 L 1005.79 1018.53 C 1001.66 1016.97 994.746 1018.2 989.375 1017.56 C 988.968 1013.66 989.571 1014.51 991.761 1010.16 L 989.662 1006.59 L 990.348 1005.27 C 992.904 1005.41 994.544 1005.8 996.718 1004.53 L 996.938 1001.92 C 992.007 992.187 996.392 996.778 997.556 991.64 L 995.497 989.962 L 995.498 988.38 L 998.48 987.969 C 1000.48 985.73 1002.03 978.334 1002.99 974.921 L 1006.75 974.249 L 1008.41 971.401 z" fill="rgb(254,254,254)" transform="translate(0,0)"></path>
<metadata><recraft-signature>{"signed_by": "recraft", "signature_b64": "9bbaxyye+xrRUPTtKvNII0olDp6/ItwXNXeHOh6rEaOcTf1m8RbkL0l2m72U12v5H1T+x8SAb6NdQt/YMeNUAw==", "signing_algo": "Ed25519", "generation_timestamp": 1776309938, "identifier": "76f4657a-40f4-432c-b230-c6f40de955a2"}</recraft-signature></metadata></svg>