<svg xmlns="http://www.w3.org/2000/svg" height="1024" preserveAspectRatio="none" style="display: block;" version="1.1" viewBox="0 0 2048 2048" width="1024">
<path d="M 0 0 L 1588.37 0 L 2048 0 L 2048 513.149 L 2048 2048 L 0 2048 L 0 568.204 L 0 0 z" fill="rgb(130,104,83)" transform="translate(0,0)"></path>
<path d="M 0 0 L 1588.37 0 L 2048 0 L 2048 513.149 L 2045.69 516.963 C 2042.28 512.438 2046.85 158.412 2045.11 127.348 C 2044.92 124.074 2045.86 113.757 2044.11 110.687 L 2039.69 113.812 C 2031.73 113.038 2022.18 111.379 2020.17 120.542 C 2021.88 121.141 2023.57 121.786 2025.25 122.478 L 2026.59 121.474 L 2028 121.792 C 2029.8 125.746 2029.27 133.741 2026.72 137.413 C 2024.72 138 2024.41 138.164 2022.69 139.227 L 2021.2 140.155 C 2020.22 140.109 2018.59 139.993 2017.76 139.421 C 2007.83 132.542 1997.81 137.602 1987.96 132.651 C 1984.05 130.685 1977.49 131.956 1973.15 131.641 C 1973.55 131.67 1969.52 124.811 1967.8 123.484 C 1950.42 119.917 1965.8 114.4 1959.73 103.287 C 1956.84 101.872 1956.28 101.648 1953.59 99.6714 L 1953.11 96.3918 C 1942.62 90.3583 1929 100.32 1918.45 99.7913 C 1910.99 99.4178 1900.1 95.6911 1895.31 89.6457 C 1892.47 91.2035 1885.24 91.3884 1881.91 91.2109 L 1880.55 88.2635 C 1876.76 90.5438 1881.08 89.3507 1876.85 93.2839 L 1877.07 93.7541 C 1876.09 90.8713 1876.33 90.8018 1874.67 88.3917 C 1873.76 90.1759 1874.04 90.8791 1873.94 92.9036 C 1870.59 93.335 1868.45 94.3532 1866.51 92.8645 C 1867.99 89.5455 1868.62 89.5897 1868.27 86.4758 L 1865.81 85.4071 L 1864.57 86.1883 C 1865.02 88.7707 1865.04 87.8365 1864.51 90.4787 C 1861.13 92.6966 1859.29 92.2706 1856.27 90.2052 C 1855.14 86.5751 1856.79 84.289 1857.77 79.5381 C 1854.01 76.0561 1851.49 74.5215 1850.38 69.9135 L 1851.34 68.4547 L 1854.49 68.1419 L 1855.86 70.7135 L 1856.92 69.7019 C 1855.87 63.3836 1855.15 68.372 1847.87 62.5932 C 1847.3 66.3095 1847.6 68.052 1845.53 70.7234 C 1841.32 70.8763 1836.48 70.9389 1832.36 71.3795 C 1822.82 72.4001 1827.41 72.9913 1821.58 80.0285 C 1814.31 79.3577 1795.43 81.4835 1791.36 79.0171 L 1790.9 77.0012 L 1792.38 74.8778 C 1797.93 74.4979 1798.86 72.6826 1803.65 69.7501 C 1804.39 64.3534 1801.17 65.1011 1802.05 60.5733 L 1805.65 59.018 C 1803.48 59.1236 1803.27 59.0522 1801.11 58.6684 L 1799.99 56.9889 C 1799.38 51.5028 1808.49 43.6515 1812.96 35.4734 C 1807.08 36.0292 1801.07 30.5002 1797.12 31.2249 C 1793.76 31.8398 1789.82 46.3921 1786.01 47.8126 C 1783.97 46.0088 1782.76 44.5561 1780.14 43.8963 C 1776.18 49.2153 1779.06 52.8564 1778.95 59.9205 C 1776.17 60.1514 1773.41 60.5805 1770.65 60.9672 C 1769.64 62.3589 1768.77 63.502 1767.71 64.8463 C 1764.47 65.2014 1760.62 62.0811 1755.78 60.4014 C 1744.6 61.5657 1745.56 66.8611 1735.94 72.3361 C 1730.1 68.915 1727.43 67.2322 1722.69 72.7622 L 1721.6 74.0623 L 1719.96 73.7177 L 1719.72 72.0727 C 1715.32 71.7589 1706.84 73.6052 1701.97 73.7901 C 1695.5 74.0358 1698.14 74.9341 1692.54 70.1451 L 1685.27 71.0436 C 1682.65 68.51 1685.98 66.7576 1682.42 63.3674 C 1676.97 58.1894 1664.53 63.4413 1660 58.1441 C 1659.45 57.506 1641.22 61.6523 1638.65 61.5587 C 1631.32 61.2918 1624.15 69.9066 1616.71 74.0364 L 1615.33 73.2394 L 1614.55 69.5464 C 1604.32 61.2885 1609.78 66.1463 1595.59 64.1576 C 1592.68 62.1472 1584.54 53.3469 1580.56 54.8471 C 1572.13 58.0221 1563.67 47.2289 1558.09 47.9952 C 1556.68 50.8387 1557.53 51.1082 1558.46 55.1246 L 1557.45 56.6311 C 1549.51 56.9148 1557.39 53.5953 1546.61 53.7683 L 1546.03 52.932 C 1547.6 50.2173 1547.68 51.0511 1547.74 48.3595 L 1542.73 51.5004 C 1536.13 51.1595 1527.9 44.4002 1522.28 40.5717 C 1511.83 33.447 1513.43 32.2793 1500.83 30.6661 C 1497.44 27.3528 1492.59 18.8818 1490.8 14.5102 C 1488.76 16.7386 1489.98 16.0985 1487.07 16.5871 C 1482.72 12.165 1488.05 11.7895 1479.53 3.09551 C 1472.34 2.94284 1453.78 1.38342 1448.22 6.3078 C 1446.66 7.69044 1447.6 11.2792 1448.01 13.5384 C 1444.61 17.8404 1438.41 16.5698 1433.69 15.9613 L 1433 17.2892 C 1431.1 20.8887 1430.71 22.4111 1427.61 24.7165 L 1424.8 24.9033 C 1420.66 21.2454 1424.28 20.2022 1421.38 17.5808 C 1418.25 21.2501 1420.09 20.4614 1416.16 21.009 C 1409.35 16.8955 1417.22 17.8293 1409.47 15.2431 L 1407.63 17.4002 C 1401.86 16.5751 1396.22 14.9075 1390.75 15.6437 L 1388.06 18.7729 C 1386.27 18.2254 1384.3 13.009 1382.72 14.157 C 1374.37 20.2271 1377.58 7.59025 1371.6 3.45288 C 1365.66 3.10221 1349.01 2.27471 1343.75 3.41358 L 1344.09 5.58109 L 1348.43 7.6457 L 1348.73 9.10051 C 1349.67 13.4829 1358.01 34.6422 1351.25 36.1203 L 1349.95 35.1113 C 1341.88 38.2316 1334.59 42.863 1328.37 38.957 C 1324.83 36.7379 1316.21 33.5191 1314.86 29.2976 C 1313.33 24.5429 1313.37 5.14834 1307.56 3.97689 C 1295.99 1.64615 1273.3 3.54638 1260.74 2.9845 C 1256.45 2.79208 1252.04 8.64881 1249.3 8.39244 C 1241.3 7.64421 1243.87 1.86248 1234.23 8.08191 C 1229.76 7.25305 1229.72 7.22833 1225.6 5.30039 C 1223.71 6.00048 1218.51 8.25865 1217.13 7.25847 C 1208.76 1.18368 1202.47 1.96493 1191.92 3.88874 C 1177.38 6.54195 1175.08 24.6915 1159.41 23.1367 C 1157.74 20.7202 1158.4 22.0419 1158.58 18.2994 C 1150.8 20.2171 1153.17 19.5476 1147.73 13.0929 C 1146.41 11.5187 1143.32 6.47966 1141.95 5.52746 C 1136.2 1.51749 1122.45 2.80605 1115.7 2.86737 L 1114.07 3.78659 C 1113.9 10.7685 1117.61 12.0076 1115.56 15.5073 L 1111.92 16.0143 C 1110.61 18.8607 1108.4 24.8118 1107.62 27.9375 C 1100.88 24.8265 1103.3 19.1481 1091.54 20.5142 C 1088.41 20.8775 1086.22 19.8472 1083.48 18.5307 L 1082.21 19.113 L 1079.18 20.4484 C 1068.77 25.0219 1041.8 27.3235 1034.5 13.8983 C 1032.42 10.0655 1033.59 7.46938 1029.84 3.68649 C 1019.57 0.807338 746.769 4.14208 711.05 3.55337 C 709.682 3.53081 704.113 11.5925 699.119 9.37518 C 698.493 9.25832 697.868 9.14147 697.242 9.02461 C 693.463 8.35001 692.12 7.876 688.794 9.98806 C 684.98 12.4102 685.899 14.8705 682.974 19.4434 C 679.622 18.5628 678.895 17.9567 676.005 16.2092 L 671.961 18.0396 L 670.345 17.3308 C 669.504 10.6039 673.389 16.8382 671.253 9.71006 L 670.507 9.71167 L 669.222 11.4305 C 666.91 9.34291 666.921 9.73025 667.221 6.27504 C 663.472 5.98167 657.257 5.76696 653.198 7.01955 C 649.688 8.10236 633.051 23.3102 631.331 23.5745 C 618.127 25.6026 622.634 20.3762 610.001 30.506 C 605.751 29.5887 604.326 28.613 600.386 26.5832 L 596.934 30.1003 L 595.538 30.0993 C 594.804 26.6699 598.022 24.2108 600.418 22.0402 L 600.348 19.9004 C 593.617 22.8693 588.693 34.5945 579.382 32.8685 C 576.742 29.4144 566.984 10.5506 564.449 10.4523 C 559.383 10.2557 554.968 14.6568 549.952 13.8914 C 548.046 11.4996 547.886 11.0707 546.489 8.30788 C 543.536 7.70374 541.574 8.55093 538.636 9.33292 C 531.057 5.2137 530.804 1.84728 523.864 4.5207 C 518.942 6.41664 507.144 2.00465 501.154 2.96873 C 473.753 2.89031 446.361 2.94384 418.99 3 C 407.867 13.5569 392.857 22.7423 391.206 38.0316 C 391.061 39.3809 376.286 49.5321 373.663 48.9359 C 352.346 44.0909 338.624 35.0913 323.132 57.6518 C 320.92 60.8727 313.368 57.6517 311.485 64.8439 C 306.921 67.3433 301.267 62.6534 296.555 65.522 C 296.466 68.2306 296.564 69.0938 296.885 71.8027 C 293.164 72.765 292.634 70.2219 291.199 70.2571 C 282.699 70.4654 284.08 74.1164 277.253 67.1586 C 274.482 67.585 274.74 67.9245 272.191 69.823 L 271.608 72.1522 C 257.39 78.5713 238.971 82.7256 225.55 90.3961 C 222.262 92.2757 217.592 107.465 212.282 108.83 C 208.02 109.925 197.913 106.048 193.076 107.011 C 190.949 107.435 186.805 109.831 184.885 110.907 C 168.878 119.878 154.354 120.772 137.36 125.922 C 129.629 119.388 125.336 128.43 125.59 135.852 C 121.069 137.248 121.848 132.798 116.575 134.359 C 116.245 134.457 110.785 140.184 110.567 140.378 C 107.845 142.813 110.016 136.353 105.967 140.257 C 98.2017 147.744 86.8906 151.323 76.7545 155.419 C 70.6446 154.633 65.6497 153.613 59.6297 152.374 C 57.463 154.258 57.7649 154.699 56.7202 157.681 C 47.3457 160.789 36.966 151.227 32.0728 163.032 L 30.555 166.657 C 19.7287 176.084 2.58805 167.891 2.89577 190.497 C 3.29053 219.497 2.94625 249.132 2.9602 278.05 L 3.00215 464.267 C 3.01294 496.309 4.85214 537.5 0 568.204 L 0 0 z" fill="rgb(81,69,55)" transform="translate(0,0)"></path>
<path d="M 996.741 1037.47 C 1010.59 1035.94 1031.14 1042.34 1045.07 1045.88 C 1050.78 1054.45 1051.96 1053.49 1058.85 1059.61 C 1065.68 1065.68 1070.4 1089.76 1071.83 1098.7 C 1073.86 1111.34 1071.67 1130.03 1077.04 1141.7 C 1084.21 1156.05 1095.71 1168.21 1106.77 1179.57 C 1124.59 1197.88 1111.5 1205.86 1097.12 1219.43 C 1098.39 1228.67 1098.83 1235.34 1102.57 1244.29 C 1108.88 1259.68 1127.8 1272.17 1128.4 1289.4 C 1128.91 1304.2 1099.74 1304.68 1089.86 1303.72 C 1069.53 1290.21 1081.65 1252.38 1067.98 1231.08 C 1065.28 1226.88 1060.39 1216.41 1057.06 1215.44 C 1039.04 1210.24 1000.37 1218.17 982.772 1222.95 C 960.125 1232.59 979.304 1251.61 967.418 1275.69 C 952.711 1305.49 880.984 1306.56 856.041 1299.06 C 846.448 1296.17 813.367 1245.66 805.098 1235.04 C 800.87 1229.61 788.06 1199.07 785.654 1190.41 L 772.622 1187.11 C 768.87 1188.84 766.337 1190.43 762.79 1192.59 C 747.421 1228.11 770.712 1244.57 773.297 1279.26 C 766.874 1288.72 770.469 1297.19 758.235 1304.23 C 751.231 1308.26 743.762 1309.75 735.727 1307.75 C 729.435 1306.19 727.892 1301.55 724.831 1295.98 L 730.501 1291.68 C 728.654 1291.46 727.004 1291.34 725.152 1291.2 L 724.092 1289.61 C 738.401 1266.3 725.421 1272.07 721.726 1249.59 C 720.449 1241.83 727.192 1235.64 720.909 1224.51 C 718.792 1220.77 719.327 1201.42 719.206 1196.01 L 721.754 1193.43 C 720.696 1183.97 718.384 1172.18 718.333 1162.94 C 718.269 1151.34 717.207 1150.95 724.041 1143.35 L 716.446 1133.31 C 721.974 1117.18 713.462 1119.06 710.507 1104.98 C 706.482 1085.78 713.233 1051.9 738.133 1052.12 C 759.257 1052.3 800.586 1050.07 820.53 1054.9 C 829.239 1056.93 837.385 1060.88 844.376 1066.45 C 868.463 1085.65 869.968 1109.13 871.968 1137.65 C 872.498 1145.19 861.525 1165.9 857.286 1172.59 C 851.84 1181.19 829.722 1183.54 823.083 1192.73 C 818.455 1210.65 841.346 1228.51 851.21 1241.12 C 856.037 1247.29 860.466 1259.77 867.527 1262.59 C 877.135 1266.43 891.308 1260.18 901.202 1258.93 C 909.677 1257.83 921.584 1259.12 929.613 1256.27 C 934.532 1254.53 942.297 1248.32 944.41 1243.6 C 944.019 1239.23 944.834 1241.02 942.277 1237.87 C 931.271 1233.7 918.516 1244.73 909.29 1246.68 C 898.154 1249.04 893.332 1236.25 893.411 1227.7 C 893.49 1219.22 891.959 1216.36 897.585 1209.05 C 903.876 1200.88 911.856 1199.83 918.596 1192.54 C 919.791 1191.44 924.608 1191.84 925.618 1191.39 C 932.779 1188.18 941.025 1172.45 945.107 1166.21 C 941.495 1143.89 951.815 1116.27 962.502 1097.14 L 961.895 1082.96 C 957.132 1075.93 953.211 1072.12 949.494 1064.1 C 950.563 1062.46 952.846 1058.87 953.294 1057.22 C 959.526 1034.26 989.146 1042.39 996.741 1037.47 z" fill="rgb(2,1,2)" transform="translate(0,0)"></path>
<path d="M 1017.13 1093.81 C 1032.47 1097.18 1039.52 1106.08 1041.52 1121.47 C 1043.66 1138.01 1044.36 1154.84 1043.79 1171.51 C 1037.28 1174.38 1031.82 1176.69 1025.14 1179.12 C 1020.7 1178.02 1015.08 1177.19 1010.49 1176.39 C 1004.88 1176.32 1001.57 1179.53 994.63 1176.19 C 988.803 1173.39 986.191 1168.94 982.948 1163.72 C 987.319 1135.72 988.404 1108.08 1017.13 1093.81 z" fill="rgb(130,104,83)" transform="translate(0,0)"></path>
<path d="M 802.888 1091.83 C 810.092 1101.12 812.459 1101.96 823.607 1102.71 C 827.672 1105.23 832.352 1126.48 833.869 1132.01 C 824.912 1144.72 818.336 1150.57 802.665 1154.11 C 794.644 1155.92 794.452 1153.14 787.774 1154.94 C 770.285 1162.85 764.818 1122.88 756.521 1114.75 C 760.664 1105.01 762.624 1101.69 769.519 1093.74 C 782.733 1100.98 776.706 1095.51 781.413 1094.46 C 785.922 1093.44 797.456 1092.59 802.888 1091.83 z" fill="rgb(130,104,83)" transform="translate(0,0)"></path>
<path d="M 1563.36 725.02 C 1579.5 723.427 1634.72 725.444 1647.65 736.307 C 1670.23 755.269 1663.52 802.135 1670.86 827.995 C 1672.42 833.502 1673.16 841.677 1673.68 847.393 C 1684.17 854.414 1701.86 862.243 1707.15 874.404 C 1713.75 889.554 1691.98 898.772 1688.13 908.172 C 1687.94 923.19 1694.77 940.056 1703.45 952.259 C 1709 960.59 1720.11 972.318 1715.21 983.308 C 1708.19 999.042 1689.58 998.54 1676.45 993.112 C 1672.52 988.261 1671.54 986.827 1668.41 981.423 C 1668.49 973.837 1668.62 957.507 1667.47 950.455 C 1665.3 937.15 1662.29 932.095 1662.7 917.734 L 1648.37 901.359 C 1637.04 902.228 1594.25 905.712 1586.11 904.076 C 1579.33 907.595 1572.64 911.298 1566.06 915.18 C 1565.6 947.061 1564.22 967.199 1536.24 986.631 C 1534.9 986.475 1499.04 989.948 1494.41 990.154 C 1467.77 991.337 1440.37 993.647 1413.73 995.678 C 1404.02 996.418 1390.09 1001.66 1380.18 1002.71 C 1353.34 1005.56 1325.41 1005.54 1298.51 1004.62 C 1290.57 997.102 1289.38 993.869 1284.81 984.195 C 1290.68 971.393 1299.3 960.044 1310.07 950.961 C 1322.75 952.841 1330.97 953.989 1343.97 955.592 C 1346.84 952.785 1349.75 949.37 1352.45 946.35 C 1354.17 931.494 1357.65 925.723 1364.85 912.788 C 1362.72 907.038 1362.01 894.434 1362.84 888.25 C 1362.53 882.058 1363.27 875.036 1362.42 868.825 C 1360.74 856.538 1358.54 845.852 1357.96 833.319 C 1357.19 816.693 1359.25 800.586 1357.76 784.105 C 1332.02 786.607 1313.47 792.353 1304.22 765.377 C 1305.74 757.827 1306.13 751.297 1307.62 744.123 C 1308.61 739.313 1313.75 732.381 1318.5 730.733 C 1321.68 729.625 1325.82 729.08 1329.36 729.026 C 1336.96 728.91 1345.54 730.78 1353.03 730.878 C 1365.83 731.045 1378.24 729.504 1391.19 730.433 C 1401.3 731.158 1412.09 733.092 1422.17 733.383 C 1423.8 733.43 1430.2 729.958 1432.15 728.933 C 1435.45 731.016 1435.28 732.797 1440.51 730.432 C 1453.45 724.572 1457.08 726.587 1469.98 730.698 C 1480.74 743.076 1483.67 757.932 1471.04 770.17 C 1455.83 784.904 1432.71 785.03 1412.98 784.503 C 1407.61 787.511 1406.38 788.197 1401.74 792.286 C 1399.93 806.2 1397.32 807.5 1394.81 818.8 C 1391.45 833.893 1391.36 853.202 1390.23 868.499 C 1389.84 873.773 1386.65 879.046 1386.91 882.974 C 1387.57 892.604 1390.43 904.801 1392.69 914.293 C 1393.92 919.492 1393.33 919.773 1391.64 925.184 C 1394.81 928.422 1397.99 931.64 1401.2 934.836 C 1402.34 940.042 1402.69 944.819 1403.22 950.104 C 1412.04 950.152 1422.92 948.754 1431.28 949.272 C 1465.38 951.389 1495.43 949.43 1529.28 945.809 C 1532.54 938.902 1541.35 930.927 1539.19 923.402 C 1532.27 919.939 1514.76 937.46 1500.59 939.576 C 1492.15 937.603 1489.7 931.881 1482.5 925.986 L 1481.58 925.239 C 1480.8 914.403 1480.58 904.336 1486.39 894.832 C 1493.25 883.597 1501.51 880.385 1512.43 874.573 C 1516.12 872.613 1520.19 869.534 1524.23 868.615 C 1525.16 868.404 1527.78 868.059 1527.8 867.138 C 1527.83 865.985 1528.86 857.036 1529.6 856.349 C 1532.52 853.606 1535.21 850.456 1537.81 847.222 C 1537.93 828.275 1540.82 814.491 1544.51 796.038 C 1546.88 784.204 1545.77 779.027 1550.15 766.829 C 1547.45 762.404 1544.42 757.825 1541.61 753.44 C 1546.33 738.027 1547.94 731.268 1563.36 725.02 z" fill="rgb(2,1,2)" transform="translate(0,0)"></path>
<path d="M 1597.72 785.819 C 1603.13 784.261 1614.99 779.841 1619.3 783.553 C 1630.42 793.122 1635.41 812.768 1633.75 826.338 C 1630.64 831.794 1641.48 846.015 1632.78 855.688 C 1621.06 858.565 1601.28 856.539 1588.91 856.273 C 1577.31 856.024 1571.76 849.443 1574.81 837.459 C 1580.32 815.781 1577.83 800.669 1597.72 785.819 z" fill="rgb(130,104,83)" transform="translate(0,0)"></path>
<path d="M 928.458 728.612 C 932.347 728.122 935.984 727.766 939.699 727.907 C 987.594 729.539 1042.8 743.416 1057.65 795.575 C 1061.72 809.901 1054.16 804.361 1065.05 820.254 C 1064.01 836.125 1069.23 855.858 1068.21 871.753 C 1067.2 887.458 1065.03 899.137 1065.35 915.303 C 1055.48 928.945 1052.39 941.207 1040.49 953.744 C 1024.72 970.353 994.274 968.233 972.25 968.131 C 968.923 967.941 956.831 967.072 954.132 967.583 C 889.933 979.721 848.744 959.597 853.408 887.485 C 852.956 886.818 852.504 886.15 852.051 885.483 C 851.708 884.846 851.365 884.209 851.022 883.572 C 851.243 883.317 853.749 880.464 853.75 880.458 C 854.921 875.495 854.332 867.264 854.729 862.641 C 855.814 849.986 852.456 845.615 849.719 834.077 C 849.109 831.505 850.605 817.108 850.402 813.465 C 850.401 813.448 847.719 808.719 847.72 808.711 C 848.759 801.442 849.798 792.744 851.451 785.628 C 852.008 783.232 854.904 783.05 856.9 782.501 C 859.89 776.288 856.085 775.04 862.706 764.725 C 858.398 745.617 869.12 748.434 881.677 736.931 C 886.372 736.488 892.779 736.712 896.687 735.879 C 909.097 733.234 915.545 729.68 928.458 728.612 z" fill="rgb(2,1,2)" transform="translate(0,0)"></path>
<path d="M 916.531 778.096 C 925.605 777.143 934.252 778.943 943.004 779.014 C 964.217 779.186 985.946 777.632 1003.58 791.94 C 1007.62 795.214 1011.51 798.233 1011.96 803.439 L 1012.27 806.899 C 1012.57 810.296 1018.95 815.594 1021.88 819.417 C 1027.41 826.619 1031.49 833.821 1036.05 841.6 C 1033.82 863.77 1037.81 879.95 1028.42 903.928 L 1030.97 906.873 C 1022.84 924.959 1016.37 929.539 998 933.637 C 989.436 931.732 973.21 933.546 963.913 933.07 C 957.047 932.719 944.181 926.583 937.832 928.428 C 934.19 929.486 935.177 930.653 929.867 928.974 C 927.474 925.652 927.085 924.378 922.838 924.461 C 920.862 926.814 920.741 927.359 917.895 928.569 C 914.506 927.841 912.82 926.383 910.347 924 C 906.535 920.328 903.424 919.829 898.953 917.62 C 893.473 914.912 884.663 883.638 882.528 876.255 C 889.353 854.778 889.094 853.959 890.48 832.072 C 891.507 815.855 894.912 820.378 891.783 800.697 C 899.246 789.355 904.876 784.821 916.531 778.096 z" fill="rgb(130,104,83)" transform="translate(0,0)"></path>
<path d="M 1184.75 713.356 C 1187.72 712.253 1222.62 715.745 1225.42 717.142 C 1250.19 729.538 1286.02 756.47 1285.03 787.75 C 1284.19 814.161 1288.86 842.357 1268.8 863.322 C 1237.06 896.361 1185.34 895.069 1143.67 896.876 C 1126.82 911.246 1132.29 915.475 1136.57 934.018 C 1143.05 935.588 1153.22 941.647 1159.18 945.034 C 1158.72 950.489 1157.57 952.15 1159.94 957.238 C 1159.46 960.161 1158.68 966.135 1157.06 968.456 C 1106.85 1040.55 1101.15 966.481 1098.78 922.753 C 1098.7 921.413 1097.79 906.877 1097.72 906.974 C 1103.87 898.665 1093.35 888.84 1094.3 879.475 C 1095.08 867.2 1098.89 855.331 1099.43 843.303 C 1099.79 835.436 1095.64 824.399 1095.11 816.335 C 1094.12 795.71 1097.52 776.249 1091 756.103 C 1088.96 749.801 1093.78 741.661 1095.43 735.574 C 1107.51 706.897 1163.4 717.516 1184.75 713.356 z" fill="rgb(2,1,2)" transform="translate(0,0)"></path>
<path d="M 1144.55 756.235 C 1152.96 756.18 1162.98 757.468 1171.01 757.355 C 1192.47 757.132 1206.29 755.268 1226.26 765.228 C 1251.95 778.041 1263.33 799.59 1250.93 827.294 C 1247.4 835.186 1235.54 837.67 1227.75 839.632 C 1220.18 841.89 1212.06 843.139 1204.57 845.349 C 1174.52 854.219 1157.84 858.306 1129.79 841.374 C 1129.54 832.972 1130.65 828.58 1131.32 820.686 C 1132.89 802.141 1126.2 767.023 1144.55 756.235 z" fill="rgb(130,104,83)" transform="translate(0,0)"></path>
<path d="M 1333.49 1060.13 C 1358.13 1060.64 1378.22 1070.27 1386.39 1093.97 C 1388.86 1101.13 1384.13 1105.68 1380.91 1111.71 C 1384.76 1123.83 1381.08 1125.3 1382.4 1134.92 C 1385.13 1154.67 1383.13 1165.24 1376.86 1183.97 C 1374.73 1190.31 1374.45 1203.02 1372.62 1210.27 C 1370.84 1217.32 1369.02 1225.06 1367.14 1232.16 C 1364.78 1249.04 1360.31 1271.5 1349.59 1285.01 C 1344.94 1290.87 1314.85 1291.28 1307.26 1291.07 C 1289.77 1290.57 1273.68 1282.58 1262.76 1268.74 C 1260 1265.23 1252.24 1257.86 1247.25 1258.81 C 1228.58 1262.34 1225.04 1278.94 1213.77 1290.38 C 1202.51 1301.8 1189.39 1301.24 1175 1300.81 C 1166.98 1295.03 1160.89 1286.97 1157.52 1277.67 C 1154.06 1268.3 1154.48 1240.6 1150.69 1229.31 C 1149 1224.3 1149.66 1211.64 1148.07 1205.59 C 1145.89 1194.1 1139.22 1181.76 1136.83 1170.59 C 1133.91 1156.94 1131.85 1142.46 1129 1128.69 C 1128.83 1109.84 1132.91 1068.54 1155.94 1064.28 C 1178.87 1060.55 1190.13 1088.89 1175.94 1105.14 C 1172.5 1108.4 1164.81 1122.16 1168.11 1126.8 C 1177.63 1140.17 1173.27 1141.99 1174.52 1154.39 C 1176.03 1169.32 1188.88 1178.17 1175.8 1193.88 C 1178.57 1197.71 1183.53 1206.47 1185.15 1210.74 C 1192.76 1230.78 1190.84 1250.95 1216 1226.91 C 1225.32 1217.54 1236.89 1202.74 1251 1201.65 C 1269.98 1200.19 1277.61 1225.51 1291.5 1235.8 C 1298.94 1236.74 1308 1236.87 1315.63 1237.17 C 1324.92 1218.76 1322.57 1201.64 1344.94 1193.84 C 1346.36 1190.23 1348.48 1186.51 1350.31 1183.05 C 1349.13 1176.75 1346.38 1174.32 1349.47 1167.84 C 1349.26 1163.75 1345.53 1158.6 1343.28 1154.83 C 1345.67 1139.65 1344.9 1131.07 1340.54 1116.32 C 1338.15 1114.63 1338.8 1115.39 1337.16 1113.09 L 1337.54 1112.15 C 1343.94 1096.11 1322.81 1095.63 1320.09 1085.86 C 1316.22 1071.92 1321.15 1064.07 1333.49 1060.13 z" fill="rgb(2,1,2)" transform="translate(0,0)"></path>
<path d="M 361.746 726.966 C 378.684 725.373 390.014 740.208 389.701 756.321 C 389.59 762.013 384.592 767.731 384.018 774.065 C 383.282 782.187 383.178 789.845 383.605 798.019 C 381.991 799.306 380.929 800.183 381.058 802.389 C 381.437 808.855 382.775 815.975 381.392 822.243 C 379.19 832.215 376.735 840.922 379.629 851.036 C 380.786 855.079 383.354 860.366 383.564 864.53 C 385.114 895.214 381.477 937.4 420.923 945.345 C 449.534 950.08 485.949 950.977 511.027 934.163 C 522.098 926.74 522.633 917.194 524.839 904.963 C 513.623 886.496 528.307 880.325 527.502 862.856 L 525.296 861.068 C 522.8 854.902 529.792 842.611 519.5 835.373 C 516.241 833.081 517.775 829.731 517.778 826.548 C 517.792 809.378 506.261 791.118 497.046 777.264 C 496.381 762.484 497.651 760.386 509.158 751.766 C 525.951 752.676 543.222 756.607 555.464 769.142 C 556.196 778.727 554.764 792.117 555.591 804.753 C 555.648 805.181 555.705 805.61 555.762 806.038 C 555.434 823.453 562.567 825.202 554.982 843.847 C 561.694 861.703 562.68 864.049 555.851 881.372 C 558.787 892.641 562.718 927.205 560.589 939.794 C 557.953 955.384 545.975 966.618 533.431 975.08 C 509.498 991.225 485.541 986.105 458.987 986.472 C 438.616 986.754 428.332 989.398 407.145 984.619 C 384.939 979.61 367.098 969.428 354.382 950.192 C 354.559 948.677 354.804 947.347 355.198 945.887 C 354.18 944.29 350.287 938.928 350.258 937.54 C 349.968 924.054 351.123 911.584 349.912 897.982 C 349.165 897.373 346.958 895.566 347.129 895.002 C 349.657 886.659 353.023 882.333 348.901 873.245 C 344.174 862.824 346.309 843.472 348.158 831.677 C 339.777 820.367 343.671 821.726 345.146 808.57 C 345.541 805.045 341.763 794.494 342.248 791.523 C 343.088 786.369 344.243 781.538 345.001 776.196 C 330.221 761.02 331.56 746.877 348.725 732.253 C 351.079 730.247 358.504 728.052 361.746 726.966 z" fill="rgb(2,1,2)" transform="translate(0,0)"></path>
<path d="M 790.463 731.595 C 792.029 731.333 790.651 732.652 795.595 732.065 C 800.04 731.537 809.227 729.581 811.574 732.771 C 812.644 734.225 824.457 732.272 828.558 732.76 C 835.201 733.55 842.466 734.56 847.151 740.238 C 850.836 744.703 851.191 751.001 850.697 756.541 C 849.398 771.096 838.725 767.163 830.741 775.046 C 830.456 775.299 830.172 775.553 829.888 775.806 C 819.256 777.134 808.291 776.044 798.412 777.385 C 781.822 779.635 755.731 787.176 739.625 785.266 C 731.595 789.114 726.357 793.089 719.691 798.792 L 720.931 811.764 C 706.268 833.092 719.555 839.89 714.712 858.479 C 717.462 864.064 721.199 870.044 723.006 875.972 C 727.322 890.126 736.331 963.222 730.618 973.924 C 725.62 983.289 716.372 986.047 706.917 988.921 C 688.341 977.953 689.363 961.202 684.309 942.832 C 681.889 934.037 678.538 932.836 678.442 922.217 C 678.92 921.383 680.929 918.075 680.916 917.468 C 680.626 903.533 674.504 889.256 680.383 875.683 C 681.882 872.221 676.603 859.472 676.785 855.135 C 676.841 853.806 681.163 846.015 682.187 843.926 C 681.539 842.578 679.141 837.108 678.596 836.261 C 674.208 829.433 677.399 820.185 676.628 812.002 C 676.166 807.085 675.526 803.31 674.615 798.339 C 672.632 796.097 667.684 790.605 664.659 790.031 C 640.272 786.145 623.63 788.136 597.545 787.21 C 574.513 786.392 553.764 775.36 569.825 748.7 C 573.076 743.305 593.089 738.62 599.695 737.495 C 607.343 735.145 625.235 746.055 631.469 744.697 C 643.688 742.034 651.314 743.387 663.201 743.731 C 669.712 743.92 691.457 735.142 697.96 735.779 C 713.202 737.271 723.893 739.415 739.27 736.279 C 745.024 735.01 755.889 735.791 762.369 734.78 C 771.654 733.332 781.12 732.163 790.463 731.595 z" fill="rgb(2,1,2)" transform="translate(0,0)"></path>
<path d="M 1784.51 48.4824 C 1786.02 49.9967 1787.46 51.3026 1789.02 52.7413 C 1789.02 55.2597 1788.84 56.8056 1788.33 59.2726 L 1791.3 63.7036 C 1788.2 63.9963 1788.14 63.5865 1785.04 62.5446 C 1783.45 59.6123 1784.45 52.2154 1784.51 48.4824 z" fill="rgb(81,69,55)" transform="translate(0,0)"></path>
<path d="M 1779.93 64.5232 C 1782.42 64.4892 1781.56 64.353 1783.84 65.1914 C 1782.33 67.5918 1782.32 67.6572 1781.43 70.3591 C 1782.88 69.353 1782.06 69.604 1783.9 69.6784 L 1785.84 72.3354 L 1781.54 73.6832 C 1778.46 73.0026 1779.82 73.6932 1777.46 71.3093 C 1777.26 66.9595 1776.95 68.6438 1779.93 64.5232 z" fill="rgb(81,69,55)" transform="translate(0,0)"></path>
<path d="M 1433.9 20.5312 C 1437.1 24.7077 1436.85 25.3669 1435.18 29.9311 L 1432.29 26.5943 C 1431.66 23.1067 1431.71 24.3825 1433.9 20.5312 z" fill="rgb(81,69,55)" transform="translate(0,0)"></path>
<metadata><recraft-signature>{"signed_by": "recraft", "signature_b64": "8OPHT6zm5FFegFGNNAMLDm/K/0iprvGMKfPnSLf4Rozs01r0JYXT9XtLr9BdpyyJ9ZZDyIgVlm9mD112O7TzCg==", "signing_algo": "Ed25519", "generation_timestamp": 1776302784, "identifier": "26a291fd-e6df-46ab-a08c-8d5e436704d7"}</recraft-signature></metadata></svg>