<svg xmlns="http://www.w3.org/2000/svg" height="1024" preserveAspectRatio="none" style="display: block;" version="1.1" viewBox="0 0 2048 2048" width="1024">
<path d="M 0 0 L 2048 0 L 2048 2048 L 0 2048 L 0 0 z" fill="rgb(254,254,254)" transform="translate(0,0)"></path>
<path d="M 246.902 819.823 C 248.099 820.714 247.483 820.16 248.792 821.843 L 249.879 823.266 C 265.772 826.866 283.816 841.033 286.6 857.633 C 287.259 861.564 285.922 868.309 285.466 872.506 C 287.701 873.21 286.638 872.674 288.62 874.177 C 288.594 878.398 289.278 887.594 288.393 890.944 L 284.338 892.498 C 285.241 895.162 286.064 897.852 286.806 900.565 C 288.728 907.703 289.2 911.872 285.537 918.112 L 282.563 918.519 C 283.305 924.803 287.97 932.608 286.776 938.39 C 284.132 939.994 282.428 940.425 282.847 943.57 L 285.615 944.145 C 286.285 948.145 282.384 952.329 282.772 954.52 C 283.594 959.168 286.301 961.125 286.833 966.986 C 286.38 967.641 285.936 968.302 285.502 968.969 C 280.96 976.047 284.787 976.183 284.481 983.597 L 279.687 985.981 L 279.501 987.592 L 283.222 992.026 C 286.79 1010.23 274.144 1032.42 280.19 1050.04 C 280.299 1050.36 283.442 1050.88 285.124 1053.43 C 279.119 1059.99 286.432 1070.38 285.845 1079.15 C 285.351 1086.54 278.946 1082.87 278.941 1089.57 C 278.937 1096.27 286.447 1103.01 284.917 1108.41 C 283.345 1109.19 281.774 1109.82 280.111 1110.38 L 283.133 1112.09 C 284.466 1115.07 285.329 1129.92 285.484 1133.63 C 283.773 1136.23 282.767 1137.3 282.258 1140.4 L 282.971 1141.38 C 292.969 1140.85 283.817 1148.55 292.421 1157.22 L 293.565 1158.36 L 291.68 1160.46 L 292.592 1161.81 L 295.474 1161.16 L 296.072 1162.48 C 295.701 1163.33 294.923 1165.05 295.064 1165.86 C 296.476 1173.93 310.707 1189.02 315.487 1195.3 C 336.477 1202.07 354.99 1218.49 378.975 1208.27 C 389.825 1203.65 406.751 1191.77 411.191 1180.89 C 410.216 1179.39 409.426 1178.09 408.532 1176.54 C 409.756 1171.92 415.079 1167.45 417.423 1163.45 C 421.056 1156.8 421.732 1148.64 423.291 1141.32 C 424.385 1136.19 428.639 1131.46 429.184 1126.64 C 426.939 1126.13 427.671 1126.54 425.958 1125.01 C 427.064 1122.26 426.48 1123.52 430.148 1121.52 C 429.764 1113.04 428.924 1106.89 434.505 1100.02 L 435.797 1098.46 L 435.425 1097 L 432.448 1099.22 L 432.173 1097.63 C 435.982 1091.32 434.567 1073.78 434.646 1065.63 C 436.6 1063.62 436.107 1064.52 437.066 1062 L 434.896 1059.5 C 436.943 1055.11 435.449 1060.55 438.616 1057.56 C 434.646 1051.06 433.575 1047.58 436.295 1040.28 L 437.643 1040.41 L 439.016 1044.41 C 439.783 1043.03 438.542 1034.71 438.099 1032.98 C 435.173 1021.59 440.433 1012.89 440.762 1001.89 C 440.851 998.915 437.062 992.152 436.63 988.116 C 438.939 987.324 437.795 987.61 440.936 988.732 C 441.921 986.155 441.648 987.509 441.022 984.49 L 438.381 985.542 L 437.264 984.46 C 440.259 976.866 437.152 977.663 436.468 969.026 C 436.43 968.553 438.157 968.377 439.052 965.508 C 437.38 963.168 437.217 963.595 436.623 961.055 L 439.456 960.062 L 439.752 958.654 L 435.434 955.908 C 434.9 950.62 436.528 955.495 438.869 950.176 L 435.152 949.478 L 434.152 947.998 C 436.261 944.309 437.773 945.92 441.978 942.529 L 438.25 941.638 L 437.645 939.975 C 439.622 937.836 440.174 937.693 440.952 934.983 C 439.353 934.519 437.757 934.042 436.165 933.555 L 435.094 931.498 L 435.802 929.613 C 437.603 929.804 439.05 929.889 440.86 929.964 L 441.694 928.131 C 431.589 916.21 439.829 922.411 442.142 909.24 C 442.615 906.544 441.627 908.74 442.91 906.498 L 445.804 906.535 C 457.145 895.653 459.447 899.936 469.095 906.87 C 473.935 910.35 477.637 905.091 484.001 914.543 C 482.727 917.158 481.858 918.057 482.352 920.837 L 485.026 918.711 L 486.573 919.005 C 487.807 921.461 488.112 924.09 487.322 926.691 C 484.957 934.475 492.618 945.353 491.468 952.906 L 487.414 954.794 L 487.14 956.698 C 498.794 975.741 485.679 976.197 493.311 996.936 C 494.139 999.185 494.051 999.006 493.871 1001.32 C 491.444 1002.95 491.341 1003.34 490.131 1006 C 491.471 1018.6 488.578 1014.77 488.442 1021.1 C 490.36 1021.91 489.287 1021.56 491.702 1022.14 L 491.092 1024.53 C 488.888 1025.27 489.49 1024.98 487.453 1026.24 L 489.447 1027.86 C 489.873 1031.48 488.733 1040.88 488.348 1045.02 C 493.591 1052.54 490.893 1074.42 490.744 1084.46 L 492.959 1084 L 494.311 1084.92 C 495.023 1089.5 492.646 1094.11 492.501 1099.89 C 498.079 1106.23 501.476 1109.08 496.997 1115.58 C 497.587 1114.72 499.091 1121.19 498.848 1123.45 C 496.749 1124.97 497.25 1124.46 495.571 1126.44 C 506.519 1139.38 500.945 1141.44 502.151 1156.96 C 502.361 1159.67 506.168 1168.08 507.466 1171.04 C 505.554 1173.83 505.81 1172.67 505.414 1175.7 C 508.214 1175.18 507.181 1174.99 509.634 1175.87 L 509.246 1177.3 L 507.32 1177.23 L 506.504 1178.06 C 507.778 1187.98 516.972 1204.08 521.134 1214.72 C 526.712 1216.87 532.302 1222.87 535.044 1227.99 C 535.852 1232.94 532.22 1233.26 532.424 1238.31 C 534.333 1238.22 534.647 1238.23 536.657 1238.33 C 536.659 1241.65 535.846 1241.28 532.758 1244.62 C 533.66 1247.68 537.052 1251.99 538.988 1254.77 C 538.324 1257.1 537.894 1256.62 534.965 1258.27 C 531.84 1263.67 535.198 1264.89 532.035 1268.46 C 525.973 1269.66 524.595 1270.51 520.501 1265.91 C 518.969 1266.6 517.979 1267.21 516.615 1268.15 C 495.762 1266.22 500.571 1265.06 482.908 1258.37 C 479.785 1251.14 475.979 1246.58 471.86 1239.94 C 467.835 1233.45 464.273 1226.41 460.958 1219.53 C 463.965 1213.66 460.552 1213.44 459.284 1206.58 L 461.793 1204.87 L 461.017 1203.5 C 457.565 1203.2 458.673 1203.71 455.893 1202.13 L 455.687 1198.69 L 454.654 1198.07 C 448.695 1202.41 444.808 1217.1 441.525 1219.88 C 437.35 1223.42 431.112 1229.14 426.789 1233.1 L 430.2 1231.06 C 427.858 1233.15 425.87 1234.81 423.241 1237.03 C 419.707 1240 417.726 1241.24 412.634 1242.35 C 404.734 1244.07 394.359 1247 386.146 1247 C 384.281 1245.92 382.764 1245.04 381.595 1244.36 C 363.902 1248.83 345.501 1245.17 328.44 1239.07 C 324.553 1237.93 318.584 1233.39 314.87 1232.8 C 306.906 1231.53 305.157 1231.64 300.23 1224.55 L 302.017 1223.73 C 293.923 1217.31 284.075 1219.48 279.283 1208.34 C 264.192 1199.46 258.3 1189.06 247.93 1175.12 C 248.25 1174.31 248.569 1173.5 248.889 1172.68 C 245.205 1165.53 241.525 1158.45 238.816 1150.84 C 235.903 1143.06 238.475 1138.19 237.607 1130.22 C 234.591 1129.9 235.604 1130.38 233.281 1128.79 L 233.134 1126.52 C 234.363 1125.93 235.584 1125.33 236.797 1124.71 L 236.119 1122.86 L 231.801 1121.62 C 230.114 1118.32 229.407 1105.48 229.279 1101.38 C 236.476 1087.92 229.629 1087.61 230.399 1072.63 C 237.623 1066.39 229.051 1067.11 230.155 1059.03 L 233.828 1056.51 C 234.962 1052.08 228.942 1040.9 229.543 1036.43 C 231.632 1020.88 232.553 1006 232.939 990.375 C 233.05 985.838 232.64 968.785 233.402 966.295 C 236.076 964.114 235.724 965.085 236.822 962.315 L 234.55 961.487 C 233.479 958.819 233.654 960.163 234.428 957.355 L 237.378 957.129 L 238.291 956.031 C 236.483 950.528 232.382 951.916 230.975 947.139 L 233.389 945.752 C 233.248 940.181 233.32 934.606 233.605 929.041 C 233.889 922.528 233.319 920.74 237.441 916.975 C 236.922 903.505 235.742 888.532 233.695 875.009 C 233.516 873.832 235.772 865.95 235.439 860.332 L 235.329 858.599 C 242.595 844.388 230.584 826.026 246.902 819.823 z" fill="rgb(0,0,0)" transform="translate(0,0)"></path>
<path d="M 1221.29 897.686 L 1221.89 897.523 C 1223.81 898.117 1223.51 898.127 1225.26 898.32 C 1243.68 900.362 1266.09 909.111 1280.28 921.288 C 1287.77 927.707 1301.16 938.544 1303.93 948.868 C 1305.31 954.052 1302 953.417 1302.36 956.527 L 1306.65 955.991 C 1309.1 958.202 1313.12 962.108 1313.23 965.461 C 1310.69 967.097 1310.56 966.947 1308.9 969.389 C 1309.18 978.748 1313.3 974.279 1316.59 977.933 C 1319.03 980.645 1318.05 999.412 1317.21 1003.26 L 1313.29 1005.27 C 1311.87 1009.42 1315.68 1007.01 1315.75 1012.39 C 1310.61 1016.47 1314.45 1011.38 1310.06 1014.37 L 1309.7 1023.4 C 1307.3 1024.71 1308.01 1024.06 1306.24 1026.05 C 1307.28 1027.39 1308.3 1028.35 1309.62 1029.41 C 1304.91 1034.92 1308 1028.99 1302.88 1033.06 L 1304.82 1034.34 L 1304.94 1035.45 C 1302.49 1037.48 1300.23 1039.34 1297.9 1041.53 C 1298.54 1043.51 1298.95 1044.95 1299.44 1046.96 C 1295.42 1053.9 1297.4 1046.17 1293.81 1050.95 C 1295.95 1052.09 1295.29 1051.5 1296.82 1053.33 C 1292.01 1059.96 1281.47 1068.79 1274.84 1073.74 C 1266.6 1079.89 1253.12 1083.53 1242.86 1084.04 C 1238 1084.28 1237.73 1084.36 1234.46 1080.93 C 1232.58 1083.62 1232.66 1083.5 1230.03 1085.49 C 1222.63 1086.7 1208.09 1082.26 1200.95 1079.56 C 1187.25 1074.38 1177.03 1057.4 1165.09 1050.35 L 1163.59 1051.17 C 1160.13 1056.95 1165.84 1064.83 1165.68 1071.91 L 1163.62 1073.35 L 1163.58 1075.48 C 1165.2 1077.89 1166.61 1079.43 1166.92 1082.28 C 1158.54 1091.65 1168.16 1090.92 1169.83 1093.32 C 1168.96 1096.19 1168.58 1096.06 1166.35 1098.19 L 1165.54 1098.96 C 1169.47 1103.24 1169.33 1100.63 1170.86 1105.66 C 1162.9 1111.92 1170.78 1116.6 1171.27 1124.3 C 1171.44 1127.01 1169.65 1130.7 1169.56 1133.92 C 1171.56 1134.47 1171.91 1134.61 1173.78 1135.51 C 1174.42 1138.22 1174.4 1140.7 1173.83 1143.86 C 1171.71 1155.49 1175.48 1167.5 1176.29 1179.29 C 1176.35 1180.29 1179.06 1181.17 1179.64 1185.26 C 1176.31 1190.64 1178.95 1184.7 1173.9 1187.02 L 1174.29 1189.26 L 1177.11 1189.06 C 1180.56 1196.54 1176.43 1196.59 1183.32 1204.81 C 1183.35 1212.43 1183.7 1219.52 1185.27 1226.98 C 1188.07 1240.28 1200.82 1290.29 1210.83 1296.53 C 1213.48 1298.18 1214.84 1299.6 1215.73 1302.71 C 1215.43 1305.71 1215.09 1305.92 1213.18 1308.23 C 1214.27 1311.13 1217.01 1308.6 1218.71 1312.47 L 1217.16 1313.36 L 1216.87 1314.73 C 1214.26 1325 1222.58 1325.09 1224.17 1334.89 C 1222.46 1337.99 1220.66 1339.96 1221.89 1343.38 C 1223.83 1342.09 1223.87 1340.5 1224.94 1337.82 C 1226.8 1341.07 1225.04 1340.97 1225.18 1344.31 C 1225.5 1352.02 1219.77 1357.9 1213.88 1362 C 1211.89 1363.38 1208.05 1362.62 1205.61 1361.76 C 1190.52 1356.43 1175.39 1345.73 1164.45 1334.13 C 1159.14 1327.93 1148.94 1305.18 1147.15 1296.52 C 1145.95 1290.72 1148 1278.22 1147.42 1272.32 C 1147.35 1271.61 1141.32 1263.21 1140.14 1261 C 1140.96 1259.82 1141.59 1258.95 1142.5 1257.82 L 1143.2 1256.97 C 1136.52 1251.37 1137.94 1233.9 1137.65 1225.04 C 1134.61 1222.53 1134.5 1222.56 1132.3 1219.38 C 1132.55 1214.08 1134.17 1220.16 1138.16 1214.86 C 1135.13 1207.27 1137.06 1213.74 1138.73 1207.72 L 1137.45 1206.92 L 1132.93 1208.71 L 1132.07 1208.01 C 1132.76 1204.79 1132.9 1203.19 1134.58 1200.29 L 1137.78 1201.81 C 1136.56 1196.78 1133.7 1199.01 1132.13 1193.54 L 1133.88 1191.62 C 1134.06 1188.79 1133.18 1188.73 1131.1 1185.74 C 1130.86 1180.78 1129.04 1175.7 1128.02 1170.47 L 1129.86 1168.72 C 1129.71 1161.87 1123.51 1147.6 1121.45 1140.4 L 1123.98 1138.83 C 1124.38 1135.54 1123.4 1128.62 1123.02 1125.03 C 1121.03 1123.8 1121.8 1124.2 1119.8 1123.24 L 1118.46 1122.61 C 1118.12 1119.39 1119.04 1120.25 1121.66 1116.84 C 1124.19 1113.54 1118.36 1107.79 1118.37 1102.69 C 1118.38 1097.72 1123 1095.29 1121.83 1090.37 C 1119.03 1090.36 1119.95 1090.58 1117.36 1089.71 C 1116.27 1081.85 1120.87 1076.32 1117.73 1066.19 C 1115.65 1059.49 1113.4 1047.84 1112.15 1040.51 C 1111.13 1034.51 1115.36 1043.36 1115.12 1030.96 C 1114.94 1021.98 1113.47 1011.05 1113.03 1001.97 C 1112.92 999.576 1114.87 1002.75 1115.97 998.658 C 1113.71 998.244 1113.57 998.222 1111.46 997.316 L 1111.61 995.639 L 1114.6 994.206 C 1115.88 991.493 1111.94 989.424 1111.99 987.939 C 1112.47 972.085 1107.06 954.818 1109.54 939.634 C 1110.49 933.856 1093.43 918.631 1107.74 908.88 C 1110.28 908.159 1130.99 910.705 1135.96 910.081 C 1138.34 909.783 1150.97 917.529 1153.52 916.741 C 1162.76 913.883 1170.73 907.43 1179.67 903.716 C 1191.44 899.835 1209.08 898.038 1221.29 897.686 z" fill="rgb(0,0,0)" transform="translate(0,0)"></path>
<path d="M 1221.68 933.171 C 1229.12 932.775 1244.32 932.42 1250.95 935.008 L 1248.92 936.558 C 1248.46 939.225 1259.56 944.812 1261.14 947.569 C 1263.53 951.724 1260.62 958.467 1261.99 962.636 L 1265.66 964.288 L 1265.96 965.389 L 1263.44 967.407 L 1263.66 969.259 C 1265.57 970.584 1265.48 970.308 1266.95 972.018 L 1265.21 973.949 C 1265.05 976.9 1267.95 982.252 1269.31 985.237 C 1263.34 988.581 1270.24 986.342 1268.04 992.694 C 1267.01 995.685 1263.12 1004.22 1261.03 1006.81 C 1256.33 1012.65 1262.07 1017.73 1257.59 1022.03 L 1255.37 1019.96 C 1246.39 1021.54 1237.03 1037.99 1207.77 1039.13 C 1198.72 1036.94 1187.56 1032.48 1180.12 1027.02 C 1179.22 1023.9 1178.98 1021.59 1176.62 1019.47 C 1172.77 1018.41 1164.44 1015.31 1161.49 1016.33 L 1161.78 1019.98 L 1160.68 1020.06 C 1149.65 1009.56 1163.84 1014.75 1155.67 1000.01 C 1158.38 995.873 1158.74 996.411 1158.19 992.56 L 1154.54 989.929 L 1154.72 988.527 L 1157.48 988.83 C 1160.34 986.196 1158.74 978.208 1160.95 973.023 C 1166.13 971.9 1169.91 965.331 1173.86 961.177 C 1178.4 956.44 1183.37 952.147 1188.72 948.357 C 1201.06 939.72 1207.35 937.262 1221.68 933.171 z" fill="rgb(254,254,254)" transform="translate(0,0)"></path>
<path d="M 662.183 734.875 C 666.948 735.347 675.572 735.672 678.987 738.45 C 679.302 741.028 679.007 739.788 679.853 742.175 C 708.959 747.897 708.289 766.656 709.123 791.765 C 709.279 796.452 720.132 802.412 725.939 801.652 C 725.437 798.75 720.543 800.937 718.396 797.434 C 732.469 797.817 746.311 798.708 760.305 800.053 C 761.49 800.167 774.045 796.902 776.247 796.514 C 787.649 794.504 782.455 798.88 787.869 802.822 L 788.773 800.068 C 796.336 793.612 801.837 799.853 809.559 796.464 C 811.636 797.171 812.903 797.783 814.409 799.364 C 817.826 802.952 843.452 804.723 849.669 806.681 C 855.819 808.617 857.532 816.971 862.781 818.941 C 864.154 819.457 864.9 819.802 866.084 820.645 C 867.325 830.626 858.815 835.884 849.923 836.843 C 802.412 841.97 752.975 843.496 705.745 850.426 C 704.732 854.584 699.73 868.578 699.677 869.607 L 702.496 870.84 C 703.871 874.992 698.876 884.192 699.04 888.041 C 699.67 902.813 698.158 916.394 695.983 930.942 C 695.158 936.462 694.624 936.355 698.079 940.551 C 696.019 943.079 695.34 943.484 694.494 946.637 C 695.758 946.188 696.419 945.669 697.495 944.896 C 698.442 948.657 697.043 949.582 694.943 953.018 C 696.388 956.541 696.858 957.826 697.758 961.506 C 696.979 965.661 696.05 966.246 693.217 969.409 C 692.461 973.584 696.522 978.52 696.036 979.807 C 692.405 989.41 695.356 994.501 695.871 1003.02 C 689.757 1008.24 696.569 1005.35 695.836 1008.94 C 692.982 1022.93 697.561 1034.63 696.724 1048.53 C 696.576 1051 692.856 1050.94 690.29 1052.53 C 694.589 1053.91 694.884 1053.25 697.441 1056.1 C 693.644 1065.48 703.908 1057.75 695.695 1068.58 C 695.697 1068.58 698.17 1083.36 698.445 1085.01 C 697.607 1085.66 696.77 1086.31 695.932 1086.96 L 696.436 1088.33 L 700.133 1088.83 C 702.656 1093.5 698.594 1103.09 698.298 1108.16 C 698.209 1109.68 699.583 1110.22 701.331 1111.87 C 701.983 1115.69 702.684 1127.75 702.352 1132.36 C 702.387 1131.88 700.34 1133.05 699.115 1134.87 L 699.839 1136.12 C 702.172 1134.79 701.323 1134.68 703.311 1134.88 C 700.691 1142.44 702.441 1141.81 706.672 1148.38 C 704.023 1149.95 701.954 1150.71 700.684 1153.42 C 701.385 1156.74 702.762 1163.27 703.476 1166.64 C 703.563 1167.05 706.657 1167.22 708.691 1169.7 C 705.524 1170.76 705.174 1170.82 702.178 1172.59 C 700.204 1177.29 703.338 1179 705.656 1182.49 C 707.166 1184.77 705.294 1189.62 704.637 1192.28 C 707.325 1197.92 709.25 1200.93 708.187 1206.95 C 706.538 1216.29 713.786 1228.58 715.375 1237.74 C 715.646 1239.31 714.492 1239.76 712.896 1241.45 C 712.301 1249.19 720.814 1255.73 722.478 1263.51 C 719.387 1273.7 725.748 1272.1 724.563 1278.44 C 722.304 1279.35 723.443 1278.83 721.155 1280.01 C 723.396 1281.32 723.359 1281.16 724.887 1283.22 C 724.016 1289.58 714.102 1298.14 707.988 1297.75 C 706.509 1294.95 710.408 1295.1 710.1 1292.16 L 707.514 1293.2 C 706.289 1295.45 706.297 1295.78 704.459 1297.5 C 702.095 1296.88 699.098 1296.15 696.817 1295.45 C 690.004 1293.37 694.771 1294.76 692.624 1290.73 L 690.149 1291.93 L 688.702 1291.21 L 689.92 1288.73 L 680.922 1286.69 C 673.951 1285.09 668.888 1283.17 664.981 1276.91 L 666.928 1275.65 L 666.98 1274.59 C 664.796 1274.49 664.589 1274.47 662.48 1273.91 C 662.111 1271.94 662.237 1272.04 662.744 1270.12 C 657.814 1266.08 661.352 1271.44 655.603 1267.54 C 654.134 1263.76 654.415 1261.8 654.348 1257.64 C 642.987 1247.79 654.679 1248.67 654.522 1240.75 L 651.198 1238.4 C 654.023 1237.56 653.992 1237.61 656.461 1236.02 C 658.532 1226.3 655.046 1223.86 653.969 1214.92 C 656.143 1212.75 656.788 1212.05 658.624 1209.6 C 658.344 1206.13 658.277 1207.13 654.864 1203.95 L 654.86 1201.94 L 658.098 1199.44 C 658.068 1196.07 656.483 1187.83 656.719 1185.88 C 657.473 1179.66 658.536 1172.95 659.283 1166.6 C 656.979 1165.45 658.005 1166.15 656.176 1164.56 C 657.078 1158.68 659.599 1164.43 659.257 1160.52 C 658.866 1156.06 656.151 1147.95 658.786 1143.83 C 659.834 1142.19 659.582 1142.73 659.639 1140.94 C 656.998 1140.49 655.124 1140.46 652.482 1140.35 L 651.989 1139 C 655.173 1137.42 656.776 1136.23 659.643 1134.22 C 656.896 1134.28 655.364 1134.53 652.781 1133.53 C 655.419 1128.78 658.644 1132.03 661.028 1127.52 L 660.139 1126.7 C 657.557 1127.52 657.424 1127.73 654.768 1127.67 C 654.252 1123.62 653.22 1120.25 652.027 1116.37 C 654.722 1114.66 654.683 1114.86 656.382 1112.21 C 657.631 1101.97 651.239 1100.85 648.609 1090.76 C 649.347 1087.42 653.645 1082.65 655.943 1079.7 C 649.208 1074.86 653.482 1072.58 650.819 1064.16 C 651.152 1065.22 647.173 1061.51 646.38 1060.42 C 661.033 1051.97 645.708 1042.75 645.488 1038.1 L 649.022 1037.57 L 649.461 1036.9 C 647.226 1035.4 645.837 1034.72 644.263 1032.5 C 646.323 1030.88 645.696 1031.93 646.566 1029.58 L 644.266 1026.9 C 645.589 1024.65 647.142 1024.66 650.129 1023.36 C 648.478 1018.37 642.181 1003.15 645.076 999.483 L 649.281 999.633 L 649.831 998.063 C 642.396 978.721 651.342 981.751 650.788 976.176 L 646.56 977.903 L 645.919 977.02 L 646.836 975.735 C 649.473 975.324 650.843 975.479 652.711 973.691 L 652.674 970.499 L 651.309 969.34 L 646.89 970.81 L 645.471 969.684 C 644.843 965.737 647.539 964.788 648 960.543 L 644.67 959.347 C 643.402 956.464 643.738 958.021 644.319 954.427 C 647.351 950.685 648.459 950.257 649.019 945.977 C 647.104 945 647.339 945.131 645.471 943.795 C 645.629 938.059 647.707 931.95 648.481 925.609 L 645.605 922.448 L 645.75 920.615 L 650.311 917.609 C 647.578 916.516 647.46 916.716 645.574 914.547 L 645.91 912.552 L 648.112 911.636 C 648.349 907.165 647.507 896.867 647.242 891.969 C 649.634 888.87 650.641 887.647 650.685 884.075 C 647.1 883.906 648.141 884.64 645.996 882.948 C 646.202 878.706 645.983 877.472 647.695 873.729 L 649.354 873.466 L 652.517 876.299 L 653.537 875.954 C 653.538 871.449 652.058 871.513 648.399 870.068 C 647.155 864.983 649.701 866.616 649.284 860.55 C 647.72 860.375 641.462 858.568 641.456 858.568 C 631.472 859.367 621.803 863.038 612.087 865.093 C 603.366 866.938 597.2 863.515 590.145 869.783 L 588.776 869.611 L 588.794 866.937 C 585.162 865.304 584.313 866.187 579.633 866.681 C 578.542 869.106 578.813 867.791 579.646 870.844 C 572.999 871.306 564.697 871.213 558.633 874.103 C 547.786 879.274 510.554 872.357 503.266 874.867 C 502.838 875.014 502.421 875.189 501.998 875.349 C 499.315 874.023 499.354 872.118 497.73 868.528 C 491.469 872.318 484.935 867.354 479.845 863.471 C 473.281 858.462 462.699 851.029 464.631 841.547 C 466.513 832.308 480.216 831.89 486.796 828.05 C 493.106 824.047 502.625 826.38 510.064 824.726 C 515.862 822.403 541.006 824.865 544.768 823.243 C 558.836 817.177 568.585 816.675 584.043 815.079 C 585.253 816.472 586.427 817.896 587.564 819.349 L 589.129 819.052 L 587.333 815.119 C 592.667 811.114 596.989 820.185 601.35 816.309 L 598.464 814.902 C 602.466 811.136 606.56 814.14 613.351 812.762 L 615.194 809.673 C 617.964 808.697 616.651 808.576 619.223 809.507 C 620.12 812.523 619.402 811.636 621.444 813.598 C 625.158 809.304 619.682 813.126 621.632 808.452 C 629.465 804.254 639.965 809.739 649.147 807.329 L 649.764 805.844 L 647.202 802.986 L 648.036 800.8 C 655.767 794.883 655.179 796.66 651.461 788.769 L 652.501 788.031 C 654.6 789.288 655.1 789.585 657.367 790.466 L 657.468 788.647 C 655.277 786.724 653.496 785.714 653.001 782.949 L 655.362 780.916 C 656.137 775.778 650.615 778.32 653.609 771.785 C 656.201 766.127 660.496 767.275 660.684 761.445 L 659.268 760.426 L 654.537 761.665 L 653.103 759.071 C 654.299 754.688 655.376 755.781 658.746 751.46 C 651.028 745.099 656.025 739.514 662.183 734.875 z" fill="rgb(0,0,0)" transform="translate(0,0)"></path>
<path d="M 1692.2 895.473 C 1721.71 892.596 1751.78 907.184 1758.13 938.62 C 1758.46 940.271 1749.95 957.915 1750.47 961.026 C 1750.41 960.628 1752.35 962.695 1752.94 964.701 C 1750.74 967.554 1749.49 968.084 1750.24 971.43 C 1752.61 971.783 1751.87 971.352 1753.65 972.627 L 1751.05 975.648 C 1750.3 987.909 1760.65 1024.86 1765.03 1036.57 L 1765.56 1037.96 L 1764.67 1037.55 C 1768.25 1040.78 1774.63 1046.34 1775.28 1050.79 L 1772.96 1052.7 L 1772.84 1054.02 C 1779.82 1060.07 1795.12 1073.6 1802.45 1081.32 C 1804.42 1083.4 1802.19 1079.2 1806.47 1081.55 C 1813.64 1093.05 1819.41 1115.15 1812.57 1128.86 C 1811.2 1131.61 1800.58 1132.3 1797.04 1132.82 C 1791.94 1130.4 1789.28 1132.2 1787.67 1131.33 C 1765.23 1119.14 1749.17 1123.52 1736.71 1098.87 C 1734.51 1098.37 1734.26 1098.31 1732.22 1097.37 C 1731.28 1092.43 1733.39 1093.83 1733.74 1088.39 C 1722.32 1086.76 1722.86 1062.84 1709.24 1056.18 C 1709.35 1052.58 1709.03 1049.32 1708.77 1045.74 C 1705.32 1043.75 1705.17 1043.54 1702.21 1040.78 L 1704.23 1038.84 L 1703.65 1036.87 L 1701.58 1036.09 C 1698.89 1037.09 1697.25 1040.1 1695.42 1042.57 C 1693.4 1042.66 1693.56 1042.57 1691.81 1041.66 C 1689.52 1043.71 1689.15 1048.42 1688.51 1051.74 C 1674.99 1056.8 1661.48 1069.64 1642.66 1073.86 C 1629.16 1076.89 1603.23 1080.11 1591.23 1073.19 L 1591.11 1070.76 L 1590.24 1070.13 L 1587.51 1071.99 C 1581.25 1071.7 1554.48 1049.19 1556.11 1040.91 C 1557.37 1034.48 1548.61 1030.71 1548.46 1025.31 C 1548.43 1024.18 1552.01 1023.59 1551.95 1019.24 C 1549.75 1017.79 1549.63 1017.87 1548.07 1015.8 C 1548.44 1012.11 1551.96 994.792 1554.22 990.504 C 1556.34 986.484 1553.92 993.736 1558.81 989.473 C 1559.27 985.544 1560.11 979.76 1561.38 976.019 C 1568.8 954.087 1598.45 923.717 1618.88 912.818 C 1630.43 906.459 1643.12 901.721 1655.49 897.491 C 1657.59 896.775 1680.97 896.496 1682.93 897.123 C 1682.41 898.11 1681.94 899.078 1681.44 900.077 L 1682.9 901.307 C 1687.92 902.617 1695.21 902.808 1700.22 901.53 L 1700.97 900.012 C 1699.15 897.285 1697.91 897.931 1693.52 896.957 L 1692.2 895.473 z" fill="rgb(0,0,0)" transform="translate(0,0)"></path>
<path d="M 1691.26 943.871 L 1692.06 944.144 C 1690.3 949.018 1692.89 949.415 1693.25 954.302 C 1694.28 968.33 1680.82 988.29 1672.93 998.306 C 1659.23 1015.7 1613.27 1045.71 1592.65 1028.11 C 1592.04 1026.65 1592.32 1027.31 1593.21 1025.03 C 1588.79 1004.81 1621.24 971.169 1637.26 960.289 C 1642.47 956.753 1658.06 953.677 1661.26 950.322 C 1658.49 949.825 1658.46 950.21 1656.32 948.832 C 1662.66 944.817 1683.33 943.842 1691.26 943.871 z" fill="rgb(254,254,254)" transform="translate(0,0)"></path>
<path d="M 886.635 895.557 C 905.253 899.122 925.353 910.591 935.017 927.369 C 937.76 932.13 948.077 926.851 953.877 930.589 C 958.464 940.257 961.802 933.699 967.176 935.886 C 991.423 945.758 1015.73 960.176 1032.27 980.87 C 1031.36 979.732 1031.24 984.025 1031.26 984.176 C 1037.05 985.987 1039.73 987.9 1041.99 993.676 C 1039.65 994.431 1040.8 994.006 1038.56 994.948 C 1041.54 1000 1050.74 1007.19 1053.52 1013.45 C 1056.03 1017 1050.93 1018.64 1052.73 1022.03 C 1058.23 1032.39 1062.15 1033.84 1052.61 1044.05 C 1053.07 1045.2 1053.53 1046.34 1053.98 1047.5 C 1053.24 1049.52 1052.38 1051.5 1051.43 1053.44 C 1045.97 1064.43 1037.91 1072.54 1027.62 1079.93 C 1026.61 1080.66 1018.45 1081.8 1015.29 1082.86 C 1016.43 1083.75 1017.32 1084.48 1018.41 1085.41 C 1015.38 1090.72 992.208 1100.44 985.254 1103.5 C 955.774 1114.09 922.351 1118.67 892.677 1106.53 L 890.064 1107.96 C 885.168 1105.07 887.129 1100.78 882.573 1099 C 878.947 1097.59 883.327 1102.04 877.613 1099.41 L 878.402 1097.46 C 876.818 1095.34 873.845 1095.73 870.055 1094.94 C 865.851 1091.56 862.639 1089.54 862.649 1083.81 C 860.647 1082.21 852.58 1076.03 851.902 1074.15 C 848.055 1063.24 842.314 1051.87 838.934 1040.99 C 837.289 1035.69 845.844 1035.64 837.348 1027.89 C 836.627 1025.04 839.225 1016.07 840.033 1012.64 C 837.482 1012.68 838.454 1013.16 836.806 1011.76 C 838.456 1003.57 846.136 955.345 850.251 952.646 L 854.32 953.742 C 855.916 950.499 852.719 953.815 850.955 946.626 C 851.762 943.588 852.928 938.167 854.463 935.654 C 857.238 935.351 856.277 935.71 858.663 934.335 L 857.151 930.044 C 857.57 926.693 857.573 926.939 859.815 924.368 L 863.371 925.668 C 866.297 924.169 865.481 924.385 867.419 920.961 C 865.933 919.542 866.557 920.33 865.529 918.61 C 867.876 913.647 870.704 907.982 872.944 903.066 C 877.435 893.21 879.288 899.199 886.635 895.557 z" fill="rgb(0,0,0)" transform="translate(0,0)"></path>
<path d="M 939.857 963.838 C 944.896 970.274 958.014 969.265 963.362 971.673 C 977.867 978.205 1001.17 998.112 1008.74 1011.09 L 1006.36 1011.29 L 1005.45 1012.37 C 1006.78 1015.47 1008 1015.5 1011.23 1017.82 L 1011.53 1019.78 C 1009.08 1018.62 1008.97 1018.24 1006.37 1018.54 L 1005.64 1020.4 C 1006.7 1021.19 1007.76 1021.99 1008.82 1022.79 C 1001.09 1043 986.683 1068.39 961.159 1071.57 C 957.71 1071.99 958.581 1072.1 955.479 1074.11 C 948.985 1076.56 929.184 1080.29 923.024 1079.62 C 906.589 1077.83 888.003 1063.35 887.086 1045.88 C 887.123 1046.58 884.546 1044.95 884.056 1044.35 L 887.159 1042.75 C 888.193 1037.6 886.788 1042.98 884.789 1037.93 C 886.552 1036.76 885.722 1037.43 887.27 1035.93 C 886.042 1028.02 886.12 1019.69 890.22 1012.54 L 893.368 1012.58 L 894.134 1010.99 L 892.332 1008.43 C 894.293 995.512 909.235 973.817 921.83 968.643 C 925.905 966.969 935.022 965.264 939.857 963.838 z" fill="rgb(254,254,254)" transform="translate(0,0)"></path>
<path d="M 1418.29 686.574 C 1420.62 688.368 1419.37 688.124 1421.95 687.953 L 1422.19 686.978 C 1439.62 685.177 1473.77 692.749 1488.59 704.546 L 1488.25 707.901 C 1489.74 707.649 1490.74 707.096 1492.09 706.46 C 1495.33 707.542 1494.09 706.627 1496.15 708.985 C 1492.64 708.936 1491.15 708.96 1487.68 709.315 L 1487 710.498 C 1489.01 713.33 1492.66 711.269 1495.12 712.344 C 1499.3 714.164 1510.15 734.7 1512.09 739.231 C 1513.96 745.171 1511.25 750.622 1515.8 755.84 C 1520.58 761.328 1514.42 765.368 1512.64 769.427 C 1512.35 770.086 1514.6 771.888 1512.91 776.88 L 1510.08 776.825 C 1507.54 781.228 1511.5 782.601 1508.58 786.368 C 1488.75 812.009 1458.5 821.401 1428.98 826.571 C 1421.87 825.825 1398.06 823.88 1394.67 817.872 L 1397.58 816.441 L 1396.14 814.927 C 1394.6 814.61 1388.59 813.379 1387.63 812.697 C 1380.66 807.75 1370.11 796.955 1365.42 790.326 L 1366.15 786.914 L 1364.09 784.68 C 1362.94 784.8 1362.04 784.905 1360.89 785.1 L 1359.99 785.26 C 1357.97 782.853 1358.07 781.867 1357.63 778.796 L 1356.72 772.314 C 1353.96 771.162 1354.1 771.26 1351.9 769.246 C 1350.7 765.053 1345.68 749.766 1346.43 746.588 L 1349.69 745.218 C 1347.47 740.023 1343.2 730.759 1346.04 725.557 L 1349.47 724.849 L 1350.58 723.084 C 1348.96 721.563 1349.41 722.133 1348.22 720.185 C 1349.8 717.089 1350.61 714.632 1353.41 712.665 L 1355.45 715.361 L 1356.59 714.604 C 1355.49 710.584 1355.63 710.563 1357.86 707.405 C 1360.55 707.732 1359.73 707.761 1362.44 707.411 L 1363.12 704.751 L 1365.52 703.607 C 1364.43 701.6 1364.64 702.188 1364.04 699.952 C 1374.76 696.848 1367.29 701.437 1377.64 691.812 C 1379.97 689.647 1382.69 689.014 1385.97 689.369 C 1393.92 690.227 1404.06 690.89 1411.9 689.307 C 1413.91 688.902 1413.65 688.417 1415.75 688.755 C 1416.33 688.884 1416.92 689.014 1417.5 689.144 L 1418.29 686.574 z" fill="rgb(0,0,0)" transform="translate(0,0)"></path>
<path d="M 1426.34 736.356 C 1433.27 736.338 1437.55 734.249 1443.9 738.407 C 1447.8 740.983 1450.47 745.039 1451.3 749.633 C 1454.01 764.063 1443.04 771.877 1430.34 774.051 L 1428.93 774.282 L 1427.35 776.938 L 1425.75 776.515 C 1418.25 772.827 1401.7 766.272 1402.82 756.273 C 1405.38 754.834 1406.13 754.633 1408.13 752.456 C 1407.55 749.51 1407.1 750.112 1403.75 747.757 C 1406.87 742.561 1420.09 737.044 1426.34 736.356 z" fill="rgb(254,254,254)" transform="translate(0,0)"></path>
<path d="M 1404.25 883.645 C 1408.96 883.732 1409.33 885.925 1411.77 889.336 L 1413.49 889.343 C 1413.21 886.826 1413.17 888.027 1413.52 885.738 C 1426.15 886.179 1448.91 904.26 1447.41 918.063 C 1447.23 919.771 1449.58 922.265 1450.65 923.802 C 1450.39 928.091 1449.8 935.045 1448.54 939.097 C 1445.82 947.859 1450.7 947.514 1451.93 954.776 C 1445.34 959.786 1452.37 969.716 1450.81 977.286 C 1450.17 980.378 1450.9 985.672 1450.8 988.975 C 1450.82 988.252 1448.56 990.412 1448.08 991.752 C 1458.82 998.143 1448.95 998.987 1448.7 1004.26 C 1448.7 1004.45 1452.76 1014.19 1453.14 1014.95 C 1457.86 1024.18 1461.59 1047.22 1459.75 1057.43 C 1456.38 1076.18 1473.54 1096.98 1472.53 1111.03 L 1470.2 1112.45 L 1470.39 1113.24 L 1470.68 1114.57 C 1474.29 1130.27 1465.62 1130.65 1452.98 1130.59 C 1450.11 1130.25 1449.49 1130.1 1446.71 1129.29 C 1434.28 1115.13 1423.99 1119.27 1414.5 1105.24 C 1413.12 1103.21 1406.71 1086.5 1406.16 1083 C 1405.78 1080.58 1407.54 1084.48 1408.61 1080.06 L 1406.37 1078.97 L 1405.97 1077.57 C 1408.1 1075.99 1407.6 1076.51 1409.32 1074.47 C 1398.93 1062.19 1401.55 1063.64 1404.26 1049.15 C 1404.59 1047.4 1401.75 1043.71 1401.82 1040.94 C 1402.1 1030.54 1401.92 1020.37 1401.01 1010.01 C 1393.39 998.614 1400.97 998.909 1400.79 988.364 C 1399.28 988.941 1400.13 988.793 1398.21 988.59 C 1392.37 976.505 1394.83 964.986 1397.18 953.427 C 1397.51 951.791 1394.72 945.131 1395.03 941.112 L 1397.15 939.6 C 1398.13 932.359 1389.41 928.162 1395.42 921.443 C 1395.37 916.356 1390.36 914.574 1391.13 913.675 C 1396.35 907.579 1378.84 898.824 1387.52 890.484 C 1393.95 884.314 1399.6 887.094 1404.25 883.645 z" fill="rgb(0,0,0)" transform="translate(0,0)"></path>
<metadata><recraft-signature>{"signed_by": "recraft", "signature_b64": "n7n/v+SXj6sNac/IqY0oCkksR9ag8GhJX83ZJIgqSuJopXz8Jt5xbDE3AlRoPNBdJ+Iy1BGMvKZZdleEaCS0AQ==", "signing_algo": "Ed25519", "generation_timestamp": 1776310305, "identifier": "c5cadcdf-bc93-42ba-b4d3-51d8d081bdb7"}</recraft-signature></metadata></svg>