<svg xmlns="http://www.w3.org/2000/svg" height="1024" preserveAspectRatio="none" style="display: block;" version="1.1" viewBox="0 0 2048 2048" width="1024">
<path d="M 0 0 L 1464.54 0 L 2048 0 L 2048 752.4 L 2048 2048 L 0 2048 L 0 500.049 L 0 0 z" fill="rgb(119,94,72)" transform="translate(0,0)"></path>
<path d="M 1464.54 0 L 2048 0 L 2048 752.4 L 2045.56 752.095 C 2044.02 747.824 2044.94 669.159 2044.94 659.546 L 2044.79 344.311 L 2045.28 270.58 C 2045.27 241.424 2044.49 212.054 2045.17 182.813 C 2045.24 179.591 2044.71 173.092 2041.46 171.686 C 2037.87 174.325 2036.22 175.541 2032.34 177.637 C 2029.64 177.119 2018.13 178.254 2015.9 180.315 C 2017.63 184.368 2018.6 184.876 2016.6 188.52 C 2012.27 189.871 2008.1 192.447 2004.85 191.604 C 2002.62 188.975 2002.61 187.476 2001.9 184.107 L 2001.65 182.861 L 2001.1 184.978 C 1998.52 187.169 1999.93 186.783 1997.05 187.09 C 1995.8 184.573 1996.61 184.185 1997.49 180.617 C 1989.21 185.255 1993.21 177.084 1982.97 175.747 C 1979.05 177.403 1979.91 176.125 1978.54 178.886 C 1980.36 184.31 1981.66 186.394 1979.35 191.291 L 1977.97 189.032 C 1974.78 189.476 1973.88 189.741 1970.61 189.241 C 1968.16 185.617 1969.15 183.578 1968.34 178.34 L 1967.02 177.376 C 1966.24 180.793 1966.26 183.949 1966.1 187.447 C 1963.1 189.271 1961.99 190.024 1959.24 192.194 L 1959.44 195.491 L 1961.3 194.453 L 1962.22 195.876 C 1960.38 199.658 1959.91 200.433 1959 204.461 L 1962.09 204.863 C 1962.4 205.172 1962.27 206.885 1962.28 207.526 C 1960.02 208.184 1953.61 204.495 1950.59 203.134 C 1948.25 205.888 1948.93 207.059 1948.43 211.482 C 1946.66 212.781 1945.64 213.521 1943.74 214.549 L 1942.27 215.331 C 1943.81 216.753 1944.28 217.326 1945.6 218.965 L 1944.36 220.606 C 1942.22 220.379 1943.24 220.185 1941.3 221.234 C 1941.65 224.01 1941.84 224.204 1941.33 226.901 C 1936.25 227.356 1941.95 225.781 1938.79 222.641 C 1935.31 219.187 1937.83 224.255 1933.07 220.456 L 1933.58 215.284 L 1932.5 214.172 C 1930.76 216.556 1930.09 217.921 1927.48 219.337 C 1925.38 216.234 1928.33 214.291 1926.27 209.43 C 1923.81 208.104 1924.55 208.816 1922.96 206.575 C 1924.1 203.756 1926.24 198.055 1929 196.964 L 1929.41 199.166 L 1931.09 198.033 L 1932.48 200.332 C 1933.51 196.344 1932.82 190.168 1930.28 186.856 C 1927.36 186.515 1928.82 186.287 1925.93 188.554 C 1923.98 187.7 1922.54 185.354 1921.87 183.359 C 1920.56 179.398 1923.3 182.224 1925.24 178.035 C 1924.14 172.77 1920.59 173.457 1918.62 169.788 C 1911.94 157.28 1924.81 154.626 1908.65 144.481 C 1909.16 144.801 1906.82 137.082 1906.18 135.568 C 1902.13 133.508 1904.94 134.442 1901.04 137.77 C 1899.52 139.061 1896.25 134.445 1894.43 135.353 C 1887.9 138.609 1882.68 147.599 1875.21 148.099 C 1871.01 146.096 1872.07 140.252 1866.92 138.57 C 1852.04 141.701 1839.65 142.351 1828.03 152.416 C 1826.14 154.053 1824.12 144.96 1820.08 142.443 C 1818.3 143.061 1817.81 143.335 1816.22 144.266 L 1814.68 145.174 L 1813.66 144.438 L 1812.96 139.408 L 1809.33 140.835 C 1800.77 138.732 1796.22 130.113 1791.7 124.332 C 1788.94 122.813 1780.56 120.235 1778.49 118.386 C 1773.08 113.574 1774.21 108.872 1765.64 107.896 C 1764.01 109.152 1764.22 109.252 1763.31 111.115 C 1756.59 112.63 1745.59 115.666 1739.66 118.979 C 1739.68 121.665 1739.63 122.208 1739.19 124.859 C 1735.85 127.678 1730.2 125.814 1725.99 124.95 C 1713.33 122.352 1713.17 121.909 1703.63 130.874 C 1700 131.505 1701.89 131.637 1697.9 129.195 C 1692.64 130.552 1696.09 132.926 1690.56 135.23 L 1688.34 134.31 C 1687.09 131.808 1687.02 131.382 1685.21 129.312 C 1684.26 129.302 1681.07 129.153 1680.36 129.245 C 1675.78 129.845 1664.11 117.92 1660.55 114.1 L 1662.78 109.684 C 1660.83 106.477 1657.9 103.204 1660.25 99.8574 C 1661.09 99.8424 1661.97 99.7301 1662.79 99.8855 C 1662.38 96.7267 1662.2 93.8694 1659.95 92.0784 C 1656.28 93.8778 1654.52 100.603 1649.29 104.673 C 1644.84 104.418 1646.64 105.2 1643.44 102.986 C 1643.05 101.135 1642.75 99.3237 1642.61 97.4381 C 1641.2 99.1311 1641.69 98.4554 1640.49 100.202 L 1639.68 101.396 L 1638.15 100.927 C 1636.5 96.7883 1635.72 92.6472 1631.08 91.6307 C 1624.9 94.4256 1620.18 95.6349 1613.66 97.4815 C 1610.47 101.796 1607.12 105.498 1603.59 109.523 C 1601.01 105.931 1601.63 105.508 1598.28 104.346 C 1598.23 106.038 1598.34 107.599 1598.54 109.277 L 1597.15 110.35 C 1592.39 109.902 1592.13 106.267 1589.61 105.384 C 1584.66 103.646 1579.51 105.22 1576.34 99.5874 C 1578.63 91.9693 1575.9 91.8636 1571.06 85.354 C 1568.06 85.8679 1571.19 88.4863 1568.13 92.1079 C 1567.06 91.5201 1567.6 91.7576 1566.2 91.3152 L 1565.09 90.9783 C 1564.4 81.2757 1571.28 70.641 1575.47 62.5377 L 1574.47 62.0198 L 1571.43 63.2005 C 1569.8 60.0603 1570.4 58.4514 1570.45 54.5413 C 1569.48 57.3041 1569.34 57.2904 1567.56 59.6842 L 1566.24 59.4453 L 1563.63 54.2685 C 1562.78 56.4366 1561.83 59.7636 1559.51 60.4466 C 1554.9 58.5489 1555.65 54.6526 1551.26 52.1877 L 1551.67 55.6858 C 1554.1 57.9983 1554.47 58.111 1554.12 61.1487 L 1552.61 61.3685 C 1551.21 58.8246 1551.4 58.8231 1549.04 57.2146 L 1547.61 57.547 L 1548.41 61.983 C 1546.22 65.3693 1545.07 67.2041 1542.46 70.2313 C 1540.38 67.8429 1543.84 64.8303 1541.22 59.176 L 1539.68 58.7739 L 1538.51 60.0002 C 1538.24 62.6568 1538.27 62.6632 1537.31 65.1427 C 1531.53 65.6043 1530.49 63.3543 1527.94 58.6928 C 1523.35 61.9454 1528.11 62.7271 1523.14 65.6917 C 1516.71 64.2447 1523.74 64.2015 1519.26 62.2719 C 1518.74 64.5282 1518.77 64.3807 1517.41 66.2719 L 1516.13 65.6146 C 1515.58 63.3114 1516.25 62.3665 1517.13 60.1296 L 1517.47 59.2743 C 1514.67 61.938 1515.88 61.8438 1513.19 62.0254 C 1511.43 57.0211 1518.39 52.6732 1515.12 41.7692 C 1511.89 40.8561 1508 44.102 1504.9 44.4842 C 1500.64 45.009 1503.81 42.006 1499.31 39.2296 C 1487.31 41.6687 1491.81 38.9546 1479.74 36.5425 C 1477.13 36.0216 1455.75 38.0118 1452.12 39.4657 C 1453.53 38.9 1449.26 42.3547 1449.52 42.1423 L 1438.48 39.4877 C 1434.5 29.2105 1423.92 19.258 1432.67 6.23929 L 1430.9 3.14458 C 1437.52 2.77674 1462.36 5.69624 1464.54 0 z" fill="rgb(81,69,55)" transform="translate(0,0)"></path>
<path d="M 0 0 L 1464.54 0 C 1462.36 5.69624 1437.52 2.77674 1430.9 3.14458 C 1427.12 3.07239 1403.44 1.68039 1401.71 4.86924 C 1397.24 13.0858 1388 18.8789 1383.19 7.43227 C 1380.68 1.61313 1378.31 2.11763 1373.04 3.75185 L 1369.5 4.83674 C 1365.79 2.49638 1367.66 2.78652 1363.85 3.22752 C 1359.33 9.20816 1354.67 15.0863 1349.88 20.8574 C 1347.08 20.6721 1347.09 20.4596 1344.51 19.1986 L 1342.78 19.4523 C 1341.53 21.5456 1341.67 21.6553 1341.24 24.1014 C 1335.76 27.9804 1317.34 41.9081 1314.33 40.1929 C 1295.67 29.5968 1296.82 9.71086 1268.41 8.55021 C 1267.07 6.87216 1265.76 5.17478 1264.47 3.45861 C 1247.58 2.21354 1219.52 2.8744 1201.84 3.03429 C 1180.87 3.22396 1153.06 2.06814 1132.91 3.32496 L 1131.74 6.84504 C 1124.72 7.94206 1123.78 5.93887 1119.49 11.7771 C 1117.04 10.6956 1117.12 10.4519 1115.31 8.3967 C 1112.05 10.8099 1108.76 10.8022 1104.81 9.54076 C 1103.51 5.54532 1104.17 5.24151 1101.57 3.41221 C 1090.93 2.11715 1040.45 2.79142 1029.09 3.87094 C 1024.48 8.88385 1016.05 19.0539 1008.99 12.9598 C 1007.83 8.9528 1007.8 5.2253 1005.47 3.15336 C 953.537 2.21202 901 3.9107 848.994 2.91637 C 846.447 2.86767 842.368 2.91975 839.84 3.36264 C 836.237 3.99367 836.029 6.0556 832.319 5.99993 L 830.757 3.57545 C 819.992 2.13949 785.381 2.97784 773.681 3.00892 L 664.042 3.01587 L 494 3.2472 C 466.369 3.1703 422.662 1.60461 395.749 3.30544 C 392.905 9.34211 393.843 14.2063 390.495 18.7674 C 387.482 18.783 388.961 19.0947 386.188 16.9427 C 386.199 19.2735 385.896 18.1322 387.311 20.3033 L 389.151 20.3409 C 391.017 22.598 391.174 22.4171 391.444 25.2687 C 388.91 27.136 385.756 25.5497 383.561 23.7697 C 382.574 21.83 381.627 19.8701 380.721 17.8911 C 377.166 21.6039 375.994 24.5639 371.706 26.7327 C 364.228 26.5988 367.449 8.56327 364.357 3.06182 L 362.817 3.13792 L 361.226 5.20591 C 353.757 4.0858 348.519 1.09046 341.358 3.83128 C 339.023 5.90566 339.007 8.45713 338.372 11.6647 C 334.394 15.731 327.491 12.0823 321.535 19.2552 C 319.683 18.297 317.995 17.4202 316.098 16.545 C 310.345 19.7044 311.753 20.1234 306.55 19.3632 C 302.348 15.3061 306.968 13.0473 305.154 8.2887 C 297.407 5.54313 302.976 14.5004 290.808 3.11685 C 286.175 2.50869 285.293 3.1069 280.656 4.25188 C 279.223 4.59173 277.793 4.94147 276.366 5.30109 C 262.275 -4.69595 264.76 15.1788 254.503 13.6036 L 253.288 14.3488 C 248.851 17.0468 236.504 23.5939 230.718 25.0689 C 217.754 28.374 200.42 21.7952 188.338 27.5466 C 187.542 27.9255 186.308 31.2627 186.011 32.1266 C 181.314 33.6373 178.499 26.4524 174.374 34.6151 L 173.841 35.6909 C 166.332 50.6521 148.982 54.3536 143.262 65.878 C 137.926 66.7309 126.829 60.7048 121.961 59.0455 C 119.993 58.3747 109.646 69.9416 107.487 69.6266 C 100.685 68.6338 93.1842 76.6381 87.0813 77.2526 C 87.0789 77.2528 80.3432 72.4624 80.1322 72.3141 C 77.9099 73.1495 75.6875 73.9848 73.4652 74.8201 C 69.4244 72.0622 71.8907 71.775 67.7457 72.7086 L 67.3623 75.44 C 62.7532 76.3447 59.2042 73.4847 58.5917 73.8962 C 54.3648 76.7358 45.0259 79.5448 41.6442 83.0057 L 41.1025 84.9536 C 40.0776 88.5081 39.5977 89.9668 36.5074 91.9046 C 35.1229 90.6418 33.7956 89.4733 32.1658 88.5406 L 30.721 90.7861 C 32.2321 96.3031 34.1756 94.2513 36.8556 99.4263 C 35.0312 101.642 35.8148 100.887 33.1557 102.291 C 34.4524 105.214 33.9751 104.222 36.4143 106.634 L 36.1919 107.809 C 27.8233 112.629 28.4992 119.963 21.4989 127.914 L 21.3 129.69 C 23.8021 130.945 24.3347 130.792 27.1678 131.151 C 26.2723 133.717 26.9505 132.505 23.9566 134.329 C 12.0823 135.103 14.1234 128.456 5.73487 135.592 L 4.34888 135.445 L 3.58563 133.99 C 1.92307 143.158 3.21255 184.252 3.18411 196.996 L 3.01875 397.796 C 2.9723 429.191 3.51677 460.589 2.7901 491.974 C 2.67538 496.929 1.25298 496.386 0 500.049 L 0 0 z" fill="rgb(87,67,49)" transform="translate(0,0)"></path>
<path d="M 412.895 858.026 C 424.747 857.899 431.535 859.347 440.764 867.783 C 445.955 872.528 448.669 879.696 448.016 886.515 C 447.155 887.619 449.779 889.838 449.69 890.444 C 447.863 902.844 434.812 910.985 445.857 922.353 C 454.293 926.074 457.747 919.453 462.641 920.358 C 485.665 924.971 511.281 915.481 533.414 920.772 C 523.937 918.506 578.796 914.658 576.426 914.825 C 581.418 917.814 589.332 920.596 595.208 921.011 C 603.522 921.599 606.711 917.652 612.524 912.526 C 627.096 913.757 636.008 912.708 651.5 915.781 C 666.928 918.842 678.527 916.073 693.826 925.451 C 703.876 931.611 705.558 930.213 712.855 940.393 C 738.03 949.134 750.687 983.369 756.767 986.533 C 761.495 980.301 759.242 948.691 768.947 942.562 C 773.525 939.67 777.533 918.339 787.046 918.912 C 793.645 919.31 791.4 913.719 794.678 910.518 C 806.31 903.811 814.146 904.748 822.926 893.214 C 840.151 893.807 850.665 895.931 866.953 901.224 C 865.768 900.839 870.954 899.077 872.06 898.986 L 874.24 901.678 C 888.435 905.57 884.126 901.295 894.122 914.724 C 895.202 916.175 901.099 915.61 904.009 918.178 C 922.853 934.805 941.044 951.754 945.348 977.811 C 946.165 982.348 946.115 992.823 946.476 998.186 C 942.857 1003.68 935.395 1017.11 931.831 1021.71 C 928.079 1026.56 890.781 1044.8 885.984 1045.32 C 867.321 1047.34 872.314 1043.07 854.985 1053.41 C 841.558 1050.22 831.654 1052.37 818.541 1050.44 C 819.429 1050.57 815.418 1049.2 814.843 1049.09 L 813.63 1051.45 C 817.02 1061.23 813.451 1066.13 813.842 1076.83 C 814.244 1087.86 821.212 1105.05 816.18 1115.07 C 816.015 1115.4 822.73 1126.16 823.128 1131.89 C 823.926 1143.39 825.914 1153.96 824.716 1165.45 C 824.578 1166.81 819.745 1173.74 818.84 1175.06 C 831.626 1175.3 844.759 1172.23 857.51 1172.18 C 893.363 1171.65 932.044 1175.72 967.539 1171.01 C 989.997 1168.04 1004.4 1169.69 1026.34 1170.3 C 1042.41 1170.75 1063.95 1165.19 1080.65 1165.34 C 1093.29 1165.44 1105.62 1166.12 1118.23 1166.42 C 1125.66 1166.22 1132.76 1165.06 1140.04 1164.62 C 1156.77 1163.61 1173.52 1163.09 1190.27 1163.08 C 1202.21 1163.11 1213.85 1163.28 1226.01 1163.42 C 1234.55 1163.52 1245.27 1161.64 1254.07 1162.11 C 1271.99 1163.05 1290.53 1163.81 1308.58 1164 C 1308.58 1164 1312.14 1161.48 1312.14 1161.48 C 1323.93 1160.87 1335.74 1159.77 1347.22 1158.17 C 1352.6 1157.72 1364.21 1163.05 1368.85 1161.12 C 1374.76 1158.53 1382.41 1159.22 1389.01 1159.58 C 1414.91 1160.97 1439.49 1154.2 1465.17 1153.05 C 1473.8 1152.66 1483.47 1154.4 1491.78 1156.7 C 1514.47 1148.22 1526.41 1152.66 1547.99 1151.61 C 1579.65 1150.07 1606.63 1148.2 1638.61 1150.54 C 1641.82 1154 1643.01 1156.18 1648 1155.28 C 1648.12 1154.58 1648.25 1153.88 1648.4 1153.18 C 1650.31 1143.72 1661.18 1151.98 1666.57 1151.01 C 1684.82 1147.73 1703.49 1145.98 1721.56 1143.14 C 1722.8 1142.08 1724.61 1140.63 1726.25 1140.42 C 1748.21 1137.63 1781.07 1123.73 1790.11 1160.24 C 1786.7 1173.57 1784.83 1174.21 1774.02 1182.9 C 1772.64 1182.16 1763.18 1177.1 1762.09 1176.88 C 1742.48 1173.3 1721.76 1180.43 1701.9 1180.71 C 1684.78 1180.96 1675.7 1175.28 1659.17 1181.94 C 1657.52 1181.23 1655.76 1180.43 1653.99 1180.08 C 1648.68 1179.01 1640.77 1180.16 1635.16 1180.04 C 1607.8 1179.46 1580.19 1178.55 1552.83 1179.64 C 1542.09 1180.06 1531.43 1181.83 1520.66 1182.13 C 1512.57 1182.36 1504.27 1181.16 1496.24 1181.66 C 1491.05 1181.98 1485.93 1184.14 1480.76 1184.21 C 1472.98 1184.31 1465.36 1180.83 1457.46 1181.33 C 1449.41 1181.83 1441.47 1183.71 1433.44 1184.44 C 1424.56 1185.25 1365.45 1187.67 1360.26 1184.57 C 1359.71 1184.25 1359.22 1183.82 1358.63 1183.58 C 1356.22 1182.55 1353.66 1183.81 1351.45 1184.76 C 1349.52 1185.58 1347.84 1186.32 1345.69 1186.39 C 1333.7 1186.82 1321.52 1185.97 1309.48 1186.14 C 1297.88 1186.3 1286.35 1187.38 1274.72 1187.26 C 1264.77 1187.15 1254.66 1185.96 1244.74 1186.81 C 1242.64 1191.49 1242.69 1188 1239.41 1186.45 C 1237.55 1185.58 1230.92 1187.16 1229.37 1187.74 C 1222.1 1190.43 1221.7 1187.11 1215.83 1185.77 C 1211.02 1186.27 1203.03 1189.77 1198.38 1189.74 C 1178.28 1189.6 1158.55 1188.64 1138.44 1190.29 C 1134.36 1190.63 1129.8 1186.75 1124.07 1187.32 C 1114.05 1195.19 1076.98 1189.07 1062.99 1190.4 C 1055.74 1191.09 1050.73 1193.99 1045.47 1194.38 C 1032.43 1195.36 1017.6 1192.43 1004.45 1192.39 C 982.834 1191.72 936.798 1201.37 918.746 1193.9 C 905.649 1198.59 868.714 1198.12 856.105 1193.64 C 833.129 1202.36 796.919 1195.87 772.466 1197.25 C 727.419 1198.78 682.551 1201.8 637.391 1201 C 629.358 1200.86 620.064 1203.27 611.982 1203.15 C 575.955 1202.59 539.301 1207.94 503.463 1208.89 C 505.421 1210.01 461.276 1214.79 449.999 1213.67 C 433.534 1212.05 396.798 1215.58 377.909 1214.87 C 368.102 1214.5 366.417 1211.76 359.386 1215.84 C 332.924 1216.33 279.815 1221.64 254.027 1215.51 C 248.904 1214.29 246.043 1202.34 244.572 1197.15 C 249.112 1190.96 254.014 1187.42 260.078 1183 C 290.923 1182.6 319.061 1191.75 350.733 1187.27 C 373.018 1184.11 399.98 1187.57 422.493 1187.16 C 438.229 1186.88 457.833 1192.03 472.854 1186.61 C 476.569 1185.33 487.425 1185.87 491.891 1185.48 L 552.977 1180.68 C 577.041 1178.71 599.287 1176.83 623.501 1178.08 C 629.625 1178.4 639.533 1176.48 644.935 1179.19 C 646.88 1180.16 646.614 1180.23 648.915 1180.99 L 649.945 1178.75 C 655.334 1176.63 761.177 1175.52 774.383 1175.09 C 778.359 1168.12 766.935 1131.62 769.87 1122.26 C 772.198 1114.83 770.946 1115.54 766.454 1110.07 C 765.674 1105.42 768.445 1104.24 768.705 1101.85 C 769.928 1090.63 760.67 1095.86 768.873 1083.5 C 769.106 1080.02 763.775 1069.6 762.032 1065.97 C 763.384 1062.46 766.882 1052.31 765.149 1049.87 C 761.424 1044.62 761.56 1039.89 759.551 1034.38 L 757.818 1033.92 C 749.531 1039.88 750.051 1052.32 739.876 1056.67 C 738.891 1057.09 733.928 1069.89 731.969 1072.22 C 724.545 1081.05 722.353 1072.32 715.311 1084.4 C 702.068 1088.08 694.451 1098.7 682.068 1098.73 C 678.254 1098.74 678.037 1098.66 674.34 1099.49 C 672.541 1101.79 672.279 1102.73 669.525 1103.49 C 660.33 1100.14 656.705 1108.21 644.662 1109.49 C 616.087 1112.52 583.536 1104.94 571.24 1075.97 C 570.809 1074.95 573.935 1072.67 575.034 1071.6 C 572.594 1071.9 571.109 1072.18 568.802 1071.56 C 564.359 1070.38 564.649 1055.71 564.442 1051.17 C 564.167 1045.12 558.176 1044.88 557.405 1040.05 C 556.623 1035.15 562.511 1024.9 558.998 1020.08 C 557.712 1018.31 557.37 1016.9 556.627 1014.74 C 557.534 1009.93 556.766 1011.69 560.921 1007.93 C 561.408 1005.88 560.648 1002.51 559.441 1000.93 C 557.267 998.094 563.117 989.392 565.567 984.496 C 563.684 976.479 562.141 975.625 567.139 968.542 C 563.359 967.202 554.775 969.408 550.344 969.284 C 529.733 968.706 509.106 971.123 488.352 971.763 C 478.053 972.081 456.992 970.582 447.929 972.582 L 439.916 974.316 C 435.088 979.977 436.377 999.735 435.774 1006.84 C 433.217 1036.94 448.526 1070.01 447.444 1099.75 L 447.357 1101.76 C 438.774 1111.88 430.412 1119.54 416.391 1114.45 C 389.357 1104.62 396.604 1068.97 385.458 1047.6 C 389.913 1034.38 382.979 1011.78 386.647 1006.24 C 387.459 1005.01 388.937 1003.06 388.791 1001.52 C 388.678 1000.32 387.061 998.731 386.784 997.484 C 386.054 994.205 387.81 989.19 387.642 985.667 C 387.559 983.936 386.977 982.392 385.693 981.218 C 377.451 973.679 343.344 979.456 331.242 978.678 C 326.087 978.346 319.469 974.805 314.485 975.827 C 311.843 976.37 311.402 976.927 309.839 978.914 C 310.091 982.41 310.4 983.586 311.209 986.888 C 307.689 997.343 305.038 1008.42 301.042 1018.94 C 284.393 1062.74 256.221 1099.02 210.852 1115.01 C 211.107 1114.92 203.608 1113.96 203.007 1113.94 L 201.329 1114.89 C 186.257 1123.36 167.479 1120.1 150.61 1119.58 C 151.367 1119.6 145.329 1116.33 145.128 1116.23 C 132.162 1124.27 128.029 1108.96 116.288 1105.37 C 107.42 1102.66 97.6259 1082.88 87.0792 1072.65 L 86.1124 1071.73 C 85.7598 1069.74 83.7551 1062.23 82.93 1060.48 C 79.2798 1052.78 82.9062 1044.88 80.3931 1037.89 C 71.821 1030.53 72.6194 1025.31 77.732 1015.53 C 81.3424 1008.63 77.9524 1006.12 74.3019 1000.79 C 76.5495 995.267 76.7325 992.975 76.8127 987.307 C 76.8852 982.176 82.8152 980.932 81.2725 973.738 C 79.7968 966.857 82.5155 965.122 86.238 960.476 C 86.0775 958.735 84.9982 952.502 85.3313 951.18 C 90.4154 931.001 98.5167 916.729 86.4495 896.484 C 98.2713 884.498 100.814 862.686 127.475 881.923 C 143.282 893.328 142.744 912.657 141.626 929.309 C 140.608 944.486 137.039 952.251 131.814 966.166 C 129.422 981.742 128.697 1000.86 127.741 1016.52 C 127.42 1021.78 128.618 1019.76 125.99 1025.34 C 128.769 1034.12 133.081 1050 136.635 1057.72 C 146.733 1079.65 192.72 1070.97 208.897 1061.53 C 225.346 1051.92 242.178 1036.22 251.079 1019.33 C 252.125 1016.57 256.47 1011.76 257.074 1009.06 C 257.796 1005.82 260.339 989.698 263.075 988.385 C 272.568 983.831 261.992 973.126 267.991 965.532 C 271.26 961.393 269.534 959.946 267.887 955.198 C 268.911 950.872 267.995 952.447 271.951 949.459 C 271.997 946.466 267.671 937.057 266.418 932.492 C 269.486 922.366 262.968 921.874 257.68 913.001 C 253.658 906.253 255.766 897.265 256.139 889.343 C 265.062 875.037 269.974 873.193 285.696 871.074 C 300.341 884.921 300.711 882.291 311.476 900.786 C 311.001 903.838 312.26 926.065 313.084 928.025 C 323.137 930.4 379.096 927.137 387.986 925.056 C 391.018 917.923 391.479 906.503 393.324 898.657 C 395.862 887.857 398.605 877.667 400.587 866.717 C 405.369 862.494 407.571 861.227 412.895 858.026 z" fill="rgb(2,1,2)" transform="translate(0,0)"></path>
<path d="M 628.421 963.659 C 635.291 961.745 645.421 965.289 655.528 965.392 C 658.126 967.937 658.263 968.367 661.635 969.919 C 662.904 969.788 666.87 969.342 667.966 969.89 C 677.128 975.079 692.368 980.569 700.251 987.099 C 706.118 991.959 705.537 996.461 714.424 1002.27 C 713.03 1015.02 714.011 1027.91 699.106 1033.18 C 695.741 1034.37 699.88 1037.26 697.783 1038.42 C 689.054 1043.24 690.193 1041.75 685.798 1050.47 C 682.952 1051.44 682.239 1050.64 678.754 1049.84 C 674.237 1051.66 669.698 1053.43 665.139 1055.15 C 656.262 1058.43 629.355 1065.36 621.667 1059.92 C 593.428 1039.94 608.774 991.579 621.55 966.344 C 622.86 963.756 625.83 964.018 628.421 963.659 z" fill="rgb(130,104,83)" transform="translate(0,0)"></path>
<path d="M 862.204 944.003 L 863.379 944.897 C 863.175 947.052 862.491 951.49 863.519 952.971 C 866.943 957.904 885.787 961.797 888.08 966.237 C 890.371 970.673 896.073 981.048 893.527 986.235 C 890.076 993.264 881.735 992.718 875.564 994.634 C 871.846 995.789 866.955 997.932 863.442 999.387 C 862.383 1002.39 862.046 1003.5 860.408 1006.34 C 855.768 1007.07 854.635 1001.64 844.487 1001.96 C 834.457 1008.34 837.923 1006.02 827.891 1003.59 C 824.016 1002.66 815.281 1002.17 810.838 1001.63 C 809.312 999.455 810.024 1000.31 810.409 996.389 C 809.482 994.909 808.451 993.65 807.247 992.386 C 806.51 980.901 814.895 964.479 821.519 955.184 C 834.745 936.627 844.907 950.968 860.902 944.539 L 862.204 944.003 z" fill="rgb(130,104,83)" transform="translate(0,0)"></path>
<path d="M 1486.27 851.137 C 1494.67 850.823 1497.96 852.664 1505.73 855.083 C 1509.64 856.303 1511.05 854.437 1514.8 852.279 C 1528.98 861.266 1524.87 854.878 1534.36 858.099 C 1555.61 865.308 1584.56 879.386 1595.62 899.722 C 1603.74 914.641 1610.88 929.864 1605.2 946.861 C 1606.12 950.122 1605.26 948.808 1607.9 950.937 L 1610.31 950.567 C 1618.15 944.106 1617.21 945.003 1626.5 946.815 C 1631.91 944.87 1634.91 941.826 1639.35 938.155 C 1646.33 940.679 1646.15 939.656 1652.22 940.546 C 1665.65 942.512 1667.28 946.345 1680.61 942.221 C 1700.07 948.247 1706.89 961.71 1713.05 980.223 C 1709.96 1001.26 1702.93 997.871 1710.69 1022.36 C 1717.82 1027.13 1719.04 1029.8 1724.16 1036.82 C 1730.17 1039.38 1737.8 1041.77 1744.09 1043.91 C 1753.43 1058.58 1758.06 1043.29 1762.26 1072.49 C 1754.58 1085.25 1748.88 1094.16 1732.11 1092.03 C 1713.89 1089.71 1686.07 1077.57 1674.45 1063.79 L 1670.54 1066.06 C 1656.85 1074.13 1637.32 1076.44 1621.55 1076.82 C 1603.87 1077.24 1590.97 1072.6 1576.52 1063.04 C 1557.64 1048.51 1566.59 1038.19 1556.18 1031.85 C 1553.32 1026.7 1560.33 1015.72 1556.17 1010.05 L 1554.06 1010.15 C 1549.29 1012.85 1548.13 1014.83 1544.67 1019.02 C 1534.06 1020.54 1516.96 1025.82 1506.58 1029.87 C 1503.11 1031.22 1500.98 1030.48 1496.9 1030.28 C 1493.7 1032.13 1494.93 1030.87 1493.25 1034.36 C 1493.96 1045.72 1537.5 1056.28 1545.1 1070.34 C 1552.05 1083.18 1546.86 1096.22 1534.1 1103.76 C 1509.77 1118.13 1484.21 1086.38 1464.26 1077.65 C 1460.73 1076.1 1453.06 1100.11 1440.31 1094.93 C 1434.93 1094.02 1420.25 1084.79 1419.2 1080.43 C 1412.51 1052.63 1412.73 1020.72 1415.4 992.259 C 1415.75 988.868 1412.01 985.632 1409.75 982.733 C 1413.63 968.35 1413.14 939.515 1414.12 923.53 C 1421.2 916.652 1420.82 909.751 1434.69 897.085 L 1434.77 899.026 C 1434.87 898.38 1436.91 886.643 1436.97 886.814 C 1432.27 873.739 1443.81 862.754 1453.28 857.049 L 1462.83 859.328 C 1471.44 855.666 1477.32 853.642 1486.27 851.137 z" fill="rgb(2,1,2)" transform="translate(0,0)"></path>
<path d="M 1486.71 902.838 C 1488.77 904.045 1489.34 904.582 1491.72 904.697 C 1507.49 905.464 1521.52 908.137 1536.88 911.38 C 1543.56 918.466 1556.92 925.98 1558.55 929.503 C 1558.09 938.952 1554.08 943.663 1550.65 951.622 C 1545.53 963.512 1536.26 961.761 1529.55 971.06 C 1510.26 974.925 1466.66 1011.78 1475.38 964.169 C 1477.9 950.399 1474.13 910.067 1486.71 902.838 z" fill="rgb(130,104,83)" transform="translate(0,0)"></path>
<path d="M 1642.32 991.099 C 1645.06 991.893 1648.25 992.173 1651.12 992.569 C 1653.31 991.409 1652.23 991.688 1654.29 991.499 C 1660.32 1001.58 1648.34 1017.69 1641.51 1025.11 C 1640.4 1023.86 1641.06 1024.53 1639.48 1023.17 C 1634.92 1026.53 1633.13 1026.42 1627.58 1027.36 C 1620.02 1026.29 1618.39 1022.97 1613.04 1025.59 C 1602.39 1018.89 1615.12 1007.28 1620.28 1001.76 C 1620.71 999.337 1620.75 998.799 1621.64 996.529 C 1629.21 995.175 1634.94 993.342 1642.32 991.099 z" fill="rgb(130,104,83)" transform="translate(0,0)"></path>
<path d="M 1145.32 919.254 C 1154.68 919.395 1153.72 922.012 1166.62 920.411 C 1193.52 935.516 1204.94 927.88 1214.52 964.697 L 1210.91 976.469 C 1215.15 982.518 1216.63 987.527 1220.04 994.059 C 1226.52 1006.47 1233.3 1014.27 1242.68 1024.48 C 1255.74 1027.6 1257.2 1034.82 1266.92 1039.37 C 1280.21 1045.58 1290.75 1045.27 1299.76 1059.84 C 1310.13 1076.61 1295.1 1094.17 1277.41 1093.15 C 1271.45 1092.79 1270.36 1089.69 1265.1 1092.61 C 1247.98 1083.96 1234.89 1078.46 1217.22 1068.41 C 1212.9 1065.27 1207.07 1059.83 1202.92 1056.15 C 1195.4 1062.14 1187.42 1066.29 1179.71 1072.19 C 1170.28 1073.48 1155.93 1079.21 1148.64 1079.18 C 1133.92 1079.13 1125.7 1077.5 1110.11 1079.39 C 1103.85 1072.55 1102.84 1075.38 1096.09 1071.15 C 1087.65 1065.87 1074.7 1059.21 1069.73 1050.38 C 1072.76 1041.8 1063.24 1046.35 1063.2 1033.47 C 1063.19 1029.38 1060.92 1026.5 1058.57 1023.19 L 1057.59 1021.83 C 1056.66 993.802 1055.75 983.942 1074.25 961.178 C 1074.25 956.19 1074.18 955.844 1077.7 952.741 C 1086.65 952.707 1085.38 945.82 1090.85 942.552 C 1102.28 935.734 1110.12 931.387 1120.42 922.517 C 1129.39 921.225 1136.15 921.036 1145.32 919.254 z" fill="rgb(2,1,2)" transform="translate(0,0)"></path>
<path d="M 1151.57 968.553 L 1152.57 968.398 C 1170.61 976.688 1154.45 1007.84 1169.51 1020.52 C 1164.28 1023.79 1159.7 1024.93 1155 1027.32 C 1143.82 1032.99 1144.69 1029.07 1135.75 1029.6 C 1123.87 1033.34 1100.61 1018.49 1110.68 1001.78 C 1115.41 993.91 1125.84 982.061 1126.39 976.126 C 1132.35 970.777 1132.32 975.831 1139.41 975.187 C 1140.66 972.905 1140.57 972.705 1142.53 971.077 C 1146.84 970.683 1147.77 970.559 1151.57 968.553 z" fill="rgb(130,104,83)" transform="translate(0,0)"></path>
<path d="M 1971.59 880.759 C 1980.45 880.252 1985.94 886.326 1986.58 894.747 C 1987.55 907.384 1981.17 915.348 1978.4 926.897 C 1977.14 932.154 1979.26 941.712 1975.09 946.146 C 1973.37 947.755 1973.1 948.462 1971.9 950.589 C 1972.49 956.52 1972.43 960.639 1970.76 966.157 C 1968.86 972.45 1971.62 989.469 1972.35 997.084 C 1963.92 1004.07 1966.63 1010 1963.86 1019.9 C 1957.84 1041.46 1946.92 1064.21 1925.08 1073.43 C 1913.46 1078.34 1911.12 1081.82 1897.96 1077.97 C 1892.09 1076.25 1883.58 1073.37 1877.78 1072.15 C 1875.62 1069.1 1874.56 1066.89 1871.2 1065.39 C 1868.23 1066.72 1857.56 1082.9 1850.42 1088.96 C 1844.32 1090.27 1843.4 1090.64 1837.91 1093.62 C 1829.24 1088.78 1829.65 1089.42 1821.46 1087.85 C 1810.13 1085.67 1798.26 1057.7 1792.64 1046.59 C 1797.81 1037.09 1791.63 1026.3 1786.78 1017.34 C 1790.26 992.653 1779.37 965.537 1791.72 942.712 C 1794.85 936.929 1806.24 935.458 1810.89 938.813 C 1811.03 939.534 1812.1 944.307 1812.38 944.521 C 1823.8 953.109 1830.45 959.051 1838.02 971.321 C 1838.02 980.692 1838.35 992.403 1838.47 1001.9 C 1838.5 1003.88 1842.56 1008.62 1843.44 1016.88 C 1850.79 1000.56 1855.08 992.221 1872.35 985.169 C 1900.04 989.057 1898.12 1010.25 1908.81 1014.41 C 1912.98 1012.68 1911.87 1011 1914.51 1007.31 C 1921.77 998.3 1919.05 989.81 1920.5 979.737 C 1920.81 977.567 1927.28 975.483 1923.42 967.856 C 1921.69 964.431 1923.53 956.226 1924.32 951.999 L 1929.09 947.064 C 1927.25 915.739 1954.79 911.566 1962.73 887.162 L 1971.59 880.759 z" fill="rgb(2,1,2)" transform="translate(0,0)"></path>
<path d="M 991.289 953.229 C 1020.05 950.282 1017.2 979.18 1026.05 997.385 C 1027.49 1001.39 1025.28 1014.16 1024.1 1018.15 C 1017.39 1040.84 1027.86 1054.47 1029.45 1075.09 C 1019.81 1085.49 1018.2 1088.64 1005.44 1095.08 C 998.144 1094.01 984.483 1086.6 980.595 1080.16 C 974.949 1070.8 972.112 1059.47 973.069 1048.42 C 972.937 1049.94 975.476 1044.62 975.715 1043.36 L 971.471 1038.15 C 971.069 1033.48 973.139 1033.63 974.554 1028.97 C 975.223 1026.76 972.946 1015.86 973.416 1014.16 C 973.834 1012.64 976.356 1010.23 977.032 1005.55 C 970.956 993.565 977.768 980.811 976.208 966.118 C 980.654 961.302 985.488 954.206 991.289 953.229 z" fill="rgb(2,1,2)" transform="translate(0,0)"></path>
<path d="M 1004.42 866.069 C 1017.55 865.392 1016.15 871.649 1029.79 870.852 C 1035.22 878.864 1043.28 883.157 1046.86 891.132 C 1047.56 896.514 1044.82 899.864 1047.01 905.222 C 1051.9 917.179 1029.32 932.519 1022.23 937.017 C 1016.62 936.885 1010.76 936.535 1005.12 936.275 C 983.39 923.464 964.347 904.638 989.857 879.239 C 995.405 873.715 997.654 869.549 1004.42 866.069 z" fill="rgb(2,1,2)" transform="translate(0,0)"></path>
<path d="M 1985.55 184.249 C 1987.02 187.522 1992.07 194.072 1992.43 197.254 C 1992.76 200.226 1990.63 196.12 1990.4 200.934 C 1991.2 200.293 1992.36 199.24 1993.29 198.996 C 1996.25 198.221 1993.99 195.693 1997 193.414 C 2000.59 195.902 2003.97 199.324 2007.9 200.257 L 2009.4 198.665 C 2012.02 198.499 2010.84 198.228 2012.93 199.79 C 2013.8 203.986 2013.75 204.232 2013.22 208.545 L 2011.98 209.465 C 2007.85 206.479 2012.57 209.351 2011.43 203.976 C 2008.57 205.536 2008.68 205.912 2005.6 206.078 C 2006.24 203.92 2006.26 204.078 2005.87 201.87 L 2004.69 201.155 L 2004.61 203.108 L 2003.78 205.948 C 2000.67 208.302 1994.58 209.145 1990.98 208.71 C 1981.8 207.601 1988.09 210.665 1982.16 212.227 L 1978.08 208.577 C 1975.13 207.884 1976.24 210.986 1970.7 212.536 C 1967.31 207.427 1972.49 211.46 1968.3 205.387 C 1970 203.608 1972.04 203.593 1974.86 202.814 L 1974.73 200.158 C 1976.74 196.111 1976.45 194.653 1979.55 193.515 L 1980.21 195.319 L 1981.02 194.834 L 1981.84 187.932 C 1983.51 186.464 1982.85 187.108 1984.43 185.445 L 1985.55 184.249 z" fill="rgb(81,69,55)" transform="translate(0,0)"></path>
<path d="M 2007.16 191.961 C 2014.1 191.777 2016.79 191.688 2020.29 197.655 C 2015.8 198.157 2010.02 195.478 2007.16 191.961 z" fill="rgb(81,69,55)" transform="translate(0,0)"></path>
<metadata><recraft-signature>{"signed_by": "recraft", "signature_b64": "KA0kJHM8QDYeAnLYxNBT9s5x2bHudZuyNGBU9PLttFXriqdVUOsJx67MEzGlIdxAdaGSglBrrewC4qpVaGU7DA==", "signing_algo": "Ed25519", "generation_timestamp": 1776310320, "identifier": "9e1173f5-7044-42d5-a79a-a602ef75dcf0"}</recraft-signature></metadata></svg>