<svg xmlns="http://www.w3.org/2000/svg" height="1024" preserveAspectRatio="none" style="display: block;" version="1.1" viewBox="0 0 2048 2048" width="1024">
<path d="M 0 0 L 2048 0 L 2048 2048 L 0 2048 L 0 0 z" fill="rgb(254,254,254)" transform="translate(0,0)"></path>
<path d="M 1279.19 337.405 C 1288.56 336.095 1304.09 335.521 1312.53 340.365 C 1332.87 352.035 1383.99 425.213 1397.08 448.173 C 1402.73 458.078 1407.91 468.742 1411.06 479.735 C 1412.58 485.053 1413.56 490.569 1412.52 496.075 C 1406.1 530.212 1357.06 589.982 1338.17 624.191 C 1345.04 648.42 1349.4 673.295 1351.15 698.418 C 1351.84 708.904 1349.38 721.999 1351.96 731.75 C 1354.35 732.069 1354.54 732.213 1356.81 733.107 C 1361.68 738.754 1360.14 744.506 1359.75 752.221 C 1357.71 748.328 1355.38 742.632 1351.59 740.99 C 1342.98 762.379 1358.92 847.758 1361.83 874.879 C 1363.2 887.611 1367.33 905.54 1368.42 919.899 C 1374.21 936.374 1361.47 971.885 1343.07 948.298 C 1320.19 918.966 1306.44 841.259 1308.11 808.728 C 1292.25 824.873 1281.01 832.379 1262.4 844.53 C 1259.57 867.066 1243.73 985.582 1233.33 996.415 C 1232.16 997.631 1231.71 997.28 1230.18 997.316 C 1226.51 994.282 1226.36 990.495 1226.98 986.048 C 1233.08 942.657 1240.95 899.002 1244.02 855.237 C 1237.68 871.283 1235.18 887.825 1231.12 903.694 C 1228.15 915.286 1226.35 984.108 1221.69 987.737 C 1195.75 1007.91 1191.03 935.921 1190.59 923.27 C 1164.67 917.103 1135.09 914.527 1108.54 907.21 C 1090.1 902.126 1076.83 896.22 1059.25 889.432 C 1060.03 908.041 1060.85 926.706 1061.98 945.313 C 1062.63 956.009 1071.97 993.025 1064.65 999.755 L 1062.44 999.438 C 1048 988.055 1047.74 922.847 1045.9 903.511 C 1045.17 895.824 1048.62 880.146 1039.05 878.828 C 1035.72 881.085 1037.77 897.617 1037.72 903.04 C 1037.46 936.177 1044.35 968.427 1048.85 1001.05 C 1050.48 1012.93 1039.56 1016.71 1032.61 1008.24 C 1027.64 1002.18 1024.46 994.924 1021.38 987.814 C 1009.67 954.63 998.107 919.654 991.876 884.981 C 990 874.544 992.106 854.213 993.197 843.78 C 1012.36 816.826 1010.43 809.979 1010.87 776.756 C 975.279 814.291 968.312 851.589 945.053 894.455 C 933.795 915.202 893.759 952.77 874.28 969.008 C 873.143 993.463 873.586 1177.51 856.951 1183.88 C 853.798 1181.36 852.644 1173.38 852.8 1169.63 C 855.142 1113.32 857.884 1057.27 854.699 1000.84 C 843.221 1017.42 845.272 1020.13 843.954 1039.96 C 842.297 1061.62 841.239 1083.32 840.782 1105.03 C 840.668 1113.04 842.724 1152.06 837.091 1155.91 C 831.077 1156.04 826.912 1154.18 821.112 1152.35 C 803.818 1113.74 810.687 1079.04 806.186 1038.87 C 804.451 1041.42 798.764 1048.12 797.899 1050.54 C 776.508 1110.26 767.655 1179.27 720.334 1225.96 C 704.508 1241.58 677.061 1250.39 655.431 1253.43 C 664.219 1265.93 676.377 1280.08 686.241 1292.1 C 710.419 1284.88 738.978 1268.43 762.581 1258.14 C 838.597 1225 912.686 1188.04 986.028 1149.41 C 1004.84 1139.5 1025.66 1126.89 1045.19 1119 C 1042.11 1087.77 1052.31 1060.23 1061.34 1030.39 C 1062.44 1026.76 1064.04 1024.3 1067.42 1022.87 L 1069.59 1024.39 C 1071.34 1032.05 1056.04 1104.68 1052.83 1115.54 C 1064.36 1110.05 1080.23 1100.73 1091.8 1094.41 C 1093.56 1085.36 1101.73 1050.82 1111.03 1047.69 L 1112.25 1049.24 C 1113.41 1058.44 1107.48 1078.74 1105.09 1088.58 C 1111.85 1084.99 1118.91 1081.42 1125.87 1078.12 C 1207.18 1039.52 1287.17 997.425 1371.94 966.737 C 1385.95 961.665 1399.64 956.165 1413.4 950.662 C 1393.03 929.562 1382.79 891.043 1376.28 862.582 C 1364.79 807.331 1361.55 747.454 1361.52 690.817 C 1361.51 665.989 1370.43 632.442 1379.72 609.205 C 1382.7 601.75 1388.24 598.975 1395.5 596.702 C 1418.2 602.309 1421.48 625.875 1426.64 645.594 C 1432.03 666.229 1435.51 687.745 1439.25 708.76 C 1440.01 704.226 1440.9 699.714 1441.92 695.231 C 1452.51 649.897 1486.58 557.878 1526.24 533.193 C 1542.6 532.365 1554.91 536.404 1559.81 553.598 C 1569.33 587.011 1548.63 624.97 1537.26 655.716 C 1524.33 690.674 1510.71 724.65 1498.71 759.654 C 1491.46 780.836 1485.24 802.357 1480.07 824.141 C 1473.83 850.406 1468.37 876.989 1458.99 902.402 C 1453.51 917.273 1445.59 928.435 1438.59 942.342 L 1456.55 937.069 C 1499 924.713 1557.19 908.441 1599.36 928.065 C 1619.5 937.438 1623.04 975.784 1630.35 994.186 C 1649.77 1043.12 1668 1083.78 1638.07 1133.54 C 1600.28 1196.33 1526.26 1225.31 1459.52 1246.45 C 1438.08 1253.18 1415.82 1255.81 1394.58 1261.51 C 1267.91 1434.66 1023.16 1503.79 826.804 1413.06 C 798.186 1426.11 773.956 1441.95 748.809 1460.79 C 737.505 1469.26 719.505 1486.78 706.026 1488.32 C 682.729 1490.99 666.392 1473.87 649.188 1461.54 C 628.517 1446.73 606.347 1432.91 586.455 1416.89 C 580.696 1413.53 569.508 1401.82 563.794 1399.65 C 547.474 1393.44 535.769 1394.93 521.023 1382.04 C 505.733 1368.68 493.433 1345.93 492.2 1325.53 C 489.883 1287.18 522.589 1252.79 546.156 1225.89 L 583.866 1183.08 C 581.036 1169.53 565.37 1130.84 560.243 1114.94 C 540.996 1055.23 540.236 1014.3 540.592 953.01 C 498.6 951.792 475.458 922.88 446.252 895.517 C 404.126 856.051 370.583 829.944 392.732 767.397 C 407.896 724.574 434.155 699.814 470.483 673.459 C 527.414 628.586 590.669 599.361 657.955 573.829 C 669.222 560.951 691.496 536.288 702.421 525.691 C 788.644 442.059 911.393 393.143 1031.56 394.899 C 1052.05 395.199 1080.39 395.581 1099.81 401.373 C 1147.44 375.279 1225.25 342.208 1279.19 337.405 z" fill="rgb(35,31,32)" transform="translate(0,0)"></path>
<path d="M 1549.47 941.411 C 1557.8 941.456 1573.65 941.936 1581.09 945.386 C 1590.95 949.96 1592.88 957.998 1596.09 967.215 C 1583.57 963.98 1551.43 962.3 1540.36 969.305 L 1540.3 970.939 L 1542.14 971.91 C 1557.77 970.537 1583.99 973.717 1598.7 980.669 C 1603.47 982.921 1604.96 993.876 1606.16 999.204 L 1604.56 998.767 C 1592.02 995.377 1563.3 995.198 1553.84 1000.6 L 1553.7 1002.09 C 1556.32 1003.34 1569.98 1003.35 1575.2 1004.22 C 1590.03 1006.69 1598.16 1008.62 1611.78 1014.82 C 1617.26 1027.84 1622.16 1045.57 1625.95 1059.21 C 1617.15 1055.13 1606.05 1050.87 1596.59 1049.29 C 1564.07 1043.84 1507.02 1054.79 1476.1 1065.36 C 1419.09 1084.85 1360.29 1110.68 1305.87 1136.24 C 1234.86 1170.13 1164.34 1205.04 1094.35 1240.98 C 1074.08 1251.41 1054.08 1262.52 1033.83 1272.92 C 978.665 1300.8 923.794 1329.25 869.221 1358.27 C 816.449 1385.83 753.077 1419.08 703.783 1453.06 C 696.348 1450.18 690.612 1446.5 683.981 1442.17 C 690.89 1437.83 717.577 1425.16 719.982 1419.38 L 717.904 1419.14 L 719.654 1420.06 L 717.465 1419.2 C 707.964 1421.21 698.92 1427.43 690.473 1432.44 C 686.144 1435.05 682.284 1437 677.801 1439.27 C 670.559 1434.54 664.502 1430.01 657.608 1424.83 C 665.584 1421.8 697.414 1407.75 699.029 1400.06 C 691.378 1395.5 655.802 1414.26 648.448 1419.68 C 629.24 1410.02 612.099 1396.19 597.168 1380.88 C 604.705 1376.97 611.298 1375.76 617.566 1369.67 L 617.415 1368 C 610.315 1361.68 598.771 1370.98 590.714 1372.34 C 584.46 1373.4 580.493 1368.86 575.393 1365.47 C 551.242 1363.74 535.087 1371.1 518.021 1346.87 C 582.026 1366.22 677.251 1311.52 736.995 1287.5 C 957.452 1198.87 1158.16 1067.86 1382.19 986.459 C 1439.04 965.802 1487.56 945.289 1549.47 941.411 z" fill="rgb(254,254,254)" transform="translate(0,0)"></path>
<path d="M 1490.76 1019.14 C 1495.91 1018.58 1498.65 1017.27 1501.66 1021.77 L 1500.89 1023.93 C 1494.28 1029.23 1478.88 1031.78 1470.08 1033.8 C 1466.25 1034.84 1462.11 1035.78 1458.23 1036.74 C 1468.94 1027.15 1477.38 1024.24 1490.76 1019.14 z" fill="rgb(35,31,32)" transform="translate(0,0)"></path>
<path d="M 1277.03 362.404 C 1295.44 359.674 1305.74 364.781 1315.3 380.421 C 1330.27 404.935 1389.14 465.979 1381.6 493.377 C 1376.04 492.026 1362.79 481.115 1354.02 480.041 C 1289.67 472.157 1226.08 500.245 1168.29 525.03 C 1132.72 540.289 1099.24 556.139 1065.25 574.276 C 1050.16 582.327 1036.17 593.178 1021.39 601.815 C 976.646 626.767 934.196 657.503 889.644 682.299 C 850.379 652.845 845.359 693.136 837.539 720.796 C 804.141 745.808 765.971 768.663 731.554 792.116 C 678.229 828.455 629.046 869.072 568.696 893.412 C 547.485 901.967 531.999 910.007 508.456 911.729 C 501.345 906.465 491.324 895.823 484.775 889.271 C 496.086 886.879 514.617 880.622 523.063 872.718 L 523.07 871.057 C 501.04 870.867 489.251 877.248 464.407 871.774 L 462.998 871.454 C 460.693 869.031 458.5 866.099 456.397 863.463 C 469.722 860.37 479.474 858.055 492.395 853.447 C 500.69 849.932 538.101 832.825 538.811 823.44 C 531.919 819.78 472.291 857.143 436.407 843.83 C 426.366 840.104 418.768 832.344 414.65 822.514 C 407.936 806.487 410.952 781.948 417.569 766.261 C 421.09 757.915 430.049 740.481 439.21 737.859 C 441.665 737.157 444.274 737.138 446.499 738.565 C 450.506 741.136 451.818 746.976 453.252 751.23 C 444.38 754.414 440.351 756.234 433.452 763.248 C 422.343 774.541 413.968 801.59 428.481 813.285 C 444.842 825.968 466.181 816.118 481.986 807.948 C 500.375 798.474 517.711 787.021 535.516 776.468 C 589.471 744.489 640.801 708.991 692.709 673.926 C 774.887 617.245 858.453 562.603 943.33 510.048 C 961.899 498.661 981.306 484.304 1000.26 474.136 C 1032.77 456.694 1067.14 440.323 1100.38 424.162 C 1155.08 397.574 1216.15 369.307 1277.03 362.404 z" fill="rgb(254,254,254)" transform="translate(0,0)"></path>
<path d="M 1301.86 393.394 C 1307.86 395.147 1319.16 410.209 1319.22 416.83 L 1316.46 416.442 C 1308.42 410.307 1305.24 402.666 1301.86 393.394 z" fill="rgb(35,31,32)" transform="translate(0,0)"></path>
<path d="M 1426.27 1101.91 L 1427.9 1101.76 C 1430.53 1112.38 1392.85 1194.84 1385.2 1208 C 1345.41 1276.4 1284.96 1332.74 1214.29 1367.98 C 1093.62 1428.17 984.077 1433.75 856.948 1391.82 C 878.942 1377.96 902.032 1366.89 924.863 1354.52 C 963.032 1333.39 1001.47 1312.75 1040.18 1292.61 L 1036.98 1302.79 C 1035.09 1309.26 1031.4 1321.79 1034.14 1327.99 L 1035.6 1327.79 C 1042.53 1320.23 1050.58 1296.17 1054.77 1285.2 L 1080.04 1272.18 C 1074.17 1291.41 1068.45 1310.69 1062.89 1330.02 C 1060.9 1336.85 1051.01 1365.33 1054.68 1370.68 C 1066.17 1365.43 1087.69 1282.24 1093.74 1266.25 C 1102.9 1260.82 1111.39 1255.81 1120.83 1250.85 C 1117.1 1269.6 1092.07 1371.5 1101.67 1386.03 L 1102.88 1385.93 C 1108 1379.21 1133.78 1258.89 1134.46 1245.01 C 1147.67 1238.71 1160.46 1231.39 1173.59 1224.87 C 1257.23 1183.3 1340.1 1138.1 1426.27 1101.91 z" fill="rgb(254,254,254)" transform="translate(0,0)"></path>
<path d="M 569.382 911.296 C 590.704 896.904 618.938 885.155 642.316 870.724 C 705.709 831.596 768.778 776.448 834.645 742.812 C 825.927 788.413 819.887 822.606 814.918 868.65 C 812.917 887.299 811.069 905.964 809.374 924.643 C 806.587 954.261 805.747 967.102 791.371 994.046 C 785.834 1004.42 783.51 1027.05 779.215 1039.06 C 777.683 1043.35 782.001 1049.72 781.328 1054.26 C 767.571 1102.4 755.79 1152.53 727.565 1194.72 C 720.544 1205.22 707.215 1219 695.741 1224.39 C 699.864 1218.87 703.89 1213.28 707.818 1207.62 C 754.934 1139.16 766.61 1038.04 784.407 957.881 C 788.658 938.734 814.91 821.201 799.43 810.596 C 795.056 813.98 785.734 864.089 783.058 873.791 C 759.919 957.683 742.966 1043.25 711.917 1124.8 C 702.733 1148.92 694.259 1176.47 678.559 1197.22 L 677.612 1198.46 C 685.292 1176.82 696.004 1155.39 703.955 1132.28 C 723.263 1076.17 738.458 1020.82 754.192 963.776 C 767.725 914.713 780.927 869.676 788.952 819.075 C 790.451 810.41 792.951 800.831 781.603 797.799 C 776.843 796.527 775.48 800.771 773.6 804.318 C 768.312 807.247 767.165 804.051 763.767 806.412 C 750.982 815.296 728.991 841.154 728.664 856.798 L 729.752 857.448 C 734.997 851.864 738.898 845.186 743.816 839.233 C 752.009 829.316 760.888 819.833 769.597 810.358 C 768.298 814.538 766.526 819.685 765.566 823.857 C 756.949 841.981 749.97 880.302 744.285 901.17 C 729.478 957.066 716.005 1012.46 698.298 1067.58 C 684.661 1110.03 674.428 1139.2 650.377 1176.85 C 636.286 1155.58 624.758 1134.74 616.996 1110.2 C 611.785 1093.44 607.623 1076.38 604.533 1059.11 C 603.397 1052.82 603.54 1039.84 599.527 1036.04 C 596.511 1036.4 597.78 1035.76 595.714 1038.25 C 595.104 1046.01 597.47 1058.21 598.396 1066.08 C 603.306 1107.78 619.901 1146.58 640.812 1182.58 C 641.966 1184.57 641.054 1184.92 640.18 1187.26 C 633.154 1193.44 621.337 1185.92 614.821 1181.92 C 610.701 1173.72 607.459 1162.32 604.088 1153.55 C 575.61 1079.46 560.177 990.954 569.382 911.296 z" fill="rgb(254,254,254)" transform="translate(0,0)"></path>
<path d="M 649.202 1050.3 C 659.184 1053.54 658.702 1070.73 652.867 1078.4 C 643.87 1070.91 642.69 1059.86 649.202 1050.3 z" fill="rgb(35,31,32)" transform="translate(0,0)"></path>
<path d="M 1210.58 529.313 C 1250.45 539.005 1276.22 578.898 1289.29 615.239 C 1276.63 638.304 1264.88 660.538 1253.74 684.418 C 1240.44 712.931 1230.26 743.963 1216.56 771.997 C 1203.82 779.356 1188.76 788.481 1175.46 794.386 C 1154.19 803.833 1130.99 810.762 1108.91 818.524 C 1141.91 789.6 1208.28 744.977 1188.42 689.128 C 1174.84 650.956 1117.28 657.585 1086.53 670.025 C 1084.78 658.211 1084.19 655.841 1076.5 647.286 C 1046.6 639.242 1050.23 645.527 1035.65 669.935 C 1025.9 686.261 1014.62 702.969 1004.16 718.977 C 998.965 727.643 985.292 740.251 981.902 749.192 C 977.11 761.833 975.578 778.399 971.475 792.048 C 966.107 807.357 962.184 824.031 956.093 839.899 C 932.859 900.427 902.057 926.675 850.458 960.75 C 861.074 948.524 874.686 936.589 885.577 924.581 C 909.588 898.109 938.187 862.176 951.315 829.436 C 960.49 804.258 971.004 770.711 958.994 744.847 C 946.249 717.4 931.319 706.154 904.334 695.621 C 934.34 674.523 965.933 656.496 996.846 636.817 C 1011 627.809 1025.08 615.465 1038.95 606.829 C 1080.99 580.652 1125.82 559.063 1172.49 542.519 C 1185.06 538.065 1197.66 532.585 1210.58 529.313 z" fill="rgb(254,254,254)" transform="translate(0,0)"></path>
<path d="M 1191.27 550.861 C 1193.55 550.799 1193.04 550.836 1195.32 551.364 L 1195.51 552.653 C 1183.14 564.781 1145.32 583.746 1128.31 588.675 C 1125.76 589.071 1126.95 589.255 1124.72 588.243 L 1125.46 586.307 C 1133.2 579.611 1180.26 555.812 1191.27 550.861 z" fill="rgb(35,31,32)" transform="translate(0,0)"></path>
<path d="M 970.323 667.761 C 972.805 668.493 971.947 667.713 973.192 669.844 C 970.943 675.131 937.83 697.887 931.276 700.533 L 929.332 700.093 C 926.491 697.577 927.255 699.095 926.799 695.472 C 931.417 684.739 959.643 672.717 970.323 667.761 z" fill="rgb(35,31,32)" transform="translate(0,0)"></path>
<path d="M 1010.64 427.44 C 1017.32 426.982 1035.44 427.896 1043.34 427.887 C 1027.24 437.159 1009.9 444.935 993.654 454.137 C 871.021 523.577 758.478 609.088 640.694 685.839 C 633.163 690.667 625.753 695.68 618.471 700.875 C 640.475 645.248 669.262 602.906 710.083 558.013 C 770.703 491.345 866.762 449.38 954.123 432.089 C 970.965 428.756 993.179 428.269 1010.64 427.44 z" fill="rgb(254,254,254)" transform="translate(0,0)"></path>
<path d="M 601.487 1220.14 C 604.834 1222.73 623.691 1252.09 628.308 1258.56 C 638.777 1272.97 649.385 1287.27 660.128 1301.48 C 644.978 1305.86 629.05 1310.22 614.245 1315.45 C 586.398 1326.33 559.612 1304.77 561.345 1275.96 C 562.287 1260.29 588.59 1230.28 601.487 1220.14 z" fill="rgb(254,254,254)" transform="translate(0,0)"></path>
<path d="M 1320.62 500.315 C 1333.03 500.634 1361.72 503.78 1361.4 518.082 C 1361.06 533.291 1327.86 577.818 1318.95 590.32 C 1310.46 577.814 1301.78 565.44 1292.92 553.203 C 1277.6 534.151 1271.76 526.677 1252.39 511.709 C 1270.02 508.933 1284.63 504.389 1305.13 501.642 C 1312.28 510.255 1318.05 525.193 1327.04 528.967 C 1330.94 528.596 1329.55 529.453 1331.75 527.045 C 1332.11 519.975 1324.21 509.078 1321.01 501.302 L 1320.62 500.315 z" fill="rgb(254,254,254)" transform="translate(0,0)"></path>
<path d="M 1538.55 554.354 C 1557.41 568.528 1535.92 614.39 1528.76 631.886 C 1522 648.405 1515.13 665.081 1508.38 681.612 C 1495.79 712.631 1484.79 744.274 1475.43 776.416 C 1471.14 790.865 1466.51 807.047 1463.22 821.746 C 1454.43 861.073 1451.01 892.486 1430.23 928.325 L 1428.46 930.376 L 1427.18 930.43 C 1427.3 927.421 1434.68 912.055 1436.21 907.545 C 1443.76 885.368 1446.26 862.718 1451.13 839.877 C 1458.54 803.835 1467.88 768.219 1479.11 733.181 C 1488.15 705.12 1498.19 677.39 1509.2 650.044 C 1523.78 613.052 1535.46 594.356 1538.55 554.354 z" fill="rgb(254,254,254)" transform="translate(0,0)"></path>
<path d="M 1401.28 736.71 C 1405.25 740.047 1410.82 780.776 1411.7 788.239 L 1414.62 790.857 C 1427.96 802.639 1418.76 831.621 1416.84 846.936 C 1416.32 851.065 1416.78 856.606 1416.98 860.819 C 1406.18 873.105 1410.33 877.13 1408.83 892.957 C 1408.36 897.924 1407.31 903.277 1406.25 908.184 L 1401.68 894.232 C 1391.3 858.507 1384.18 823.551 1382.23 786.419 C 1386.1 791.228 1391.62 800.951 1398.03 797.743 C 1404.67 788.247 1401.29 751.267 1401.28 736.71 z" fill="rgb(254,254,254)" transform="translate(0,0)"></path>
<path d="M 890.594 750.297 C 900.96 752.403 908.624 758.455 911.359 768.972 C 921.02 806.124 900.262 843.871 883.909 875.975 C 881.065 881.39 877.436 886.271 873.939 891.303 C 875.963 848.359 882.944 792.97 890.594 750.297 z" fill="rgb(254,254,254)" transform="translate(0,0)"></path>
<path d="M 1157.96 831.068 C 1160.99 832.744 1164.07 837.269 1166.31 840.008 C 1178.7 855.137 1185.49 868.402 1189.85 887.287 C 1160.7 885.019 1143.81 876.542 1116.8 866.048 C 1105.24 861.927 1093.49 857.223 1080.95 858.572 C 1075.51 859.156 1072.46 861.177 1066.6 861.506 L 1065.73 859.783 C 1069.22 855.891 1083.35 854.699 1089.51 853.292 C 1112.93 847.947 1135.42 839.23 1157.96 831.068 z" fill="rgb(254,254,254)" transform="translate(0,0)"></path>
<path d="M 1113.47 714.807 C 1115.02 714.723 1114.09 714.67 1116.22 715.306 C 1115.77 724.464 1076.24 772.212 1068.75 781.064 C 1067.75 781.489 1068.42 781.328 1066.7 780.909 C 1065.17 775.829 1074.51 739.686 1077.69 733.22 C 1089.27 724.718 1100.38 720.35 1113.47 714.807 z" fill="rgb(254,254,254)" transform="translate(0,0)"></path>
<path d="M 545.379 1280.64 C 547.249 1282.6 547.83 1288.88 548.723 1292.44 C 553.355 1310.95 559.97 1319.01 575.838 1328.46 C 569.963 1329.27 565.163 1329.78 559.249 1330.21 C 514.579 1333.19 527.635 1306.68 545.379 1280.64 z" fill="rgb(254,254,254)" transform="translate(0,0)"></path>
<path d="M 1131.67 687.374 C 1150.49 686.864 1163.5 698.828 1157.72 717.806 C 1148.87 746.85 1115.07 784.938 1089.66 800.24 C 1099.71 790.372 1109.41 780.15 1118.74 769.592 C 1131.16 754.463 1156.72 723.675 1150.65 703.377 C 1143.49 679.417 1093.31 704.962 1081.82 712.283 C 1092.4 696.114 1113.26 689.618 1131.67 687.374 z" fill="rgb(254,254,254)" transform="translate(0,0)"></path>
<path d="M 1210.93 805.944 C 1211.25 810.094 1203.76 831.231 1202.42 837.271 C 1201 843.655 1200.25 848.57 1199.4 855.304 C 1195.73 849.508 1192.2 845.049 1188 839.645 C 1183.77 834.873 1178.19 829.806 1173.51 825.339 C 1185.81 818.549 1198.29 812.082 1210.93 805.944 z" fill="rgb(254,254,254)" transform="translate(0,0)"></path>
<path d="M 1307.19 687.658 C 1309.34 695.184 1309.81 729.082 1309.51 738.18 C 1301.6 740.672 1292.59 744.832 1284.87 748.154 L 1283.72 747.824 L 1283.09 746.568 C 1290.93 727.082 1298.78 706.85 1307.19 687.658 z" fill="rgb(254,254,254)" transform="translate(0,0)"></path>
<path d="M 449.192 764.85 C 468.144 764.447 462.131 798.978 450.262 803.695 C 429.284 801.232 438.071 773.87 449.192 764.85 z" fill="rgb(254,254,254)" transform="translate(0,0)"></path>
<path d="M 863.798 754.081 C 864.581 765.123 858.412 805.636 856.91 819.679 C 854.838 839.746 852.868 859.823 851.001 879.909 C 850.034 890.375 848.142 916.208 845.009 925.401 C 840.694 914.109 858.981 771.562 863.798 754.081 z" fill="rgb(254,254,254)" transform="translate(0,0)"></path>
<path d="M 931.044 751.819 C 934.579 756.51 937.413 767.046 938.434 772.9 C 943.65 802.803 933.046 836.032 915.767 860.417 C 915.416 860.764 914.023 861.588 913.542 861.893 C 913.119 859.941 918.744 847.541 919.876 844.789 C 933.674 811.246 938.144 787.079 931.044 751.819 z" fill="rgb(254,254,254)" transform="translate(0,0)"></path>
<path d="M 1339.37 810.769 C 1340.64 812.906 1354.74 911.964 1355.7 922.291 C 1341.76 896.253 1337.29 839.689 1339.37 810.769 z" fill="rgb(254,254,254)" transform="translate(0,0)"></path>
<path d="M 1302.67 664.766 C 1302.91 667.616 1299.47 676.669 1297.92 679.282 C 1289.16 694.03 1271.77 751.844 1261.84 760.587 C 1259.59 749.458 1295.5 676.508 1302.67 664.766 z" fill="rgb(254,254,254)" transform="translate(0,0)"></path>
<path d="M 1301.39 767.884 L 1302.6 768.308 C 1300.61 775.285 1275.62 796.415 1268.76 802.311 L 1267.36 801.426 C 1267.63 794.78 1271.17 786.169 1273.65 779.976 L 1301.39 767.884 z" fill="rgb(254,254,254)" transform="translate(0,0)"></path>
<path d="M 1254.36 790.687 C 1256.13 797.574 1251.95 816.065 1247.58 821.379 C 1245.46 815.183 1251.95 797.247 1254.36 790.687 z" fill="rgb(254,254,254)" transform="translate(0,0)"></path>
<path d="M 1461.89 1340.09 C 1466.89 1340.24 1471.56 1341.38 1475.05 1345.22 C 1492.9 1364.8 1452.84 1399.47 1440.12 1412.92 C 1422.13 1432.1 1403.72 1450.89 1384.92 1469.28 L 1254.88 1596.68 C 1204.38 1645.49 1150.36 1690.47 1093.17 1731.33 C 1085.58 1736.76 1075.99 1744.39 1066.34 1744.22 C 1055.01 1737.77 1066.62 1703.03 1069.02 1691.1 C 1061.41 1698.24 1041.19 1714.39 1031.11 1715.21 C 1010.8 1707.08 1064.46 1675.24 1070.8 1671.79 C 1071.1 1660.06 1074.17 1644.43 1075.42 1632.01 C 1067 1635.64 1054.04 1647.74 1045.89 1646.07 C 1039.61 1637.44 1057.09 1624.63 1063.06 1620.17 L 1078.14 1611.18 C 1082.05 1575.47 1079.1 1547.15 1081.79 1514.21 L 1022.85 1560.6 C 1009.12 1571.63 944.837 1625.14 931.888 1621.8 L 930.924 1619.63 C 930.982 1618.28 931.135 1617.18 931.825 1616 C 937.336 1606.52 1059.19 1509.72 1072.01 1502.88 C 1082.19 1497.44 1093.77 1494.89 1104.77 1491.66 C 1119.33 1487.38 1134 1483 1148.33 1478.03 C 1204.18 1458.64 1259.09 1438.16 1313.46 1414.87 C 1346.59 1400.68 1379.37 1384.33 1411.32 1367.63 C 1427.78 1359.02 1443.73 1344.31 1461.89 1340.09 z" fill="rgb(35,31,32)" transform="translate(0,0)"></path>
<path d="M 1186.71 1568.76 C 1189.14 1570.87 1190.37 1572.57 1190.61 1575.7 C 1188.08 1581.22 1144.06 1607.96 1136.4 1612.53 C 1134.46 1612.26 1135.03 1612.3 1133.19 1611.25 L 1132.95 1609 C 1137.06 1601.44 1177.5 1573.61 1186.71 1568.76 z" fill="rgb(254,254,254)" transform="translate(0,0)"></path>
<path d="M 1164.43 1548.8 C 1167.28 1548.49 1167.08 1548.57 1169.65 1549.9 C 1171.69 1552.91 1171.32 1551.32 1171.04 1554.75 C 1165.41 1562.93 1140.1 1573.39 1130.14 1578.01 C 1127.03 1579.17 1127.04 1579.54 1123.93 1578.71 L 1123.51 1577.22 C 1127.6 1570.58 1156.37 1553.75 1164.43 1548.8 z" fill="rgb(254,254,254)" transform="translate(0,0)"></path>
<path d="M 1251.88 1490.93 C 1255.26 1490.95 1256.19 1490.47 1258.41 1492.86 C 1256.46 1497.69 1231.9 1510.27 1225.46 1513.94 C 1222.55 1515.23 1221.55 1515.63 1219.07 1513.61 L 1219.38 1511.61 C 1224.84 1504.53 1243.6 1494.81 1251.88 1490.93 z" fill="rgb(254,254,254)" transform="translate(0,0)"></path>
<path d="M 1244.88 1535.76 C 1249.16 1536.35 1247.44 1535.5 1250.52 1537.79 L 1250.83 1540.01 C 1247.97 1546.51 1234.6 1553.69 1228.29 1557.15 C 1224.23 1556.95 1225.94 1557.6 1222.81 1555.65 L 1222.65 1553.79 C 1226.66 1547.19 1238.1 1540.32 1244.88 1535.76 z" fill="rgb(254,254,254)" transform="translate(0,0)"></path>
<path d="M 1496.53 1450.67 C 1500.92 1451.24 1501.35 1451.74 1504.66 1454.23 C 1507.82 1460.9 1501.38 1466.53 1496.47 1470.62 C 1388.17 1560.88 1275.21 1645.38 1166.57 1735.12 C 1122.39 1771.62 1080.22 1810.76 1034.4 1845.27 C 1031.82 1846.59 1031.95 1846.42 1029.02 1846.14 C 1024.71 1841.03 1033.95 1829.61 1037.89 1825.97 C 1182.24 1692.5 1346.54 1577.15 1496.53 1450.67 z" fill="rgb(35,31,32)" transform="translate(0,0)"></path>
<path d="M 382.653 1207.25 C 390.392 1206.87 403.876 1207.89 410.204 1211.52 C 434.163 1225.26 443.417 1248.29 427.322 1272.64 C 416.02 1289.75 404.775 1301.72 385.463 1307.81 C 357.948 1313.75 340.544 1305.11 334.819 1276.49 C 331.492 1259.86 334.413 1245.31 343.896 1231.33 C 351.798 1219.69 368.875 1209.58 382.653 1207.25 z" fill="rgb(35,31,32)" transform="translate(0,0)"></path>
<path d="M 1346.71 179.325 C 1354.11 178.664 1360.33 181.405 1360.02 189.691 C 1357.21 194.14 1337.15 199.518 1331.5 201.424 C 1319.54 205.477 1307.72 209.969 1296.09 214.889 C 1258.47 230.457 1213.22 251.131 1177.8 271.599 C 1140.62 293.081 1100.26 317.302 1064.34 340.523 C 1060.55 342.521 1060.71 342.586 1056.53 343.043 C 1053.18 342.018 1053.41 342.113 1051.2 339.376 C 1050.85 336.177 1051 333.908 1053.43 331.188 C 1061.43 322.244 1077 313.436 1087.15 306.66 C 1144.18 268.577 1204.52 236.664 1267.13 208.816 C 1291.99 197.757 1319.57 183.425 1346.71 179.325 z" fill="rgb(35,31,32)" transform="translate(0,0)"></path>
<path d="M 652.312 280.511 C 660.97 282.068 663.458 288.975 667.556 296.166 C 674.343 308.077 682.286 320.278 688.093 332.651 C 692.755 342.476 696.755 352.601 700.066 362.959 C 705.232 379.497 710.086 397.771 701.724 413.768 C 683.185 422.87 663.362 385.239 660.63 371.058 C 656.933 351.864 643.135 297.295 652.312 280.511 z" fill="rgb(35,31,32)" transform="translate(0,0)"></path>
<path d="M 549.192 352.324 C 560.497 353.902 563.017 360.56 571.895 366.637 C 594.627 382.198 671.126 424.778 647.258 459.035 C 627.951 469.757 613.856 453.851 602.982 439.525 C 583.505 413.866 567.246 385.833 549.52 358.998 C 548.102 356.852 548.869 354.669 549.192 352.324 z" fill="rgb(35,31,32)" transform="translate(0,0)"></path>
<path d="M 1352.71 1610.85 C 1358.1 1611.01 1360.13 1611.46 1361.5 1616.66 C 1360.42 1621.27 1356.29 1625.95 1352.56 1628.69 C 1303.03 1664.94 1253.57 1702.07 1206.97 1742.02 C 1192.19 1754.68 1176.83 1767.35 1163.71 1781.77 C 1160.33 1783.46 1159.74 1783.39 1156.82 1781.58 C 1155.67 1779.3 1155.57 1778.01 1156.19 1775.49 C 1161.95 1751.88 1319.6 1628.13 1352.71 1610.85 z" fill="rgb(35,31,32)" transform="translate(0,0)"></path>
<path d="M 1706.04 874.133 C 1714.61 873.832 1719.91 873.618 1728.14 877.633 C 1745.44 885.992 1755.02 909.376 1745.48 926.765 C 1740.08 936.602 1731.65 940.267 1721.46 943.007 C 1711.97 943.186 1705.56 943.178 1696.82 938.288 C 1687.53 932.978 1680.83 924.096 1678.27 913.71 C 1672.68 891.179 1685.78 879.152 1706.04 874.133 z" fill="rgb(35,31,32)" transform="translate(0,0)"></path>
<path d="M 871.946 1513.26 C 894.056 1513.52 914.849 1539.58 905.931 1560.97 C 900.495 1574.02 887.299 1579.81 875.124 1584.67 C 830.395 1588.12 824.188 1521.05 871.946 1513.26 z" fill="rgb(35,31,32)" transform="translate(0,0)"></path>
<path d="M 914 961.861 C 932.398 968.452 950.877 983.956 966.822 995.253 C 977.268 1002.65 1017.82 1040.43 1013.23 1054.01 L 1011.3 1054.75 C 1002.63 1053.87 996.021 1043.56 987.245 1038.58 C 968.027 1028.24 927.364 1012.11 915.582 997.335 C 914.836 1004.8 913.665 1022.71 908.215 1027.47 L 906.218 1027.17 C 898.18 1017.5 902.942 985.541 905.371 973.432 C 906.64 967.105 908.61 964.97 914 961.861 z" fill="rgb(35,31,32)" transform="translate(0,0)"></path>
<path d="M 917.326 977.816 C 925.573 980.87 965.854 1009.34 973.246 1016.29 C 962.268 1012.46 932.028 997.668 923.058 989.779 C 918.767 986.005 917.493 983.31 917.326 977.816 z" fill="rgb(254,254,254)" transform="translate(0,0)"></path>
<path d="M 1666.03 418.987 C 1670.69 418.595 1670.79 418.816 1673.7 422.086 C 1675.13 434.742 1632.44 452.224 1624.12 463.726 C 1624.59 470.39 1639.24 466.375 1646.66 475.128 C 1652.74 492.385 1611.85 503.934 1600.77 507.18 C 1595.19 508.492 1588.86 510.363 1583.26 511.87 C 1575.42 508.749 1565.35 502.401 1571.27 492.603 C 1589.83 461.915 1633.97 433.703 1666.03 418.987 z" fill="rgb(35,31,32)" transform="translate(0,0)"></path>
<path d="M 1605.94 473.74 C 1612 478.459 1614.81 479.623 1621.73 482.891 C 1614.53 488.225 1608.26 490.709 1600.13 494.408 C 1594.92 495.953 1589.48 496.895 1584.14 497.956 C 1589.31 490.191 1599.15 480.58 1605.94 473.74 z" fill="rgb(254,254,254)" transform="translate(0,0)"></path>
<path d="M 536.01 465.829 C 552.915 466.693 650.846 477.111 619.325 510.22 C 599.862 521.748 574.714 511.297 558.909 498.239 C 550.419 491.224 532.534 477.751 536.01 465.829 z" fill="rgb(35,31,32)" transform="translate(0,0)"></path>
<path d="M 1731.8 332.749 C 1737.61 334.369 1738.92 337.315 1737.7 342.762 C 1734.11 347.037 1726.02 352.762 1721.31 356.101 C 1683.09 383.197 1645.18 410.509 1608.52 439.722 C 1606.72 441.158 1603.9 442.336 1601.71 443.117 C 1598.23 441.686 1598.37 441.609 1595.86 439.059 C 1595.49 437.73 1594.92 436.633 1595.29 435.238 C 1599.15 420.941 1711.98 342.774 1731.8 332.749 z" fill="rgb(35,31,32)" transform="translate(0,0)"></path>
<path d="M 912.185 1462.36 C 921.057 1460.89 930.035 1464.31 935.672 1471.32 C 941.308 1478.33 942.728 1487.83 939.386 1496.18 C 936.044 1504.53 928.459 1510.43 919.544 1511.62 C 906.178 1513.39 893.827 1504.21 891.678 1490.9 C 889.492 1477.36 898.659 1464.61 912.185 1462.36 z" fill="rgb(35,31,32)" transform="translate(0,0)"></path>
<path d="M 676.152 1717.15 C 679.814 1717.01 683.474 1717.48 686.975 1718.56 C 692.907 1720.43 698.007 1724.35 700.821 1729.96 C 703.29 1734.92 703.691 1740.66 701.939 1745.91 C 699.382 1753.54 694.619 1757.13 687.822 1760.53 C 663.314 1763.05 657.387 1745.13 664.154 1724.59 C 668.191 1720.38 670.813 1719.16 676.152 1717.15 z" fill="rgb(35,31,32)" transform="translate(0,0)"></path>
<path d="M 420.057 1105.24 C 431.146 1105.42 440 1114.54 439.846 1125.62 C 439.693 1136.71 430.589 1145.58 419.5 1145.45 C 408.382 1145.32 399.483 1136.19 399.637 1125.07 C 399.791 1113.95 408.939 1105.07 420.057 1105.24 z" fill="rgb(35,31,32)" transform="translate(0,0)"></path>
<path d="M 696.118 485.989 C 700.617 485.904 702.969 485.601 706.29 488.889 C 708.384 497.34 696.308 506.776 690.703 513.125 C 680.248 524.966 671.987 536.507 665.512 550.972 C 657.114 548.76 652.296 544.904 655.582 535.574 C 661.528 518.692 681.108 494.951 696.118 485.989 z" fill="rgb(35,31,32)" transform="translate(0,0)"></path>
<path d="M 1667.25 709.58 C 1677.43 707.445 1687.39 714.021 1689.43 724.217 C 1691.47 734.413 1684.8 744.314 1674.58 746.254 C 1664.51 748.169 1654.77 741.607 1652.76 731.547 C 1650.74 721.488 1657.21 711.687 1667.25 709.58 z" fill="rgb(35,31,32)" transform="translate(0,0)"></path>
<path d="M 1199.95 274.136 C 1203.98 273.985 1206.51 274.954 1209.94 276.827 C 1214.55 287.519 1159.39 309.435 1150.59 313.103 C 1147.45 312.839 1144.78 311.867 1142.3 309.947 C 1141.76 308.1 1141.06 306.48 1142.49 304.586 C 1149.14 295.769 1191.71 275.996 1199.95 274.136 z" fill="rgb(35,31,32)" transform="translate(0,0)"></path>
<path d="M 1512.32 1246.86 C 1516.86 1246.78 1517.48 1246.62 1520.97 1249.24 C 1525.45 1259.69 1507.73 1276.67 1498.87 1276.41 C 1492.09 1276.22 1478.47 1272.11 1471.24 1270.31 C 1465 1267.97 1461.72 1266.82 1461.28 1259.72 C 1466.55 1248.68 1484.86 1258.93 1494.11 1260.31 C 1503.76 1261.75 1503.36 1252.25 1512.32 1246.86 z" fill="rgb(35,31,32)" transform="translate(0,0)"></path>
<path d="M 810.501 1432.18 C 836.879 1433.48 829.054 1460.36 809.519 1466.16 C 787.525 1462.44 786.985 1438.32 810.501 1432.18 z" fill="rgb(35,31,32)" transform="translate(0,0)"></path>
<path d="M 804.95 1697.17 C 812.559 1697.22 818.48 1697.89 822.78 1705.05 C 825.054 1708.9 825.585 1713.53 824.241 1717.8 C 822.092 1724.6 818.127 1727.48 812.113 1730.46 C 809.391 1730.96 805.777 1731.38 803.097 1730.69 C 799.35 1729.74 796.2 1727.21 794.464 1723.76 C 789.119 1713.13 794.581 1702.06 804.95 1697.17 z" fill="rgb(35,31,32)" transform="translate(0,0)"></path>
<path d="M 1039.92 1648.58 C 1064.15 1653.62 1014.68 1690.22 1007.99 1696.16 C 1006.84 1696.49 1005.85 1696.48 1004.63 1696.59 L 1002.6 1694.77 C 1002.03 1692.98 1001.14 1690.44 1001.47 1688.62 C 1003.59 1676.97 1030.89 1655.19 1039.92 1648.58 z" fill="rgb(35,31,32)" transform="translate(0,0)"></path>
<path d="M 1059.91 1568.98 C 1061.66 1569.62 1063.33 1570.47 1064.87 1571.52 C 1068.09 1573.69 1068.17 1575.04 1068.76 1578.24 C 1067.08 1584.36 1035.2 1607.88 1027.99 1613.63 C 1025.7 1614.34 1025.38 1614.25 1022.95 1614.34 C 1011.61 1603.86 1052.2 1575.37 1059.91 1568.98 z" fill="rgb(35,31,32)" transform="translate(0,0)"></path>
<path d="M 850.957 262.06 C 852.696 262.127 854.683 262.208 856.394 262.465 C 861.341 263.22 865.726 266.062 868.435 270.269 C 870.705 273.839 871.354 278.205 870.221 282.281 C 868.512 288.613 864.447 291.563 859.094 294.621 C 836.297 293.699 833.213 268.875 850.957 262.06 z" fill="rgb(35,31,32)" transform="translate(0,0)"></path>
<path d="M 1435.52 1550.78 C 1439.26 1551.36 1440.06 1551.53 1442.58 1554.19 C 1445.89 1565.93 1416.73 1587.31 1407.51 1591.65 C 1403.36 1590.87 1403.06 1590.78 1400.61 1587.47 C 1398.39 1577.47 1427.33 1555.26 1435.52 1550.78 z" fill="rgb(35,31,32)" transform="translate(0,0)"></path>
<path d="M 415.429 653.312 L 418.427 654.909 C 422.441 662.225 427.148 679.858 429.012 688.267 C 430.339 694.25 429.833 696.377 426.552 701.198 C 418.191 703.347 413.948 700.671 413.495 691.506 C 413.013 681.738 409.928 661.04 415.429 653.312 z" fill="rgb(35,31,32)" transform="translate(0,0)"></path>
<path d="M 1256.77 253.105 C 1262.14 252.928 1268.91 254.292 1268.22 261.055 C 1263.11 267.609 1248.53 272.351 1240.32 275.882 C 1236.03 277.223 1233.81 277.256 1230.51 273.871 C 1227.18 261.742 1248.15 255.791 1256.77 253.105 z" fill="rgb(35,31,32)" transform="translate(0,0)"></path>
<path d="M 861.003 1656.87 C 878.406 1658.37 880.569 1674.81 865.963 1683.94 C 847.107 1685.15 846.143 1664.99 861.003 1656.87 z" fill="rgb(35,31,32)" transform="translate(0,0)"></path>
<path d="M 772.717 435.143 C 778.424 434.597 781.574 433.857 784.377 439.24 C 783.505 448.918 772.791 453.114 764.847 455.589 C 759.824 455.141 756.971 454.648 753.154 451.39 C 750.117 442.188 766.155 437.524 772.717 435.143 z" fill="rgb(35,31,32)" transform="translate(0,0)"></path>
<path d="M 1464.52 360.719 C 1470.96 359.056 1477.53 362.944 1479.18 369.393 C 1480.82 375.842 1476.91 382.4 1470.46 384.025 C 1464.03 385.643 1457.51 381.756 1455.87 375.333 C 1454.23 368.91 1458.1 362.374 1464.52 360.719 z" fill="rgb(35,31,32)" transform="translate(0,0)"></path>
<path d="M 476.683 618.483 C 489 622.035 487.256 645.608 475.973 652.75 C 460.367 649.719 468.882 626.397 476.683 618.483 z" fill="rgb(35,31,32)" transform="translate(0,0)"></path>
<path d="M 1426.31 1281.52 C 1438.44 1282.37 1444.33 1294.3 1450.59 1303.68 C 1453.87 1308.62 1454.81 1311.16 1453.22 1316.91 C 1451.22 1317.16 1450.61 1317.08 1448.58 1317.03 C 1440 1312.31 1425.61 1291.6 1426.31 1281.52 z" fill="rgb(35,31,32)" transform="translate(0,0)"></path>
<path d="M 438.046 642.7 C 453.008 643.463 452.851 664.816 443.309 671.519 C 428.679 669.505 428.753 651.869 438.046 642.7 z" fill="rgb(35,31,32)" transform="translate(0,0)"></path>
<path d="M 1578.94 816.006 C 1596.18 816.72 1597.75 830.158 1583.56 839.126 C 1582.85 839.262 1580.48 839.359 1579.67 839.41 C 1568.83 834.562 1567.06 821.646 1578.94 816.006 z" fill="rgb(35,31,32)" transform="translate(0,0)"></path>
<path d="M 831.211 1644.81 C 848.867 1644.46 845.349 1661.47 834.401 1669.01 C 818.768 1669.74 820.341 1653.57 831.211 1644.81 z" fill="rgb(35,31,32)" transform="translate(0,0)"></path>
<path d="M 1768.61 841.366 C 1774.45 839.766 1780.49 843.208 1782.08 849.05 C 1783.67 854.892 1780.23 860.919 1774.38 862.507 C 1768.55 864.092 1762.53 860.65 1760.94 854.817 C 1759.35 848.983 1762.78 842.963 1768.61 841.366 z" fill="rgb(35,31,32)" transform="translate(0,0)"></path>
<path d="M 1554.07 1224.57 C 1570.88 1226.81 1565.48 1241.78 1554.76 1249.36 C 1534.14 1248.94 1547.7 1232.28 1554.07 1224.57 z" fill="rgb(35,31,32)" transform="translate(0,0)"></path>
<path d="M 1405.19 1301.57 C 1410.45 1301.94 1414.76 1305.85 1418.36 1309.51 C 1423.24 1314.48 1433.25 1322.54 1431.67 1329.73 C 1420.39 1331.26 1410.42 1319.36 1405.41 1310.14 C 1403.71 1307 1403.89 1304.9 1405.19 1301.57 z" fill="rgb(35,31,32)" transform="translate(0,0)"></path>
<path d="M 388.141 1029.42 C 393.691 1027.95 399.379 1031.27 400.834 1036.82 C 402.288 1042.38 398.955 1048.06 393.397 1049.5 C 387.862 1050.93 382.21 1047.61 380.762 1042.08 C 379.313 1036.55 382.614 1030.89 388.141 1029.42 z" fill="rgb(35,31,32)" transform="translate(0,0)"></path>
<path d="M 345.126 1075.09 C 361.274 1073.22 361.111 1087.18 352.199 1096.26 C 338.353 1096.06 333.457 1084.45 345.126 1075.09 z" fill="rgb(35,31,32)" transform="translate(0,0)"></path>
<path d="M 1384.07 1322.77 C 1397.46 1322.57 1404.48 1331.12 1391.46 1341.51 C 1376.88 1344.2 1371.87 1332.49 1384.07 1322.77 z" fill="rgb(35,31,32)" transform="translate(0,0)"></path>
<path d="M 725.121 462.145 C 730.839 462.861 733.192 463.586 733.379 469.513 C 730.235 476.682 726.073 479.026 719.852 483.601 C 705.619 476.41 713.525 465.743 725.121 462.145 z" fill="rgb(35,31,32)" transform="translate(0,0)"></path>
<path d="M 494.909 983.507 C 508.913 985.887 509.993 997 498.936 1004.46 C 484.264 1002.55 487.701 991.765 494.909 983.507 z" fill="rgb(35,31,32)" transform="translate(0,0)"></path>
<path d="M 1349.05 642.923 C 1359.23 651.47 1358.45 678.916 1355.95 691.089 L 1354.55 690.36 C 1351.78 682.028 1347.65 650.202 1349.05 642.923 z" fill="rgb(35,31,32)" transform="translate(0,0)"></path>
<metadata><recraft-signature>{"signed_by": "recraft", "signature_b64": "O/AKpaqdLi1IaONRkXgF4c3s2sgLtEl/Qi+3Vw4fXxgjqod/PrKkE7GesVlFsPrKZRnO0KDuSqZOK4oz95IzDw==", "signing_algo": "Ed25519", "generation_timestamp": 1776302013, "identifier": "a0b55636-e876-42a2-98a9-e991f7e0c42a"}</recraft-signature></metadata></svg>