<svg xmlns="http://www.w3.org/2000/svg" height="1024" preserveAspectRatio="none" style="display: block;" version="1.1" viewBox="0 0 2048 2048" width="1024">
<path d="M 0 0 L 2048 0 L 2048 2048 L 0 2048 L 0 0 z" fill="rgb(254,254,254)" transform="translate(0,0)"></path>
<path d="M 434.621 1072.35 L 435.758 1071.97 L 438.978 1073.98 C 442.891 1076.45 446.218 1076.51 448.797 1078.28 L 448.748 1082.33 C 451.093 1085.87 456.307 1080.83 458.592 1081.52 C 464.709 1083.38 472.679 1087.49 478.52 1089.67 L 479.364 1087.13 C 486.586 1086.86 489.146 1085.24 495.888 1086.01 C 503.402 1086.86 501.1 1087.35 506.712 1083.92 C 518.058 1092.91 516.532 1086.65 524.004 1090.8 C 525.07 1093.66 524.441 1092.89 526.341 1095.02 L 531.07 1090.91 C 537.123 1091.7 529.646 1092.34 534.364 1096.03 L 535.719 1091.64 C 541.917 1086.96 544.466 1097.09 551.432 1096.75 C 552.984 1095.06 554.226 1093.53 555.467 1091.6 C 556.276 1092.45 556.702 1097.56 556.944 1099.22 L 557.805 1099.85 C 559.596 1097.6 558.442 1095.78 558.531 1091.52 L 560.452 1091.05 L 565.065 1093.86 C 567.545 1093.28 568.406 1093.24 570.966 1093.05 C 574.446 1098.38 569.194 1092.94 569.717 1099.09 C 573.292 1099.92 573.781 1098.52 577.872 1096.09 C 580.983 1096.01 581.13 1095.7 583.773 1097.16 L 584.465 1101.29 L 585.496 1101.97 C 586.06 1099.69 585.907 1100.48 586.275 1098.39 L 586.504 1097.05 C 592.671 1093.21 595.04 1101 597.951 1100.83 C 599.958 1100.72 607.381 1100.61 610.635 1100.74 C 613.643 1102.51 612.78 1102.39 614.332 1106.65 C 619.523 1105.67 614.957 1100.96 617.355 1098.08 L 619.416 1100.78 C 620.488 1098.87 620.496 1098.78 621.997 1097.21 C 623.843 1099.52 622.968 1098.97 625.407 1100.25 L 627.056 1098.19 C 629.238 1099.01 629.311 1100.65 630.714 1103.49 L 631.898 1103.31 C 631.399 1100.42 630.967 1099.18 631.601 1096.29 C 637.084 1095.22 647.676 1103.85 653.114 1101.58 L 653.355 1100.11 L 649.591 1100.32 L 648.761 1099.26 C 650.439 1096.69 649.372 1097.62 651.966 1096.23 C 656.659 1098 655.816 1099.99 660.334 1104.44 C 662.148 1103.56 662.555 1103.3 664.004 1102.04 L 666.121 1102.89 L 666.439 1106.35 L 668.062 1104.22 C 672.69 1104.67 668.85 1106.96 673.1 1108.95 C 674.592 1107.45 674.957 1107.1 676.672 1105.87 C 683.035 1108.11 706.025 1115.43 708.733 1120.37 L 707.468 1121.5 L 704.848 1119.97 L 704.009 1120.92 C 705.52 1124.01 705.059 1123.02 709.346 1124.67 L 709.931 1126.54 C 708.283 1128.75 708.395 1128.4 707.242 1130.85 L 711.371 1133.22 L 709.064 1135.26 L 712.734 1135.91 C 713.502 1137.48 713.164 1138.73 712.685 1140.76 C 710.463 1150.2 704.767 1149.31 698.962 1153.18 L 699.32 1154.01 L 698.737 1153.57 L 700.87 1154.7 L 699.268 1156.03 C 696.957 1154.16 695.368 1152.36 692.52 1152.08 L 691.864 1153.37 L 694.722 1156.13 L 694.642 1157.4 C 681.122 1158.58 678.111 1164.17 672.369 1164.79 L 671.267 1162.67 L 670.038 1162.58 L 669.359 1165.76 C 664.31 1167.56 662.455 1165.08 657.702 1167.58 C 655.603 1168.69 656.552 1166.31 653.145 1165.69 L 653.932 1169.74 L 652.991 1170.77 C 647.651 1171.11 641.638 1167.61 636.523 1166.6 C 632.057 1165.71 635.897 1168.92 632.469 1171.37 C 629.839 1169.64 627.495 1168.57 624.69 1167.2 C 624.005 1169.41 624.098 1169.29 622.589 1171.04 C 619.225 1172.48 617.682 1173.82 614.541 1173.52 L 614.872 1170.18 C 613.378 1170.39 612.175 1170.38 610.981 1171.85 C 604.913 1179.28 593.202 1173.47 588.249 1181.36 C 587.022 1183.32 586.052 1184.25 584.266 1184.85 L 584.174 1181.2 C 581.667 1179.89 558.175 1192.17 554.026 1193.27 C 551.427 1191.5 551.033 1191.18 548.04 1189.87 C 545.465 1190.91 546.507 1190.56 545.053 1191.83 C 534.133 1201.39 517.2 1194.21 503.177 1204.84 L 501.797 1205.91 C 499.341 1205.44 500.494 1205.43 498.339 1205.78 C 498.114 1208.3 498.104 1209.07 497.428 1211.48 L 496.138 1211.16 L 496.785 1207.22 L 495.574 1205.97 C 489.164 1205.19 487.362 1208.38 486.499 1213.97 L 487.148 1214.43 C 489.495 1212.99 489.303 1213 492.026 1212.74 C 498.205 1221.58 508.234 1221.53 517.311 1225.58 C 522.111 1227.73 526.148 1230.95 530.981 1233.06 L 533.996 1230.58 C 534.662 1231.18 541.202 1237.29 541.059 1237.26 C 554.015 1240.36 567.379 1242.95 580.182 1246.67 C 580.869 1247.71 581.557 1248.74 582.245 1249.78 C 584.492 1248.51 583.385 1248.57 585.545 1248.91 C 585.962 1251.46 585.507 1250.81 586.822 1252.74 C 589.577 1251.45 590.199 1251.06 593.21 1250.34 L 595.429 1252.01 C 595.76 1253.75 595.936 1255.42 595.96 1257.19 L 596.833 1257.02 L 598.069 1255.89 C 610.872 1257.03 612.617 1261.11 621.117 1267.42 L 623.616 1265.57 L 625.078 1266.19 L 625.403 1269.96 C 628.12 1270.88 635.212 1268.29 638.612 1268.25 C 642.038 1268.22 640.727 1270.72 642.234 1272.23 C 645.232 1275.25 650.274 1272.4 653.937 1275.11 C 654.171 1276.13 654.405 1277.16 654.639 1278.18 C 665.729 1282.06 676.405 1287.16 687.432 1291.2 C 696.884 1294.65 706.618 1296.83 715.686 1301.39 C 720.651 1303.89 723.791 1306.57 727.973 1310.17 C 730.983 1313.27 733.548 1315.79 734.346 1320.08 C 732.657 1323.45 730.228 1323.28 725.716 1324.79 C 723.247 1327.73 724.039 1326 724.002 1330.45 C 721.066 1331.8 722.72 1327.87 718.387 1327.24 C 719.44 1335.49 717.772 1330.47 714.424 1333.69 C 716.63 1336.14 717 1335.59 717.247 1337.9 C 711.706 1337.7 709.213 1336.99 704.535 1340.15 C 703.088 1339.96 702.665 1340.08 701.62 1339.44 C 695.164 1335.44 687.726 1339.19 681.871 1333.33 C 680.123 1331.58 678.817 1330.78 676.503 1329.96 L 675.655 1330.25 C 674.476 1330.59 673.297 1330.94 672.119 1331.29 C 660.412 1326.62 649.379 1320.08 636.462 1319.82 C 632.528 1319.74 624.413 1314.08 620.419 1312.58 C 619.307 1312.16 618.855 1314.53 615.219 1313.76 L 614.734 1310.33 L 613.486 1309.48 C 605.599 1313.52 605.06 1310.56 598.385 1306.23 C 594.58 1306.2 590.748 1306.69 588.271 1303.54 L 590.165 1301.06 L 589.06 1300.31 C 580.049 1303.18 577.269 1299.47 569.6 1294.59 C 568.603 1296.06 569.24 1295.4 567.619 1296.48 C 564.156 1295.58 562.099 1292.29 559.698 1289.42 C 556.718 1289.77 555.699 1289.85 552.587 1289.82 L 552.123 1288.61 L 558.135 1287.42 L 558.39 1286.32 L 553.588 1284.38 C 551.16 1284.71 552.321 1284.28 550.347 1286.43 C 549.675 1282.57 550.593 1283.54 548.499 1281.38 C 546.844 1282.99 547.108 1282.79 545.36 1284.03 L 542.587 1282.74 L 542.105 1281.05 C 543.591 1279.63 543.507 1279.73 544.708 1278.22 C 538.426 1274.91 538.012 1281.3 532.243 1275.45 C 532.004 1273.18 531.979 1272.73 531.46 1270.49 L 529.302 1272.78 L 527.493 1272.84 C 526.387 1271.69 525.398 1270.65 524.339 1269.45 L 523.514 1268.51 L 519.478 1269.75 L 518.105 1268.85 L 518.799 1266.77 L 518.024 1265.88 L 515.09 1267.72 C 506.831 1265.72 502.348 1265.83 498.555 1260.14 C 493.334 1258.84 498.987 1260.53 493.704 1262.52 C 487.62 1261.11 482.487 1257.92 476.919 1254.97 C 474.75 1255.81 474.822 1255.79 472.501 1255.96 C 470.626 1253.14 467.492 1248.16 464.473 1247.02 C 463.771 1249.48 464.481 1248.46 462.607 1250.29 C 454.975 1249.83 454.758 1244.19 448.807 1240.3 C 444.145 1241.95 446.909 1243.95 442.509 1246.1 C 441.029 1244.36 440.211 1243.16 439.142 1241.14 C 428.197 1243.52 428.101 1254.84 428.46 1263.35 L 431.477 1265.48 L 431.266 1266.87 C 420.264 1272.21 431.601 1276.38 431.599 1285.75 C 424.981 1290.37 431.899 1287.87 431.349 1293.93 L 428.034 1295.44 L 427.845 1296.56 C 428.482 1297.34 430.622 1300.11 430.792 1300.76 C 432.457 1307.12 434.041 1341.9 432.412 1346.26 L 429.835 1346.95 L 428.341 1346.07 L 428.628 1343.07 L 427.563 1343.11 C 425.989 1347.43 426.247 1348.55 421.676 1349.53 L 418.784 1347.53 C 417.08 1348.45 415.635 1349.23 413.972 1350.24 L 412.867 1350.92 L 412.816 1350.67 C 415.533 1352.37 414.815 1351.43 416.182 1354.04 C 414.831 1356.39 414.927 1356.22 412.671 1357.75 C 410.887 1355.98 411.674 1356.86 410.284 1355.11 C 407.936 1357.8 407.187 1361.4 406.102 1364.88 C 399.717 1359.54 393.589 1352.57 388.262 1346 C 386.855 1344.27 389.986 1333.65 389.972 1331.01 C 389.955 1327.62 383.181 1316.42 383.479 1314.33 C 385.544 1299.83 382.155 1304.93 379.165 1298.62 L 380.494 1297.83 L 385.271 1299.51 L 386.447 1298.91 L 386.73 1295.5 C 388.788 1293.62 388.416 1294.37 389.591 1292.04 C 386.841 1288.02 383.027 1290.1 380.005 1286.61 C 382.432 1284.81 381.05 1285.5 385.355 1286.06 C 390.768 1277.07 388.616 1277.2 387.986 1268.18 L 387.859 1266.23 C 386.978 1270.52 386.247 1276.72 381.103 1276.21 C 378.057 1273.51 378.537 1274.99 377.997 1271.94 C 380.382 1270.74 379.801 1271.27 381.64 1269.48 C 378.015 1267.08 376.812 1267.28 376.396 1263.24 L 380.424 1261.95 C 382.634 1259.53 382.036 1260.94 382.094 1257.51 C 380.348 1256.12 379.918 1255.8 378.341 1254.21 C 379.471 1253.44 380.601 1252.68 381.731 1251.92 C 381.132 1244.67 371.979 1240.66 376.607 1228.92 C 380.441 1219.2 370.346 1215.12 376.181 1205.21 C 378.769 1204.99 379.968 1205.19 382.542 1205.42 C 383.885 1200.77 378.656 1186.87 377.151 1181.94 C 376.17 1178.72 378.911 1173.78 378.039 1171.12 C 376.855 1167.5 373.635 1162.84 373.526 1159 C 373.258 1149.48 376.529 1132.53 374.681 1124.07 L 372.398 1113.59 C 374.066 1111.4 375.419 1111.42 378.454 1110.65 C 383.971 1109.26 375.076 1105.01 378.299 1096.42 C 380.531 1096.12 380.93 1096.08 383.047 1095.37 C 381.81 1092.43 381.898 1093.86 382.416 1090.99 C 385.544 1089.23 384.738 1089.82 389.046 1090.2 C 391.79 1088.9 391.591 1086.46 393.349 1082.42 L 394.312 1082.15 L 397.33 1084.67 C 398.051 1081.03 397.086 1082.17 399.39 1080.37 C 402.15 1080.54 404.325 1082.74 406.679 1084.51 C 409.562 1083.96 414.577 1078.64 417.066 1076.35 C 421.621 1074.86 425.323 1076.18 430.485 1076.7 C 434.208 1075.12 432.76 1076.4 434.621 1072.35 z" fill="rgb(0,0,0)" transform="translate(0,0)"></path>
<path d="M 474.137 1117.87 C 478.755 1120.5 499.079 1119.65 506.417 1120.73 C 520.656 1122.82 535.027 1125.19 549.241 1127.44 C 556.557 1128.6 564.711 1126.38 571.723 1129.82 C 576.925 1132.38 582.854 1132.91 585.439 1138.15 C 582.906 1143.74 572.033 1148.28 566.624 1150.79 C 555.737 1155.85 515.649 1172.86 506.068 1169.33 C 494.741 1173.13 488.317 1178.37 473.898 1180.96 C 465.94 1182.39 458.478 1182.54 452.277 1183.5 C 448.13 1184.15 438.917 1193.26 430.531 1191.35 L 430.037 1187.95 L 427.057 1187.35 C 424.747 1182.66 428.798 1170.1 430.19 1164.52 L 427.653 1163.52 L 427.309 1162.02 C 429.321 1160.49 429.959 1159.93 431.737 1158.13 C 431.751 1153.94 429.295 1151.47 426.826 1147.32 L 425.578 1147.02 L 423.654 1149.67 C 422.005 1145.56 422.795 1136.32 425.693 1132.74 C 440.059 1124.42 451.178 1119.95 468.048 1118.74 C 471.354 1118.5 470.54 1119.12 474.137 1117.87 z" fill="rgb(254,254,254)" transform="translate(0,0)"></path>
<path d="M 975.616 1079.1 C 978.789 1079.11 981.961 1079.15 985.133 1079.23 C 988.288 1083.93 983.789 1079.42 984.558 1084.73 L 987.424 1083.76 C 992.251 1086.16 986.565 1083.9 989.55 1089.11 C 992.248 1088.66 991.913 1088.54 994.273 1087.05 C 997.517 1087.55 996.271 1086.75 998.39 1088.92 L 997.503 1090.03 L 994.62 1090.16 L 994.285 1091.18 C 1004.73 1097.44 1003.61 1100.53 1011.09 1107.34 L 1012.52 1105.34 L 1013.91 1105.26 C 1014 1107.85 1013.85 1108.47 1014.68 1110.88 L 1017.35 1110.15 L 1019 1111.58 C 1018.87 1112.93 1018.71 1114.23 1018.48 1115.58 L 1021.44 1115.73 C 1022.7 1118.08 1022.41 1116.84 1021.87 1119.61 L 1018.42 1117.82 C 1018.4 1123.52 1036.04 1141.14 1038.84 1146.99 C 1037.33 1148.42 1037.37 1148.38 1036.14 1149.9 C 1039.22 1153.76 1048.98 1156.51 1055.68 1165.62 C 1055.23 1170.09 1054.82 1165.33 1050.39 1169.36 C 1052.46 1170.34 1054.51 1171.34 1056.55 1172.37 C 1056.32 1177.41 1063.47 1177.45 1068.49 1180.36 C 1071.75 1184.85 1070.26 1187.33 1072.26 1192.4 C 1074.51 1192.17 1073.38 1192.19 1075.66 1192.37 C 1077.17 1195.02 1080.22 1199.64 1080.55 1202.44 L 1077.79 1203.94 C 1078.64 1206.62 1077.9 1205.51 1080.47 1207.03 C 1082.85 1206.06 1082.85 1206.01 1085.37 1205.4 C 1087.43 1210.69 1084.04 1206.06 1084.62 1212.32 L 1089.94 1212.07 C 1093.61 1216.52 1088.19 1212.1 1089.75 1217.45 L 1091.19 1217.33 L 1092.21 1214.37 L 1093.49 1214.89 C 1095.27 1220.07 1092.3 1218.9 1093.65 1223.08 C 1095.87 1221.49 1095.79 1221.28 1098.42 1220.83 C 1100.92 1223.39 1100.02 1221.83 1100.4 1226.09 C 1101.45 1223.65 1101.47 1222.8 1103.44 1221.13 L 1104.66 1222.53 C 1104.04 1225.7 1103.83 1226.34 1103.83 1229.65 C 1110.35 1236.7 1119.25 1239.72 1127.83 1244.28 C 1125.09 1245.89 1124.99 1245.3 1121.33 1245.33 C 1121.57 1246.84 1129.14 1250.25 1130.76 1251.83 C 1133.05 1254.08 1125.78 1262.21 1127.85 1265.64 C 1130.95 1270.74 1143 1275.21 1148.06 1278.84 C 1148.05 1280.45 1148.93 1287.39 1149.04 1288.45 C 1150.94 1305.92 1168.38 1318.95 1143.03 1325.66 C 1140.92 1326.21 1136.6 1340.02 1126.48 1342.03 C 1119.67 1340.7 1118.78 1334.21 1113.81 1328.32 C 1098.73 1325.59 1104.6 1323.13 1098.54 1312.1 C 1097.57 1310.34 1087.41 1305.89 1084.45 1302.23 C 1087.66 1301.95 1087.29 1302.32 1090 1300.93 C 1088.94 1297.56 1089.76 1298.47 1087.5 1296.29 C 1085.36 1300.17 1086.87 1298.92 1083.15 1300.53 L 1082.23 1298.93 L 1083.89 1295.47 C 1075.09 1289.08 1091.4 1300.51 1081.18 1294.25 C 1075.75 1290.92 1078.68 1276.64 1072.75 1268.21 C 1070.88 1269.57 1071.93 1268.97 1069.57 1269.95 C 1065.13 1265.54 1065.85 1265.02 1062.66 1260.11 C 1059.31 1258.34 1059.9 1258.02 1056.62 1258.13 L 1056.37 1261.7 C 1047.51 1262.69 1036.5 1260.49 1027.34 1261.28 C 1019.96 1261.92 1010.16 1257.77 1004.58 1263.52 L 1001.02 1260.86 L 999.055 1261.17 C 996.836 1263.52 996.301 1264.47 993.201 1265.48 C 989.629 1264.82 990.983 1265.7 988.516 1263.58 L 989.656 1261.34 L 989.055 1259.98 L 985.508 1260.5 C 982.753 1258.92 981.782 1257.97 978.656 1258.33 C 974.194 1260.58 974.775 1263.27 973.86 1263.76 C 964.148 1268.93 930.397 1260.94 922.777 1264.97 C 909.452 1272 908.358 1263 898.287 1264.72 C 899.566 1265.48 900.464 1265.96 901.777 1266.64 C 892.509 1270.54 876.746 1265.99 867.975 1266.88 C 857.239 1267.97 850.537 1269.82 838.999 1270.01 C 837.59 1271.15 838.213 1270.68 837.62 1273.13 C 828.779 1275.79 819.28 1283.95 812.343 1289.94 C 808.052 1289.26 803.076 1288.92 800.173 1285.76 C 796.561 1281.82 792.003 1280.65 789.669 1275.56 C 790.772 1273.09 791.568 1271.16 792.522 1268.63 L 789.148 1264.16 C 792.532 1259.42 797.071 1258.83 795.171 1250.08 C 794.816 1248.44 795.274 1248.4 796.03 1246.94 C 797.543 1246.99 798.916 1247.13 800.4 1247.38 C 802.458 1242.43 803.395 1238.96 808.384 1236.5 C 805.197 1236.43 806.122 1236.91 803.662 1235.54 C 807.961 1231.07 811.474 1234.22 814.917 1229.2 L 812.482 1229.86 L 811.755 1229.11 C 815.708 1219.14 815.241 1226.85 820.224 1223.41 C 825.608 1219.69 833.136 1216.02 836.513 1210.15 C 840.357 1203.46 834.355 1201.91 835.653 1197.1 C 838.2 1195.27 839.286 1193.78 841.902 1193.59 L 840.622 1200.66 L 841.05 1201.15 L 844.089 1195.79 L 846.647 1195.56 C 848.58 1192.12 844.818 1194.5 843.72 1188.89 C 846.735 1186.38 844.925 1187.14 849.712 1187.54 C 850.487 1184.55 850.666 1182.9 852.529 1180.4 C 858.247 1179.6 858.27 1179.45 863.417 1177.17 C 875.074 1171.99 867.36 1174.56 872.147 1168.23 C 874.673 1167.88 873.836 1168.19 876.082 1167.05 C 874.709 1165.35 874.555 1165.1 873.533 1163.16 C 875.616 1159.12 879.192 1160.91 882 1156.17 C 880.673 1153.61 880.528 1153.27 879.716 1150.51 C 881.839 1144.09 889.663 1144.69 895.122 1144.61 C 899.41 1140.81 894.279 1144.26 896.615 1139.41 L 900.497 1139.93 L 900.92 1138.95 L 898.39 1136.89 C 902.341 1131.92 904.445 1136.13 909.29 1130.65 C 908.285 1130.21 907.286 1129.75 906.295 1129.28 L 908.1 1127.3 C 911.488 1127.43 910.371 1127.73 913.394 1126.69 C 913.931 1123.73 914.109 1125.09 913.02 1122.44 C 914.669 1122.75 914.973 1123.34 916.31 1124.36 L 917.267 1123.39 C 911.194 1116.29 907.99 1110.65 901.616 1104.05 C 901.475 1100.78 901.481 1099.34 901.704 1096.07 C 911.388 1079.7 925.897 1089 940.065 1094.61 C 951.769 1091.78 966.041 1086.54 975.616 1079.1 z" fill="rgb(0,0,0)" transform="translate(0,0)"></path>
<path d="M 948.737 1143.48 L 950.242 1144.41 L 950.477 1147.6 C 955.126 1151.24 963.241 1147.76 967.122 1154 C 965.844 1157.09 965.924 1155.85 966.208 1158.97 L 969.695 1159.57 C 973.84 1162 976.274 1174.55 978.027 1175.59 C 987.038 1180.94 995.815 1184.47 1001.03 1194.63 C 1002.18 1196.86 1002.29 1197.87 1004.46 1198.99 L 1007.67 1196.68 C 1011.34 1198.64 1007.17 1206.52 1014.57 1206.86 C 1018.77 1203.59 1013.6 1206.58 1015.21 1202.46 L 1016.81 1202.89 C 1018.79 1210.42 1022.23 1208.22 1023.97 1214.02 C 1021.47 1215.57 1021.61 1214.98 1018.1 1214.85 L 1017.23 1217.28 C 1014.02 1220.1 1011.31 1216.56 1005.96 1217.94 C 1004.15 1216.72 1004.83 1217.59 1004.24 1215.12 C 1006.17 1213.61 1007.99 1213.08 1010.26 1212.19 L 1010.54 1210.4 L 1008.73 1208.51 C 1005.92 1209.38 1005.73 1209.88 1003.31 1211.67 L 1002.22 1211.26 C 1003 1208.21 1003.43 1207.96 1003 1204.98 L 1000.51 1205.9 C 997.847 1208.73 997.496 1208.71 996.407 1212.55 L 997.457 1214.41 L 1001.42 1215.22 L 1001.73 1216.67 C 999.446 1219.53 1000.84 1218.88 997.719 1219.24 C 995.879 1216.89 995.779 1216.65 993.476 1214.82 C 989.643 1215.19 986.967 1217.71 983.334 1219.13 L 981.937 1215.76 C 975.968 1213.01 981.624 1217.03 975.515 1216.33 C 977.238 1212.15 977.664 1211.79 976.592 1207.66 L 974.571 1206.65 C 974.07 1210.12 974.218 1212.26 972.523 1215.08 C 967.505 1208.83 965.543 1216.22 958.968 1216.83 C 955.041 1217.19 950.965 1216.78 947.048 1216.47 C 942.999 1210.27 944.827 1216.08 939.528 1215.14 C 940.049 1212.89 940.169 1212.63 940.17 1210.35 C 937.533 1210.14 938.702 1209.76 936.508 1211.09 L 937.66 1214.46 L 936.864 1215.61 C 932.082 1216.06 930.535 1214.51 925.725 1212.98 C 921.966 1214.26 922.774 1214.36 919.702 1217.74 L 917.939 1217.52 L 917.363 1214.73 C 907.8 1210.1 899.629 1216.58 893.028 1217.8 L 890.055 1214.92 C 886.11 1216.5 879.208 1220.26 876.241 1216.56 C 878.54 1207.85 928.12 1168.92 934.561 1155.38 C 936.204 1151.92 944.623 1150.78 945.014 1145.84 L 948.737 1143.48 z" fill="rgb(254,254,254)" transform="translate(0,0)"></path>
<path d="M 890.142 1145.7 C 892.742 1146.98 893.143 1146.92 895.055 1149.01 C 892.259 1150.47 891.816 1150.89 889.819 1153.34 C 889.566 1153.92 889.788 1153.51 888.778 1154.27 L 886.905 1151.56 C 887.046 1147.61 886.544 1149.13 890.142 1145.7 z" fill="rgb(254,254,254)" transform="translate(0,0)"></path>
<path d="M 1636.71 1062.39 C 1646.25 1067.45 1651.54 1079.82 1652.58 1090.08 L 1652.29 1089.63 C 1653.09 1117.79 1643.1 1108.76 1634.01 1129.23 C 1633.07 1131.34 1630.28 1139.47 1630.07 1141.88 C 1629.84 1144.5 1630.22 1143.74 1632.46 1146.41 L 1631.95 1147.31 C 1630.21 1146.93 1630.34 1147.09 1628.49 1147.21 L 1628.14 1148.6 L 1631.38 1151.07 C 1626.39 1156.47 1623.14 1165.07 1618.69 1169.13 C 1618.05 1168.39 1617.4 1167.66 1616.75 1166.94 L 1615.15 1168.99 C 1616.32 1173.41 1617.13 1175.55 1614.35 1179.6 C 1611.37 1180.47 1611.07 1180.28 1608.79 1182.26 C 1608.07 1186.18 1608.79 1185.56 1611.51 1190.13 L 1610.95 1191.86 L 1609.46 1192.12 L 1607.32 1189.18 L 1606.26 1189.52 L 1607.51 1195.47 L 1606.43 1196.87 L 1603.02 1195.1 L 1602.73 1196.91 C 1604.21 1198.97 1605.17 1199.87 1605.62 1202.33 C 1603.68 1202.5 1602.17 1202.5 1600.23 1202.54 C 1592.33 1207.06 1596.68 1213.54 1599.55 1219.66 C 1593.55 1224.26 1594.82 1224.71 1586.73 1226.68 C 1588.36 1228.87 1588.81 1228.91 1588.89 1231.53 L 1587.55 1232.3 C 1585.28 1230.9 1586.13 1231.06 1583.69 1230.67 L 1583.48 1232.32 L 1586.55 1236.25 C 1586.13 1238.82 1586.76 1237.85 1584.86 1239.29 L 1581.54 1236.42 L 1580 1236.71 C 1582.52 1239.05 1583.32 1238.87 1583.41 1241.35 C 1579.68 1243.12 1577.33 1243.77 1574.81 1246.88 C 1573.65 1251.5 1575.61 1255.11 1576.79 1260.61 C 1573.03 1261.31 1572.57 1260.05 1570.13 1261.53 L 1572.96 1264.74 C 1571.74 1269.07 1571.36 1263.38 1568.22 1266.84 C 1570.53 1269.63 1570.97 1269.73 1571.77 1273.32 C 1570.79 1277.84 1569.2 1279.76 1565.57 1282.64 C 1559.25 1287.65 1564.82 1285.15 1563.52 1291.27 C 1561.33 1292.35 1561.22 1292.44 1559.32 1294 C 1559.25 1296.89 1560 1296.61 1562.63 1299.54 L 1562.18 1301.51 C 1558.92 1301.58 1560.14 1299.27 1555.54 1296.02 L 1554.4 1297.21 C 1555.73 1300.46 1557.22 1302.27 1555.56 1305.25 L 1552.23 1305.27 L 1551.6 1306.47 C 1552.89 1309.14 1553.14 1309.46 1553.77 1312.3 L 1552.37 1313.57 C 1549.45 1314.02 1548.87 1313.93 1546.19 1315.28 L 1546.49 1316.42 C 1549.24 1316.76 1552.59 1314.82 1555.33 1313.64 L 1556.46 1314.13 C 1553.94 1316.21 1552.47 1317.14 1550.75 1319.96 L 1552.67 1322.34 L 1552.46 1324.11 L 1550.46 1325.54 L 1547.96 1324.07 L 1546.62 1324.75 C 1546.49 1328.47 1547.72 1329.89 1545.6 1332.58 C 1544.18 1332.17 1542.91 1331.82 1541.47 1331.47 C 1540.54 1332.91 1540.08 1333.59 1539.01 1334.98 L 1536.51 1333.51 L 1535.75 1335.12 C 1536.74 1337.59 1536.8 1337.6 1537.12 1340.22 L 1535.77 1341.88 L 1533.3 1340.66 C 1528.81 1344.16 1524.08 1347.39 1519.41 1350.66 L 1520.77 1352.7 L 1519.75 1353.83 C 1514.71 1349.18 1507.44 1353.3 1498.59 1353.37 L 1497.22 1351.48 C 1494.2 1351.37 1495.41 1351.47 1492.12 1353.16 L 1492.11 1354.31 L 1495.94 1354.38 C 1493.28 1357.22 1494.82 1356.29 1491.2 1357.41 C 1488.59 1356.3 1489.3 1356.33 1486.61 1356.08 C 1485.95 1358.29 1486.35 1357.58 1484.99 1359.43 L 1483.14 1358.65 C 1482.84 1355.81 1482.84 1355.34 1481.97 1352.66 C 1463.15 1350.29 1458.44 1316.76 1441.5 1307.03 C 1441.6 1307.09 1439.05 1297.09 1438.02 1296.73 C 1424.73 1292.14 1430.08 1286.27 1428.32 1282.3 L 1425.42 1283.05 C 1422.23 1281.76 1424.26 1275.25 1420.27 1271.89 C 1417.95 1271.9 1418.23 1272.08 1416.05 1271.52 C 1417.16 1268.14 1418.44 1266.45 1419.52 1263.54 L 1417.99 1261.81 L 1416.02 1263.13 C 1413.05 1262.1 1414.2 1262.97 1412.4 1260.48 L 1415.47 1258.62 L 1415.81 1257.11 C 1410.81 1252.16 1410.83 1252.28 1404.52 1252.29 C 1403.17 1254.46 1402.94 1255.19 1401.88 1257.56 L 1399.87 1258.3 L 1397.3 1256.33 C 1393.63 1258.08 1393.16 1261.93 1391.72 1263.08 C 1381.43 1271.22 1294.47 1344.09 1290.14 1344.43 L 1289.92 1342.49 L 1288.81 1342.4 C 1286.75 1344.33 1286.46 1344.64 1284.09 1346.11 C 1280.82 1345.47 1266.32 1343.35 1264.86 1342.78 C 1262.08 1333.78 1264.95 1329.22 1262.91 1321.57 L 1259.87 1321.96 C 1254.76 1316.15 1256.95 1313.89 1257.11 1307.4 C 1257.16 1305.59 1251.98 1301.13 1252.07 1296.97 L 1254.87 1295.02 L 1254.37 1293.6 C 1252.18 1293.25 1250.71 1292.94 1248.55 1292.41 L 1248.13 1290.55 L 1249.34 1289.51 L 1254.71 1290.43 L 1255.78 1289.46 C 1251.61 1285.17 1253.07 1290.35 1247.38 1285.7 C 1247.99 1276.8 1246.98 1263.98 1240.37 1257.47 L 1237.09 1257.68 L 1236.38 1256.52 L 1238.25 1254.03 L 1237.73 1252.31 C 1235.75 1253.32 1236.73 1252.99 1234.8 1253.4 C 1232.7 1249.29 1229.65 1241.49 1226.55 1238.62 C 1224.54 1236.76 1225.46 1238.83 1224.88 1236.02 L 1226.52 1234.62 L 1229.38 1231.8 C 1230.05 1226.95 1213.61 1222.2 1217.46 1213.78 L 1218.67 1213.8 L 1220.91 1217.75 L 1222.87 1217.5 L 1221.51 1218.57 L 1222.69 1218.05 C 1223.32 1214.5 1223.56 1216.17 1221.76 1212.88 C 1219.95 1211.82 1219.03 1211.55 1217.67 1210.1 C 1220.07 1208.6 1221.46 1208.08 1222.68 1205.54 L 1221.47 1205.11 L 1219.66 1204.44 C 1209.69 1200.81 1210.51 1196.69 1209.93 1186.4 C 1209.44 1177.73 1205.66 1175.17 1201.04 1168.29 C 1201.1 1159.94 1199.29 1156.62 1198.13 1148.69 L 1194.65 1146.63 L 1194.56 1144.92 C 1196.78 1143.54 1198.77 1142.69 1199.92 1140.43 C 1198.27 1139.94 1199.25 1140.07 1196.97 1140.43 L 1194.73 1136.4 L 1194.19 1138.48 L 1193.2 1138.32 C 1190.29 1133.49 1188.91 1131.38 1187.58 1125.72 L 1187.84 1129.94 C 1185.26 1117.34 1182.26 1121.58 1179.93 1115.06 C 1181.19 1113.05 1180.97 1113.9 1181.1 1111.61 C 1178.76 1111.11 1179.54 1111.48 1177.58 1110.04 C 1181.49 1097.77 1214.11 1087.67 1225.94 1091.33 C 1227.82 1093.79 1230.2 1107.65 1231.99 1112.98 L 1234.14 1112.04 C 1236.54 1112.92 1236.41 1114.18 1238 1117.24 L 1236.07 1119.13 L 1236.07 1120.54 L 1238.71 1121.26 C 1240.17 1123.64 1240.17 1130.4 1240.4 1133.69 C 1242.06 1134.85 1242.75 1135.2 1244.56 1135.98 L 1244.77 1137.86 C 1242.61 1138.4 1243.48 1137.85 1242.12 1139.42 C 1243.14 1142.28 1243.12 1141.49 1246.59 1143.4 C 1245.6 1144.94 1244.98 1145.67 1243.74 1146.96 L 1244.54 1148.93 L 1246.97 1147.78 L 1247.84 1148.54 L 1246.71 1152.08 L 1247.98 1152.63 L 1251.24 1148.9 L 1252.66 1148.87 L 1253.52 1151.47 C 1249.43 1162.9 1258.29 1159.11 1258.37 1171.33 C 1258.47 1175.38 1257.31 1177.68 1260.97 1180.54 C 1266.82 1185.11 1266.98 1190.56 1269.47 1197.1 C 1271.85 1203.36 1274.97 1210.36 1277.27 1216.72 C 1276.89 1220.33 1281.48 1217.35 1281.58 1220.82 C 1282.07 1237.48 1285.36 1241.54 1295.58 1254.14 C 1296.86 1255.71 1296.83 1265.82 1299.49 1269.55 C 1302.47 1267.38 1303.89 1266.23 1307.58 1265.76 C 1310.32 1265.41 1308.54 1263.74 1309.86 1260.83 L 1312.08 1260.03 C 1313.86 1261.41 1313.09 1261.09 1315.27 1261.56 C 1318.01 1259.33 1320.77 1257.12 1323.54 1254.94 C 1325.83 1255.69 1324.73 1255.61 1326.82 1255.37 C 1328.19 1247.49 1334.01 1251.75 1338.22 1247.66 C 1358.72 1227.75 1382.38 1212.06 1403.34 1192.89 C 1405.81 1190.62 1404.86 1194.21 1408.87 1192.32 L 1407.05 1188.97 L 1407.95 1188.45 C 1424.01 1192.83 1418.68 1202.64 1425.72 1207.2 L 1426.54 1205.2 C 1428.99 1207.76 1429.51 1208.97 1431.2 1212 C 1430.48 1214.07 1430.49 1213.95 1430.08 1215.94 C 1440 1228.97 1455.02 1240.15 1465.86 1253.95 C 1473.68 1263.89 1485.28 1285.63 1493.35 1292.3 C 1500.78 1285.07 1515.54 1269.32 1519.87 1259.89 C 1528.07 1242 1532.61 1230.81 1544.72 1214.71 L 1542.49 1213.67 C 1544.51 1209.07 1548.89 1205.45 1551.69 1201.51 C 1563.45 1184.98 1571.01 1163.42 1579.15 1145.01 C 1583.42 1135.36 1591.96 1124.15 1598.22 1115.63 C 1598.12 1113.4 1598.33 1114.5 1596.99 1112.44 C 1601.98 1104.36 1621.52 1068.72 1629.46 1067.69 L 1631.66 1070.82 L 1633.28 1070.42 C 1634.05 1068.16 1634.21 1067.58 1635.37 1065.52 C 1636.54 1068.49 1636.59 1068.85 1638.45 1071.58 C 1639.31 1069.04 1637.61 1065.2 1636.71 1062.39 z" fill="rgb(0,0,0)" transform="translate(0,0)"></path>
<path d="M 954.239 815.439 C 956.554 815.801 956.317 815.823 958.546 816.645 L 958.952 819.997 C 961.155 821.794 959.879 821.357 962.638 821.753 L 962.481 817.999 C 963.84 818.091 968.846 824.188 972.002 826.414 L 973.061 825.897 L 972.378 823.267 C 975.312 822.269 973.836 822.391 976.976 823.032 L 976.472 825.749 L 977.545 826.799 C 982.229 825.468 985.101 824.448 990.007 824.099 C 989.682 827.055 989.238 828.785 990.111 831.643 L 991.173 831.302 C 991.582 827.848 991.13 828.756 992.57 825.823 C 1003.19 826.326 1002.96 832.333 1010.96 830.566 L 1012.04 831.551 C 1011.01 833.742 1010.82 833.91 1009.27 835.727 L 1011.24 835.484 C 1012.93 833.551 1014.04 832.14 1015.57 830.12 C 1019.22 830.062 1017.99 829.422 1020.55 830.947 C 1019.52 832.649 1018.87 833.872 1017.99 835.652 L 1018.41 836.869 C 1020.45 834.43 1020.8 833.082 1023.29 832.404 L 1024.06 834.047 L 1022.94 835.959 L 1023.66 836.996 L 1026.71 834.419 L 1028.13 835.434 C 1027.89 837.906 1027.8 837.031 1028.38 839.46 C 1033.46 839.356 1041.74 838.189 1044.65 842.766 C 1043.29 845.125 1043.48 844.136 1043.37 846.662 L 1044.63 847.225 L 1046.15 844.952 L 1047.59 845.265 C 1048.05 848.353 1047.95 848.603 1049.22 851.393 C 1051.36 847.291 1049.32 848.354 1053.22 845.916 L 1054.45 846.217 C 1057.34 849.178 1055.89 851.169 1058.02 853.673 L 1061.49 851.801 L 1063.32 852.681 C 1065.03 858.041 1062.58 852.553 1062.08 857.787 L 1065.48 857.837 C 1068.95 862.672 1069.79 867.285 1072.23 872.715 C 1074.46 872.097 1073.6 872.057 1075.76 872.556 L 1076.36 876.103 C 1090.03 885.903 1085.85 876.984 1095.06 894.388 C 1071.31 921.933 1043.66 945.85 1012.98 965.38 C 1006.75 969.278 999.03 972.034 993.049 975.894 C 977.772 985.755 961.904 994.13 946.394 1003.57 C 941.566 1006.51 937.833 1010.17 932.569 1012.16 L 931.017 1011.61 C 929.601 1015.56 918.308 1017.46 914.163 1015.61 C 907.932 1005.24 898.026 1005.23 887.589 1001.29 C 863.03 992.011 852.812 981.353 842.314 957.748 C 839.746 951.973 828.746 940.505 825.4 932.848 L 828.052 930.711 L 827.78 928.932 C 825.968 928.114 823.151 927.185 823.193 924.899 C 823.278 920.301 827.976 916.601 829.676 912.859 C 832.41 906.843 829.451 895.379 833.774 890.134 C 836.196 890.226 836.148 890.287 838.466 889.656 C 840.216 886.558 839.422 883.938 838.968 880.498 C 840.219 880.098 841.476 879.72 842.739 879.363 C 841.966 876.823 842.134 878.09 842.174 875.568 C 847.07 872.877 851.859 877.075 857.276 873.178 C 854.423 872.79 851.574 872.369 848.73 871.915 L 847.692 870.42 L 848.899 868.83 C 851.532 870.075 850.508 869.865 853.339 870.093 C 855.135 868.203 855.069 868.125 857.326 866.891 C 860.11 868.215 859.124 868.093 862.013 868.335 C 862.218 858.993 860.184 854.786 871.917 855.627 L 872.831 854.291 L 870.111 850.474 C 873.283 849.716 874.127 850.651 877.78 851.753 L 878.093 850.43 C 876.169 849.072 875.653 848.643 873.955 847.009 L 875.054 845.136 C 879.271 844.366 877.078 845.684 882.494 847.381 C 881.567 844.462 881.433 844.503 880.003 841.779 C 880.982 837.411 885.337 834.991 888.729 831.744 C 890.901 829.665 892.281 830.544 895.41 831.01 C 898.761 827.304 900.647 822.702 906.046 822.799 L 905.905 826.452 C 911.344 825.368 915.94 815.566 923.766 817.506 C 924.968 820.717 925.247 822.018 927.434 824.737 L 929.055 824.524 C 928.406 822.477 928.39 822.495 928.316 820.355 L 929.85 820.22 L 933.552 824.147 L 934.717 823.926 L 933.665 821.043 L 934.958 820.145 C 935.575 821.485 935.99 822.485 936.533 823.841 C 942.558 823.342 936.353 822.224 941.395 821.364 L 941.347 824.8 C 944.641 823.805 944.828 819.321 949.553 816.99 C 949.491 818.935 949.24 820.551 948.999 822.473 L 950.153 822.361 L 954.239 815.439 z" fill="rgb(0,0,0)" transform="translate(0,0)"></path>
<path d="M 938.805 867.014 C 939.356 867.059 940.44 867.936 941.032 868.329 C 941.644 868.047 942.718 867.497 943.325 867.55 C 951.176 868.234 958.094 865.31 964.451 870.14 C 968.329 870.101 967.47 869.8 971.341 867.212 C 971.194 870.172 970.747 871.285 972.331 873.689 L 974.386 873.741 C 973.928 871.352 973.916 872.224 974.408 869.779 L 976.175 869.318 C 976.995 871.079 977.479 872.11 978.484 873.766 C 979.925 872.532 980.215 872.001 981.276 870.434 C 984.565 871.518 983.85 871.851 986.295 875.61 C 989.164 877.104 988.115 877.3 990.178 876.674 C 989.244 873.882 989.072 873.492 988.722 870.6 C 994.032 866.925 996.039 871.755 997.301 875.649 C 1000.65 878.507 1002.29 875.237 1003.86 875.835 C 1013.78 879.616 1027.79 890.893 1037.37 893.441 C 1037.99 894.732 1038.16 894.453 1037.73 895.758 C 1033.43 908.852 973.785 939.53 960.146 948.311 C 957.838 949.796 958.95 948.183 956.999 947.923 C 955.639 947.742 950.605 949.744 948.615 949.985 L 947.599 951.641 C 940.551 951.608 930.295 957.55 920.122 956.933 C 910.101 956.326 907.16 955.086 897.831 951.101 C 896.862 951.359 895.894 951.618 894.926 951.877 C 892.818 949.181 890.958 946.413 889.015 943.6 C 885.885 944.157 886.992 944.393 884.252 943.525 L 885.687 940.637 C 882.879 938.079 880.327 936.181 877.299 933.877 C 880.881 926.885 871.813 926.95 870.003 920.157 C 868.909 916.052 869.989 910.106 869.698 905.792 C 869.512 903.041 865.169 899.781 863.147 897.839 C 862.929 895.055 862.763 896.384 864.078 893.885 C 868.005 894.004 869.711 896.415 874.207 898.627 C 875.727 894.043 870.331 893.414 871.018 887.232 C 875.001 879.176 889.044 877.779 896.798 875.616 C 897.186 874.605 897.573 873.595 897.961 872.585 C 903.359 871.638 912.023 876.544 914.785 869.722 C 915.202 868.693 921.101 871.912 924.266 869.971 L 923.362 867.308 C 928.56 867.095 925.37 869.892 930.1 870.497 L 930.07 867.638 C 933.972 865.642 932.062 869.057 938.805 867.014 z" fill="rgb(254,254,254)" transform="translate(0,0)"></path>
<path d="M 1113.25 794.717 C 1115.76 796.952 1122.74 801.663 1125.98 802.115 C 1134.13 797.198 1134.95 800.857 1141.55 796.792 C 1146.71 798.901 1144.61 796.362 1149.58 800.31 C 1152.04 799.812 1150.87 799.906 1153.09 799.933 L 1153.05 803.196 C 1157.35 804.844 1159.06 801.045 1164.07 801.268 L 1165.45 803.462 C 1169.12 804.084 1167.3 804.227 1171.01 802.546 L 1171.7 803.675 C 1170.56 804.651 1169.4 805.531 1168.14 806.349 C 1170.95 805.045 1173.79 803.777 1176.52 802.303 C 1182.8 806.353 1179.58 802.075 1183.76 800.963 L 1184.21 802.446 L 1185.96 802.739 L 1190.24 799.412 L 1192 799.812 L 1192.6 801.185 L 1189.08 805.544 L 1189.55 806.78 C 1192.69 805.757 1193.22 805.996 1195.55 803.905 C 1194.04 800.94 1194.13 802.125 1194.21 799.132 L 1195.95 798.861 C 1197.55 801.707 1197.09 805.163 1197.13 808.722 C 1198.84 807.828 1199.22 807.282 1200.6 805.926 L 1202.8 806.606 L 1204.24 805.608 C 1204.8 802.399 1204.32 803.407 1205.88 800.708 C 1209.94 802.503 1205.82 806.729 1210.1 811.03 C 1212.16 809.372 1211.26 809.73 1213.69 809.07 C 1215.53 811.174 1217.06 812.826 1219.01 814.823 C 1221.99 813.122 1217.94 807.748 1221.56 803.277 L 1224.11 803.43 L 1225.02 804.625 L 1221.56 807.352 L 1222.46 809.066 C 1225.83 808.211 1225.79 807.258 1228.7 804.294 L 1229.72 804.587 C 1229.47 806.63 1229.19 808.42 1228.84 810.449 L 1230.27 812.431 C 1233.21 811.779 1231.34 810.147 1234.54 805.942 L 1235.55 806.569 C 1234.36 809.694 1234.33 808.481 1234.78 811.461 L 1236.43 811.71 L 1238.06 809.231 C 1243.25 810.865 1244.93 817.052 1250.22 817.578 L 1251.53 816.334 C 1252.05 813.191 1252.09 810.53 1254.02 808.113 C 1257.02 808.048 1255.88 807.494 1257.85 809.038 C 1254.6 812.275 1254.6 813.379 1253.16 817.944 L 1254.01 818.233 C 1254.82 815.441 1254.63 815.216 1256.49 813.071 C 1263.43 814.431 1256.65 814.913 1261.92 816.982 C 1264.38 814.688 1263.39 815.191 1266.33 813.914 L 1268.18 815.677 L 1269.67 814.945 C 1270.37 812.231 1270.58 809.994 1272.51 808.077 C 1278.01 808.597 1282.96 814.524 1286.65 818.492 C 1291.08 815.764 1285.13 815.802 1290.97 813.779 L 1294.57 817.022 L 1295.64 816.811 L 1296.18 812.136 L 1297.72 811.397 L 1299.02 812.306 L 1298.28 815.204 L 1299.45 816.484 C 1302.65 815.392 1301.15 816.283 1303.46 812.692 C 1305.77 813.746 1307.25 814.568 1309.44 815.795 C 1309.04 812.759 1308.63 812.65 1309.46 810.034 C 1314.12 818.65 1322.67 817.275 1323.16 823.524 C 1321.47 825.02 1320.94 825.552 1319.48 827.269 L 1320.42 827.674 C 1322.41 826.147 1321.54 826.478 1323.9 825.97 L 1324.06 828.457 C 1317.71 840.51 1325.42 833.106 1327.26 840.585 C 1324.88 842.099 1325.43 841.358 1323.96 843.502 C 1326.32 844.474 1325.17 843.893 1327.41 845.259 L 1327.37 846.854 L 1325.72 847.41 C 1325.57 849.686 1327.79 852.795 1326.95 854.268 C 1324.94 857.396 1320.93 859.678 1318.24 862.331 C 1309.65 870.806 1309.88 884.225 1294.98 878.285 C 1290.68 881.263 1293.13 883.729 1289.16 886.77 C 1288.05 884.981 1288.05 884.965 1286.52 883.527 C 1283.84 884.707 1282.23 885.068 1280.6 887.474 L 1284.01 888.446 L 1284.08 889.561 C 1278.46 892.126 1278.73 887.688 1274.18 889.677 C 1268.95 891.968 1265.66 894.905 1259.97 897.004 C 1257.45 896.72 1256.93 896.535 1254.39 896.772 C 1249.4 898.226 1243.31 897.458 1236.53 899.97 L 1236.7 902.971 C 1234.84 905.195 1236.01 904.365 1232.71 904.874 C 1233.68 902.131 1233.81 903.286 1233.37 900.859 C 1225.94 901.684 1232.87 901.306 1227.06 904.793 C 1224.14 904.218 1220.52 903.242 1217.81 904.52 C 1200 912.929 1180.98 917.813 1162.84 925.3 C 1161 926.058 1153.18 932.781 1151.24 934.367 C 1149.17 933.343 1149.93 933.537 1147.46 933.633 L 1145.29 936.171 C 1145.06 937.362 1144.81 938.68 1145.59 939.681 C 1150.52 946.033 1141.43 957.556 1143.99 964.897 C 1147.23 964.08 1145.82 963.8 1148.47 964.793 C 1149.32 970.613 1146.68 977.114 1148.56 981.387 L 1145.4 983.028 L 1145.57 984.321 L 1148.78 985.235 L 1148.85 986.849 C 1146.42 988.259 1147.13 987.526 1145.5 989.675 C 1148.5 991.656 1147.85 990.401 1148.77 993.048 C 1146.4 999.622 1147.35 992.922 1143.85 998.124 L 1146.55 998.467 L 1146.69 999.926 C 1142.02 1006.75 1133.11 1016.71 1123.69 1016.05 C 1120.75 1015.85 1119.87 1013.65 1118.26 1011.5 C 1114.2 1010.66 1113.61 1011.08 1111.74 1008.35 C 1111.81 1005.38 1112.28 1005.72 1111.13 1003.49 L 1108.77 1004.6 C 1100.65 999.144 1104.41 978.843 1105.5 970.365 C 1103.03 968.644 1103.76 969.463 1102.12 966.989 L 1107.53 956.779 C 1106.45 954.937 1106.78 955.448 1105.9 954.128 L 1105.36 953.32 L 1108.19 950.977 C 1106.91 949.763 1107.49 950.231 1105.98 949.159 L 1104.87 948.393 L 1103.97 945.021 C 1101.34 934.916 1097.57 936.532 1097.49 928.333 C 1098.83 927.415 1099.67 926.868 1101.11 926.055 L 1102.3 925.391 C 1101.54 922.642 1099.24 921.151 1096.89 918.773 C 1096.51 915.5 1098.38 913.85 1100.44 910.454 C 1101.3 910.671 1102.17 910.889 1103.04 911.106 L 1103.54 889.291 C 1102.34 887.035 1102.27 887.195 1100.34 885.509 C 1101.1 880.522 1101.51 883.164 1104.63 878.167 C 1102.54 877.494 1102.18 877.578 1099.98 877.532 C 1093.7 869.918 1109.64 859.902 1094.3 854.372 C 1090.51 853.004 1091.75 837.097 1089.56 833.449 C 1088.87 832.308 1087.94 829.82 1087.45 828.618 C 1089.28 825.867 1089.48 825.756 1090.57 822.505 L 1086.99 822.925 C 1085.78 820.4 1085 819.158 1084.58 816.346 C 1086.75 814.175 1090.05 809.361 1092.24 806.52 C 1096.71 800.71 1112.2 800.927 1113.7 800.056 L 1113.25 794.717 z" fill="rgb(0,0,0)" transform="translate(0,0)"></path>
<path d="M 1169.79 834.719 L 1172.95 837.106 C 1176.4 837.695 1176.97 837.281 1180.23 836.167 L 1181.21 835.82 C 1184.8 838.581 1185.77 839.946 1189.68 839.804 C 1191.42 837.415 1191.58 836.747 1194.21 835.406 L 1195.81 835.941 L 1195.9 837.963 C 1194.55 839.925 1194.61 839.245 1194.29 841.348 C 1210.07 834.741 1199.47 841.377 1207.23 839.803 L 1208.33 836.43 C 1211.75 836.967 1212.9 840.02 1217.37 840.265 L 1218.87 836.971 L 1220.48 836.604 L 1221.2 840.377 L 1222.54 840.787 L 1223.87 839.937 C 1224.03 836.977 1223.66 837.919 1224.84 835.396 L 1226.78 835.814 L 1226.91 840.063 C 1231.95 843.721 1236.45 842.268 1242.51 841.403 L 1242.85 844.25 C 1249.06 847.415 1257.67 842.866 1266.01 842.738 L 1267.05 845.975 L 1268.81 845.889 L 1270.27 842.516 L 1271.74 842.305 L 1272.28 844.126 C 1271.41 847.431 1271.6 847.799 1269.17 850.279 C 1267.92 849.589 1266.85 849.024 1265.59 848.381 C 1262.34 851.865 1266.37 848.173 1265.82 853.987 C 1263.79 854.204 1264.79 854.198 1262.62 853.215 C 1261.72 854.588 1261.44 855.252 1260.89 856.764 C 1259.56 855.726 1258.76 855.056 1257.52 853.959 L 1256.39 854.585 L 1256.97 858.421 L 1255.35 860.303 C 1253.29 858.956 1254.35 859.324 1252.25 858.995 C 1251.98 861.682 1252.37 860.757 1251.01 862.963 C 1248.87 861.951 1250.01 862.222 1247.6 862.175 L 1246.73 865.435 L 1244.94 866.073 C 1243.12 864.68 1243.71 865.027 1241.52 864.054 L 1240.52 865.263 L 1241.77 869.419 L 1240.67 870.086 L 1237 868.935 L 1236.04 867.634 C 1230.61 870.806 1234.13 869.875 1229.75 874.403 L 1228.07 872.915 C 1222.87 871.171 1213.92 873.222 1214.8 880.355 L 1213.69 880.756 L 1203.71 875.986 C 1198.78 877.275 1197.98 881.24 1193.71 882.556 C 1187.81 884.371 1171.06 887.064 1166.57 890.475 C 1166.83 892.919 1166.91 892.832 1166.31 895.184 C 1164.46 895.501 1164.63 895.639 1163.14 895.067 C 1152.76 891.084 1153.58 896.166 1149.1 896.496 C 1147.37 893.069 1146.83 885.747 1146.3 881.627 C 1144.3 880.096 1144.67 880.51 1143.05 878.59 L 1145.67 877.764 L 1146.51 876.11 C 1145.82 870.815 1144.25 859.762 1141.44 855.414 C 1138.04 855.677 1138.79 856.128 1136.04 854.983 L 1135.9 852.977 L 1138.52 849.985 C 1135.91 836.385 1162.99 839.82 1169.79 834.719 z" fill="rgb(254,254,254)" transform="translate(0,0)"></path>
<path d="M 1537.11 784.243 C 1550.51 790.001 1578.76 834.99 1587.43 849.275 C 1585.77 850.846 1586.24 850.16 1585.32 852.297 C 1592.53 863.215 1600.55 873.576 1609.31 883.293 L 1607.94 885.948 C 1616.58 896.43 1623.13 906.518 1631.22 917.087 C 1635.09 922.138 1645.3 931.178 1650.35 935.797 C 1647.48 938.898 1643.88 940.759 1642.61 943.29 L 1643.14 944.805 L 1645.88 943.585 C 1647.31 947.501 1646.39 946.539 1645.49 951.581 C 1646.79 951.512 1647.87 951.273 1649.12 950.934 L 1650.13 952.377 L 1648.66 955.467 C 1657.48 965.939 1663.96 970.914 1668.73 983.855 C 1667.65 993.785 1665.13 1006.02 1660.67 1015.06 C 1658.5 1019.44 1651.48 1024.89 1646.96 1021.16 C 1648.76 1019.45 1649.51 1018.68 1651.08 1016.77 C 1647.94 1014.54 1645.48 1017.08 1644.86 1016.37 C 1636.88 1007.13 1623.05 986.573 1617.54 977.069 C 1612.62 968.575 1606.34 951.796 1601.69 948.262 C 1597.63 948.011 1593.6 948.16 1590.37 946.147 C 1585.58 943.151 1585.36 943.553 1580.81 944.85 C 1578.19 945.598 1581.47 942.932 1576.32 943.204 L 1576.75 947.092 C 1572.23 946.503 1576.97 946.077 1573.36 944.516 L 1572.05 947.368 L 1570.7 947.128 C 1570.05 944.924 1569.66 943.157 1569.42 940.872 C 1568.18 944.146 1568.31 944.229 1568.14 947.578 C 1560.7 947.836 1559.56 944.194 1554.98 944.081 C 1548.09 943.911 1543.25 946.239 1535.41 944.956 C 1532.79 943.574 1532.59 942.787 1531.1 940.243 L 1530.63 939.419 L 1529.85 943.013 C 1525.11 946.585 1520.76 944.779 1515.73 944.566 C 1507.64 944.224 1496.99 947.971 1488.87 948.716 C 1481.3 949.411 1466.97 946.196 1460.23 949.168 C 1453.29 952.23 1450.14 959.776 1443.76 964.972 C 1440.09 964.346 1439.43 964.317 1435.69 964.321 C 1433.64 966.593 1434.58 966.145 1432.01 967.182 L 1429.78 965.895 L 1429.91 962.905 L 1428.69 961.629 L 1426.1 963.376 L 1424.46 962.722 C 1423.6 959.165 1424.97 957.058 1426.18 953.12 C 1424.13 946.643 1425.43 953.402 1421.2 949.405 C 1425.06 944.521 1428.6 940.4 1431.67 934.956 C 1427.25 928.526 1435.6 924.977 1434.36 918.621 C 1431.77 918.428 1432.99 918.658 1430.71 917.999 L 1430.85 916.591 L 1435.62 913.68 C 1435.52 910.12 1435.51 903.526 1439.14 901.808 L 1443.33 905.408 L 1445.04 904.995 C 1450.8 884.448 1459.29 892.251 1467.27 876.184 L 1464.41 875.276 C 1464.18 873.239 1472.28 865.105 1474.71 861.813 C 1472.99 857.225 1473.35 857.115 1477.17 856.155 C 1477.78 856.001 1483 847.548 1483.62 846.474 L 1482.26 844.443 C 1484.85 843.698 1488.97 843.003 1490.2 840.711 L 1487.25 838.931 L 1487.37 837.357 L 1494.94 831.416 C 1501.03 815.85 1480.52 815.609 1499.86 791.717 C 1500.97 792.026 1502.07 792.346 1503.17 792.677 C 1513.8 795.927 1508.03 801.463 1515.91 803.355 C 1517.37 801.228 1517.75 800.107 1520.07 799.106 L 1522.38 800.715 C 1526.26 799.003 1526.12 795.355 1531.09 792.013 L 1532.23 793.522 L 1533.25 793.57 L 1537.11 784.243 z" fill="rgb(0,0,0)" transform="translate(0,0)"></path>
<path d="M 1522.58 842.186 C 1527.14 843.045 1532.52 843.928 1535.35 847.499 C 1534.98 850.133 1534.85 851.247 1534.82 853.895 C 1539.74 856.348 1540.55 857.259 1542.38 862.342 L 1540.93 864.755 C 1544.4 868.457 1571.12 900.209 1572.14 903.276 L 1571.28 904.888 C 1563.39 905.535 1557.59 898.355 1550.08 902.695 L 1550.77 903.59 C 1561.19 904.059 1553.91 905.098 1559.05 909.408 L 1563.33 908.55 C 1559.46 909.757 1559.56 909.865 1555.59 909.683 C 1553.22 907.97 1551.13 906.62 1548.68 905.065 C 1543.88 893.175 1541.11 903.551 1533.08 902.153 C 1531.49 900.34 1531.52 900.039 1530.54 897.79 L 1529.43 899.239 L 1527.82 899.824 L 1527.73 901.048 L 1527.01 898.647 C 1526.32 897.965 1525.62 897.284 1524.93 896.603 C 1519.4 896.348 1510.29 905.676 1506.85 899.321 C 1506.9 899.411 1486.22 898.944 1485.64 899.166 L 1485.81 901.445 C 1483.73 899.791 1481.78 898.566 1481.22 896.259 C 1486.19 891.829 1486.87 887.652 1492.17 882.871 L 1493.36 883.057 L 1492.88 888.469 L 1493.76 888.804 C 1496.89 882.513 1492.71 883.249 1495.46 878.302 L 1496.67 878.917 C 1508.43 875.791 1501.11 868.763 1503.22 865.447 L 1505.37 866.883 C 1508.17 863.335 1504.27 866.24 1506.89 860.675 C 1518.37 857.432 1517.59 851.867 1522.58 842.186 z" fill="rgb(254,254,254)" transform="translate(0,0)"></path>
<path d="M 560.15 791.727 C 569.974 796.153 570.481 812.163 572.441 821.286 C 573.037 824.06 577.034 827.809 577.021 831.83 C 574.725 832.19 575.62 831.719 574.184 832.911 C 574.538 841.138 576.508 843.877 570.544 849.438 C 571.006 853.026 576.157 867.016 577.609 871.202 L 582.21 873.201 L 582.996 875.394 C 581.564 877.138 581.353 877.402 580.284 879.378 C 581.105 879.911 581.922 880.448 582.736 880.991 C 582.17 883.625 581.465 885.209 582.601 887.581 L 585.016 886.992 C 587.304 889.656 583.787 892.014 585.928 896.234 L 588.666 896.537 C 590.884 898.937 590.037 897.522 590.663 901.238 C 585.107 906.7 589.69 907.173 590.695 914.377 C 590.761 914.851 584.579 920.802 583.879 924.362 L 586.496 926.248 C 587.635 929.917 587.608 928.159 586.886 931.705 C 584.685 934.022 584.085 934.335 582.809 937.296 L 584.317 938.186 L 584.424 939.386 C 548.939 959.344 509.976 970.839 474.466 990.933 C 471.386 992.676 464.458 994.107 460.86 995.415 C 451.476 998.827 447.382 1008.99 436.234 1009.13 C 429.2 1009.56 416.897 1012.86 411.055 1007.36 L 412.622 1004.85 L 411.511 1004.06 C 409.28 1004.25 405.104 1004.62 403.779 1003.28 C 400.122 999.593 384.233 969.391 383.324 966.305 C 385.812 965.118 385.071 965.77 386.646 963.49 L 385.712 959.582 C 382.018 956.834 385.672 960.294 381.362 960.43 C 380.885 956.332 381.61 945.576 382.813 941.79 L 385.312 941.731 C 386.031 939.836 382.632 933.124 381.564 930.511 L 379.184 930.624 L 378.566 929.118 L 379.602 927.732 C 382.194 927.227 382.637 927.328 384.894 926.052 C 384.371 922.089 384.268 920.584 384.306 916.589 C 386.935 913.166 388.579 911.762 388.481 907.677 C 386.441 906.776 386.145 906.679 384.352 905.386 C 385.159 904.427 385.965 903.467 386.771 902.507 C 385.35 901.125 383.922 899.751 382.486 898.383 C 382.721 894.848 382.985 891.316 383.278 887.785 L 380.807 885.398 C 384.243 875.001 389.066 872.107 390.84 864.265 C 391.059 863.295 387.314 861.343 387.131 856.527 C 389.526 855.851 388.765 856.289 390.724 854.867 C 385.705 850.492 392.791 850.9 391.63 844.455 L 388.236 845.409 L 387.032 844.189 C 386.759 840.978 386.396 840.476 387.906 837.64 C 398.194 832.478 389.207 832.599 391.311 823.776 C 392.761 824.21 394.025 824.74 395.384 825.392 C 398.707 820.886 396.425 811.913 401.541 808.743 C 406.339 805.769 430.722 793.324 435.04 793.723 C 436.116 795.325 437.153 796.954 438.149 798.607 C 438.42 795.756 438.118 795.295 439.78 793.102 C 450.875 797.704 440.509 822.454 438.737 832.582 C 437.298 834.04 437.596 833.634 436.476 835.401 L 438.571 836.875 C 440.247 840.77 428.309 856.92 428.193 861.216 C 427.646 884.357 424.648 906.246 422.613 929.017 C 421.666 939.616 425.465 950.454 432.917 958.125 C 443.927 961.474 524.698 915.769 539.681 909.723 L 541.112 909.156 C 542.602 907.112 543.44 905.24 544.566 902.995 C 543.483 897.996 541.175 893.12 539.092 888.455 C 532.217 873.058 541.641 822.737 534.787 810.713 C 534.645 810.464 534.48 810.23 534.326 809.988 C 537.649 797.49 552.82 797.742 560.15 791.727 z" fill="rgb(0,0,0)" transform="translate(0,0)"></path>
<path d="M 830.597 784.336 L 833.951 785.907 C 835.537 788.506 836.017 789.781 838.596 791.441 C 841.167 790.239 841.56 790.242 844.313 789.443 C 842.582 787.566 843.27 788.535 842.162 786.6 L 843.775 786.17 C 845.569 787.083 846.62 787.643 848.345 788.731 L 849.688 789.597 L 853.436 787.233 L 855.289 788.525 C 852.016 790.678 852.504 789.421 851.78 792.075 C 854.65 793.646 853.193 793.371 856.234 793.229 C 859.127 791.164 858.246 791.687 859.724 787.692 C 861.536 788.214 863.456 792.961 865.333 795.724 C 868.564 792.147 868.571 791.935 873.063 792.312 C 876.034 796.451 875.113 796.196 879.008 797.013 L 881.028 795.281 C 885.244 794.703 891.357 797.966 892.937 802.072 C 889.811 806.003 891.236 799.942 889.317 802.335 C 879.14 815.032 866.563 826.003 850.955 831.343 C 842.774 834.141 839.841 832.228 831.827 829.346 C 828.693 831.8 828.068 832.359 824.53 834.039 C 823.69 833.179 822.849 832.318 822.009 831.458 C 815.328 831.874 807.348 834.723 800.782 833.292 C 796.629 832.387 798.375 829.712 794.612 828.239 C 793.576 831.03 793.752 831.613 791.48 833.342 C 788.309 833.169 789.224 833.109 786.218 830.346 C 778.487 830.143 764.863 830.87 756.624 831.639 C 755.482 831.746 753.622 836.041 749.349 836.799 L 746.86 834.198 L 745.72 835.219 C 741.18 847.653 748.1 880.775 748.453 897.046 L 748.47 898.376 C 749.824 899.28 749.273 898.968 750.69 899.7 L 751.671 900.196 C 751.82 902.335 751.283 911.92 750.734 914.291 C 748.672 923.206 751.226 940.333 745.686 946.949 C 750.43 958.899 748.111 971.04 748.007 983.607 C 747.943 991.383 747.895 989.896 751.973 997.037 C 753.206 999.197 752.785 999.06 752.022 1001.16 C 750.156 1001.93 749.18 1002.37 747.41 1003.34 C 748.45 1006.27 749.129 1008.53 749.953 1011.53 C 746.402 1013.3 733.423 1016.85 729.69 1016.27 L 729.625 1014.06 C 727.19 1010.45 714.091 1017.11 710.171 1014.44 C 708.776 1010.61 707.679 995.448 708.926 991.97 C 713.335 979.68 706.215 974.245 704.973 962.389 C 704.833 961.054 709.718 954.957 710.403 951.63 C 709.341 949.983 708.211 948.448 706.955 946.943 C 707.46 946.299 707.987 945.199 708.399 944.439 C 706.201 941.701 705.139 937.341 704.61 933.926 C 710.805 929.206 705.042 932.001 705 924.524 L 708.552 924.821 L 709.447 923.661 C 706.931 919.503 702.038 911.145 704.532 906.356 L 707.515 906.298 C 708.757 901.165 706.25 907.509 703.952 901.731 L 705.898 897.901 C 703.401 896.125 703.491 896.23 701.674 893.769 C 701.172 890.483 702.166 888.835 703.326 885.658 L 703.821 884.325 C 703.11 880.899 703.856 882.349 701.571 879.776 C 700.974 879.632 699.585 880.433 698.795 880.774 C 690.918 868.924 710.303 855.214 706.846 849.048 C 704.82 849.756 704.337 849.937 702.233 850.28 L 702.141 848.022 C 703.473 845.666 704.632 844.264 704.527 841.6 L 703.002 841.188 L 700.845 844.375 C 693.64 844.651 682.946 843.927 675.505 843.649 C 670.143 852.096 659.746 850.619 649.623 852.148 L 649.351 852.407 C 624.112 854.672 621.243 845.357 606.881 827.833 L 608.224 825.317 L 606.402 822.121 C 606.708 820.183 607.144 818.456 608.916 817.24 C 613.552 814.06 611.089 810.055 614.872 806.472 C 616.118 808.535 615.423 808.013 617.304 809.133 C 621.442 803.079 623.236 804.636 629.422 806.7 C 636.882 805.16 629.861 806.374 634.851 801.787 C 640.612 802.525 638.035 804.486 642.963 805.782 C 644.151 804.334 645.168 802.978 646.286 801.474 L 648.143 801.618 L 649.899 804.665 C 656.544 801.37 670.052 800.737 677.875 799.552 C 678.559 799.448 678.804 803.13 681.224 801.982 C 685.169 800.11 690.326 796.602 694.511 796.112 C 695.48 795.999 695.014 798.882 700.491 800.119 L 701.176 799.163 L 699.383 797.234 C 703.831 797.218 710.771 798.32 715.206 797.673 C 716.434 797.493 718.302 793.395 721.676 793.441 C 721.804 795.823 721.633 794.728 722.104 796.736 C 725.096 797.719 731.038 798.44 733.52 796.548 C 731.371 794.554 731.76 795.301 730.458 792.858 L 732.552 792.534 C 732.837 792.745 733.121 792.957 733.406 793.168 C 736.742 796.562 740.668 792.296 746.196 792.188 C 750.506 792.104 758.509 796.306 761.593 795.45 C 768.035 793.66 769.817 790.913 777.467 789.688 C 781.68 790.338 782.536 792.98 786.457 794.785 L 787.573 793.796 L 786.379 790.834 L 787.048 789.887 L 790.624 791.812 C 793.304 791.581 792.07 791.735 794.789 789.058 L 796.604 789.446 C 798.239 791.888 799.092 793.791 801.7 795.031 C 806.587 785.513 812.897 794.662 820.673 792.459 L 820.594 789.023 L 821.917 787.67 L 823.466 787.758 L 824.487 791.53 C 825.462 791.405 827.178 789.481 828.125 788.612 L 832.497 788.95 L 830.597 784.336 z" fill="rgb(0,0,0)" transform="translate(0,0)"></path>
<path d="M 1389.36 785.791 C 1390.11 786.637 1389.65 786.031 1390.42 787.812 L 1387.4 790.065 L 1387.6 791.727 L 1390.26 790.4 L 1391.77 791.297 C 1397.09 801.086 1393.41 795.627 1392.08 800.816 L 1394.76 802.974 L 1394.61 804.729 C 1392.21 806.332 1392.72 805.502 1391.5 807.761 L 1395.66 808.375 C 1399.22 813.607 1394.67 808.192 1396.04 813.684 L 1398.72 813.195 C 1400.84 815.5 1400.51 819.268 1400.46 822.475 L 1398.41 824.458 C 1398.17 826.876 1397.96 825.666 1399.88 828.012 C 1397.9 830.024 1397.95 829.801 1395.39 831.03 L 1395.69 832.471 C 1398.29 832.147 1396.97 832.208 1399.65 832.304 C 1401.65 839.706 1396.54 838.152 1395.44 843.412 L 1397.72 845.346 L 1397.59 847.108 L 1394.33 849.444 L 1394.26 851.096 C 1397.53 850.794 1396.14 850.377 1398.85 851.544 C 1400.07 856.527 1397.46 860.67 1396.35 867.435 L 1398.87 868.52 C 1398.95 871.526 1398.26 871.16 1395.57 874.213 L 1395.72 875.278 C 1398.16 876.283 1399.6 876.519 1401.15 878.573 C 1400.7 887.41 1395.09 893.556 1395.27 896.883 C 1395.83 906.732 1397.04 916.205 1396.58 926.329 C 1394.8 928.299 1395.66 927.293 1393.99 929.348 C 1396.35 931.308 1395.78 930.374 1397.04 932.945 L 1394.2 935.549 L 1394.6 937.133 L 1396.97 936.435 L 1397.89 937.981 C 1396.12 939.952 1396.96 938.952 1395.35 940.977 L 1396.2 941.885 C 1404.08 950.375 1394.03 948.894 1393.72 957.474 C 1398.82 964.756 1397.82 964.901 1395.49 973.487 C 1393.81 979.674 1395.36 986.772 1396.22 993.172 C 1394.13 998.343 1377.21 1013.48 1370.54 1011.05 C 1365.86 1009.35 1365.69 1006.65 1364.37 1002.8 C 1362.15 995.098 1361.31 995.827 1367.14 991.411 L 1366.75 988.999 L 1365.32 988.073 L 1361.42 989.191 L 1360.46 987.933 C 1363.18 985.765 1362.85 986.808 1363.89 984.201 C 1362.66 983.355 1361.95 982.911 1360.63 982.153 L 1359.39 981.453 C 1358 974.034 1362.18 978.724 1365.15 974.013 L 1364.61 972.16 L 1360.32 970.529 C 1360.63 964.774 1361.28 970.743 1364.62 965.492 C 1363.01 955.104 1352.65 954.322 1358.98 940.581 L 1361.74 939.617 C 1361.53 934.823 1355.98 934.217 1355.89 926.764 C 1357.6 923.875 1358.33 922.989 1359.05 919.644 L 1356.95 917.133 L 1357.63 915.902 L 1360.52 917.443 L 1361.25 916.319 C 1357.18 911.961 1351.26 901.106 1355.16 895.701 L 1358.15 897.949 C 1359.77 893.494 1355.2 886.844 1356.76 881.75 L 1360.16 880.172 L 1360.39 878.955 C 1358.26 877.398 1357.62 877.294 1356.45 875.015 L 1358.36 871.919 C 1357.31 868.663 1355.95 865.641 1354.62 862.495 C 1355.31 861.275 1355.65 860.699 1356.48 859.533 L 1357.16 858.594 L 1354.34 857.737 L 1354.2 855.974 C 1355.93 854.186 1356.85 854.196 1359.24 853.66 L 1359.56 851.504 L 1356.93 849.054 C 1355.72 842.143 1361.13 841.521 1355.93 835.445 C 1362.09 826.635 1353.95 815.959 1354.81 805.11 C 1358.03 804.865 1358.07 804.235 1360.98 803.133 L 1362.67 804.759 C 1365.28 802.315 1365.21 802.102 1366.79 799.028 L 1365.67 797.936 C 1363.78 799.904 1364.6 799.377 1362.2 800.538 L 1361.26 799.389 L 1362.33 797.521 C 1365.84 796.074 1367.93 796.842 1371.71 797.542 L 1373.4 797.863 C 1376.65 787.819 1380.89 790.972 1389.36 785.791 z" fill="rgb(0,0,0)" transform="translate(0,0)"></path>
<metadata><recraft-signature>{"signed_by": "recraft", "signature_b64": "0VOm9qmLxMqmHmlLkCUHQplInx7n9tsUoQ3xpASVFElgXw8h1WKv2ZhWFalhI5SOjg+iLAalf5tbVXK3NqdJDw==", "signing_algo": "Ed25519", "generation_timestamp": 1776309924, "identifier": "304e93f2-05be-4b80-9ab1-087e17ae5fab"}</recraft-signature></metadata></svg>