<svg xmlns="http://www.w3.org/2000/svg" height="1024" preserveAspectRatio="none" style="display: block;" version="1.1" viewBox="0 0 2048 2048" width="1024">
<path d="M 0 0 L 2048 0 L 2048 493.748 L 2048 2048 L 0 2048 L 0 402.255 L 0 0 z" fill="rgb(130,104,83)" transform="translate(0,0)"></path>
<path d="M 0 0 L 2048 0 L 2048 493.748 C 2046.3 496.492 2046.23 496.536 2045.26 499.594 L 2045.88 497.829 L 2044.68 497.432 C 2045.86 485.37 2045.02 454.923 2045.02 441.459 L 2045 331.195 L 2045.02 145.377 C 2045.03 112.792 2045.12 80.0858 2044.9 47.501 C 2044.89 45.6993 2044.78 43.5788 2043.27 42.5086 C 2035.83 37.2328 2020.01 38.7536 2011.2 39.4657 C 2009.62 37.8177 2009.88 37.2788 2009.2 34.7074 L 2007.54 34.2828 C 2004.82 36.4151 2002.02 39.1971 1998.53 37.2438 C 1984.8 29.556 1994.65 20.4359 1994.36 16.6321 L 1991.34 17.3638 C 1989.61 15.3289 1990.41 14.2597 1990.62 10.6127 C 1986.39 7.41895 1968.07 1.17604 1962.55 3.7207 C 1960.23 4.79148 1958.62 4.87409 1956.11 5.07242 L 1953.72 2.85619 C 1951.39 3.09101 1950.12 4.02288 1948.09 6.65567 C 1941.24 15.5629 1938.88 3.57871 1934.5 3.32536 C 1914.43 2.16332 1891.26 3.47451 1870.98 3.03592 C 1860.25 2.80409 1856.36 8.78587 1854.14 8.19882 C 1847.19 6.36745 1845.31 3.01214 1834.87 3.01526 C 1757.29 3.03847 1679.63 2.94848 1602.05 3.04205 L 1238.14 3.02023 L 3 3 C 4.01308 90.9601 2.99244 180.459 3.05634 268.562 L 3.09325 355.456 C 3.08137 361.764 3.00059 393.786 2.3028 398.898 C 1.13673 400.186 0.796062 400.758 0 402.255 L 0 0 z" fill="rgb(81,69,55)" transform="translate(0,0)"></path>
<path d="M 1310.7 810.14 C 1315.77 809.697 1316.02 812.281 1320.98 814.155 C 1331.16 817.991 1327.3 815.483 1332.46 813.098 C 1335.71 814.231 1338.07 815.369 1341.59 814.628 C 1361.14 810.833 1383.48 810.902 1403.35 812.509 C 1410.02 813.048 1422.03 821.319 1431.53 819.458 C 1436.65 818.453 1440.07 826.109 1439.15 825.661 C 1456.55 834.127 1476.22 848.657 1487.59 864.448 L 1488.7 866.008 C 1492.92 871.881 1494.16 877.1 1496.42 884.024 C 1498.79 885.465 1505.88 891.099 1504.84 894.462 C 1498.28 915.752 1484.15 937.37 1475.64 958.025 C 1467.07 978.861 1442.33 985.618 1432.75 999.749 C 1423.75 1003.26 1417.55 1005.19 1408.22 1007.79 C 1410.51 1025.74 1415.13 1043.5 1416.83 1061.83 C 1418.64 1081.29 1418.97 1101.41 1422.57 1120.49 C 1424.35 1129.87 1422.56 1147.3 1431.74 1153.1 C 1433.45 1153.04 1434.89 1153.15 1436.59 1151.93 C 1439.86 1149.59 1442.97 1146.12 1444.61 1142.43 C 1444.61 1142.42 1442.48 1137.39 1442.48 1137.38 C 1442.69 1135.67 1443.89 1131.36 1444.09 1129.82 C 1445.19 1121.43 1447.57 1121.51 1452.62 1115.36 C 1450.98 1110.45 1449.32 1112.79 1448.82 1108.22 C 1450.35 1106.81 1451.66 1105.73 1453.28 1104.42 C 1456.19 1086.58 1467.44 1056.5 1486.42 1048.09 C 1496.36 1043.7 1501.05 1037.1 1511.71 1033.64 C 1520.62 1028.05 1538.85 1042.56 1543.91 1040.69 C 1562.24 1033.92 1563.81 1029.74 1583.52 1045.06 C 1586.23 1055.29 1587.99 1069.46 1582.56 1078.94 C 1587.5 1099.99 1583.27 1127.48 1589.45 1148.69 C 1595.2 1168.43 1632.79 1181.23 1610.94 1203.69 C 1601.94 1205.73 1603.98 1208.38 1597.01 1209.5 C 1567.62 1214.19 1570.21 1190.73 1552.25 1177.99 L 1551.11 1177.2 C 1546.2 1180.6 1543.11 1182.83 1538.5 1186.72 C 1536.74 1188.53 1533.52 1189.43 1531.34 1190.49 C 1506.99 1202.36 1474.96 1185.13 1454.73 1171.48 C 1454.07 1171.03 1445.11 1168.29 1443.35 1167.59 C 1441.33 1176.55 1471.25 1182.33 1444.56 1208.65 L 1428.46 1212.29 C 1423.17 1209.81 1411.22 1203.24 1408.7 1197.98 C 1402.89 1186 1395.34 1174.63 1390.58 1162.18 C 1389.31 1158.88 1391.7 1156.37 1393.51 1153.75 C 1391.64 1151.89 1390.64 1150.58 1388.99 1148.52 C 1388.63 1146.72 1388.3 1144.87 1388.99 1143.25 C 1394.29 1137.16 1383.61 1119.65 1384.97 1115.94 C 1387.97 1107.82 1385.83 1111.29 1384.27 1100.98 C 1383.08 1093.11 1381.59 1084.47 1379.85 1076.21 L 1381.8 1073.71 C 1381.84 1071.86 1382.02 1071.62 1381.27 1070.47 C 1375.58 1061.76 1379.29 1053.06 1378.14 1043.59 C 1378.12 1043.5 1369.44 1039.09 1369.97 1036.37 C 1370.11 1035.62 1368.9 1033.93 1368.38 1033.33 C 1362.23 1037.43 1360.82 1033.03 1353.37 1034.22 C 1351.47 1034.52 1343.45 1038.8 1341.65 1039.5 C 1340.55 1039.92 1335.95 1036.63 1332.45 1039.65 C 1330.37 1041.03 1324.69 1051.9 1325.38 1054.02 C 1331.47 1072.69 1317.93 1089.86 1326.29 1109.07 C 1326.28 1109.05 1323.19 1113.91 1323.2 1114.07 C 1325.36 1128.85 1328.04 1144.19 1330.26 1158.91 C 1334.84 1189.25 1343.42 1189.82 1319.37 1212.79 C 1313.66 1212.56 1308.59 1212.94 1302.92 1213.29 C 1299.52 1209.52 1292.43 1202.02 1291.13 1197.49 L 1293.34 1194.54 C 1293.85 1186.19 1287.83 1187.2 1292.07 1172.52 C 1294.08 1165.53 1291.57 1142.44 1291.32 1133.5 C 1293.21 1131.94 1292.79 1132.44 1294.27 1130.48 C 1293.71 1129.81 1290.7 1126.14 1290.65 1125.64 C 1290.03 1118.18 1288.85 1109.28 1289.4 1102.03 C 1291.42 1099.48 1291 1100.55 1291.84 1097.61 L 1289.2 1094.35 C 1289.05 1088.6 1290.57 1053.8 1291.57 1048.6 C 1300.51 1041.25 1290.76 1039.18 1292.39 1028.89 C 1292.92 1025.57 1291.54 1023.62 1289.95 1021.16 C 1292.28 1013.27 1293.29 1011.24 1297.06 1004.23 C 1294.94 1000.81 1292.83 996.41 1290.96 992.772 C 1300.94 982.486 1293.96 982.471 1294.16 968.83 C 1294.18 967.167 1298.36 959.249 1299.48 956.843 C 1298.81 955.117 1297.85 953.637 1296.83 952.093 C 1296.69 948.05 1300.06 922.786 1301.83 920.479 C 1300.31 909.316 1297.99 886.222 1302.4 876.367 C 1294.03 857.841 1280.72 842.889 1293.32 821.475 C 1298.24 813.124 1301.86 812.056 1310.7 810.14 z" fill="rgb(2,1,2)" transform="translate(0,0)"></path>
<path d="M 1370.89 854.473 C 1373.61 853.847 1382.94 853.998 1385.74 854.472 C 1418.88 860.086 1435.25 867.918 1455.92 892.61 C 1455.86 932.433 1434.6 947.142 1404.87 969.022 C 1394.29 979.824 1388.75 970.599 1382.31 961.975 C 1362.75 955.833 1354.32 953.535 1334.74 955.644 C 1328.81 947.349 1332.25 942.545 1334.14 934.469 C 1335.88 927.083 1333.71 916.892 1334.67 909.304 C 1334.73 908.788 1339.18 904.655 1337.81 902.503 C 1337.07 885.375 1334.51 874.911 1342.25 858.574 C 1349.2 855.959 1362.74 855.603 1370.89 854.473 z" fill="rgb(130,104,83)" transform="translate(0,0)"></path>
<path d="M 1513.2 1087.08 C 1517.76 1088.09 1522.18 1088.76 1526.79 1089.5 L 1526.67 1089.36 C 1530.89 1092.68 1533.9 1096.43 1534.4 1101.96 C 1535.26 1111.47 1525.62 1144.73 1521.05 1151.44 C 1515.31 1153.87 1512.69 1152.61 1506.71 1150.58 C 1501.23 1148.38 1498.33 1146.37 1493.42 1143.25 C 1491.27 1139.55 1490.3 1136.78 1488.76 1132.82 L 1493.59 1123.21 C 1490.76 1121.19 1487.47 1119.64 1486.93 1116.92 C 1489.33 1115.88 1490.63 1115.19 1492.92 1113.9 C 1496.05 1107.71 1492.05 1109.92 1490.58 1104.34 C 1499.16 1095.75 1501.97 1091.06 1513.2 1087.08 z" fill="rgb(130,104,83)" transform="translate(0,0)"></path>
<path d="M 744.041 1029.3 C 744.861 1028.42 745.9 1027.3 747.159 1025.95 C 748.728 1012.84 748.923 996.746 748.997 983.609 C 749.02 979.658 748.36 966.619 745.827 965.426 C 745.906 965.464 742.393 962.748 742.697 962.977 C 741.344 953.4 761.662 934.265 770.064 929.947 C 778.265 925.733 782.737 934.564 791.605 926.065 C 794.331 926.446 794.182 926.569 796.478 928.181 C 801.71 927.713 809.615 924.912 812.681 926.029 L 814.084 928.292 C 825.712 930.844 834.011 929.073 845.241 935.709 C 846.529 936.47 856.98 936.462 861.339 937.966 C 891.183 948.262 920.113 968.662 929.871 1000.16 C 931.044 1004.75 927.692 1002.84 931.778 1012.45 C 926.004 1025.67 918.443 1043.25 908.343 1053.72 C 906.6 1054.17 906.249 1054.24 904.39 1054.53 C 904.08 1058.96 904.802 1057.92 902.452 1060.85 C 899.896 1060.74 899.751 1060.41 897.406 1059.24 C 895.211 1060.1 895.407 1059.61 894.193 1061.89 C 890.602 1068.61 875.266 1072.18 868.144 1074.21 C 861.301 1076.15 854.314 1077.79 847.251 1078.69 C 838.329 1079.83 807.385 1079.08 803.105 1086.44 C 799.012 1093.47 803.568 1110.42 803.276 1110.77 C 802.847 1111.28 801.982 1111.2 801.444 1111.6 C 798.626 1113.69 803.338 1149.83 803.853 1154.93 C 804.299 1159.34 804.598 1163.81 805.027 1168.19 C 805.833 1176.43 812.345 1175.63 810.941 1189.02 C 812.427 1190.87 813.186 1191.66 814.887 1193.32 C 820.044 1216.73 791.239 1223.93 775.249 1229.86 C 756.552 1220.34 750.039 1214.64 751.444 1192.96 C 751.522 1191.76 748.76 1192.72 748.343 1188.5 C 750.586 1185.39 751.31 1186.02 755.783 1184.43 C 753.692 1183.23 752.503 1183.05 750.184 1182.41 L 749.339 1180.55 C 750.247 1179.44 751.057 1178.37 751.8 1177.13 C 744.278 1170.1 751.858 1167.34 751.305 1158.66 C 744.338 1151.97 750.578 1139.8 749.832 1130.54 C 749.535 1126.86 751.993 1120.54 751.775 1116.55 C 751.932 1112.92 749.259 1111.9 750.538 1108.35 L 754.863 1105.99 L 754.703 1105.15 C 753.037 1104.68 751.663 1104.88 751.2 1103.23 C 748.627 1094.09 752.12 1083.28 752.093 1073.91 C 752.093 1073.75 745.753 1058.19 745.942 1058.45 L 744.061 1059.21 L 743.436 1061.37 C 744.122 1062.38 744.807 1063.38 745.492 1064.39 C 744.233 1071.91 743.18 1082.16 742.772 1089.28 C 743.037 1088.89 738.972 1094.61 739.776 1093.22 C 734.305 1102.69 738.255 1109.4 729.026 1116.51 C 729.152 1117.17 730.626 1120.1 731.193 1119.2 C 729.693 1121.57 728.264 1123.62 726.72 1125.99 C 712.693 1147.57 691.584 1169.59 665.707 1175.57 C 658.022 1176.8 650.042 1175.63 642.363 1174.85 C 642.24 1174.83 637.651 1176.91 637.555 1176.89 C 607.813 1172.56 586.27 1155.71 571.3 1130.4 C 569.869 1108.38 560.976 1098.06 561.068 1071.87 C 561.137 1052.35 575.408 1006.81 573.524 995.413 C 578.719 984.624 590.71 968.266 602.588 963.891 C 612.731 960.155 622.738 969.85 631.334 969.923 C 648.462 970.067 664.674 966.099 681.735 972.023 C 708.798 981.421 729.043 1006.52 739.595 1032.46 C 741.145 1037.08 742.82 1047.82 745.26 1050.64 C 748.565 1046.21 748.081 1033.22 744.041 1029.3 z" fill="rgb(2,1,2)" transform="translate(0,0)"></path>
<path d="M 652.315 1012.51 L 655.105 1014.29 C 681.998 1011.06 688.923 1030.99 698.322 1051.87 C 700.257 1056.17 702.076 1064.13 699.951 1068.53 L 696.59 1075.5 C 698.461 1078.38 698.59 1078.59 699.804 1081.79 C 698.566 1099.37 679.951 1122.99 664.446 1131.5 C 663.234 1132.16 655.476 1133.27 653.72 1133.53 C 646.593 1134.17 637.4 1132.55 631.072 1129.92 C 611.041 1121.6 605.185 1102.6 605.832 1082.54 C 605.856 1081.81 603.341 1081.1 603.604 1078.76 C 604.12 1074.16 605.182 1069.7 606.302 1065.21 C 607.409 1060.28 609.421 1056.11 606.807 1051.28 C 606.674 1050.96 606.54 1050.64 606.407 1050.32 C 607.34 1043.91 614.021 1028.58 617.179 1022.81 C 619.414 1022.02 620.839 1021.35 622.914 1020.49 C 633.472 1016.07 639.986 1017.02 652.315 1012.51 z" fill="rgb(130,104,83)" transform="translate(0,0)"></path>
<path d="M 822.242 976.072 C 847.519 978.861 860.332 979.505 878.715 999.513 C 879.655 1005.83 880.629 1009.64 882.25 1015.79 C 874.112 1025.75 873.608 1026.03 861.575 1030.67 C 854.298 1027.86 847.914 1034.72 841.967 1034.86 C 833.961 1035.05 825.577 1035.1 817.482 1035.35 C 798.168 1022.67 810.695 1018.4 810.688 1002 C 810.681 985.687 800.825 986.561 822.242 976.072 z" fill="rgb(130,104,83)" transform="translate(0,0)"></path>
<path d="M 504.882 804.776 C 510.153 805.72 514.934 808.46 518.414 812.531 C 531.892 828.127 523.096 854.849 523.019 872.987 C 522.94 891.45 523.465 909.052 522.02 927.561 C 523.591 928.209 525.214 928.876 526.85 929.484 C 541.377 934.881 574.396 915.399 574.645 942.933 C 574.729 952.235 572.986 961.445 566.288 968.217 C 564.706 968.445 542.574 973.141 543.317 972.325 C 536.294 980.039 534.811 972.986 524.687 974.132 C 511.394 982.286 523.876 1000.03 517.647 1011.72 C 516.055 1014.71 516.176 1014.05 515.476 1017.4 C 519.916 1025.79 513.865 1025.58 513.809 1035.61 C 513.695 1056.07 504.039 1101.22 509.486 1119.42 C 503.904 1134.77 507.55 1134.89 512.372 1148.95 C 517.736 1164.6 522.09 1169.37 511.175 1183.61 C 510.953 1183.9 512.864 1187.44 509.328 1190.17 C 502.454 1195.48 496.662 1196.27 491.578 1203.69 C 482.818 1201.5 473.815 1199.75 468.529 1191.43 C 459.868 1176.82 464.003 1157.02 464.089 1140.99 C 464.15 1129.63 462.13 1126.01 468.124 1116.45 C 468.694 1115.54 466.158 1100.51 466.494 1097.81 C 467.287 1091.42 469.514 1085.26 470.864 1079.01 C 470.387 1078.32 469.513 1077.1 469.156 1076.39 C 467.811 1073.7 469.009 1071.92 470.068 1069.31 C 471.846 1064.93 473.743 1022.23 473.851 1014.13 C 473.951 1006.65 472.286 995.263 474.941 988.534 C 475.104 988.12 475.667 986.911 475.771 986.442 C 476.32 983.973 475.511 982.676 474.13 980.772 C 469.325 979.699 431.925 981.466 430.833 984.315 C 426.758 994.942 428.747 1050.47 425.003 1065.67 C 424.49 1066.19 420.007 1070.6 419.998 1070.76 C 419.227 1085.31 419.131 1101.63 415.376 1115.71 C 409.537 1137.6 398.196 1144.47 403.233 1169.35 C 402.743 1170.12 402.248 1170.89 401.748 1171.66 C 390.816 1188.37 384.714 1193.07 366.285 1197.02 C 361.31 1195.18 353.816 1191.52 348.785 1189.24 C 337.073 1193.21 325.704 1198.81 313.108 1199.82 C 304.608 1200.51 303.602 1199.85 295.969 1203.93 C 265.818 1195 245.576 1186.21 233.625 1154.46 C 229.389 1143.21 221.42 1140.56 225.293 1124.05 C 227.55 1114.42 225.604 1114.34 221.685 1106.9 C 223.731 1101.07 225.46 1089.46 226.62 1082.93 C 225.062 1081.52 224.641 1081.08 223.314 1079.45 C 224.472 1072.53 225.062 1058.04 226.337 1054.16 L 228.178 1051.91 C 227.948 1043.49 229.802 1033.49 229.941 1024.87 C 230.125 1013.49 228.837 1001.59 230.439 990.308 C 231.359 983.832 233.388 978.999 234.403 972.023 C 231.246 965.195 231.547 965.692 236.184 960.628 C 237.389 955.064 231.823 951.799 230.896 944.158 C 232.541 943.6 231.693 943.93 233.43 943.145 C 230.996 930.696 230.215 917.618 228.637 905.173 C 228.308 902.585 227.147 901.213 226.939 897.555 C 228.197 896.483 229.475 895.433 230.771 894.407 C 230.785 890.87 227.783 884.721 226.435 880.559 C 231.573 874.326 223.215 844.871 220.442 836.272 C 229.456 821.785 222.555 818.496 242.942 812.085 C 282.264 823.401 271.145 849.779 271.232 882.229 C 271.661 888.503 270.873 891.643 269.939 897.739 C 268.015 910.826 272.378 926.794 272.259 940.242 C 272.154 952.041 272.043 962.896 273.057 974.524 C 273.52 979.831 267.912 993.826 266.762 1000.11 L 270.669 1002.35 C 275.468 1016.57 268.789 1050.12 265.453 1065.48 C 262.919 1077.15 264.796 1075.49 266.988 1087.62 C 267.238 1089.01 264.601 1102.47 264.204 1105.39 C 270.844 1112.22 266.129 1138.3 281.207 1149.46 C 297.991 1161.87 303.147 1153.22 320.838 1152.61 C 325.283 1148.95 358.986 1122.92 360.721 1120.25 C 360.477 1119.97 358.627 1118.3 359.216 1117.48 C 367.284 1106.17 373.422 1102.17 371.588 1087.41 C 371.355 1085.54 379.093 1070.67 377.988 1067 C 377.341 1064.86 375.729 1066.51 375.233 1061.8 C 376.484 1060.45 379.209 1057.72 379.41 1055.92 C 381.091 1040.82 384.712 1025.81 386.183 1010.76 C 386.421 1008.32 384.895 1004.74 383.942 1002.72 C 380.341 995.072 385.207 997.843 385.191 992.764 C 385.181 989.271 383.372 984.179 383.552 980.494 C 383.745 976.541 386.791 973.193 386.52 969.35 C 385.402 953.502 386.975 933.422 385.8 918.147 C 384.329 899.042 369.615 879.238 375.38 858.583 C 377.212 852.018 379.673 846.838 385.636 843.272 C 389.715 840.817 394.608 840.1 399.22 841.283 C 408.903 843.707 412.534 850.097 416.962 857.901 C 415.825 864.846 422.58 889.675 423.986 898.947 C 425.962 911.985 427.868 927.318 430.795 940 C 438.648 943.726 450.431 940.162 458.451 938.622 C 462.672 937.812 468.749 939.552 473.125 938.056 C 485.532 933.814 479.096 921.566 479.423 912.337 C 480.268 905.706 482.122 899.701 482.556 892.965 C 484.149 868.261 478.89 833.375 492.552 811.805 C 492.963 811.652 493.374 811.498 493.785 811.344 L 495.667 810.602 C 500.698 808.66 500.979 808.704 504.882 804.776 z" fill="rgb(2,1,2)" transform="translate(0,0)"></path>
<path d="M 1103.54 1006.01 C 1120.33 1012.88 1131.38 1005.81 1142.88 1023.1 C 1143.31 1033.56 1140.08 1056.08 1136.72 1065.68 C 1127.21 1092.81 1140.88 1125.71 1146.59 1152.19 C 1154.73 1161.23 1160.86 1164.24 1165.98 1175.62 C 1163.38 1180.91 1161.25 1186.95 1158.46 1191.73 C 1149.32 1194.72 1135.21 1200.29 1126.91 1195.9 C 1117.43 1190.88 1114.31 1180.86 1109.94 1171.98 C 1108.93 1171.07 1104.54 1169.3 1104.41 1167.91 C 1103.46 1158 1105.93 1157.44 1094.52 1152.11 L 1093.48 1151.63 C 1086.39 1160.92 1077.58 1167.19 1066.23 1170.66 C 1054.05 1174.38 1037.51 1169.28 1026.55 1163.27 C 1018.81 1159.01 1010.01 1149.86 1007.96 1140.14 C 1004.29 1122.79 1003.74 1100.56 1005.43 1082.65 C 1005.63 1080.56 1011.41 1071.39 1012.68 1069.35 C 1012.68 1067.79 1012.77 1066.2 1012.74 1064.64 C 1012.71 1062.62 1012.59 1061.1 1013.24 1059.12 C 1015.5 1052.23 1021.43 1044 1025.17 1037.7 C 1050.72 994.73 1063.08 1022.87 1079.07 1015.02 C 1080.69 1014.22 1081.45 1013.69 1083.32 1013.51 C 1085.18 1013.34 1087.51 1015.83 1088.99 1016.95 C 1091.56 1016.36 1100.75 1008.26 1103.54 1006.01 z" fill="rgb(2,1,2)" transform="translate(0,0)"></path>
<path d="M 1063.16 1064.62 C 1071.88 1067.88 1077.65 1065.45 1083.43 1067.82 C 1083.51 1068.3 1084.24 1093.96 1084.36 1093.6 C 1081.46 1102.38 1070.5 1114.95 1064.42 1122.41 C 1063.73 1123.94 1063.77 1123.55 1062.37 1124.78 C 1045.82 1127.48 1049.01 1124.93 1041.51 1112.73 C 1051.85 1094.11 1044.02 1084.89 1063.16 1064.62 z" fill="rgb(130,104,83)" transform="translate(0,0)"></path>
<path d="M 1788.6 959.019 C 1810.64 958.087 1802.85 971.741 1804.15 982.955 C 1805.79 996.979 1808.43 998.291 1805.1 1013.16 C 1804.04 1017.89 1813.87 1036.29 1809.05 1042.7 C 1806.42 1046.75 1807.05 1051.1 1807.45 1055.56 C 1804.41 1060.2 1802.71 1062.58 1802.08 1068.03 C 1798.18 1101.64 1786.66 1132.57 1771.06 1162.4 C 1766.91 1170.32 1761.05 1183.49 1752.23 1187.19 C 1733.61 1195.01 1714.75 1169.83 1696.62 1170.6 C 1695.44 1170.67 1686.43 1185.47 1682.83 1188.62 C 1675.98 1194.61 1672.02 1195.85 1663.85 1199.67 C 1656.18 1196.82 1650.39 1194.94 1643.6 1190.32 C 1643.03 1185.52 1643.02 1178.69 1642.87 1173.7 C 1640.15 1170.17 1636.77 1166.6 1636.39 1162.09 C 1634.98 1145.38 1630.84 1129.25 1629.38 1112.56 C 1627.77 1086.6 1615.99 1059.78 1621.28 1032.82 C 1622.02 1029.03 1636.25 1024.07 1639.7 1022.63 C 1644.75 1023.76 1649.61 1024.64 1654.69 1025.56 C 1672.9 1040.32 1665.04 1096.45 1671.96 1109.82 C 1677.69 1109.92 1690.09 1100.75 1695.66 1102.28 C 1713.25 1107.1 1721.33 1118.64 1730.11 1132.42 C 1735.53 1129.98 1743.49 1126.72 1747.01 1122.04 C 1746.75 1118.8 1746.04 1115.86 1747.51 1113.14 L 1750.18 1113.53 L 1751.21 1112.64 C 1750.54 1105.91 1754.59 1100.75 1756.58 1094.38 C 1768.6 1055.96 1762.49 1016.67 1765.32 977.644 L 1772.75 966.029 C 1777.13 963.75 1783.89 961.05 1788.6 959.019 z" fill="rgb(2,1,2)" transform="translate(0,0)"></path>
<path d="M 952.731 989.198 C 964.904 990.332 973.835 992.532 980.149 1004.78 C 985.308 1014.8 988.96 1024.2 984.766 1035.12 C 981.217 1044.36 984.254 1059.22 983.471 1069.2 C 983.05 1074.62 983.711 1080.71 982.912 1086.22 C 981.884 1094.18 980.051 1102.26 978.728 1110.17 C 976.997 1120.5 976.632 1131.97 973.631 1141.87 C 973.053 1143.78 963.055 1154.77 961.268 1156.77 C 955.86 1157.2 951.191 1158.45 945.522 1158.86 L 944.556 1157.53 C 937.621 1151.26 917.509 1153.8 925.147 1130.02 C 926.951 1124.4 930.558 1098.45 933.933 1096.25 L 935.62 1095.18 C 933.883 1086.01 934.297 1087.11 936.844 1079.1 C 931.132 1072.63 933.204 1073.06 936.948 1065.57 C 936.239 1064.33 935.523 1063.16 934.711 1061.98 C 936.288 1053.44 937.756 1045.28 938.192 1036.79 C 938.495 1030.9 934.788 1012.56 937.371 1008.1 C 941.763 1000.52 944.472 992.952 952.731 989.198 z" fill="rgb(2,1,2)" transform="translate(0,0)"></path>
<path d="M 959.264 900.784 C 964.311 901.91 970.346 902.9 975.499 903.869 C 979.428 908.448 989.039 916.781 990.656 921.811 C 992.898 928.786 986.39 946.695 979.779 950.279 C 975.357 950.998 972.06 951.25 967.575 951.576 C 956.872 943.938 953.105 941.055 946.944 929.628 C 947.021 923.754 947.057 917.88 947.053 912.005 C 952.444 907.693 954.67 905.986 959.264 900.784 z" fill="rgb(2,1,2)" transform="translate(0,0)"></path>
<metadata><recraft-signature>{"signed_by": "recraft", "signature_b64": "YvDBKUb1NnpbyWOWTYjbaJTxGeZ1gZRRjsWC2R6uLNLLceIePECcGepIqAXZiTbZHNBCjOtOZlvYx9V7AsE+DA==", "signing_algo": "Ed25519", "generation_timestamp": 1776302688, "identifier": "a3418782-769c-4225-9fa4-b94720910dc8"}</recraft-signature></metadata></svg>